<svg viewBox="0 0 330 200" xmlns="http://www.w3.org/2000/svg"><g><g><g><g><g><line x1="37" y1="177" x2="32" y2="177" style="visibility: inherit;" fill="rgb(0, 0, 0)" stroke="rgb(204, 204, 204)" stroke-width="1px"></line><line x1="37" y1="154.875" x2="32" y2="154.875" style="visibility: inherit;" fill="rgb(0, 0, 0)" stroke="rgb(204, 204, 204)" stroke-width="1px"></line><line x1="37" y1="132.75" x2="32" y2="132.75" style="visibility: inherit;" fill="rgb(0, 0, 0)" stroke="rgb(204, 204, 204)" stroke-width="1px"></line><line x1="37" y1="110.625" x2="32" y2="110.625" style="visibility: inherit;" fill="rgb(0, 0, 0)" stroke="rgb(204, 204, 204)" stroke-width="1px"></line><line x1="37" y1="88.5" x2="32" y2="88.5" style="visibility: inherit;" fill="rgb(0, 0, 0)" stroke="rgb(204, 204, 204)" stroke-width="1px"></line><line x1="37" y1="66.375" x2="32" y2="66.375" style="visibility: inherit;" fill="rgb(0, 0, 0)" stroke="rgb(204, 204, 204)" stroke-width="1px"></line><line x1="37" y1="44.25" x2="32" y2="44.25" style="visibility: inherit;" fill="rgb(0, 0, 0)" stroke="rgb(204, 204, 204)" stroke-width="1px"></line><line x1="37" y1="22.125" x2="32" y2="22.125" style="visibility: inherit;" fill="rgb(0, 0, 0)" stroke="rgb(204, 204, 204)" stroke-width="1px"></line><line x1="37" y1="0" x2="32" y2="0" style="visibility: inherit;" fill="rgb(0, 0, 0)" stroke="rgb(204, 204, 204)" stroke-width="1px"></line></g><g transform="translate(27, 0)"><text x="0" y="177" dx="0em" dy="0.3em" style="text-anchor: end; visibility: hidden; font-family: &quot;Helvetica Neue&quot;, sans-serif; font-size: 12px; font-weight: 200;" fill="rgb(50, 49, 63)" stroke="none" stroke-width="1px">430</text><text x="0" y="154.875" dx="0em" dy="0.3em" style="text-anchor: end; visibility: inherit; font-family: &quot;Helvetica Neue&quot;, sans-serif; font-size: 12px; font-weight: 200;" fill="rgb(50, 49, 63)" stroke="none" stroke-width="1px">435</text><text x="0" y="132.75" dx="0em" dy="0.3em" style="text-anchor: end; visibility: hidden; font-family: &quot;Helvetica Neue&quot;, sans-serif; font-size: 12px; font-weight: 200;" fill="rgb(50, 49, 63)" stroke="none" stroke-width="1px">440</text><text x="0" y="110.625" dx="0em" dy="0.3em" style="text-anchor: end; visibility: inherit; font-family: &quot;Helvetica Neue&quot;, sans-serif; font-size: 12px; font-weight: 200;" fill="rgb(50, 49, 63)" stroke="none" stroke-width="1px">445</text><text x="0" y="88.5" dx="0em" dy="0.3em" style="text-anchor: end; visibility: hidden; font-family: &quot;Helvetica Neue&quot;, sans-serif; font-size: 12px; font-weight: 200;" fill="rgb(50, 49, 63)" stroke="none" stroke-width="1px">450</text><text x="0" y="66.375" dx="0em" dy="0.3em" style="text-anchor: end; visibility: inherit; font-family: &quot;Helvetica Neue&quot;, sans-serif; font-size: 12px; font-weight: 200;" fill="rgb(50, 49, 63)" stroke="none" stroke-width="1px">455</text><text x="0" y="44.25" dx="0em" dy="0.3em" style="text-anchor: end; visibility: hidden; font-family: &quot;Helvetica Neue&quot;, sans-serif; font-size: 12px; font-weight: 200;" fill="rgb(50, 49, 63)" stroke="none" stroke-width="1px">460</text><text x="0" y="22.125" dx="0em" dy="0.3em" style="text-anchor: end; visibility: inherit; font-family: &quot;Helvetica Neue&quot;, sans-serif; font-size: 12px; font-weight: 200;" fill="rgb(50, 49, 63)" stroke="none" stroke-width="1px">465</text><text x="0" y="0" dx="0em" dy="0.3em" style="text-anchor: end; visibility: hidden; font-family: &quot;Helvetica Neue&quot;, sans-serif; font-size: 12px; font-weight: 200;" fill="rgb(50, 49, 63)" stroke="none" stroke-width="1px">470</text></g><line x1="37" y1="0" x2="37" y2="177" fill="rgb(0, 0, 0)" stroke="rgb(204, 204, 204)" stroke-width="1px"></line></g></g><g transform="translate(37, 0)" clip-path="url(#clip_0)"><clipPath id="clip_0"><rect width="293" height="177"></rect></clipPath><g><g><g><line x1="0" y1="0" x2="0" y2="177" fill="rgb(0, 0, 0)" stroke="rgb(60, 60, 60)" stroke-width="1px" opacity="0.25"></line><line x1="41.857142857142854" y1="0" x2="41.857142857142854" y2="177" fill="rgb(0, 0, 0)" stroke="rgb(60, 60, 60)" stroke-width="1px" opacity="0.25"></line><line x1="83.71428571428571" y1="0" x2="83.71428571428571" y2="177" fill="rgb(0, 0, 0)" stroke="rgb(60, 60, 60)" stroke-width="1px" opacity="0.25"></line><line x1="125.57142857142857" y1="0" x2="125.57142857142857" y2="177" fill="rgb(0, 0, 0)" stroke="rgb(60, 60, 60)" stroke-width="1px" opacity="0.25"></line><line x1="167.42857142857142" y1="0" x2="167.42857142857142" y2="177" fill="rgb(0, 0, 0)" stroke="rgb(60, 60, 60)" stroke-width="1px" opacity="0.25"></line><line x1="209.28571428571428" y1="0" x2="209.28571428571428" y2="177" fill="rgb(0, 0, 0)" stroke="rgb(60, 60, 60)" stroke-width="1px" opacity="0.25"></line><line x1="251.14285714285714" y1="0" x2="251.14285714285714" y2="177" fill="rgb(0, 0, 0)" stroke="rgb(60, 60, 60)" stroke-width="1px" opacity="0.25"></line><line x1="293" y1="0" x2="293" y2="177" fill="rgb(0, 0, 0)" stroke="rgb(60, 60, 60)" stroke-width="1px" opacity="0.25"></line></g><g><line x1="0" y1="177" x2="293" y2="177" fill="rgb(0, 0, 0)" stroke="rgb(60, 60, 60)" stroke-width="1px" opacity="0.25"></line><line x1="0" y1="154.875" x2="293" y2="154.875" fill="rgb(0, 0, 0)" stroke="rgb(60, 60, 60)" stroke-width="1px" opacity="0.25"></line><line x1="0" y1="132.75" x2="293" y2="132.75" fill="rgb(0, 0, 0)" stroke="rgb(60, 60, 60)" stroke-width="1px" opacity="0.25"></line><line x1="0" y1="110.625" x2="293" y2="110.625" fill="rgb(0, 0, 0)" stroke="rgb(60, 60, 60)" stroke-width="1px" opacity="0.25"></line><line x1="0" y1="88.5" x2="293" y2="88.5" fill="rgb(0, 0, 0)" stroke="rgb(60, 60, 60)" stroke-width="1px" opacity="0.25"></line><line x1="0" y1="66.375" x2="293" y2="66.375" fill="rgb(0, 0, 0)" stroke="rgb(60, 60, 60)" stroke-width="1px" opacity="0.25"></line><line x1="0" y1="44.25" x2="293" y2="44.25" fill="rgb(0, 0, 0)" stroke="rgb(60, 60, 60)" stroke-width="1px" opacity="0.25"></line><line x1="0" y1="22.125" x2="293" y2="22.125" fill="rgb(0, 0, 0)" stroke="rgb(60, 60, 60)" stroke-width="1px" opacity="0.25"></line><line x1="0" y1="0" x2="293" y2="0" fill="rgb(0, 0, 0)" stroke="rgb(60, 60, 60)" stroke-width="1px" opacity="0.25"></line></g></g></g><g><g><line x1="0" y1="2079.75" x2="293" y2="2079.75" fill="rgb(0, 0, 0)" stroke="rgb(153, 153, 153)" stroke-width="1.5px"></line></g></g><g><g><line x1="41.857142857142854" y1="0" x2="41.857142857142854" y2="177" fill="rgb(0, 0, 0)" stroke="rgb(153, 153, 153)" stroke-width="1.5px"></line></g></g><g><g><g><g><g><path stroke="rgb(255, 112, 67)" stroke-width="2px" d="M42.27571428571429,43.91807098388671L42.44314285714285,76.16569061279297L42.69428571428571,41.52733078496615L43.02914285714286,42.58585490006743L43.44771428571429,40.45864378628568L43.61514285714286,42.29350284670295L43.78257142857143,39.89842529383296L44.03371428571428,41.88501356513572L44.28485714285714,42.0882847817264L44.452285714285715,82.75200537743483L45.205714285714286,41.76703231962108L45.45685714285714,42.8135536858282L45.540571428571425,42.225115164885864L45.87542857142857,43.79597697654836L46.294,41.28713842195265L46.46142857142857,81.20269642887827L46.54514285714286,42.61359887454748L46.71257142857142,41.31917626133608L46.796285714285716,43.361484250577405L46.96371428571428,73.38271448033248L47.88457142857143,42.438895495273414L48.80542857142857,40.842919284561475L48.88914285714286,40.06438053696422L48.972857142857144,80.19153715407057L49.30771428571428,41.778582341031154L49.55885714285714,42.43427601629L49.64257142857143,42.86576136909761L49.97742857142857,41.406354094220404L50.22857142857143,39.24579815271534L50.47971428571429,74.4716676940634L50.814571428571426,40.788546739653384L50.89828571428571,629.4571056741461L50.982,69.12716150262035L51.065714285714286,45.450719254007L51.568,42.075801523840056L51.73542857142857,78.51073783172608L52.57257142857143,45.09326704642197L52.82371428571429,42.65655911578307L53.07485714285714,40.5849859828115L53.158571428571435,43.97906639650921L53.326,45.20426023546278L53.74457142857143,77.9369318839357L53.912,43.62872930233087L55.335142857142856,43.11721276718288L55.41885714285714,41.27735715127511L55.50257142857143,94.94447472033643L55.92114285714286,82.52211877116747L56.256,80.1576241670291L56.590857142857146,43.19500961431075L56.674571428571426,78.95031394964235L57.176857142857145,42.99379126167551L57.428000000000004,40.82107585427315L57.511714285714284,78.14179668767332L57.59542857142857,47.48376787105647L57.76285714285714,41.60462108999468L58.18142857142857,39.24646650541581L58.265142857142855,582.8466010635448L58.76742857142857,103.3660493412556L58.851142857142854,44.39711107152249L59.35342857142857,40.91427373433311L59.60457142857143,43.163875449453826L60.02314285714286,80.64645907387523L60.358,44.385803117888514L60.44171428571429,41.61609993653906L60.69285714285715,41.42956082755836L60.77657142857143,79.17070882305559L61.02771428571429,44.43649318777844L61.195142857142855,87.58354113067547L61.697428571428574,43.64176098738571L61.781142857142854,46.279209707841886L61.86485714285714,41.21433716863399L61.948571428571434,601.6696785969662L62.28342857142857,66.83766860265953L62.53457142857143,41.56906238906069L62.702,42.52827632175945L63.790285714285716,574.8564295923773L63.95771428571428,65.78183069441955L64.12514285714286,42.40417567501137L64.96228571428571,42.3486819353742L65.046,40.86117035475547L65.21342857142857,41.4213816904697L65.29714285714286,80.6057041880951L65.46457142857143,44.21721938072511L65.54828571428571,40.723308407136415L66.05057142857143,80.96143922866301L66.13428571428571,45.40963223507751L66.72028571428571,41.32299831950564L66.88771428571428,42.616505310882786L67.05514285714285,42.66903873279469L67.13885714285715,42.89476746761582L67.3062857142857,78.68442154135278L67.976,44.4091937943428L68.14342857142857,43.34074929966408L68.22714285714285,43.16061070365342L68.31085714285715,42.113574748815296L68.72942857142857,41.61508598424112L69.48285714285714,41.80092999462664L69.65028571428572,42.13066994347784L69.734,42.820760972499215L69.98514285714286,40.1656349426149L70.06885714285714,41.9424331408992L70.32,45.29651364783484L70.40371428571429,42.364446545854236L70.48742857142857,42.34947339397161L70.57114285714286,79.17431859169984L70.82228571428571,42.218097045061654L70.90599999999999,46.12603107235003L71.07342857142858,82.8113176270461L71.15714285714286,539.2885886846966L71.32457142857143,100.22166723498276L71.82685714285714,84.58133041803023L71.91057142857143,45.558857210730366L72.078,39.43201597560585L72.16171428571428,41.297488620056015L72.32914285714286,40.80741848204315L72.49657142857143,43.920596256161105L72.664,40.831830846114656L72.74771428571428,41.34951839423971L72.83142857142857,41.94309080027517L72.91514285714285,43.71545109467942L73.08257142857143,41.45929196750427L73.41742857142857,39.912729120288304L73.75228571428572,41.507665305377884L73.836,82.45453835915248L74.00342857142857,45.16627765908436L74.08714285714285,42.64694824630686L74.17085714285714,40.6076379548974L74.25457142857144,42.38080973809113L74.33828571428572,74.75060516532595L75.25914285714285,41.2059152596307L75.51028571428571,85.36120843216682L75.59400000000001,43.51622124880183L75.67771428571429,41.08020146422217L75.84514285714285,75.58205470263931L75.92885714285714,44.99152479423003L76.26371428571429,41.24795541154728L76.43114285714286,44.906227848256066L76.766,41.27790547823875L77.01714285714286,43.356274015106095L77.51942857142858,44.64632367818339L77.60314285714286,84.37972967278752L77.68685714285714,42.776425744974205L77.938,41.07476677616913L78.10542857142858,43.156266837233574L78.27285714285713,41.94920877693227L78.35657142857143,77.4628873533362L78.69142857142857,45.39766819536558L78.85885714285713,46.3891767651111L79.11,78.57703691835822L79.1937142857143,43.68719562708549L79.36114285714285,41.62605987347058L79.44485714285715,40.659065398316386L79.86342857142857,41.456392474327004L80.11457142857142,39.82322695806721L80.1982857142857,39.583887486825375L80.53314285714286,41.66864464210752L80.95171428571429,43.15345870646581L81.03542857142857,39.53050148605985L81.11914285714286,40.19360840290196L81.45400000000001,43.22300957356515L81.53771428571429,44.14678357686748L81.62142857142858,74.23090970431844L81.95628571428571,43.47640221293966L82.04,40.72943445654664L82.29114285714286,40.40708819953133L82.45857142857143,41.686215190139876L82.7097142857143,41.93606043917157L82.79342857142858,40.86775026416569L82.87714285714286,79.09680811933984L83.2957142857143,80.08382942979293L83.54685714285715,43.55033626248172L83.79799999999999,41.08960341153582L83.8817142857143,42.06745108738747L84.13285714285715,43.11827204667409L84.21657142857143,42.75996887524852L84.384,41.6626154962064L84.63514285714287,42.71471159533962L84.8862857142857,78.89529899993974L84.97,41.77454524515866L85.05371428571428,40.68999237248849L85.30485714285714,45.049803730858855L85.38857142857142,81.55333900724399L85.556,43.977432947281784L85.72342857142858,41.7698895119247L85.80714285714286,86.64230458537922L85.89085714285714,553.3851690032782L85.97457142857142,65.90613907411121L86.39314285714286,41.14786199365608L86.47685714285714,42.02171142216088L86.728,45.93213113921101L86.89542857142858,76.01756602226683L87.14657142857143,43.480197445794545L87.314,40.12218729616322L87.48142857142858,39.04241088865467L87.89999999999999,43.21724564437807L87.98371428571429,41.393927886577586L88.06742857142856,40.60876974653419L88.15114285714286,73.65888701301432L88.23485714285715,41.5052472399569L88.31857142857143,40.217603336186244L89.072,78.0644736343509L89.15571428571428,41.0052904088524L89.40685714285715,78.14840981751328L89.82542857142856,79.16033100297592L89.99285714285715,46.40117154872908L90.244,41.997604141811934L90.32771428571428,38.90460058710781L90.49514285714285,40.23611484426053L90.57885714285715,39.40128442778786L91.08114285714285,93.75418968859366L91.24857142857144,44.29021015006143L91.58342857142857,41.47561282818231L92.002,41.88776532827512L92.42057142857144,43.289187484511416L92.67171428571429,80.05641584540295L92.83914285714285,42.66776629406735L93.174,73.85935531895696L93.42514285714284,78.9349537194558L93.50885714285714,43.17519647160529L94.09485714285714,45.71656772870398L94.51342857142856,41.02317125656268L95.18314285714285,42.36185140329232L95.35057142857144,41.661207534187014L95.85285714285713,43.09122157078906L95.93657142857143,79.68434624647313L96.35514285714285,42.76515583347185L96.77371428571429,45.58875487703898L96.85742857142857,81.79489525654574L97.02485714285714,43.156230667098896L97.19228571428572,80.89191943336422L97.27600000000001,46.864693804768876L97.52714285714285,41.11571835012083L97.61085714285714,82.76640241318817L97.77828571428572,41.732344195324515L97.94571428571429,77.00665691243461L98.11314285714286,42.72358545736088L98.19685714285714,42.95667423010272L98.86657142857142,45.187269368827714L99.11771428571429,43.58158839936823L99.28514285714286,43.98946375626136L99.36885714285714,41.95368798985103L99.70371428571428,79.07913016623898L99.78742857142858,43.319159471219734L99.87114285714286,41.131043771053555L100.206,39.9038902710891L100.2897142857143,41.91298663522775L100.62457142857143,567.9684007819474L100.95942857142857,64.25871003134245L101.04314285714285,43.82941912349898L101.21057142857143,80.31776112786098L101.79657142857143,42.949318411978055L102.04771428571429,41.527470919267955L102.38257142857142,41.22632395992173L102.55,43.30817081476863L102.63371428571429,44.75184353200166L102.71742857142857,42.38313915324579L102.80114285714286,43.8778868688909L102.88485714285714,41.31455364567259L103.47085714285714,41.65431573787734L103.722,77.72985478788596L103.97314285714286,41.771622228272406L104.14057142857143,42.1640422675452L104.30799999999999,572.8549043591623L104.39171428571427,64.18585561437524L104.89399999999999,43.92582943740035L105.14514285714286,41.988739705817096L105.31257142857143,40.99469954362834L105.47999999999999,41.23497700604423L105.64742857142858,44.271917326172996L105.81485714285715,41.52211924476572L106.23342857142856,42.195501542009566L106.31714285714287,40.56488320934429L106.48457142857143,40.02452865784224L106.652,78.39547505501444L107.07057142857143,43.63092196875385L107.48914285714287,72.2817554641189L108.07514285714286,45.908120631017056L108.15885714285714,42.23192519325801L108.41,42.68268386041177L108.82857142857144,40.47447923090249L108.91228571428572,45.94658987334378L109.74942857142857,41.8505058384288L109.83314285714285,594.3788554577366L110.168,69.73186283428225L110.25171428571429,78.64643267168957L110.58657142857143,45.96059136994538L110.754,88.66951836732386L111.17257142857143,78.78030064021964L111.25628571428572,43.14050993689116L111.34,42.23015593589926L111.42371428571428,43.23650234945208L111.59114285714286,42.31675428861732L111.75857142857143,42.21449486782305L111.926,79.06391311042186L112.00971428571428,41.079410929599135L112.42828571428572,41.656888589640886L112.84685714285713,42.9170554966353L113.098,41.51699164514531L113.18171428571429,82.5773443779076L113.60028571428572,41.62298714983777L113.684,44.830121614278085L113.85142857142857,40.259280258256524L114.01885714285714,80.43128121712105L114.43742857142857,84.19926601124641L114.52114285714285,46.16533165556473L114.60485714285714,43.15901136615102L114.77228571428572,89.94811738739222L114.93971428571429,43.03719130629767L115.10714285714286,42.17314742851616L115.35828571428573,572.3664135748961L115.44200000000001,69.94117907870483L115.94428571428573,47.52600458594654L116.028,144.7233913787006L116.19542857142858,46.76385723087705L116.36285714285714,41.04270110148198L116.94885714285714,41.08276780200816L117.2837142857143,41.32405596817421L117.36742857142858,41.00270403574939L117.45114285714286,44.88048970071284L117.53485714285713,39.714741707400066L117.70228571428571,87.53729622747997L118.4557142857143,43.89838068848249L118.53942857142857,83.1055726159062L118.79057142857143,42.6649240198214L119.12542857142857,40.61360540352382L119.29285714285714,79.9516192316839L119.79514285714286,42.6226848801966L119.87885714285714,41.86729299062952L119.96257142857142,42.73591568534141L120.04628571428572,81.06180777993724L120.21371428571429,45.76454256912206L120.38114285714286,41.751652390006456L120.716,41.94816151956829L120.88342857142858,613.3408801208587L121.13457142857143,67.8638957539677L121.30199999999999,81.49319798272634L121.97171428571428,43.81004024940225L122.55771428571428,80.23628690948996L122.80885714285715,44.412611548622266L122.97628571428571,76.13592674591482L123.22742857142858,45.57047610526908L123.56228571428571,41.101713024010735L123.72971428571428,44.748759680379976L123.81342857142857,79.28344714582215L123.98085714285715,44.27017396006286L124.232,87.47959208952484L124.39942857142856,42.94764456746023L124.90171428571428,42.86564952921759L124.98542857142857,45.229471143182536L125.32028571428572,40.362366877560305L125.99,40.806090460295906L126.07371428571429,40.85933059689748L126.15742857142857,41.74306276016142L126.40857142857143,602.5216746558724L126.576,101.35413432557873L126.65971428571429,45.137228609043035L126.74342857142857,40.422181844871545L127.58057142857143,41.985315874822504L127.83171428571428,89.16820504383482L127.91542857142856,43.96970816969116L128.41771428571428,43.288731578939974L128.50142857142856,40.85717470282111L128.75257142857143,76.89183065505351L128.8362857142857,45.789554361289106L129.08742857142857,80.96321836941482L129.17114285714285,44.149352299615686L129.33857142857144,41.00126579061674L129.506,41.44973873853195L129.58971428571428,76.84266551603046L130.0082857142857,76.6684187122595L130.1757142857143,45.730494705089L130.25942857142857,41.69118393012502L130.34314285714285,75.32299208224501L130.42685714285713,42.758342234185875L130.59428571428572,41.23515735625753L130.76171428571428,77.88934914035787L130.92914285714286,44.66848395670786L131.01285714285714,41.83838621378189L131.09657142857142,76.33114649659396L131.18028571428573,45.87755350122123L131.68257142857144,40.787835328392305L131.76628571428571,41.80355342748521L131.85,42.2926371533822L132.01742857142858,41.77132282000409L132.85457142857143,78.20944775092977L133.022,44.51291454011883L133.1057142857143,39.97830948301018L133.27314285714286,78.05886394977637L133.77542857142856,547.3948065658808L134.02657142857143,104.21418946364712L134.36142857142858,82.93332361497555L134.78,47.672433217459144L134.86371428571428,79.35246517181832L135.2822857142857,85.92499871578225L135.366,44.5014669221907L135.4497142857143,40.84558953292188L135.70085714285713,41.66248706059798L135.86828571428572,41.58111691040261L136.538,74.82952544025898L136.70542857142857,45.03865003687102L136.87285714285713,145.49834221033856L137.124,46.218265437764785L137.37514285714286,78.45069951580538L137.54257142857142,45.12151655511565L137.70999999999998,39.66239581532338L137.96114285714285,40.84565063471817L138.12857142857143,78.10382662124432L138.3797142857143,42.18772186531464L138.46342857142858,40.86837106029435L138.63085714285714,41.28268310106412L138.71457142857142,40.75761715144367L138.7982857142857,40.75746053533439L139.13314285714287,41.37338302252152L139.468,41.18740706389423L139.80285714285714,83.45300583527019L139.88657142857141,42.94699704466126L140.054,43.37205993918391L140.2214285714286,45.50541490414196L140.38885714285715,41.63230714724898L140.47257142857143,42.133656919923254L140.89114285714285,42.06697493813604L141.05857142857144,80.40416919905928L141.14228571428572,545.3600675463613L141.97942857142857,68.80262677234388L142.14685714285716,77.95322255961413L142.48171428571428,44.92683489555395L142.56542857142858,43.04137654613004L142.64914285714286,77.22122227706487L142.81657142857142,44.1758262793235L142.9002857142857,41.80228856349021L143.31885714285715,39.39412623593691L143.4862857142857,39.62789901832457L143.73742857142855,38.90719591602965L144.23971428571429,40.34649540130442L144.49085714285715,43.62903142956392L144.6582857142857,75.38852935668272L145.24428571428572,47.1058128043577L145.57914285714284,41.909763861199906L145.74657142857143,42.03136498334263L145.914,77.06318664702886L145.9977142857143,43.40357440573871L146.08142857142857,41.72742958986598L146.41628571428572,40.64879623645115L146.5,43.21267075663536L146.5837142857143,43.929401772793796L146.66742857142856,617.794546662997L147.0022857142857,68.1957245247618L147.086,43.99201190354114L147.25342857142857,39.47989640266377L147.33714285714288,43.43798654295395L147.5882857142857,149.73433708379457L147.672,48.41104308594606L148.00685714285714,42.1431157628727L148.258,39.51443972486288L148.50914285714288,594.2743772999786L148.76028571428571,65.61000252278002L148.844,43.087300718536056L149.09514285714286,40.453997948380504L149.17885714285714,82.02590730941058L149.26257142857145,43.66648862097685L149.76485714285712,43.48503922915506L150.5182857142857,43.41651910234819L151.02057142857143,39.71811641411037L151.43914285714288,39.7247572704953L151.60657142857144,39.42753738268385L151.6902857142857,76.14386161874444L151.85771428571428,43.0289631717998L151.94142857142856,40.22749217406036L152.02514285714287,41.1600871081601L152.19257142857143,562.1943562330998L152.2762857142857,67.38249260107683L152.61114285714288,41.917406743312114L152.69485714285713,40.859559930036056L152.946,39.82383871278196L153.11342857142859,43.25008855399537L153.19714285714286,78.73935795831854L153.4482857142857,42.49681632373125L153.532,41.09494107370989L153.78314285714288,42.60405035582443L153.86685714285713,41.889925788656456L154.118,41.91788716036751L154.53657142857145,43.914468237036004L154.87142857142857,42.866469685626356L154.95514285714285,85.66265116240345L155.12257142857143,44.7065778396007L155.29000000000002,41.46675119153332L155.37371428571427,82.2115355342708L155.7922857142857,42.94735895423628L156.21085714285715,42.06309699995609L156.54571428571427,41.854363065712135L156.71314285714286,41.20402159049016L156.96428571428572,82.77166569370966L157.13171428571428,47.4166460034277L157.2154285714286,41.72321315859406L157.88514285714285,45.243574949497656L158.3874285714286,41.69558108909709L158.55485714285714,40.802248181937955L159.30828571428572,43.825446478398504L159.39200000000002,42.841184733862235L159.55942857142858,583.5337605624746L159.8942857142857,68.67304124374385L160.22914285714285,81.30598687199036L160.31285714285715,44.1744491425159L160.3965714285714,41.49800176552091L160.64771428571427,77.21999208781034L160.73142857142858,42.596097371155L160.81514285714286,42.24718360792903L161.06628571428573,41.683387739133224L161.15,39.834731379688094L161.3174285714286,43.57350325403567L161.6522857142857,40.88211199442375L162.07085714285714,42.51941630744918L162.15457142857142,41.89553158982292L162.4894285714286,38.41368607516753L162.8242857142857,41.93426742367541L162.90800000000002,42.368804374611244L163.07542857142857,42.28712221309303L163.15914285714285,81.9577685678265L164.08,41.889271914501194L164.24742857142857,93.60228986493664L164.41485714285716,43.37005536020641L164.58228571428572,42.059678694364976L164.83342857142858,40.18722742280778L165.08457142857142,579.2110260908073L165.16828571428573,66.32379652809043L165.25199999999998,41.72519736964301L165.75428571428571,40.50283810145234L165.838,44.40030437701054L165.92171428571427,41.739138826665254L166.42399999999998,84.78939225916291L166.75885714285715,83.0821459884545L166.9262857142857,579.4425905933756L167.51228571428572,102.66812717087912L167.67971428571428,41.731754653200994L168.01457142857143,74.73713122990175L168.2657142857143,42.74281142734884L168.6005714285714,585.86666770228L168.68428571428572,64.90847313391347L169.10285714285715,39.730795700663634L169.35399999999998,42.66762941691192L169.5214285714286,82.55496908212295L170.02371428571428,78.86237473555734L170.19114285714286,41.83664264419761L170.27485714285714,42.046645268323715L170.35857142857142,41.29869292440381L170.77714285714285,144.62822493403957L171.112,46.16221594570112L171.27942857142855,41.7304717604035L171.36314285714286,41.50924844555715L171.44685714285717,39.12275456277118L171.61428571428573,42.23067958352905L171.7817142857143,43.75109016072659L171.86542857142857,42.393559543835494L172.2002857142857,42.19357700839106L172.53514285714286,42.6498779957121L172.78628571428573,73.64550269233276L172.87,44.84879669799821L173.5397142857143,83.01963579281629L173.87457142857141,42.543055287312455L173.95828571428572,41.341794494002215L174.12571428571428,559.1437774731166L174.20942857142856,64.8541048510973L174.46057142857143,40.9719438735728L174.7117142857143,41.053404142248894L174.79542857142857,85.59112236364733L174.87914285714285,43.43655087333826L175.63257142857142,42.23535307940051L175.79999999999998,39.01215085561415L175.96742857142857,585.1953145878801L176.13485714285713,65.13657607509472L176.21857142857144,43.80792337394095L176.30228571428572,40.9733920323269L176.386,40.204373819891174L176.55342857142855,41.55754390594063L176.72085714285714,41.06376467336858L177.22314285714288,44.23274568441039L177.30685714285713,150.72907361149296L177.39057142857143,45.51389154158224L177.47428571428574,41.30408967320437L177.6417142857143,38.689748454087066L177.72542857142855,82.57160202348209L177.80914285714286,598.4582353318708L177.89285714285714,65.04100263568006L177.97657142857142,43.5304779387352L178.144,39.01226894910707L178.22771428571428,38.39832985463252L178.39514285714287,42.25508232560597L178.64628571428574,39.02400056668253L178.89742857142858,41.12140560228306L179.14857142857144,41.39530597976392L179.23228571428572,43.20783258088747L179.48342857142856,39.17945943788075L179.56714285714287,39.75945401256482L179.65085714285712,596.7437046168143L179.81828571428574,68.4361901956106L179.9857142857143,41.88538163726324L180.06942857142857,80.77863211737218L180.40428571428572,40.51536690978986L180.73914285714287,39.54461972978214L180.82285714285715,40.72312291622163L181.24142857142857,41.365389656138404L181.32514285714288,83.24164818867047L181.82742857142856,42.87506763086199L181.99485714285714,41.63929401323759L182.07857142857142,88.96744251648447L182.3297142857143,43.67295635336646L182.41342857142857,39.8506238256966L182.66457142857143,41.63783190516415L183.08314285714286,40.61097591137954L183.25057142857145,39.65518803451198L183.418,41.74626508920815L183.50171428571429,39.58324489669644L183.83657142857143,78.22240868285756L184.42257142857144,39.43930107337633L185.00857142857143,43.16224134188127L185.92942857142856,40.25102872369655L186.01314285714287,42.07652896621158L186.09685714285715,40.072692342450495L186.18057142857143,37.49236404328866L186.2642857142857,83.71708000026467L187.10142857142856,43.67295111801724L187.35257142857142,41.84633329545861L187.52,107.27164616696652L187.60371428571426,44.44183604269318L187.68742857142857,38.84642265716906L187.77114285714288,40.933510555064686L187.85485714285713,142.47912281643914L187.93857142857144,45.449705778967626L188.02228571428572,40.61266534510611L188.106,40.452000379525174L188.35714285714286,109.8881172845348L188.52457142857145,45.33761386026259L188.6082857142857,42.772788914300406L189.1942857142857,41.08479123295521L189.44542857142858,41.04803623231393L189.52914285714286,78.28097337514416L189.61285714285714,41.60852278824035L189.69657142857145,39.33395035133759L189.864,75.94801048523155L190.03142857142856,45.16764958087484L190.11514285714287,44.772585902892416L190.45000000000002,40.9088594213554L190.53371428571427,41.6742326850391L190.61742857142858,40.927155850923185L190.70114285714288,572.607217862901L190.9522857142857,63.64144577169546L191.11971428571428,76.2510437782934L191.28714285714284,42.6970627476112L191.37085714285715,40.516652518314345L191.5382857142857,42.81106436195108L191.70571428571427,41.57077145967287L191.95685714285713,39.67129650538868L192.12428571428572,40.44394306487993L192.29171428571428,38.52478661913295L192.37542857142859,73.44452692740208L192.7102857142857,40.199260231050744L192.87771428571426,42.0486646168915L193.04514285714285,40.096586323470746L193.54742857142858,41.24318113950011L193.71485714285714,40.465671754640596L193.79857142857145,41.39442784706185L193.966,40.76586975177497L194.13342857142857,41.1253777931573L194.21714285714285,40.0307932839564L194.4682857142857,40.45960456603362L194.63571428571427,41.38964110210867L194.71942857142858,40.47419690501508L194.80314285714283,42.06413189051105L195.89142857142858,40.69657559800649L196.22628571428572,621.8283886722961L196.56114285714284,66.51256459581379L196.64485714285715,42.26205527116113L196.7285714285714,40.800786154805024L197.14714285714285,42.194379676282836L197.81685714285715,40.901556346754745L197.9842857142857,39.9352185379538L198.23542857142857,38.817596591104916L198.31914285714285,42.032142821636484L198.57028571428572,145.40225428067265L198.73771428571428,45.81479953985939L199.07257142857142,42.78381622877487L199.1562857142857,44.11644487177426L199.7422857142857,40.943943773654865L199.90971428571427,555.3050734514126L200.07714285714286,66.58331643244996L200.24457142857142,41.612683943287095L200.32828571428573,41.622078532727585L200.412,42.744354518775026L200.74685714285715,41.12826200940572L201.16542857142858,41.243566586413124L201.24914285714286,41.14519762560019L201.41657142857142,76.17189228396023L201.58399999999997,43.60475681262932L201.83514285714284,41.99079876192104L202.00257142857143,41.94680054008117L202.0862857142857,42.36163055662189L202.33742857142857,38.62178652430944L202.5885714285714,39.828115174477716L202.83971428571428,41.72090319859859L202.9234285714286,42.09005622163471L203.50942857142857,42.55326860587084L203.928,40.59052602403182L204.09542857142858,41.386634088256955L204.26285714285714,40.914987694890925L204.51399999999998,38.440620472118695L204.5977142857143,38.59648625788489L204.6814285714286,77.79704645237501L204.76514285714285,43.35664074529487L204.84885714285716,40.63119149177197L205.7697142857143,41.58913119433916L206.02085714285715,41.2398026403481L206.3557142857143,76.9757230264695L206.52314285714286,43.986809223813225L207.10914285714284,39.967144200410985L207.61142857142855,39.16723461615487L207.8625714285714,40.54261490556638L208.03,39.814089908146826L208.36485714285715,82.7383934757983L208.53228571428573,42.55877134654767L208.95085714285716,39.94053982930819L209.0345714285714,38.71827625002149L209.11828571428572,639.7434394585339L209.95542857142857,108.36394562417543L210.12285714285716,43.43710003767674L210.20657142857144,43.01212477437019L210.374,41.89268455756505L210.87628571428573,76.28058593570567L210.95999999999998,584.5963178763539L211.6297142857143,100.83263150368514L212.38314285714287,44.26105451538322L212.63428571428574,44.09509647128928L212.88542857142855,41.31504270790737L212.96914285714286,44.40628924180231L213.63885714285712,40.850205016766154L213.80628571428574,41.02754966536048L214.05742857142857,39.95339769392555L214.14114285714285,76.80331524211303L214.30857142857144,43.67856598734784L214.72714285714287,42.13365864982015L215.1457142857143,41.18847585521499L215.48057142857144,40.754280569673654L215.7317142857143,85.83300947439022L215.89914285714286,42.64966776506205L216.15028571428573,87.31949000471977L216.40142857142857,41.804271798900146L216.73628571428574,40.49685315395456L217.07114285714286,39.81615746037875L217.3222857142857,41.13616058028498L217.406,77.15676653122779L217.48971428571429,41.49822339344135L218.32685714285714,599.0859029628612L218.578,65.31479412682846L218.82914285714287,41.119961836323796L218.91285714285712,41.044976224529165L219.2477142857143,39.35759687474501L219.8337142857143,40.01546695091636L220.00114285714287,41.958115225132445L220.2522857142857,38.530119156230995L220.50342857142857,40.11944545373595L220.58714285714288,40.644400699257346L220.8382857142857,39.434874980776954L221.08942857142856,40.561751712849656L221.34057142857142,40.2944372476411L221.5917142857143,42.72755549660914L221.75914285714288,42.45015540643584L221.84285714285713,40.70221098041125L221.92657142857144,73.28742127909183L222.094,41.70170789859918L222.76371428571426,41.09604474713018L222.84742857142857,39.82609790397129L222.93114285714287,40.8238714843836L223.01485714285712,77.82995985598797L223.43342857142858,43.42776212250516L223.51714285714286,76.97913512543839L223.60085714285714,41.56077299852197L223.7682857142857,41.37845188698455L223.93571428571428,40.63773492475809L224.01942857142856,40.5030373736771L224.10314285714287,42.281959378501426L224.18685714285715,41.34126500003555L224.27057142857143,74.774497633925L224.3542857142857,42.436270221132986L224.60542857142858,39.42562157035155L224.77285714285713,79.14269194924276L224.9402857142857,43.25173466005489L225.44257142857143,39.09554536011743L225.5262857142857,78.89286707660591L225.69371428571426,575.8179703354333L225.77742857142857,66.44012681847595L225.86114285714288,41.06433590778977L225.94485714285713,81.78590227985211L226.02857142857144,41.91042574892526L226.36342857142859,43.917356560282656L226.782,79.55038779570106L226.86571428571426,42.546466940400194L227.368,42.98017098363175L227.53542857142858,583.8473348938177L227.78657142857145,64.58237378741558L228.0377142857143,76.7087768773492L228.12142857142857,41.53996632483731L228.4562857142857,74.25984750347769L228.79114285714283,86.2755217204204L229.54457142857143,81.3217384012777L230.13057142857144,43.87918679663062L230.298,40.477123365260184L230.4654285714286,145.1842283410486L230.8002857142857,81.49524193168865L231.05142857142857,42.525140207452154L231.21885714285713,572.1738482816867L231.72114285714284,103.33998480902848L231.9722857142857,42.75681245803824L232.056,77.98993552408237L232.30714285714285,43.55334949345078L232.39085714285716,42.321856003694734L232.64200000000002,39.734370017663906L232.89314285714283,39.42113489237201L232.97685714285714,76.84448996862479L233.1442857142857,42.24054170236633L233.56285714285715,39.00297001030421L233.6465714285714,39.050853453320144L233.89771428571427,42.235955622654274L233.98142857142858,43.577355860838054L234.06514285714286,89.49532347818501L234.31628571428573,42.87456887246685L234.48371428571429,40.014718731737986L234.65114285714284,39.70122082223739L234.73485714285715,40.00745867693004L234.9022857142857,570.3338607068374L235.23714285714286,66.15761900387191L235.32085714285714,75.6984331757615L235.65571428571428,41.291125465351826L235.90685714285715,40.88077028171361L236.32542857142857,43.21808001332428L236.49285714285716,41.648281396925455L236.66028571428572,39.04260552037502L236.82771428571428,41.37939598529425L237.33,83.2675553136926L237.49742857142857,42.53693056071046L237.7485714285714,40.5027404694398L238.25085714285714,76.95351712376777L238.6694285714286,42.924311632843825L239.088,78.40809267688981L239.33914285714286,41.38172201958116L239.59028571428573,42.15642694537971L239.7577142857143,41.662667401629136L240.1762857142857,42.02875723171229L240.42742857142858,556.6788607525207L241.0134285714286,64.21082239261618L241.09714285714284,152.72891924720028L242.1854285714286,45.20435576370713L242.35285714285715,41.12560317489417L242.6877142857143,41.151753911363954L242.93885714285716,41.88518527977138L243.44114285714286,40.91910968570389L243.69228571428573,40.353076301670995L244.19457142857144,41.04348102390742L244.362,81.93933308421673L244.4457142857143,40.65219848991879L244.52942857142855,42.67220898987719L244.61314285714286,42.579336516971324L245.0317142857143,38.89531358961392L245.19914285714285,38.317365306295926L245.534,40.026045274690404L245.95257142857142,598.7980957052689L246.37114285714287,101.74188997659824L246.45485714285715,42.82159946926572L246.53857142857143,41.26121735651887L246.62228571428574,41.90584467819912L246.87342857142855,78.3461412301235L246.95714285714286,41.831467022317526L247.12457142857141,44.345315189740916L247.292,132.35220201389137L247.54314285714287,44.876766548205865L247.71057142857143,41.62607072468032L248.464,40.47503501427573L248.71514285714287,39.988889438801635L248.88257142857142,82.16450523943712L248.96628571428573,44.76620679384993L249.38485714285713,42.20413938567938L249.55228571428572,39.79613377449178L249.7197142857143,40.4137088972021L249.88714285714286,43.26889490406674L250.3057142857143,41.800552583152694L250.47314285714288,40.341284807343214L251.22657142857142,41.05584675370858L251.72885714285712,41.44574670834811L251.89628571428574,40.829694675941965L251.98,42.35237117634151L252.0637142857143,39.12110330022554L252.48228571428572,41.79432185615201L253.2357142857143,41.01535441165811L253.40314285714285,41.41078094104793L253.48685714285713,39.5578310323923L253.98914285714287,41.960863996952185L254.07285714285715,42.5408778187668L254.2402857142857,46.43304535816796L254.324,41.640391051890305L254.49142857142857,39.657793099349306L254.74257142857144,43.18277745109802L254.8262857142857,40.94680802744426L254.91,39.80455145248243L255.16114285714286,569.9534440502858L255.32857142857142,63.738555617028425L255.4122857142857,85.44354513765424L255.66342857142857,42.12531543100525L255.74714285714288,41.149927223112314L255.83085714285713,74.24448812289775L255.99828571428571,43.312713780410945L256.50057142857145,40.74631360952904L257.08657142857146,41.1381678946251L257.3377142857143,42.015084941122296L257.6725714285714,42.063315724206205L257.9237142857143,79.80754848355971L258.09114285714287,39.575758916989884L258.17485714285715,41.037131632038694L258.3422857142857,78.16093353101648L258.6771428571429,79.37574771186816L258.84457142857144,588.8216787543032L259.17942857142856,64.79577322003021L259.2631428571429,42.85399110746232L259.5142857142857,41.66194588477853L259.6817142857143,40.966839547694775L260.1002857142857,43.04050152735752L260.26771428571425,40.35955413992855L260.3514285714286,77.03077103126776L260.85371428571426,42.87091516820894L260.9374285714286,40.356565438703655L261.2722857142857,41.13558898951095L261.356,41.03471755143346L261.942,157.7618505130811L262.6954285714286,81.73289393364169L263.44885714285715,41.059976591607324L263.9511428571429,71.29078784814227L264.03485714285716,39.69958905424065L264.11857142857144,38.738900551935416L264.3697142857143,591.6635616782489L265.0394285714286,64.94274454523567L265.20685714285713,76.88155521458816L265.8765714285714,44.04860096915354L266.63,40.912905724947564L266.7137142857143,40.739816498284426L267.216,75.53733370790731L267.38342857142857,44.064070485453385L267.802,39.39312253646935L268.05314285714286,561.9527357450067L268.3042857142857,63.576611633915974L268.5554285714286,42.15173221438317L268.72285714285715,41.270278225068296L268.974,77.55317425032207L269.2251428571428,43.583217208787744L269.39257142857144,77.09729711585673L269.6437142857143,44.127691701817696L269.81114285714284,44.187236345697954L269.8948571428571,594.8898563720982L270.06228571428574,310.9899278484205L270.146,90.51089511896265L270.2297142857143,45.32466453953927L270.3134285714286,42.03389032648997L270.732,44.23165101455169L270.8994285714286,42.883966997376035L270.98314285714287,81.1991100845536L271.1505714285714,47.03469214679819L271.40171428571426,83.49870125280722L271.65285714285716,42.63683277646928L271.8202857142857,40.968667366451285L271.9877142857143,43.94319910894404L272.15514285714283,79.30935731286884L272.23885714285717,41.05370132962841L272.65742857142857,43.27963967766175L273.32714285714286,42.32694913049585L274.08057142857143,43.10531743575649L274.1642857142857,80.31677260217519L274.33171428571427,45.78634131494937L274.58285714285716,46.34631215131759L274.834,46.66657925936434L275.08514285714284,42.43100011025052L275.2525714285714,568.162459023211L275.5037142857143,65.29850559851882L275.67114285714285,42.01230088547828L275.75485714285713,78.30953448543372L276.0897142857143,42.52248251864151L276.5082857142857,94.60794055779095L276.7594285714286,46.07079646160585L276.8431428571429,44.24681995026944L277.0942857142857,564.6789757751728L277.3454285714286,66.28294660244902L277.5965714285714,41.81595489477877L277.8477142857143,40.501763651264866L278.1825714285714,82.22640258360633L278.60114285714286,42.88715721339986L278.68485714285714,44.89642360048208L279.0197142857143,42.02996613721709L279.27085714285715,41.53961990714393L279.522,42.36484432770618L279.60571428571427,42.2984217598532L279.94057142857145,42.41278950241721L280.1917142857143,41.881448013723485L280.27542857142856,146.2855788874244L280.35914285714284,47.63785601667004L280.5265714285714,43.77762550637638" style="fill: none;" fill="none"></path></g></g></g></g><g opacity="0.2"><g><g><g><path stroke="rgb(255, 112, 67)" stroke-width="2px" d="M42.27571428571429,43.91807098388671L42.44314285714285,77.61683349609375L42.69428571428571,39.898461914062494L43.02914285714286,42.63572845458984L43.44771428571429,40.35840911865233L43.61514285714286,42.379962158203114L43.78257142857143,39.78556823730469L44.03371428571428,41.97862243652344L44.28485714285714,42.09786300659181L44.452285714285715,84.66809692382812L45.205714285714286,39.83580322265624L45.45685714285714,42.86286621093751L45.540571428571425,42.1973876953125L45.87542857142857,43.8699966430664L46.294,41.168920898437506L46.46142857142857,83.08353424072266L46.54514285714286,40.79526443481444L46.71257142857142,41.258182525634766L46.796285714285716,43.45771865844728L46.96371428571428,74.7973274230957L47.88457142857143,40.98080978393554L48.80542857142857,40.76771621704103L48.88914285714286,40.0276954650879L48.972857142857144,82.0823455810547L49.30771428571428,39.96854782104492L49.55885714285714,42.46517257690431L49.64257142857143,42.88609313964844L49.97742857142857,41.337586212158214L50.22857142857143,39.143991851806646L50.47971428571429,76.13152542114257L50.814571428571426,39.201383972167974L50.89828571428571,657.1954147338868L50.982,42.724179840087885L51.065714285714286,44.33507537841797L51.568,41.916773986816395L51.73542857142857,80.22756729125977L52.57257142857143,43.51862182617188L52.82371428571429,42.54174041748047L53.07485714285714,40.48737258911132L53.158571428571435,44.13899688720704L53.326,45.261991882324224L53.74457142857143,79.47930908203125L53.912,42.012112426757824L55.335142857142856,43.09310989379884L55.41885714285714,41.1906623840332L55.50257142857143,97.47329177856446L55.92114285714286,81.93677215576172L56.256,80.04620819091797L56.590857142857146,41.45331573486328L56.674571428571426,80.63511886596679L57.176857142857145,41.299504852294916L57.428000000000004,40.71869659423828L57.511714285714284,79.90036468505859L57.59542857142857,46.03914871215821L57.76285714285714,41.32759323120118L58.18142857142857,39.13534927368164L58.265142857142855,608.4612670898437L58.76742857142857,80.77272491455078L58.851142857142854,41.618470001220714L59.35342857142857,40.75016098022462L59.60457142857143,43.26987762451171L60.02314285714286,82.41265411376953L60.358,42.677185821533214L60.44171428571429,41.485590362548834L60.69285714285715,41.420771026611334L60.77657142857143,80.94908752441405L61.02771428571429,42.799802398681635L61.195142857142855,89.61664810180665L61.697428571428574,41.57120590209962L61.781142857142854,46.40348739624022L61.86485714285714,40.97567825317384L61.948571428571434,628.0785690307616L62.28342857142857,41.63616027832032L62.53457142857143,40.378395080566406L62.702,42.5734748840332L63.790285714285716,599.9399551391602L63.95771428571428,41.79402236938478L64.12514285714286,41.3026107788086L64.96228571428571,42.346067047119135L65.046,40.79107818603515L65.21342857142857,41.44777908325196L65.29714285714286,82.45208587646484L65.46457142857143,42.50257873535156L65.54828571428571,40.55867385864258L66.05057142857143,82.85747680664063L66.13428571428571,43.73441619873046L66.72028571428571,41.130434417724615L66.88771428571428,42.67745590209961L67.05514285714285,42.671514129638666L67.13885714285715,42.905403900146496L67.3062857142857,80.37084503173828L67.976,42.794130706787115L68.14342857142857,43.2904037475586L68.22714285714285,43.152122497558594L68.31085714285715,42.064237976074224L68.72942857142857,41.59159698486329L69.48285714285714,41.809687042236334L69.65028571428572,42.14620742797851L69.734,42.85327835083007L69.98514285714286,40.0405242919922L70.06885714285714,42.026156616210926L70.32,45.454559326171875L70.40371428571429,42.226286315917974L70.48742857142857,42.3487678527832L70.57114285714286,80.90952072143556L70.82228571428571,40.47670440673829L70.90599999999999,46.31017456054687L71.07342857142858,84.53994369506836L71.15714285714286,560.7979888916016L71.32457142857143,79.53264999389648L71.82685714285714,83.84435119628905L71.91057142857143,43.72010192871093L72.078,39.14331665039063L72.16171428571428,41.3853904724121L72.32914285714286,40.784326171874994L72.49657142857143,44.06729049682616L72.664,40.68628692626953L72.74771428571428,41.37391204833983L72.83142857142857,41.97106018066407L72.91514285714285,43.79896545410156L73.08257142857143,41.35298080444335L73.41742857142857,39.83985443115233L73.75228571428572,41.582819366455084L73.836,84.38397216796875L74.00342857142857,43.40923919677735L74.08714285714285,42.528236389160156L74.17085714285714,40.51154479980468L74.25457142857144,42.46436233520507L74.33828571428572,76.27588348388672L75.25914285714285,39.62527542114259L75.51028571428571,87.4418243408203L75.59400000000001,41.54446792602539L75.67771428571429,40.96541519165038L75.84514285714285,77.20779647827148L75.92885714285714,43.55008621215819L76.26371428571429,41.07155685424806L76.43114285714286,45.07860717773437L76.766,41.106937408447266L77.01714285714286,43.45420761108397L77.51942857142858,44.70711135864258L77.60314285714286,86.25198440551758L77.68685714285714,40.81606063842773L77.938,40.99458389282228L78.10542857142858,43.25434799194335L78.27285714285713,41.892331695556635L78.35657142857143,79.13630676269531L78.69142857142857,43.886741638183594L78.85885714285713,46.43589706420897L79.11,80.09374237060547L79.1937142857143,42.04317169189454L79.36114285714285,41.52893829345703L79.44485714285715,40.61350021362304L79.86342857142857,41.493962860107416L80.11457142857142,39.746271514892584L80.1982857142857,39.57260971069337L80.53314285714286,41.766879272460926L80.95171428571429,43.223423767089855L81.03542857142857,39.35978622436522L81.11914285714286,40.224854278564464L81.45400000000001,43.365756225585926L81.53771428571429,44.19031219482423L81.62142857142858,75.648486328125L81.95628571428571,42.02723693847656L82.04,40.59999618530273L82.29114285714286,40.39189910888672L82.45857142857143,41.74648818969726L82.7097142857143,41.947833251953114L82.79342857142858,40.81741104125976L82.87714285714286,80.89817733764649L83.2957142857143,80.13033828735352L83.54685714285715,41.828862762451166L83.79799999999999,40.97365264892579L83.8817142857143,42.113527679443365L84.13285714285715,43.16778717041015L84.21657142857143,42.74308547973632L84.384,41.61090774536132L84.63514285714287,42.76428680419923L84.8862857142857,80.60014343261719L84.97,40.02539978027343L85.05371428571428,40.63888778686524L85.30485714285714,45.25523986816407L85.38857142857142,83.27340087890626L85.556,42.20684051513672L85.72342857142858,41.665869140625006L85.80714285714286,88.75671157836913L85.89085714285714,575.378288269043L85.97457142857142,42.935923004150396L86.39314285714286,39.98124160766602L86.47685714285714,42.06288757324219L86.728,46.116391754150385L86.89542857142858,77.43520431518554L87.14657142857143,41.9470230102539L87.314,39.96395645141601L87.48142857142858,38.99153137207031L87.89999999999999,43.41396560668946L87.98371428571429,41.308012390136724L88.06742857142856,40.57177276611327L88.15114285714286,75.2162223815918L88.23485714285715,39.99015426635742L88.31857142857143,40.15692901611328L89.072,79.84783401489257L89.15571428571428,39.2590461730957L89.40685714285715,79.89860916137695L89.82542857142856,79.20801315307618L89.99285714285715,44.857546234130865L90.244,41.79010620117188L90.32771428571428,38.75885696411132L90.49514285714285,40.29885635375976L90.57885714285715,39.361946868896496L91.08114285714285,96.31532135009766L91.24857142857144,41.959446716308605L91.58342857142857,41.34298782348634L92.002,41.90718612670898L92.42057142857144,43.3552230834961L92.67171428571429,81.7889030456543L92.83914285714285,40.905997467041004L93.174,75.32911605834961L93.42514285714284,79.17411804199219L93.50885714285714,41.490181732177746L94.09485714285714,45.8363182067871L94.51342857142856,40.8020164489746L95.18314285714285,42.424930572509766L95.35057142857144,41.62819290161133L95.85285714285713,43.158604431152355L95.93657142857143,81.4086296081543L96.35514285714285,41.02550811767577L96.77371428571429,45.721804046630865L96.85742857142857,83.50094375610352L97.02485714285714,41.33556060791017L97.19228571428572,82.67004089355468L97.27600000000001,45.26131668090821L97.52714285714285,40.844824218750006L97.61085714285714,84.72900009155273L97.77828571428572,39.798802185058605L97.94571428571429,78.66879730224609L98.11314285714286,41.1081527709961L98.19685714285714,42.96765747070313L98.86657142857142,45.29237594604493L99.11771428571429,43.50592803955078L99.28514285714286,44.00868301391603L99.36885714285714,41.85776138305664L99.70371428571428,80.82849655151368L99.78742857142858,41.63413467407227L99.87114285714286,41.02793884277344L100.206,39.8460662841797L100.2897142857143,42.00765609741211L100.62457142857143,592.7563522338867L100.95942857142857,40.52369842529296L101.04314285714285,42.86678237915038L101.21057142857143,82.03710708618165L101.79657142857143,41.18850173950196L102.04771428571429,41.46047286987306L102.38257142857142,41.212133789062506L102.55,43.406268310546864L102.63371428571429,44.81986999511719L102.71742857142857,42.27152481079102L102.80114285714286,43.94832000732421L102.88485714285714,41.193768310546886L103.47085714285714,41.67032546997069L103.722,79.4297492980957L103.97314285714286,40.07725524902344L104.14057142857143,42.182533264160156L104.30799999999999,597.8612800598144L104.39171428571427,40.21715698242187L104.89399999999999,42.971168518066406L105.14514285714286,41.897463226318365L105.31257142857143,40.94785995483397L105.47999999999999,41.24629898071288L105.64742857142858,44.41501922607421L105.81485714285715,41.392547607421875L106.23342857142856,42.227231597900385L106.31714285714287,40.48804779052733L106.48457142857143,39.99906692504882L106.652,80.2035301208496L107.07057142857143,41.992801666259766L107.48914285714287,73.63179473876953L108.07514285714286,44.66538391113281L108.15885714285714,42.0587013244629L108.41,42.703923797607416L108.82857142857144,40.370427703857416L108.91228571428572,46.20443801879884L109.74942857142857,41.657496643066395L109.83314285714285,620.4142227172852L110.168,45.010276794433594L110.25171428571429,79.0664909362793L110.58657142857143,44.42042083740233L110.754,90.68198089599609L111.17257142857143,78.31431655883789L111.25628571428572,41.461148071289074L111.34,42.187259674072266L111.42371428571428,43.28392181396484L111.59114285714286,42.27341537475587L111.75857142857143,42.20967636108398L111.926,80.80027313232422L112.00971428571428,39.2895652770996L112.42828571428572,41.68409957885743L112.84685714285713,42.976435089111334L113.098,41.45102005004884L113.18171428571429,84.5121253967285L113.60028571428572,39.693200683593744L113.684,44.98124313354492L113.85142857142857,40.04390029907228L114.01885714285714,82.32420272827149L114.43742857142857,84.37681503295899L114.52114285714285,44.37315673828124L114.60485714285714,43.017352294921864L114.77228571428572,92.15283966064453L114.93971428571429,40.82672882080078L115.10714285714286,42.1324333190918L115.35828571428573,597.3493423461914L115.44200000000001,46.266691589355474L115.94428571428573,46.46979217529298L116.028,149.30337295532226L116.19542857142858,42.14796295166016L116.36285714285714,40.77311782836915L116.94885714285714,41.08465576171875L117.2837142857143,41.33542556762694L117.36742857142858,40.9875617980957L117.45114285714286,45.06321258544921L117.53485714285713,39.47132949829103L117.70228571428571,89.79071502685547L118.4557142857143,41.842096710205084L118.53942857142857,84.95303192138671L118.79057142857143,40.759343719482416L119.12542857142857,40.51694641113281L119.29285714285714,81.80524291992187L119.79514285714286,40.86372985839844L119.87885714285714,41.831698608398426L119.96257142857142,42.776845550537104L120.04628571428572,82.86773986816407L120.21371428571429,44.101320648193365L120.38114285714286,41.562563323974615L120.716,41.95742111206056L120.88342857142858,640.2651443481445L121.13457142857143,42.16079177856446L121.30199999999999,82.1354164123535L121.97171428571428,42.03439407348634L122.55771428571428,81.9527069091797L122.80885714285715,42.724584960937506L122.97628571428571,77.63074264526368L123.22742857142858,44.13021926879884L123.56228571428571,40.89114303588866L123.72971428571428,44.92061004638671L123.81342857142857,80.91073608398438L123.98085714285715,42.620333862304676L124.232,89.5156379699707L124.39942857142856,40.84928054809569L124.90171428571428,42.861785888671875L124.98542857142857,45.340855407714855L125.32028571428572,40.13302688598634L125.99,40.826998901367176L126.07371428571429,40.861839294433594L126.15742857142857,41.784704589843756L126.40857142857143,628.9457977294921L126.576,77.73890991210938L126.65971428571429,42.48826446533204L126.74342857142857,40.200006866455084L127.58057142857143,42.0589714050293L127.83171428571428,91.39148254394532L127.91542857142856,41.83993606567384L128.41771428571428,43.25664367675782L128.50142857142856,40.74259872436522L128.75257142857143,78.58979873657226L128.8362857142857,44.324002075195324L129.08742857142857,82.62061614990235L129.17114285714285,42.414667510986334L129.33857142857144,40.85292663574219L129.506,41.47087097167969L129.58971428571428,78.51039505004883L130.0082857142857,76.6602081298828L130.1757142857143,44.272686767578136L130.25942857142857,41.50084991455077L130.34314285714285,76.90773696899414L130.42685714285713,41.223882293701166L130.59428571428572,41.16338424682618L130.76171428571428,79.61651000976563L130.92914285714286,43.10310287475585L131.01285714285714,41.70503082275391L131.09657142857142,77.9564598083496L131.18028571428573,44.44256744384765L131.68257142857144,40.548005676269526L131.76628571428571,41.851414489746105L131.85,42.31568298339843L132.01742857142858,41.74675827026368L132.85457142857143,79.9264274597168L133.022,42.925119781494146L133.1057142857143,39.7646369934082L133.27314285714286,79.8532356262207L133.77542857142856,569.5101127624512L134.02657142857143,83.33133316040039L134.36142857142858,81.93056030273438L134.78,46.01092529296875L134.86371428571428,80.84524154663086L135.2822857142857,86.23469924926758L135.366,42.54957275390626L135.4497142857143,40.67332305908204L135.70085714285713,41.70097961425782L135.86828571428572,41.57728271484376L136.538,76.3962043762207L136.70542857142857,43.634891510009766L136.87285714285713,150.23204498291017L137.124,41.5401466369629L137.37514285714286,79.9695053100586L137.54257142857142,43.55103149414063L137.70999999999998,39.405159759521496L137.96114285714285,40.90140609741212L138.12857142857143,79.85944747924805L138.3797142857143,40.49533996582031L138.46342857142858,40.80620269775392L138.63085714285714,41.30220565795898L138.71457142857142,40.73287582397461L138.7982857142857,40.75745315551757L139.13314285714287,41.402405548095714L139.468,41.17864379882812L139.80285714285714,85.44457855224609L139.88657142857141,41.03833694458007L140.054,43.392089080810536L140.2214285714286,45.60593948364257L140.38885714285715,41.449804687500006L140.47257142857143,42.15728073120118L140.89114285714285,42.063832855224604L141.05857142857144,82.21063385009766L141.14228571428572,567.2689842224122L141.97942857142857,46.347040557861334L142.14685714285716,78.38440246582032L142.48171428571428,43.37061767578126L142.56542857142858,42.952532958984364L142.64914285714286,78.83179092407227L142.81657142857142,42.61871337890625L142.9002857142857,41.69044647216796L143.31885714285715,39.2806526184082L143.4862857142857,39.6389144897461L143.73742857142855,38.87323608398438L144.23971428571429,40.41431579589843L144.49085714285715,43.7837059020996L144.6582857142857,76.885050201416L145.24428571428572,45.77311935424805L145.57914285714284,41.66492385864257L145.74657142857143,42.0370948791504L145.914,78.71390075683594L145.9977142857143,41.8175193786621L146.08142857142857,41.6484489440918L146.41628571428572,40.59797058105468L146.5,43.3334815979004L146.5837142857143,43.96317443847656L146.66742857142856,644.8353126525878L147.0022857142857,42.29839782714845L147.086,42.85152282714844L147.25342857142857,39.26728363037108L147.33714285714288,43.624493408203136L147.5882857142857,154.74306564331056L147.672,43.63664703369142L148.00685714285714,41.847768402099604L148.258,39.39057540893555L148.50914285714288,620.4148979187012L148.76028571428571,40.69911575317383L148.844,42.02602157592773L149.09514285714286,40.32991561889648L149.17885714285714,83.9847930908203L149.26257142857145,41.858976745605474L149.76485714285712,43.47648925781249L150.5182857142857,43.41329040527344L151.02057142857143,39.543846130371094L151.43914285714288,39.725070190429676L151.60657142857144,39.41353225708008L151.6902857142857,77.8739501953125L151.85771428571428,41.468575286865246L151.94142857142856,40.09548568725586L152.02514285714287,41.20403137207032L152.19257142857143,586.7457092285156L152.2762857142857,44.06675033569337L152.61114285714288,40.71748123168945L152.69485714285713,40.80971374511719L152.946,39.77503509521483L153.11342857142859,43.41153488159179L153.19714285714286,80.41162719726562L153.4482857142857,40.789052581787104L153.532,41.02888412475585L153.78314285714288,42.67516021728517L153.86685714285713,41.85627593994141L154.118,41.91920471191406L154.53657142857145,44.0085479736328L154.87142857142857,42.817087554931646L154.95514285714285,87.67922515869141L155.12257142857143,42.776710510253906L155.29000000000002,41.314089202880865L155.37371428571427,84.1314468383789L155.7922857142857,41.09721450805665L156.21085714285715,42.02143020629882L156.54571428571427,41.84452743530272L156.71314285714286,41.17337722778319L156.96428571428572,84.73035049438477L157.13171428571428,45.75070266723634L157.2154285714286,41.45493621826171L157.88514285714285,45.409455871582026L158.3874285714286,41.52839813232421L158.55485714285714,40.76015396118163L159.30828571428572,43.967900848388666L159.39200000000002,42.79480590820313L159.55942857142858,609.0114212036133L159.8942857142857,44.41258850097657L160.22914285714285,81.9012565612793L160.31285714285715,42.42479553222657L160.3965714285714,41.371886444091786L160.64771428571427,78.90322723388671L160.73142857142858,40.964604949951166L160.81514285714286,42.23074264526366L161.06628571428573,41.65682144165038L161.15,39.747621917724615L161.3174285714286,43.74967575073242L161.6522857142857,40.75529251098632L162.07085714285714,42.59656677246093L162.15457142857142,41.86613388061522L162.4894285714286,38.24962005615234L162.8242857142857,42.10015869140625L162.90800000000002,42.389279937744135L163.07542857142857,42.28327331542968L163.15914285714285,83.82706604003907L164.08,40.00122756958007L164.24742857142857,96.03902893066406L164.41485714285716,41.00309143066406L164.58228571428572,41.997933197021496L164.83342857142858,40.098996734619135L165.08457142857142,604.6100532531739L165.16828571428573,42.156335449218744L165.25199999999998,40.56610107421875L165.75428571428571,40.44524002075195L165.838,44.58395462036134L165.92171428571427,41.613743591308605L166.42399999999998,86.81793823242187L166.75885714285715,83.00169982910155L166.9262857142857,602.8313026428223L167.51228571428572,80.20231475830077L167.67971428571428,38.860407257080084L168.01457142857143,76.2923583984375L168.2657142857143,41.235225677490234L168.6005714285714,611.4588912963868L168.68428571428572,40.3607048034668L169.10285714285715,38.54441299438477L169.35399999999998,42.80601425170897L169.5214285714286,84.43447723388671L170.02371428571428,78.68837814331054L170.19114285714286,40.091974639892584L170.27485714285714,42.05654067993163L170.35857142857142,41.26344909667969L170.77714285714285,149.49715576171874L171.112,41.52245635986327L171.27942857142855,41.52164611816406L171.36314285714286,41.49882431030272L171.44685714285717,39.01030197143555L171.61428571428573,42.377126312255854L171.7817142857143,43.82273254394531L171.86542857142857,42.329592132568365L172.2002857142857,42.18415374755858L172.53514285714286,42.67137908935547L172.78628571428573,75.10602951049805L172.87,43.49188385009765L173.5397142857143,84.81826171875001L173.87457142857141,40.63578186035156L173.95828571428572,41.28519058227539L174.12571428571428,583.5428237915039L174.20942857142856,41.56296844482421L174.46057142857143,39.84660644531249L174.7117142857143,41.057242584228504L174.79542857142857,87.68975830078125L174.87914285714285,41.4502098083496L175.63257142857142,42.17875213623046L175.79999999999998,38.860272216796886L175.96742857142857,610.9316940307617L176.13485714285713,40.631190490722645L176.21857142857144,42.80290832519532L176.30228571428572,40.83982772827147L176.386,40.16813735961915L176.55342857142855,41.621305847167974L176.72085714285714,41.04049758911134L177.22314285714288,44.38206939697267L177.30685714285713,155.747225189209L177.39057142857143,40.55610809326171L177.47428571428574,41.10572204589843L177.6417142857143,38.56655960083009L177.72542857142855,84.63933334350587L177.80914285714286,622.7670295715332L177.89285714285714,39.90615921020509L177.97657142857142,42.51689300537109L178.144,38.799369049072254L178.22771428571428,38.36940078735353L178.39514285714287,42.43681411743165L178.64628571428574,38.87175064086915L178.89742857142858,41.22023620605469L179.14857142857144,41.40821228027343L179.23228571428572,43.29323959350586L179.48342857142856,38.98964080810546L179.56714285714287,39.78678359985352L179.65085714285712,622.9890357971192L179.81828571428574,43.54211883544923L179.9857142857143,40.63429641723633L180.06942857142857,82.61129837036133L180.40428571428572,38.61814498901367L180.73914285714287,39.49887771606444L180.82285714285715,40.778654479980474L181.24142857142857,41.39565353393556L181.32514285714288,85.21487503051758L181.82742857142856,40.97297744750978L181.99485714285714,41.58106384277343L182.07857142857142,91.19756469726562L182.3297142857143,41.538661193847645L182.41342857142857,39.670513916015636L182.66457142857143,41.7220458984375L183.08314285714286,40.562590026855474L183.25057142857145,39.61015090942382L183.418,41.844797515869146L183.50171428571429,39.481322479248036L183.83657142857143,80.0431022644043L184.42257142857144,37.611824798583996L185.00857142857143,43.33766784667969L185.92942857142856,40.11385116577148L186.01314285714287,42.16254730224608L186.09685714285715,39.978270721435536L186.18057142857143,37.37077789306642L186.2642857142857,85.89520797729493L187.10142857142856,41.78605499267579L187.35257142857142,41.760262298583996L187.52,110.35451431274414L187.60371428571426,41.48126907348632L187.68742857142857,38.582764434814464L187.77114285714288,41.031855010986334L187.85485714285713,147.26399459838868L187.93857142857144,40.87763900756835L188.02228571428572,40.38474197387694L188.106,40.44442977905274L188.35714285714286,113.15997619628905L188.52457142857145,42.29596710205078L188.6082857142857,42.65193328857421L189.1942857142857,41.0052520751953L189.44542857142858,41.04630432128906L189.52914285714286,80.03540496826172L189.61285714285714,39.880501556396496L189.69657142857145,39.226771545410145L189.864,77.67328033447266L190.03142857142856,43.71726608276367L190.11514285714287,44.75397033691405L190.45000000000002,40.72679901123047L190.53371428571427,41.71029739379884L190.61742857142858,40.8919532775879L190.70114285714288,597.660205078125L190.9522857142857,39.65876541137695L191.11971428571428,76.84521331787109L191.28714285714284,41.115985107421864L191.37085714285715,40.41391067504884L191.5382857142857,42.9191780090332L191.70571428571427,41.512328338623036L191.95685714285713,39.581792449951166L192.12428571428572,40.480350494384766L192.29171428571428,38.434355163574224L192.37542857142859,75.08995971679688L192.7102857142857,38.63272933959962L192.87771428571426,42.13580932617188L193.04514285714285,40.004603576660145L193.54742857142858,41.297209167480474L193.71485714285714,40.42903518676758L193.79857142857145,41.43819122314454L193.966,40.73625183105469L194.13342857142857,41.14231796264647L194.21714285714285,39.979216003417974L194.4682857142857,40.47981033325195L194.63571428571427,41.43346481323243L194.71942857142858,40.431060791015625L194.80314285714283,42.13905029296876L195.89142857142858,40.632135772705084L196.22628571428572,649.2115631103516L196.56114285714284,40.34585037231446L196.64485714285715,41.11936111450194L196.7285714285714,40.7319305419922L197.14714285714285,42.260046386718756L197.81685714285715,40.840637969970714L197.9842857142857,39.88968429565429L198.23542857142857,38.76493377685546L198.31914285714285,42.18361358642579L198.57028571428572,150.2730972290039L198.73771428571428,41.12219696044923L199.07257142857142,42.640995025634766L199.1562857142857,44.17923889160156L199.7422857142857,40.79445419311523L199.90971428571427,579.5419853210449L200.07714285714286,43.554542541503906L200.24457142857142,40.43605728149413L200.32828571428573,41.62252120971681L200.412,42.79723663330077L200.74685714285715,41.0521110534668L201.16542857142858,41.24899978637694L201.24914285714286,41.14056243896485L201.41657142857142,77.8223648071289L201.58399999999997,42.07017974853517L201.83514285714284,41.91474838256835L202.00257142857143,41.94472732543946L202.0862857142857,42.38117752075195L202.33742857142857,38.44556350708007L202.5885714285714,39.88495788574218L202.83971428571428,41.810092163085926L202.9234285714286,42.107450866699224L203.50942857142857,42.57509536743163L203.928,40.49804077148437L204.09542857142858,41.42414703369141L204.26285714285714,40.892763519287115L204.51399999999998,38.324027252197254L204.5977142857143,38.603830718994146L204.6814285714286,79.64419326782227L204.76514285714285,41.73379440307616L204.84885714285716,40.50276718139648L205.7697142857143,41.63426971435547L206.02085714285715,41.22334213256835L206.3557142857143,78.65961456298828L206.52314285714286,42.43235778808594L207.10914285714284,39.777735900878895L207.61142857142855,39.129542541503895L207.8625714285714,40.6074234008789L208.03,39.77976150512694L208.36485714285715,84.76100463867188L208.53228571428573,40.665490722656244L208.95085714285716,39.817167663574224L209.0345714285714,38.660682678222656L209.11828571428572,668.0639968872069L209.95542857142857,83.32512130737304L210.12285714285716,40.37771987915039L210.20657142857144,42.99209976196289L210.374,41.83993606567384L210.87628571428573,77.90095825195313L210.95999999999998,608.5483680725097L211.6297142857143,78.03748397827148L212.38314285714287,41.59537811279296L212.63428571428574,44.087276458740234L212.88542857142855,41.184045410156244L212.96914285714286,44.55195007324218L213.63885714285712,40.68264083862306L213.80628571428574,41.03590621948243L214.05742857142857,39.90278320312501L214.14114285714285,78.53969879150391L214.30857142857144,42.117713928222656L214.72714285714287,42.060861968994146L215.1457142857143,41.14393844604493L215.48057142857144,40.73382110595702L215.7317142857143,87.95713806152344L215.89914285714286,40.61485061645507L216.15028571428573,89.42435073852539L216.40142857142857,39.65957565307616L216.73628571428574,40.435247039794916L217.07114285714286,39.78408279418946L217.3222857142857,41.19835968017577L217.406,78.85407257080078L217.48971428571429,39.81797790527344L218.32685714285714,625.35966796875L218.578,40.16327590942382L218.82914285714287,39.97989120483399L218.91285714285712,41.04144287109375L219.2477142857143,39.27808685302733L219.8337142857143,40.046466064453114L220.00114285714287,42.049653625488276L220.2522857142857,38.368590545654286L220.50342857142857,40.194335174560536L220.58714285714288,40.669136810302746L220.8382857142857,39.37788162231445L221.08942857142856,40.61485061645507L221.34057142857142,40.28184127807617L221.5917142857143,42.84220504760742L221.75914285714288,42.43708419799805L221.84285714285713,40.619847106933605L221.92657142857144,74.82285003662109L222.094,40.2133758544922L222.76371428571426,41.067505645751964L222.84742857142857,39.76625747680663L222.93114285714287,40.87088699340819L223.01485714285712,79.57370223999023L223.43342857142858,41.80671615600585L223.51714285714286,78.56008987426758L223.60085714285714,39.891844940185536L223.7682857142857,41.36986083984374L223.93571428571428,40.60283203124999L224.01942857142856,40.49669036865234L224.10314285714287,42.365782928466786L224.18685714285715,41.29693908691405L224.27057142857143,76.34988555908204L224.3542857142857,40.912479400634766L224.60542857142858,39.28375854492188L224.77285714285713,81.01417694091798L224.9402857142857,41.56053771972657L225.44257142857143,38.89970397949219L225.5262857142857,80.76813354492187L225.69371428571426,599.2332893371581L225.77742857142857,42.43802947998046L225.86114285714288,39.86861801147461L225.94485714285713,83.70471954345703L226.02857142857144,40.03147659301757L226.36342857142859,44.01192398071288L226.782,81.22943115234375L226.86571428571426,40.80282669067384L227.368,43.0006072998047L227.53542857142858,609.3332221984863L227.78657142857145,40.1143913269043L228.0377142857143,77.28017807006836L228.12142857142857,39.88279724121094L228.4562857142857,75.80162200927735L228.79114285714283,86.84170532226562L229.54457142857143,81.08831405639648L230.13057142857144,42.114878082275396L230.298,40.31681671142579L230.4654285714286,150.11807098388672L230.8002857142857,78.49419021606445L231.05142857142857,40.688852691650396L231.21885714285713,597.1311172485352L231.72114285714284,81.24833679199219L231.9722857142857,39.902108001708996L232.056,79.6501350402832L232.30714285714285,41.93068313598633L232.39085714285716,42.263827514648426L232.64200000000002,39.61244659423829L232.89314285714283,39.4063751220703L232.97685714285714,78.60789413452149L233.1442857142857,40.609989166259766L233.56285714285715,38.85041427612305L233.6465714285714,39.05310974121093L233.89771428571427,42.386038970947254L233.98142857142858,43.640563201904286L234.06514285714286,91.6589973449707L234.31628571428573,40.67777938842772L234.48371428571429,39.87996139526368L234.65114285714284,39.68644866943359L234.73485714285715,40.021888732910156L234.9022857142857,595.3230628967285L235.23714285714286,42.4006233215332L235.32085714285714,76.14800033569337L235.65571428571428,39.66983871459962L235.90685714285715,40.86143417358397L236.32542857142857,43.328215026855474L236.49285714285716,41.574311828613276L236.66028571428572,38.91982498168946L236.82771428571428,41.48950653076173L237.33,85.24134292602538L237.49742857142857,40.61768646240233L237.7485714285714,40.40688858032226L238.25085714285714,78.67109298706055L238.6694285714286,41.32084121704102L239.088,80.08010330200194L239.33914285714286,39.63702392578125L239.59028571428573,42.192931365966786L239.7577142857143,41.6394012451172L240.1762857142857,42.0460075378418L240.42742857142858,580.9293891906739L241.0134285714286,41.005522155761724L241.09714285714284,156.89992904663086L242.1854285714286,40.13775329589845L242.35285714285715,40.93341064453125L242.6877142857143,41.152986145019526L242.93885714285716,41.91974487304688L243.44114285714286,40.873587799072254L243.69228571428573,40.3264045715332L244.19457142857144,41.076013183593744L244.362,83.86636276245117L244.4457142857143,38.706731414794916L244.52942857142855,42.767392730712885L244.61314285714286,42.57496032714843L245.0317142857143,38.72172088623046L245.19914285714285,38.290132141113276L245.534,40.106558990478504L245.95257142857142,625.1276687622071L246.37114285714287,78.32039337158203L246.45485714285715,40.04525070190431L246.53857142857143,41.187691497802746L246.62228571428574,41.93621978759765L246.87342857142855,80.06322326660155L246.95714285714286,40.11088027954102L247.12457142857141,44.46376876831056L247.292,136.49912338256837L247.54314285714287,40.75488739013673L247.71057142857143,41.472896575927734L248.464,40.42079772949219L248.71514285714287,39.96598205566406L248.88257142857142,84.15183792114259L248.96628571428573,43.00398330688478L249.38485714285713,42.08341369628906L249.55228571428572,39.68266754150392L249.7197142857143,40.442809295654286L249.88714285714286,43.403432464599604L250.3057142857143,41.73136367797852L250.47314285714288,40.27252349853515L251.22657142857142,41.08951721191406L251.72885714285712,41.46411895751953L251.89628571428574,40.80066604614257L251.98,42.42412033081055L252.0637142857143,38.968844604492176L252.48228571428572,41.9202850341797L253.2357142857143,40.9786491394043L253.40314285714285,41.42941360473634L253.48685714285713,39.470519256591786L253.98914285714287,42.074095916748036L254.07285714285715,42.568208312988276L254.2402857142857,46.61644592285157L254.324,41.414559173583996L254.49142857142857,39.56437225341796L254.74257142857144,43.348876190185536L254.8262857142857,40.84144821166993L254.91,39.75072784423827L255.16114285714286,594.9342819213866L255.32857142857142,39.885498046875L255.4122857142857,86.46629333496094L255.66342857142857,40.08414230346679L255.74714285714288,41.10396652221681L255.83085714285713,75.8039176940918L255.99828571428571,41.855195617675776L256.50057142857145,40.62538375854493L257.08657142857146,41.15663223266603L257.3377142857143,42.05640563964843L257.6725714285714,42.065588378906256L257.9237142857143,81.58607254028321L258.09114285714287,37.680020141601574L258.17485714285715,41.105992126464855L258.3422857142857,79.91022262573243L258.6771428571429,79.43299026489258L258.84457142857144,612.8269844055176L259.17942857142856,40.10345306396485L259.2631428571429,41.82008514404296L259.5142857142857,41.605776214599615L259.6817142857143,40.934085845947266L260.1002857142857,43.13821334838866L260.26771428571425,40.23322677612305L260.3514285714286,78.75873413085937L260.85371428571426,41.26128845214845L260.9374285714286,40.238088226318354L261.2722857142857,41.172296905517584L261.356,41.029964447021484L261.942,163.2620819091797L262.6954285714286,78.15037765502929L263.44885714285715,39.14345169067383L263.9511428571429,72.71527633666993L264.03485714285716,38.21099853515625L264.11857142857144,38.693632507324224L264.3697142857143,617.7176033020019L265.0394285714286,40.123439025878895L265.20685714285713,77.44411697387694L265.8765714285714,42.501498413085926L266.63,40.76515045166016L266.7137142857143,40.731660461425776L267.216,77.17700729370118L267.38342857142857,42.58103713989257L267.802,39.17302551269532L268.05314285714286,586.5759635925292L268.3042857142857,40.092919921874994L268.5554285714286,41.142182922363276L268.72285714285715,41.22874374389647L268.974,79.26283950805664L269.2251428571428,41.982538604736334L269.39257142857144,78.67649459838867L269.6437142857143,42.57415008544922L269.81114285714284,44.19004211425781L269.8948571428571,620.8391944885254L270.06228571428574,297.6124443054199L270.146,80.12183074951172L270.2297142857143,43.19547042846679L270.3134285714286,41.87882766723632L270.732,44.335210418701166L270.8994285714286,42.820463562011724L270.98314285714287,83.00453567504883L271.1505714285714,45.42485046386719L271.40171428571426,85.21690063476562L271.65285714285716,40.71140441894531L271.8202857142857,40.89006271362305L271.9877142857143,44.08336029052734L272.15514285714283,80.97582550048828L272.23885714285717,39.25107879638671L272.65742857142857,43.384526824951166L273.32714285714286,42.28205795288085L274.08057142857143,43.14199447631836L274.1642857142857,82.07019195556641L274.33171428571427,44.15925292968751L274.58285714285716,46.37269821166993L274.834,46.68167037963866L275.08514285714284,42.231417846679676L275.2525714285714,592.9351455688477L275.5037142857143,41.60334548950195L275.67114285714285,40.91504516601563L275.75485714285713,80.01987533569336L276.0897142857143,40.836181640625L276.5082857142857,97.06222915649414L276.7594285714286,43.7837059020996L276.8431428571429,44.16087341308594L277.0942857142857,589.2019569396973L277.3454285714286,42.798316955566406L277.5965714285714,40.663059997558605L277.8477142857143,40.43983840942383L278.1825714285714,84.19248504638672L278.60114285714286,41.03347549438476L278.68485714285714,44.99110107421876L279.0197142857143,41.8948974609375L279.27085714285715,41.516514587402355L279.522,42.403729248046886L279.60571428571427,42.295291900634766L279.94057142857145,42.41817855834961L280.1917142857143,41.85641098022461L280.27542857142856,151.20514526367188L280.35914285714284,42.989533996582026L280.5265714285714,43.59572982788086" style="fill: none;" fill="none"></path></g></g></g></g></g></g><g transform="translate(37, 177)" clip-path="url(#clip_1)"><clipPath id="clip_1"><rect width="293" height="23"></rect></clipPath><g><g><line x1="0" y1="0" x2="0" y2="5" style="visibility: inherit;" fill="rgb(0, 0, 0)" stroke="rgb(204, 204, 204)" stroke-width="1px"></line><line x1="41.857142857142854" y1="0" x2="41.857142857142854" y2="5" style="visibility: inherit;" fill="rgb(0, 0, 0)" stroke="rgb(204, 204, 204)" stroke-width="1px"></line><line x1="83.71428571428571" y1="0" x2="83.71428571428571" y2="5" style="visibility: inherit;" fill="rgb(0, 0, 0)" stroke="rgb(204, 204, 204)" stroke-width="1px"></line><line x1="125.57142857142857" y1="0" x2="125.57142857142857" y2="5" style="visibility: inherit;" fill="rgb(0, 0, 0)" stroke="rgb(204, 204, 204)" stroke-width="1px"></line><line x1="167.42857142857142" y1="0" x2="167.42857142857142" y2="5" style="visibility: inherit;" fill="rgb(0, 0, 0)" stroke="rgb(204, 204, 204)" stroke-width="1px"></line><line x1="209.28571428571428" y1="0" x2="209.28571428571428" y2="5" style="visibility: inherit;" fill="rgb(0, 0, 0)" stroke="rgb(204, 204, 204)" stroke-width="1px"></line><line x1="251.14285714285714" y1="0" x2="251.14285714285714" y2="5" style="visibility: inherit;" fill="rgb(0, 0, 0)" stroke="rgb(204, 204, 204)" stroke-width="1px"></line><line x1="293" y1="0" x2="293" y2="5" style="visibility: inherit;" fill="rgb(0, 0, 0)" stroke="rgb(204, 204, 204)" stroke-width="1px"></line></g><g transform="translate(0, 8)"><text x="0" y="0" dx="0em" dy="0.95em" style="text-anchor: middle; visibility: hidden; font-family: &quot;Helvetica Neue&quot;, sans-serif; font-size: 12px; font-weight: 200;" fill="rgb(50, 49, 63)" stroke="none" stroke-width="1px">-50k</text><text x="41.857142857142854" y="0" dx="0em" dy="0.95em" style="text-anchor: middle; visibility: inherit; font-family: &quot;Helvetica Neue&quot;, sans-serif; font-size: 12px; font-weight: 200;" fill="rgb(50, 49, 63)" stroke="none" stroke-width="1px">0</text><text x="83.71428571428571" y="0" dx="0em" dy="0.95em" style="text-anchor: middle; visibility: inherit; font-family: &quot;Helvetica Neue&quot;, sans-serif; font-size: 12px; font-weight: 200;" fill="rgb(50, 49, 63)" stroke="none" stroke-width="1px">50k</text><text x="125.57142857142857" y="0" dx="0em" dy="0.95em" style="text-anchor: middle; visibility: inherit; font-family: &quot;Helvetica Neue&quot;, sans-serif; font-size: 12px; font-weight: 200;" fill="rgb(50, 49, 63)" stroke="none" stroke-width="1px">100k</text><text x="167.42857142857142" y="0" dx="0em" dy="0.95em" style="text-anchor: middle; visibility: inherit; font-family: &quot;Helvetica Neue&quot;, sans-serif; font-size: 12px; font-weight: 200;" fill="rgb(50, 49, 63)" stroke="none" stroke-width="1px">150k</text><text x="209.28571428571428" y="0" dx="0em" dy="0.95em" style="text-anchor: middle; visibility: inherit; font-family: &quot;Helvetica Neue&quot;, sans-serif; font-size: 12px; font-weight: 200;" fill="rgb(50, 49, 63)" stroke="none" stroke-width="1px">200k</text><text x="251.14285714285714" y="0" dx="0em" dy="0.95em" style="text-anchor: middle; visibility: inherit; font-family: &quot;Helvetica Neue&quot;, sans-serif; font-size: 12px; font-weight: 200;" fill="rgb(50, 49, 63)" stroke="none" stroke-width="1px">250k</text><text x="293" y="0" dx="0em" dy="0.95em" style="text-anchor: middle; visibility: hidden; font-family: &quot;Helvetica Neue&quot;, sans-serif; font-size: 12px; font-weight: 200;" fill="rgb(50, 49, 63)" stroke="none" stroke-width="1px">300k</text></g><line x1="0" y1="0" x2="293" y2="0" fill="rgb(0, 0, 0)" stroke="rgb(204, 204, 204)" stroke-width="1px"></line></g></g></g></g></svg>