<svg viewBox="0 0 330 200" xmlns="http://www.w3.org/2000/svg"><g><g><g><g><g><line x1="46" y1="177" x2="41" y2="177" style="visibility: inherit;" fill="rgb(0, 0, 0)" stroke="rgb(204, 204, 204)" stroke-width="1px"></line><line x1="46" y1="164.35714285714286" x2="41" y2="164.35714285714286" style="visibility: inherit;" fill="rgb(0, 0, 0)" stroke="rgb(204, 204, 204)" stroke-width="1px"></line><line x1="46" y1="151.71428571428572" x2="41" y2="151.71428571428572" style="visibility: inherit;" fill="rgb(0, 0, 0)" stroke="rgb(204, 204, 204)" stroke-width="1px"></line><line x1="46" y1="139.07142857142858" x2="41" y2="139.07142857142858" style="visibility: inherit;" fill="rgb(0, 0, 0)" stroke="rgb(204, 204, 204)" stroke-width="1px"></line><line x1="46" y1="126.42857142857143" x2="41" y2="126.42857142857143" style="visibility: inherit;" fill="rgb(0, 0, 0)" stroke="rgb(204, 204, 204)" stroke-width="1px"></line><line x1="46" y1="113.78571428571428" x2="41" y2="113.78571428571428" style="visibility: inherit;" fill="rgb(0, 0, 0)" stroke="rgb(204, 204, 204)" stroke-width="1px"></line><line x1="46" y1="101.14285714285715" x2="41" y2="101.14285714285715" style="visibility: inherit;" fill="rgb(0, 0, 0)" stroke="rgb(204, 204, 204)" stroke-width="1px"></line><line x1="46" y1="88.5" x2="41" y2="88.5" style="visibility: inherit;" fill="rgb(0, 0, 0)" stroke="rgb(204, 204, 204)" stroke-width="1px"></line><line x1="46" y1="75.85714285714286" x2="41" y2="75.85714285714286" style="visibility: inherit;" fill="rgb(0, 0, 0)" stroke="rgb(204, 204, 204)" stroke-width="1px"></line><line x1="46" y1="63.21428571428571" x2="41" y2="63.21428571428571" style="visibility: inherit;" fill="rgb(0, 0, 0)" stroke="rgb(204, 204, 204)" stroke-width="1px"></line><line x1="46" y1="50.57142857142857" x2="41" y2="50.57142857142857" style="visibility: inherit;" fill="rgb(0, 0, 0)" stroke="rgb(204, 204, 204)" stroke-width="1px"></line><line x1="46" y1="37.928571428571445" x2="41" y2="37.928571428571445" style="visibility: inherit;" fill="rgb(0, 0, 0)" stroke="rgb(204, 204, 204)" stroke-width="1px"></line><line x1="46" y1="25.285714285714306" x2="41" y2="25.285714285714306" style="visibility: inherit;" fill="rgb(0, 0, 0)" stroke="rgb(204, 204, 204)" stroke-width="1px"></line><line x1="46" y1="12.642857142857139" x2="41" y2="12.642857142857139" style="visibility: inherit;" fill="rgb(0, 0, 0)" stroke="rgb(204, 204, 204)" stroke-width="1px"></line><line x1="46" y1="0" x2="41" y2="0" style="visibility: inherit;" fill="rgb(0, 0, 0)" stroke="rgb(204, 204, 204)" stroke-width="1px"></line></g><g transform="translate(36, 0)"><text x="0" y="177" dx="0em" dy="0.3em" style="text-anchor: end; visibility: hidden; font-family: &quot;Helvetica Neue&quot;, sans-serif; font-size: 12px; font-weight: 200;" fill="rgb(50, 49, 63)" stroke="none" stroke-width="1px">3.36</text><text x="0" y="164.35714285714286" dx="0em" dy="0.3em" style="text-anchor: end; visibility: inherit; font-family: &quot;Helvetica Neue&quot;, sans-serif; font-size: 12px; font-weight: 200;" fill="rgb(50, 49, 63)" stroke="none" stroke-width="1px">3.38</text><text x="0" y="151.71428571428572" dx="0em" dy="0.3em" style="text-anchor: end; visibility: hidden; font-family: &quot;Helvetica Neue&quot;, sans-serif; font-size: 12px; font-weight: 200;" fill="rgb(50, 49, 63)" stroke="none" stroke-width="1px">3.4</text><text x="0" y="139.07142857142858" dx="0em" dy="0.3em" style="text-anchor: end; visibility: inherit; font-family: &quot;Helvetica Neue&quot;, sans-serif; font-size: 12px; font-weight: 200;" fill="rgb(50, 49, 63)" stroke="none" stroke-width="1px">3.42</text><text x="0" y="126.42857142857143" dx="0em" dy="0.3em" style="text-anchor: end; visibility: hidden; font-family: &quot;Helvetica Neue&quot;, sans-serif; font-size: 12px; font-weight: 200;" fill="rgb(50, 49, 63)" stroke="none" stroke-width="1px">3.44</text><text x="0" y="113.78571428571428" dx="0em" dy="0.3em" style="text-anchor: end; visibility: inherit; font-family: &quot;Helvetica Neue&quot;, sans-serif; font-size: 12px; font-weight: 200;" fill="rgb(50, 49, 63)" stroke="none" stroke-width="1px">3.46</text><text x="0" y="101.14285714285715" dx="0em" dy="0.3em" style="text-anchor: end; visibility: hidden; font-family: &quot;Helvetica Neue&quot;, sans-serif; font-size: 12px; font-weight: 200;" fill="rgb(50, 49, 63)" stroke="none" stroke-width="1px">3.48</text><text x="0" y="88.5" dx="0em" dy="0.3em" style="text-anchor: end; visibility: inherit; font-family: &quot;Helvetica Neue&quot;, sans-serif; font-size: 12px; font-weight: 200;" fill="rgb(50, 49, 63)" stroke="none" stroke-width="1px">3.5</text><text x="0" y="75.85714285714286" dx="0em" dy="0.3em" style="text-anchor: end; visibility: hidden; font-family: &quot;Helvetica Neue&quot;, sans-serif; font-size: 12px; font-weight: 200;" fill="rgb(50, 49, 63)" stroke="none" stroke-width="1px">3.52</text><text x="0" y="63.21428571428571" dx="0em" dy="0.3em" style="text-anchor: end; visibility: inherit; font-family: &quot;Helvetica Neue&quot;, sans-serif; font-size: 12px; font-weight: 200;" fill="rgb(50, 49, 63)" stroke="none" stroke-width="1px">3.54</text><text x="0" y="50.57142857142857" dx="0em" dy="0.3em" style="text-anchor: end; visibility: hidden; font-family: &quot;Helvetica Neue&quot;, sans-serif; font-size: 12px; font-weight: 200;" fill="rgb(50, 49, 63)" stroke="none" stroke-width="1px">3.56</text><text x="0" y="37.928571428571445" dx="0em" dy="0.3em" style="text-anchor: end; visibility: inherit; font-family: &quot;Helvetica Neue&quot;, sans-serif; font-size: 12px; font-weight: 200;" fill="rgb(50, 49, 63)" stroke="none" stroke-width="1px">3.58</text><text x="0" y="25.285714285714306" dx="0em" dy="0.3em" style="text-anchor: end; visibility: hidden; font-family: &quot;Helvetica Neue&quot;, sans-serif; font-size: 12px; font-weight: 200;" fill="rgb(50, 49, 63)" stroke="none" stroke-width="1px">3.6</text><text x="0" y="12.642857142857139" dx="0em" dy="0.3em" style="text-anchor: end; visibility: inherit; font-family: &quot;Helvetica Neue&quot;, sans-serif; font-size: 12px; font-weight: 200;" fill="rgb(50, 49, 63)" stroke="none" stroke-width="1px">3.62</text><text x="0" y="0" dx="0em" dy="0.3em" style="text-anchor: end; visibility: hidden; font-family: &quot;Helvetica Neue&quot;, sans-serif; font-size: 12px; font-weight: 200;" fill="rgb(50, 49, 63)" stroke="none" stroke-width="1px">3.64</text></g><line x1="46" y1="0" x2="46" y2="177" fill="rgb(0, 0, 0)" stroke="rgb(204, 204, 204)" stroke-width="1px"></line></g></g><g transform="translate(46, 0)" clip-path="url(#clip_0)"><clipPath id="clip_0"><rect width="284" height="177"></rect></clipPath><g><g><g><line x1="0" y1="0" x2="0" y2="177" fill="rgb(0, 0, 0)" stroke="rgb(60, 60, 60)" stroke-width="1px" opacity="0.25"></line><line x1="40.57142857142857" y1="0" x2="40.57142857142857" y2="177" fill="rgb(0, 0, 0)" stroke="rgb(60, 60, 60)" stroke-width="1px" opacity="0.25"></line><line x1="81.14285714285714" y1="0" x2="81.14285714285714" y2="177" fill="rgb(0, 0, 0)" stroke="rgb(60, 60, 60)" stroke-width="1px" opacity="0.25"></line><line x1="121.71428571428571" y1="0" x2="121.71428571428571" y2="177" fill="rgb(0, 0, 0)" stroke="rgb(60, 60, 60)" stroke-width="1px" opacity="0.25"></line><line x1="162.28571428571428" y1="0" x2="162.28571428571428" y2="177" fill="rgb(0, 0, 0)" stroke="rgb(60, 60, 60)" stroke-width="1px" opacity="0.25"></line><line x1="202.85714285714286" y1="0" x2="202.85714285714286" y2="177" fill="rgb(0, 0, 0)" stroke="rgb(60, 60, 60)" stroke-width="1px" opacity="0.25"></line><line x1="243.42857142857142" y1="0" x2="243.42857142857142" y2="177" fill="rgb(0, 0, 0)" stroke="rgb(60, 60, 60)" stroke-width="1px" opacity="0.25"></line><line x1="284" y1="0" x2="284" y2="177" fill="rgb(0, 0, 0)" stroke="rgb(60, 60, 60)" stroke-width="1px" opacity="0.25"></line></g><g><line x1="0" y1="177" x2="284" y2="177" fill="rgb(0, 0, 0)" stroke="rgb(60, 60, 60)" stroke-width="1px" opacity="0.25"></line><line x1="0" y1="164.35714285714286" x2="284" y2="164.35714285714286" fill="rgb(0, 0, 0)" stroke="rgb(60, 60, 60)" stroke-width="1px" opacity="0.25"></line><line x1="0" y1="151.71428571428572" x2="284" y2="151.71428571428572" fill="rgb(0, 0, 0)" stroke="rgb(60, 60, 60)" stroke-width="1px" opacity="0.25"></line><line x1="0" y1="139.07142857142858" x2="284" y2="139.07142857142858" fill="rgb(0, 0, 0)" stroke="rgb(60, 60, 60)" stroke-width="1px" opacity="0.25"></line><line x1="0" y1="126.42857142857143" x2="284" y2="126.42857142857143" fill="rgb(0, 0, 0)" stroke="rgb(60, 60, 60)" stroke-width="1px" opacity="0.25"></line><line x1="0" y1="113.78571428571428" x2="284" y2="113.78571428571428" fill="rgb(0, 0, 0)" stroke="rgb(60, 60, 60)" stroke-width="1px" opacity="0.25"></line><line x1="0" y1="101.14285714285715" x2="284" y2="101.14285714285715" fill="rgb(0, 0, 0)" stroke="rgb(60, 60, 60)" stroke-width="1px" opacity="0.25"></line><line x1="0" y1="88.5" x2="284" y2="88.5" fill="rgb(0, 0, 0)" stroke="rgb(60, 60, 60)" stroke-width="1px" opacity="0.25"></line><line x1="0" y1="75.85714285714286" x2="284" y2="75.85714285714286" fill="rgb(0, 0, 0)" stroke="rgb(60, 60, 60)" stroke-width="1px" opacity="0.25"></line><line x1="0" y1="63.21428571428571" x2="284" y2="63.21428571428571" fill="rgb(0, 0, 0)" stroke="rgb(60, 60, 60)" stroke-width="1px" opacity="0.25"></line><line x1="0" y1="50.57142857142857" x2="284" y2="50.57142857142857" fill="rgb(0, 0, 0)" stroke="rgb(60, 60, 60)" stroke-width="1px" opacity="0.25"></line><line x1="0" y1="37.928571428571445" x2="284" y2="37.928571428571445" fill="rgb(0, 0, 0)" stroke="rgb(60, 60, 60)" stroke-width="1px" opacity="0.25"></line><line x1="0" y1="25.285714285714306" x2="284" y2="25.285714285714306" fill="rgb(0, 0, 0)" stroke="rgb(60, 60, 60)" stroke-width="1px" opacity="0.25"></line><line x1="0" y1="12.642857142857139" x2="284" y2="12.642857142857139" fill="rgb(0, 0, 0)" stroke="rgb(60, 60, 60)" stroke-width="1px" opacity="0.25"></line><line x1="0" y1="0" x2="284" y2="0" fill="rgb(0, 0, 0)" stroke="rgb(60, 60, 60)" stroke-width="1px" opacity="0.25"></line></g></g></g><g><g><line x1="0" y1="2300.999999999998" x2="284" y2="2300.999999999998" fill="rgb(0, 0, 0)" stroke="rgb(153, 153, 153)" stroke-width="1.5px"></line></g></g><g><g><line x1="40.57142857142857" y1="0" x2="40.57142857142857" y2="177" fill="rgb(0, 0, 0)" stroke="rgb(153, 153, 153)" stroke-width="1.5px"></line></g></g><g><g><g><g><g><path stroke="rgb(255, 112, 67)" stroke-width="2px" d="M40.97714285714286,28.866150651659353L41.13942857142857,64.85679755892073L41.38285714285714,26.197913822506905L41.70742857142857,27.379302343825316L42.11314285714286,25.005182797193896L42.27542857142857,27.053016569981025L42.437714285714286,24.379938944010036L42.68114285714285,26.597113353946185L42.924571428571426,26.823978551034003L43.08685714285714,72.20759528731568L43.817142857142855,26.46543785672003L44.06057142857143,27.63343045293331L44.14171428571428,26.97669103223876L44.46628571428572,28.72988501846919L44.872,25.929841988786478L45.03428571428571,70.47845583580165L45.11542857142857,27.410266601057515L45.27771428571428,25.965598505955512L45.35885714285715,28.244960101090896L45.521142857142856,61.75079741108539L46.413714285714285,27.215285150974836L47.306285714285714,25.434061701519568L47.38742857142857,24.565156849290474L47.46857142857143,69.34992985945378L47.79314285714286,26.478328505615195L48.03657142857143,27.210129482466584L48.117714285714285,27.691697956582203L48.44228571428572,26.06289519444249L48.68571428571428,23.651560438298418L48.92914285714286,62.96614697998149L49.25371428571429,25.37337805764892L49.33485714285714,682.3695375827518L49.416,57.00129631988882L49.49714285714286,30.57669559599003L49.983999999999995,26.810046343571543L50.14628571428572,67.47403775862287L50.95771428571429,30.177753400024557L51.20114285714286,27.458213298865104L51.44457142857143,25.14618971295934L51.52571428571429,28.934225888961237L51.687999999999995,30.301629727079046L52.09371428571429,66.8336293347497L52.256,28.543224667780038L53.63542857142857,27.972335677659515L53.71657142857143,25.91892539204818L53.797714285714285,85.81526196466119L54.203428571428574,71.95102541424941L54.528,69.31208054355928L54.85257142857143,28.059162515971906L54.93371428571428,67.96463610451157L55.42057142857143,27.834588461691453L55.664,25.409682873072768L55.74514285714286,67.06227308892115L55.82628571428571,32.845723070375584L55.98857142857143,26.284175323654807L56.394285714285715,23.652306367651647L56.475428571428566,630.3488851155629L56.96228571428571,95.21434078265135L57.04342857142857,29.400793606609938L57.53028571428571,25.51369836421111L57.773714285714284,28.024414564122623L58.179428571428566,69.85765521637863L58.504,29.38817312264348L58.58514285714286,26.296986536315956L58.82857142857143,26.088795566471447L58.90971428571429,68.21061252573169L59.15314285714286,29.44474686135993L59.31542857142857,77.59993429762888L59.802285714285716,28.5577689591359L59.88342857142857,31.50135012035929L59.964571428571425,25.848590589993336L60.04571428571429,651.3567841483992L60.370285714285714,54.44605870832541L60.61371428571429,26.24448927350528L60.775999999999996,27.315040537678016L61.83085714285715,621.4312830272063L61.99314285714286,53.26766818573614L62.15542857142857,27.17653535157524L62.966857142857144,27.11460037430163L63.048,25.454431199503944L63.21028571428571,26.079667065256444L63.291428571428575,69.81216985278473L63.453714285714284,29.200021630273625L63.53485714285715,25.300567418679094L64.02171428571428,70.20919556770427L64.10285714285713,30.530839548077637L64.67085714285714,25.96986419587688L64.83314285714286,27.413510391610316L64.99542857142858,27.472141442851267L65.07657142857143,27.724070834392705L65.23885714285714,67.66788118454552L65.888,29.414278788329085L66.0502857142857,28.22181841480372L66.13142857142857,28.02077087461325L66.21257142857144,26.85220396073143L66.61828571428572,26.29585489312629L67.34857142857143,26.503270083288726L67.51085714285715,26.87128341906015L67.592,27.64147429966434L67.83542857142857,24.67816399845418L67.91657142857143,26.66119770189647L68.16,30.40459112481571L68.24114285714286,27.132194805640978L68.32228571428571,27.115483698629077L68.40342857142858,68.2146412853793L68.64685714285714,26.96885830922068L68.728,31.330391821819262L68.89028571428571,72.27379199447111L68.97142857142858,581.73503201417L69.13371428571429,91.70498575332897L69.62057142857142,74.24925269869448L69.70171428571429,30.697385279833043L69.864,23.85939282991731L69.94514285714286,25.941393549169703L70.10742857142857,25.394440270137466L70.26971428571429,28.86896903589414L70.432,25.421686212181584L70.51314285714285,25.999462493571173L70.59428571428572,26.661931696735735L70.67542857142857,28.640012382454756L70.83771428571428,26.121977642303904L71.16228571428572,24.395903036036117L71.48685714285715,26.175965742609293L71.568,71.87560084726842L71.73028571428571,30.259238458799587L71.81142857142856,27.44748688203896L71.89257142857143,25.171470931805175L71.9737142857143,27.150457296976754L72.05485714285714,63.277461122015595L72.94742857142856,25.839191137980748L73.19085714285714,75.11965226804332L73.272,28.417657643752108L73.35314285714286,25.698885562748018L73.51542857142857,64.20541819490997L73.59657142857142,30.06420177927464L73.92114285714285,25.886110950387632L74.08342857142857,29.96900429492871L74.408,25.919537364105793L74.65142857142857,28.23914510614523L75.13828571428571,29.678932676544036L75.21942857142857,74.02425186695038L75.30057142857143,27.591993018944493L75.54400000000001,25.69282006268881L75.70628571428571,28.01592280941253L75.86857142857143,26.6687597956834L75.94971428571428,66.30456177827702L76.27428571428571,30.517486825184847L76.43657142857143,31.624081211061537L76.68,67.54803227495339L76.76114285714286,28.608477262372247L76.92342857142857,26.308102537355637L77.00457142857142,25.22886763204957L77.41028571428572,26.11874160081146L77.65371428571429,24.29601222998579L77.73485714285714,24.028892284403383L78.05942857142857,26.35563018092364L78.46514285714287,28.01278873489494L78.54628571428572,23.969309694263274L78.62742857142857,24.709384378238838L78.95200000000001,28.090412470496858L79.03314285714286,29.121410242039644L79.11428571428571,62.69744386642685L79.43885714285713,28.373216755513084L79.52000000000001,25.307404527395846L79.76342857142858,24.947643079834137L79.92571428571428,26.375240167566858L80.25028571428572,25.449226816919094L80.33142857142857,68.1275694003466L80.73714285714286,69.22969493598723L80.98057142857142,28.455731292366323L81.22399999999999,25.709378756063103L81.30514285714287,26.800726657715273L81.54857142857144,27.97351790913038L81.62971428571429,27.573625976835444L81.79199999999999,26.348901223444415L82.03542857142857,27.523115619798745L82.27885714285713,67.90323549100421L82.36,26.473822818257474L82.44114285714285,25.263384344295275L82.68457142857143,30.1292452353336L82.76571428571428,70.86979799915625L82.928,28.932402842948477L83.09028571428573,26.46862668741599L83.17142857142858,76.54944708189645L83.25257142857143,597.467822548301L83.33371428571428,53.406405216642L83.73942857142858,25.774399546491225L83.82057142857143,26.74967792651887L84.064,31.11398564644091L84.22628571428572,64.69147993556567L84.46971428571429,28.377452506467193L84.63199999999999,24.629673321610795L84.79428571428572,23.424565723944994L85.2,28.083979513814853L85.28114285714285,26.049026659126838L85.3622857142857,25.172734092114098L85.44342857142858,62.05902568416781L85.52457142857143,26.173267008880515L85.60571428571428,24.73616443770794L86.336,66.97597503833808L86.41714285714285,25.615279474165703L86.66057142857143,67.06965381418897L87.06628571428571,68.19903013724993L87.22857142857143,31.63746824634947L87.472,26.722772479700865L87.55314285714286,23.270759583825736L87.71542857142856,24.756824602969402L87.79657142857144,23.825094227441866L88.28342857142856,84.48681884887685L88.44571428571429,29.28148454247932L88.7702857142857,26.140192888596403L89.176,26.60018451816427L89.58171428571428,28.16427174610655L89.82514285714285,69.19912482745866L89.98742857142857,27.470721310343095L90.312,62.2827626327645L90.55542857142856,67.9474929904641L90.63657142857141,28.037049633488095L91.20457142857143,30.873401482928614L91.61028571428571,25.635235777413754L91.69142857142857,26.12666503133363L92.42171428571429,26.302211333819628L92.90857142857142,27.941297313314948L92.98971428571429,68.78377721368356L93.39542857142857,27.579410881290443L93.80114285714286,30.730753025966806L93.88228571428571,71.13939201906898L94.04457142857143,28.01588244058385L94.20685714285715,70.13160651043431L94.28800000000001,32.15479219282162L94.53142857142856,25.738524944331346L94.61257142857143,72.22366340757611L94.77485714285714,26.426723432281875L94.93714285714286,65.79537601834222L95.09942857142858,27.533019483661747L95.18057142857143,27.793163203239686L95.82971428571427,30.282666706280963L96.07314285714286,28.490612052866396L96.23542857142857,28.945830085113187L96.31657142857142,26.6737589172445L96.64114285714287,68.10840420339173L96.72228571428572,28.197722624129227L96.80342857142857,25.755629208765185L97.12800000000001,24.386038248983425L97.20914285714287,26.628333298245337L97.53371428571428,613.7437508727087L97.85828571428571,51.56775673140902L97.93942857142858,28.7672088431909L98.10171428571428,69.490804830202L98.66971428571428,27.784953584796995L98.91314285714286,26.19807022239732L99.23771428571429,25.861968705269845L99.39999999999999,28.185458498625763L99.48114285714287,29.796700370537593L99.56228571428572,27.153057090676157L99.64342857142857,28.821302309030102L99.72457142857142,25.96043933668821L100.29257142857143,26.3396381003096L100.536,66.60251650433702L100.77942857142858,26.470560522625533L100.94171428571428,26.908529316456764L101.104,619.1974379008504L101.18514285714285,51.48644599818668L101.672,28.8748096399558L101.91542857142858,26.712879135956626L102.07771428571428,25.603459312085278L102.24,25.871626122817247L102.40228571428572,29.261068444389565L102.56457142857143,26.19209737139036L102.97028571428571,26.943640113850023L103.05142857142857,25.123753581857528L103.21371428571429,24.52067930562754L103.37599999999999,67.3453962667572L103.78171428571429,28.545671840127113L104.18742857142858,60.52204850906131L104.75542857142858,31.087188204260173L104.83657142857143,26.984291510332667L105.08,27.487370379923902L105.4857142857143,25.02285628448945L105.56685714285715,31.130122626499798L106.37828571428571,26.55860026610361L106.45942857142856,643.2197047519377L106.784,57.67618619897577L106.86514285714286,67.6254828925107L107.18971428571429,31.145749296814103L107.352,78.8119624635311L107.75771428571429,67.774889107388L107.83885714285715,27.998336983137506L107.92,26.982316892744763L108.00114285714285,28.105471372156387L108.16342857142857,27.078966839974726L108.3257142857143,26.964838022124013L108.488,68.09142088216727L108.56914285714285,25.69800326964193L108.97485714285715,26.342509586652852L109.38057142857143,27.74894586678053L109.62400000000001,26.186374603956864L109.70514285714286,72.01266113605759L110.11085714285714,26.304673158301142L110.19200000000001,29.884064301649715L110.35428571428571,24.78267885966136L110.51657142857142,69.61750135839405L110.92228571428572,73.82284153040895L111.00342857142857,31.374254079871406L111.08457142857142,28.018985899722168L111.24685714285715,80.23897029842882L111.40914285714285,27.883026011493L111.57142857142857,26.918691326468974L111.81485714285715,618.6522472934105L111.896,57.90979807891168L112.38285714285715,32.89286226110107L112.464,141.37208859229975L112.62628571428571,32.04225137374675L112.78857142857143,25.6570324793326L113.03200000000001,26.050066295221967L113.68114285714286,25.986718850566263L113.76228571428571,25.613098237986918L113.84342857142857,29.940310424174015L113.92457142857143,24.17493636961015L114.08685714285714,77.54832174672966L114.81714285714287,28.84417487843089L114.89828571428572,72.60220158038246L115.14171428571429,27.46754912927088L115.46628571428572,25.1781310307189L115.62857142857143,69.08216432107581L116.11542857142857,27.420407232362322L116.19657142857143,26.57733592704193L116.27771428571428,27.54678089881861L116.35885714285713,70.32121404010854L116.52114285714286,30.92694483160949L116.68342857142858,26.448272756703687L117.008,26.667590981661107L117.17028571428573,664.3826787063151L117.41371428571428,55.5914015111247L117.576,70.8026763200071L118.22514285714286,28.74558063549364L118.79314285714285,69.39987378291293L119.03657142857143,29.418093246230256L119.19885714285714,64.82357895749423L119.44228571428572,30.710352796059283L119.76685714285713,25.72289400001202L119.92914285714285,29.793258571852675L120.01028571428571,68.33643654667654L120.17257142857143,29.25912272328449L120.416,77.48391974277327L120.57828571428571,27.78308545475477L121.06514285714285,27.69157313528754L121.14628571428571,30.32976690087341L121.47085714285714,24.89773089013434L122.12,25.39295810300888L122.20114285714286,25.452377898323135L122.2822857142857,26.43868611625166L122.36342857142859,25.890356178747822L122.688,64.78012067766926L122.76914285714285,28.958322578254183L122.8502857142857,24.907406388191816L123.6617142857143,26.706489193498953L123.90514285714285,79.36841682338158L123.98628571428571,28.923776237764855L124.47314285714286,28.163762688851023L124.55428571428571,25.44997175600801L124.79771428571429,65.66722171275552L124.87885714285714,30.954859778203172L125.12228571428571,70.21118121586392L125.20342857142856,29.124277120106854L125.36571428571429,25.610787712741967L125.528,26.11131555639733L125.60914285714286,65.61234990628401L126.01485714285715,65.41787802707536L126.17714285714285,30.88894498335833L126.2582857142857,26.380785636300317L126.33942857142857,63.916285806077056L126.42057142857142,27.57181052922536L126.58285714285715,25.871827406537477L126.74514285714285,66.78052359414943L126.90742857142857,29.703665130254365L126.98857142857142,26.54507389931021L127.0697142857143,65.04145814352006L127.15085714285715,31.0530731040416L127.6377142857143,25.37258407186647L127.71885714285715,26.506198021746968L127.8,27.052050394399828L127.96228571428571,26.470226361611736L128.77371428571428,67.13777650773413L128.936,29.530038549239805L129.01714285714286,24.46909540514534L129.17942857142856,66.96971422966115L129.66628571428572,590.7821501851345L129.90971428571427,96.16092574067757L130.2342857142857,72.40995939171378L130.64000000000001,33.05628707305712L130.72114285714287,68.41346559354726L131.12685714285715,75.74888249529269L131.208,29.51726218994503L131.28914285714285,25.437041889421806L131.53257142857143,26.34875788013173L131.69485714285713,26.257942980360127L132.344,63.36554178600332L132.50628571428572,30.116796916150747L132.66857142857143,142.23698907403855L132.912,31.43333196179111L133.15542857142856,67.40703070960423L133.3177142857143,30.209281869548732L133.48,24.116513186744896L133.72342857142857,25.437110083390877L133.88571428571427,67.01989578263877L134.12914285714285,26.934957438967274L134.21028571428573,25.462467701221414L134.37257142857143,25.924869532437697L134.45371428571428,25.338858427950584L134.53485714285713,25.338683633185752L134.85942857142857,26.026097123349984L135.184,25.818534669524865L135.50857142857143,72.9899618697212L135.58971428571428,27.782362773059475L135.75199999999998,28.256763324982103L135.9142857142857,30.637739848372803L136.07657142857144,26.31507494112617L136.1577142857143,26.87461709812871L136.56342857142857,26.800195243455477L136.72571428571428,69.5872424096644L136.80685714285715,588.5112361008491L137.61828571428572,56.63909237984812L137.78057142857142,66.85181089242651L138.10514285714285,29.99200323164507L138.18628571428573,27.88769703809163L138.26742857142858,66.03484629136705L138.42971428571428,29.153823972459293L138.51085714285713,26.50478634318111L138.91657142857144,23.81710517403681L139.07885714285715,24.078012297237308L139.3222857142857,23.273656156283153L139.80914285714286,24.88001718895589L140.05257142857144,28.543561863352636L140.21485714285714,63.98943008558342L140.78285714285715,32.423898219149265L141.10742857142856,26.62473645223207L141.2697142857143,26.7604519903378L141.432,65.85846723998759L141.51314285714287,28.29193572069056L141.59428571428572,26.421238381546885L141.91885714285715,25.217406513896407L142,28.0788736123163L142.08114285714288,28.878796621421685L142.1622857142857,669.3532886863802L142.48685714285713,55.96174612138597L142.568,28.948673999487937L142.7302857142857,23.912830806544434L142.8114285714286,28.330342123832565L143.05485714285712,146.96466192387783L143.136,33.88062844413628L143.46057142857143,26.885173842491895L143.704,23.95138362149882L143.9474285714286,643.1030996651541L144.19085714285714,53.07589567274559L144.272,27.93895169479478L144.51542857142857,24.999997710246163L144.59657142857142,71.39721797925291L144.6777142857143,28.585366764483155L145.16457142857143,28.382856282539194L145.89485714285712,28.306382926727935L146.38171428571428,24.17870135503395L146.7874285714286,24.186113025106437L146.9497142857143,23.854394400316863L147.03085714285714,64.83243484234872L147.19314285714285,27.873842825669442L147.27428571428572,24.747201087121L147.35542857142858,25.78804364750019L147.5177142857143,607.2995047244412L147.59885714285713,55.05412120655899L147.9234285714286,26.63326645458946L148.00457142857144,25.452633850486706L148.24800000000002,24.296694991944207L148.41028571428572,28.120634546869894L148.4914285714286,67.7291941499091L148.73485714285712,27.279928932735828L148.816,25.715336019765545L149.05942857142858,27.39960977212553L149.14057142857143,26.602595746268406L149.38400000000001,26.633802634338792L149.62742857142857,28.3364884407587L150.11428571428573,27.66883463045906L150.19542857142855,75.45501946300264L150.3577142857143,29.746132725492203L150.52,26.130300513664366L150.60114285714286,71.60439224036044L151.00685714285714,27.782766685631145L151.41257142857143,26.7958671872548L151.73714285714286,26.562905207259377L151.89942857142856,25.837077667957544L152.14285714285714,72.2295376045867L152.30514285714284,32.77081027168276L152.38628571428572,26.41653254307377L153.03542857142855,30.345507756135845L153.52228571428572,26.385693179795908L153.68457142857142,25.388669845912972L154.41485714285713,28.76277508749837L154.496,27.66426867618557L154.6582857142857,631.1158041991899L154.98285714285714,56.494465673821296L155.30742857142857,70.59373534820354L155.38857142857142,29.15228698941513L155.46971428571428,26.165180541876083L155.632,25.360323424283706L155.79428571428573,25.56044192820383L155.87542857142856,26.91895786246897L156.11885714285714,26.36837818949911L156.20000000000002,24.308685200923748L156.36228571428572,28.48158094782457L156.68685714285715,25.477803227464875L157.09257142857143,27.30515211365153L157.17371428571428,26.608852220100715L157.49828571428571,22.722863923147514L157.82285714285715,26.6520841782081L157.90400000000002,27.137058453807242L158.06628571428573,27.045895327112817L158.14742857142858,71.32117027659208L159.04000000000002,26.601865976005854L159.20228571428572,84.31728779568822L159.36457142857142,28.254526071659L159.52685714285715,26.7920521142467L159.77028571428573,24.702262748669455L160.0137142857143,626.2913237620612L160.09485714285714,53.8725407679581L160.176,26.418747064333786L160.66285714285715,25.054506809656687L160.74399999999997,29.40435756362791L160.82514285714285,26.434306726188964L161.31199999999998,74.48146457495862L161.63657142857144,72.57605579068584L161.79885714285714,626.5497662872491L162.28571428571428,53.21790739503487L162.44799999999998,26.223910183582177L162.77257142857144,24.871868756814564L163.016,24.963739216445703L163.34057142857145,25.372611421650134L163.42171428571427,633.621311250636L163.82742857142856,52.29355812321731L164.07085714285714,25.88869227914438L164.23314285714287,27.545729883162636L164.72,24.256019612722582L164.8822857142857,27.74357227144955L164.96342857142858,24.737596668618693L165.04457142857143,26.69625697211322L165.4502857142857,28.15146704561363L165.77485714285714,25.7385787334824L165.93714285714287,72.49224376991462L166.0182857142857,28.27509967818054L166.09942857142858,26.261003610896665L166.26171428571428,68.4090723769698L166.42399999999998,28.346693122411352L166.50514285714286,28.741158756879003L166.8297142857143,30.866224633409786L167.1542857142857,27.683647237168657L167.39771428571427,24.073098661305664L167.47885714285715,61.89209321489912L168.128,26.863683472156055L168.45257142857145,25.716323718964446L168.53371428571427,25.22598643859891L168.696,69.43047534395478L168.77714285714285,605.8496244271812L169.02057142857143,52.89653064445196L169.26399999999998,27.904540631140236L169.34514285714286,25.773669359582556L169.4262857142857,75.38096375650063L170.15657142857143,67.78054704408797L170.31885714285715,29.908862996462574L170.48114285714286,27.857760022571398L170.6434285714286,26.036399930460902L170.7245714285714,25.235496164995823L170.8057142857143,27.51417707135508L170.88685714285717,25.524371763411324L171.04914285714287,68.59829957090781L171.21142857142857,27.712549980514126L171.6982857142857,26.23223449582872L171.77942857142858,29.242176304665918L171.8605714285714,148.07597612086911L171.94171428571428,30.64725065430659L172.10399999999998,24.13650964694847L172.18514285714286,22.949417955086858L172.26628571428571,72.00258244977388L172.34742857142857,647.7724189343623L172.42857142857142,52.44084372453062L172.59085714285715,66.72967435728184L172.672,25.11424990172955L172.8342857142857,25.423139865679474L173.07771428571428,27.8956939345708L173.15885714285716,23.443868573071597L173.5645714285714,25.533069829785006L173.6457142857143,26.041033597319256L173.88914285714287,24.518777172910745L173.9702857142857,23.41756034302753L174.05142857142857,24.217638806798163L174.21371428571427,27.39108176742789L174.376,23.746736215481207L174.45714285714286,25.13577174405026L174.7817142857143,25.10098001021302L175.10628571428572,26.336369812016727L175.18742857142857,24.042121260783688L175.59314285714288,25.866711240406346L175.6742857142857,26.042661743439368L176.16114285714286,80.53994870411209L176.3234285714286,26.648531811679447L176.40457142857142,26.27546291573188L176.648,27.5298861670812L176.72914285714288,26.269929074086548L176.97257142857143,68.43797264686567L177.3782857142857,72.47609792534837L177.5405714285714,24.622950925360357L177.70285714285714,584.1885221798342L177.784,51.64586254681488L178.10857142857142,25.08360616878184L178.6765714285714,24.69403845724966L179.24457142857142,24.185122543995334L180.13714285714283,64.97944759305659L180.2182857142857,26.436528114134006L180.2994285714286,26.885695856258053L180.38057142857141,24.577801111490487L180.4617142857143,21.694754273095782L181.27314285714283,607.078172131858L181.5165714285714,51.67902068260345L181.67885714285714,31.57544401414117L181.76,99.79923333852781L181.84114285714284,29.460878407800436L181.92228571428572,23.2062864426903L182.00342857142857,25.535188621497042L182.08457142857142,138.86732549852678L182.1657142857143,30.575564527152352L182.24685714285712,25.177081860253764L182.4902857142857,24.881039068145753L182.65257142857143,25.40415336393022L182.73371428571429,26.98144424787074L183.3017142857143,64.47543369168584L183.54514285714285,26.832834835119115L183.62628571428573,25.713784070739933L183.70742857142858,67.21989008752494L183.78857142857143,26.288632761928483L183.95085714285713,25.84431022039783L184.11314285714283,25.785741810846986L184.1942857142857,28.513504708541035L184.51885714285714,74.19648615458074L184.6,27.504604215935217L184.68114285714285,26.45172952350947L184.76228571428572,25.53211954741576L185.0057142857143,25.802206908841185L185.168,25.996579315106402L185.3302857142857,23.800424952896122L185.41142857142856,25.651594767509863L185.5737142857143,23.933726796082794L185.73600000000002,59.03495154861899L185.81714285714284,27.65959018953734L186.1417142857143,67.06147081486364L186.304,28.6217015131769L186.38514285714285,23.010341725697373L186.7097142857143,26.610758147667582L186.872,89.10157060819596L187.03428571428572,27.933670441681926L187.52114285714285,25.1422531741176L187.68342857142855,67.35753452192121L187.76457142857143,26.87948035188279L187.92685714285713,25.805553032048266L188.08914285714286,62.561328144445724L188.1702857142857,27.423902237847813L188.4137142857143,614.2320750811548L188.57600000000002,50.730310693433594L188.65714285714284,27.20182480334418L188.73828571428572,25.074632401217457L189.79314285714284,23.390470283316716L190.1177142857143,73.78387506288881L190.44228571428573,28.24628788976031L190.52342857142855,25.030811867495004L190.60457142857143,25.710560489784456L190.848,62.096757521865484L191.65942857142855,27.135426145118146L191.82171428571428,27.80492158661542L192.06514285714286,24.713729885530284L192.1462857142857,23.18682962710011L192.38971428571426,23.926011927620692L192.55200000000002,26.405694893857742L192.87657142857142,24.829672713129042L192.95771428571427,27.32334001481533L193.5257142857143,27.435842908280677L193.68800000000002,60.00792407294266L193.85028571428572,28.392666430841928L194.01257142857145,98.51088181717692L194.09371428571427,28.28886546729416L194.17485714285715,26.393465190760196L194.49942857142855,29.00877663838503L194.90514285714286,23.48359415872386L194.9862857142857,25.77911083980996L195.14857142857144,26.227990890204467L195.31085714285715,25.916138342529592L195.55428571428573,606.5627215034651L195.71657142857143,55.78064140478736L195.79771428571428,27.974017921021925L196.04114285714286,25.67215695032391L196.28457142857144,24.951534816176547L196.528,26.048112916434633L196.60914285714284,26.49255349167163L196.93371428571427,25.901416157324235L197.58285714285714,67.830115082748L197.74514285714287,27.0671323832033L197.90742857142857,67.72971605663204L198.15085714285715,26.595553643948392L198.232,22.801572264255128L198.31314285714285,22.92907112760537L198.39428571428573,66.67760571276261L198.47542857142858,28.23955883624606L198.96228571428574,25.455253704422205L199.61142857142858,70.5342471533688L199.93599999999998,27.739072062502572L200.09828571428574,24.97992032855035L200.6662857142857,24.512335687447433L201.15314285714285,27.747765940131927L201.39657142857143,25.468674337940115L201.55885714285716,69.91997167808152L201.88342857142857,25.904213890352167L202.04571428571427,25.87091076681304L202.45142857142858,26.079265630639213L202.53257142857143,24.369800344800183L202.61371428571428,23.060236950452037L203.42514285714287,23.373228034833886L203.58742857142857,24.85009806920519L203.66857142857145,24.91195138252155L203.83085714285716,23.988385567475376L204.3177142857143,22.384294486040858L204.39885714285714,64.79506683514795L204.48,632.2931457634371L205.77828571428572,51.4235949450279L206.0217142857143,30.008759790872745L206.26514285714288,632.9243149851438L206.3462857142857,53.13471177109426L206.99542857142856,26.012183997900564L207.1577142857143,69.45448357099157L207.40114285714287,25.731706061255295L207.4822857142857,24.445413334123003L207.64457142857142,25.107768114724394L208.0502857142857,614.5180499032191L208.456,49.75062142171524L208.78057142857142,27.473670502252475L209.024,29.895216638051295L209.1862857142857,28.283617770114915L209.42971428571428,26.018860755699535L209.67314285714286,23.279672505653707L209.9977142857143,23.376049945027262L210.3222857142857,70.08373052131856L210.56571428571428,24.68643006893774L210.64685714285713,25.779263789003807L210.728,65.96371564853534L211.53942857142857,71.27015011841382L211.78285714285713,67.93869537855974L212.0262857142857,30.748053134374487L212.10742857142858,24.753334378342174L212.432,23.76059936454874L213,146.34233907227843L213.1622857142857,29.3327133546274L213.40571428571428,644.6066834485716L213.64914285714286,51.63082694911131L213.7302857142857,25.921623922202684L213.9737142857143,25.714663921069302L214.21714285714287,67.63215220243522L214.46057142857143,26.55978599756321L214.704,67.29826125875022L214.8662857142857,30.05340210976101L214.9474285714286,27.341069846154056L215.0285714285714,25.28211598584673L215.19085714285714,644.5689147414641L215.84,96.92596309911765L215.92114285714285,28.89057223643931L216.0022857142857,24.442046610405953L216.08342857142858,25.419230354951395L216.48914285714284,22.727623579322824L216.57028571428572,26.339533160383837L216.6514285714286,65.67558683811644L216.8137142857143,25.31783414693905L216.976,651.6751714619791L217.05714285714285,53.35901507052567L217.1382857142857,26.321657131369165L217.21942857142858,27.097144991320107L217.30057142857143,25.992816645148423L217.38171428571428,63.30424227238372L217.62514285714283,25.673866451219737L217.7874285714286,24.407547102717842L217.9497142857143,24.722772034052042L218.43657142857143,30.186383445077638L218.5177142857143,23.576743617098828L218.68,23.78091439464987L218.76114285714286,620.5190488676094L218.8422857142857,53.91303147736993L218.9234285714286,25.67715806933677L219.00457142857144,71.12917430508624L219.32914285714284,69.75223329785652L219.73485714285712,32.32022673814615L219.816,68.7898306836724L220.30285714285714,27.411858056909495L220.46514285714284,25.09862107454353L220.70857142857142,27.098673819533502L220.952,23.923712617286014L221.03314285714285,64.20268320272801L221.3577142857143,27.571168762271924L221.6822857142857,24.385408170517735L222.41257142857143,25.29649803382472L222.98057142857144,69.18579669595165L223.14285714285714,28.412015462598788L223.30514285714284,26.309337027495218L223.6297142857143,25.051310547335333L223.87314285714285,23.461674887135814L224.03542857142855,23.764653503558776L224.52228571428572,24.315587357395486L224.7657142857143,27.42139729225201L224.84685714285715,24.520729777294406L225.09028571428573,27.46056664964712L225.17142857142855,26.68464558279115L225.41485714285713,64.41098173388555L225.6582857142857,27.872149329153785L225.73942857142856,24.01263761442945L225.90171428571426,622.9489808080527L226.30742857142857,52.411774358399626L226.38857142857142,24.52435086587988L226.632,23.5237454385165L226.71314285714286,26.992828831847987L226.79428571428573,28.486069995891512L227.03771428571426,24.595123618784527L227.20000000000002,24.15793005000029L227.36228571428572,68.83172727301255L227.44342857142857,26.154334512228814L227.60571428571427,26.19190881581062L227.93028571428573,26.731619137792904L228.01142857142855,27.152727852343787L228.336,26.236260786337L228.57942857142856,71.60556214151273L228.98514285714285,72.53890087823889L229.14742857142858,27.672682980278722L229.30971428571428,69.06775860746252L229.472,621.0804978393639L229.95885714285714,51.14341646974569L230.12114285714284,27.24042117309267L230.36457142857142,25.371286817064487L230.85142857142856,24.9515253099824L231.25714285714287,600.4647956303297L231.66285714285715,48.76184824633668L231.90628571428573,25.879599009626673L232.14971428571428,67.79804390304464L232.31199999999998,27.040932799626773L232.71771428571427,24.922020491894386L232.96114285714285,70.68354632223428L233.52914285714286,27.099102051025255L233.61028571428574,25.682298497154022L234.66514285714285,26.992377521974078L234.82742857142856,611.3669681046049L235.152,52.34785716358415L235.39542857142857,28.59720962892908L235.8822857142857,27.090156195731595L236.12571428571428,63.11383109927546L236.61257142857144,627.8000594947683L236.77485714285714,52.35645732191058L236.856,72.5020299077683L236.93714285714287,25.275268244431203L237.0182857142857,27.478112581971544L237.42399999999998,28.19917267074709L237.5862857142857,72.2368063577524L237.91085714285714,27.010385198554644L238.31657142857145,26.759526763444313L238.7222857142857,26.71268682002156L238.80342857142858,65.4368986634424L238.88457142857143,26.38399573038913L238.96571428571428,25.84428358063741L239.20914285714287,24.59484356453811L239.2902857142857,67.19918784835578L239.45257142857145,26.900277645845904L239.61485714285715,25.169443909995977L239.8582857142857,23.331982255318877L240.02057142857143,66.44155201615419L240.75085714285714,70.7605420339818L240.9942857142857,28.818241598981615L241.15657142857143,26.3201327165076L241.23771428571428,71.63466848863919L241.5622857142857,27.130963682715645L241.8057142857143,25.629181874035595L241.968,643.9438893950341L242.1302857142857,53.50090948685671L242.536,25.652711349530904L242.61714285714285,26.3908478058961L243.42857142857142,22.387622467021856L243.91542857142858,66.51290638944535L244.07771428571428,25.062611001766925L244.15885714285716,25.372310881314206L244.24,27.116603226181724L244.6457142857143,24.55566321063276L245.376,25.838724610278064L245.5382857142857,647.5284568122845L245.61942857142859,54.05342340535124L246.10628571428572,28.328666174952218L246.18742857142857,26.876566317710484L246.3497142857143,61.95938088955141L246.43085714285712,33.23140412253363L246.59314285714288,24.29065078597685L246.83657142857143,69.05618915719916L246.91771428571428,30.068027129961592L246.99885714285713,25.641022205384814L247.2422857142857,66.00988618714626L247.40457142857142,25.714586461012857L247.4857142857143,24.426219599189352L247.72914285714288,25.25429122003402L247.8102857142857,24.617230939511728L247.89142857142858,25.675541049328217L248.05371428571428,27.443157718538856L248.5405714285714,24.271986204907847L249.10857142857142,623.6054688469187L249.352,53.14759282633423L249.6765714285714,29.443105600128632L249.92,25.664716416637646L250.08228571428572,24.5011232375565L250.16342857142857,22.020909067151877L250.3257142857143,24.641425094943685L250.6502857142857,26.068126035930504L250.81257142857143,24.8950842835589L251.13714285714283,70.98919816497833L251.2182857142857,26.695884091627875L251.4617142857143,64.52749701721852L251.624,26.45476423340301L252.0297142857143,26.335111285945857L252.192,26.501006512513584L252.27314285714283,24.832234546631838L252.76,25.208943752107842L252.84114285714284,25.869849423980867L253.1657142857143,68.94028485023276L253.24685714285712,27.742908292333368L253.81485714285714,25.797341379948676L254.54514285714285,26.1045975647271L255.2754285714286,24.271626894985076L255.4377142857143,24.901752748599364L255.84342857142857,59.38120264770474L255.92457142857143,24.156455013202844L256.168,28.126414073182275L256.81714285714287,25.799918030726587L256.97942857142857,25.698680087489095L257.1417142857143,26.255029117073036L258.3588571428571,25.00957313396063L258.44,25.332069944304493L258.92685714285716,26.163830721826173L259.08914285714286,25.925917190086693L259.49485714285714,70.02517988391709L259.7382857142857,28.744129555486637L259.9817142857143,25.55870548826954L260.2251428571428,62.21255448968911L260.3874285714286,28.014882677830798L260.63085714285717,25.62174838695114L260.712,66.39231096557577L261.03657142857145,26.130056650551182L261.28000000000003,27.2143199263586L261.44228571428573,66.6754134461266L261.52342857142855,30.857447421053564L261.60457142857143,643.8661082774088L261.76685714285713,326.94084352390763L261.848,80.86722452753102L261.92914285714284,30.43601646443736L262.1725714285714,68.66301294750058L262.3348571428571,27.393053406313356L262.416,29.244468597323817L262.5782857142857,27.713292048622066L262.8217142857143,30.42027023258248L263.06514285714286,72.95436986828027L263.22742857142856,632.226502011576L263.38971428571426,101.14018787902948L263.552,31.60737821573059L263.63314285714284,29.165679204366057L264.0388571428571,27.108108907056675L264.688,25.589003784170018L265.41828571428573,25.520644053640268L265.49942857142855,23.72373780736183L265.66171428571425,27.80756231392516L265.90514285714283,29.075577522710887L266.1485714285714,31.491834908326553L266.392,31.9298839241726L266.5542857142857,73.85840605571424L266.7977142857143,616.0596707035888L266.96,52.184228694516975L267.04114285714286,27.448318128836206L267.36571428571426,26.650126342403354L267.77142857142854,25.58422713767851L268.0148571428571,85.36207018152139L268.096,30.165034640664715L268.3394285714286,29.183390966750835L268.58285714285716,610.0702825906135L268.82628571428575,53.82684875738806L269.06971428571427,26.52003441915906L269.39428571428573,24.03455359918712L269.8,26.294425786198246L269.88114285714283,26.650160799524627L270.2057142857143,25.96176349071976L270.4491428571429,26.579057342791515L270.69257142857145,26.20353685606102L270.7737142857143,23.9687833936421L271.09828571428574,24.468849579602647L271.34171428571426,27.069614440037356L271.42285714285714,26.783925878462014L271.50399999999996,26.01787141003058L271.8285714285714,26.47694331185727L271.9908571428571,30.25467015167041" style="fill: none;" fill="none"></path></g></g></g></g><g opacity="0.2"><g><g><g><path stroke="rgb(255, 112, 67)" stroke-width="2px" d="M40.97714285714286,28.866150651659353L41.13942857142857,66.47637666974752L41.38285714285714,24.37997981480197L41.70742857142857,27.43496479306907L42.11314285714286,24.893313748495956L42.27542857142857,27.14951133728033L42.437714285714286,24.25398240770616L42.68114285714285,26.7015875407628L42.924571428571426,26.83466853414268L43.08685714285714,74.34609031677248L43.817142857142855,24.310048239571756L44.06057142857143,27.688466753278533L44.14171428571428,26.945745195661345L44.46628571428572,28.81249625342238L44.872,25.797902788434783L45.03428571428571,72.57760517937797L45.11542857142857,25.380875485284037L45.27771428571428,25.897525140217425L45.35885714285715,28.352364574159964L45.521142857142856,63.329606498990756L46.413714285714285,25.587957348142425L47.306285714285714,25.350129706519027L47.38742857142857,24.524213688714212L47.46857142857143,71.46020712171283L47.79314285714286,24.45820069313055L48.03657142857143,27.24461225100933L48.117714285714285,27.71438966478624L48.44228571428572,25.986145326069476L48.68571428571428,23.537937334605687L48.92914285714286,64.81866676466807L49.25371428571429,23.601991040366073L49.33485714285714,713.3274718012124L49.416,27.53368285724102L49.49714285714286,29.331557341984393L49.983999999999995,26.632560253143367L50.14628571428572,69.39014206613814L50.95771428571429,28.420336859566873L51.20114285714286,27.330067430223806L51.44457142857143,25.03724619320468L51.52571428571429,29.112719740186492L51.687999999999995,30.366062368665467L52.09371428571429,68.55503245762418L52.256,26.73896476200656L53.63542857142857,27.945435149329086L53.71657142857143,25.822167839322844L53.797714285714285,88.63760243143355L54.203428571428574,71.29773678098407L54.528,69.18773235593524L54.85257142857143,26.11530773980283L54.93371428571428,69.84499873433795L55.42057142857143,25.943643808364925L55.664,25.29542030606956L55.74514285714286,69.0249605860029L55.82628571428571,31.233424901962337L55.98857142857143,25.974992445537083L56.394285714285715,23.528291600091194L56.475428571428566,658.9366820199144L56.96228571428571,69.99857691356115L57.04342857142857,26.299631697791L57.53028571428571,25.330536808286467L57.773714285714284,28.14272056307115L58.179428571428566,71.82885503768922L58.504,27.481234175818344L58.58514285714286,26.15132852963046L58.82857142857143,26.078985520771624L58.90971428571429,70.19541018349786L59.15314285714286,27.61808303424297L59.31542857142857,79.86902689933777L59.802285714285716,26.24688158716478L59.88342857142857,31.640052897589584L59.964571428571425,25.5822301932744L60.04571428571429,680.8309922218317L60.370285714285714,26.319375310625418L60.61371428571429,24.91561950956077L60.775999999999996,27.365485361644232L61.83085714285715,649.4262892178122L61.99314285714286,26.495560680116995L62.15542857142857,25.947110244206073L62.966857142857144,27.111681972231253L63.048,25.37620333262859L63.21028571428571,26.109128441129485L63.291428571428575,71.87286370141166L63.453714285714284,27.2863601957049L63.53485714285715,25.11682350294936L64.02171428571428,72.32530893598285L64.10285714285713,28.661178793226043L64.67085714285714,25.754949126924856L64.83314285714286,27.481535605021918L64.99542857142858,27.474904162543197L65.07657142857143,27.73594185284213L65.23885714285714,69.55005025863649L65.888,27.611753020967825L66.0502857142857,28.165629182543142L66.13142857142857,28.011297430311004L66.21257142857144,26.797140598297176L66.61828571428572,26.26963949203497L67.34857142857143,26.513043573924534L67.51085714285715,26.888624361583197L67.592,27.67776601655146L67.83542857142857,24.538531575884207L67.91657142857143,26.754639080592625L68.16,30.580981390816873L68.24114285714286,26.977998120444198L68.32228571428571,27.114696264267025L68.40342857142858,70.15125080517362L68.64685714285714,25.02533973966331L68.728,31.53590910775324L68.89028571428571,74.20306215967452L68.97142857142858,605.7410590308049L69.13371428571429,68.61456472533091L69.62057142857142,73.42673124585833L69.70171428571429,28.645203045436347L69.864,23.537183761596737L69.94514285714286,26.039498295102874L70.10742857142857,25.36866760253912L70.26971428571429,29.03269028663641L70.432,25.259248801640155L70.51314285714285,26.02668755395078L70.59428571428572,26.693147523062606L70.67542857142857,28.733220372881277L70.83771428571428,26.00332679067344L71.16228571428572,24.314569677625457L71.48685714285715,26.259843042918675L71.568,74.02898679460799L71.73028571428571,28.298258032117644L71.81142857142856,27.31499597004489L71.89257142857143,25.06422410692491L71.9737142857143,27.243707963398577L72.05485714285714,64.97978067398073L72.94742857142856,24.075084175382415L73.19085714285714,77.44176823752268L73.272,26.21704009601055L73.35314285714286,25.57077588353843L73.51542857142857,66.01986214092801L73.59657142857142,28.455453361783782L73.92114285714285,25.68923756054477L74.08342857142857,30.16139193943573L74.408,25.72872478621352L74.65142857142857,28.348445994513412L75.13828571428571,29.746776069913665L75.21942857142857,76.11382188115802L75.30057142857143,25.404085533959574L75.54400000000001,25.603330237524887L75.70628571428571,28.125388383865413L75.86857142857143,26.605280910219534L75.94971428571428,68.1722173690796L76.27428571428571,28.831184864044246L76.43657142857143,31.67622440201899L76.68,69.24078389576505L76.76114285714286,26.773629120418065L76.92342857142857,26.199707916804783L77.00457142857142,25.178013631275775L77.41028571428572,26.16067283494138L77.65371428571429,24.21012445858554L77.73485714285714,24.016305480684622L78.05942857142857,26.465267045157333L78.46514285714287,28.090874740055682L78.54628571428572,23.778779268264827L78.62742857142857,24.744257007326468L78.95200000000001,28.24972793034152L79.03314285714286,29.169991288866385L79.11428571428571,64.27956063406809L79.43885714285713,26.75584479740695L79.52000000000001,25.16294217109686L79.76342857142858,24.930690969739715L79.92571428571428,26.4425091402872L80.25028571428572,25.405592679977474L80.33142857142857,70.13859077862332L80.73714285714286,69.28162755284991L80.98057142857142,26.534445047378597L81.22399999999999,25.579969474247576L81.30514285714287,26.852151427950247L81.54857142857144,28.028780324118514L81.62971428571429,27.554782901491507L81.79199999999999,26.291191680090805L82.03542857142857,27.57844509397239L82.27885714285713,69.80596365247455L82.36,24.521651540483816L82.44114285714285,25.20634797641216L82.68457142857143,30.358526638575995L82.76571428571428,72.78950990949359L82.928,26.95629521778659L83.09028571428573,26.352532523019022L83.17142857142858,78.90927631514414L83.25257142857143,622.013714585985L83.33371428571428,27.770003352846487L83.73942857142858,24.472367865698715L83.82057142857143,26.795633452279276L84.064,31.319633654185736L84.22628571428572,66.27366553034102L84.46971428571429,26.66632032394415L84.63199999999999,24.45307639666973L84.79428571428572,23.367780549185653L85.2,28.303533043180266L85.28114285714285,25.953138828277645L85.3622857142857,25.131442819322928L85.44342857142858,63.79712319374086L85.52457142857143,24.48231502941684L85.60571428571428,24.668447562626483L86.336,68.96633260590691L86.41714285714285,23.666346175330062L86.66057142857143,69.02300129617964L87.06628571428571,68.25224682262967L87.22857142857143,29.91467213630682L87.472,26.491189956665096L87.55314285714286,23.108099290302874L87.71542857142856,24.826848609106918L87.79657142857144,23.78119070189345L88.28342857142856,87.34522472109113L88.44571428571429,26.680186067308767L88.7702857142857,25.992173910141048L89.176,26.62185951641635L89.58171428571428,28.237972191401923L89.82514285714285,71.1327042920249L89.98742857142857,25.504461458751194L90.312,63.923120600836654L90.55542857142856,68.21441745758058L90.63657142857141,26.156452826091282L91.20457142857143,31.007051570074935L91.61028571428571,25.38841121537351L91.69142857142857,26.149821383612533L92.42171428571429,26.310483149119847L92.90857142857142,28.018531731196845L92.98971428571429,70.70829197338651L93.39542857142857,25.637843881334646L93.80114285714286,30.87924558775771L93.88228571428571,73.0434640135084L94.04457142857143,25.983884607042654L94.20685714285715,72.11611706869944L94.28800000000001,30.365308795656546L94.53142857142856,25.436187744140682L94.61257142857143,74.4140626021794L94.77485714285714,24.268752438681503L94.93714285714286,67.65044341768538L95.09942857142858,25.730081217629618L95.18057142857143,27.805421284266913L95.82971428571427,30.39997315406805L96.07314285714286,28.40616968699871L96.23542857142857,28.967280149459896L96.31657142857142,26.566697972161478L96.64114285714287,70.06082204410009L96.72228571428572,26.317114591598568L96.80342857142857,25.640556744166844L97.12800000000001,24.321502549307723L97.20914285714287,26.733991180147513L97.53371428571428,641.4088752610338L97.85828571428571,25.077788421085955L97.93942857142858,27.692837476730404L98.10171428571428,71.40971773011344L98.66971428571428,25.819756405694193L98.91314285714286,26.12329561369765L99.23771428571429,25.846131461007303L99.39999999999999,28.29494231087824L99.48114285714287,29.872622762407644L99.56228571428572,27.028487512043597L99.64342857142857,28.899910722460135L99.72457142857142,25.825634275163992L100.29257142857143,26.35750610487807L100.536,68.49972019876753L100.77942857142858,24.579525947570858L100.94171428571428,26.92916658946453L101.104,647.106339352471L101.18514285714285,24.73566627502447L101.672,27.809339863913436L101.91542857142858,26.611008065087503L102.07771428571428,25.551182985305843L102.24,25.884262255259983L102.40228571428572,29.42078038624362L102.56457142857143,26.047486168997665L102.97028571428571,26.979053122656723L103.05142857142857,25.037999766213602L103.21371428571429,24.492262193134906L103.37599999999999,69.36331486701967L103.78171428571429,26.717412573950668L104.18742857142858,62.028788770948154L104.75542857142858,29.70020525796076L104.83657142857143,26.79096129962383L105.08,27.5110756669726L105.4857142857143,24.906727348055227L105.56685714285715,31.417899574552308L106.37828571428571,26.343188217708104L106.45942857142856,672.2770342826838L106.784,30.0851303509304L106.86514285714286,68.09429791995458L107.18971428571429,29.426808970315165L107.352,81.05801439285278L107.75771428571429,67.25481758798873L107.83885714285715,26.1240491867066L107.92,26.93444160052715L108.00114285714285,28.158394881657244L108.16342857142857,27.030597516468646L108.3257142857143,26.959460224424163L108.488,70.02932269232615L108.56914285714285,23.700407675334446L108.97485714285715,26.37287899426059L109.38057142857143,27.815217733383236L109.62400000000001,26.112745591572406L109.70514285714286,74.17201495170595L110.11085714285714,24.15089362008237L110.19200000000001,30.052726711545716L110.35428571428571,24.54229944092893L110.51657142857142,71.73013697351729L110.92228571428572,74.02099892071317L111.00342857142857,29.374058859688944L111.08457142857142,27.86088425772536L111.24685714285715,82.69959783554077L111.40914285714285,25.415991987500945L111.57142857142857,26.873251472200735L111.81485714285715,646.5349802970882L111.896,31.487379005977118L112.38285714285715,31.714053767068094L112.464,146.4836751733507L112.62628571428571,26.890583651406473L112.78857142857143,25.356158290590628L113.03200000000001,26.068586213248153L113.68114285714286,25.983733892440853L113.76228571428571,25.59549307823187L113.84342857142857,30.144210474831766L113.92457142857143,23.903269529342708L114.08685714285714,80.06329802104406L114.81714285714287,26.54921507835394L114.89828571428572,74.66409812654769L115.14171428571429,25.34078540120811L115.46628571428572,25.07025269099651L115.62857142857143,71.15094075884139L116.11542857142857,25.45728778839117L116.19657142857143,26.53761005401617L116.27771428571428,27.59246155193881L116.35885714285713,72.33676324571883L116.52114285714286,29.07067036628729L116.68342857142858,26.237235852650286L117.008,26.677925348281917L117.17028571428573,694.4320807456965L117.41371428571428,26.904901538576468L117.576,71.51943796021598L118.22514285714286,26.763832671301742L118.79314285714285,71.3155211039952L119.03657142857143,27.534135001046366L119.19885714285714,66.49190027373179L119.44228571428572,29.10292329107017L119.76685714285713,25.487882852554378L119.92914285714285,29.985055855342353L120.01028571428571,70.15260723658972L120.17257142857143,27.417783328465106L120.416,79.75629237719946L120.57828571428571,25.44116132599973L121.06514285714285,27.68726103646418L121.14628571428571,30.45407969611037L121.47085714285714,24.641771078109798L122.12,25.41629341670452L122.20114285714286,25.45517778396612L122.2822857142857,26.485161372593524L122.36342857142859,25.864518642425594L122.688,66.61262266976495L122.76914285714285,27.270384447915262L122.8502857142857,24.71652552059726L123.6617142857143,26.791262728827377L123.90514285714285,81.84986891065326L123.98628571428571,26.546803644725316L124.47314285714286,28.12795053209581L124.55428571428571,25.322096790586272L124.79771428571429,67.5622753756387L124.87885714285714,29.319198744637674L125.12228571428571,72.0609555244446L125.20342857142856,27.18824498994013L125.36571428571429,25.445230620248026L125.528,26.13490063803542L125.60914285714286,67.47365518978665L126.01485714285715,65.40871443067282L126.17714285714285,29.26192719595778L126.2582857142857,26.168359279632625L126.33942857142857,65.6849742957524L126.42057142857142,25.859243631362972L126.58285714285715,25.79172348976141L126.74514285714285,68.708158493042L126.90742857142857,27.956588029861507L126.98857142857142,26.3962397575379L127.0697142857143,66.85542389324735L127.15085714285715,29.4515261650086L127.6377142857143,25.104917049408016L127.71885714285715,26.55961438587741L127.8,27.07777118682867L127.96228571428571,26.442810569490774L128.77371428571428,69.05404850414823L128.936,27.757946184703314L129.01714285714286,24.23062164442885L129.17942857142856,68.97236118997847L129.66628571428572,615.4644115652352L129.90971428571427,72.85416647366117L130.2342857142857,71.29080390930177L130.64000000000001,31.201925550188406L130.72114285714287,70.07951065472196L131.12685714285715,76.094530412129L131.208,27.338808877127548L131.28914285714285,25.244780199868387L131.53257142857143,26.391718319484227L131.69485714285713,26.25366374424533L132.344,65.1140673841749L132.50628571428572,28.550102131707376L132.66857142857143,147.52013948985504L132.912,26.212217228753275L133.15542857142856,69.10212646211897L133.3177142857143,28.456508363996306L133.48,23.829419374466L133.72342857142857,25.499337162290374L133.88571428571427,68.97929406166078L134.12914285714285,25.046138354710223L134.21028571428573,25.393083368028982L134.37257142857143,25.946658100400725L134.45371428571428,25.311245339257425L134.53485714285713,25.33867539678306L134.85942857142857,26.058488334928313L135.184,25.8087542397636L135.50857142857143,75.21269927706038L135.58971428571428,25.652161768504612L135.75199999999998,28.279117277690375L135.9142857142857,30.749932459422553L136.07657142857144,26.111389160156307L136.1577142857143,26.900982958929916L136.56342857142857,26.7966884544918L136.72571428571428,71.60338599341257L136.80685714285715,612.9631520339417L137.61828571428572,31.577054194041693L137.78057142857142,67.33303846631735L138.10514285714285,28.255153656005916L138.18628571428573,27.788541248866522L138.26742857142858,67.83235594204496L138.42971428571428,27.41597475324363L138.51085714285713,26.379962580544657L138.91657142857144,23.69046051161635L139.07885714285715,24.090306350163104L139.3222857142857,23.23575455801833L139.80914285714286,24.955709593636698L140.05257142857144,28.716189622879085L140.21485714285714,65.65965424265181L140.78285714285715,30.9365171364376L141.10742857142856,26.351477520806498L141.2697142857143,26.766846963337542L141.432,67.70078209468298L141.51314285714287,26.521785020828304L141.59428571428572,26.333090339388235L141.91885714285715,25.160681452070037L142,28.21370714051386L142.08114285714288,28.91648932865695L142.1622857142857,699.5327150140484L142.48685714285713,27.058479717799628L142.568,27.67580672672824L142.7302857142857,23.675539766039236L142.8114285714286,28.538497107369608L143.05485714285712,152.55476076262332L143.136,28.552061421530624L143.46057142857143,26.555545091629085L143.704,23.813142197472757L143.9474285714286,672.2777878556928L144.19085714285714,25.27356668881015L144.272,26.754488365990824L144.51542857142857,24.86151296751845L144.59657142857142,73.58347443171911L144.6777142857143,26.568054403577605L145.16457142857143,28.37331390380865L145.89485714285712,28.302779470171316L146.38171428571428,23.984203270503514L146.7874285714286,24.1864622661046L146.9497142857143,23.838763679776946L147.03085714285714,66.76333727155416L147.19314285714285,26.132338489805022L147.27428571428572,24.599872418812396L147.35542857142858,25.83708858489996L147.5177142857143,634.7005683353964L147.59885714285713,29.032087428229232L147.9234285714286,25.29406387465346L148.00457142857144,25.397001947675506L148.24800000000002,24.24222666876662L148.41028571428572,28.30082018034804L148.4914285714286,69.59556606837683L148.73485714285712,25.37394261360174L148.816,25.64161174637937L149.05942857142858,27.478973456791522L149.14057142857143,26.565040111541805L149.38400000000001,26.635273115975565L149.62742857142857,28.416719709123953L150.11428571428573,27.637374503271957L150.19542857142855,77.7067245074681L150.3577142857143,27.59231083733698L150.52,25.95992098535814L150.60114285714286,73.74715048926218L151.00685714285714,25.7178733348847L151.41257142857143,26.749364069530003L151.73714285714286,26.551927941186136L151.89942857142856,25.802876370293802L152.14285714285714,74.41556974819729L152.30514285714284,30.91149851254059L152.38628571428572,26.117116315024276L153.03542857142855,30.530642713819276L153.52228571428572,26.199105058397635L153.68457142857142,25.341689688818832L154.41485714285713,28.921764339719573L154.496,27.612506593976775L154.6582857142857,659.5506933076036L154.98285714285714,29.418067523411395L155.30742857142857,71.25809884071352L155.38857142857142,27.199548585074325L155.46971428571428,26.02442683492393L155.632,25.322398219789847L155.79428571428573,25.569871595927708L155.87542857142856,26.982971702303274L156.11885714285714,26.342434644699154L156.20000000000002,24.21163160460341L156.36228571428572,28.678209543228206L156.68685714285715,25.336263963154437L157.09257142857143,27.391257558550222L157.17371428571428,26.576042277472396L157.49828571428571,22.539754526955818L157.82285714285715,26.837230682373104L157.90400000000002,27.1599106448038L158.06628571428573,27.041599682399237L158.14742857142858,73.40743977682932L159.04000000000002,24.49467362676353L159.20228571428572,87.03686264583042L159.36457142857142,25.612825257437606L159.52685714285715,26.723139728818694L159.77028571428573,24.60379099845892L160.0137142857143,654.6384522914882L160.09485714285714,26.89992795671739L160.176,25.12511280604778L160.66285714285715,24.99022323744643L160.74399999999997,29.609324353081888L160.82514285714285,26.294356686728378L161.31199999999998,76.74546677725657L161.63657142857144,72.48627213069372L161.79885714285714,652.6532395567208L162.28571428571428,26.202270065035208L162.44799999999998,24.951941728591976L162.77257142857144,24.80815999848508L163.016,24.968068190983416L163.34057142857145,25.391877651214656L163.42171428571427,662.2822447504311L163.82742857142856,24.90115090778903L164.07085714285714,24.644483940941996L164.23314285714287,27.62381018911094L164.72,24.10100708689012L164.8822857142857,27.90790721348361L164.96342857142858,24.595953839165873L165.04457142857143,26.788549865995208L165.4502857142857,28.220037153789008L165.77485714285714,25.62488242558078L165.93714285714287,74.69529604911806L166.0182857142857,26.191569328308162L166.09942857142858,26.166098560605803L166.26171428571428,70.39510703086854L166.42399999999998,26.458937031882186L166.50514285714286,28.75974614279616L166.8297142857143,30.96635862759186L167.1542857142857,27.53368285724102L167.39771428571427,23.902968100139134L167.47885714285715,63.67414007868089L168.128,25.213130133492655L168.45257142857145,25.66225964682448L168.53371428571427,25.202881540571013L168.696,71.51340937614442L168.77714285714285,631.1259194101601L169.02057142857143,26.841149262019627L169.26399999999998,26.726907593863388L169.34514285714286,25.6732618127551L169.4262857142857,77.71848024640765L170.15657142857143,67.42241222517832L170.31885714285715,28.12433338165289L170.48114285714286,27.761111191340888L170.6434285714286,25.95057668004722L170.7245714285714,25.197757244110164L170.8057142857143,27.62154947008409L170.88685714285717,25.430611303874485L171.04914285714287,70.62796109063287L171.21142857142857,25.78599633489341L171.6982857142857,26.162481410162826L171.77942857142858,29.38400602340704L171.8605714285714,153.67547454152782L171.94171428571428,25.11395992551536L172.10399999999998,23.829720803669574L172.18514285714286,22.89348169735507L172.26628571428571,74.31398810659137L172.34742857142857,674.902934789657L172.42857142857142,24.38857054710394L172.59085714285715,67.40297004154752L172.672,23.15331367083965L172.8342857142857,25.437694890158554L173.07771428571428,28.012201717921698L173.15885714285716,23.234096697398655L173.5645714285714,25.6315138680595L173.6457142857143,26.064969062805233L173.88914285714287,24.44704781259813L173.9702857142857,23.365670544760604L174.05142857142857,24.255338839122288L174.21371428571427,27.540615728923285L174.376,23.575013126645842L174.45714285714286,25.201223679951312L174.7817142857143,25.09934060914182L175.10628571428572,26.394581896918197L175.18742857142857,23.934015308107718L175.59314285714288,25.95268668447227L175.6742857142857,26.05095260483884L176.16114285714286,83.10788369178772L176.3234285714286,24.10914567538677L176.40457142857142,26.257883753095427L176.648,27.588995116097635L176.72914285714288,26.2105593681336L176.97257142857143,70.4249485220228L177.3782857142857,72.66637607983182L177.5405714285714,22.368090595517913L177.70285714285714,610.5554862703591L177.784,26.55222937038974L178.10857142857142,23.831981522696395L178.6765714285714,24.67568186351238L179.24457142857142,24.161142213004013L180.13714285714283,66.90169327599664L180.2182857142857,24.620369604655735L180.2994285714286,26.906860828399715L180.38057142857141,24.46905214445937L180.4617142857143,21.558903898511687L181.27314285714283,634.6616839681349L181.5165714285714,25.50838003839769L181.67885714285714,30.628155061176898L181.76,103.01396686690192L181.84114285714284,26.146505662373187L181.92228571428572,22.91156744956976L182.00342857142857,25.644927467618743L182.08457142857142,144.20758325713018L182.1657142857143,25.472811392375462L182.24685714285712,24.922703095844867L182.4902857142857,24.867089407784647L182.65257142857143,25.42880272865301L182.73371428571429,27.05576685496746L183.3017142857143,66.2421661785671L183.54514285714285,25.05909981046409L183.62628571428573,25.661053930010183L183.70742857142858,69.17567518779211L183.78857142857143,24.359934772764007L183.95085714285713,25.823373556137142L184.11314285714283,25.78298204285764L184.1942857142857,28.642038038798773L184.51885714285714,76.34908737455096L184.6,25.30446318217693L184.68114285714285,26.40211762700767L184.76228571428572,25.48878714016513L185.0057142857143,25.814933538436946L185.168,26.005738224302092L185.3302857142857,23.69694123949327L185.41142857142856,25.738822664533416L185.5737142857143,23.852780137743338L185.73600000000002,60.68893596104215L185.81714285714284,26.18117002078472L186.1417142857143,68.91810393333436L186.304,26.810403483254618L186.38514285714285,22.745932102203426L186.7097142857143,26.780411277498587L186.872,92.04616386549813L187.03428571428572,25.051413365772845L187.52114285714285,25.01072042328977L187.68342857142855,69.34673626082285L187.76457142857143,24.97213748523174L187.92685714285713,25.754949126924856L188.08914285714286,64.29327566283091L188.1702857142857,25.768212011882298L188.4137142857143,641.882721969059L188.57600000000002,24.17787153380263L188.65714285714284,26.093152693339817L188.73828571428572,24.974398204258563L189.79314285714284,23.311111858912938L190.1177142857143,76.15843340328762L190.44228571428573,26.10053770882749L190.52342857142855,24.879297290529593L190.60457142857143,25.74259052957811L190.848,63.811290366309066L191.65942857142855,25.48803356715618L191.82171428571428,27.836468492235525L192.06514285714286,24.56807163783489L192.1462857142857,23.114881447383397L192.38971428571426,23.960842507226175L192.55200000000002,26.522538593837254L192.87657142857142,24.75540988785886L192.95771428571427,27.44084266253887L193.5257142857143,27.441144091742416L193.68800000000002,61.54273418017797L193.85028571428572,26.90294224875319L194.01257142857145,101.81488149506704L194.09371428571427,24.97997464452476L194.17485714285715,26.3041531358447L194.49942857142855,29.132011209215506L194.90514285714286,23.22324524606981L194.9862857142857,25.887276547295755L195.14857142857144,26.24914230619163L195.31085714285715,25.90144371986395L195.55428571428573,633.9230317047659L195.71657142857143,29.82755909647264L195.79771428571428,26.663758175713724L196.04114285714286,25.563692297254363L196.28457142857144,24.917578799384017L196.528,26.09978413581854L196.60914285714284,26.51349571772991L196.93371428571427,25.873561518532938L197.58285714285714,69.80581293787276L197.74514285714287,25.146363564900042L197.90742857142857,69.64575403077264L198.15085714285715,24.65729468209409L198.232,22.622798272541644L198.31314285714285,22.93507892744887L198.39428571428573,68.73905498640879L198.47542857142858,26.42834196771898L198.96228571428574,25.32405608040952L199.61142857142858,72.65838820593699L199.93599999999998,25.722545487540145L200.09828571428574,24.849907943180682L200.6662857142857,24.49030290331163L201.15314285714285,27.900220768792337L201.39657142857143,25.36128258705145L201.55885714285716,72.01453542709352L201.88342857142857,23.83017294747495L202.04571428571427,25.86934150968284L202.45142857142858,26.08908339909152L202.53257142857143,24.28924962452487L202.61371428571428,22.99852977480211L203.42514285714287,23.387976305825447L203.58742857142857,24.919688803809066L203.66857142857145,24.91486593655185L203.83085714285716,23.944866759436508L204.3177142857143,22.30870904241297L204.39885714285714,66.79348019191198L204.48,659.0338929380684L205.77828571428572,24.0527784143176L206.0217142857143,28.99968378884455L206.26514285714288,661.3339484759733L206.3462857142857,25.814782823835174L206.99542857142856,24.73415912900657L207.1577142857143,71.50150292260307L207.40114285714287,23.67147047179091L207.4822857142857,24.38480268205919L207.64457142857142,25.13897854941237L208.0502857142857,642.2913092545095L208.456,23.13854363986431L208.78057142857142,26.423971244267108L209.024,30.009320906230414L209.1862857142857,28.207678556442318L209.42971428571428,25.912144456590994L209.67314285714286,23.150600808007454L209.9977142857143,23.380591290337776L210.3222857142857,72.28461599349977L210.56571428571428,22.547290257045262L210.64685714285713,25.830758571624813L210.728,67.85722385134017L211.53942857142857,71.52019153322493L211.78285714285713,67.78171583584378L212.0262857142857,28.995614494596282L212.10742857142858,24.470860719680843L212.432,23.71382127489366L213,152.11844199044359L213.1622857142857,23.81917078154433L213.40571428571428,673.5986506257734L213.64914285714286,23.6895562240056L213.7302857142857,24.710195507322112L213.9737142857143,25.704911879130833L214.21714285714287,69.60732180731638L214.46057142857143,24.62443889890403L214.704,69.21787527629309L214.8662857142857,28.298408746719417L214.9474285714286,27.213263613837142L215.0285714285714,25.18509721755987L215.19085714285714,673.7499680859697L215.84,71.12079783848355L215.92114285714285,25.684716122491068L216.0022857142857,24.232430219650325L216.08342857142858,25.46527566228599L216.48914285714284,22.600793940680404L216.57028571428572,26.50972785268516L216.6514285714286,67.52911816324507L216.8137142857143,23.416159936360003L216.976,681.1893915448866L217.05714285714285,25.166107177734432L217.1382857142857,25.047645500728123L217.21942857142858,27.133686304092464L217.30057142857143,25.940780230930926L217.38171428571428,65.0623722757612L217.62514285714283,23.900707381112284L217.7874285714286,24.347877604620834L217.9497142857143,24.737625564847747L218.43657142857143,30.4438311031887L218.5177142857143,23.265294619969012L218.68,23.790535007204397L218.76114285714286,648.6375997066493L218.8422857142857,27.214318616049667L218.9234285714286,24.346671887806536L219.00457142857144,73.27089234760831L219.32914285714284,69.68735126086645L219.73485714285712,30.556414910725238L219.816,70.50829369681223L220.30285714285714,25.462110655648416L220.46514285714284,24.98962037903928L220.70857142857142,27.192917142595633L220.952,23.774107115609354L221.03314285714285,66.10064516748702L221.3577142857143,25.84507645879478L221.6822857142857,24.235293797084324L222.41257142857143,25.33942896979201L222.98057142857144,71.25387883186342L223.14285714285714,26.49073781285972L223.30514285714284,26.210257938930027L223.6297142857143,24.992031812667904L223.87314285714285,23.386770589011093L224.03542857142855,23.77892998286663L224.52228571428572,24.341547591345687L224.7657142857143,27.567744357245346L224.84685714285715,24.384049109050267L225.09028571428573,27.599092994417532L225.17142857142855,26.64808385712766L225.41485714285713,66.18866249493192L225.6582857142857,26.15042424201971L225.73942857142856,23.830775805882098L225.90171428571426,651.1711121627256L226.30742857142857,25.527822222028533L226.38857142857142,23.21028379031597L226.632,23.476596491677498L226.71314285714286,27.156293494360824L226.79428571428573,28.556432144982523L227.03771428571426,24.411780595779476L227.20000000000002,24.137329305921355L227.36228571428572,70.93677530969893L227.44342857142857,24.1433578899929L227.60571428571427,26.19367933273321L227.93028571428573,26.75705051422125L228.01142857142855,27.172570671354094L228.336,26.193076474326034L228.57942857142856,73.74338262421745L228.98514285714285,72.58288019044059L229.14742857142858,25.558568000793514L229.30971428571428,71.0183119092669L229.472,647.0915693214956L229.95885714285714,24.287742478506942L230.12114285714284,26.114102022988504L230.36457142857142,25.283212423324642L230.85142857142856,24.93174597195224L231.25714285714287,627.5832219805031L231.66285714285715,22.765374285834213L231.90628571428573,24.80137784140456L232.14971428571428,69.77325858388629L232.31199999999998,25.120440653392308L232.71771428571427,24.822176456451473L232.96114285714285,72.83984858649119L233.52914285714286,25.045384781701273L233.61028571428574,25.615538120269832L234.66514285714285,27.054108994347757L234.82742857142856,638.9029435770847L235.152,26.006642511912816L235.39542857142857,27.47806916918077L235.8822857142857,27.01914320673265L236.12571428571428,64.8112817491804L236.61257142857144,654.408311094556L236.77485714285714,25.24131376402724L236.856,73.45129772594998L236.93714285714287,23.04992345401226L237.0182857142857,27.581911529813567L237.42399999999998,28.233149324144705L237.5862857142857,74.31187810216632L237.91085714285714,24.879297290529593L238.31657142857145,26.74770620891033L238.7222857142857,26.7104797022684L238.80342857142858,67.26159974506925L238.88457142857143,24.54380658694683L238.96571428571428,25.81885211808347L239.20914285714287,24.535969427653782L239.2902857142857,69.20672239576068L239.45257142857145,25.00137611797885L239.61485714285715,25.087886299405852L239.8582857142857,23.24540029253282L240.02057142857143,68.47289299964906L240.75085714285714,70.96405465262278L240.9942857142857,26.84190283502855L241.15657142857143,26.20242077963698L241.23771428571428,73.76990839413236L241.5622857142857,25.033930471965306L241.8057142857143,25.55841728619174L241.968,673.079137393406L242.1302857142857,25.6789889676231L242.536,24.340492589133163L242.61714285714285,26.42562910488681L243.42857142857142,22.198988812310432L243.91542857142858,68.59210824966432L244.07771428571428,23.109455721719L244.15885714285716,25.38690406935561L244.24,27.198795012065375L244.6457142857143,24.434990644455013L245.376,25.899183000837127L245.5382857142857,676.822737387248L245.61942857142859,26.088631255286117L246.10628571428572,27.11650483948847L246.18742857142857,26.808142764227767L246.3497142857143,63.61249780654909L246.43085714285712,31.87772982461115L246.59314285714288,23.869358743940154L246.83657142857143,71.16556007521494L246.91771428571428,28.230888605117855L246.99885714285713,25.43241987909593L247.2422857142857,67.91208396639144L247.40457142857142,23.815855060304983L247.4857142857143,24.365511213030203L247.72914285714288,25.29331030164451L247.8102857142857,24.587212392262103L247.89142857142858,25.725409064974173L248.05371428571428,27.52644855635512L248.5405714285714,24.122559274946013L249.10857142857142,651.8463135787413L249.352,26.267378773008147L249.6765714285714,28.326140233448626L249.92,25.48667713574008L250.08228571428572,24.446294239589207L250.16342857142857,21.904040336608944L250.3257142857143,24.76490490777158L250.6502857142857,26.135352781840794L250.81257142857143,24.839810064860814L251.13714285714283,73.16117211750577L251.2182857142857,24.608764580317967L251.4617142857143,66.31013846397401L251.624,24.660761117935238L252.0297142857143,26.329473188945286L252.192,26.508823565074437L252.27314285714283,24.753601312637386L252.76,25.22669444765367L252.84114285714284,25.900991576058573L253.1657142857143,70.96978180749078L253.24685714285712,25.801670653479476L253.81485714285714,25.705665452139755L254.54514285714285,26.119075604847552L255.2754285714286,24.1852565492903L255.4377142857143,24.931444542748636L255.84342857142857,61.00588876860486L255.92457142857143,22.49665015084409L256.168,28.313480206898333L256.81714285714287,25.690292562757293L256.97942857142857,25.693909713200213L257.1417142857143,26.281244516372738L258.3588571428571,24.95088672637945L258.44,25.347266129085057L258.92685714285716,26.203023638044158L259.08914285714286,25.91470660482139L259.49485714285714,72.10315561294557L259.7382857142857,26.79894917351865L259.9817142857143,25.408606972013274L260.2251428571428,63.93969920703344L260.3874285714286,26.403474058423797L260.63085714285717,25.508982896804866L260.712,68.31343695095609L261.03657142857145,24.232882363455673L261.28000000000003,27.265410866056243L261.44228571428573,68.53483670098443L261.52342857142855,29.16968985966281L261.60457142857143,672.7513331345144L261.76685714285713,312.00719230515597L261.848,69.27213253293719L261.92914285714284,28.059676817485297L262.1725714285714,70.46428503308978L262.3348571428571,25.4483956268856L262.416,29.331708056586166L262.5782857142857,27.641142368316707L262.8217142857143,30.54782417842327L263.06514285714286,74.95859445844378L263.22742857142856,658.5796391282759L263.38971428571426,76.11517831257412L263.552,28.3309631007059L263.63314285714284,29.050625324249324L264.0388571428571,27.01115533283786L264.688,25.51742291450506L265.41828571428573,25.51742291450506L265.49942857142855,23.639066832406257L265.66171428571425,27.99999383517681L265.90514285714283,29.135326930454852L266.1485714285714,31.605689968381654L266.392,31.950524977275336L266.5542857142857,75.83409558023726L266.7977142857143,641.6084213938027L266.96,25.614181688853733L267.04114285714286,26.28275166239061L267.36571428571426,26.612515211105404L267.77142857142854,25.534001520701878L268.0148571428571,88.17882718358722L268.096,27.564127206802425L268.3394285714286,29.137135505676326L268.58285714285716,637.4419162273402L268.82628571428575,27.61642517362327L269.06971428571427,25.23332589013242L269.39428571428573,23.917436701910873L269.8,26.400911910193344L269.88114285714283,26.666923182351297L270.2057142857143,25.92932592119493L270.4491428571429,26.608144487653533L270.69257142857145,26.185842173440165L270.7737142857143,23.863480874470355L271.09828571428574,24.49241290773668L271.34171428571426,27.192163569586654L271.42285714285714,26.77046411378049L271.50399999999996,25.981774602617605L271.8285714285714,26.498574972152767L271.9908571428571,30.432678222656307" style="fill: none;" fill="none"></path></g></g></g></g></g></g><g transform="translate(46, 177)" clip-path="url(#clip_1)"><clipPath id="clip_1"><rect width="284" height="23"></rect></clipPath><g><g><line x1="0" y1="0" x2="0" y2="5" style="visibility: inherit;" fill="rgb(0, 0, 0)" stroke="rgb(204, 204, 204)" stroke-width="1px"></line><line x1="40.57142857142857" y1="0" x2="40.57142857142857" y2="5" style="visibility: inherit;" fill="rgb(0, 0, 0)" stroke="rgb(204, 204, 204)" stroke-width="1px"></line><line x1="81.14285714285714" y1="0" x2="81.14285714285714" y2="5" style="visibility: inherit;" fill="rgb(0, 0, 0)" stroke="rgb(204, 204, 204)" stroke-width="1px"></line><line x1="121.71428571428571" y1="0" x2="121.71428571428571" y2="5" style="visibility: inherit;" fill="rgb(0, 0, 0)" stroke="rgb(204, 204, 204)" stroke-width="1px"></line><line x1="162.28571428571428" y1="0" x2="162.28571428571428" y2="5" style="visibility: inherit;" fill="rgb(0, 0, 0)" stroke="rgb(204, 204, 204)" stroke-width="1px"></line><line x1="202.85714285714286" y1="0" x2="202.85714285714286" y2="5" style="visibility: inherit;" fill="rgb(0, 0, 0)" stroke="rgb(204, 204, 204)" stroke-width="1px"></line><line x1="243.42857142857142" y1="0" x2="243.42857142857142" y2="5" style="visibility: inherit;" fill="rgb(0, 0, 0)" stroke="rgb(204, 204, 204)" stroke-width="1px"></line><line x1="284" y1="0" x2="284" y2="5" style="visibility: inherit;" fill="rgb(0, 0, 0)" stroke="rgb(204, 204, 204)" stroke-width="1px"></line></g><g transform="translate(0, 8)"><text x="0" y="0" dx="0em" dy="0.95em" style="text-anchor: middle; visibility: hidden; font-family: &quot;Helvetica Neue&quot;, sans-serif; font-size: 12px; font-weight: 200;" fill="rgb(50, 49, 63)" stroke="none" stroke-width="1px">-50k</text><text x="40.57142857142857" y="0" dx="0em" dy="0.95em" style="text-anchor: middle; visibility: inherit; font-family: &quot;Helvetica Neue&quot;, sans-serif; font-size: 12px; font-weight: 200;" fill="rgb(50, 49, 63)" stroke="none" stroke-width="1px">0</text><text x="81.14285714285714" y="0" dx="0em" dy="0.95em" style="text-anchor: middle; visibility: inherit; font-family: &quot;Helvetica Neue&quot;, sans-serif; font-size: 12px; font-weight: 200;" fill="rgb(50, 49, 63)" stroke="none" stroke-width="1px">50k</text><text x="121.71428571428571" y="0" dx="0em" dy="0.95em" style="text-anchor: middle; visibility: inherit; font-family: &quot;Helvetica Neue&quot;, sans-serif; font-size: 12px; font-weight: 200;" fill="rgb(50, 49, 63)" stroke="none" stroke-width="1px">100k</text><text x="162.28571428571428" y="0" dx="0em" dy="0.95em" style="text-anchor: middle; visibility: inherit; font-family: &quot;Helvetica Neue&quot;, sans-serif; font-size: 12px; font-weight: 200;" fill="rgb(50, 49, 63)" stroke="none" stroke-width="1px">150k</text><text x="202.85714285714286" y="0" dx="0em" dy="0.95em" style="text-anchor: middle; visibility: inherit; font-family: &quot;Helvetica Neue&quot;, sans-serif; font-size: 12px; font-weight: 200;" fill="rgb(50, 49, 63)" stroke="none" stroke-width="1px">200k</text><text x="243.42857142857142" y="0" dx="0em" dy="0.95em" style="text-anchor: middle; visibility: inherit; font-family: &quot;Helvetica Neue&quot;, sans-serif; font-size: 12px; font-weight: 200;" fill="rgb(50, 49, 63)" stroke="none" stroke-width="1px">250k</text><text x="284" y="0" dx="0em" dy="0.95em" style="text-anchor: middle; visibility: hidden; font-family: &quot;Helvetica Neue&quot;, sans-serif; font-size: 12px; font-weight: 200;" fill="rgb(50, 49, 63)" stroke="none" stroke-width="1px">300k</text></g><line x1="0" y1="0" x2="284" y2="0" fill="rgb(0, 0, 0)" stroke="rgb(204, 204, 204)" stroke-width="1px"></line></g></g></g></g></svg>