<svg viewBox="0 0 330 200" xmlns="http://www.w3.org/2000/svg"><g><g><g><g><g><line x1="64" y1="165.63303792661512" x2="59" y2="165.63303792661512" style="visibility: inherit;" fill="rgb(0, 0, 0)" stroke="rgb(204, 204, 204)" stroke-width="1px"></line><line x1="64" y1="150.01343256042497" x2="59" y2="150.01343256042497" style="visibility: inherit;" fill="rgb(0, 0, 0)" stroke="rgb(204, 204, 204)" stroke-width="1px"></line><line x1="64" y1="134.3938271942348" x2="59" y2="134.3938271942348" style="visibility: inherit;" fill="rgb(0, 0, 0)" stroke="rgb(204, 204, 204)" stroke-width="1px"></line><line x1="64" y1="118.77422182804463" x2="59" y2="118.77422182804463" style="visibility: inherit;" fill="rgb(0, 0, 0)" stroke="rgb(204, 204, 204)" stroke-width="1px"></line><line x1="64" y1="103.15461646185447" x2="59" y2="103.15461646185447" style="visibility: inherit;" fill="rgb(0, 0, 0)" stroke="rgb(204, 204, 204)" stroke-width="1px"></line><line x1="64" y1="87.53501109566432" x2="59" y2="87.53501109566432" style="visibility: inherit;" fill="rgb(0, 0, 0)" stroke="rgb(204, 204, 204)" stroke-width="1px"></line><line x1="64" y1="71.91540572947417" x2="59" y2="71.91540572947417" style="visibility: inherit;" fill="rgb(0, 0, 0)" stroke="rgb(204, 204, 204)" stroke-width="1px"></line><line x1="64" y1="56.295800363284" x2="59" y2="56.295800363284" style="visibility: inherit;" fill="rgb(0, 0, 0)" stroke="rgb(204, 204, 204)" stroke-width="1px"></line><line x1="64" y1="40.67619499709383" x2="59" y2="40.67619499709383" style="visibility: inherit;" fill="rgb(0, 0, 0)" stroke="rgb(204, 204, 204)" stroke-width="1px"></line><line x1="64" y1="25.056589630903687" x2="59" y2="25.056589630903687" style="visibility: inherit;" fill="rgb(0, 0, 0)" stroke="rgb(204, 204, 204)" stroke-width="1px"></line><line x1="64" y1="9.436984264713516" x2="59" y2="9.436984264713516" style="visibility: inherit;" fill="rgb(0, 0, 0)" stroke="rgb(204, 204, 204)" stroke-width="1px"></line></g><g transform="translate(54, 0)"><text x="0" y="165.63303792661512" dx="0em" dy="0.3em" style="text-anchor: end; visibility: inherit; font-family: &quot;Helvetica Neue&quot;, sans-serif; font-size: 12px; font-weight: 200;" fill="rgb(50, 49, 63)" stroke="none" stroke-width="1px">100</text><text x="0" y="150.01343256042497" dx="0em" dy="0.3em" style="text-anchor: end; visibility: hidden; font-family: &quot;Helvetica Neue&quot;, sans-serif; font-size: 12px; font-weight: 200;" fill="rgb(50, 49, 63)" stroke="none" stroke-width="1px">200</text><text x="0" y="134.3938271942348" dx="0em" dy="0.3em" style="text-anchor: end; visibility: inherit; font-family: &quot;Helvetica Neue&quot;, sans-serif; font-size: 12px; font-weight: 200;" fill="rgb(50, 49, 63)" stroke="none" stroke-width="1px">300</text><text x="0" y="118.77422182804463" dx="0em" dy="0.3em" style="text-anchor: end; visibility: hidden; font-family: &quot;Helvetica Neue&quot;, sans-serif; font-size: 12px; font-weight: 200;" fill="rgb(50, 49, 63)" stroke="none" stroke-width="1px">400</text><text x="0" y="103.15461646185447" dx="0em" dy="0.3em" style="text-anchor: end; visibility: inherit; font-family: &quot;Helvetica Neue&quot;, sans-serif; font-size: 12px; font-weight: 200;" fill="rgb(50, 49, 63)" stroke="none" stroke-width="1px">500</text><text x="0" y="87.53501109566432" dx="0em" dy="0.3em" style="text-anchor: end; visibility: hidden; font-family: &quot;Helvetica Neue&quot;, sans-serif; font-size: 12px; font-weight: 200;" fill="rgb(50, 49, 63)" stroke="none" stroke-width="1px">600</text><text x="0" y="71.91540572947417" dx="0em" dy="0.3em" style="text-anchor: end; visibility: inherit; font-family: &quot;Helvetica Neue&quot;, sans-serif; font-size: 12px; font-weight: 200;" fill="rgb(50, 49, 63)" stroke="none" stroke-width="1px">700</text><text x="0" y="56.295800363284" dx="0em" dy="0.3em" style="text-anchor: end; visibility: hidden; font-family: &quot;Helvetica Neue&quot;, sans-serif; font-size: 12px; font-weight: 200;" fill="rgb(50, 49, 63)" stroke="none" stroke-width="1px">800</text><text x="0" y="40.67619499709383" dx="0em" dy="0.3em" style="text-anchor: end; visibility: inherit; font-family: &quot;Helvetica Neue&quot;, sans-serif; font-size: 12px; font-weight: 200;" fill="rgb(50, 49, 63)" stroke="none" stroke-width="1px">900</text><text x="0" y="25.056589630903687" dx="0em" dy="0.3em" style="text-anchor: end; visibility: hidden; font-family: &quot;Helvetica Neue&quot;, sans-serif; font-size: 12px; font-weight: 200;" fill="rgb(50, 49, 63)" stroke="none" stroke-width="1px">1e+3</text><text x="0" y="9.436984264713516" dx="0em" dy="0.3em" style="text-anchor: end; visibility: inherit; font-family: &quot;Helvetica Neue&quot;, sans-serif; font-size: 12px; font-weight: 200;" fill="rgb(50, 49, 63)" stroke="none" stroke-width="1px">1.1e+3</text></g><line x1="64" y1="0" x2="64" y2="177" fill="rgb(0, 0, 0)" stroke="rgb(204, 204, 204)" stroke-width="1px"></line></g></g><g transform="translate(64, 0)" clip-path="url(#clip_0)"><clipPath id="clip_0"><rect width="266" height="177"></rect></clipPath><g><g><g><line x1="23.364287238121197" y1="0" x2="23.364287238121197" y2="177" fill="rgb(0, 0, 0)" stroke="rgb(60, 60, 60)" stroke-width="1px" opacity="0.25"></line><line x1="61.26357147765177" y1="0" x2="61.26357147765177" y2="177" fill="rgb(0, 0, 0)" stroke="rgb(60, 60, 60)" stroke-width="1px" opacity="0.25"></line><line x1="99.16285571718235" y1="0" x2="99.16285571718235" y2="177" fill="rgb(0, 0, 0)" stroke="rgb(60, 60, 60)" stroke-width="1px" opacity="0.25"></line><line x1="137.06213995671294" y1="0" x2="137.06213995671294" y2="177" fill="rgb(0, 0, 0)" stroke="rgb(60, 60, 60)" stroke-width="1px" opacity="0.25"></line><line x1="174.96142419624348" y1="0" x2="174.96142419624348" y2="177" fill="rgb(0, 0, 0)" stroke="rgb(60, 60, 60)" stroke-width="1px" opacity="0.25"></line><line x1="212.86070843577406" y1="0" x2="212.86070843577406" y2="177" fill="rgb(0, 0, 0)" stroke="rgb(60, 60, 60)" stroke-width="1px" opacity="0.25"></line><line x1="250.75999267530466" y1="0" x2="250.75999267530466" y2="177" fill="rgb(0, 0, 0)" stroke="rgb(60, 60, 60)" stroke-width="1px" opacity="0.25"></line></g><g><line x1="0" y1="165.63303792661512" x2="266" y2="165.63303792661512" fill="rgb(0, 0, 0)" stroke="rgb(60, 60, 60)" stroke-width="1px" opacity="0.25"></line><line x1="0" y1="150.01343256042497" x2="266" y2="150.01343256042497" fill="rgb(0, 0, 0)" stroke="rgb(60, 60, 60)" stroke-width="1px" opacity="0.25"></line><line x1="0" y1="134.3938271942348" x2="266" y2="134.3938271942348" fill="rgb(0, 0, 0)" stroke="rgb(60, 60, 60)" stroke-width="1px" opacity="0.25"></line><line x1="0" y1="118.77422182804463" x2="266" y2="118.77422182804463" fill="rgb(0, 0, 0)" stroke="rgb(60, 60, 60)" stroke-width="1px" opacity="0.25"></line><line x1="0" y1="103.15461646185447" x2="266" y2="103.15461646185447" fill="rgb(0, 0, 0)" stroke="rgb(60, 60, 60)" stroke-width="1px" opacity="0.25"></line><line x1="0" y1="87.53501109566432" x2="266" y2="87.53501109566432" fill="rgb(0, 0, 0)" stroke="rgb(60, 60, 60)" stroke-width="1px" opacity="0.25"></line><line x1="0" y1="71.91540572947417" x2="266" y2="71.91540572947417" fill="rgb(0, 0, 0)" stroke="rgb(60, 60, 60)" stroke-width="1px" opacity="0.25"></line><line x1="0" y1="56.295800363284" x2="266" y2="56.295800363284" fill="rgb(0, 0, 0)" stroke="rgb(60, 60, 60)" stroke-width="1px" opacity="0.25"></line><line x1="0" y1="40.67619499709383" x2="266" y2="40.67619499709383" fill="rgb(0, 0, 0)" stroke="rgb(60, 60, 60)" stroke-width="1px" opacity="0.25"></line><line x1="0" y1="25.056589630903687" x2="266" y2="25.056589630903687" fill="rgb(0, 0, 0)" stroke="rgb(60, 60, 60)" stroke-width="1px" opacity="0.25"></line><line x1="0" y1="9.436984264713516" x2="266" y2="9.436984264713516" fill="rgb(0, 0, 0)" stroke="rgb(60, 60, 60)" stroke-width="1px" opacity="0.25"></line></g></g></g><g><g><line x1="0" y1="181.2526432928053" x2="266" y2="181.2526432928053" fill="rgb(0, 0, 0)" stroke="rgb(153, 153, 153)" stroke-width="1.5px"></line></g></g><g><g><line x1="23.364287238121197" y1="0" x2="23.364287238121197" y2="177" fill="rgb(0, 0, 0)" stroke="rgb(153, 153, 153)" stroke-width="1.5px"></line></g></g><g><g><g><g><g><path stroke="rgb(255, 112, 67)" stroke-width="2px" d="M23.440085806600255,72.71036203627662L23.66748151203744,75.8873747797859L23.894877217474622,81.088340178279L24.122272922911808,90.2135343123259L24.349668628348994,98.16550431577646L24.577064333786176,102.93708578563543L24.804460039223358,101.11077148632492L25.03185574466054,105.14928607893037L25.259251450097725,105.42850709652001L25.486647155534907,106.92409822671846L25.714042860972093,108.18408541023996L25.941438566409275,110.48195991630917L26.16883427184646,109.94062634875097L26.396229977283642,109.21859438511548L26.623625682720824,110.0823280813324L26.851021388158006,109.90582992417944L27.078417093595192,109.14095825858932L27.305812799032374,109.74650574472354L27.53320850446956,111.62470167708794L27.76060420990674,111.72301600353497L27.987999915343927,111.12045663977894L28.21539562078111,111.02030848404995L28.442791326218295,109.82155927605362L28.670187031655477,109.20389983451261L28.89758273709266,109.09284628145974L29.124978442529844,108.23645360341936L29.352374147967026,108.97136333534837L29.579769853404212,109.89951564628088L29.807165558841394,109.59489404378613L30.03456126427858,110.21991734194859L30.26195696971576,110.14715871159578L30.489352675152944,109.53150863706836L30.716748380590126,108.85149637669714L30.94414408602731,108.59252713901212L31.171539791464493,109.35285697267042L31.39893549690168,108.21124788269155L31.62633120233886,106.31377033673674L31.853726907776046,106.76719342317821L32.081122613213225,107.30431473629517L32.308518318650414,107.76940797116876L32.535914024087596,108.64247428510234L32.76330972952478,110.14721730360006L32.99070543496197,110.15600261856635L33.21810114039914,109.25663114655356L33.445496845836324,108.37471485958552L33.67289255127351,108.37360295150289L33.900288256710695,108.69016161685174L34.12768396214788,107.24455947276978L34.35507966758506,107.35360543303622L34.58247537302225,107.5381219193379L34.80987107845943,108.7187864903997L35.03726678389661,109.93109480708453L35.264662489333794,110.95233541460857L35.49205819477098,112.36547540391062L35.719453900208165,112.96486073803746L35.94684960564535,112.90345089752776L36.17424531108253,112.00694269678667L36.40164101651972,112.12980328739026L36.6290367219569,112.05278778255615L36.85643242739408,113.00211207932564L37.08382813283126,112.97067609396517L37.31122383826845,112.53778641609276L37.53861954370563,113.7201067742765L37.76601524914281,112.96988817868163L37.99341095458,112.55106967352819L38.22080666001718,113.59465438207405L38.448202365454364,114.0596698168714L38.675598070891546,113.89165841768579L38.902993776328735,113.80658903914878L39.13038948176592,114.4816902029834L39.3577851872031,114.99290994989647L39.58518089264028,115.79913829074022L39.81257659807747,116.25415461523633L40.03997230351465,115.72974091150192L40.267368008951834,116.0968887559373L40.494763714389016,116.4750247182865L40.722159419826205,113.5937078900725L40.94955512526338,112.85144875560354L41.17695083070056,112.46836146828457L41.404346536137744,112.47864688113414L41.63174224157493,112.97087071860335L41.859137947012115,112.7625495265868L42.0865336524493,113.02930269576044L42.31392935788649,114.1069731688274L42.54132506332367,114.69228548542351L42.76872076876085,113.81297414950689L42.99611647419803,114.66572977284991L43.22351217963522,115.02658779699374L43.450907885072404,115.40583301789464L43.678303590509586,115.88968780349718L43.90569929594677,116.25299822849139L44.13309500138396,116.80747108233984L44.36049070682114,116.61910545048585L44.587886412258314,116.56819655834559L44.815282117695496,117.41416372881204L45.042677823132685,116.48963662883706L45.27007352856987,116.55830409614217L45.49746923400705,116.9868351980416L45.72486493944423,116.84655776044715L45.95226064488142,116.58681605734785L46.1796563503186,115.97097876035306L46.407052055755784,116.25655922862165L46.63444776119297,116.87156185643904L46.861843466630155,116.75155729338096L47.08923917206734,116.10608866446793L47.31663487750452,116.26408444800174L47.54403058294171,116.30136675951886L47.77142628837889,116.94031463502145L47.99882199381607,117.09377360258432L48.226217699253255,116.44701098962238L48.45361340469044,116.5072588123181L48.68100911012762,116.5711018013535L48.9084048155648,117.35086316102988L49.13580052100198,116.91831388052229L49.36319622643917,117.32419738968655L49.590591931876354,116.65244056372737L49.817987637313536,116.54570837136369L50.04538334275072,116.52392884731232L50.27277904818791,117.12440584410756L50.50017475362509,116.80845273171431L50.72757045906227,116.79983781362074L50.95496616449946,117.03821973229752L51.18236186993664,116.70668158788234L51.409757575373824,114.93382386030808L51.637153280811006,115.64105827072692L51.864548986248195,116.02538292215604L52.09194469168538,116.44774927722486L52.31934039712255,116.31822531257708L52.546736102559734,116.03608799006719L52.77413180799692,115.83516442261146L53.001527513434105,115.77878937077284L53.22892321887129,115.69410814253516L53.45631892430847,115.66669227327444L53.68371462974566,115.19381151891469L53.91111033518284,115.88800248301499L54.13850604062002,115.79883263302256L54.365901746057204,115.58258456567867L54.593297451494394,115.49308906742053L54.820693156931576,116.24426275459865L55.04808886236876,116.14734411907376L55.27548456780595,116.75246674648653L55.50288027324313,117.52093590738684L55.73027597868031,117.52065998514999L55.957671684117486,116.80662258802667L56.185067389554675,114.39951041121299L56.41246309499186,114.8419993629245L56.63985880042904,115.56508701884815L56.86725450586622,116.08889285432734L57.09465021130341,116.6974208849521L57.32204591674059,115.75288272919374L57.549441622177774,114.77371837537274L57.776837327614956,114.3509476891944L58.004233033052145,114.15170892970518L58.23162873848933,114.53532520233284L58.45902444392651,115.15251580612639L58.68642014936369,115.15960266874887L58.91381585480088,115.96566612651816L59.14121156023806,116.04344196152283L59.368607265675244,116.11401323748846L59.59600297111243,113.92043318433531L59.82339867654961,112.33387096151395L60.05079438198679,113.16315284474871L60.27819008742397,114.06637503774573L60.50558579286116,114.29971841080635L60.732981498298344,114.17952549687652L60.960377203735526,114.70092803781819L61.18777290917271,114.84144214412063L61.4151686146099,114.39910612814441L61.64256432004708,114.52577432179544L61.86996002548426,114.95014222662724L62.09735573092144,115.66102898734567L62.32475143635863,116.39622500686558L62.552147141795814,115.98631601062584L62.779542847232996,116.74603890258786L63.00693855267018,116.73655660763927L63.23433425810737,116.83278129787342L63.46172996354455,117.39414992811155L63.689125668981724,118.08195156693469L63.91652137441891,116.721694130021L64.1439170798561,116.7111886805815L64.37131278529328,117.1857167272814L64.59870849073046,117.81350385392626L64.82610419616765,117.92895453189033L65.05349990160484,117.91091483275262L65.28089560704201,118.5311107084205L65.50829131247919,119.0230327740295L65.73568701791638,118.82990816913356L65.96308272335357,119.03786629093301L66.19047842879074,119.76952085316688L66.41787413422793,119.55371537077389L66.64526983966512,120.06475083877825L66.8726655451023,119.59883335676935L67.10006125053948,119.65088356752022L67.32745695597667,119.68578015654315L67.55485266141385,120.07635596054612L67.78224836685104,120.85902238098446L68.00964407228822,121.3568495151232L68.2370397777254,121.66452279592318L68.46443548316259,121.1515508993223L68.69183118859978,121.69522984193604L68.91922689403695,121.68901234677017L69.14662259947414,121.32764852694677L69.3740183049113,121.16313788263534L69.60141401034849,121.61514258438602L69.82880971578568,121.39488836251343L70.05620542122286,122.27507547057725L70.28360112666005,122.95732092872278L70.51099683209723,123.61657176976033L70.73839253753441,124.02187527862517L70.9657882429716,124.28376763438033L71.19318394840877,123.58939497365469L71.42057965384596,122.8004825951808L71.64797535928315,121.19395858661326L71.87537106472033,121.64002423389232L72.10276677015752,121.85266457948896L72.3301624755947,121.83615984528015L72.55755818103188,122.55468873609173L72.78495388646907,123.02678921205046L73.01234959190626,123.70149123507363L73.23974529734343,123.96703095298673L73.46714100278062,123.55140307694951L73.6945367082178,123.7723533866405L73.92193241365499,123.22973171223464L74.14932811909217,123.381708136702L74.37672382452935,123.45671724845162L74.60411952996654,124.15876826084234L74.83151523540373,124.44844182360204L75.0589109408409,124.59424498399638L75.28630664627809,125.00704218638145L75.51370235171527,125.01783535405625L75.74109805715246,125.31597626903192L75.96849376258965,125.85454954684391L76.19588946802682,125.20384217356657L76.42328517346401,125.8733027126344L76.6506808789012,126.46620544611255L76.87807658433836,126.00013595371829L77.10547228977555,126.4103564746705L77.33286799521274,126.56940066225692L77.56026370064991,126.91276399572126L77.7876594060871,127.23528472888339L78.01505511152428,126.19510425448378L78.24245081696147,126.54171020173155L78.46984652239865,127.21663104541186L78.69724222783583,127.56174978987293L78.92463793327302,128.14269529358444L79.15203363871021,128.16656605344923L79.37942934414738,128.43623173572814L79.60682504958457,128.92313515121253L79.83422075502175,128.85816166058336L80.06161646045894,128.80945919379366L80.28901216589612,129.13577714878653L80.5164078713333,129.51599172421132L80.74380357677049,129.36936312539552L80.97119928220768,129.37502701445166L81.19859498764485,128.58551903894866L81.42599069308204,128.01677165316252L81.65338639851923,128.13878891481556L81.8807821039564,127.89641727074138L82.1081778093936,128.22001407859847L82.33557351483077,128.46565294676728L82.56296922026796,128.45669973326216L82.79036492570515,128.80899337444066L83.01776063114232,128.6527303596148L83.24515633657951,128.9933088295793L83.4725520420167,129.46710392728795L83.69994774745388,129.68598378106157L83.92734345289107,129.79210394140807L84.15473915832824,130.43827709471321L84.38213486376542,130.75006732686225L84.6095305692026,130.75693952061812L84.83692627463978,130.7073888303404L85.06432198007697,129.9354746987707L85.29171768551416,130.67855884002986L85.51911339095133,130.77475368657633L85.74650909638852,130.93385474773018L85.97390480182571,129.7523884068198L86.20130050726289,130.0931965249327L86.42869621270007,129.5718707315316L86.65609191813725,128.92999104017923L86.88348762357444,128.96699312005478L87.11088332901163,127.88862395240488L87.3382790344488,128.03384765421904L87.56567473988599,128.3756874797624L87.79307044532318,128.69699128665664L88.02046615076036,128.2729511143907L88.24786185619755,127.06737865311884L88.47525756163472,127.28076592933024L88.70265326707191,127.05617691466497L88.9300489725091,126.49758671113207L89.15744467794627,126.61425529269728L89.38484038338346,126.71627833198497L89.61223608882065,127.08288510026978L89.83963179425783,126.7261471467099L90.06702749969502,126.43252860954635L90.2944232051322,126.60583698112717L90.52181891056938,124.8002061296468L90.74921461600657,124.68108328028828L90.97661032144374,124.85435688898075L91.20400602688093,125.31821463488807L91.43140173231812,125.11930860565764L91.6587974377553,124.89341335183525L91.88619314319249,124.67797646961472L92.11358884862966,124.79806221362736L92.34098455406684,125.2904410533434L92.56838025950402,125.74139229606529L92.7957759649412,126.16540710318463L93.02317167037839,125.44034202542875L93.25056737581558,125.9006807666691L93.47796308125275,126.62709994845153L93.70535878668994,126.56154347629975L93.93275449212713,127.34429968574716L94.1601501975643,127.39395097286867L94.3875459030015,127.15215885673825L94.61494160843868,127.5801609704339L94.84233731387586,127.78107616397045L95.06973301931305,128.3173000217585L95.29712872475022,128.44875629431908L95.52452443018741,128.61686896523122L95.7519201356246,128.8159370657394L95.97931584106178,128.31425642209453L96.20671154649897,126.81593953710066L96.43410725193615,127.09512518888138L96.66150295737333,127.13624494122296L96.88889866281052,126.9781320635959L97.1162943682477,127.1691740898047L97.34369007368488,126.706896945617L97.57108577912207,126.08970161698093L97.79848148455925,125.94688020265102L98.02587718999644,124.27827096539355L98.25327289543362,124.28628257359037L98.4806686008708,124.5507596696845L98.70806430630799,124.20289246185341L98.93546001174518,124.43692119629023L99.16285571718235,124.4807828676027L99.39025142261954,124.84629681221416L99.6176471280567,124.98982145009566L99.84504283349389,124.77729177731143L100.07243853893108,124.70229399993181L100.29983424436826,125.30718625926431L100.52722994980545,125.66658283697217L100.75462565524263,125.63137822838743L100.98202136067981,125.29603942816831L101.209417066117,124.86903049316936L101.43681277155417,125.44151573711088L101.66420847699136,125.8127403959937L101.89160418242855,126.08689889577587L102.11899988786573,126.18964324235442L102.34639559330292,125.8470198574453L102.5737912987401,125.122626906151L102.80118700417728,124.41652362053391L103.02858270961447,124.9184674628302L103.25597841505166,125.7498601078714L103.48337412048883,126.126520009303L103.71076982592602,126.01812631034042L103.9381655313632,125.76267804402107L104.16556123680039,126.07450957051253L104.39295694223757,126.29956262383703L104.62035264767475,126.4485907382346L104.84774835311194,125.5972681563834L105.07514405854913,124.78533133454495L105.3025397639863,125.24271207920714L105.52993546942349,125.71866679479874L105.75733117486067,125.25588709304142L105.98472688029786,126.05380771278845L106.21212258573505,126.48316392086507L106.43951829117222,126.77149723527253L106.66691399660941,126.3467220529417L106.8943097020466,126.01355797402852L107.12170540748376,126.48989351273372L107.34910111292095,126.99663066388743L107.57649681835814,127.4052477899471L107.80389252379531,127.28759889322873L108.0312882292325,125.73901493963531L108.25868393466968,125.88603106108107L108.48607964010687,126.23228340103341L108.71347534554405,126.15274638352139L108.94087105098123,126.48854608749188L109.16826675641842,126.48357634465947L109.39566246185561,126.42414202865086L109.62305816729278,126.45424002425219L109.85045387272997,126.74138012841013L110.07784957816715,127.111148613789L110.30524528360434,127.4324923987796L110.53264098904152,127.69109401067637L110.7600366944787,127.3618012154036L110.98743239991589,127.21609171915955L111.21482810535308,127.44497614780079L111.44222381079025,127.12458324463427L111.66961951622744,127.17364705825082L111.89701522166463,127.72436859374338L112.1244109271018,128.36692748754967L112.351806632539,127.67031415334114L112.57920233797617,127.13719525685957L112.80659804341336,123.98088431957095L113.03399374885055,124.40196523728899L113.26138945428772,124.25957545893598L113.48878515972491,124.42125224422723L113.7161808651621,124.3700464676558L113.94357657059928,125.015558692419L114.17097227603647,125.78913300712316L114.39836798147364,126.34476862519224L114.62576368691083,126.91099638115881L114.853159392348,126.79619675935979L115.08055509778518,126.73807170550609L115.30795080322237,126.3539505251936L115.53534650865956,125.24904088940269L115.76274221409673,125.34040924785535L115.99013791953392,125.65559173103105L116.21753362497111,126.2947525269393L116.44492933040829,126.3228997700709L116.67232503584547,125.75357536247773L116.89972074128265,126.01143606583037L117.12711644671984,125.84647468618536L117.35451215215703,125.63730217453801L117.5819078575942,126.09029929335043L117.80930356303139,126.38729580973661L118.03669926846858,126.51601639423095L118.26409497390576,126.73042684449535L118.49149067934295,126.84518606346776L118.71888638478012,126.89913708204702L118.94628209021731,127.24439337050202L119.1736777956545,127.55081711943834L119.40107350109167,128.19490703246916L119.62846920652886,128.4325950187618L119.85586491196605,128.94237392467033L120.08326061740323,127.94029000385629L120.31065632284042,127.46758786373499L120.5380520282776,127.67746849208137L120.76544773371478,128.0384386725933L120.99284343915197,127.99423324462062L121.22023914458914,128.5891272143564L121.44763485002633,128.60785756042577L121.67503055546352,128.86709802316983L121.9024262609007,128.81288513208162L122.12982196633789,128.24816770387608L122.35721767177506,128.72655753836685L122.58461337721224,128.55659109866772L122.81200908264942,128.89889412606493L123.0394047880866,128.16531263289716L123.26680049352379,128.22825649906315L123.49419619896098,126.23933652147556L123.72159190439815,126.10030653802627L123.94898760983534,126.14573664814537L124.17638331527253,126.25616996665894L124.4037790207097,126.18113243494814L124.6311747261469,126.60132864740586L124.85857043158408,126.6635338704514L125.08596613702126,126.43083199846663L125.31336184245845,127.0816919314461L125.54075754789562,127.54124728503888L125.76815325333281,125.99503020632679L125.99554895877,125.89945864091149L126.22294466420718,124.67796461497657L126.45034036964437,124.2861869564332L126.67773607508155,124.76165392706834L126.90513178051873,125.6534334022171L127.13252748595592,125.4225457445651L127.3599231913931,126.00348754365066L127.58731889683028,126.41019101451388L127.81471460226747,126.9599283276088L128.04211030770463,127.58294129307342L128.26950601314184,126.58728312516963L128.496901718579,126.73166694838915L128.72429742401619,127.1333607321908L128.9516931294534,127.42327672317704L129.17908883489056,128.14175192257193L129.40648454032774,127.96192280250091L129.63388024576494,128.611721484447L129.86127595120212,129.0161635301714L130.0886716566393,128.69135243535567L130.3160673620765,128.21151079505898L130.54346306751367,128.7016092119067L130.77085877295085,128.58590438205567L130.99825447838805,128.19666268023713L131.22565018382522,127.19133044433639L131.4530458892624,124.82564916836027L131.68044159469957,125.23545012342638L131.90783730013678,125.89754307491148L132.13523300557395,125.50925192370465L132.36262871101113,125.41205290385014L132.59002441644833,125.54369698605386L132.8174201218855,125.7052735805319L133.04481582732268,126.0216076845797L133.27221153275988,125.99817123964822L133.49960723819706,125.98044377909463L133.72700294363426,126.32817662861113L133.9543986490714,126.66228318819526L134.18179435450858,126.88798392846874L134.4091900599458,126.82463257482723L134.63658576538296,126.84727269824808L134.86398147082016,127.29934202672639L135.0913771762573,127.66006980285934L135.3187728816945,126.38053018482185L135.5461685871317,126.40944641527621L135.7735642925689,124.54395285567537L136.00095999800607,123.91426458860937L136.22835570344327,123.78405566601293L136.45575140888042,124.29414638913572L136.68314711431762,124.37473336381328L136.9105428197548,123.77740932776098L137.137938525192,124.34847512359262L137.36533423062917,124.2192210850663L137.59272993606635,124.8066438610057L137.82012564150352,124.77430339720485L138.04752134694073,124.32075152426833L138.2749170523779,123.45528520363096L138.5023127578151,123.65025957074555L138.72970846325228,124.24641335030293L138.95710416868945,124.56940397943549L139.18449987412663,125.30914931556619L139.41189557956383,125.9314585490453L139.639291285001,126.19867730053096L139.8666869904382,126.73188001854822L140.09408269587536,126.96596914583489L140.32147840131256,126.97926192213441L140.54887410674974,126.90839080575944L140.77626981218694,127.07475986007907L141.0036655176241,125.01063449626815L141.23106122306132,125.32808639244612L141.45845692849846,125.7408592584404L141.68585263393564,126.05144481032622L141.91324833937284,126.18396433781442L142.14064404481002,126.86759097111388L142.36803975024722,127.67662830452905L142.59543545568437,128.17526477777903L142.82283116112157,128.33866127570053L143.05022686655875,128.291205944132L143.27762257199595,128.46965917039316L143.50501827743312,127.3237717699163L143.7324139828703,126.96900125176354L143.95980968830747,127.56023436257594L144.18720539374468,127.99052693004364L144.41460109918185,126.91553613200531L144.64199680461905,127.39301375835649L144.86939251005623,127.58471915401182L145.0967882154934,126.06451473722343L145.32418392093058,126.55498685618996L145.55157962636778,126.8700999875023L145.77897533180496,126.98656771206609L146.00637103724216,126.81960623637664L146.2337667426793,125.71545567868868L146.4611624481165,126.19668525755111L146.68855815355369,126.57922488239049L146.9159538589909,126.41452098054509L147.14334956442806,126.18420431236734L147.37074526986527,127.06105112578979L147.5981409753024,127.88730578375299L147.82553668073962,127.98268133127857L148.0529323861768,128.2969769484696L148.280328091614,128.4879995432425L148.50772379705117,128.99479804867897L148.73511950248832,129.14288889323166L148.96251520792552,128.75400887407878L149.1899109133627,128.85137812353702L149.4173066187999,129.4795794036601L149.64470232423707,129.89073242935513L149.87209802967425,130.17795059309836L150.09949373511142,129.9188846984752L150.32688944054863,130.36430514604527L150.5542851459858,130.83472052214853L150.781680851423,130.94242872460984L151.00907655686018,130.6229002674037L151.23647226229735,131.05488262818142L151.46386796773453,130.07175854099313L151.69126367317173,129.7408305507L151.9186593786089,128.94506851992307L152.1460550840461,129.32614825874273L152.37345078948326,129.70423978416156L152.60084649492046,129.92434995974952L152.82824220035764,130.20338207193538L153.05563790579484,130.55330908393634L153.283033611232,130.0819391830349L153.51042931666922,129.9821764642124L153.73782502210636,130.216209658308L153.96522072754357,129.59645615030396L154.19261643298074,130.43585173120965L154.42001213841795,130.85796790282882L154.64740784385512,131.01470465216462L154.8748035492923,131.26268500760537L155.10219925472947,131.578612728468L155.32959496016667,131.90681598351213L155.55699066560385,130.4105042423102L155.78438637104105,130.770050829104L156.01178207647823,129.9674586804897L156.23917778191537,130.4279210894199L156.46657348735258,130.5464738627602L156.69396919278975,130.37175078654874L156.92136489822695,130.19996619966685L157.14876060366413,128.7371429112486L157.3761563091013,129.13922598682277L157.60355201453848,128.5544363546681L157.83094771997568,128.74172048312016L158.05834342541286,128.35498906828025L158.28573913085006,128.7689928289339L158.5131348362872,128.53971326131017L158.7405305417244,128.8694398140511L158.96792624716159,127.98257268201192L159.1953219525988,127.71713336246751L159.42271765803596,127.00334967248983L159.65011336347317,127.12739022974586L159.8775090689103,127.6426518363921L160.10490477434752,127.2251306850203L160.3323004797847,126.57199536579475L160.5596961852219,126.44531023366868L160.78709189065907,126.83364517254333L161.01448759609625,126.58106915017802L161.24188330153342,125.99868304896754L161.46927900697062,126.39819898615585L161.6966747124078,126.27399537984945L161.924070417845,126.6016847468326L162.15146612328218,126.79809614184404L162.37886182871935,126.94453690542741L162.60625753415653,125.93460791835216L162.83365323959373,125.11186402565124L163.0610489450309,125.06416091854777L163.2884446504681,125.61846469003926L163.51584035590525,126.10149314721619L163.74323606134243,126.52520252075574L163.97063176677963,126.61422767671372L164.1980274722168,127.40458131788841L164.425423177654,127.79742365507718L164.6528188830912,127.48921724320222L164.88021458852836,127.6017097506301L165.10761029396554,127.62097326222553L165.33500599940274,128.01219122000217L165.5624017048399,127.962911233472L165.78979741027712,127.7592054795321L166.01719311571426,127.25746991489535L166.24458882115147,127.78403911666629L166.47198452658864,128.0137424096932L166.69938023202585,128.56582339783392L166.92677593746302,128.39848900888057L167.1541716429002,128.81399801228915L167.38156734833737,129.03242021712305L167.60896305377457,129.25845145708485L167.83635875921175,129.84674642534216L168.06375446464895,130.12785616608127L168.29115017008613,129.13315359321484L168.5185458755233,129.82376935488972L168.74594158096048,129.84858240722411L168.97333728639768,129.84598665421132L169.20073299183485,130.5611192551042L169.42812869727206,131.09259569754425L169.6555244027092,131.42938016841353L169.8829201081464,131.28822772323187L170.11031581358358,131.62262941818489L170.3377115190208,132.15894884209223L170.56510722445796,131.82579471865571L170.79250292989516,131.96462009564442L171.0198986353323,132.03556517690853L171.2472943407695,131.87617381708068L171.4746900462067,131.43402554008009L171.70208575164386,131.80442139441925L171.92948145708107,131.32891810128427L172.1568771625182,131.41430835308338L172.38427286795542,131.48240318987223L172.6116685733926,131.23528488222576L172.8390642788298,131.08144267036988L173.06645998426697,131.49240703755314L173.29385568970417,130.31481992814878L173.52125139514132,131.00281310209093L173.74864710057852,130.7536732180872L173.9760428060157,131.20816708914006L174.2034385114529,131.66706481966622L174.43083421689008,130.1961153051063L174.65822992232725,130.0664136170482L174.88562562776443,130.02466508973023L175.11302133320163,129.6889464863214L175.3404170386388,129.6040155354682L175.567812744076,129.54729053573573L175.79520844951315,129.01679657681427L176.02260415495036,129.35972277300777L176.24999986038753,129.75511177896914L176.47739556582474,129.9769764058862L176.7047912712619,129.54069593117723L176.93218697669911,129.402364360999L177.15958268213626,129.99502931691336L177.38697838757346,129.74985363012908L177.61437409301064,129.80927157517849L177.84176979844784,130.35638507673985L178.06916550388502,130.98366254882143L178.2965612093222,131.15338818438656L178.52395691475937,131.34347849095656L178.75135262019657,130.78430387911953L178.97874832563375,130.52311839904502L179.20614403107095,130.3097318298208L179.43353973650812,130.48561241216944L179.66093544194527,128.9491979054319L179.88833114738247,129.27852472322894L180.11572685281965,129.5037804391934L180.34312255825685,129.95477847148283L180.57051826369403,130.3723443712168L180.7979139691312,129.35110165338926L181.02530967456838,128.9334017855855L181.25270538000558,129.03662568848853L181.48010108544275,128.0381421348711L181.70749679087996,128.31400147429417L181.93489249631713,128.0356264871549L182.1622882017543,127.27938509383094L182.38968390719148,127.50926660153607L182.6170796126287,127.00816389949318L182.84447531806586,127.00988607576173L183.07187102350306,127.55408380726703L183.2992667289402,128.07626876743376L183.5266624343774,128.52931100797883L183.7540581398146,128.81004108182913L183.9814538452518,128.85679067573122L184.20884955068897,129.53385200178695L184.43624525612614,130.33630690082634L184.66364096156332,130.92897651307518L184.89103666700052,131.14477999423784L185.1184323724377,129.16965748712352L185.3458280778749,128.60350998440617L185.57322378331207,129.0679564194094L185.80061948874925,129.5283390738095L186.02801519418642,129.2763399070641L186.25541089962363,128.82904864622114L186.4828066050608,128.81912474793387L186.710202310498,128.31178145192044L186.93759801593515,126.79673612705113L187.16499372137233,127.25379254994871L187.39238942680953,127.61882799292704L187.6197851322467,128.2084934717438L187.8471808376839,128.6877597000992L188.07457654312108,128.09536213426372L188.30197224855826,128.57131873565274L188.52936795399543,128.85829561417322L188.75676365943264,128.444616693812L188.9841593648698,128.63249375447452L189.211555070307,128.80125350641026L189.43895077574416,128.12635804385636L189.66634648118136,128.5498078226155L189.89374218661854,128.8276346152061L190.12113789205574,128.38348663099714L190.34853359749292,128.86389751147314L190.57592930293012,128.45918500794465L190.80332500836727,128.70998681776464L191.03072071380447,129.28759351165223L191.25811641924165,129.29787655835435L191.48551212467885,129.63874103520277L191.71290783011602,130.11720155960356L191.9403035355532,128.12942528662194L192.16769924099037,128.4027185855271L192.39509494642758,128.85601751740094L192.62249065186475,128.60136661495204L192.84988635730195,129.04801368815959L193.0772820627391,129.65664891852458L193.3046777681763,130.19518472682873L193.53207347361348,130.3638007623135L193.75946917905068,130.16099837735962L193.98686488448786,129.99310791950043L194.21426058992506,130.00498615697225L194.4416562953622,128.36539691375626L194.66905200079938,127.54328735969041L194.8964477062366,127.39848841339278L195.12384341167376,127.75113510534628L195.35123911711096,128.39772821596864L195.5786348225481,128.17465455422092L195.8060305279853,128.65015450875944L196.0334262334225,127.88370483050826L196.2608219388597,128.16781971319935L196.48821764429687,128.92871266770533L196.71561334973407,129.07834895679645L196.94300905517122,129.62338060963867L197.17040476060842,129.68948388053838L197.3978004660456,129.10984936254974L197.6251961714828,129.07994291147446L197.85259187691997,128.55254649656337L198.07998758235715,128.27370398421795L198.30738328779432,128.3861669909335L198.53477899323153,128.56338195520988L198.7621746986687,128.8058068075825L198.9895704041059,128.69921827925475L199.21696610954308,129.02797783746658L199.44436181498025,129.2876357208123L199.67175752041743,128.7552074313991L199.89915322585463,127.9253644119068L200.1265489312918,127.43550233170123L200.353944636729,127.23318052421084L200.58134034216616,127.5057727763921L200.80873604760336,126.68184659082172L201.03613175304054,127.0219587867422L201.26352745847774,127.77167002466945L201.4909231639149,127.74553635734027L201.71831886935206,127.65368577642928L201.94571457478926,126.71860234307181L202.17311028022644,126.90249279334296L202.40050598566364,124.99702196156142L202.62790169110082,125.58312450901076L202.85529739653802,125.95719851285881L203.08269310197517,126.56193359861814L203.31008880741237,126.30734212204206L203.53748451284955,125.96183803730756L203.76488021828675,126.06602008398224L203.99227592372392,125.80242847962232L204.2196716291611,126.26279612111881L204.44706733459827,126.91697496855224L204.67446304003548,126.45039364812547L204.90185874547265,127.00912921597518L205.12925445090985,127.29577924890788L205.35665015634703,127.36342110106696L205.5840458617842,126.46295804476182L205.81144156722138,126.47675270907544L206.03883727265858,126.41354459296218L206.26623297809576,126.04390513343176L206.49362868353296,126.50811393732747L206.7210243889701,126.61696745931681L206.9484200944073,126.94631972603634L207.1758157998445,127.05224558397751L207.4032115052817,127.0259851998557L207.63060721071886,126.85021912031573L207.85800291615607,127.59161759046097L208.0853986215932,127.51645900483736L208.31279432703042,128.0584567510255L208.5401900324676,127.97149639258049L208.7675857379048,127.98408964927626L208.99498144334197,127.05527305364564L209.22237714877912,127.58419215722915L209.44977285421632,127.82664193735332L209.6771685596535,127.77758881459063L209.9045642650907,128.24595892441164L210.13195997052787,128.80795254221084L210.35935567596505,129.20300427019032L210.58675138140222,129.75582274920316L210.81414708683943,130.27281088162826L211.0415427922766,130.59519962254726L211.2689384977138,129.78340736384297L211.49633420315098,130.26981126271465L211.72372990858815,129.75877314682396L211.95112561402533,130.13815486763775L212.17852131946253,130.18852917198421L212.4059170248997,128.29566540580214L212.6333127303369,128.2066051590918L212.86070843577406,128.66470181383406L213.08810414121126,129.2228641192101L213.31549984664844,129.0139454248086L213.54289555208564,129.02331543187555L213.7702912575228,129.24090930261406L213.99768696296002,128.90750887536072L214.22508266839716,129.45496121631808L214.45247837383437,129.35649981425416L214.67987407927154,129.17064660385088L214.90726978470875,129.73572648085576L215.13466549014592,129.8695157125555L215.3620611955831,129.6933699889418L215.58945690102027,129.57025322914512L215.81685260645747,130.20559718851825L216.04424831189465,130.3723540384134L216.27164401733185,130.0395830351901L216.49903972276903,129.83678075188476L216.72643542820617,129.74357185983874L216.95383113364338,130.35789391945903L217.18122683908055,130.7494426726223L217.40862254451775,131.45951164474192L217.63601824995493,131.1855463716322L217.8634139553921,130.67431218375856L218.09080966082928,130.2324397527789L218.31820536626648,129.05905170841555L218.54560107170366,127.6957303644465L218.77299677714086,127.56772444133443L219.000392482578,128.2631369490811L219.2277881880152,128.14813779288454L219.45518389345239,128.40786415060685L219.6825795988896,128.56569770839133L219.90997530432676,127.58904666276015L220.13737100976397,127.88033675790187L220.3647667152011,127.9162051138787L220.59216242063832,128.36818790964L220.8195581260755,128.51408706515298L221.0469538315127,128.31522890598617L221.27434953694987,128.6363389801731L221.50174524238705,127.85940011003416L221.72914094782422,127.45342509413047L221.95653665326142,127.1865436025735L222.1839323586986,127.45095361866481L222.4113280641358,127.16515968527041L222.63872376957298,127.10104284825302L222.86611947501015,127.9338484735722L223.09351518044733,127.37103561064205L223.32091088588453,127.13850981039903L223.5483065913217,127.3352946262664L223.7757022967589,127.33710191939676L224.00309800219605,127.36007665907543L224.23049370763326,127.92253264540496L224.45788941307043,128.29403954993464L224.6852851185076,128.38233775837654L224.9126808239448,128.56303410788394L225.140076529382,127.65846290319732L225.36747223481916,125.40373520466864L225.59486794025634,125.57430874252253L225.82226364569354,125.02858644872154L226.0496593511307,125.32324256278437L226.27705505656792,125.6961484143086L226.50445076200506,126.14552342239074L226.73184646744227,126.61694291589998L226.95924217287944,127.43137100504777L227.18663787831665,127.84184779190116L227.41403358375382,128.55604750556094L227.641429289191,127.5100431808851L227.86882499462817,127.92238952130737L228.09622070006537,128.69379260850553L228.32361640550255,129.33491459305787L228.55101211093975,129.81183858839253L228.77840781637693,129.07858306304027L229.0058035218141,128.61645165691496L229.23319922725128,129.2044450762711L229.46059493268848,129.77701567063696L229.68799063812565,130.0612718141655L229.91538634356286,130.60276627876488L230.142782049,130.97684448487053L230.3701777544372,131.0987684366708L230.59757345987438,131.10467207198076L230.8249691653116,131.86696196983712L231.05236487074876,131.34723695983666L231.27976057618596,131.5627292775074L231.5071562816231,131.30284135134397L231.7345519870603,131.33779356605572L231.9619476924975,131.33238124166337L232.1893433979347,131.82058844228894L232.41673910337187,131.78432910647263L232.644134808809,132.12122728261704L232.87153051424622,132.04179476534682L233.0989262196834,131.96307176097685L233.3263219251206,132.16776532675618L233.55371763055777,132.3149059269675L233.78111333599497,132.48821204188144L234.00850904143212,132.43859174600144L234.23590474686932,132.31047546551196L234.4633004523065,131.66288770490712L234.6906961577437,129.98603093632954L234.91809186318088,129.52660851676768L235.14548756861805,129.0873348322363L235.37288327405523,129.11024182159738L235.60027897949243,129.7615571551313L235.8276746849296,130.04927028093653L236.0550703903668,130.6394196949126L236.28246609580395,129.90939780786672L236.50986180124116,130.24244430537604L236.73725750667833,130.41112892527187L236.96465321211554,129.82921162301074L237.1920489175527,130.21691505927143L237.41944462298991,130.83718312591537L237.64684032842706,131.04511076327424L237.87423603386426,131.63854566949064L238.10163173930144,131.54160809330455L238.32902744473864,131.61854158479383L238.55642315017582,131.5706100944413L238.783818855613,131.60241162918794L239.01121456105017,132.00630590435776L239.23861026648737,132.442322147019L239.46600597192455,131.84830572763332" style="fill: none;" fill="none"></path></g></g></g></g><g opacity="0.2"><g><g><g><path stroke="rgb(255, 112, 67)" stroke-width="2px" d="M23.440085806600255,72.71036203627662L23.66748151203744,78.98813921745106L23.894877217474622,91.11879722264314L24.122272922911808,116.29598705976511L24.349668628348994,128.11016787407664L24.577064333786176,125.13121244976332L24.804460039223358,91.03740062192504L25.03185574466054,130.831438896995L25.259251450097725,107.43406324152714L25.486647155534907,118.86833605178428L25.714042860972093,119.23496395923519L25.941438566409275,132.39479608411824L26.16883427184646,104.37394955275927L26.396229977283642,101.26724112447282L26.623625682720824,120.20888696631646L26.851021388158006,107.71393674905597L27.078417093595192,99.12363523690371L27.305812799032374,118.07787953363713L27.53320850446956,138.6786365398367L27.76060420990674,113.20112394377571L27.987999915343927,101.69059306264201L28.21539562078111,109.39289179071277L28.442791326218295,89.63931056665335L28.670187031655477,98.45166997552924L28.89758273709266,107.09763253866448L29.124978442529844,92.38373357421027L29.352374147967026,122.96608479759817L29.579769853404212,128.05579860564194L29.807165558841394,103.4816662493849L30.03456126427858,123.07203956690958L30.26195696971576,108.61594417198205L30.489352675152944,96.28515520631039L30.716748380590126,93.90777957802817L30.94414408602731,102.7853382551532L31.171539791464493,126.7355634742124L31.39893549690168,81.6238904222924L31.62633120233886,61.331359405530264L31.853726907776046,117.70079819766814L32.081122613213225,120.46956010445595L32.308518318650414,119.34952743438504L32.535914024087596,130.71090748180654L32.76330972952478,148.73827873324063L32.99070543496197,110.38448028164629L33.21810114039914,85.55045176346884L33.445496845836324,84.82578558750437L33.67289255127351,108.343540122952L33.900288256710695,117.35255554958533L34.12768396214788,67.2252054665221L34.35507966758506,110.40635955063762L34.58247537302225,112.75979668461166L34.80987107845943,142.48112955567404L35.03726678389661,144.94952341963273L35.264662489333794,140.7403786876112L35.49205819477098,153.97459556033954L35.719453900208165,130.7748626347601L35.94684960564535,111.06258985189434L36.17424531108253,84.9026251988639L36.40164101651972,115.87503755113222L36.6290367219569,109.68625513075696L36.85643242739408,142.39939213409912L37.08382813283126,111.98989428583067L37.31122383826845,98.93355730001949L37.53861954370563,151.13855132635942L37.76601524914281,89.06435769798296L37.99341095458,99.11704762257995L38.22080666001718,147.28383883518438L38.448202365454364,129.1649536086457L38.675598070891546,108.40107926369153L38.902993776328735,111.0102321415238L39.13038948176592,136.79956960460143L39.3577851872031,131.98644979710042L39.58518089264028,142.74278702258187L39.81257659807747,131.53965987077646L40.03997230351465,98.02392311666071L40.267368008951834,128.5537593277441L40.494763714389016,129.3658567786191L40.722159419826205,14.913513061728537L40.94955512526338,87.31599913638851L41.17695083070056,99.23166829843304L41.404346536137744,112.83554471588428L41.63174224157493,130.12124449895157L41.859137947012115,105.47497252245164L42.0865336524493,122.39736203885624L42.31392935788649,152.09698962639965L42.54132506332367,135.40176555284594L42.76872076876085,82.58971476313917L42.99611647419803,145.0515909244861L43.22351217963522,127.92847937366838L43.450907885072404,129.00984913507074L43.678303590509586,133.30187053600682L43.90569929594677,129.36803517206766L44.13309500138396,136.88401214276735L44.36049070682114,109.77854369871802L44.587886412258314,114.71410637824091L44.815282117695496,148.31031975509757L45.042677823132685,82.63236742085911L45.27007352856987,119.0796545164736L45.49746923400705,132.76236303644745L45.72486493944423,111.6695465140305L45.95226064488142,106.97746816132188L46.1796563503186,93.13333925678971L46.407052055755784,126.87154861272762L46.63444776119297,139.78274358077906L46.861843466630155,112.27110247643523L47.08923917206734,91.95546237556198L47.31663487750452,122.18792643064876L47.54403058294171,117.70205661313953L47.77142628837889,140.99296269296676L47.99882199381607,122.88173759393767L48.226217699253255,92.00747688171306L48.45361340469044,118.7880357978784L48.68100911012762,118.99228520899163L48.9084048155648,146.9738825244738L49.13580052100198,100.45804184256228L49.36319622643917,132.7951771732092L49.590591931876354,91.00611183724985L49.817987637313536,112.46451235428349L50.04538334275072,115.68985980782602L50.27277904818791,140.154448050643L50.50017475362509,104.67318549833664L50.72757045906227,116.46848531385193L50.95496616449946,126.21962743111538L51.18236186993664,103.92019544081518L51.409757575373824,46.4703974330323L51.637153280811006,142.98750116451592L51.864548986248195,130.90440792743496L52.09194469168538,132.81933493687978L52.31934039712255,111.29175016927094L52.546736102559734,105.07451039903111L52.77413180799692,108.02014641370401L53.001527513434105,113.58365841345409L53.22892321887129,112.39327841184198L53.45631892430847,114.5969259709176L53.68371462974566,96.72333166007066L53.91111033518284,143.02952223113752L54.13850604062002,112.30910757701648L54.365901746057204,107.11161811060798L54.593297451494394,111.98412178152816L54.820693156931576,145.7228054266305L55.04808886236876,112.34062516450466L55.27548456780595,140.54032876146124L55.50288027324313,147.75508921223363L55.73027597868031,117.50979551608145L55.957671684117486,88.66918663961263L56.185067389554675,19.471760835744163L56.41246309499186,132.30521978283608L56.63985880042904,144.12322351081448L56.86725450586622,136.79118493485072L57.09465021130341,140.7648796555013L57.32204591674059,78.37081969457698L57.549441622177774,75.9956462933697L57.776837327614956,97.59707240214301L58.004233033052145,106.25116223186436L58.23162873848933,129.75644224727927L58.45902444392651,139.65603448964012L58.68642014936369,115.441127316489L58.91381585480088,148.00464634704247L59.14121156023806,119.13655014930161L59.368607265675244,118.9221190130107L59.59600297111243,26.58946360992246L59.82339867654961,49.13699888382398L60.05079438198679,146.21219319333377L60.27819008742397,150.079775842739L60.50558579286116,123.60806735702154L60.732981498298344,109.38264809810659L60.960377203735526,135.51947983339954L61.18777290917271,120.45437808446958L61.4151686146099,96.72202557734656L61.64256432004708,119.58995629030096L61.86996002548426,131.92332405434394L62.09735573092144,144.10536497458878L62.32475143635863,145.82477759697844L62.552147141795814,99.57212688414921L62.779542847232996,147.1793617507068L63.00693855267018,116.35657213795244L63.23433425810737,120.69016891669736L63.46172996354455,139.90570602585544L63.689125668981724,145.6729573971148L63.91652137441891,62.13726011355365L64.1439170798561,116.2894900132215L64.37131278529328,136.23970818813726L64.59870849073046,143.02912420957742L64.82610419616765,122.56751983083528L65.05349990160484,117.18590606740534L65.28089560704201,143.46365173514317L65.50829131247919,138.80432555176776L65.73568701791638,111.06182717585108L65.96308272335357,127.40481170218271L66.19047842879074,149.21436495307677L66.41787413422793,110.86661070912533L66.64526983966512,140.6411974349091L66.8726655451023,100.83452733787247L67.10006125053948,121.74763831759368L67.32745695597667,121.09185132178712L67.55485266141385,135.8171427596377L67.78224836685104,152.4085046562737L68.00964407228822,141.42864614941058L68.2370397777254,134.072111372282L68.46443548316259,100.46067307491157L68.69183118859978,143.62900943477487L68.91922689403695,121.4381300790585L69.14662259947414,106.74351251832323L69.3740183049113,114.52250308927016L69.60141401034849,139.8640210133654L69.82880971578568,112.50096826915184L70.05620542122286,157.8232995943112L70.28360112666005,150.51582872039128L70.51099683209723,150.25055569236582L70.73839253753441,140.39888095578607L70.9657882429716,134.8676253859411L71.19318394840877,95.52348017534617L71.42057965384596,90.90867043927145L71.64797535928315,56.240849554366335L71.87537106472033,139.67735605177484L72.10276677015752,130.45226973535756L72.3301624755947,121.16858606519071L72.55755818103188,151.6211036090249L72.78495388646907,142.12694041781634L73.01234959190626,151.00183926224048L73.23974529734343,134.7128164493329L73.46714100278062,106.72990828440138L73.6945367082178,132.7157921305552L73.92193241365499,101.2634849449597L74.14932811909217,129.5346465204455L74.37672382452935,126.49387143609982L74.60411952996654,152.58811248110138L74.83151523540373,136.17988101926792L75.0589109408409,130.49968911834793L75.28630664627809,141.72812996470202L75.51370235171527,125.45507329808783L75.74109805715246,137.39496695795674L75.96849376258965,147.67647399571084L76.19588946802682,98.8361445023927L76.42328517346401,153.00323943481644L76.6506808789012,150.49564640559623L76.87807658433836,107.10950645131317L77.10547228977555,143.0386552767557L77.33286799521274,133.01676316413102L77.56026370064991,140.8331486948246L77.7876594060871,140.31165465006222L78.01505511152428,84.01868366471282L78.24245081696147,140.59660948672936L78.46984652239865,154.5866144847129L78.69724222783583,141.5582510261513L78.92463793327302,151.70484305521342L79.15203363871021,129.13478500440905L79.37942934414738,139.37479293195867L79.60682504958457,148.67480740290205L79.83422075502175,126.22229679726682L80.06161646045894,126.83356734577272L80.28901216589612,142.37546793996674L80.5164078713333,144.94328377625374L80.74380357677049,123.41955290602603L80.97119928220768,129.6048651504044L81.19859498764485,96.54598087965853L81.42599069308204,104.93490254931037L81.65338639851923,133.09094294278967L81.8807821039564,118.05912723642321L82.1081778093936,141.35465465640013L82.33557351483077,138.43647259592234L82.56296922026796,128.09326029954235L82.79036492570515,143.11033490800997L83.01776063114232,122.3089726521664L83.24515633657951,142.82023200805077L83.4725520420167,148.70317895171172L83.69994774745388,138.57285337263502L83.92734345289107,134.1009166930913L84.15473915832824,156.67592737145165L84.38213486376542,143.41067196712484L84.6095305692026,131.03600291197608L84.83692627463978,128.69518329979292L85.06432198007697,98.58772184819824L85.29171768551416,160.85651703574058L85.51911339095133,134.68152289793244L85.74650909638852,137.39564383294515L85.97390480182571,81.7663964409776L86.20130050726289,143.93574820592792L86.42869621270007,108.39663667573947L86.65609191813725,102.85734440708852L86.88348762357444,130.47003055371522L87.11088332901163,84.08369226395112L87.3382790344488,133.933204231176L87.56567473988599,142.26245365052978L87.79307044532318,141.7498423983089L88.02046615076036,111.04604454848065L88.24786185619755,78.08902996348941L88.47525756163472,135.9501772952105L88.70265326707191,117.93145526677964L88.9300489725091,103.80237629230562L89.15744467794627,131.3545393281735L89.38484038338346,130.8615979677811L89.61223608882065,141.97887401410318L89.83963179425783,112.23085224825161L90.06702749969502,114.50172016709101L90.2944232051322,133.6481349931024L90.52181891056938,51.42791564915086L90.74921461600657,119.84040480273535L90.97661032144374,131.89563414724793L91.20400602688093,144.16822139736746L91.43140173231812,117.03613079268274L91.6587974377553,115.71328826253026L91.88619314319249,115.92272387073774L92.11358884862966,129.67836805407464L92.34098455406684,145.30111707558066L92.56838025950402,144.06869694044588L92.7957759649412,143.39823319753162L93.02317167037839,95.97179068703142L93.25056737581558,144.61032324938796L93.47796308125275,156.15151370746116L93.70535878668994,123.89704530981692L93.93275449212713,159.1593125863859L94.1601501975643,129.4120463464897L94.3875459030015,117.3243031689074L94.61494160843868,144.97690110622352L94.84233731387586,135.94765093081716L95.06973301931305,150.113378872533L95.29712872475022,133.79216636387412L95.52452443018741,135.45035755025285L95.7519201356246,136.90779810186683L95.97931584106178,107.92137033264989L96.20671154649897,65.91001829715394L96.43410725193615,138.44401355530022L96.66150295737333,128.8077781174061L96.88889866281052,120.55072313563579L97.1162943682477,134.9352509173529L97.34369007368488,107.91463018311747L97.57108577912207,100.99955136673523L97.79848148455925,120.14087056343249L98.02587718999644,56.44499886424889L98.25327289543362,124.61197783277916L98.4806686008708,135.30261290049543L98.70806430630799,110.06084823613479L98.93546001174518,133.95109851784125L99.16285571718235,126.26394367595469L99.39025142261954,139.7060803382545L99.6176471280567,130.82478454851747L99.84504283349389,116.13688330368825L100.07243853893108,121.65323332361254L100.29983424436826,149.8994553924834L100.52722994980545,140.27816840503738L100.75462565524263,124.20009463561065L100.98202136067981,111.66237259249849L101.209417066117,107.50828115398795L101.43681277155417,148.7169810047323L101.66420847699136,140.90566488636387L101.89160418242855,137.23345600561828L102.11899988786573,130.3669787200935L102.34639559330292,111.91671075275354L102.5737912987401,95.67025717987367L102.80118700417728,95.70762830599396L103.02858270961447,145.32670724019505L103.25597841505166,159.55312989477943L103.48337412048883,141.44106108537747L103.71076982592602,121.61094770373845L103.9381655313632,115.37636182023948L104.16556123680039,138.75337879207729L104.39295694223757,135.45011444726407L104.62035264767475,132.50802964291765L104.84774835311194,90.98260234821602L105.07514405854913,91.77195298610043L105.3025397639863,143.83990127755249L105.52993546942349,145.07115118163338L105.75733117486067,106.43903317494835L105.98472688029786,158.49777691990317L106.21212258573505,143.94112745539562L106.43951829117222,138.49539885371559L106.66691399660941,109.07490831464673L106.8943097020466,112.4667050479079L107.12170540748376,145.85833295951974L107.34910111292095,147.6013051215586L107.57649681835814,144.0202693950608L107.80389252379531,122.50379348069472L108.0312882292325,62.77075790199562L108.25868393466968,131.86399262490272L108.48607964010687,140.31161651626007L108.71347534554405,122.91859868045401L108.94087105098123,140.14292687566433L109.16826675641842,126.28149475840047L109.39566246185561,124.0073949998277L109.62305816729278,127.67810236211307L109.85045387272997,138.41726745980773L110.07784957816715,142.14696304731484L110.30524528360434,140.4992538898058L110.53264098904152,138.2066020364805L110.7600366944787,113.97175088479781L110.98743239991589,121.29108613791584L111.21482810535308,136.75215498833632L111.44222381079025,114.09634831664194L111.66961951622744,129.16874792196097L111.89701522166463,150.11861512024257L112.1244109271018,154.4956486830144L112.351806632539,99.34349567327764L112.57920233797617,105.45861312132348L112.80659804341336,-4.366594107942973L113.03399374885055,141.52472903068693L113.26138945428772,118.46945171442829L113.48878515972491,130.99567164946288L113.7161808651621,122.28781315869091L113.94357657059928,151.2647289276307L114.17097227603647,157.24587994531336L114.39836798147364,148.93925578745572L114.62576368691083,149.93623782803274L114.853159392348,122.12794672657077L115.08055509778518,124.37445191255294L115.30795080322237,110.73387647724455L115.53534650865956,80.31844643937704L115.76274221409673,129.0558623341063L115.99013791953392,138.47236127048353L116.21753362497111,152.28600220018592L116.44492933040829,127.4674989062143L116.67232503584547,102.60214346955951L116.89972074128265,136.49728772157624L117.12711644671984,119.13834720472857L117.35451215215703,117.13132706305876L117.5819078575942,144.51139224976254L117.80930356303139,138.46464870899595L118.03669926846858,131.7504396955102L118.26409497390576,135.44943757227566L118.49149067934295,131.5118793959003L118.71888638478012,129.09306185811687L118.94628209021731,141.28429540804575L119.1736777956545,140.01159882773834L119.40107350109167,154.38697211357356L119.62846920652886,138.09824007090748L119.85586491196605,149.67268558782993L120.08326061740323,87.19021478995204L120.31065632284042,108.24498331126031L120.5380520282776,136.21234718508492L120.76544773371478,142.71744472768157L120.99284343915197,126.19659938133387L121.22023914458914,152.78077874980744L121.44763485002633,129.36953669052787L121.67503055546352,139.4092515889387L121.9024262609007,126.60828714276627L122.12982196633789,105.28359803629387L122.35721767177506,148.180576643324L122.58461337721224,121.64479621988386L122.81200908264942,142.81887587471132L123.0394047880866,98.33371259198684L123.26680049352379,130.78791392855058L123.49419619896098,45.35843482884425L123.72159190439815,120.44654635485024L123.94898760983534,127.99318766921468L124.17638331527253,130.74702972590597L124.4037790207097,123.12966927542925L124.6311747261469,143.6889629218639L124.85857043158408,129.19316308879618L125.08596613702126,116.96780455265619L125.31336184245845,153.54949900072137L125.54075754789562,146.22948925597757L125.76815325333281,63.116660087970644L125.99554895877,122.01294947942131L126.22294466420718,75.00472037724877L126.45034036964437,108.35416038685455L126.67773607508155,144.0969969883765L126.90513178051873,161.9185577261713L127.13252748595592,116.03325946303406L127.3599231913931,149.6280976396502L127.58731889683028,142.94922197723162L127.81471460226747,149.3155911309199L128.04211030770463,152.91844654234313L128.26950601314184,86.09773855866958L128.496901718579,132.60319731294206L128.72429742401619,143.4686949304793L128.9516931294534,139.2130436433567L129.17908883489056,157.35938044072788L129.40648454032774,120.64896057673437L129.63388024576494,155.03655521644063L129.86127595120212,145.4632834526438L130.0886716566393,115.48251679201226L130.3160673620765,108.69816541617195L130.54346306751367,148.632064177402L130.77085877295085,123.88062394126024L130.99825447838805,112.3676620302386L131.22565018382522,86.30822761316183L131.4530458892624,28.622214534602108L131.68044159469957,141.9005305009208L131.90783730013678,152.82240656159422L132.13523300557395,109.71888813195841L132.36262871101113,121.45932770633615L132.59002441644833,130.8971768051997L132.8174201218855,132.27599975692826L133.04481582732268,138.88575551956276L133.27221153275988,125.04509679102749L133.49960723819706,125.25953269404367L133.72700294363426,140.46920445370094L133.9543986490714,140.2491819486678L134.18179435450858,136.06641389093028L134.4091900599458,124.24836249569917L134.63658576538296,127.76796466691147L134.86398147082016,145.6833703084681L135.0913771762573,142.32956914233765L135.3187728816945,74.3462544818402L135.5461685871317,127.58536572197659L135.7735642925689,48.6810139444533L136.00095999800607,98.30709519807668L136.22835570344327,118.48892378715804L136.45575140888042,145.03771737058648L136.68314711431762,127.65191874020252L136.9105428197548,99.48636396308339L137.137938525192,147.5716942241786L137.36533423062917,118.96291741460043L137.59272993606635,148.695049301763L137.82012564150352,123.45913102594652L138.04752134694073,105.8763975243768L138.2749170523779,88.25982027338691L138.5023127578151,131.5791807899937L138.72970846325228,148.4898918294857L138.95710416868945,137.7042988276569L139.18449987412663,155.39199800304445L139.41189557956383,151.2385953563355L139.639291285001,137.06552904106582L139.8666869904382,148.41537122997025L140.09408269587536,136.48555681068567L140.32147840131256,127.5198327829585L140.54887410674974,124.02630936570081L140.77626981218694,133.84041039033627L141.0036655176241,41.069831169927085L141.23106122306132,138.23775258612284L141.45845692849846,142.52689965172084L141.68585263393564,138.68188267974588L141.91324833937284,131.57307461492226L142.14064404481002,154.66832092257357L142.36803975024722,160.57737998726603L142.59543545568437,148.4530879436726L142.82283116112157,134.98343297638655L143.05022686655875,126.36136124030676L143.27762257199595,135.72673704815844L143.50501827743312,80.72447609791345L143.7324139828703,112.54170470331304L143.95980968830747,151.6036526278098L144.18720539374468,145.48904760273055L144.41460109918185,83.19935032487732L144.64199680461905,146.81039099778548L144.86939251005623,135.38072046077696L145.0967882154934,64.24300866902489L145.32418392093058,146.5008088750086L145.55157962636778,139.68467297506496L145.77897533180496,131.7229118570734L146.00637103724216,120.02985353188384L146.2337667426793,80.81342319145993L146.4611624481165,145.76664976566803L146.68855815355369,142.13580652681938L146.9159538589909,119.71657481365975L147.14334956442806,116.81801021103249L147.37074526986527,162.71942477230908L147.5981409753024,161.4882702027336L147.82553668073962,131.86128035822384L148.0529323861768,141.07831090893404L148.280328091614,136.25623919137516L148.50772379705117,149.6045714670779L148.73511950248832,135.16524064492654L148.96251520792552,112.93957849491173L149.1899109133627,132.81105513508504L149.4173066187999,155.0263949415267L149.64470232423707,146.61093214556902L149.87209802967425,141.85814001309075L150.09949373511142,119.38355231936546L150.32688944054863,148.47804651718866L150.5542851459858,149.96492159734765L150.781680851423,135.322556879027L151.00907655686018,117.62875867865591L151.23647226229735,148.62214462211418L151.46386796773453,90.0914249251044L151.69126367317173,116.28310736808437L151.9186593786089,96.58411468182207L152.1460550840461,144.8233744187131L152.37345078948326,145.07994578975735L152.60084649492046,138.87548799333024L152.82824220035764,141.5506766996966L153.05563790579484,144.78366044712237L153.283033611232,110.91291467840242L153.51042931666922,125.92516297753372L153.73782502210636,139.73355097598807L153.96522072754357,104.3931689890497L154.19261643298074,164.57124272253586L154.42001213841795,148.02401116845363L154.64740784385512,137.38866058042396L154.8748035492923,141.34721141489032L155.10219925472947,144.42633003731146L155.32959496016667,145.25373820975508L155.55699066560385,69.56053857791898L155.78438637104105,145.39160143802687L156.01178207647823,97.32873436976864L156.23917778191537,149.1533794699667L156.46657348735258,135.3676167330085L156.69396919278975,123.26635035583396L156.92136489822695,123.21406414634245L157.14876060366413,69.2490330814955L157.3761563091013,145.4905944050808L157.60355201453848,104.77300549222501L157.83094771997568,136.35793727502008L158.05834342541286,112.62792046327957L158.28573913085006,145.60513642996693L158.5131348362872,119.21568255551625L158.7405305417244,142.27831254550455L158.96792624716159,91.91666123186056L159.1953219525988,116.92260646364184L159.42271765803596,97.97616052945085L159.65011336347317,132.17170380801093L159.8775090689103,148.5966140415657L160.10490477434752,110.24594494511139L160.3323004797847,100.01117088190871L160.5596961852219,121.29345043364998L160.78709189065907,142.62592598585167L161.01448759609625,116.30964849439019L161.24188330153342,102.3149911725427L161.46927900697062,142.64517402249373L161.6966747124078,121.22305066813081L161.924070417845,139.92771399642908L162.15146612328218,134.7854899428061L162.37886182871935,132.8997924927196L162.60625753415653,84.86417679283252L162.83365323959373,91.65362379798694L163.0610489450309,123.12423520862095L163.2884446504681,148.16014407545222L163.51584035590525,145.744644178457L163.74323606134243,143.75604504659483L163.97063176677963,130.23458292570692L164.1980274722168,159.54561991911584L164.425423177654,143.7730074384697L164.6528188830912,114.95549334593619L164.88021458852836,132.1764037991276L165.10761029396554,128.4043558575926L165.33500599940274,143.92171735009438L165.5624017048399,125.95885895847047L165.78979741027712,119.47517354578866L166.01719311571426,106.85356190464195L166.24458882115147,149.19784825001466L166.47198452658864,137.3550075000146L166.69938023202585,151.01711185000698L166.92677593746302,121.59355868995186L167.1541716429002,145.71136051925615L167.38156734833737,137.91492135045675L167.60896305377457,138.4503866669868L167.83635875921175,153.77073702069848L168.06375446464895,141.5596500600182L168.29115017008613,88.68192332953525L168.5185458755233,157.9088051122124L168.74594158096048,130.8576463525319L168.97333728639768,129.74042605037056L169.20073299183485,159.6431733351381L169.42812869727206,152.70596738005048L169.6555244027092,145.1252797304419L169.8829201081464,125.54802920758675L170.11031581358358,145.2216295483334L170.3377115190208,153.96926874484984L170.56510722445796,118.2775290548644L170.79250292989516,137.61018460391728L171.0198986353323,134.92066473802532L171.2472943407695,125.39425941708751L171.4746900462067,113.45333137783489L171.70208575164386,146.86718414602018L171.92948145708107,111.99178667576304L172.1568771625182,134.88684482223152L172.38427286795542,134.25159287889002L172.6116685733926,121.18580824359282L172.8390642788298,124.82519345412611L173.06645998426697,148.20495605971968L173.29385568970417,82.42628282051675L173.52125139514132,158.9811991299305L173.74864710057852,120.62198567842893L173.9760428060157,149.69091592862674L174.2034385114529,150.32890397227348L174.43083421689008,70.37750762202033L174.65822992232725,124.79187881121098L174.88562562776443,128.32689180522263L175.11302133320163,116.03639120153673L175.3404170386388,126.15015717702394L175.567812744076,127.24047408175889L175.79520844951315,107.4433774227056L176.02260415495036,143.30538692271392L176.24999986038753,145.83426338026663L176.47739556582474,138.99947051761447L176.7047912712619,111.79862466762884L176.93218697669911,123.7768809324743L177.15958268213626,154.09673574530677L177.38697838757346,119.77937641909784L177.61437409301064,132.22560117064384L177.84176979844784,152.6056659469098L178.06916550388502,156.49294470513252L178.2965612093222,138.05556357956118L178.52395691475937,139.07381713165756L178.75135262019657,108.04453774691287L178.97874832563375,119.90157618813095L179.20614403107095,121.63201186270854L179.43353973650812,137.63808901365047L179.66093544194527,66.46834482808102L179.88833114738247,142.67114790849237L180.11572685281965,138.66417906209145L180.34312255825685,148.29536415456155L180.57051826369403,147.35335675652854L180.7979139691312,87.82056653971551L181.02530967456838,111.9469413244187L181.25270538000558,133.2343975398037L181.48010108544275,87.43314617663493L181.70749679087996,139.53228076816885L181.93489249631713,116.71504417846563L182.1622882017543,96.5255697620505L182.38968390719148,136.85778085360408L182.6170796126287,106.62998818928233L182.84447531806586,127.0799212411998L183.07187102350306,149.68479068665422L183.2992667289402,149.31178966751673L183.5266624343774,146.95302810141558L183.7540581398146,140.22639700187506L183.9814538452518,130.75794076005002L184.20884955068897,157.06767830444045L184.43624525612614,162.96947168813944L184.66364096156332,155.03087327991827L184.89103666700052,139.9207879446111L185.1184323724377,48.848011397578034L185.3458280778749,105.5801789158956L185.57322378331207,147.95544420880094L185.80061948874925,148.25056647046992L186.02801519418642,119.02837408601417L186.25541089962363,110.63920454664827L186.4828066050608,128.41555289525286L186.710202310498,107.67982129629542L186.93759801593515,65.1848945155635L187.16499372137233,145.84075327672235L187.39238942680953,142.46360230685463L187.6197851322467,152.1882223647133L187.8471808376839,148.17791919398573L188.07457654312108,104.00452834429987L188.30197224855826,147.9268867577057L188.52936795399543,140.5286884183508L188.75676365943264,111.62167429213943L188.9841593648698,136.2728273953163L189.211555070307,135.66414994535754L189.43895077574416,100.68060977888983L189.66634648118136,145.7700984914012L189.89374218661854,140.12592396662467L190.12113789205574,110.3214689402963L190.34853359749292,148.40060629844504L190.57592930293012,112.00087682085378L190.80332500836727,138.90926024187132L191.03072071380447,152.7769320025142L191.25811641924165,129.71605378406278L191.48551212467885,143.50056287227486L191.71290783011602,149.57459591521473L191.9403035355532,47.29319141541416L192.16769924099037,139.5166459092818L192.39509494642758,147.2901738130688L192.62249065186475,118.2455633952008L192.84988635730195,147.21166108113934L193.0772820627391,154.40781461981857L193.3046777681763,152.0956406431481L193.53207347361348,137.22085278400323L193.75946917905068,121.9137014925654L193.98686488448786,123.1655627167157L194.21426058992506,130.48803447506168L194.4416562953622,61.68876846630813L194.66905200079938,94.11083254109855L194.8964477062366,121.50999799596097L195.12384341167376,142.09210042281467L195.35123911711096,154.69251443668372L195.5786348225481,119.10299240339769L195.8060305279853,147.9871524652999L196.0334262334225,96.71475155458386L196.2608219388597,139.7218248318228L196.48821764429687,159.87169252796582L196.71561334973407,135.16355799090607L196.94300905517122,151.78800096091894L197.17040476060842,132.37768354039736L197.3978004660456,105.53804583123016L197.6251961714828,127.86374724449576L197.85259187691997,107.10509246371274L198.07998758235715,116.93410857171942L198.30738328779432,132.9596625621164L198.53477899323153,135.77012378157002L198.7621746986687,138.66441739835497L198.9895704041059,124.36461815832001L199.21696610954308,142.39753311124363L199.44436181498025,139.8470562381279L199.67175752041743,107.10312380617604L199.89915322585463,94.17841517198289L200.1265489312918,107.51444452976264L200.353944636729,119.00542707056223L200.58134034216616,138.5911909647504L200.80873604760336,93.1755152419826L201.03613175304054,140.85318800786155L201.26352745847774,158.25992686235858L201.4909231639149,126.68276722511696L201.71831886935206,123.91842883938014L201.94571457478926,88.69187625189994L202.17311028022644,134.38070439956527L202.40050598566364,47.507875188144396L202.62790169110082,149.41796132282795L202.85529739653802,141.1695412638851L203.08269310197517,151.15449363902644L203.31008880741237,115.95395545470969L203.53748451284955,111.91133865337376L203.76488021828675,130.3027566305248L203.99227592372392,115.08303661399745L204.2196716291611,144.98441346524976L204.44706733459827,153.5202479910993L204.67446304003548,107.47608669151137L204.90185874547265,149.73104222195332L205.12925445090985,138.95288054482114L205.35665015634703,130.11418974555133L205.5840458617842,89.84412721807378L205.81144156722138,127.03773572255636L206.03883727265858,123.84308121303022L206.26623297809576,111.01190049536845L206.49362868353296,145.38593856840558L206.7210243889701,131.0436773396615L206.9484200944073,140.3399785316192L207.1758157998445,131.35989712737748L207.4032115052817,125.95806291535033L207.63060721071886,119.70239857270545L207.85800291615607,157.7418219592635L208.0853986215932,124.46000986443214L208.31279432703042,150.0996983710068L208.5401900324676,124.43510849161933L208.7675857379048,128.49621542027933L208.99498144334197,89.28339825761039L209.22237714877912,149.0935689846358L209.44977285421632,137.68626630595884L209.6771685596535,125.78276182680447L209.9045642650907,147.29301001460473L210.13195997052787,151.6623596162406L210.35935567596505,145.26844117385178L210.58675138140222,152.23710751572435L210.81414708683943,151.29699489098635L211.0415427922766,143.70567506066206L211.2689384977138,96.77052224024804L211.49633420315098,150.05023644623805L211.72372990858815,108.97655647214167L211.95112561402533,145.56634481971605L212.17852131946253,132.23708421182036L212.4059170248997,51.31920571263312L212.6333127303369,124.58482179891344L212.86070843577406,147.29396574302146L213.08810414121126,151.9214645017661L213.31549984664844,120.51791853232459L213.54289555208564,129.40436238535372L213.7702912575228,138.08972669957447L213.99768696296002,115.34922485327483L214.22508266839716,151.7180230505862L214.45247837383437,125.35240280248773L214.67987407927154,121.6126160575831L214.90726978470875,152.71564144898684L215.13466549014592,135.31027779473033L215.3620611955831,122.53011057091284L215.58945690102027,124.56350500350402L215.81685260645747,156.0429181723499L216.04424831189465,137.1537992596239L216.27164401733185,116.50689558608117L216.49903972276903,121.5894879065709L216.72643542820617,125.95307692071742L216.95383113364338,155.3403243177502L217.18122683908055,146.6724252849204L217.40862254451775,160.3356498153513L217.63601824995493,120.04429194272802L217.8634139553921,109.88412189673308L218.09080966082928,112.26296090967331L218.31820536626648,81.34127128100779L218.54560107170366,72.25399575888432L218.77299677714086,122.36215023928348L219.000392482578,156.54324557354886L219.2277881880152,123.47150544474859L219.45518389345239,138.97006935614638L219.6825795988896,134.9842623865836L219.90997530432676,87.8719041708782L220.13737100976397,139.72613395146726L220.3647667152011,129.3748515892044L220.59216242063832,146.74882159082978L220.8195581260755,134.4473193852197L221.0469538315127,120.2283304386946L221.27434953694987,141.6948153217869L221.50174524238705,96.26388607815367L221.72914094782422,110.94377445780327L221.95653665326142,116.33336295261066L222.1839323586986,138.20362759991173L222.4113280641358,115.54287306738661L222.63872376957298,124.4936248110393L222.86611947501015,161.80127721761727L223.09351518044733,104.48331253063907L223.32091088588453,117.68246060555273L223.5483065913217,135.3378771340462L223.7757022967589,127.41059850666102L224.00309800219605,128.2943827388782L224.23049370763326,150.79574274508494L224.45788941307043,143.40198699368207L224.6852851185076,131.9731315666948L224.9126808239448,135.91135231788274L225.140076529382,90.8725672620731L225.36747223481916,33.71147550374519L225.59486794025634,132.51096594568423L225.82226364569354,102.83587984319573L226.0496593511307,137.30592452990484L226.27705505656792,140.860986370404L226.50445076200506,144.4201070774709L226.73184646744227,145.78800231151698L226.95924217287944,160.55144661843218L227.18663787831665,144.53457045139007L227.41403358375382,157.60016918440172L227.641429289191,84.97253399168024L227.86882499462817,144.6911406929857L228.09622070006537,160.0641848111995L228.32361640550255,155.40720862338245L228.55101211093975,149.2067477260946L228.77840781637693,99.25952504091352L229.0058035218141,109.82310781327139L229.23319922725128,153.11617745664904L229.46059493268848,153.0615531684124L229.68799063812565,141.62102164787515L229.91538634356286,152.62354116667396L230.142782049,146.1893581959257L230.3701777544372,136.0570091419717L230.59757345987438,131.34475324119327L230.8249691653116,162.866751141924L231.05236487074876,110.21175322474649L231.27976057618596,140.32608352745586L231.5071562816231,120.73406568971288L231.7345519870603,132.75918363069206L231.9619476924975,131.11228004975374L232.1893433979347,151.67434793029577L232.41673910337187,130.30978278357344L232.644134808809,145.82175310979434L232.87153051424622,128.81153906364446L233.0989262196834,128.76166958386506L233.3263219251206,140.49197033359258L233.55371763055777,138.2986236678264L233.78111333599497,139.53599404715453L234.00850904143212,130.4206997138914L234.23590474686932,127.10041339313744L234.4633004523065,105.32765211124331L234.6906961577437,61.79385569162034L234.91809186318088,110.84343012413515L235.14548756861805,111.22353833065088L235.37288327405523,130.04179272214384L235.60027897949243,156.24838071504448L235.8276746849296,141.7496040620454L236.0550703903668,154.63882919332536L236.28246609580395,100.22184107196124L236.50986180124116,143.78633520232586L236.73725750667833,137.2709701334967L236.96465321211554,106.16457466732675L237.1920489175527,145.9835214652974L237.41944462298991,156.0614178331245L237.64684032842706,139.50083468155975L237.87423603386426,155.771565186242L238.10163173930144,127.59947999550235L238.32902744473864,134.747170238357L238.55642315017582,129.6213961536423L238.783818855613,132.89567404208594L239.01121456105017,148.43133975962624L239.23861026648737,150.17364934685247L239.46600597192455,107.69163800824084" style="fill: none;" fill="none"></path></g></g></g></g></g></g><g transform="translate(64, 177)" clip-path="url(#clip_1)"><clipPath id="clip_1"><rect width="266" height="23"></rect></clipPath><g><g><line x1="23.364287238121197" y1="0" x2="23.364287238121197" y2="5" style="visibility: inherit;" fill="rgb(0, 0, 0)" stroke="rgb(204, 204, 204)" stroke-width="1px"></line><line x1="61.26357147765177" y1="0" x2="61.26357147765177" y2="5" style="visibility: inherit;" fill="rgb(0, 0, 0)" stroke="rgb(204, 204, 204)" stroke-width="1px"></line><line x1="99.16285571718235" y1="0" x2="99.16285571718235" y2="5" style="visibility: inherit;" fill="rgb(0, 0, 0)" stroke="rgb(204, 204, 204)" stroke-width="1px"></line><line x1="137.06213995671294" y1="0" x2="137.06213995671294" y2="5" style="visibility: inherit;" fill="rgb(0, 0, 0)" stroke="rgb(204, 204, 204)" stroke-width="1px"></line><line x1="174.96142419624348" y1="0" x2="174.96142419624348" y2="5" style="visibility: inherit;" fill="rgb(0, 0, 0)" stroke="rgb(204, 204, 204)" stroke-width="1px"></line><line x1="212.86070843577406" y1="0" x2="212.86070843577406" y2="5" style="visibility: inherit;" fill="rgb(0, 0, 0)" stroke="rgb(204, 204, 204)" stroke-width="1px"></line><line x1="250.75999267530466" y1="0" x2="250.75999267530466" y2="5" style="visibility: inherit;" fill="rgb(0, 0, 0)" stroke="rgb(204, 204, 204)" stroke-width="1px"></line></g><g transform="translate(0, 8)"><text x="23.364287238121197" y="0" dx="0em" dy="0.95em" style="text-anchor: middle; visibility: inherit; font-family: &quot;Helvetica Neue&quot;, sans-serif; font-size: 12px; font-weight: 200;" fill="rgb(50, 49, 63)" stroke="none" stroke-width="1px">0</text><text x="61.26357147765177" y="0" dx="0em" dy="0.95em" style="text-anchor: middle; visibility: inherit; font-family: &quot;Helvetica Neue&quot;, sans-serif; font-size: 12px; font-weight: 200;" fill="rgb(50, 49, 63)" stroke="none" stroke-width="1px">50k</text><text x="99.16285571718235" y="0" dx="0em" dy="0.95em" style="text-anchor: middle; visibility: inherit; font-family: &quot;Helvetica Neue&quot;, sans-serif; font-size: 12px; font-weight: 200;" fill="rgb(50, 49, 63)" stroke="none" stroke-width="1px">100k</text><text x="137.06213995671294" y="0" dx="0em" dy="0.95em" style="text-anchor: middle; visibility: inherit; font-family: &quot;Helvetica Neue&quot;, sans-serif; font-size: 12px; font-weight: 200;" fill="rgb(50, 49, 63)" stroke="none" stroke-width="1px">150k</text><text x="174.96142419624348" y="0" dx="0em" dy="0.95em" style="text-anchor: middle; visibility: inherit; font-family: &quot;Helvetica Neue&quot;, sans-serif; font-size: 12px; font-weight: 200;" fill="rgb(50, 49, 63)" stroke="none" stroke-width="1px">200k</text><text x="212.86070843577406" y="0" dx="0em" dy="0.95em" style="text-anchor: middle; visibility: inherit; font-family: &quot;Helvetica Neue&quot;, sans-serif; font-size: 12px; font-weight: 200;" fill="rgb(50, 49, 63)" stroke="none" stroke-width="1px">250k</text><text x="250.75999267530466" y="0" dx="0em" dy="0.95em" style="text-anchor: middle; visibility: inherit; font-family: &quot;Helvetica Neue&quot;, sans-serif; font-size: 12px; font-weight: 200;" fill="rgb(50, 49, 63)" stroke="none" stroke-width="1px">300k</text></g><line x1="0" y1="0" x2="266" y2="0" fill="rgb(0, 0, 0)" stroke="rgb(204, 204, 204)" stroke-width="1px"></line></g></g></g></g></svg>