<svg viewBox="0 0 330 200" xmlns="http://www.w3.org/2000/svg"><g><g><g><g><g><line x1="64" y1="167.98955738043708" x2="59" y2="167.98955738043708" style="visibility: inherit;" fill="rgb(0, 0, 0)" stroke="rgb(204, 204, 204)" stroke-width="1px"></line><line x1="64" y1="154.3146417199257" x2="59" y2="154.3146417199257" style="visibility: inherit;" fill="rgb(0, 0, 0)" stroke="rgb(204, 204, 204)" stroke-width="1px"></line><line x1="64" y1="140.63972605941433" x2="59" y2="140.63972605941433" style="visibility: inherit;" fill="rgb(0, 0, 0)" stroke="rgb(204, 204, 204)" stroke-width="1px"></line><line x1="64" y1="126.96481039890298" x2="59" y2="126.96481039890298" style="visibility: inherit;" fill="rgb(0, 0, 0)" stroke="rgb(204, 204, 204)" stroke-width="1px"></line><line x1="64" y1="113.28989473839161" x2="59" y2="113.28989473839161" style="visibility: inherit;" fill="rgb(0, 0, 0)" stroke="rgb(204, 204, 204)" stroke-width="1px"></line><line x1="64" y1="99.61497907788025" x2="59" y2="99.61497907788025" style="visibility: inherit;" fill="rgb(0, 0, 0)" stroke="rgb(204, 204, 204)" stroke-width="1px"></line><line x1="64" y1="85.94006341736889" x2="59" y2="85.94006341736889" style="visibility: inherit;" fill="rgb(0, 0, 0)" stroke="rgb(204, 204, 204)" stroke-width="1px"></line><line x1="64" y1="72.26514775685752" x2="59" y2="72.26514775685752" style="visibility: inherit;" fill="rgb(0, 0, 0)" stroke="rgb(204, 204, 204)" stroke-width="1px"></line><line x1="64" y1="58.590232096346156" x2="59" y2="58.590232096346156" style="visibility: inherit;" fill="rgb(0, 0, 0)" stroke="rgb(204, 204, 204)" stroke-width="1px"></line><line x1="64" y1="44.9153164358348" x2="59" y2="44.9153164358348" style="visibility: inherit;" fill="rgb(0, 0, 0)" stroke="rgb(204, 204, 204)" stroke-width="1px"></line><line x1="64" y1="31.240400775323423" x2="59" y2="31.240400775323423" style="visibility: inherit;" fill="rgb(0, 0, 0)" stroke="rgb(204, 204, 204)" stroke-width="1px"></line><line x1="64" y1="17.56548511481205" x2="59" y2="17.56548511481205" style="visibility: inherit;" fill="rgb(0, 0, 0)" stroke="rgb(204, 204, 204)" stroke-width="1px"></line><line x1="64" y1="3.890569454300703" x2="59" y2="3.890569454300703" style="visibility: inherit;" fill="rgb(0, 0, 0)" stroke="rgb(204, 204, 204)" stroke-width="1px"></line></g><g transform="translate(54, 0)"><text x="0" y="167.98955738043708" dx="0em" dy="0.3em" style="text-anchor: end; visibility: inherit; font-family: &quot;Helvetica Neue&quot;, sans-serif; font-size: 12px; font-weight: 200;" fill="rgb(50, 49, 63)" stroke="none" stroke-width="1px">0</text><text x="0" y="154.3146417199257" dx="0em" dy="0.3em" style="text-anchor: end; visibility: hidden; font-family: &quot;Helvetica Neue&quot;, sans-serif; font-size: 12px; font-weight: 200;" fill="rgb(50, 49, 63)" stroke="none" stroke-width="1px">100</text><text x="0" y="140.63972605941433" dx="0em" dy="0.3em" style="text-anchor: end; visibility: inherit; font-family: &quot;Helvetica Neue&quot;, sans-serif; font-size: 12px; font-weight: 200;" fill="rgb(50, 49, 63)" stroke="none" stroke-width="1px">200</text><text x="0" y="126.96481039890298" dx="0em" dy="0.3em" style="text-anchor: end; visibility: hidden; font-family: &quot;Helvetica Neue&quot;, sans-serif; font-size: 12px; font-weight: 200;" fill="rgb(50, 49, 63)" stroke="none" stroke-width="1px">300</text><text x="0" y="113.28989473839161" dx="0em" dy="0.3em" style="text-anchor: end; visibility: inherit; font-family: &quot;Helvetica Neue&quot;, sans-serif; font-size: 12px; font-weight: 200;" fill="rgb(50, 49, 63)" stroke="none" stroke-width="1px">400</text><text x="0" y="99.61497907788025" dx="0em" dy="0.3em" style="text-anchor: end; visibility: hidden; font-family: &quot;Helvetica Neue&quot;, sans-serif; font-size: 12px; font-weight: 200;" fill="rgb(50, 49, 63)" stroke="none" stroke-width="1px">500</text><text x="0" y="85.94006341736889" dx="0em" dy="0.3em" style="text-anchor: end; visibility: inherit; font-family: &quot;Helvetica Neue&quot;, sans-serif; font-size: 12px; font-weight: 200;" fill="rgb(50, 49, 63)" stroke="none" stroke-width="1px">600</text><text x="0" y="72.26514775685752" dx="0em" dy="0.3em" style="text-anchor: end; visibility: hidden; font-family: &quot;Helvetica Neue&quot;, sans-serif; font-size: 12px; font-weight: 200;" fill="rgb(50, 49, 63)" stroke="none" stroke-width="1px">700</text><text x="0" y="58.590232096346156" dx="0em" dy="0.3em" style="text-anchor: end; visibility: inherit; font-family: &quot;Helvetica Neue&quot;, sans-serif; font-size: 12px; font-weight: 200;" fill="rgb(50, 49, 63)" stroke="none" stroke-width="1px">800</text><text x="0" y="44.9153164358348" dx="0em" dy="0.3em" style="text-anchor: end; visibility: hidden; font-family: &quot;Helvetica Neue&quot;, sans-serif; font-size: 12px; font-weight: 200;" fill="rgb(50, 49, 63)" stroke="none" stroke-width="1px">900</text><text x="0" y="31.240400775323423" dx="0em" dy="0.3em" style="text-anchor: end; visibility: inherit; font-family: &quot;Helvetica Neue&quot;, sans-serif; font-size: 12px; font-weight: 200;" fill="rgb(50, 49, 63)" stroke="none" stroke-width="1px">1e+3</text><text x="0" y="17.56548511481205" dx="0em" dy="0.3em" style="text-anchor: end; visibility: hidden; font-family: &quot;Helvetica Neue&quot;, sans-serif; font-size: 12px; font-weight: 200;" fill="rgb(50, 49, 63)" stroke="none" stroke-width="1px">1.1e+3</text><text x="0" y="3.890569454300703" dx="0em" dy="0.3em" style="text-anchor: end; visibility: hidden; font-family: &quot;Helvetica Neue&quot;, sans-serif; font-size: 12px; font-weight: 200;" fill="rgb(50, 49, 63)" stroke="none" stroke-width="1px">1.2e+3</text></g><line x1="64" y1="0" x2="64" y2="177" fill="rgb(0, 0, 0)" stroke="rgb(204, 204, 204)" stroke-width="1px"></line></g></g><g transform="translate(64, 0)" clip-path="url(#clip_0)"><clipPath id="clip_0"><rect width="266" height="177"></rect></clipPath><g><g><g><line x1="13.43259712787152" y1="0" x2="13.43259712787152" y2="177" fill="rgb(0, 0, 0)" stroke="rgb(60, 60, 60)" stroke-width="1px" opacity="0.25"></line><line x1="52.332018424167806" y1="0" x2="52.332018424167806" y2="177" fill="rgb(0, 0, 0)" stroke="rgb(60, 60, 60)" stroke-width="1px" opacity="0.25"></line><line x1="91.2314397204641" y1="0" x2="91.2314397204641" y2="177" fill="rgb(0, 0, 0)" stroke="rgb(60, 60, 60)" stroke-width="1px" opacity="0.25"></line><line x1="130.1308610167604" y1="0" x2="130.1308610167604" y2="177" fill="rgb(0, 0, 0)" stroke="rgb(60, 60, 60)" stroke-width="1px" opacity="0.25"></line><line x1="169.0302823130567" y1="0" x2="169.0302823130567" y2="177" fill="rgb(0, 0, 0)" stroke="rgb(60, 60, 60)" stroke-width="1px" opacity="0.25"></line><line x1="207.929703609353" y1="0" x2="207.929703609353" y2="177" fill="rgb(0, 0, 0)" stroke="rgb(60, 60, 60)" stroke-width="1px" opacity="0.25"></line><line x1="246.82912490564928" y1="0" x2="246.82912490564928" y2="177" fill="rgb(0, 0, 0)" stroke="rgb(60, 60, 60)" stroke-width="1px" opacity="0.25"></line></g><g><line x1="0" y1="167.98955738043708" x2="266" y2="167.98955738043708" fill="rgb(0, 0, 0)" stroke="rgb(60, 60, 60)" stroke-width="1px" opacity="0.25"></line><line x1="0" y1="154.3146417199257" x2="266" y2="154.3146417199257" fill="rgb(0, 0, 0)" stroke="rgb(60, 60, 60)" stroke-width="1px" opacity="0.25"></line><line x1="0" y1="140.63972605941433" x2="266" y2="140.63972605941433" fill="rgb(0, 0, 0)" stroke="rgb(60, 60, 60)" stroke-width="1px" opacity="0.25"></line><line x1="0" y1="126.96481039890298" x2="266" y2="126.96481039890298" fill="rgb(0, 0, 0)" stroke="rgb(60, 60, 60)" stroke-width="1px" opacity="0.25"></line><line x1="0" y1="113.28989473839161" x2="266" y2="113.28989473839161" fill="rgb(0, 0, 0)" stroke="rgb(60, 60, 60)" stroke-width="1px" opacity="0.25"></line><line x1="0" y1="99.61497907788025" x2="266" y2="99.61497907788025" fill="rgb(0, 0, 0)" stroke="rgb(60, 60, 60)" stroke-width="1px" opacity="0.25"></line><line x1="0" y1="85.94006341736889" x2="266" y2="85.94006341736889" fill="rgb(0, 0, 0)" stroke="rgb(60, 60, 60)" stroke-width="1px" opacity="0.25"></line><line x1="0" y1="72.26514775685752" x2="266" y2="72.26514775685752" fill="rgb(0, 0, 0)" stroke="rgb(60, 60, 60)" stroke-width="1px" opacity="0.25"></line><line x1="0" y1="58.590232096346156" x2="266" y2="58.590232096346156" fill="rgb(0, 0, 0)" stroke="rgb(60, 60, 60)" stroke-width="1px" opacity="0.25"></line><line x1="0" y1="44.9153164358348" x2="266" y2="44.9153164358348" fill="rgb(0, 0, 0)" stroke="rgb(60, 60, 60)" stroke-width="1px" opacity="0.25"></line><line x1="0" y1="31.240400775323423" x2="266" y2="31.240400775323423" fill="rgb(0, 0, 0)" stroke="rgb(60, 60, 60)" stroke-width="1px" opacity="0.25"></line><line x1="0" y1="17.56548511481205" x2="266" y2="17.56548511481205" fill="rgb(0, 0, 0)" stroke="rgb(60, 60, 60)" stroke-width="1px" opacity="0.25"></line><line x1="0" y1="3.890569454300703" x2="266" y2="3.890569454300703" fill="rgb(0, 0, 0)" stroke="rgb(60, 60, 60)" stroke-width="1px" opacity="0.25"></line></g></g></g><g><g><line x1="0" y1="167.98955738043708" x2="266" y2="167.98955738043708" fill="rgb(0, 0, 0)" stroke="rgb(153, 153, 153)" stroke-width="1.5px"></line></g></g><g><g><line x1="13.43259712787152" y1="0" x2="13.43259712787152" y2="177" fill="rgb(0, 0, 0)" stroke="rgb(153, 153, 153)" stroke-width="1.5px"></line></g></g><g><g><g><g><g><path stroke="rgb(255, 112, 67)" stroke-width="2px" d="M13.510395970464112,72.96112951788498L13.74379249824189,78.22062644945012L13.97718902601967,88.59003550531591L14.210585553797445,110.10643841822763L14.443982081575223,120.95242115733708L14.677378609353001,118.949785180036L14.910775137130779,90.3538470668037L15.144171664908558,122.33880592543898L15.377568192686335,104.21559465874698L15.610964720464112,112.9602400915386L15.84436124824189,113.6602865512582L16.077757776019666,124.69471788608828L16.311154303797444,101.76305112897833L16.544550831575222,98.13360871782967L16.777947359353004,113.80738469235064L17.01134388713078,104.06568280690244L17.244740414908556,96.44495930249857L17.478136942686334,111.94966118983375L17.71153347046411,129.87165569600248L17.94492999824189,109.37640954888502L18.17832652601967,98.83017419648634L18.411723053797445,104.79548182897196L18.645119581575223,88.54796101092842L18.878516109353,95.18483199320913L19.11191263713078,102.71237628464692L19.345309164908553,90.74883200430558L19.578705692686334,115.78036150702178L19.812102220464112,121.16228757602832L20.04549874824189,100.85805412871002L20.278895276019668,116.3238652337489L20.512291803797442,104.9330923992124L20.745688331575224,94.11074096003023L20.979084859353,91.63601253782754L21.21248138713078,98.94717225441836L21.445877914908557,119.30094610788652L21.67927444268633,82.49901801614786L21.91267097046411,63.87635593075662L22.14606749824189,110.1687965163573L22.37946402601967,114.56691682739975L22.612860553797447,113.8283734702687L22.84625708157522,123.29438335539439L23.079653609353,138.7930301425294L23.31305013713078,107.42287700191697L23.546446664908558,85.24750093548961L23.779843192686332,83.64371597495288L24.01323972046411,103.23472878955664L24.246636248241888,111.64875778618172L24.480032776019666,70.11593604768667L24.713429303797447,104.35070101381972L24.94682583157522,107.85897308127787L25.180222359353,132.86683729370708L25.413618887130777,136.05601409332155L25.647015414908555,132.68026318443935L25.880411942686337,143.59347668920597L26.11380847046411,124.68728587254984L26.34720499824189,107.35508559190168L26.580601526019667,84.7028028462063L26.813998053797444,109.5794690382749L27.047394581575222,105.52448104289343L27.280791109353,132.6934445335241L27.514187637130778,108.49068151820427L27.747584164908556,96.48516017385316L27.980980692686334,139.59348184797182L28.214377220464108,89.63315319770616L28.447773748241886,95.78998756895012L28.681170276019667,136.33927584020955L28.914566803797445,123.01480268000128L29.147963331575223,105.05453613889301L29.381359859352997,106.42783559769131L29.614756387130775,128.0520865930029L29.848152914908557,125.00093075584108L30.081549442686335,133.85699706998264L30.314945970464112,124.8885908870386L30.548342498241887,96.46252139681238L30.781739026019665,120.70932948881745L31.015135553797442,122.4794301369676L31.248532081575224,26.865535706486185L31.481928609353,83.09859387766504L31.715325137130776,95.59176669092518L31.948721664908554,107.5281539288823L32.18211819268633,122.51785654263395L32.41551472046411,102.58565713840281L32.64891124824189,115.8375098158624L32.882307776019665,141.2656873787399L33.11570430379744,128.45108663478817L33.34910083157522,83.71829960186494L33.582497359353,133.92966848839336L33.81589388713078,121.87255484221211L34.049290414908555,122.23411746011371L34.282686942686325,125.83894478538684L34.51608347046411,122.71208417901693L34.74947999824189,128.85548014428534L34.982876526019666,106.46906396948535L35.216273053797444,109.58829679936237L35.44966958157522,137.8184399538639L35.683066109353,84.17549236761448L35.91646263713078,112.2351187540666L36.149859164908555,124.93790788542535L36.38325569268633,107.87383975272168L36.616652220464104,103.18291225632683L36.85004874824188,91.39675106993926L37.08344527601967,119.07487426281088L37.316841803797445,131.11543364463967L37.55023833157522,108.65478905970616L37.783634859353,90.6581632381265L38.01703138713078,115.12566358011009L38.250427914908556,112.47606752114226L38.483824442686334,131.83035095281718L38.717220970464105,117.55850720371568L38.95061749824188,91.10231985792163L39.18401402601966,112.30300372223509L39.41741055379744,113.42780732949896L39.65080708157522,136.87382340868302L39.884203609353,99.03702234406914L40.11760013713078,124.37142943077477L40.35099666490856,90.57166053111129L40.584393192686335,106.99202917447215L40.81778972046411,110.42765720186203L41.05118624824188,131.03709080350765L41.28458277601966,102.2986489389355L41.51797930379744,110.86746349845134L41.75137583157522,119.40598533897139L41.984772359352995,101.14567457187901L42.21816888713078,52.29021239275343L42.45156541490856,130.78962011878752L42.684961942686336,124.21942508312947L42.91835847046411,125.52483584849719L43.151754998241884,107.58437617080955L43.38515152601966,101.57882433489712L43.61854805379744,103.77141934261616L43.85194458157522,108.52173579717497L44.085341109352996,107.74022389678825L44.31873763713077,109.54752451447581L44.55213416490855,94.68474952525915L44.785530692686336,132.73250808313102L45.018927220464114,108.75933345556437L45.25232374824189,103.3349221803581L45.48572027601966,107.16472162426982L45.71911680379744,135.54595959844477L45.95251333157522,108.9122906133353L46.185909859352996,131.2915339818071L46.419306387130774,138.3308576400187L46.65270291490855,113.35955184402377L46.88609944268633,88.12222401767201L47.11949597046411,29.13061017973547L47.35289249824189,120.81598774740041L47.586289026019664,134.82285691154362L47.81968555379744,129.32285213382252L48.05308208157522,132.3977561436077L48.286478609353,80.36848361325379L48.519875137130775,76.0412850229355L48.75327166490855,93.90750295796224L48.98666819268633,101.94716306591653L49.22006472046411,121.96170096846541L49.45346124824189,131.13939943687146L49.686857776019664,111.3063237485432L49.920254303797435,137.64017777865462L50.15365083157522,114.68860000852052L50.387047359353,113.47649324002182L50.620443887130776,36.222660125139726L50.853840414908554,51.59822091973058L51.08723694268633,133.45464394064635L51.32063347046411,140.37186695017076L51.55402999824189,118.55015938552614L51.787426526019665,105.674316416069L52.020823053797436,126.94789579423158L52.254219581575214,115.30928261537173L52.48761610935299,94.94293662466859L52.72101263713078,113.14631681073243L52.954409164908554,124.27739171279833L53.18780569268633,134.96368857652718L53.42120222046411,136.88217199336742L53.65459874824189,98.29668496419156L53.887995276019666,136.36472398343793L54.121391803797444,112.30686632347246L54.354788331575214,114.84758088942255L54.58818485935299,131.0280142834077L54.82158138713077,136.57812985485327L55.05497791490855,66.98372915382161L55.28837444268633,109.12863422425302L55.52177097046411,127.70552267297637L55.75516749824189,134.21811008914534L55.98856402601967,117.40323904582546L56.221960553797445,112.14700519665217L56.455357081575215,133.88128505566272L56.68875360935299,130.96366729175747L56.92215013713077,107.63688508269689L57.15554666490855,120.25154130332088L57.38894319268633,139.0541577072206L57.622339720464105,107.83773675843547L57.85573624824189,131.32751530718576L58.08913277601967,99.10221781916457L58.322529303797445,115.13752135890456L58.55592583157522,115.31080682970119L58.789322359352994,127.63041369081321L59.02271888713077,142.05682561819896L59.25611541490855,133.5257597933821L59.48951194268633,126.99106667926866L59.722908470464105,98.594498263334L59.95630499824188,133.4096777359642L60.18970152601966,116.42257736733744L60.423098053797446,103.37199524957214L60.656494581575224,109.28872929017402L60.889891109352995,130.74301314275687L61.12328763713077,108.83022081470062L61.35668416490855,145.73812435496163L61.59008069268633,141.28920716790515L61.823477220464106,140.86721124467405L62.056873748241884,132.61124096863375L62.29027027601966,127.61504221236801L62.52366680379744,94.49459257839516L62.75706333157522,89.14573216725947L62.990459859353,59.91928525490641L63.22385638713077,128.3653176775002L63.45725291490855,123.73229895060769L63.69064944268633,115.7617297029957L63.92404597046411,140.86438920580702L64.15744249824188,134.05594365327846L64.39083902601966,141.16986221417602L64.62423555379745,127.87074449175401L64.85763208157522,103.87578827680026L65.091028609353,124.52280010216458L65.32442513713077,99.15465688175757L65.55782166490854,121.65059489076181L65.79121819268633,120.12052153091457L66.0246147204641,141.86905048605536L66.25801124824189,129.12881993794088L66.49140777601966,123.80630387540072L66.72480430379744,132.9548845873769L66.95820083157523,119.76067594891002L67.191597359353,129.14987584659434L67.42499388713078,138.1687528796052L67.65839041490855,97.73922659236153L67.89178694268634,141.20897965807643L68.12518347046411,141.06852123295346L68.3585799982419,104.78707007303045L68.59197652601966,133.19474864278357L68.82537305379743,126.09379505353937L69.0587695815752,132.3095282855955L69.29216610935299,132.15321536365013L69.52556263713078,85.07965559881298L69.75895916490855,130.26612169319873L69.99235569268633,143.9965490473371L70.2257522204641,133.72140992215031L70.45914874824189,141.74258932593114L70.69254527601966,123.23272783151796L70.92594180379744,130.96144971601035L71.15933833157521,139.0849797803071L71.392734859353,120.67800542739685L71.62613138713077,120.36077459005378L71.85952791490855,133.34107473605903L72.09292444268634,136.07213781543058L72.32632097046411,118.19905473360055L72.5597174982419,122.56630255647823L72.79311402601967,95.12231163583637L73.02651055379745,100.90130537551903L73.25990708157521,124.70261178339874L73.49330360935299,113.20557676488701L73.72670013713076,132.16558934363573L73.96009666490855,130.57889930710465L74.19349319268632,121.8595434810964L74.4268897204641,134.02294125100306L74.66028624824187,117.17828527767388L74.89368277601966,133.56972973817864L75.12707930379744,139.2260738194763L75.36047583157522,131.01064900964803L75.593872359353,126.90197080873034L75.82726888713077,145.592035746765L76.06066541490856,135.34201507212498L76.29406194268633,124.5343093586514L76.52745847046411,122.09080446140035L76.76085499824188,96.80801285309984L76.99425152601967,147.73319662537259L77.22764805379745,128.1399300171401L77.46104458157522,129.52750821451357L77.694441109353,83.07836252391309L77.92783763713076,132.9679157651811L78.16123416490855,105.49871178209843L78.39463069268632,99.6311980290498L78.6280272204641,122.4541133780248L78.86142374824188,84.69754966768983L79.09482027601966,124.67765703044047L79.32821680379743,133.44084325340137L79.56161333157522,133.40659261457375L79.79500985935299,107.7336208751493L80.02840638713077,79.02299326895626L80.26180291490856,126.10869219111943L80.49519944268633,113.16210391146203L80.72859597046411,100.76619137483053L80.96199249824188,123.24472543505209L81.19538902601967,123.84411143589976L81.42878555379744,133.166232905446L81.66218208157522,108.7134218302191L81.895578609353,109.51171689516933L82.12897513713077,125.55594830426287L82.36237166490854,57.533653281931336L82.59576819268632,111.6722989398416L82.8291647204641,124.18790939074213L83.06256124824188,135.01221609657267L83.29595777601966,112.81418212952866L83.52935430379743,110.7092426044319L83.76275083157522,110.78962933604242L83.99614735935299,122.29433415562553L84.22954388713077,135.87421873697696L84.46294041490854,135.45488766708843L84.69633694268633,134.87544335932768L84.9297334704641,95.1961428309565L85.16312999824189,134.0772277450021L85.39652652601967,145.4764602992916L85.62992305379744,119.02148041213005L85.86331958157523,147.31377085023826L86.096716109353,123.71524907348075L86.33011263713078,112.54675939720372L86.56350916490854,135.16450105843234L86.79690569268632,128.63294774960437L87.0303022204641,140.18298609845408L87.26369874824188,127.05657997751595L87.49709527601965,127.85230454715008L87.73049180379743,129.10667748969482L87.96388833157522,104.92758610121633L88.19728485935299,68.71385596871484L88.43068138713078,127.72987629770424L88.66407791490855,122.32874544594478L88.89747444268633,115.1819749001567L89.1308709704641,126.88726691323498L89.36426749824189,104.82207718952719L89.59766402601966,98.047449614203L89.83106055379744,113.74663905129106L90.06445708157521,61.19701520346729L90.297853609353,115.8266601178207L90.53125013713078,127.2234289236032L90.76464666490855,106.63165635109321L90.99804319268632,125.67965323557809L91.2314397204641,120.10958666791524L91.46483624824188,131.0978976030517L91.69823277601965,124.16672450150415L91.93162930379744,111.57427461922245L92.1650258315752,115.6198319453189L92.39842235935299,139.41853456955522L92.63181888713076,132.44512281323682L92.86521541490855,118.6884496192765L93.09861194268633,107.58661601843848L93.3320084704641,103.61379967348542L93.56540499824189,137.88959685638804L93.79880152601966,132.9009701192279L94.03219805379744,129.60614985550026L94.26559458157521,123.71682462220554L94.498991109353,108.0255449057552L94.73238763713077,93.73578538175171L94.96578416490856,93.12399218355893L95.19918069268633,134.58294927243162L95.4325772204641,148.3433074091106L95.66597374824188,133.81903159590155L95.89937027601965,116.58549102304286L96.13276680379744,110.5972474699817L96.36616333157521,129.8732890393839L96.599559859353,127.97885319664334L96.83295638713076,125.43372790861306L97.06635291490855,90.59980769025809L97.29974944268632,89.69225696515522L97.5331459704641,133.18540344480238L97.76654249824188,136.17204248282042L97.99993902601966,104.00614614874533L98.23333555379745,146.08497115913568L98.46673208157522,135.8077107416318L98.700128609353,130.79206298551816L98.93352513713077,105.96790099467457L99.16692166490856,107.68669330540625L99.40031819268633,135.68276282848035L99.6337147204641,138.39988413464224L99.86711124824187,135.52805236282194L100.10050777601965,117.40890487775837L100.33390430379742,66.65078122289869L100.56730083157521,122.13548563202416L100.800697359353,131.69535156058595L101.03409388713077,117.58325176758768L101.26749041490855,131.34945971016475L101.50088694268632,120.37940241077501L101.7342834704641,117.9843761293366L101.96767999824188,120.94567658837245L102.20107652601966,130.05794582814576L102.43447305379743,133.5863946120767L102.66786958157522,132.3675259815211L102.90126610935299,130.39579179277362L103.13466263713077,110.0443164841157L103.36805916490856,115.24819274327592L103.60145569268633,128.40935932693773L103.83485222046411,110.05910287536555L104.06824874824187,121.83536732010222L104.30164527601966,139.88147300329172L104.53504180379743,144.3531833936991L104.76843833157521,98.44172203290796L105.00183485935298,101.48855299813228L105.23523138713077,9.800858000505968L105.46862791490854,127.65457610092628L105.70202444268632,113.68148725582454L105.9354209704641,123.52586465793095L106.16881749824188,116.68822538877396L106.40221402601966,140.60811681374585L106.63561055379743,146.68534938700844L106.86900708157522,140.01366043130957L107.10240360935299,140.54701062791193L107.33580013713078,117.32051271122003L107.56919666490855,118.1536221992023L107.80259319268633,106.78623363380589L108.0359897204641,80.84437487512402L108.26938624824189,120.42632097494672L108.50278277601964,130.08063873387292L108.73617930379743,142.06466150113593L108.96957583157521,121.85320398297645L109.20297235935298,100.15377679824496L109.43636888713077,127.51701621153472L109.66976541490854,114.23456025516927L109.90316194268632,111.95878117206301L110.1365584704641,134.74883030964398L110.36995499824188,130.71870318502272L110.60335152601965,124.9236005712396L110.83674805379744,127.755551280728L111.0701445815752,124.59079858497907L111.30354110935299,122.42601254583701L111.53693763713078,132.52168162042287L111.77033416490855,131.91188573649478L112.00373069268633,143.90368753979885L112.2371272204641,130.82431767614275L112.47052374824189,139.9131343039781L112.70392027601966,88.08056758362588L112.93731680379743,103.35198380958856L113.1707133315752,127.42269688296142L113.40410985935299,133.94478786525286L113.63750638713076,120.4252111942464L113.87090291490854,142.04384969453764L114.10429944268633,123.44256031878356L114.3376959704641,130.99970304429195L114.57109249824188,120.63689431456302L114.80448902601965,102.3410057232681L115.03788555379744,137.38383370273888L115.27128208157521,116.77420784574988L115.504678609353,133.550412391316L115.73807513713076,97.1113181942722L115.97147166490855,122.60650092067331L116.20486819268632,52.32623818548393L116.4382647204641,111.94475991764945L116.67166124824189,120.93733653098766L116.90505777601966,123.64448848386344L117.13845430379745,117.39743895101697L117.3718508315752,134.3059371483286L117.60524735935299,122.94688837151111L117.83864388713076,112.21411484582018L118.07204041490854,142.3170769870616L118.30543694268631,137.5514536932471L118.5388334704641,67.84640456918638L118.77222999824187,113.95283629612257L119.00562652601965,76.72406821677035L119.23902305379744,102.93222423792606L119.47241958157521,133.99615957095256L119.705816109353,150.29463493280994L119.93921263713077,112.66339074581983L120.17260916490855,139.05861263030954L120.40600569268632,134.66219291959223L120.6394022204641,139.78727218805315L120.87279874824188,143.03024641369365L121.10619527601966,87.30741878251412L121.33959180379743,123.68308300263466L121.57298833157522,134.40462517010155L121.80638485935299,131.32894659465413L122.03978138713076,146.36268443620594L122.27317791490854,116.34563843147912L122.50657444268631,143.74632252769314L122.7399709704641,136.97514544277217L122.97336749824187,111.6035380391791L123.20676402601966,104.78942281776568L123.44016055379743,137.871500979818L123.67355708157521,118.66552734448402L123.90695360935298,108.17527667220774L124.14035013713077,85.91493494031383L124.37374666490855,36.68197206189248L124.60714319268632,129.1784336603176L124.84053972046411,142.4725496987153L125.07393624824188,107.03195410905865L125.30733277601966,115.25330312999182L125.54072930379743,123.51424488084697L125.77412583157522,125.03882045948939L126.00752235935299,130.63383994142936L126.24091888713076,119.31344778153138L126.47431541490853,118.98331988863534L126.70771194268632,131.6852633000425L126.9411084704641,132.07289004402512L127.17450499824187,128.59312290718967L127.40790152601966,118.55546635786698L127.64129805379743,121.04650947802659L127.87469458157521,136.1376683687331L128.10809110935298,134.012658993708L128.34148763713077,77.07621722301468L128.57488416490855,119.0272723778384L128.8082806926863,54.94317968489577L129.0416772204641,93.55173793237064L129.27507374824188,112.16314012878576L129.50847027601966,135.19808664043165L129.74186680379745,121.69840144781715L129.9752633315752,97.5417089530181L130.208659859353,136.65877905333747L130.44205638713078,114.49926282078039L130.67545291490853,138.36110561182213L130.90884944268632,118.33514953126937L131.1422459704641,102.73306657191478L131.37564249824186,87.30176116057143L131.60903902601964,122.82664869246608L131.84243555379743,138.56430591318028L132.07583208157521,130.25467142091242L132.309228609353,144.66941455335746L132.54262513713076,141.8454200598927L132.77602166490854,129.86824644937775L133.00941819268633,138.81887117520228L133.2428147204641,129.2471372496032L133.47621124824187,121.32017172056986L133.70960777601965,118.04252504039178L133.94300430379744,126.10059603698231L134.17640083157522,48.897773030691326L134.40979735935298,126.66569786940357L134.64319388713076,133.75140826423393L134.87659041490855,130.855448410351L135.10998694268633,124.78145924869645L135.34338347046412,143.81805395032177L135.57677999824188,149.61526212417422L135.81017652601966,139.73902180656492L136.04357305379745,128.03261902016567L136.27696958157523,120.29692090643304L136.510366109353,127.7792006528341L136.74376263713077,82.12853959115854L136.97715916490856,106.67662921768363L137.21055569268634,140.44096892705494L137.4439522204641,136.84794592411L137.67734874824185,84.60587426678038L137.91074527601964,135.4401412348509L138.14414180379742,128.17134126706188L138.3775383315752,68.36603901123975L138.61093485935297,134.4505071859499L138.84433138713075,131.7253403404041L139.07772791490854,124.94588323089285L139.31112444268632,114.86424727791683L139.54452097046408,81.62173531097456L139.77791749824186,134.4331834449081L140.01131402601965,133.77395234346665L140.24471055379743,114.99957820392402L140.47810708157522,111.73124291204488L140.71150360935297,149.96231823122608L140.94490013713076,150.65334888328897L141.17829666490854,125.91333345188963L141.41169319268633,132.50638752159318L141.64508972046409,128.77134313513008L141.87848624824187,139.76380026637418L142.11188277601966,128.1857433541677L142.34527930379744,109.08186547081426L142.57867583157523,124.83672292768625L142.81207235935298,144.11992632910466L143.04546888713077,137.9515061282512L143.27886541490855,133.70012002703015L143.51226194268634,114.71781580404864L143.7456584704641,138.18950457334657L143.97905499824188,140.4889060998879L144.21245152601966,128.349905143554L144.44584805379745,113.00987402409713L144.6792445815752,138.23312754874755L144.912641109353,90.43066766369874L145.14603763713077,110.17840993070023L145.37943416490856,94.59674012113287L145.61283069268634,134.22838660219324L145.8462272204641,136.2263298924814L146.0796237482419,131.12869319222082L146.31302027601964,133.13602351800228L146.54641680379743,135.92944952270574L146.77981333157518,107.73583961634188L147.01320985935297,119.01886067774194L147.24660638713075,131.07178312035265L147.48000291490854,102.06608842586233L147.7133994426863,151.075690367578L147.94679597046408,139.44599019428207L148.18019249824187,130.03044222844574L148.41358902601965,132.9164849988868L148.64698555379744,135.62080650735962L148.8803820815752,136.43429654611361L149.11377860935298,73.18385617138726L149.34717513713076,133.73990115915353L149.58057166490855,96.27958338563191L149.8139681926863,137.92442966813428L150.0473647204641,128.27217822614062L150.28076124824187,117.71996397432096L150.51415777601966,117.20139785864352L150.74755430379744,72.05792613627823L150.9809508315752,133.77200227921838L151.21434735935298,102.50517940372158L151.44774388713077,127.5063184881377L151.68114041490855,108.79071422305618L151.9145369426863,135.52074627446507L152.1479334704641,114.65938815721094L152.38132999824188,133.00328076848726L152.61472652601967,91.72140374762967L152.84812305379745,110.77117793748617L153.0815195815752,95.78730353812821L153.314916109353,123.70390630686346L153.54831263713078,138.6930128954829L153.78170916490856,107.30254689824903L154.01510569268632,97.33268630806946L154.2485022204641,114.67814617186815L154.4818987482419,133.2947643076864L154.71529527601967,112.12948530248539L154.94869180379743,99.47612156163864L155.1820883315752,132.62676647430823L155.41548485935297,116.2075185696115L155.64888138713076,131.1076123325173L155.88227791490854,127.47870551965413L156.1156744426863,125.73877399147736L156.34907097046408,85.49792213058967L156.58246749824187,89.3637371382946L156.81586402601965,115.85026171984882L157.0492605537974,137.97466656251734L157.2826570815752,136.95066649045478L157.51605360935298,135.24191971949L157.74945013713076,123.85973820674073L157.98284666490852,147.8544838241519L158.2162431926863,135.7467737471095L158.4496397204641,111.10761726573519L158.68303624824188,124.3972500848943L158.91643277601966,121.84147611099519L159.14982930379742,134.70052468485613L159.3832258315752,120.26044469911061L159.616622359353,114.18963487717821L159.85001888713077,103.36352507593381L160.08341541490853,138.28038736958487L160.31681194268631,129.94985277715898L160.5502084704641,140.99785752795998L160.78360499824188,116.89399924400932L161.01700152601967,135.9742080098394L161.25039805379743,130.31421840421575L161.4837945815752,130.5072211628857L161.717191109353,143.3252437723142L161.95058763713078,133.69237091631044L162.18398416490854,89.04785001617938L162.41738069268632,144.91940879099104L162.6507772204641,124.81616824332758L162.8841737482419,122.97741506699717L163.11757027601968,147.89634364659025L163.35096680379743,143.21750090499646L163.58436333157522,136.66874372188232L163.817759859353,120.0055200007197L164.05115638713076,135.70476261710445L164.28455291490852,143.7251254158337L164.5179494426863,114.2441955326054L164.7513459704641,129.08157759705585L164.98474249824187,127.50055353714833L165.21813902601963,119.46438459529995L165.4515355537974,109.11895286240143L165.6849320815752,136.5907144952923L165.91832860935298,108.66764089278661L166.15172513713077,126.55364957029698L166.38512166490852,126.8273861196796L166.6185181926863,115.91540808059624L166.8519147204641,118.46725727468024L167.08531124824188,138.12989864075283L167.31870777601964,84.01720077433208L167.55210430379742,145.58965769215533L167.7855008315752,116.28829852863304L168.018897359353,139.2742558214207L168.25229388713075,140.842045392837L168.48569041490853,74.06527229022882L168.71908694268632,116.55614680736275L168.9524834704641,121.42385880696602L169.1858799982419,111.36682426519697L169.41927652601964,119.37037252779055L169.65267305379743,120.64214563377924L169.8860695815752,104.14703252799275L170.119466109353,133.3889611528151L170.35286263713076,136.81924031809768L170.58625916490854,131.25903588967407L170.81965569268633,108.2662126944065L171.0530522204641,117.24654989241205L171.2864487482419,143.0010809403576L171.51984527601965,115.46730738257031L171.75324180379744,124.63457003856746L171.98663833157522,142.08685911313142L172.220034859353,146.1223640020803L172.45343138713076,130.8884763232709L172.68682791490855,131.054312677777L172.9202244426863,105.11820989988789L173.1536209704641,113.86474935325057L173.38701749824185,115.7051600552016L173.62041402601963,129.1706518639895L173.85381055379742,70.27161046920985L174.0872070815752,131.3342802286095L174.320603609353,130.7318756626307L174.55400013713074,138.75739663237098L174.78739666490853,138.33093314831473L175.0207931926863,88.53640532325718L175.2541897204641,106.46770180358018L175.48758624824185,125.07304194150824L175.72098277601964,87.61587824165944L175.95437930379742,129.49036698778545L176.1877758315752,112.29723855752938L176.421172359353,94.64313803037108L176.65456888713075,127.57044559947487L176.88796541490854,103.77873168367829L177.12136194268632,119.80628364382889L177.3547584704641,139.42744383976807L177.58815499824186,139.99853007775712L177.82155152601965,138.0520695593706L178.05494805379743,132.3403458427546L178.28834458157522,124.1667466132382L178.52174110935297,145.79649342265498L178.75513763713076,151.70431860901041L178.98853416490854,145.33271247131702L179.22193069268633,132.41245518953502L179.4553272204641,55.68513940082154L179.68872374824187,99.6661478814511L179.92212027601965,137.07523198076322L180.15551680379744,139.0053923447889L180.38891333157522,114.65958871005381L180.62230985935298,106.54984697163171L180.85570638713077,121.04770480864454L181.08910291490855,104.36297329866214L181.32249944268634,68.08217275121093L181.55589597046412,133.8858610392981L181.78929249824185,134.02339272759804L182.02268902601963,142.16033175793436L182.25608555379742,139.1734814821986L182.4894820815752,102.10572259794333L182.72287860935296,137.16113597202312L182.95627513713075,132.55299953773044L183.18967166490853,108.17649293561745L183.42306819268632,127.69036726801475L183.65646472046407,128.05957669286977L183.88986124824186,98.8264701852565L184.12325777601964,135.21027999216028L184.35665430379743,132.1284598562856L184.5900508315752,107.07028758715579L184.82344735935297,137.78061807432957L185.05684388713075,108.72878681973599L185.29024041490854,129.91954071453972L185.52363694268632,142.4678782594084L185.75703347046408,123.75136437770541L185.99042999824186,134.43434260262768L186.22382652601965,139.9935726980664L186.45722305379743,54.726305457236364L186.69061958157522,127.99726391456923L186.92401610935298,137.7938999476929L187.15741263713076,113.95056391402915L187.39080916490855,137.0961539906583L187.62420569268633,144.15440602057856L187.8576022204641,142.5388198237111L188.09099874824187,130.02931554473463L188.32439527601966,116.66808609644498L188.55779180379744,117.11351133239909L188.7911883315752,123.25587054656367L189.02458485935298,66.00924383664653L189.25798138713077,90.54121765101785L189.49137791490855,114.55358539391034L189.72477444268634,132.8428277788539L189.9581709704641,144.20104371956867L190.19156749824188,114.95578136081991L190.42496402601967,137.7897767451839L190.65836055379742,95.94847705361329L190.89175708157518,130.02381163382898L191.12515360935296,148.40449627816417L191.35855013713075,128.57316780848947L191.59194666490853,141.58044671536334L191.8253431926863,125.93681730398441L192.05873972046408,102.79224593548064L192.29213624824186,120.4172483255886L192.52553277601965,103.85407225931144L192.75892930379743,111.32676492748568L192.9923258315752,125.0619940007565L193.22572235935297,128.02990456879883L193.45911888713076,130.5833780307733L193.69251541490854,118.7422291414471L193.9259119426863,133.28668886985298L194.15930847046408,131.80873708351095L194.39270499824187,104.36504325980825L194.62610152601965,92.32373442989842L194.85949805379744,102.93212319749102L195.0928945815752,113.01710560995794L195.32629110935298,129.8465774920756L195.55968763713076,92.63187932627085L195.79308416490855,130.8204969377598L196.0264806926863,147.0927506271197L196.2598772204641,121.42335421644754L196.49327374824188,117.95696939707781L196.72667027601966,88.34807858136605L196.96006680379742,125.21608550486809L197.1934633315752,54.240815531589234L197.426859859353,136.25390187329702L197.66025638713077,133.04799075599453L197.89365291490856,141.25213858404135L198.1270494426863,112.19017236730573L198.3604459704641,107.50235394460401L198.59384249824188,122.66845774833774L198.82723902601967,110.62573191023246L199.06063555379743,135.08433590124957L199.2940320815752,143.32178017962644L199.52742860935297,105.1949642863082L199.76082513713075,138.8086053548657L199.99422166490854,131.30960346271814L200.2276181926863,123.58212329576709L200.46101472046408,89.56460697964914L200.69441124824186,119.13137674051131L200.92780777601965,117.79083229688729L201.1612043037974,107.0023638346398L201.3946008315752,135.25699928146162L201.62799735935297,124.53690023332967L201.86139388713076,131.827128684903L202.09479041490852,124.646947267316L202.3281869426863,119.80736814405539L202.5615834704641,114.35922916677805L202.79497999824187,145.91880631973856L203.02837652601966,119.512080373572L203.2617730537974,139.76110880585512L203.4951695815752,119.21416395974015L203.72856610935298,121.68504097108331L203.96196263713077,89.0104130637004L204.19535916490852,137.5473094859292L204.4287556926863,130.19382959905786L204.6621522204641,119.91040869404418L204.89554874824188,137.4323628094951L205.12894527601966,141.87406182318273L205.36234180379742,136.72798617646149L205.5957383315752,142.32291131413612L205.829134859353,141.78865523666803L206.06253138713078,135.4175148923102L206.29592791490853,95.88835511341414L206.52932444268632,138.65668607788655L206.7627209704641,106.2395771061101L206.9961174982419,135.37351145772385L207.22951402601964,125.53995018709647L207.46291055379743,57.44204104156768L207.6963070815752,115.63498113381749L207.929703609353,137.24076765334962L208.16310013713078,142.08207751002317L208.3964966649085,116.04344693015426L208.6298931926863,122.30165994090547L208.86328972046408,129.8451084085584L209.09668624824187,111.1712410474389L209.33008277601962,140.73885151429502L209.5634793037974,120.02511170914634L209.7968758315752,115.9661595379776L210.03027235935298,141.78873110444513L210.26366888713076,128.39813073234606L210.49706541490852,117.11006211072865L210.7304619426863,118.30221911964753L210.9638584704641,144.67578823701984L211.19725499824187,130.06941570418692L211.43065152601963,112.14926281283175L211.66404805379742,115.59240890182207L211.8974445815752,119.39574512991872L212.13084110935299,144.13755852710082L212.36423763713074,138.00371396108798L212.59763416490853,149.15150634539788L212.8310306926863,115.96557226635952L213.0644272204641,105.97729199502973L213.29782374824188,107.51676552546077L213.53122027601964,81.73243216325912L213.76461680379742,72.97427051418599L213.9980133315752,114.47555684926223L214.231409859353,144.92191193184368L214.46480638713075,118.64073206121697L214.69820291490853,130.41642072129946L214.93159944268632,127.6137954407914L215.1649959704641,88.09705749488448L215.3983924982419,129.67410060652676L215.63178902601965,122.89036539402358L215.86518555379743,137.11146518434296L216.09858208157522,127.4661346591339L216.331978609353,115.14360503751547L216.56537513713076,132.53720878292114L216.79877166490854,95.33514308958173L217.03216819268633,105.93489767341099L217.26556472046408,110.91811895093628L217.49896124824184,129.4280815514277L217.73235777601963,111.3143840165769L217.9657543037974,117.98298681045165L218.1991508315752,149.47598398238188L218.43254735935298,102.96964643596817L218.66594388713074,111.91266253723592L218.89934041490852,127.0767834410108L219.1327369426863,121.13117507385702L219.3661334704641,121.60255426438661L219.59952999824185,140.4371424938418L219.83292652601963,135.10278337366873L220.06632305379742,125.30707674500135L220.2997195815752,128.15901440286603L220.533116109353,90.6304453004507L220.76651263713075,41.14929865109815L220.99990916490853,121.52885299537968L221.23330569268632,100.33460787220814L221.4667022204641,128.2012544523218L221.70009874824186,132.42763902556396L221.93349527601964,135.59360542486166L222.16689180379743,136.87977045324033L222.4002883315752,149.2813564897268L222.63368485935297,136.44772548205538L222.86708138713075,146.79435283770516L223.10047791490854,86.53602057996662L223.33387444268632,133.7550936690236L223.5672709704641,148.73334667421142L223.80066749824186,145.51367253202838L224.03406402601965,140.18458485273453L224.26746055379743,98.1839272936533L224.50085708157522,105.12610412572752L224.73425360935298,141.63581657224603L224.96765013713076,143.23308229149126L225.20104666490855,133.739536404455L225.43444319268633,142.51152806215413L225.66783972046412,137.52665043181997L225.90123624824187,128.8306788186067L226.13463277601963,124.49944522745376L226.3680293037974,150.66006684145623L226.6014258315752,107.81247664503739L226.83482235935296,131.06291201720163L227.06821888713074,115.72830501622549L227.30161541490853,125.09244296761554L227.5350119426863,124.13685389177488L227.76840847046407,141.28578734544072L228.00180499824185,124.19458681452475L228.23520152601964,136.39503364181252L228.46859805379742,122.7218220517518L228.7019945815752,122.06483168239131L228.93539110935296,131.84296587187507L229.16878763713075,130.44912582908682L229.40218416490853,131.42096779997502L229.63558069268632,123.84340752651374L229.86897722046407,120.72632753503268L230.10237374824186,102.38186380884487L230.33577027601964,65.15777691146195L230.56916680379743,104.49301834678144L230.8025633315752,106.580912498112L231.03595985935297,122.40880108627263L231.26935638713076,145.03237155761332L231.50275291490854,133.92801211542917L231.73614944268633,144.2049908088328L231.96954597046408,99.16943752756623L232.20294249824187,133.5670900006462L232.43633902601965,129.66749079425193L232.66973555379744,103.48396669791985L232.9031320815752,135.59831017998454L233.13652860935298,145.4695798921181L233.36992513713076,132.0674915043245L233.60332166490855,145.06834739451875L233.83671819268633,122.09871917279168L234.0701147204641,127.04126624119935L234.30351124824188,122.97802363809357L234.53690777601966,125.53279987223385L234.77030430379745,138.6371273591157L235.00370083157517,140.68356629517012L235.23709735935296,105.25646701267063" style="fill: none;" fill="none"></path></g></g></g></g><g opacity="0.2"><g><g><g><path stroke="rgb(255, 112, 67)" stroke-width="2px" d="M13.510395970464112,72.96112951788498L13.74379249824189,78.45730381137054L13.97718902601967,89.07765696616799L14.210585553797445,111.12020794742274L14.443982081575223,121.46348631112878L14.677378609353001,118.85542015139816L14.910775137130779,89.00639449674084L15.144171664908558,123.84595058313613L15.377568192686335,103.36162135300097L15.610964720464112,113.37229144701013L15.84436124824189,113.69327303365336L16.077757776019666,125.21466491233681L16.311154303797444,100.68250138649672L16.544550831575222,97.96258787123104L16.777947359353004,114.54593958120242L17.01134388713078,103.60664973376613L17.244740414908556,96.08586761904498L17.478136942686334,112.68024923688095L17.71153347046411,130.71614758372772L17.94492999824189,108.41066496603655L18.17832652601967,98.33323116940994L18.411723053797445,105.07656962317286L18.645119581575223,87.78237102473787L18.878516109353,95.49756413373544L19.11191263713078,103.0670773245576L19.345309164908553,90.1851047869073L19.578705692686334,116.95985766160004L19.812102220464112,121.41588618660978L20.04549874824189,99.90131014428142L20.278895276019668,117.05262073084498L20.512291803797442,104.3963544122447L20.745688331575224,93.60078722729388L20.979084859353,91.51940229803787L21.21248138713078,99.29167716252996L21.445877914908557,120.2600244570028L21.67927444268633,80.76489575004499L21.91267097046411,62.99884829322508L22.14606749824189,112.35011570625471L22.37946402601967,114.77415809860071L22.612860553797447,113.79357299794313L22.84625708157522,123.74042570600241L23.079653609353,139.523332870719L23.31305013713078,105.94470224660014L23.546446664908558,84.20258792712394L23.779843192686332,83.56814495587001L24.01323972046411,104.15786551904058L24.246636248241888,112.04523035670333L24.480032776019666,68.15889209142249L24.713429303797447,105.96385747819248L24.94682583157522,108.02428433052982L25.180222359353,134.04521832989485L25.413618887130777,136.20628943990027L25.647015414908555,132.52119638768573L25.880411942686337,144.10771188053005L26.11380847046411,123.79641824244563L26.34720499824189,106.5383850551172L26.580601526019667,83.63541779536202L26.813998053797444,110.75166796879122L27.047394581575222,105.33340831012674L27.280791109353,133.97365747287319L27.514187637130778,107.35023718763945L27.747584164908556,95.91945497961672L27.980980692686334,141.62476402109783L28.214377220464108,87.27900158591355L28.447773748241886,96.08010018330192L28.681170276019667,138.2499752875464L28.914566803797445,122.38694792376108L29.147963331575223,104.20824085685126L29.381359859352997,106.49254604339386L29.614756387130775,129.0710303571799L29.848152914908557,124.857159014823L30.081549442686335,134.27429862405214L30.314945970464112,124.46599583129777L30.548342498241887,95.12307309622578L30.781739026019665,121.85184924184385L31.015135553797442,122.56283802091184L31.248532081575224,22.360168953217453L31.481928609353,85.74831913180435L31.715325137130776,96.18045022662854L31.948721664908554,108.09060149506875L32.18211819268633,123.22417760820338L32.41551472046411,101.64644355391023L32.64891124824189,116.4619426645385L32.882307776019665,142.46387375604826L33.11570430379744,127.84725728036115L33.34910083157522,81.61047194062772L33.582497359353,136.29564922126644L33.81589388713078,121.3044185971041L34.049290414908555,122.25115444210907L34.282686942686325,126.00880575882904L34.51608347046411,122.56474519756495L34.74947999824189,129.14495953531892L34.982876526019666,105.41420666281937L35.216273053797444,109.73527635679113L35.44966958157522,139.14865612344772L35.683066109353,81.6478142091001L35.91646263713078,113.55730010211931L36.149859164908555,125.5364686298349L36.38325569268633,107.06977371505502L36.616652220464104,102.96187378791032L36.85004874824188,90.84138221822465L37.08344527601967,120.37907902059017L37.316841803797445,131.68278984587764L37.55023833157522,107.59643407926427L37.783634859353,89.81015469155992L38.01703138713078,116.27858244439204L38.250427914908556,112.35121744506526L38.483824442686334,132.74233289462384L38.717220970464105,116.88601194852242L38.95061749824188,89.85569322906221L39.18401402601966,113.30198882578912L39.41741055379744,113.48080854659517L39.65080708157522,137.97860950665506L39.884203609353,97.25413643002973L40.11760013713078,125.56519730397034L40.35099666490856,88.97900126358789L40.584393192686335,107.76576382258862L40.81778972046411,110.58954543351913L41.05118624824188,132.0082159470407L41.28458277601966,100.94448152123313L41.51797930379744,111.27122962952802L41.75137583157522,119.80832406444091L41.984772359352995,100.28524108023592L42.21816888713078,49.98812255185223L42.45156541490856,134.48854509017133L42.684961942686336,123.90983474113511L42.91835847046411,125.58634735053022L43.151754998241884,106.73901419646825L43.38515152601966,101.29584021697454L43.61854805379744,103.87473533774428L43.85194458157522,108.74557269817512L44.085341109352996,107.7033987287072L44.31873763713077,109.6326852765658L44.55213416490855,93.98440934252119L44.785530692686336,134.5253344026119L45.018927220464114,107.62970742599317L45.25232374824189,103.07932164906565L45.48572027601966,107.34518337817141L45.71911680379744,136.8832954192174L45.95251333157522,107.6573009752935L46.185909859352996,132.34605330283455L46.419306387130774,138.66255351920145L46.65270291490855,112.18289345573082L46.88609944268633,86.93303055988581L47.11949597046411,26.35090062716253L47.35289249824189,125.13624114064118L47.586289026019664,135.48286645330953L47.81968555379744,129.06368960502937L48.05308208157522,132.54264690846668L48.286478609353,77.91684249925805L48.519875137130775,75.8373856129205L48.75327166490855,94.74936663029332L48.98666819268633,102.32599521760022L49.22006472046411,122.90479437748604L49.45346124824189,131.57185643276495L49.686857776019664,110.37178091506175L49.920254303797435,138.88104001044L50.15365083157522,113.60711205076552L50.387047359353,113.41937826140148L50.620443887130776,32.58242715114005L50.853840414908554,52.32272378439717L51.08723694268633,137.31175287880467L51.32063347046411,140.69780939564572L51.55402999824189,117.52191138509787L51.787426526019665,105.06760130232495L52.020823053797436,127.95031576493034L52.254219581575214,114.76086628757204L52.48761610935299,93.98326587117995L52.72101263713078,114.00406770955219L52.954409164908554,124.801892624414L53.18780569268633,135.46723136068192L53.42120222046411,136.9725717355222L53.65459874824189,96.47852065391625L53.887995276019666,138.1585059267532L54.121391803797444,111.17324999394528L54.354788331575214,114.96730042394375L54.58818485935299,131.79044308207716L54.82158138713077,136.83965362523554L55.05497791490855,63.704411843301784L55.28837444268633,111.11451980348801L55.52177097046411,128.5808734375759L55.75516749824189,134.5249859359805L55.98856402601967,116.61091527938629L56.221960553797445,111.89932925611521L56.455357081575215,134.90541342598257L56.68875360935299,130.8261879206834L56.92215013713077,106.53771733462597L57.15554666490855,120.84594918806232L57.38894319268633,139.9401448676138L57.622339720464105,106.366805928388L57.85573624824189,132.43436351105356L58.08913277601967,97.58374830402221L58.322529303797445,115.89311157805463L58.55592583157522,115.31897211366544L58.789322359352994,128.21091872615358L59.02271888713077,142.73660419069355L59.25611541490855,133.12377239849545L59.48951194268633,126.68314920268739L59.722908470464105,97.2564400657245L59.95630499824188,135.05018357498867L60.18970152601966,115.62213808295189L60.423098053797446,102.75704635397064L60.656494581575224,109.56752827638039L60.889891109352995,131.75394798397804L61.12328763713077,107.7976808620697L61.35668416490855,147.47724022858648L61.59008069268633,141.07957232663026L61.823477220464106,140.8473266200192L62.056873748241884,132.2222161912287L62.29027027601966,127.37961923432408L62.52366680379744,92.93394311920272L62.75706333157522,88.89369162432635L62.990459859353,58.54212283495261L63.22385638713077,131.59052339374807L63.45725291490855,123.5139891676651L63.69064944268633,115.3861531415899L63.92404597046411,142.04723703578242L64.15744249824188,133.73512684713836L64.39083902601966,141.50507303641726L64.62423555379745,127.2440844943624L64.85763208157522,102.74513588970821L65.091028609353,125.49569594733882L65.32442513713077,97.9592993478117L65.55782166490854,122.7106129121285L65.79121819268633,120.04842383333015L66.0246147204641,142.89385027975308L66.25801124824189,128.52849493829152L66.49140777601966,123.55550468920771L66.72480430379744,133.3859695423915L66.95820083157523,119.13895931149534L67.191597359353,129.5922988784224L67.42499388713078,138.59372614294077L67.65839041490855,95.8341703798736L67.89178694268634,143.25729262975932L68.12518347046411,141.06190277313092L68.3585799982419,103.07747289795553L68.59197652601966,134.53333035549446L68.82537305379743,125.75919514619278L69.0587695815752,132.60241623893845L69.29216610935299,132.1458498332967L69.52556263713078,82.8615297460196L69.75895916490855,132.3953269018347L69.99235569268633,144.64353253522845L70.2257522204641,133.2372410628483L70.45914874824189,142.12055065909357L70.69254527601966,122.36053540507964L70.92594180379744,131.32563032836865L71.15933833157521,139.46776391946244L71.392734859353,119.81066108616025L71.62613138713077,120.34582654012661L71.85952791490855,133.95271191571373L72.09292444268634,136.20082665163133L72.32632097046411,117.35686757267663L72.5597174982419,122.77208910310597L72.79311402601967,93.82913928879042L73.02651055379745,101.1736139810538L73.25990708157521,125.82413931047161L73.49330360935299,112.66383165930269L73.72670013713076,133.05899307771287L73.96009666490855,130.5041338080011L74.19349319268632,121.44868378248869L74.4268897204641,134.59608564853795L74.66028624824187,116.38455803285731L74.89368277601966,134.34210146668408L75.12707930379744,139.4926031217364L75.36047583157522,130.6235347515933L75.593872359353,126.70836817099075L75.82726888713077,146.47271943494465L76.06066541490856,134.85902980473355L76.29406194268633,124.02504573864479L76.52745847046411,121.97566548718434L76.76085499824188,95.6166771228658L76.99425152601967,150.13281261464198L77.22764805379745,127.21668708795637L77.46104458157522,129.5928914803584L77.694441109353,80.88965932383242L77.92783763713076,135.3187324100576L78.16123416490855,104.2043513849898L78.39463069268632,99.35471832340878L78.6280272204641,123.52953870860478L78.86142374824188,82.91844457139133L79.09482027601966,126.56153643496799L79.32821680379743,133.85376825867178L79.56161333157522,133.4049787101264L79.79500985935299,106.52389969371046L80.02840638713077,77.67013647075868L80.26180291490856,128.32739004609047L80.49519944268633,112.55205524906981L80.72859597046411,100.18209078409919L80.96199249824188,124.30392337506254L81.19538902601967,123.87235475531142L81.42878555379744,133.6054951736445L81.66218208157522,107.5611951303393L81.895578609353,109.5493328929942L82.12897513713077,126.31195920835628L82.36237166490854,54.32841424946544L82.59576819268632,114.22333459911485L82.8291647204641,124.77765019732907L83.06256124824188,135.52226196229245L83.29595777601966,111.76820147139568L83.52935430379743,110.61005697235929L83.76275083157522,110.79341719250574L83.99614735935299,122.83644066544883L84.22954388713077,136.51410858636L84.46294041490854,135.43512861143924L84.69633694268633,134.84813970084682L84.9297334704641,93.32643757045733L85.16312999824189,135.90932075142308L85.39652652601967,146.01359691179738L85.62992305379744,117.77491067922716L85.86331958157523,148.64691542585592L86.096716109353,122.60327684316232L86.33011263713078,112.02049548575611L86.56350916490854,136.2302585189091L86.79690569268632,128.32517822196326L87.0303022204641,140.7272287431643L87.26369874824188,126.43805822312618L87.49709527601965,127.88979942215902L87.73049180379743,129.16578406813935L87.96388833157522,103.78825718762309L88.19728485935299,67.00744983681687L88.43068138713078,130.5107358943582L88.66407791490855,122.07424189795611L88.89747444268633,114.84521607862742L89.1308709704641,127.43882517563137L89.36426749824189,103.78235620778179L89.59766402601966,97.72822632531337L89.83106055379744,114.48639143314338L90.06445708157521,58.720854917444186L90.297853609353,118.40083186771167L90.53125013713078,127.76044944324741L90.76464666490855,105.66136340265034L90.99804319268632,126.57720282699361L91.2314397204641,119.8471227982348L91.46483624824188,131.61567141674922L91.69823277601965,123.84012472185009L91.93162930379744,110.98091310644477L92.1650258315752,115.81046030099883L92.39842235935299,140.5399394052522L92.63181888713076,132.11653273047835L92.86521541490855,118.04022941641973L93.09861194268633,107.06349296918434L93.3320084704641,103.42659890330438L93.56540499824189,139.50468677600125L93.79880152601966,132.66590393789576L94.03219805379744,129.450896544644L94.26559458157521,123.43931715047958L94.498991109353,107.28616523325229L94.73238763713077,93.06244592774107L94.96578416490856,93.09516423181162L95.19918069268633,136.5365126954675L95.4325772204641,148.9917012480117L95.66597374824188,133.13464163611684L95.89937027601965,115.77343937301288L96.13276680379744,110.31507892559661L96.36616333157521,130.78158419186883L96.599559859353,127.88958658625243L96.83295638713076,125.31380053902001L97.06635291490855,88.95841877944554L97.29974944268632,89.64949279486243L97.5331459704641,135.23481872394808L97.76654249824188,136.3127741652401L97.99993902601966,102.49047564085699L98.23333555379745,148.06774301826403L98.46673208157522,135.32344192614735L98.700128609353,130.55572356245523L98.93352513713077,104.79817608411126L99.16692166490856,107.76768351900093L99.40031819268633,137.00194935051002L99.6337147204641,138.52791602864988L99.86711124824187,135.3927304468723L100.10050777601965,116.55512305909046L100.33390430379742,64.25903717633462L100.56730083157521,124.7499481434489L100.800697359353,132.14581644727213L101.03409388713077,116.91828371451446L101.26749041490855,131.99812919436994L101.50088694268632,119.86248871603937L101.7342834704641,117.87152148780285L101.96767999824188,121.08521430633749L102.20107652601966,130.48731977138118L102.43447305379743,133.75265659665985L102.66786958157522,132.31009238112844L102.90126610935299,130.3028828519426L103.13466263713077,109.08534644339359L103.36805916490856,115.4934015722416L103.60145569268633,129.02951900889036L103.83485222046411,109.19443110539618L104.06824874824187,122.390269833205L104.30164527601966,140.7318130616619L104.53504180379743,144.5638922602628L104.76843833157521,96.27835474365601L105.00183485935298,101.63212094937322L105.23523138713077,5.480495408994784L105.46862791490854,133.20789266063196L105.70202444268632,113.02306945684069L105.9354209704641,123.98973584441762L106.16881749824188,116.3660329624786L106.40221402601966,141.73523211649322L106.63561055379743,146.97171113129832L106.86900708157522,139.69928765329234L107.10240360935299,140.5721423125686L107.33580013713078,116.22607040100942L107.56919666490855,118.1928786672224L107.80259319268633,106.25059752339453L108.0359897204641,79.6219836247149L108.26938624824189,122.29143885399594L108.50278277601964,130.5355542303668L108.73617930379743,142.62935367341532L108.96957583157521,120.90083163918884L109.20297235935298,99.1312907005351L109.43636888713077,128.80638351373162L109.66976541490854,113.608685367173L109.90316194268632,111.85154550846114L110.1365584704641,135.82270697057712L110.36995499824188,130.5288019068992L110.60335152601965,124.65053290881004L110.83674805379744,127.88899398431646L111.0701445815752,124.44167411240451L111.30354110935299,122.32400692095598L111.53693763713078,132.99739377576984L111.77033416490855,131.88315189903219L112.00373069268633,144.46874626351476L112.2371272204641,130.2080122898972L112.47052374824189,140.3414031503159L112.70392027601966,85.63819532978727L112.93731680379743,104.07157933856062L113.1707133315752,128.5569189649528L113.40410985935299,134.2521115241043L113.63750638713076,119.78816307885867L113.87090291490854,143.06252899559848L114.10429944268633,122.56605977228207L114.3376959704641,131.35579877481328L114.57109249824188,120.14859442677474L114.80448902601965,101.47889578964686L115.03788555379744,139.03506643475583L115.27128208157521,115.80307364306454L115.504678609353,134.3409141761856L115.73807513713076,95.39429281325967L115.97147166490855,123.80784460935189L116.20486819268632,49.01460276864255L116.4382647204641,114.75400963277767L116.67166124824189,121.36107050753239L116.90505777601966,123.77205061776858L117.13845430379745,117.103075360464L117.3718508315752,135.10267266547942L117.60524735935299,122.41164523543068L117.83864388713076,111.7083820618871L118.07204041490854,143.73554117172745L118.30543694268631,137.32689552757L118.5388334704641,64.56187345862853L118.77222999824187,116.12539067069025L119.00562652601965,74.96983307166995L119.23902305379744,104.16716352688105L119.47241958157521,135.45990521491714L119.705816109353,151.0626259184472L119.93921263713077,110.89019075795117L120.17260916490855,140.302366541097L120.40600569268632,134.4550317813909L120.6394022204641,140.0287680698131L120.87279874824188,143.18305671751963L121.10619527601966,84.68173580512867L121.33959180379743,125.39711953656703L121.57298833157522,134.90982872773088L121.80638485935299,131.18401933193672L122.03978138713076,147.0710804601534L122.27317791490854,114.93122265115167L122.50657444268631,145.03745423903305L122.7399709704641,136.65608474243558L122.97336749824187,110.40801727147051L123.20676402601966,104.468338854453L123.44016055379743,139.43034235918174L123.67355708157521,117.76053382240022L123.90695360935298,107.6809716667078L124.14035013713077,84.86601831420364L124.37374666490855,34.36209422992496L124.60714319268632,133.53690567280884L124.84053972046411,143.09897401466077L125.07393624824188,105.3619784006455L125.30733277601966,115.64069653935518L125.54072930379743,123.90350391622758L125.77412583157522,125.1106590993207L126.00752235935299,130.89747960288204L126.24091888713076,118.7800261614315L126.47431541490853,118.9677641240486L126.70771194268632,132.28378419377373L126.9411084704641,132.09115517855832L127.17450499824187,128.4291548222079L127.40790152601966,118.08248777700882L127.64129805379743,121.16388847321736L127.87469458157521,136.84877009656745L128.10809110935298,133.91252766190053L128.34148763713077,74.39334823905531L128.57488416490855,121.00402366785627L128.8082806926863,51.923510395699495L129.0416772204641,95.37098936811553L129.27507374824188,113.04011719563255L129.50847027601966,136.28350296820554L129.74186680379745,121.06229062722275L129.9752633315752,96.40343548467678L130.208659859353,138.50199178057764L130.44205638713078,113.45509713442951L130.67545291490853,139.48548563862514L130.90884944268632,117.39151809291869L131.1422459704641,101.99788988796611L131.37564249824186,86.57463158621493L131.60903902601964,124.500596272503L131.84243555379743,139.30587091310923L132.07583208157521,129.86311796316156L132.309228609353,145.34864328734702L132.54262513713076,141.71235225653572L132.77602166490854,129.30387701223307L133.00941819268633,139.24062836123588L133.2428147204641,128.79611313792577L133.47621124824187,120.94664978464682L133.70960777601965,117.88808095598549L133.94300430379744,126.48029571744993L134.17640083157522,45.25994367437394L134.40979735935298,130.3301550607565L134.64319388713076,134.08528990587513L134.87659041490855,130.71898956906853L135.10998694268633,124.49525033532007L135.34338347046412,144.71506626610517L135.57677999824188,149.88842900147617L135.81017652601966,139.27364922615402L136.04357305379745,127.48100841766518L136.27696958157523,119.93241157123097L136.510366109353,128.1317688084237L136.74376263713077,79.97746132123662L136.97715916490856,107.83334548280784L137.21055569268634,142.0319587562923L137.4439522204641,136.67864117528015L137.67734874824185,82.144205968791L137.91074527601964,137.83547318622595L138.14414180379742,127.82883236805611L138.3775383315752,65.54798811960414L138.61093485935297,137.56443500570063L138.84433138713075,131.59692933721087L139.07772791490854,124.62643237232949L139.31112444268632,114.38919636913785L139.54452097046408,80.05533422352701L139.77791749824186,136.92168100095734L140.01131402601965,133.74288909784897L140.24471055379743,114.11492183085656L140.47810708157522,111.5772375841553L140.71150360935297,151.76378251328174L140.94490013713076,150.68591053705111L141.17829666490854,124.74757356245195L141.41169319268633,132.81705499084623L141.64508972046409,128.59534627922343L141.87848624824187,140.2817694505689L142.11188277601966,127.6401804630166L142.34527930379744,108.1816827433264L142.57867583157523,125.57909840994725L142.81207235935298,145.02855895011388L143.04546888713077,137.6608475847555L143.27886541490855,133.49979293325532L143.51226194268634,113.8233616783584L143.7456584704641,139.2955003792297L143.97905499824188,140.59725486291867L144.21245152601966,127.77791033409324L144.44584805379745,112.28704533260441L144.6792445815752,139.4216578195426L144.912641109353,88.17819573194252L145.14603763713077,111.108931817627L145.37943416490856,93.86252531335221L145.61283069268634,136.0958463840233L145.8462272204641,136.32047381715466L146.0796237482419,130.88849041576876L146.31302027601964,133.2306097637197L146.54641680379743,136.06107692606872L146.77981333157518,106.40734490871216L147.01320985935297,119.55052135602782L147.24660638713075,131.63972187419293L147.48000291490854,100.69932794287588L147.7133994426863,153.38504333865362L147.94679597046408,138.89799385103777L148.18019249824187,129.5867776646105L148.41358902601965,133.05247654304372L148.64698555379744,135.74823526953895L148.8803820815752,136.4726285374685L149.11377860935298,70.20346892859911L149.34717513713076,136.59332736276554L149.58057166490855,94.51443752195811L149.8139681926863,139.88675226783337L150.0473647204641,127.81736009536606L150.28076124824187,117.2227392189996L150.51415777601966,117.17696280607231L150.74755430379744,69.93074684045995L150.9809508315752,136.67999539590141L151.21434735935298,101.03187361377671L151.44774388713077,128.68438263347667L151.68114041490855,107.908827111089L151.9145369426863,136.78027658055237L152.1479334704641,113.67639222498431L152.38132999824188,133.8676526716364L152.61472652601967,89.7761844115683L152.84812305379745,111.66881127627522L153.0815195815752,95.08125710046212L153.314916109353,125.01934832214418L153.54831263713078,139.39930587609848L153.78170916490856,105.82341499262023L154.01510569268632,96.86290230120234L154.2485022204641,115.49547150576443L154.4818987482419,134.17198715178253L154.71529527601967,111.132168490722L154.94869180379743,98.87988976233171L155.1820883315752,134.18883874768008L155.41548485935297,115.43383673117029L155.64888138713076,131.80971099150239L155.88227791490854,127.30770991067104L156.1156744426863,125.65678768910254L156.34907097046408,83.6017563360976L156.58246749824187,89.54589596064717L156.81586402601965,117.09831785196394L157.0492605537974,139.01717778547032L157.2826570815752,136.90241517815863L157.51605360935298,135.16140285593667L157.74945013713076,123.3234050464541L157.98284666490852,148.98512628779957L158.2162431926863,135.17625337698706L158.4496397204641,109.94660989226729L158.68303624824188,125.02346314967143L158.91643277601966,121.7210469708638L159.14982930379742,135.3064484396454L159.3832258315752,119.58002208198124L159.616622359353,113.90357577562119L159.85001888713077,102.8533942476029L160.08341541490853,139.9256845457255L160.31681194268631,129.55731449793473L160.5502084704641,141.51844413925426L160.78360499824188,115.75821534581269L161.01700152601967,136.8732754385958L161.25039805379743,130.0475173233225L161.4837945815752,130.51631553371308L161.717191109353,143.92923436647575L161.95058763713078,133.2384659126244L162.18398416490854,86.94418149208944L162.41738069268632,147.55210004216016L162.6507772204641,123.86889512851621L162.8841737482419,122.89077224717008L163.11757027601968,149.07053399850824L163.35096680379743,142.99703187528786L163.58436333157522,136.36016354047905L163.817759859353,119.2203419196178L164.05115638713076,136.44451750478748L164.28455291490852,144.10304827022406L164.5179494426863,112.85504176847424L164.7513459704641,129.78072125454304L164.98474249824187,127.42605502123646L165.21813902601963,119.08571694882542L165.4515355537974,108.63147178598211L165.6849320815752,137.88519540993116L165.91832860935298,107.35189396910833L166.15172513713077,127.39644579070323L166.38512166490852,126.84028470054056L166.6185181926863,115.40123110493262L166.8519147204641,118.58750147754282L167.08531124824188,139.05641053758347L167.31870777601964,81.467387785862L167.55210430379742,148.4909776516339L167.7855008315752,114.90760621202728L168.018897359353,140.35736375668296L168.25229388713075,140.91592029410793L168.48569041490853,70.91872277230487L168.71908694268632,118.55833461183502L168.9524834704641,121.65322743521959L169.1858799982419,110.8929325852183L169.41927652601964,119.74750307419546L169.65267305379743,120.70207211521324L169.8860695815752,103.36977588950019L170.119466109353,134.766853077545L170.35286263713076,136.98087650913192L170.58625916490854,130.9970367281253L170.81965569268633,107.18278123494363L171.0530522204641,117.66970714257985L171.2864487482419,144.21464523057494L171.51984527601965,114.16990444005677L171.75324180379744,125.06653529460921L171.98663833157522,142.9092182841842L172.220034859353,146.3125186827114L172.45343138713076,130.17064915515948L172.68682791490855,131.0621269562616L172.9202244426863,103.89608987370461L173.1536209704641,114.27688995576506L173.38701749824185,115.7918809783302L173.62041402601963,129.80515147801614L173.85381055379742,67.49626296893224L174.0872070815752,134.21157880365973L174.320603609353,130.70349010716572L174.55400013713074,139.1355625419399L174.78739666490853,138.31083801032253L175.0207931926863,86.19006631579376L175.2541897204641,107.31263200422366L175.48758624824185,125.94973336162002L175.72098277601964,85.8508809992582L175.95437930379742,131.4635104365558L176.1877758315752,111.48709114458536L176.421172359353,93.81126941914371L176.65456888713075,129.12199412367346L176.88796541490854,102.65765615885017L177.12136194268632,120.56150860530195L177.3547584704641,140.35200112648772L177.58815499824186,140.0254399004896L177.82155152601965,137.9603515244728L178.05494805379743,132.07120702888264L178.28834458157522,123.78160319404631L178.52174110935297,146.8156961518945L178.75513763713076,151.98269780627322L178.98853416490854,145.03247972137336L179.22193069268633,131.80364725479134L179.4553272204641,52.06971614376174L179.68872374824187,101.73855142242316L179.92212027601965,138.8379636922491L180.15551680379744,139.09634230958594L180.38891333157522,113.51240424558983L180.62230985935298,106.1677125441668L180.85570638713077,121.73084994232576L181.08910291490855,103.57678176154253L181.32249944268634,66.37260623326819L181.55589597046412,136.98655839318704L181.78929249824185,134.02987327835564L182.02268902601963,142.54374773318582L182.25608555379742,139.03273984616916L182.4894820815752,100.35907427355433L182.72287860935296,138.8129617331054L182.95627513713075,132.33586221883706L183.18967166490853,107.02786173447076L183.42306819268632,128.60986919990782L183.65646472046407,128.07697399561164L183.88986124824186,97.44899396238466L184.12325777601964,136.92470034955363L184.35665430379743,131.98324320066845L184.5900508315752,105.88953601426485L184.82344735935297,139.22770170985086L185.05684388713075,107.35985236271326L185.29024041490854,130.9180579137713L185.52363694268632,143.0591611803708L185.75703347046408,122.86943440422203L185.99042999824186,134.93772901113186L186.22382652601965,140.2555259486368L186.45722305379743,50.7084761108098L186.69061958157522,131.44982216648543L186.92401610935298,138.2555215408767L187.15741263713076,112.82705593338531L187.39080916490855,138.18678388955706L187.62420569268633,144.48699381256432L187.8576022204641,142.46269272542938L188.09099874824187,129.4398624635263L188.32439527601966,116.03849936851509L188.55779180379744,117.13449995608278L188.7911883315752,123.545301085451L189.02458485935298,63.31175880843051L189.25798138713077,91.69717453232329L189.49137791490855,115.68505821949165L189.72477444268634,133.7046245404481L189.9581709704641,144.7362476120631L190.19156749824188,113.57773234915113L190.42496402601967,138.86572417167224L190.65836055379742,93.97689748699479L190.89175708157518,131.6294556716402L191.12515360935296,149.27060183732135L191.35855013713075,127.63870730468282L191.59194666490853,142.19335514553018L191.8253431926863,125.19968293381473L192.05873972046408,101.70166403853544L192.29213624824186,121.24774582041044L192.52553277601965,103.07360846561251L192.75892930379743,111.67888133593367L192.9923258315752,125.70920374766456L193.22572235935297,128.16975375786888L193.45911888713076,130.70369876981923L193.69251541490854,118.18426924613853L193.9259119426863,133.9720299041758L194.15930847046408,131.73909537630112L194.39270499824187,103.0718849120945L194.62610152601965,91.75634291435294L194.85949805379744,103.43199491952417L195.0928945815752,113.49231420530978L195.32629110935298,130.63958925615444L195.55968763713076,90.87830716139L195.79308416490855,132.61996059484568L196.0264806926863,147.85950603656596L196.2598772204641,120.213801505997L196.49327374824188,117.79363189250017L196.72667027601966,86.95289524450008L196.96006680379742,126.95332143320066L197.1934633315752,50.89643108258656L197.426859859353,140.11839285274925L197.66025638713077,132.89692688135725L197.89365291490856,141.6387214659912L198.1270494426863,110.82076034662185L198.3604459704641,107.28146197704216L198.59384249824188,123.38309091186446L198.82723902601967,110.05827362466728L199.06063555379743,136.23683556574775L199.2940320815752,143.709932004262L199.52742860935297,103.39841275206807L199.76082513713075,140.39249420102811L199.99422166490854,130.9562473526169L200.2276181926863,123.21800119365945L200.46101472046408,87.96168736265928L200.69441124824186,120.52457531563047L200.92780777601965,117.72766528121915L201.1612043037974,106.49400668196844L201.3946008315752,136.58836953811812L201.62799735935297,124.03176467608786L201.86139388713076,132.17064730303997L202.09479041490852,124.30861411151348L202.3281869426863,119.5793251487185L202.5615834704641,114.10251057622571L202.79497999824187,147.40590681385714L203.02837652601966,118.26778438657985L203.2617730537974,140.71525150685272L203.4951695815752,118.24598331254101L203.72856610935298,121.8014697307801L203.96196263713077,87.47077091099649L204.19535916490852,139.83438837493472L204.4287556926863,129.8473305467969L204.6621522204641,119.42584959380792L204.89554874824188,138.2580046264535L205.12894527601966,142.0833565411052L205.36234180379742,136.48550093656362L205.5957383315752,142.5865465300475L205.829134859353,141.76348086652555L206.06253138713078,135.11730409074363L206.29592791490853,94.02572454791641L206.52932444268632,140.67194774636954L206.7627209704641,104.71206935351331L206.9961174982419,136.7463146470669L207.22951402601964,125.07658866125539L207.46291055379743,54.2332390399459L207.6963070815752,118.37705684497061L207.929703609353,138.25884136369407L208.16310013713078,142.3102020582434L208.3964966649085,114.81649575099813L208.6298931926863,122.59654955921312L208.86328972046408,130.20055885991377L209.09668624824187,110.29132059586783L209.33008277601962,142.13208970383275L209.5634793037974,119.04907161361578L209.7968758315752,115.77490001158745L210.03027235935298,143.00550149239388L210.26366888713076,127.76716003418431L210.49706541490852,116.57816358929117L210.7304619426863,118.35839405724059L210.9638584704641,145.91852186035152L211.19725499824187,129.38115731258748L211.43065152601963,111.30485770276788L211.66404805379742,115.75465138769073L211.8974445815752,119.57495992600704L212.13084110935299,145.30340313743926L212.36423763713074,137.7146846359879L212.59763416490853,149.67679499177896L212.8310306926863,114.40183715268756L213.0644272204641,105.50664004507176L213.29782374824188,107.58930616302034L213.53122027601964,80.51746357551139L213.76461680379742,72.5615822689417L213.9980133315752,116.43111484410875L214.231409859353,146.35655693573494L214.46480638713075,117.402351857889L214.69820291490853,130.97129610318817L214.93159944268632,127.4817345636994L215.1649959704641,86.23501225136008L215.3983924982419,131.63322829241565L215.63178902601965,122.57071294945536L215.86518555379743,137.7815693629444L216.09858208157522,127.01164264485703L216.331978609353,114.56296228047586L216.56537513713076,133.35680267668369L216.79877166490854,93.58216617209453L217.03216819268633,106.43436254908879L217.26556472046408,111.15293042474636L217.49896124824184,130.30027874202676L217.73235777601963,110.4608590018457L217.9657543037974,118.29721416723109L218.1991508315752,150.9599471999074L218.43254735935298,100.7782483316869L218.66594388713074,112.33406120169356L218.89934041490852,127.79132316946092L219.1327369426863,120.85101551728957L219.3661334704641,121.62476584928066L219.59952999824185,141.3246361800465L219.83292652601963,134.85142613763963L220.06632305379742,124.84549894574478L220.2997195815752,128.29339889983348L220.533116109353,88.86208340557248L220.76651263713075,38.81772629589307L220.99990916490853,125.31637126291128L221.23330569268632,99.33592616483357L221.4667022204641,129.51434251107062L221.70009874824186,132.62678803686856L221.93349527601964,135.74278708765578L222.16689180379743,136.9403750880854L222.4002883315752,149.86572441814764L222.63368485935297,135.84299941363108L222.86708138713075,147.28189025236927L223.10047791490854,83.69662272488992L223.33387444268632,135.98007617060222L223.5672709704641,149.43912822942968L223.80066749824186,145.3619601378941L224.03406402601965,139.9334760092076L224.26746055379743,96.20483871757094L224.50085708157522,105.45322240577289L224.73425360935298,143.35616951475214L224.96765013713076,143.30834612119392L225.20104666490855,133.29219654590355L225.43444319268633,142.92486798319754L225.66783972046412,137.29176090997177L225.90123624824187,128.42092099390032L226.13463277601963,124.29535568650937L226.3680293037974,151.89276628923642L226.6014258315752,105.79348024834749L226.83482235935296,132.15848227034024L227.06821888713074,115.00573191146745L227.30161541490853,125.53368507003707L227.5350119426863,124.09182613427453L227.76840847046407,142.0938522725768L228.00180499824185,123.38924228688995L228.23520152601964,136.96992380644912L228.46859805379742,122.07753459462852L228.7019945815752,122.03387402100782L228.93539110935296,132.30371565043714L229.16878763713075,130.38344750246327L229.40218416490853,131.46676140069746L229.63558069268632,123.48634971258102L229.86897722046407,120.57944942025085L230.10237374824186,101.51746499452189L230.33577027601964,63.40376234561667L230.56916680379743,106.34651139870749L230.8025633315752,106.67929494503333L231.03595985935297,123.15461782602888L231.26935638713076,146.09840367406395L231.50275291490854,133.40477004747285L231.73614944268633,144.68924634935968L231.96954597046408,97.04734339389398L232.20294249824187,135.18792179257142L232.43633902601965,129.48374004630665L232.66973555379744,102.2501880755796L232.9031320815752,137.11155149589334L233.13652860935298,145.93471825551705L233.36992513713076,131.4359794860515L233.60332166490855,145.6809531694494L233.83671819268633,121.01638067019721L234.0701147204641,127.2741611292395L234.30351124824188,122.78656194475352L234.53690777601966,125.65318199844987L234.77030430379745,139.25460875902112L235.00370083157517,140.77999535498418L235.23709735935296,103.58712725590362" style="fill: none;" fill="none"></path></g></g></g></g></g></g><g transform="translate(64, 177)" clip-path="url(#clip_1)"><clipPath id="clip_1"><rect width="266" height="23"></rect></clipPath><g><g><line x1="13.43259712787152" y1="0" x2="13.43259712787152" y2="5" style="visibility: inherit;" fill="rgb(0, 0, 0)" stroke="rgb(204, 204, 204)" stroke-width="1px"></line><line x1="52.332018424167806" y1="0" x2="52.332018424167806" y2="5" style="visibility: inherit;" fill="rgb(0, 0, 0)" stroke="rgb(204, 204, 204)" stroke-width="1px"></line><line x1="91.2314397204641" y1="0" x2="91.2314397204641" y2="5" style="visibility: inherit;" fill="rgb(0, 0, 0)" stroke="rgb(204, 204, 204)" stroke-width="1px"></line><line x1="130.1308610167604" y1="0" x2="130.1308610167604" y2="5" style="visibility: inherit;" fill="rgb(0, 0, 0)" stroke="rgb(204, 204, 204)" stroke-width="1px"></line><line x1="169.0302823130567" y1="0" x2="169.0302823130567" y2="5" style="visibility: inherit;" fill="rgb(0, 0, 0)" stroke="rgb(204, 204, 204)" stroke-width="1px"></line><line x1="207.929703609353" y1="0" x2="207.929703609353" y2="5" style="visibility: inherit;" fill="rgb(0, 0, 0)" stroke="rgb(204, 204, 204)" stroke-width="1px"></line><line x1="246.82912490564928" y1="0" x2="246.82912490564928" y2="5" style="visibility: inherit;" fill="rgb(0, 0, 0)" stroke="rgb(204, 204, 204)" stroke-width="1px"></line></g><g transform="translate(0, 8)"><text x="13.43259712787152" y="0" dx="0em" dy="0.95em" style="text-anchor: middle; visibility: inherit; font-family: &quot;Helvetica Neue&quot;, sans-serif; font-size: 12px; font-weight: 200;" fill="rgb(50, 49, 63)" stroke="none" stroke-width="1px">0</text><text x="52.332018424167806" y="0" dx="0em" dy="0.95em" style="text-anchor: middle; visibility: inherit; font-family: &quot;Helvetica Neue&quot;, sans-serif; font-size: 12px; font-weight: 200;" fill="rgb(50, 49, 63)" stroke="none" stroke-width="1px">50k</text><text x="91.2314397204641" y="0" dx="0em" dy="0.95em" style="text-anchor: middle; visibility: inherit; font-family: &quot;Helvetica Neue&quot;, sans-serif; font-size: 12px; font-weight: 200;" fill="rgb(50, 49, 63)" stroke="none" stroke-width="1px">100k</text><text x="130.1308610167604" y="0" dx="0em" dy="0.95em" style="text-anchor: middle; visibility: inherit; font-family: &quot;Helvetica Neue&quot;, sans-serif; font-size: 12px; font-weight: 200;" fill="rgb(50, 49, 63)" stroke="none" stroke-width="1px">150k</text><text x="169.0302823130567" y="0" dx="0em" dy="0.95em" style="text-anchor: middle; visibility: inherit; font-family: &quot;Helvetica Neue&quot;, sans-serif; font-size: 12px; font-weight: 200;" fill="rgb(50, 49, 63)" stroke="none" stroke-width="1px">200k</text><text x="207.929703609353" y="0" dx="0em" dy="0.95em" style="text-anchor: middle; visibility: inherit; font-family: &quot;Helvetica Neue&quot;, sans-serif; font-size: 12px; font-weight: 200;" fill="rgb(50, 49, 63)" stroke="none" stroke-width="1px">250k</text><text x="246.82912490564928" y="0" dx="0em" dy="0.95em" style="text-anchor: middle; visibility: inherit; font-family: &quot;Helvetica Neue&quot;, sans-serif; font-size: 12px; font-weight: 200;" fill="rgb(50, 49, 63)" stroke="none" stroke-width="1px">300k</text></g><line x1="0" y1="0" x2="266" y2="0" fill="rgb(0, 0, 0)" stroke="rgb(204, 204, 204)" stroke-width="1px"></line></g></g></g></g></svg>