<svg viewBox="0 0 330 200" xmlns="http://www.w3.org/2000/svg"><g><g><g><g><g><line x1="64" y1="165.63303792661512" x2="59" y2="165.63303792661512" style="visibility: inherit;" fill="rgb(0, 0, 0)" stroke="rgb(204, 204, 204)" stroke-width="1px"></line><line x1="64" y1="150.01343256042497" x2="59" y2="150.01343256042497" style="visibility: inherit;" fill="rgb(0, 0, 0)" stroke="rgb(204, 204, 204)" stroke-width="1px"></line><line x1="64" y1="134.3938271942348" x2="59" y2="134.3938271942348" style="visibility: inherit;" fill="rgb(0, 0, 0)" stroke="rgb(204, 204, 204)" stroke-width="1px"></line><line x1="64" y1="118.77422182804463" x2="59" y2="118.77422182804463" style="visibility: inherit;" fill="rgb(0, 0, 0)" stroke="rgb(204, 204, 204)" stroke-width="1px"></line><line x1="64" y1="103.15461646185447" x2="59" y2="103.15461646185447" style="visibility: inherit;" fill="rgb(0, 0, 0)" stroke="rgb(204, 204, 204)" stroke-width="1px"></line><line x1="64" y1="87.53501109566432" x2="59" y2="87.53501109566432" style="visibility: inherit;" fill="rgb(0, 0, 0)" stroke="rgb(204, 204, 204)" stroke-width="1px"></line><line x1="64" y1="71.91540572947417" x2="59" y2="71.91540572947417" style="visibility: inherit;" fill="rgb(0, 0, 0)" stroke="rgb(204, 204, 204)" stroke-width="1px"></line><line x1="64" y1="56.295800363284" x2="59" y2="56.295800363284" style="visibility: inherit;" fill="rgb(0, 0, 0)" stroke="rgb(204, 204, 204)" stroke-width="1px"></line><line x1="64" y1="40.67619499709383" x2="59" y2="40.67619499709383" style="visibility: inherit;" fill="rgb(0, 0, 0)" stroke="rgb(204, 204, 204)" stroke-width="1px"></line><line x1="64" y1="25.056589630903687" x2="59" y2="25.056589630903687" style="visibility: inherit;" fill="rgb(0, 0, 0)" stroke="rgb(204, 204, 204)" stroke-width="1px"></line><line x1="64" y1="9.436984264713516" x2="59" y2="9.436984264713516" style="visibility: inherit;" fill="rgb(0, 0, 0)" stroke="rgb(204, 204, 204)" stroke-width="1px"></line></g><g transform="translate(54, 0)"><text x="0" y="165.63303792661512" dx="0em" dy="0.3em" style="text-anchor: end; visibility: inherit; font-family: &quot;Helvetica Neue&quot;, sans-serif; font-size: 12px; font-weight: 200;" fill="rgb(50, 49, 63)" stroke="none" stroke-width="1px">100</text><text x="0" y="150.01343256042497" dx="0em" dy="0.3em" style="text-anchor: end; visibility: hidden; font-family: &quot;Helvetica Neue&quot;, sans-serif; font-size: 12px; font-weight: 200;" fill="rgb(50, 49, 63)" stroke="none" stroke-width="1px">200</text><text x="0" y="134.3938271942348" dx="0em" dy="0.3em" style="text-anchor: end; visibility: inherit; font-family: &quot;Helvetica Neue&quot;, sans-serif; font-size: 12px; font-weight: 200;" fill="rgb(50, 49, 63)" stroke="none" stroke-width="1px">300</text><text x="0" y="118.77422182804463" dx="0em" dy="0.3em" style="text-anchor: end; visibility: hidden; font-family: &quot;Helvetica Neue&quot;, sans-serif; font-size: 12px; font-weight: 200;" fill="rgb(50, 49, 63)" stroke="none" stroke-width="1px">400</text><text x="0" y="103.15461646185447" dx="0em" dy="0.3em" style="text-anchor: end; visibility: inherit; font-family: &quot;Helvetica Neue&quot;, sans-serif; font-size: 12px; font-weight: 200;" fill="rgb(50, 49, 63)" stroke="none" stroke-width="1px">500</text><text x="0" y="87.53501109566432" dx="0em" dy="0.3em" style="text-anchor: end; visibility: hidden; font-family: &quot;Helvetica Neue&quot;, sans-serif; font-size: 12px; font-weight: 200;" fill="rgb(50, 49, 63)" stroke="none" stroke-width="1px">600</text><text x="0" y="71.91540572947417" dx="0em" dy="0.3em" style="text-anchor: end; visibility: inherit; font-family: &quot;Helvetica Neue&quot;, sans-serif; font-size: 12px; font-weight: 200;" fill="rgb(50, 49, 63)" stroke="none" stroke-width="1px">700</text><text x="0" y="56.295800363284" dx="0em" dy="0.3em" style="text-anchor: end; visibility: hidden; font-family: &quot;Helvetica Neue&quot;, sans-serif; font-size: 12px; font-weight: 200;" fill="rgb(50, 49, 63)" stroke="none" stroke-width="1px">800</text><text x="0" y="40.67619499709383" dx="0em" dy="0.3em" style="text-anchor: end; visibility: inherit; font-family: &quot;Helvetica Neue&quot;, sans-serif; font-size: 12px; font-weight: 200;" fill="rgb(50, 49, 63)" stroke="none" stroke-width="1px">900</text><text x="0" y="25.056589630903687" dx="0em" dy="0.3em" style="text-anchor: end; visibility: hidden; font-family: &quot;Helvetica Neue&quot;, sans-serif; font-size: 12px; font-weight: 200;" fill="rgb(50, 49, 63)" stroke="none" stroke-width="1px">1e+3</text><text x="0" y="9.436984264713516" dx="0em" dy="0.3em" style="text-anchor: end; visibility: inherit; font-family: &quot;Helvetica Neue&quot;, sans-serif; font-size: 12px; font-weight: 200;" fill="rgb(50, 49, 63)" stroke="none" stroke-width="1px">1.1e+3</text></g><line x1="64" y1="0" x2="64" y2="177" fill="rgb(0, 0, 0)" stroke="rgb(204, 204, 204)" stroke-width="1px"></line></g></g><g transform="translate(64, 0)" clip-path="url(#clip_0)"><clipPath id="clip_0"><rect width="266" height="177"></rect></clipPath><g><g><g><line x1="23.364287238121197" y1="0" x2="23.364287238121197" y2="177" fill="rgb(0, 0, 0)" stroke="rgb(60, 60, 60)" stroke-width="1px" opacity="0.25"></line><line x1="61.26357147765177" y1="0" x2="61.26357147765177" y2="177" fill="rgb(0, 0, 0)" stroke="rgb(60, 60, 60)" stroke-width="1px" opacity="0.25"></line><line x1="99.16285571718235" y1="0" x2="99.16285571718235" y2="177" fill="rgb(0, 0, 0)" stroke="rgb(60, 60, 60)" stroke-width="1px" opacity="0.25"></line><line x1="137.06213995671294" y1="0" x2="137.06213995671294" y2="177" fill="rgb(0, 0, 0)" stroke="rgb(60, 60, 60)" stroke-width="1px" opacity="0.25"></line><line x1="174.96142419624348" y1="0" x2="174.96142419624348" y2="177" fill="rgb(0, 0, 0)" stroke="rgb(60, 60, 60)" stroke-width="1px" opacity="0.25"></line><line x1="212.86070843577406" y1="0" x2="212.86070843577406" y2="177" fill="rgb(0, 0, 0)" stroke="rgb(60, 60, 60)" stroke-width="1px" opacity="0.25"></line><line x1="250.75999267530466" y1="0" x2="250.75999267530466" y2="177" fill="rgb(0, 0, 0)" stroke="rgb(60, 60, 60)" stroke-width="1px" opacity="0.25"></line></g><g><line x1="0" y1="165.63303792661512" x2="266" y2="165.63303792661512" fill="rgb(0, 0, 0)" stroke="rgb(60, 60, 60)" stroke-width="1px" opacity="0.25"></line><line x1="0" y1="150.01343256042497" x2="266" y2="150.01343256042497" fill="rgb(0, 0, 0)" stroke="rgb(60, 60, 60)" stroke-width="1px" opacity="0.25"></line><line x1="0" y1="134.3938271942348" x2="266" y2="134.3938271942348" fill="rgb(0, 0, 0)" stroke="rgb(60, 60, 60)" stroke-width="1px" opacity="0.25"></line><line x1="0" y1="118.77422182804463" x2="266" y2="118.77422182804463" fill="rgb(0, 0, 0)" stroke="rgb(60, 60, 60)" stroke-width="1px" opacity="0.25"></line><line x1="0" y1="103.15461646185447" x2="266" y2="103.15461646185447" fill="rgb(0, 0, 0)" stroke="rgb(60, 60, 60)" stroke-width="1px" opacity="0.25"></line><line x1="0" y1="87.53501109566432" x2="266" y2="87.53501109566432" fill="rgb(0, 0, 0)" stroke="rgb(60, 60, 60)" stroke-width="1px" opacity="0.25"></line><line x1="0" y1="71.91540572947417" x2="266" y2="71.91540572947417" fill="rgb(0, 0, 0)" stroke="rgb(60, 60, 60)" stroke-width="1px" opacity="0.25"></line><line x1="0" y1="56.295800363284" x2="266" y2="56.295800363284" fill="rgb(0, 0, 0)" stroke="rgb(60, 60, 60)" stroke-width="1px" opacity="0.25"></line><line x1="0" y1="40.67619499709383" x2="266" y2="40.67619499709383" fill="rgb(0, 0, 0)" stroke="rgb(60, 60, 60)" stroke-width="1px" opacity="0.25"></line><line x1="0" y1="25.056589630903687" x2="266" y2="25.056589630903687" fill="rgb(0, 0, 0)" stroke="rgb(60, 60, 60)" stroke-width="1px" opacity="0.25"></line><line x1="0" y1="9.436984264713516" x2="266" y2="9.436984264713516" fill="rgb(0, 0, 0)" stroke="rgb(60, 60, 60)" stroke-width="1px" opacity="0.25"></line></g></g></g><g><g><line x1="0" y1="181.2526432928053" x2="266" y2="181.2526432928053" fill="rgb(0, 0, 0)" stroke="rgb(153, 153, 153)" stroke-width="1.5px"></line></g></g><g><g><line x1="23.364287238121197" y1="0" x2="23.364287238121197" y2="177" fill="rgb(0, 0, 0)" stroke="rgb(153, 153, 153)" stroke-width="1.5px"></line></g></g><g><g><g><g><g><path stroke="rgb(255, 112, 67)" stroke-width="2px" d="M23.440085806600255,72.71036203627662L23.66748151203744,78.71780431491247L23.894877217474622,90.56183182880248L24.122272922911808,115.13805085222992L24.349668628348994,127.52642489409696L24.577064333786176,125.2389969907641L24.804460039223358,92.57647244631781L25.03185574466054,129.10996540732884L25.259251450097725,108.40947883897255L25.486647155534907,118.39768747720811L25.714042860972093,119.19728651754399L25.941438566409275,131.8009081536224L26.16883427184646,105.6081626897981L26.396229977283642,101.46258259491245L26.623625682720824,119.36530326960327L26.851021388158006,108.23824824248061L27.078417093595192,99.53379282215468L27.305812799032374,117.24339563162042L27.53320850446956,137.714050698967L27.76060420990674,114.30420564775932L27.987999915343927,102.25820562897229L28.21539562078111,109.07183091343445L28.442791326218295,90.5137739822585L28.670187031655477,98.09446465583206L28.89758273709266,106.69248998393702L29.124978442529844,93.02762761264796L29.352374147967026,121.61885422427541L29.579769853404212,127.76613610848045L29.807165558841394,104.5744673930442L30.03456126427858,122.23964881908566L30.26195696971576,109.22901088110173L30.489352675152944,96.867628711676L30.716748380590126,94.04097278904234L30.94414408602731,102.39184180917822L31.171539791464493,125.64009599928586L31.39893549690168,83.60461967325712L31.62633120233886,62.33365611757796L31.853726907776046,115.20927680406409L32.081122613213225,120.2328473559383L32.308518318650414,119.38927683085494L32.535914024087596,130.20143410251373L32.76330972952478,147.90412072485793L32.99070543496197,112.07286410159082L33.21810114039914,86.74396031868433L33.445496845836324,84.91210345040744L33.67289255127351,107.2891254726875L33.900288256710695,116.89970119612492L34.12768396214788,69.46055777435423L34.35507966758506,108.56379847070488L34.58247537302225,112.57097676498586L34.80987107845943,141.13517268009306L35.03726678389661,144.77787763635345L35.264662489333794,140.92206614030462L35.49205819477098,153.38723173643797L35.719453900208165,131.7924192443356L35.94684960564535,111.99543217455421L36.17424531108253,86.12180151276998L36.40164101651972,114.53614192940593L36.6290367219569,109.90450003669616L36.85643242739408,140.93712198971596L37.08382813283126,113.29251953250551L37.31122383826845,99.57971060048136L37.53861954370563,148.81840349369492L37.76601524914281,91.75328975878999L37.99341095458,98.78567851870942L38.22080666001718,145.10142162094303L38.448202365454364,129.88209466919906L38.675598070891546,109.36772495693937L38.902993776328735,110.9363193182175L39.13038948176592,135.63572334171414L39.3577851872031,132.15066710660804L39.58518089264028,142.26614162636304L39.81257659807747,132.02235154977785L40.03997230351465,99.55385239615099L40.267368008951834,127.24876351582245L40.494763714389016,129.27058758179322L40.722159419826205,20.059581415131447L40.94955512526338,84.28946033893195L41.17695083070056,98.5592689402555L41.404346536137744,112.193112305981L41.63174224157493,129.31447855026792L41.859137947012115,106.54775029370337L42.0865336524493,121.68412951032438L42.31392935788649,150.72841092117628L42.54132506332367,136.0914645944208L42.76872076876085,84.99729350554686L42.99611647419803,142.34914754063385L43.22351217963522,128.57740944118183L43.450907885072404,128.99038934884572L43.678303590509586,133.10785388258455L43.90569929594677,129.53632701404092L44.13309500138396,136.55336631197466L44.36049070682114,110.98341071631458L44.587886412258314,114.54622507345422L44.815282117695496,146.79093549442362L45.042677823132685,85.51950298416953L45.27007352856987,117.56944769751992L45.49746923400705,132.0786818461957L45.72486493944423,112.58795760397794L45.95226064488142,107.2299401862414L46.1796563503186,93.76768629861505L46.407052055755784,125.38187480859256L46.63444776119297,139.13470448603067L46.861843466630155,113.47996456686704L47.08923917206734,92.9240649741707L47.31663487750452,120.87105266510724L47.54403058294171,117.84466143547809L47.77142628837889,139.95128913637978L47.99882199381607,123.64986741334755L48.226217699253255,93.43138445563663L48.45361340469044,117.6469864874775L48.68100911012762,118.9317467665235L48.9084048155648,145.71198641536603L49.13580052100198,102.49446934833846L49.36319622643917,131.43164532109L49.590591931876354,92.82526084402265L49.817987637313536,111.58074603632174L50.04538334275072,115.50494968810834L50.27277904818791,139.04522062432895L50.50017475362509,106.2199270790063L50.72757045906227,116.00730019328387L50.95496616449946,125.76007270541297L51.18236186993664,104.9029899177221L51.409757575373824,49.099864094843355L51.637153280811006,138.76255749638065L51.864548986248195,131.25802465803753L52.09194469168538,132.7490759743319L52.31934039712255,112.25732983049869L52.546736102559734,105.39773727344716L52.77413180799692,107.90213800239246L53.001527513434105,113.32798999495631L53.22892321887129,112.43534043308213L53.45631892430847,114.499654621715L53.68371462974566,97.52326619334465L53.91111033518284,140.98174070943682L54.13850604062002,113.59937606797538L54.365901746057204,107.40356721868952L54.593297451494394,111.77799682620042L54.820693156931576,144.1952890396111L55.04808886236876,113.77408503888445L55.27548456780595,139.33584779394528L55.50288027324313,147.37622334841066L55.73027597868031,118.85378476853627L55.957671684117486,90.0274935554142L56.185067389554675,22.646768808129337L56.41246309499186,127.37058948897428L56.63985880042904,143.36935497983168L56.86725450586622,137.08720258687487L57.09465021130341,140.5993841874131L57.32204591674059,81.1711050967546L57.549441622177774,76.22854193952203L57.776837327614956,96.63548853132507L58.004233033052145,105.81845691534011L58.23162873848933,128.679232907342L58.45902444392651,139.16207841843672L58.68642014936369,116.50857011607665L58.91381585480088,146.587322916649L59.14121156023806,120.37183492383224L59.368607265675244,118.98735622899767L59.59600297111243,30.74736877778085L59.82339867654961,48.309465529052034L60.05079438198679,141.80657044844108L60.27819008742397,149.7074815999956L60.50558579286116,124.78254099795538L60.732981498298344,110.07564327859978L60.960377203735526,134.37450718843357L61.18777290917271,121.08078389414796L61.4151686146099,97.81816970160263L61.64256432004708,118.61022589380954L61.86996002548426,131.32423463711987L62.09735573092144,143.53021410940266L62.32475143635863,145.72152224003753L62.552147141795814,101.6488496751642L62.779542847232996,145.1304887073074L63.00693855267018,117.65139838357342L63.23433425810737,120.55342424270678L63.46172996354455,139.03485334561373L63.689125668981724,145.37424271479728L63.91652137441891,65.88292433060963L64.1439170798561,114.02119455750396L64.37131278529328,135.23987507475874L64.59870849073046,142.67860799851059L64.82610419616765,123.47251879838069L65.05349990160484,117.46880364029924L65.28089560704201,142.2938835708752L65.50829131247919,138.9613556626276L65.73568701791638,112.31730595775602L65.96308272335357,126.72587394368352L66.19047842879074,148.20238285765407L66.41787413422793,112.54672045580912L66.64526983966512,139.3769459708496L66.8726655451023,102.56893617635643L67.10006125053948,120.88459672123801L67.32745695597667,121.0825248647624L67.55485266141385,135.1540849543683L67.78224836685104,151.63205576968795L68.00964407228822,141.88779958232308L68.2370397777254,134.42381734173387L68.46443548316259,101.98901456691857L68.69183118859978,141.75520966572134L68.91922689403695,122.35239866045833L69.14662259947414,107.4459123947193L69.3740183049113,114.20405650801537L69.60141401034849,138.70932261062467L69.82880971578568,113.68034421451813L70.05620542122286,155.8368666022205L70.28360112666005,150.7552754250736L70.51099683209723,150.2732680803377L70.73839253753441,140.84322837639093L70.9657882429716,135.13652752051132L71.19318394840877,97.30606730587861L71.42057965384596,91.19655329826877L71.64797535928315,57.813856222841935L71.87537106472033,135.99349855947284L72.10276677015752,130.70162503244273L72.3301624755947,121.59757281871705L72.55755818103188,150.27004472346104L72.78495388646907,142.49338011157036L73.01234959190626,150.6189586004603L73.23974529734343,135.42859284613363L73.46714100278062,108.02134908967932L73.6945367082178,131.6045421937158L73.92193241365499,102.62883252115374L74.14932811909217,128.3238848904774L74.37672382452935,126.57622204154681L74.60411952996654,151.41757741132142L74.83151523540373,136.86557735691034L75.0589109408409,130.78615408908323L75.28630664627809,141.2357410502992L75.51370235171527,126.16520334693732L75.74109805715246,136.88962759546087L75.96849376258965,147.1910659076996L76.19588946802682,101.01211596563151L76.42328517346401,150.6636388787031L76.6506808789012,150.50320606688604L76.87807658433836,109.06222293401395L77.10547228977555,141.5097158213323L77.33286799521274,133.3989460337051L77.56026370064991,140.49860957507423L77.7876594060871,140.32006762168777L78.01505511152428,86.55224594277668L78.24245081696147,138.1646131272515L78.46984652239865,153.84762442362714L78.69724222783583,142.11127282903774L78.92463793327302,151.2731323950355L79.15203363871021,130.13101063698724L79.37942934414738,138.95882272868496L79.60682504958457,148.23758809256228L79.83422075502175,127.21298490555512L80.06161646045894,126.85064113596295L80.28901216589612,141.67685073378658L80.5164078713333,144.7962942893427L80.74380357677049,124.38150626827527L80.97119928220768,129.3698140007086L81.19859498764485,98.02305337010579L81.42599069308204,104.62386933624616L81.65338639851923,131.80992463049523L81.8807821039564,118.67791311915644L82.1081778093936,140.33420128722418L82.33557351483077,138.52187038703093L82.56296922026796,128.56254775347935L82.79036492570515,142.4556844860561L83.01776063114232,123.21557468469145L83.24515633657951,141.9380224284996L83.4725520420167,148.3987469081672L83.69994774745388,139.01501858173398L83.92734345289107,134.3220512780802L84.15473915832824,155.67000294724994L84.38213486376542,143.96234186123047L84.6095305692026,131.61768816469254L84.83692627463978,128.8266960187134L85.06432198007697,99.94847568587143L85.29171768551416,158.11565517499648L85.51911339095133,135.73605885040033L85.74650909638852,137.32096250873064L85.97390480182571,84.2663519140265L86.20130050726289,141.25062537279237L86.42869621270007,109.87506616710687L86.65609191813725,103.17314188628936L86.88348762357444,129.24167056368105L87.11088332901163,86.11580128743898L87.3382790344488,131.78142109870785L87.56567473988599,141.79080718569782L87.79307044532318,141.7516858137414L88.02046615076036,112.42779840541736L88.24786185619755,79.63427454337618L88.47525756163472,133.41596167137797L88.70265326707191,118.62825805498656L88.9300489725091,104.46954097162627L89.15744467794627,130.14471440212887L89.38484038338346,130.82933820732674L89.61223608882065,141.47714490279824L89.83963179425783,113.54693541770621L90.06702749969502,114.4587548533687L90.2944232051322,132.7846128868144L90.52181891056938,55.08896702484573L90.74921461600657,116.9265901027303L90.97661032144374,131.22202716524464L91.20400602688093,143.58564265692195L91.43140173231812,118.2308588265735L91.6587974377553,115.8265789379122L91.88619314319249,115.91839734876059L92.11358884862966,129.0591693723355L92.34098455406684,144.57022942893462L92.56838025950402,144.09126590242786L92.7957759649412,143.42941966925193L93.02317167037839,98.10738399123134L93.25056737581558,142.51769098277092L93.47796308125275,155.5379916848501L93.70535878668994,125.3208878966934L93.93275449212713,157.63658347534974L94.1601501975643,130.6821505172884L94.3875459030015,117.92540629958455L94.61494160843868,143.75958383992477L94.84233731387586,136.29918791172702L95.06973301931305,149.49174027929672L95.29712872475022,134.49864719006814L95.52452443018741,135.40753058404454L95.7519201356246,136.84028606356486L95.97931584106178,109.22272154054106L96.20671154649897,67.85908994310638L96.43410725193615,135.26769199275148L96.66150295737333,129.09847424179662L96.88889866281052,120.93537193541303L97.1162943682477,134.3052563631656L97.34369007368488,109.10220836121964L97.57108577912207,101.36417093148702L97.79848148455925,119.29591907999495L98.02587718999644,59.27329027395744L98.25327289543362,121.67173689263218L98.4806686008708,134.6892234801416L98.70806430630799,111.16912512211509L98.93546001174518,132.92590971503358L99.16285571718235,126.56373214771324L99.39025142261954,139.11467466968017L99.6176471280567,131.19782960396978L99.84504283349389,116.81462588720092L100.07243853893108,121.43549598897403L100.29983424436826,148.61857721932546L100.52722994980545,140.65348680168034L100.75462565524263,124.9404972830838L100.98202136067981,112.25988820357482L101.209417066117,107.72210347121937L101.43681277155417,146.87221151572422L101.66420847699136,141.17415948468508L101.89160418242855,137.4107876621763L102.11899988786573,130.68395012248723L102.34639559330292,112.76123652439156L102.5737912987401,96.43935125037699L102.80118700417728,95.74055583849119L103.02858270961447,143.09533042711837L103.25597841505166,158.81252891873467L103.48337412048883,142.22277713787855L103.71076982592602,122.53848002827473L103.9381655313632,115.69865713960107L104.16556123680039,137.71591631771585L104.39295694223757,135.55207553143438L104.62035264767475,132.6450117079009L104.84774835311194,92.85741076940185L105.07514405854913,91.820798586349L105.3025397639863,141.49904165644833L105.52993546942349,144.91040625300005L105.75733117486067,108.17024496346069L105.98472688029786,156.23303798186328L106.21212258573505,144.4942634290867L106.43951829117222,138.76534775960727L106.66691399660941,110.41097808966995L106.8943097020466,112.3741973347872L107.12170540748376,144.35154685640677L107.34910111292095,147.45506599962675L107.57649681835814,144.17483524226628L107.80389252379531,123.47899035996545L108.0312882292325,65.50262836260427L108.25868393466968,128.87773123309927L108.48607964010687,139.79709167851783L108.71347534554405,123.67813086536688L108.94087105098123,139.40201105520094L109.16826675641842,126.87191799175649L109.39566246185561,124.13629853446449L109.62305816729278,127.51872118986887L109.85045387272997,137.9268328776605L110.07784957816715,141.9570571896804L110.30524528360434,140.56485503830018L110.53264098904152,138.31272342156237L110.7600366944787,115.0670946489522L110.98743239991589,121.01100652091249L111.21482810535308,136.04380330730226L111.44222381079025,115.08398379122167L111.66961951622744,128.53493353607772L111.89701522166463,149.14734944895517L112.1244109271018,154.25497521748173L112.351806632539,101.81451225276685L112.57920233797617,105.29462858223843L112.80659804341336,0.5681609131152072L113.03399374885055,135.1816834653962L113.26138945428772,119.22150214322184L113.48878515972491,130.46583402168204L113.7161808651621,122.65582409752551L113.94357657059928,149.97732821027597L114.17097227603647,156.91879511723667L114.39836798147364,149.29833505729587L114.62576368691083,149.9075322033496L114.853159392348,123.37802807302582L115.08055509778518,124.32961283977423L115.30795080322237,111.34568461355839L115.53534650865956,81.71467215721522L115.76274221409673,126.92550877614622L115.99013791953392,137.95275290823835L116.21753362497111,151.64100598204828L116.44492933040829,128.55530672462686L116.67232503584547,103.77003581603753L116.89972074128265,135.02456138582698L117.12711644671984,119.853226842878L117.35451215215703,117.25381255315064L117.5819078575942,143.284801163415L117.80930356303139,138.6815555694448L118.03669926846858,132.06233990983728L118.26409497390576,135.29701817746593L118.49149067934295,131.68221064107075L118.71888638478012,129.2095735533498L118.94628209021731,140.74093292458443L119.1736777956545,140.04441886209642L119.40107350109167,153.74155721725708L119.62846920652886,138.80218934249322L119.85586491196605,149.18351325678978L120.08326061740323,89.97991322095974L120.31065632284042,107.42305515719677L120.5380520282776,134.91682904382995L120.76544773371478,142.36641702190823L120.99284343915197,126.92424117515971L121.22023914458914,151.6172345589483L121.44763485002633,130.3706830946068L121.67503055546352,139.00251600669378L121.9024262609007,127.16602744164302L122.12982196633789,106.26830735953457L122.35721767177506,146.29452452555347L122.58461337721224,122.75403399363898L122.81200908264942,141.91595799006308L123.0394047880866,100.29491363490027L123.26680049352379,129.4157289153363L123.49419619896098,49.14101306273642L123.72159190439815,117.23779735670513L123.94898760983534,127.50919510515173L124.17638331527253,130.60132716797204L124.4037790207097,123.46589388059368L124.6311747261469,142.77892481500672L124.85857043158408,129.80452236647565L125.08596613702126,117.54545685427807L125.31336184245845,151.92931710413143L125.54075754789562,146.4859815091445L125.76815325333281,66.8682795519235L125.99554895877,119.5314393326839L126.22294466420718,77.00842273024335L126.45034036964437,106.94360219230704L126.67773607508155,142.42509422255338L126.90513178051873,161.04135186850846L127.13252748595592,118.05862362128042L127.3599231913931,148.20747130882356L127.58731889683028,143.18584319715325L127.81471460226747,149.03975247390042L128.04211030770463,152.7439053092632L128.26950601314184,89.0968160624463L128.496901718579,130.64541015666975L128.72429742401619,142.8916471156579L128.9516931294534,139.37858079961026L129.17908883489056,156.5502444568776L129.40648454032774,122.26451835134083L129.63388024576494,153.56181355751116L129.86127595120212,145.82771730736283L130.0886716566393,116.84805081520304L130.3160673620765,109.06491025912834L130.54346306751367,146.85154225107968L130.77085877295085,124.9143152652021L130.99825447838805,112.93226142581197L131.22565018382522,87.50630913473108L131.4530458892624,31.271998791607928L131.68044159469957,136.92224657400175L131.90783730013678,152.10689936215257L132.13523300557395,111.62634863731715L132.36262871101113,121.0168436482303L132.59002441644833,130.45256181313607L132.8174201218855,132.19394504945762L133.04481582732268,138.58462404840805L133.27221153275988,125.65437551760962L133.49960723819706,125.27730062110415L133.72700294363426,139.78556878123408L133.9543986490714,140.22831935613328L134.18179435450858,136.2536996368644L134.4091900599458,124.7886026670516L134.63658576538296,127.63389337691777L134.86398147082016,144.87114384654834L135.0913771762573,142.44394000402713L135.3187728816945,77.41065033033864L135.5461685871317,125.32750352935287L135.7735642925689,52.1301059757738L136.00095999800607,96.22913068307305L136.22835570344327,117.48723309747422L136.45575140888042,143.79794557829644L136.68314711431762,128.37848994791673L136.9105428197548,100.78650963240091L137.137938525192,145.4663609175486L137.36533423062917,120.15557237223311L137.59272993606635,147.41077283993414L137.82012564150352,124.53695490757596L138.04752134694073,106.71612260662076L138.2749170523779,89.09035387838244L138.5023127578151,129.6671835789712L138.72970846325228,147.64286995821257L138.95710416868945,138.15153452853193L139.18449987412663,154.6161771466914L139.41189557956383,151.3905865369015L139.639291285001,137.71015662837846L139.8666869904382,147.93363657289862L140.09408269587536,137.00072039998525L140.32147840131256,127.9464727257247L140.54887410674974,124.20271671690189L140.77626981218694,133.40671417503174L141.0036655176241,45.2249909051568L141.23106122306132,134.05217831047935L141.45845692849846,142.14553719136498L141.68585263393564,138.83774713276875L141.91324833937284,131.89998487822535L142.14064404481002,153.6437458005779L142.36803975024722,160.26536644886508L142.59543545568437,148.9846404764063L142.82283116112157,135.61348731388742L143.05022686655875,126.77770691361789L143.27762257199595,135.32403069210412L143.50501827743312,83.18145605465205L143.7324139828703,111.22049351412332L143.95980968830747,149.7864104676939L144.18720539374468,145.6824289316539L144.41460109918185,86.01108886218228L144.64199680461905,144.07442240168334L144.86939251005623,135.77193704811774L145.0967882154934,67.46181044608409L145.32418392093058,142.944053945707L145.55157962636778,139.83134511874385L145.77897533180496,132.08779135384856L146.00637103724216,120.57246073387228L146.2337667426793,82.6025798808685L146.4611624481165,142.92426662085205L146.68855815355369,142.17128723105083L146.9159538589909,120.72703687244235L147.14334956442806,116.99391641079595L147.37074526986527,160.66177689604098L147.5981409753024,161.45107800393242L147.82553668073962,133.19282125228074L148.0529323861768,140.72346387438466L148.280328091614,136.4572643021106L148.50772379705117,149.0129426446544L148.73511950248832,135.7883872349143L148.96251520792552,113.96777488821186L149.1899109133627,131.96310752397574L149.4173066187999,153.98854700773688L149.64470232423707,146.94292481436656L149.87209802967425,142.08695532914817L150.09949373511142,120.4052054548057L150.32688944054863,147.21476866938144L150.5542851459858,149.84116471558917L150.781680851423,135.97589423167227L151.00907655686018,118.45437977854165L151.23647226229735,147.2645952041534L151.46386796773453,92.66421758766161L151.69126367317173,115.22025732796536L151.9186593786089,97.42274110089852L152.1460550840461,142.6903459194114L152.37345078948326,144.97241379559176L152.60084649492046,139.149849654432L152.82824220035764,141.44263948265967L153.05563790579484,144.63331450372155L153.283033611232,112.43033267054179L153.51042931666922,125.31789561371909L153.73782502210636,139.08484648468598L153.96522072754357,105.95429447635334L154.19261643298074,161.93348005145765L154.42001213841795,148.6499372681888L154.64740784385512,137.89541803137337L154.8748035492923,141.19188071263207L155.10219925472947,144.28077981770087L155.32959496016667,145.20995508211266L155.55699066560385,72.9647623206077L155.78438637104105,142.132393677743L156.01178207647823,99.34489903862749L156.23917778191537,146.91199785055645L156.46657348735258,135.88711388329816L156.69396919278975,123.83428471456986L156.92136489822695,123.24197407191271L157.14876060366413,71.67871542606427L157.3761563091013,142.16905985102505L157.60355201453848,106.45582793837102L157.83094771997568,135.01234235487087L158.05834342541286,113.63521944840119L158.28573913085006,144.1664901657965L158.5131348362872,120.33846889797886L158.7405305417244,141.2910195813659L158.96792624716159,94.13850735758832L159.1953219525988,115.89732200386943L159.42271765803596,98.78261279579971L159.65011336347317,130.66919471246143L159.8775090689103,147.789880171756L160.10490477434752,111.93542203031039L160.3323004797847,100.5477621835868L160.5596961852219,120.35989446239714L160.78709189065907,141.6239545672962L161.01448759609625,117.44879226767097L161.24188330153342,102.99601222182348L161.46927900697062,140.86096174146357L161.6966747124078,122.10675666643078L161.924070417845,139.12577091657914L162.15146612328218,134.98080258662588L162.37886182871935,132.9934379469454L162.60625753415653,87.02999354476758L162.83365323959373,91.44556043659207L163.0610489450309,121.69869484387965L163.2884446504681,146.96937886003147L163.51584035590525,145.79975723912787L163.74323606134243,143.8480120952588L163.97063176677963,130.84718723833674L164.1980274722168,158.25419044848078L164.425423177654,144.42466067392022L164.6528188830912,116.28160587569548L164.88021458852836,131.46113789257316L165.10761029396554,128.54191104916674L165.33500599940274,143.22962606655264L165.5624017048399,126.73604347833418L165.78979741027712,119.8019126927532L166.01719311571426,107.43623769010698L166.24458882115147,147.3185757748188L166.47198452658864,137.8033680723808L166.69938023202585,150.4224933800138L166.92677593746302,122.89086075100465L167.1541716429002,144.68443802968483L167.38156734833737,138.219549601022L167.60896305377457,138.43999899901837L167.83635875921175,153.08085380972287L168.06375446464895,142.0781042287549L168.29115017008613,91.08475147000014L168.5185458755233,154.90172269831285L168.74594158096048,131.93962978809205L168.97333728639768,129.83939021856804L169.20073299183485,158.30200309489246L169.42812869727206,152.95778898721835L169.6555244027092,145.47774264699683L169.8829201081464,126.4448663123602L170.11031581358358,144.37667520271458L170.3377115190208,153.53760203545374L170.56510722445796,119.86423233899092L170.79250292989516,136.8116167519956L171.0198986353323,135.005757578654L171.2472943407695,125.82677683435799L171.4746900462067,114.01013642337844L171.70208575164386,145.3886169985013L171.92948145708107,113.49464404028626L172.1568771625182,133.924195787044L172.38427286795542,134.23686000975695L172.6116685733926,121.77310557307021L172.8390642788298,124.6878494994786L173.06645998426697,147.14668626450884L173.29385568970417,85.33870097549638L173.52125139514132,155.66728671298097L173.74864710057852,122.19902422498377L173.9760428060157,148.4537808019628L174.2034385114529,150.2445234296095L174.43083421689008,73.97152333336186L174.65822992232725,122.50496281470777L174.88562562776443,128.06490500064945L175.11302133320163,116.57767432249682L175.3404170386388,125.71939544857021L175.567812744076,127.17202554326539L175.79520844951315,108.33116658813078L176.02260415495036,141.73154700765767L176.24999986038753,145.64964114349922L176.47739556582474,139.2987281957793L176.7047912712619,113.03612932639561L176.93218697669911,123.29354711020076L177.15958268213626,152.71059225672698L177.38697838757346,121.26128113179116L177.61437409301064,131.73220676889548L177.84176979844784,151.66636028389914L178.06916550388502,156.275748406177L178.2965612093222,138.8754718967589L178.52395691475937,139.06489159608714L178.75135262019657,109.44045367012572L178.97874832563375,119.43082567482071L179.20614403107095,121.53295848425358L179.43353973650812,136.9133581398276L179.66093544194527,69.63837042710963L179.88833114738247,139.38467292183014L180.11572685281965,138.6966012857797L180.34312255825685,147.86341982546637L180.57051826369403,147.37630959463075L180.7979139691312,90.5005749771867L181.02530967456838,110.98185483879327L181.25270538000558,132.23303311825822L181.48010108544275,89.449141089008L181.70749679087996,137.27853948260662L181.93489249631713,117.64040146715197L182.1622882017543,97.47573718878006L182.38968390719148,135.085588888687L182.6170796126287,107.91049022075555L182.84447531806586,126.2172968452798L183.07187102350306,148.62875346379238L183.2992667289402,149.2810530383491L183.5266624343774,147.0577892235776L183.7540581398146,140.5338096518517L183.9814538452518,131.1978548601811L184.20884955068897,155.9035362494488L184.43624525612614,162.65150459339833L184.66364096156332,155.37380168902487L184.89103666700052,140.61617356310973L185.1184323724377,52.97757869502696L185.3458280778749,103.21306190595652L185.57322378331207,145.94203700517295L185.80061948874925,148.14668264453155L186.02801519418642,120.33869797114744L186.25541089962363,111.07568175075072L186.4828066050608,127.63525869375027L186.710202310498,108.57781597918088L186.93759801593515,67.1375759814263L187.16499372137233,142.29911029843402L187.39238942680953,142.4562001664757L187.6197851322467,151.75028136579263L187.8471808376839,148.33867549171703L188.07457654312108,105.99956496593366L188.30197224855826,146.04015727707596L188.52936795399543,140.77670451699345L188.75676365943264,112.93365065225787L188.9841593648698,135.2225644418787L189.211555070307,135.64427859770097L189.43895077574416,102.25397487573633L189.66634648118136,143.81187292869626L189.89374218661854,140.29179166991787L190.12113789205574,111.67013346312928L190.34853359749292,146.74773502085583L190.57592930293012,113.56448543985388L190.80332500836727,137.76874537578055L191.03072071380447,152.1015636043112L191.25811641924165,130.72340172597396L191.48551212467885,142.9255906206913L191.71290783011602,149.27539067696117L191.9403035355532,51.88239038218377L192.16769924099037,135.5731044105624L192.39509494642758,146.76290568995603L192.62249065186475,119.52884379846479L192.84988635730195,145.96593430341898L193.0772820627391,154.02793000558057L193.3046777681763,152.18259366445758L193.53207347361348,137.8941311236237L193.75946917905068,122.63282082596302L193.98686488448786,123.14158933163183L194.21426058992506,130.15744444360735L194.4416562953622,64.76985888528662L194.66905200079938,92.790488726587L194.8964477062366,120.21762007883916L195.12384341167376,141.10774880733578L195.35123911711096,154.08119998336306L195.5786348225481,120.67701174449613L195.8060305279853,146.75819613286376L196.0334262334225,98.96670656060645L196.2608219388597,137.88784450961805L196.48821764429687,158.8824193671402L196.71561334973407,136.2309067528366L196.94300905517122,151.08793172155524L197.17040476060842,133.21964470854948L197.3978004660456,106.78371778070952L197.6251961714828,126.91514591862537L197.85259187691997,107.99654486918381L198.07998758235715,116.53191820510531L198.30738328779432,132.2204140660509L198.53477899323153,135.61038684437167L198.7621746986687,138.52698602342574L198.9895704041059,125.00192471224977L199.21696610954308,141.61473073328892L199.44436181498025,139.92660159041014L199.67175752041743,108.58018030646657L199.89915322585463,94.82649460303466L200.1265489312918,106.94348678305987L200.353944636729,118.46263975762463L200.58134034216616,137.68540616042975L200.80873604760336,95.17846033331273L201.03613175304054,138.79782526250685L201.26352745847774,157.38413229036524L201.4909231639149,128.06432865305317L201.71831886935206,124.10499433099542L201.94571457478926,90.28546656545923L202.17311028022644,132.3964186970305L202.40050598566364,51.327859646044274L202.62790169110082,145.0039067473727L202.85529739653802,141.34208771064203L203.08269310197517,150.71293537224912L203.31008880741237,117.51810955099896L203.53748451284955,112.16364334376689L203.76488021828675,129.48649653262072L203.99227592372392,115.7311923103355L204.2196716291611,143.6680185132786L204.44706733459827,153.07689766459737L204.67446304003548,109.52812318530025L204.90185874547265,147.92191086530394L205.12925445090985,139.35648690924288L205.35665015634703,130.53009311791743L205.5840458617842,91.67499568356676L205.81144156722138,125.44641242080183L206.03883727265858,123.91523111737993L206.26623297809576,111.59255037335897L206.49362868353296,143.86523609962848L206.7210243889701,131.62064748386L206.9484200944073,139.94760863447004L207.1758157998445,131.74634414519664L207.4032115052817,126.2185355706934L207.63060721071886,119.99562473761492L207.85800291615607,156.04324308428932L208.0853986215932,125.8812553593257L208.31279432703042,149.00986843548117L208.5401900324676,125.54097268909312L208.7675857379048,128.36322949737595L208.99498144334197,91.04199066339983L209.22237714877912,146.48124796018018L209.44977285421632,138.0820404803988L209.6771685596535,126.33622936621623L209.9045642650907,146.34995488542725L210.13195997052787,151.423301403354L210.35935567596505,145.54540988417938L210.58675138140222,151.93598112230484L210.81414708683943,151.32574927139567L211.0415427922766,144.04857840014506L211.2689384977138,98.89803476744342L211.49633420315098,147.7483873706923L211.72372990858815,110.72128886257644L211.95112561402533,143.9983173016448L212.17852131946253,132.76633970086246L212.4059170248997,54.98432674210345L212.6333127303369,121.45279952135701L212.86070843577406,146.13111326304656L213.08810414121126,151.66089869602374L213.31549984664844,121.91935263969106L213.54289555208564,129.0675369467989L213.7702912575228,137.68372816069956L213.99768696296002,116.35427750210896L214.22508266839716,150.12665450090472L214.45247837383437,126.46724412891649L214.67987407927154,121.83107432079309L214.90726978470875,151.3258359282181L215.13466549014592,136.03097791073728L215.3620611955831,123.13764960120494L215.58945690102027,124.49934151040055L215.81685260645747,154.6234572225622L216.04424831189465,137.93993386795614L216.27164401733185,117.47138230876556L216.49903972276903,121.40417315466966L216.72643542820617,125.74837625124528L216.95383113364338,154.0086866547575L217.18122683908055,147.00255704656306L217.40862254451775,159.7356606407558L217.63601824995493,121.8304035341393L217.8634139553921,110.42170457041637L218.09080966082928,112.18010437440677L218.31820536626648,82.72901877021074L218.54560107170366,72.72537179439402L218.77299677714086,120.12849520926346L219.000392482578,154.904581807156L219.2277881880152,124.88599388105693L219.45518389345239,138.33628595976734L219.6825795988896,135.13510344737688L219.90997530432676,89.99874813832065L220.13737100976397,137.48840158987568L220.3647667152011,129.73996133923464L220.59216242063832,145.983422879508L220.8195581260755,134.96644404246268L221.0469538315127,120.89154555086417L221.27434953694987,140.7586681820954L221.50174524238705,98.26615127283104L221.72914094782422,110.37328141447952L221.95653665326142,116.06515928339476L222.1839323586986,137.20739652566846L222.4113280641358,116.5177766230093L222.63872376957298,124.13471164257797L222.86611947501015,160.1062817667405L223.09351518044733,106.98634614626363L223.32091088588453,117.20113545488474L223.5483065913217,134.52172375848392L223.7757022967589,127.73059914299306L224.00309800219605,128.26901247706337L224.23049370763326,149.78203988302397L224.45788941307043,143.68908937370247L224.6852851185076,132.50034966801016L224.9126808239448,135.75785719863848L225.140076529382,92.89240530921856L225.36747223481916,36.37461734499149L225.59486794025634,128.18483025865305L225.82226364569354,103.9765826118913L226.0496593511307,135.80610414359424L226.27705505656792,140.63351667019754L226.50445076200506,144.2497105091436L226.73184646744227,145.71877918041017L226.95924217287944,159.8839765837212L227.18663787831665,145.22529372734496L227.41403358375382,157.04329978883416L227.641429289191,88.21571845255215L227.86882499462817,142.1497466921662L228.09622070006537,159.258035095843L228.32361640550255,155.58049581464317L228.55101211093975,149.49356639007928L228.77840781637693,101.52005690162598L229.0058035218141,109.44947052224737L229.23319922725128,151.15117564460098L229.46059493268848,152.9755861798409L229.68799063812565,142.13197705181364L229.91538634356286,152.15142078150524L230.142782049,146.45765101227678L230.3701777544372,136.52503802613543L230.59757345987438,131.5778660565157L230.8249691653116,161.45875131308063L231.05236487074876,112.51786813872152L231.27976057618596,139.07471383496284L231.5071562816231,121.55939485624911L231.7345519870603,132.25519313584212L231.9619476924975,131.16371113862772L232.1893433979347,150.7513692746707L232.41673910337187,131.22965417567283L232.644134808809,145.16510865775888L232.87153051424622,129.5474496953796L233.0989262196834,128.79702968888324L233.3263219251206,139.96569800458064L233.55371763055777,138.37364201298033L233.78111333599497,139.4836882056167L234.00850904143212,130.82853419601904L234.23590474686932,127.26817882926711L234.4633004523065,106.31497581355438L234.6906961577437,63.797306097107395L234.91809186318088,108.72635454291891L235.14548756861805,111.11116506020295L235.37288327405523,129.1899144773565L235.60027897949243,155.03074973434852L235.8276746849296,142.34725561729903L236.0550703903668,154.08570838240416L236.28246609580395,102.64571510093118L236.50986180124116,141.93500729776312L236.73725750667833,137.48085180588868L236.96465321211554,107.57380713856203L237.1920489175527,144.2550843205943L237.41944462298991,155.53013282506063L237.64684032842706,140.2221530980173L237.87423603386426,155.07184164227186L238.10163173930144,128.83573626960697L238.32902744473864,134.48115570976324L238.55642315017582,129.84008533366776L238.783818855613,132.75817255020712L239.01121456105017,147.72604723520237L239.23861026648737,150.06350725182824L239.46600597192455,109.59837212420229" style="fill: none;" fill="none"></path></g></g></g></g><g opacity="0.2"><g><g><g><path stroke="rgb(255, 112, 67)" stroke-width="2px" d="M23.440085806600255,72.71036203627662L23.66748151203744,78.98813921745106L23.894877217474622,91.11879722264314L24.122272922911808,116.29598705976511L24.349668628348994,128.11016787407664L24.577064333786176,125.13121244976332L24.804460039223358,91.03740062192504L25.03185574466054,130.831438896995L25.259251450097725,107.43406324152714L25.486647155534907,118.86833605178428L25.714042860972093,119.23496395923519L25.941438566409275,132.39479608411824L26.16883427184646,104.37394955275927L26.396229977283642,101.26724112447282L26.623625682720824,120.20888696631646L26.851021388158006,107.71393674905597L27.078417093595192,99.12363523690371L27.305812799032374,118.07787953363713L27.53320850446956,138.6786365398367L27.76060420990674,113.20112394377571L27.987999915343927,101.69059306264201L28.21539562078111,109.39289179071277L28.442791326218295,89.63931056665335L28.670187031655477,98.45166997552924L28.89758273709266,107.09763253866448L29.124978442529844,92.38373357421027L29.352374147967026,122.96608479759817L29.579769853404212,128.05579860564194L29.807165558841394,103.4816662493849L30.03456126427858,123.07203956690958L30.26195696971576,108.61594417198205L30.489352675152944,96.28515520631039L30.716748380590126,93.90777957802817L30.94414408602731,102.7853382551532L31.171539791464493,126.7355634742124L31.39893549690168,81.6238904222924L31.62633120233886,61.331359405530264L31.853726907776046,117.70079819766814L32.081122613213225,120.46956010445595L32.308518318650414,119.34952743438504L32.535914024087596,130.71090748180654L32.76330972952478,148.73827873324063L32.99070543496197,110.38448028164629L33.21810114039914,85.55045176346884L33.445496845836324,84.82578558750437L33.67289255127351,108.343540122952L33.900288256710695,117.35255554958533L34.12768396214788,67.2252054665221L34.35507966758506,110.40635955063762L34.58247537302225,112.75979668461166L34.80987107845943,142.48112955567404L35.03726678389661,144.94952341963273L35.264662489333794,140.7403786876112L35.49205819477098,153.97459556033954L35.719453900208165,130.7748626347601L35.94684960564535,111.06258985189434L36.17424531108253,84.9026251988639L36.40164101651972,115.87503755113222L36.6290367219569,109.68625513075696L36.85643242739408,142.39939213409912L37.08382813283126,111.98989428583067L37.31122383826845,98.93355730001949L37.53861954370563,151.13855132635942L37.76601524914281,89.06435769798296L37.99341095458,99.11704762257995L38.22080666001718,147.28383883518438L38.448202365454364,129.1649536086457L38.675598070891546,108.40107926369153L38.902993776328735,111.0102321415238L39.13038948176592,136.79956960460143L39.3577851872031,131.98644979710042L39.58518089264028,142.74278702258187L39.81257659807747,131.53965987077646L40.03997230351465,98.02392311666071L40.267368008951834,128.5537593277441L40.494763714389016,129.3658567786191L40.722159419826205,14.913513061728537L40.94955512526338,87.31599913638851L41.17695083070056,99.23166829843304L41.404346536137744,112.83554471588428L41.63174224157493,130.12124449895157L41.859137947012115,105.47497252245164L42.0865336524493,122.39736203885624L42.31392935788649,152.09698962639965L42.54132506332367,135.40176555284594L42.76872076876085,82.58971476313917L42.99611647419803,145.0515909244861L43.22351217963522,127.92847937366838L43.450907885072404,129.00984913507074L43.678303590509586,133.30187053600682L43.90569929594677,129.36803517206766L44.13309500138396,136.88401214276735L44.36049070682114,109.77854369871802L44.587886412258314,114.71410637824091L44.815282117695496,148.31031975509757L45.042677823132685,82.63236742085911L45.27007352856987,119.0796545164736L45.49746923400705,132.76236303644745L45.72486493944423,111.6695465140305L45.95226064488142,106.97746816132188L46.1796563503186,93.13333925678971L46.407052055755784,126.87154861272762L46.63444776119297,139.78274358077906L46.861843466630155,112.27110247643523L47.08923917206734,91.95546237556198L47.31663487750452,122.18792643064876L47.54403058294171,117.70205661313953L47.77142628837889,140.99296269296676L47.99882199381607,122.88173759393767L48.226217699253255,92.00747688171306L48.45361340469044,118.7880357978784L48.68100911012762,118.99228520899163L48.9084048155648,146.9738825244738L49.13580052100198,100.45804184256228L49.36319622643917,132.7951771732092L49.590591931876354,91.00611183724985L49.817987637313536,112.46451235428349L50.04538334275072,115.68985980782602L50.27277904818791,140.154448050643L50.50017475362509,104.67318549833664L50.72757045906227,116.46848531385193L50.95496616449946,126.21962743111538L51.18236186993664,103.92019544081518L51.409757575373824,46.4703974330323L51.637153280811006,142.98750116451592L51.864548986248195,130.90440792743496L52.09194469168538,132.81933493687978L52.31934039712255,111.29175016927094L52.546736102559734,105.07451039903111L52.77413180799692,108.02014641370401L53.001527513434105,113.58365841345409L53.22892321887129,112.39327841184198L53.45631892430847,114.5969259709176L53.68371462974566,96.72333166007066L53.91111033518284,143.02952223113752L54.13850604062002,112.30910757701648L54.365901746057204,107.11161811060798L54.593297451494394,111.98412178152816L54.820693156931576,145.7228054266305L55.04808886236876,112.34062516450466L55.27548456780595,140.54032876146124L55.50288027324313,147.75508921223363L55.73027597868031,117.50979551608145L55.957671684117486,88.66918663961263L56.185067389554675,19.471760835744163L56.41246309499186,132.30521978283608L56.63985880042904,144.12322351081448L56.86725450586622,136.79118493485072L57.09465021130341,140.7648796555013L57.32204591674059,78.37081969457698L57.549441622177774,75.9956462933697L57.776837327614956,97.59707240214301L58.004233033052145,106.25116223186436L58.23162873848933,129.75644224727927L58.45902444392651,139.65603448964012L58.68642014936369,115.441127316489L58.91381585480088,148.00464634704247L59.14121156023806,119.13655014930161L59.368607265675244,118.9221190130107L59.59600297111243,26.58946360992246L59.82339867654961,49.13699888382398L60.05079438198679,146.21219319333377L60.27819008742397,150.079775842739L60.50558579286116,123.60806735702154L60.732981498298344,109.38264809810659L60.960377203735526,135.51947983339954L61.18777290917271,120.45437808446958L61.4151686146099,96.72202557734656L61.64256432004708,119.58995629030096L61.86996002548426,131.92332405434394L62.09735573092144,144.10536497458878L62.32475143635863,145.82477759697844L62.552147141795814,99.57212688414921L62.779542847232996,147.1793617507068L63.00693855267018,116.35657213795244L63.23433425810737,120.69016891669736L63.46172996354455,139.90570602585544L63.689125668981724,145.6729573971148L63.91652137441891,62.13726011355365L64.1439170798561,116.2894900132215L64.37131278529328,136.23970818813726L64.59870849073046,143.02912420957742L64.82610419616765,122.56751983083528L65.05349990160484,117.18590606740534L65.28089560704201,143.46365173514317L65.50829131247919,138.80432555176776L65.73568701791638,111.06182717585108L65.96308272335357,127.40481170218271L66.19047842879074,149.21436495307677L66.41787413422793,110.86661070912533L66.64526983966512,140.6411974349091L66.8726655451023,100.83452733787247L67.10006125053948,121.74763831759368L67.32745695597667,121.09185132178712L67.55485266141385,135.8171427596377L67.78224836685104,152.4085046562737L68.00964407228822,141.42864614941058L68.2370397777254,134.072111372282L68.46443548316259,100.46067307491157L68.69183118859978,143.62900943477487L68.91922689403695,121.4381300790585L69.14662259947414,106.74351251832323L69.3740183049113,114.52250308927016L69.60141401034849,139.8640210133654L69.82880971578568,112.50096826915184L70.05620542122286,157.8232995943112L70.28360112666005,150.51582872039128L70.51099683209723,150.25055569236582L70.73839253753441,140.39888095578607L70.9657882429716,134.8676253859411L71.19318394840877,95.52348017534617L71.42057965384596,90.90867043927145L71.64797535928315,56.240849554366335L71.87537106472033,139.67735605177484L72.10276677015752,130.45226973535756L72.3301624755947,121.16858606519071L72.55755818103188,151.6211036090249L72.78495388646907,142.12694041781634L73.01234959190626,151.00183926224048L73.23974529734343,134.7128164493329L73.46714100278062,106.72990828440138L73.6945367082178,132.7157921305552L73.92193241365499,101.2634849449597L74.14932811909217,129.5346465204455L74.37672382452935,126.49387143609982L74.60411952996654,152.58811248110138L74.83151523540373,136.17988101926792L75.0589109408409,130.49968911834793L75.28630664627809,141.72812996470202L75.51370235171527,125.45507329808783L75.74109805715246,137.39496695795674L75.96849376258965,147.67647399571084L76.19588946802682,98.8361445023927L76.42328517346401,153.00323943481644L76.6506808789012,150.49564640559623L76.87807658433836,107.10950645131317L77.10547228977555,143.0386552767557L77.33286799521274,133.01676316413102L77.56026370064991,140.8331486948246L77.7876594060871,140.31165465006222L78.01505511152428,84.01868366471282L78.24245081696147,140.59660948672936L78.46984652239865,154.5866144847129L78.69724222783583,141.5582510261513L78.92463793327302,151.70484305521342L79.15203363871021,129.13478500440905L79.37942934414738,139.37479293195867L79.60682504958457,148.67480740290205L79.83422075502175,126.22229679726682L80.06161646045894,126.83356734577272L80.28901216589612,142.37546793996674L80.5164078713333,144.94328377625374L80.74380357677049,123.41955290602603L80.97119928220768,129.6048651504044L81.19859498764485,96.54598087965853L81.42599069308204,104.93490254931037L81.65338639851923,133.09094294278967L81.8807821039564,118.05912723642321L82.1081778093936,141.35465465640013L82.33557351483077,138.43647259592234L82.56296922026796,128.09326029954235L82.79036492570515,143.11033490800997L83.01776063114232,122.3089726521664L83.24515633657951,142.82023200805077L83.4725520420167,148.70317895171172L83.69994774745388,138.57285337263502L83.92734345289107,134.1009166930913L84.15473915832824,156.67592737145165L84.38213486376542,143.41067196712484L84.6095305692026,131.03600291197608L84.83692627463978,128.69518329979292L85.06432198007697,98.58772184819824L85.29171768551416,160.85651703574058L85.51911339095133,134.68152289793244L85.74650909638852,137.39564383294515L85.97390480182571,81.7663964409776L86.20130050726289,143.93574820592792L86.42869621270007,108.39663667573947L86.65609191813725,102.85734440708852L86.88348762357444,130.47003055371522L87.11088332901163,84.08369226395112L87.3382790344488,133.933204231176L87.56567473988599,142.26245365052978L87.79307044532318,141.7498423983089L88.02046615076036,111.04604454848065L88.24786185619755,78.08902996348941L88.47525756163472,135.9501772952105L88.70265326707191,117.93145526677964L88.9300489725091,103.80237629230562L89.15744467794627,131.3545393281735L89.38484038338346,130.8615979677811L89.61223608882065,141.97887401410318L89.83963179425783,112.23085224825161L90.06702749969502,114.50172016709101L90.2944232051322,133.6481349931024L90.52181891056938,51.42791564915086L90.74921461600657,119.84040480273535L90.97661032144374,131.89563414724793L91.20400602688093,144.16822139736746L91.43140173231812,117.03613079268274L91.6587974377553,115.71328826253026L91.88619314319249,115.92272387073774L92.11358884862966,129.67836805407464L92.34098455406684,145.30111707558066L92.56838025950402,144.06869694044588L92.7957759649412,143.39823319753162L93.02317167037839,95.97179068703142L93.25056737581558,144.61032324938796L93.47796308125275,156.15151370746116L93.70535878668994,123.89704530981692L93.93275449212713,159.1593125863859L94.1601501975643,129.4120463464897L94.3875459030015,117.3243031689074L94.61494160843868,144.97690110622352L94.84233731387586,135.94765093081716L95.06973301931305,150.113378872533L95.29712872475022,133.79216636387412L95.52452443018741,135.45035755025285L95.7519201356246,136.90779810186683L95.97931584106178,107.92137033264989L96.20671154649897,65.91001829715394L96.43410725193615,138.44401355530022L96.66150295737333,128.8077781174061L96.88889866281052,120.55072313563579L97.1162943682477,134.9352509173529L97.34369007368488,107.91463018311747L97.57108577912207,100.99955136673523L97.79848148455925,120.14087056343249L98.02587718999644,56.44499886424889L98.25327289543362,124.61197783277916L98.4806686008708,135.30261290049543L98.70806430630799,110.06084823613479L98.93546001174518,133.95109851784125L99.16285571718235,126.26394367595469L99.39025142261954,139.7060803382545L99.6176471280567,130.82478454851747L99.84504283349389,116.13688330368825L100.07243853893108,121.65323332361254L100.29983424436826,149.8994553924834L100.52722994980545,140.27816840503738L100.75462565524263,124.20009463561065L100.98202136067981,111.66237259249849L101.209417066117,107.50828115398795L101.43681277155417,148.7169810047323L101.66420847699136,140.90566488636387L101.89160418242855,137.23345600561828L102.11899988786573,130.3669787200935L102.34639559330292,111.91671075275354L102.5737912987401,95.67025717987367L102.80118700417728,95.70762830599396L103.02858270961447,145.32670724019505L103.25597841505166,159.55312989477943L103.48337412048883,141.44106108537747L103.71076982592602,121.61094770373845L103.9381655313632,115.37636182023948L104.16556123680039,138.75337879207729L104.39295694223757,135.45011444726407L104.62035264767475,132.50802964291765L104.84774835311194,90.98260234821602L105.07514405854913,91.77195298610043L105.3025397639863,143.83990127755249L105.52993546942349,145.07115118163338L105.75733117486067,106.43903317494835L105.98472688029786,158.49777691990317L106.21212258573505,143.94112745539562L106.43951829117222,138.49539885371559L106.66691399660941,109.07490831464673L106.8943097020466,112.4667050479079L107.12170540748376,145.85833295951974L107.34910111292095,147.6013051215586L107.57649681835814,144.0202693950608L107.80389252379531,122.50379348069472L108.0312882292325,62.77075790199562L108.25868393466968,131.86399262490272L108.48607964010687,140.31161651626007L108.71347534554405,122.91859868045401L108.94087105098123,140.14292687566433L109.16826675641842,126.28149475840047L109.39566246185561,124.0073949998277L109.62305816729278,127.67810236211307L109.85045387272997,138.41726745980773L110.07784957816715,142.14696304731484L110.30524528360434,140.4992538898058L110.53264098904152,138.2066020364805L110.7600366944787,113.97175088479781L110.98743239991589,121.29108613791584L111.21482810535308,136.75215498833632L111.44222381079025,114.09634831664194L111.66961951622744,129.16874792196097L111.89701522166463,150.11861512024257L112.1244109271018,154.4956486830144L112.351806632539,99.34349567327764L112.57920233797617,105.45861312132348L112.80659804341336,-4.366594107942973L113.03399374885055,141.52472903068693L113.26138945428772,118.46945171442829L113.48878515972491,130.99567164946288L113.7161808651621,122.28781315869091L113.94357657059928,151.2647289276307L114.17097227603647,157.24587994531336L114.39836798147364,148.93925578745572L114.62576368691083,149.93623782803274L114.853159392348,122.12794672657077L115.08055509778518,124.37445191255294L115.30795080322237,110.73387647724455L115.53534650865956,80.31844643937704L115.76274221409673,129.0558623341063L115.99013791953392,138.47236127048353L116.21753362497111,152.28600220018592L116.44492933040829,127.4674989062143L116.67232503584547,102.60214346955951L116.89972074128265,136.49728772157624L117.12711644671984,119.13834720472857L117.35451215215703,117.13132706305876L117.5819078575942,144.51139224976254L117.80930356303139,138.46464870899595L118.03669926846858,131.7504396955102L118.26409497390576,135.44943757227566L118.49149067934295,131.5118793959003L118.71888638478012,129.09306185811687L118.94628209021731,141.28429540804575L119.1736777956545,140.01159882773834L119.40107350109167,154.38697211357356L119.62846920652886,138.09824007090748L119.85586491196605,149.67268558782993L120.08326061740323,87.19021478995204L120.31065632284042,108.24498331126031L120.5380520282776,136.21234718508492L120.76544773371478,142.71744472768157L120.99284343915197,126.19659938133387L121.22023914458914,152.78077874980744L121.44763485002633,129.36953669052787L121.67503055546352,139.4092515889387L121.9024262609007,126.60828714276627L122.12982196633789,105.28359803629387L122.35721767177506,148.180576643324L122.58461337721224,121.64479621988386L122.81200908264942,142.81887587471132L123.0394047880866,98.33371259198684L123.26680049352379,130.78791392855058L123.49419619896098,45.35843482884425L123.72159190439815,120.44654635485024L123.94898760983534,127.99318766921468L124.17638331527253,130.74702972590597L124.4037790207097,123.12966927542925L124.6311747261469,143.6889629218639L124.85857043158408,129.19316308879618L125.08596613702126,116.96780455265619L125.31336184245845,153.54949900072137L125.54075754789562,146.22948925597757L125.76815325333281,63.116660087970644L125.99554895877,122.01294947942131L126.22294466420718,75.00472037724877L126.45034036964437,108.35416038685455L126.67773607508155,144.0969969883765L126.90513178051873,161.9185577261713L127.13252748595592,116.03325946303406L127.3599231913931,149.6280976396502L127.58731889683028,142.94922197723162L127.81471460226747,149.3155911309199L128.04211030770463,152.91844654234313L128.26950601314184,86.09773855866958L128.496901718579,132.60319731294206L128.72429742401619,143.4686949304793L128.9516931294534,139.2130436433567L129.17908883489056,157.35938044072788L129.40648454032774,120.64896057673437L129.63388024576494,155.03655521644063L129.86127595120212,145.4632834526438L130.0886716566393,115.48251679201226L130.3160673620765,108.69816541617195L130.54346306751367,148.632064177402L130.77085877295085,123.88062394126024L130.99825447838805,112.3676620302386L131.22565018382522,86.30822761316183L131.4530458892624,28.622214534602108L131.68044159469957,141.9005305009208L131.90783730013678,152.82240656159422L132.13523300557395,109.71888813195841L132.36262871101113,121.45932770633615L132.59002441644833,130.8971768051997L132.8174201218855,132.27599975692826L133.04481582732268,138.88575551956276L133.27221153275988,125.04509679102749L133.49960723819706,125.25953269404367L133.72700294363426,140.46920445370094L133.9543986490714,140.2491819486678L134.18179435450858,136.06641389093028L134.4091900599458,124.24836249569917L134.63658576538296,127.76796466691147L134.86398147082016,145.6833703084681L135.0913771762573,142.32956914233765L135.3187728816945,74.3462544818402L135.5461685871317,127.58536572197659L135.7735642925689,48.6810139444533L136.00095999800607,98.30709519807668L136.22835570344327,118.48892378715804L136.45575140888042,145.03771737058648L136.68314711431762,127.65191874020252L136.9105428197548,99.48636396308339L137.137938525192,147.5716942241786L137.36533423062917,118.96291741460043L137.59272993606635,148.695049301763L137.82012564150352,123.45913102594652L138.04752134694073,105.8763975243768L138.2749170523779,88.25982027338691L138.5023127578151,131.5791807899937L138.72970846325228,148.4898918294857L138.95710416868945,137.7042988276569L139.18449987412663,155.39199800304445L139.41189557956383,151.2385953563355L139.639291285001,137.06552904106582L139.8666869904382,148.41537122997025L140.09408269587536,136.48555681068567L140.32147840131256,127.5198327829585L140.54887410674974,124.02630936570081L140.77626981218694,133.84041039033627L141.0036655176241,41.069831169927085L141.23106122306132,138.23775258612284L141.45845692849846,142.52689965172084L141.68585263393564,138.68188267974588L141.91324833937284,131.57307461492226L142.14064404481002,154.66832092257357L142.36803975024722,160.57737998726603L142.59543545568437,148.4530879436726L142.82283116112157,134.98343297638655L143.05022686655875,126.36136124030676L143.27762257199595,135.72673704815844L143.50501827743312,80.72447609791345L143.7324139828703,112.54170470331304L143.95980968830747,151.6036526278098L144.18720539374468,145.48904760273055L144.41460109918185,83.19935032487732L144.64199680461905,146.81039099778548L144.86939251005623,135.38072046077696L145.0967882154934,64.24300866902489L145.32418392093058,146.5008088750086L145.55157962636778,139.68467297506496L145.77897533180496,131.7229118570734L146.00637103724216,120.02985353188384L146.2337667426793,80.81342319145993L146.4611624481165,145.76664976566803L146.68855815355369,142.13580652681938L146.9159538589909,119.71657481365975L147.14334956442806,116.81801021103249L147.37074526986527,162.71942477230908L147.5981409753024,161.4882702027336L147.82553668073962,131.86128035822384L148.0529323861768,141.07831090893404L148.280328091614,136.25623919137516L148.50772379705117,149.6045714670779L148.73511950248832,135.16524064492654L148.96251520792552,112.93957849491173L149.1899109133627,132.81105513508504L149.4173066187999,155.0263949415267L149.64470232423707,146.61093214556902L149.87209802967425,141.85814001309075L150.09949373511142,119.38355231936546L150.32688944054863,148.47804651718866L150.5542851459858,149.96492159734765L150.781680851423,135.322556879027L151.00907655686018,117.62875867865591L151.23647226229735,148.62214462211418L151.46386796773453,90.0914249251044L151.69126367317173,116.28310736808437L151.9186593786089,96.58411468182207L152.1460550840461,144.8233744187131L152.37345078948326,145.07994578975735L152.60084649492046,138.87548799333024L152.82824220035764,141.5506766996966L153.05563790579484,144.78366044712237L153.283033611232,110.91291467840242L153.51042931666922,125.92516297753372L153.73782502210636,139.73355097598807L153.96522072754357,104.3931689890497L154.19261643298074,164.57124272253586L154.42001213841795,148.02401116845363L154.64740784385512,137.38866058042396L154.8748035492923,141.34721141489032L155.10219925472947,144.42633003731146L155.32959496016667,145.25373820975508L155.55699066560385,69.56053857791898L155.78438637104105,145.39160143802687L156.01178207647823,97.32873436976864L156.23917778191537,149.1533794699667L156.46657348735258,135.3676167330085L156.69396919278975,123.26635035583396L156.92136489822695,123.21406414634245L157.14876060366413,69.2490330814955L157.3761563091013,145.4905944050808L157.60355201453848,104.77300549222501L157.83094771997568,136.35793727502008L158.05834342541286,112.62792046327957L158.28573913085006,145.60513642996693L158.5131348362872,119.21568255551625L158.7405305417244,142.27831254550455L158.96792624716159,91.91666123186056L159.1953219525988,116.92260646364184L159.42271765803596,97.97616052945085L159.65011336347317,132.17170380801093L159.8775090689103,148.5966140415657L160.10490477434752,110.24594494511139L160.3323004797847,100.01117088190871L160.5596961852219,121.29345043364998L160.78709189065907,142.62592598585167L161.01448759609625,116.30964849439019L161.24188330153342,102.3149911725427L161.46927900697062,142.64517402249373L161.6966747124078,121.22305066813081L161.924070417845,139.92771399642908L162.15146612328218,134.7854899428061L162.37886182871935,132.8997924927196L162.60625753415653,84.86417679283252L162.83365323959373,91.65362379798694L163.0610489450309,123.12423520862095L163.2884446504681,148.16014407545222L163.51584035590525,145.744644178457L163.74323606134243,143.75604504659483L163.97063176677963,130.23458292570692L164.1980274722168,159.54561991911584L164.425423177654,143.7730074384697L164.6528188830912,114.95549334593619L164.88021458852836,132.1764037991276L165.10761029396554,128.4043558575926L165.33500599940274,143.92171735009438L165.5624017048399,125.95885895847047L165.78979741027712,119.47517354578866L166.01719311571426,106.85356190464195L166.24458882115147,149.19784825001466L166.47198452658864,137.3550075000146L166.69938023202585,151.01711185000698L166.92677593746302,121.59355868995186L167.1541716429002,145.71136051925615L167.38156734833737,137.91492135045675L167.60896305377457,138.4503866669868L167.83635875921175,153.77073702069848L168.06375446464895,141.5596500600182L168.29115017008613,88.68192332953525L168.5185458755233,157.9088051122124L168.74594158096048,130.8576463525319L168.97333728639768,129.74042605037056L169.20073299183485,159.6431733351381L169.42812869727206,152.70596738005048L169.6555244027092,145.1252797304419L169.8829201081464,125.54802920758675L170.11031581358358,145.2216295483334L170.3377115190208,153.96926874484984L170.56510722445796,118.2775290548644L170.79250292989516,137.61018460391728L171.0198986353323,134.92066473802532L171.2472943407695,125.39425941708751L171.4746900462067,113.45333137783489L171.70208575164386,146.86718414602018L171.92948145708107,111.99178667576304L172.1568771625182,134.88684482223152L172.38427286795542,134.25159287889002L172.6116685733926,121.18580824359282L172.8390642788298,124.82519345412611L173.06645998426697,148.20495605971968L173.29385568970417,82.42628282051675L173.52125139514132,158.9811991299305L173.74864710057852,120.62198567842893L173.9760428060157,149.69091592862674L174.2034385114529,150.32890397227348L174.43083421689008,70.37750762202033L174.65822992232725,124.79187881121098L174.88562562776443,128.32689180522263L175.11302133320163,116.03639120153673L175.3404170386388,126.15015717702394L175.567812744076,127.24047408175889L175.79520844951315,107.4433774227056L176.02260415495036,143.30538692271392L176.24999986038753,145.83426338026663L176.47739556582474,138.99947051761447L176.7047912712619,111.79862466762884L176.93218697669911,123.7768809324743L177.15958268213626,154.09673574530677L177.38697838757346,119.77937641909784L177.61437409301064,132.22560117064384L177.84176979844784,152.6056659469098L178.06916550388502,156.49294470513252L178.2965612093222,138.05556357956118L178.52395691475937,139.07381713165756L178.75135262019657,108.04453774691287L178.97874832563375,119.90157618813095L179.20614403107095,121.63201186270854L179.43353973650812,137.63808901365047L179.66093544194527,66.46834482808102L179.88833114738247,142.67114790849237L180.11572685281965,138.66417906209145L180.34312255825685,148.29536415456155L180.57051826369403,147.35335675652854L180.7979139691312,87.82056653971551L181.02530967456838,111.9469413244187L181.25270538000558,133.2343975398037L181.48010108544275,87.43314617663493L181.70749679087996,139.53228076816885L181.93489249631713,116.71504417846563L182.1622882017543,96.5255697620505L182.38968390719148,136.85778085360408L182.6170796126287,106.62998818928233L182.84447531806586,127.0799212411998L183.07187102350306,149.68479068665422L183.2992667289402,149.31178966751673L183.5266624343774,146.95302810141558L183.7540581398146,140.22639700187506L183.9814538452518,130.75794076005002L184.20884955068897,157.06767830444045L184.43624525612614,162.96947168813944L184.66364096156332,155.03087327991827L184.89103666700052,139.9207879446111L185.1184323724377,48.848011397578034L185.3458280778749,105.5801789158956L185.57322378331207,147.95544420880094L185.80061948874925,148.25056647046992L186.02801519418642,119.02837408601417L186.25541089962363,110.63920454664827L186.4828066050608,128.41555289525286L186.710202310498,107.67982129629542L186.93759801593515,65.1848945155635L187.16499372137233,145.84075327672235L187.39238942680953,142.46360230685463L187.6197851322467,152.1882223647133L187.8471808376839,148.17791919398573L188.07457654312108,104.00452834429987L188.30197224855826,147.9268867577057L188.52936795399543,140.5286884183508L188.75676365943264,111.62167429213943L188.9841593648698,136.2728273953163L189.211555070307,135.66414994535754L189.43895077574416,100.68060977888983L189.66634648118136,145.7700984914012L189.89374218661854,140.12592396662467L190.12113789205574,110.3214689402963L190.34853359749292,148.40060629844504L190.57592930293012,112.00087682085378L190.80332500836727,138.90926024187132L191.03072071380447,152.7769320025142L191.25811641924165,129.71605378406278L191.48551212467885,143.50056287227486L191.71290783011602,149.57459591521473L191.9403035355532,47.29319141541416L192.16769924099037,139.5166459092818L192.39509494642758,147.2901738130688L192.62249065186475,118.2455633952008L192.84988635730195,147.21166108113934L193.0772820627391,154.40781461981857L193.3046777681763,152.0956406431481L193.53207347361348,137.22085278400323L193.75946917905068,121.9137014925654L193.98686488448786,123.1655627167157L194.21426058992506,130.48803447506168L194.4416562953622,61.68876846630813L194.66905200079938,94.11083254109855L194.8964477062366,121.50999799596097L195.12384341167376,142.09210042281467L195.35123911711096,154.69251443668372L195.5786348225481,119.10299240339769L195.8060305279853,147.9871524652999L196.0334262334225,96.71475155458386L196.2608219388597,139.7218248318228L196.48821764429687,159.87169252796582L196.71561334973407,135.16355799090607L196.94300905517122,151.78800096091894L197.17040476060842,132.37768354039736L197.3978004660456,105.53804583123016L197.6251961714828,127.86374724449576L197.85259187691997,107.10509246371274L198.07998758235715,116.93410857171942L198.30738328779432,132.9596625621164L198.53477899323153,135.77012378157002L198.7621746986687,138.66441739835497L198.9895704041059,124.36461815832001L199.21696610954308,142.39753311124363L199.44436181498025,139.8470562381279L199.67175752041743,107.10312380617604L199.89915322585463,94.17841517198289L200.1265489312918,107.51444452976264L200.353944636729,119.00542707056223L200.58134034216616,138.5911909647504L200.80873604760336,93.1755152419826L201.03613175304054,140.85318800786155L201.26352745847774,158.25992686235858L201.4909231639149,126.68276722511696L201.71831886935206,123.91842883938014L201.94571457478926,88.69187625189994L202.17311028022644,134.38070439956527L202.40050598566364,47.507875188144396L202.62790169110082,149.41796132282795L202.85529739653802,141.1695412638851L203.08269310197517,151.15449363902644L203.31008880741237,115.95395545470969L203.53748451284955,111.91133865337376L203.76488021828675,130.3027566305248L203.99227592372392,115.08303661399745L204.2196716291611,144.98441346524976L204.44706733459827,153.5202479910993L204.67446304003548,107.47608669151137L204.90185874547265,149.73104222195332L205.12925445090985,138.95288054482114L205.35665015634703,130.11418974555133L205.5840458617842,89.84412721807378L205.81144156722138,127.03773572255636L206.03883727265858,123.84308121303022L206.26623297809576,111.01190049536845L206.49362868353296,145.38593856840558L206.7210243889701,131.0436773396615L206.9484200944073,140.3399785316192L207.1758157998445,131.35989712737748L207.4032115052817,125.95806291535033L207.63060721071886,119.70239857270545L207.85800291615607,157.7418219592635L208.0853986215932,124.46000986443214L208.31279432703042,150.0996983710068L208.5401900324676,124.43510849161933L208.7675857379048,128.49621542027933L208.99498144334197,89.28339825761039L209.22237714877912,149.0935689846358L209.44977285421632,137.68626630595884L209.6771685596535,125.78276182680447L209.9045642650907,147.29301001460473L210.13195997052787,151.6623596162406L210.35935567596505,145.26844117385178L210.58675138140222,152.23710751572435L210.81414708683943,151.29699489098635L211.0415427922766,143.70567506066206L211.2689384977138,96.77052224024804L211.49633420315098,150.05023644623805L211.72372990858815,108.97655647214167L211.95112561402533,145.56634481971605L212.17852131946253,132.23708421182036L212.4059170248997,51.31920571263312L212.6333127303369,124.58482179891344L212.86070843577406,147.29396574302146L213.08810414121126,151.9214645017661L213.31549984664844,120.51791853232459L213.54289555208564,129.40436238535372L213.7702912575228,138.08972669957447L213.99768696296002,115.34922485327483L214.22508266839716,151.7180230505862L214.45247837383437,125.35240280248773L214.67987407927154,121.6126160575831L214.90726978470875,152.71564144898684L215.13466549014592,135.31027779473033L215.3620611955831,122.53011057091284L215.58945690102027,124.56350500350402L215.81685260645747,156.0429181723499L216.04424831189465,137.1537992596239L216.27164401733185,116.50689558608117L216.49903972276903,121.5894879065709L216.72643542820617,125.95307692071742L216.95383113364338,155.3403243177502L217.18122683908055,146.6724252849204L217.40862254451775,160.3356498153513L217.63601824995493,120.04429194272802L217.8634139553921,109.88412189673308L218.09080966082928,112.26296090967331L218.31820536626648,81.34127128100779L218.54560107170366,72.25399575888432L218.77299677714086,122.36215023928348L219.000392482578,156.54324557354886L219.2277881880152,123.47150544474859L219.45518389345239,138.97006935614638L219.6825795988896,134.9842623865836L219.90997530432676,87.8719041708782L220.13737100976397,139.72613395146726L220.3647667152011,129.3748515892044L220.59216242063832,146.74882159082978L220.8195581260755,134.4473193852197L221.0469538315127,120.2283304386946L221.27434953694987,141.6948153217869L221.50174524238705,96.26388607815367L221.72914094782422,110.94377445780327L221.95653665326142,116.33336295261066L222.1839323586986,138.20362759991173L222.4113280641358,115.54287306738661L222.63872376957298,124.4936248110393L222.86611947501015,161.80127721761727L223.09351518044733,104.48331253063907L223.32091088588453,117.68246060555273L223.5483065913217,135.3378771340462L223.7757022967589,127.41059850666102L224.00309800219605,128.2943827388782L224.23049370763326,150.79574274508494L224.45788941307043,143.40198699368207L224.6852851185076,131.9731315666948L224.9126808239448,135.91135231788274L225.140076529382,90.8725672620731L225.36747223481916,33.71147550374519L225.59486794025634,132.51096594568423L225.82226364569354,102.83587984319573L226.0496593511307,137.30592452990484L226.27705505656792,140.860986370404L226.50445076200506,144.4201070774709L226.73184646744227,145.78800231151698L226.95924217287944,160.55144661843218L227.18663787831665,144.53457045139007L227.41403358375382,157.60016918440172L227.641429289191,84.97253399168024L227.86882499462817,144.6911406929857L228.09622070006537,160.0641848111995L228.32361640550255,155.40720862338245L228.55101211093975,149.2067477260946L228.77840781637693,99.25952504091352L229.0058035218141,109.82310781327139L229.23319922725128,153.11617745664904L229.46059493268848,153.0615531684124L229.68799063812565,141.62102164787515L229.91538634356286,152.62354116667396L230.142782049,146.1893581959257L230.3701777544372,136.0570091419717L230.59757345987438,131.34475324119327L230.8249691653116,162.866751141924L231.05236487074876,110.21175322474649L231.27976057618596,140.32608352745586L231.5071562816231,120.73406568971288L231.7345519870603,132.75918363069206L231.9619476924975,131.11228004975374L232.1893433979347,151.67434793029577L232.41673910337187,130.30978278357344L232.644134808809,145.82175310979434L232.87153051424622,128.81153906364446L233.0989262196834,128.76166958386506L233.3263219251206,140.49197033359258L233.55371763055777,138.2986236678264L233.78111333599497,139.53599404715453L234.00850904143212,130.4206997138914L234.23590474686932,127.10041339313744L234.4633004523065,105.32765211124331L234.6906961577437,61.79385569162034L234.91809186318088,110.84343012413515L235.14548756861805,111.22353833065088L235.37288327405523,130.04179272214384L235.60027897949243,156.24838071504448L235.8276746849296,141.7496040620454L236.0550703903668,154.63882919332536L236.28246609580395,100.22184107196124L236.50986180124116,143.78633520232586L236.73725750667833,137.2709701334967L236.96465321211554,106.16457466732675L237.1920489175527,145.9835214652974L237.41944462298991,156.0614178331245L237.64684032842706,139.50083468155975L237.87423603386426,155.771565186242L238.10163173930144,127.59947999550235L238.32902744473864,134.747170238357L238.55642315017582,129.6213961536423L238.783818855613,132.89567404208594L239.01121456105017,148.43133975962624L239.23861026648737,150.17364934685247L239.46600597192455,107.69163800824084" style="fill: none;" fill="none"></path></g></g></g></g></g></g><g transform="translate(64, 177)" clip-path="url(#clip_1)"><clipPath id="clip_1"><rect width="266" height="23"></rect></clipPath><g><g><line x1="23.364287238121197" y1="0" x2="23.364287238121197" y2="5" style="visibility: inherit;" fill="rgb(0, 0, 0)" stroke="rgb(204, 204, 204)" stroke-width="1px"></line><line x1="61.26357147765177" y1="0" x2="61.26357147765177" y2="5" style="visibility: inherit;" fill="rgb(0, 0, 0)" stroke="rgb(204, 204, 204)" stroke-width="1px"></line><line x1="99.16285571718235" y1="0" x2="99.16285571718235" y2="5" style="visibility: inherit;" fill="rgb(0, 0, 0)" stroke="rgb(204, 204, 204)" stroke-width="1px"></line><line x1="137.06213995671294" y1="0" x2="137.06213995671294" y2="5" style="visibility: inherit;" fill="rgb(0, 0, 0)" stroke="rgb(204, 204, 204)" stroke-width="1px"></line><line x1="174.96142419624348" y1="0" x2="174.96142419624348" y2="5" style="visibility: inherit;" fill="rgb(0, 0, 0)" stroke="rgb(204, 204, 204)" stroke-width="1px"></line><line x1="212.86070843577406" y1="0" x2="212.86070843577406" y2="5" style="visibility: inherit;" fill="rgb(0, 0, 0)" stroke="rgb(204, 204, 204)" stroke-width="1px"></line><line x1="250.75999267530466" y1="0" x2="250.75999267530466" y2="5" style="visibility: inherit;" fill="rgb(0, 0, 0)" stroke="rgb(204, 204, 204)" stroke-width="1px"></line></g><g transform="translate(0, 8)"><text x="23.364287238121197" y="0" dx="0em" dy="0.95em" style="text-anchor: middle; visibility: inherit; font-family: &quot;Helvetica Neue&quot;, sans-serif; font-size: 12px; font-weight: 200;" fill="rgb(50, 49, 63)" stroke="none" stroke-width="1px">0</text><text x="61.26357147765177" y="0" dx="0em" dy="0.95em" style="text-anchor: middle; visibility: inherit; font-family: &quot;Helvetica Neue&quot;, sans-serif; font-size: 12px; font-weight: 200;" fill="rgb(50, 49, 63)" stroke="none" stroke-width="1px">50k</text><text x="99.16285571718235" y="0" dx="0em" dy="0.95em" style="text-anchor: middle; visibility: inherit; font-family: &quot;Helvetica Neue&quot;, sans-serif; font-size: 12px; font-weight: 200;" fill="rgb(50, 49, 63)" stroke="none" stroke-width="1px">100k</text><text x="137.06213995671294" y="0" dx="0em" dy="0.95em" style="text-anchor: middle; visibility: inherit; font-family: &quot;Helvetica Neue&quot;, sans-serif; font-size: 12px; font-weight: 200;" fill="rgb(50, 49, 63)" stroke="none" stroke-width="1px">150k</text><text x="174.96142419624348" y="0" dx="0em" dy="0.95em" style="text-anchor: middle; visibility: inherit; font-family: &quot;Helvetica Neue&quot;, sans-serif; font-size: 12px; font-weight: 200;" fill="rgb(50, 49, 63)" stroke="none" stroke-width="1px">200k</text><text x="212.86070843577406" y="0" dx="0em" dy="0.95em" style="text-anchor: middle; visibility: inherit; font-family: &quot;Helvetica Neue&quot;, sans-serif; font-size: 12px; font-weight: 200;" fill="rgb(50, 49, 63)" stroke="none" stroke-width="1px">250k</text><text x="250.75999267530466" y="0" dx="0em" dy="0.95em" style="text-anchor: middle; visibility: inherit; font-family: &quot;Helvetica Neue&quot;, sans-serif; font-size: 12px; font-weight: 200;" fill="rgb(50, 49, 63)" stroke="none" stroke-width="1px">300k</text></g><line x1="0" y1="0" x2="266" y2="0" fill="rgb(0, 0, 0)" stroke="rgb(204, 204, 204)" stroke-width="1px"></line></g></g></g></g></svg>