<svg viewBox="0 0 330 200" xmlns="http://www.w3.org/2000/svg"><g><g><g><g><g><line x1="64" y1="167.98955738043708" x2="59" y2="167.98955738043708" style="visibility: inherit;" fill="rgb(0, 0, 0)" stroke="rgb(204, 204, 204)" stroke-width="1px"></line><line x1="64" y1="154.3146417199257" x2="59" y2="154.3146417199257" style="visibility: inherit;" fill="rgb(0, 0, 0)" stroke="rgb(204, 204, 204)" stroke-width="1px"></line><line x1="64" y1="140.63972605941433" x2="59" y2="140.63972605941433" style="visibility: inherit;" fill="rgb(0, 0, 0)" stroke="rgb(204, 204, 204)" stroke-width="1px"></line><line x1="64" y1="126.96481039890298" x2="59" y2="126.96481039890298" style="visibility: inherit;" fill="rgb(0, 0, 0)" stroke="rgb(204, 204, 204)" stroke-width="1px"></line><line x1="64" y1="113.28989473839161" x2="59" y2="113.28989473839161" style="visibility: inherit;" fill="rgb(0, 0, 0)" stroke="rgb(204, 204, 204)" stroke-width="1px"></line><line x1="64" y1="99.61497907788025" x2="59" y2="99.61497907788025" style="visibility: inherit;" fill="rgb(0, 0, 0)" stroke="rgb(204, 204, 204)" stroke-width="1px"></line><line x1="64" y1="85.94006341736889" x2="59" y2="85.94006341736889" style="visibility: inherit;" fill="rgb(0, 0, 0)" stroke="rgb(204, 204, 204)" stroke-width="1px"></line><line x1="64" y1="72.26514775685752" x2="59" y2="72.26514775685752" style="visibility: inherit;" fill="rgb(0, 0, 0)" stroke="rgb(204, 204, 204)" stroke-width="1px"></line><line x1="64" y1="58.590232096346156" x2="59" y2="58.590232096346156" style="visibility: inherit;" fill="rgb(0, 0, 0)" stroke="rgb(204, 204, 204)" stroke-width="1px"></line><line x1="64" y1="44.9153164358348" x2="59" y2="44.9153164358348" style="visibility: inherit;" fill="rgb(0, 0, 0)" stroke="rgb(204, 204, 204)" stroke-width="1px"></line><line x1="64" y1="31.240400775323423" x2="59" y2="31.240400775323423" style="visibility: inherit;" fill="rgb(0, 0, 0)" stroke="rgb(204, 204, 204)" stroke-width="1px"></line><line x1="64" y1="17.56548511481205" x2="59" y2="17.56548511481205" style="visibility: inherit;" fill="rgb(0, 0, 0)" stroke="rgb(204, 204, 204)" stroke-width="1px"></line><line x1="64" y1="3.890569454300703" x2="59" y2="3.890569454300703" style="visibility: inherit;" fill="rgb(0, 0, 0)" stroke="rgb(204, 204, 204)" stroke-width="1px"></line></g><g transform="translate(54, 0)"><text x="0" y="167.98955738043708" dx="0em" dy="0.3em" style="text-anchor: end; visibility: inherit; font-family: &quot;Helvetica Neue&quot;, sans-serif; font-size: 12px; font-weight: 200;" fill="rgb(50, 49, 63)" stroke="none" stroke-width="1px">0</text><text x="0" y="154.3146417199257" dx="0em" dy="0.3em" style="text-anchor: end; visibility: hidden; font-family: &quot;Helvetica Neue&quot;, sans-serif; font-size: 12px; font-weight: 200;" fill="rgb(50, 49, 63)" stroke="none" stroke-width="1px">100</text><text x="0" y="140.63972605941433" dx="0em" dy="0.3em" style="text-anchor: end; visibility: inherit; font-family: &quot;Helvetica Neue&quot;, sans-serif; font-size: 12px; font-weight: 200;" fill="rgb(50, 49, 63)" stroke="none" stroke-width="1px">200</text><text x="0" y="126.96481039890298" dx="0em" dy="0.3em" style="text-anchor: end; visibility: hidden; font-family: &quot;Helvetica Neue&quot;, sans-serif; font-size: 12px; font-weight: 200;" fill="rgb(50, 49, 63)" stroke="none" stroke-width="1px">300</text><text x="0" y="113.28989473839161" dx="0em" dy="0.3em" style="text-anchor: end; visibility: inherit; font-family: &quot;Helvetica Neue&quot;, sans-serif; font-size: 12px; font-weight: 200;" fill="rgb(50, 49, 63)" stroke="none" stroke-width="1px">400</text><text x="0" y="99.61497907788025" dx="0em" dy="0.3em" style="text-anchor: end; visibility: hidden; font-family: &quot;Helvetica Neue&quot;, sans-serif; font-size: 12px; font-weight: 200;" fill="rgb(50, 49, 63)" stroke="none" stroke-width="1px">500</text><text x="0" y="85.94006341736889" dx="0em" dy="0.3em" style="text-anchor: end; visibility: inherit; font-family: &quot;Helvetica Neue&quot;, sans-serif; font-size: 12px; font-weight: 200;" fill="rgb(50, 49, 63)" stroke="none" stroke-width="1px">600</text><text x="0" y="72.26514775685752" dx="0em" dy="0.3em" style="text-anchor: end; visibility: hidden; font-family: &quot;Helvetica Neue&quot;, sans-serif; font-size: 12px; font-weight: 200;" fill="rgb(50, 49, 63)" stroke="none" stroke-width="1px">700</text><text x="0" y="58.590232096346156" dx="0em" dy="0.3em" style="text-anchor: end; visibility: inherit; font-family: &quot;Helvetica Neue&quot;, sans-serif; font-size: 12px; font-weight: 200;" fill="rgb(50, 49, 63)" stroke="none" stroke-width="1px">800</text><text x="0" y="44.9153164358348" dx="0em" dy="0.3em" style="text-anchor: end; visibility: hidden; font-family: &quot;Helvetica Neue&quot;, sans-serif; font-size: 12px; font-weight: 200;" fill="rgb(50, 49, 63)" stroke="none" stroke-width="1px">900</text><text x="0" y="31.240400775323423" dx="0em" dy="0.3em" style="text-anchor: end; visibility: inherit; font-family: &quot;Helvetica Neue&quot;, sans-serif; font-size: 12px; font-weight: 200;" fill="rgb(50, 49, 63)" stroke="none" stroke-width="1px">1e+3</text><text x="0" y="17.56548511481205" dx="0em" dy="0.3em" style="text-anchor: end; visibility: hidden; font-family: &quot;Helvetica Neue&quot;, sans-serif; font-size: 12px; font-weight: 200;" fill="rgb(50, 49, 63)" stroke="none" stroke-width="1px">1.1e+3</text><text x="0" y="3.890569454300703" dx="0em" dy="0.3em" style="text-anchor: end; visibility: hidden; font-family: &quot;Helvetica Neue&quot;, sans-serif; font-size: 12px; font-weight: 200;" fill="rgb(50, 49, 63)" stroke="none" stroke-width="1px">1.2e+3</text></g><line x1="64" y1="0" x2="64" y2="177" fill="rgb(0, 0, 0)" stroke="rgb(204, 204, 204)" stroke-width="1px"></line></g></g><g transform="translate(64, 0)" clip-path="url(#clip_0)"><clipPath id="clip_0"><rect width="266" height="177"></rect></clipPath><g><g><g><line x1="13.43259712787152" y1="0" x2="13.43259712787152" y2="177" fill="rgb(0, 0, 0)" stroke="rgb(60, 60, 60)" stroke-width="1px" opacity="0.25"></line><line x1="52.332018424167806" y1="0" x2="52.332018424167806" y2="177" fill="rgb(0, 0, 0)" stroke="rgb(60, 60, 60)" stroke-width="1px" opacity="0.25"></line><line x1="91.2314397204641" y1="0" x2="91.2314397204641" y2="177" fill="rgb(0, 0, 0)" stroke="rgb(60, 60, 60)" stroke-width="1px" opacity="0.25"></line><line x1="130.1308610167604" y1="0" x2="130.1308610167604" y2="177" fill="rgb(0, 0, 0)" stroke="rgb(60, 60, 60)" stroke-width="1px" opacity="0.25"></line><line x1="169.0302823130567" y1="0" x2="169.0302823130567" y2="177" fill="rgb(0, 0, 0)" stroke="rgb(60, 60, 60)" stroke-width="1px" opacity="0.25"></line><line x1="207.929703609353" y1="0" x2="207.929703609353" y2="177" fill="rgb(0, 0, 0)" stroke="rgb(60, 60, 60)" stroke-width="1px" opacity="0.25"></line><line x1="246.82912490564928" y1="0" x2="246.82912490564928" y2="177" fill="rgb(0, 0, 0)" stroke="rgb(60, 60, 60)" stroke-width="1px" opacity="0.25"></line></g><g><line x1="0" y1="167.98955738043708" x2="266" y2="167.98955738043708" fill="rgb(0, 0, 0)" stroke="rgb(60, 60, 60)" stroke-width="1px" opacity="0.25"></line><line x1="0" y1="154.3146417199257" x2="266" y2="154.3146417199257" fill="rgb(0, 0, 0)" stroke="rgb(60, 60, 60)" stroke-width="1px" opacity="0.25"></line><line x1="0" y1="140.63972605941433" x2="266" y2="140.63972605941433" fill="rgb(0, 0, 0)" stroke="rgb(60, 60, 60)" stroke-width="1px" opacity="0.25"></line><line x1="0" y1="126.96481039890298" x2="266" y2="126.96481039890298" fill="rgb(0, 0, 0)" stroke="rgb(60, 60, 60)" stroke-width="1px" opacity="0.25"></line><line x1="0" y1="113.28989473839161" x2="266" y2="113.28989473839161" fill="rgb(0, 0, 0)" stroke="rgb(60, 60, 60)" stroke-width="1px" opacity="0.25"></line><line x1="0" y1="99.61497907788025" x2="266" y2="99.61497907788025" fill="rgb(0, 0, 0)" stroke="rgb(60, 60, 60)" stroke-width="1px" opacity="0.25"></line><line x1="0" y1="85.94006341736889" x2="266" y2="85.94006341736889" fill="rgb(0, 0, 0)" stroke="rgb(60, 60, 60)" stroke-width="1px" opacity="0.25"></line><line x1="0" y1="72.26514775685752" x2="266" y2="72.26514775685752" fill="rgb(0, 0, 0)" stroke="rgb(60, 60, 60)" stroke-width="1px" opacity="0.25"></line><line x1="0" y1="58.590232096346156" x2="266" y2="58.590232096346156" fill="rgb(0, 0, 0)" stroke="rgb(60, 60, 60)" stroke-width="1px" opacity="0.25"></line><line x1="0" y1="44.9153164358348" x2="266" y2="44.9153164358348" fill="rgb(0, 0, 0)" stroke="rgb(60, 60, 60)" stroke-width="1px" opacity="0.25"></line><line x1="0" y1="31.240400775323423" x2="266" y2="31.240400775323423" fill="rgb(0, 0, 0)" stroke="rgb(60, 60, 60)" stroke-width="1px" opacity="0.25"></line><line x1="0" y1="17.56548511481205" x2="266" y2="17.56548511481205" fill="rgb(0, 0, 0)" stroke="rgb(60, 60, 60)" stroke-width="1px" opacity="0.25"></line><line x1="0" y1="3.890569454300703" x2="266" y2="3.890569454300703" fill="rgb(0, 0, 0)" stroke="rgb(60, 60, 60)" stroke-width="1px" opacity="0.25"></line></g></g></g><g><g><line x1="0" y1="167.98955738043708" x2="266" y2="167.98955738043708" fill="rgb(0, 0, 0)" stroke="rgb(153, 153, 153)" stroke-width="1.5px"></line></g></g><g><g><line x1="13.43259712787152" y1="0" x2="13.43259712787152" y2="177" fill="rgb(0, 0, 0)" stroke="rgb(153, 153, 153)" stroke-width="1.5px"></line></g></g><g><g><g><g><g><path stroke="rgb(255, 112, 67)" stroke-width="2px" d="M13.510395970464112,72.96112951788501L13.74379249824189,75.74259424130881L13.97718902601967,80.29602318590823L14.210585553797445,88.28510211865733L14.443982081575223,95.24702699337179L14.677378609353001,99.42453165100042L14.910775137130779,97.82559919226385L15.144171664908558,101.36130609092633L15.377568192686335,101.60576321878983L15.610964720464112,102.91514857703602L15.84436124824189,104.01826341662586L16.077757776019666,106.03004536195937L16.311154303797444,105.5561095161418L16.544550831575222,104.92397278954553L16.777947359353004,105.68016893996013L17.01134388713078,105.52564535522689L17.244740414908556,104.8560026035156L17.478136942686334,105.38615753426978L17.71153347046411,107.0305122005275L17.94492999824189,107.11658608593393L18.17832652601967,106.58904724697895L18.411723053797445,106.50136784976995L18.645119581575223,105.45186666628051L18.878516109353,104.91110775643796L19.11191263713078,104.81388071796968L19.345309164908553,104.0641116060156L19.578705692686334,104.70752277848808L19.812102220464112,105.52011722466946L20.04549874824189,105.25342196414113L20.278895276019668,105.8006279074313L20.512291803797442,105.73692795405077L20.745688331575224,105.19792823874594L20.979084859353,104.60257963097517L21.21248138713078,104.37585287309722L21.445877914908557,105.04151926515306L21.67927444268633,104.04204407632875L21.91267097046411,102.38080841766015L22.14606749824189,102.77777891212845L22.37946402601967,103.2480269423531L22.612860553797447,103.65521461528483L22.84625708157522,104.4195814433302L23.079653609353,105.73697925116731L23.31305013713078,105.74467076695136L23.546446664908558,104.9572738552556L23.779843192686332,104.18515890348964L24.01323972046411,104.18418543143989L24.246636248241888,104.46133155317352L24.480032776019666,103.19571139597252L24.713429303797447,103.29118079323342L24.94682583157522,103.45272440006556L25.180222359353,104.4863925404638L25.413618887130777,105.54776468121497L25.647015414908555,106.44185764000441L25.880411942686337,107.67905728219455L26.11380847046411,108.20381726813338L26.34720499824189,108.15005314477636L26.580601526019667,107.36516301812642L26.813998053797444,107.47272708105348L27.047394581575222,107.40530024737446L27.280791109353,108.23643070095797L27.514187637130778,108.20890859406529L27.747584164908556,107.82991503459773L27.980980692686334,108.8650328114441L28.214377220464108,108.20821877669812L28.447773748241886,107.84154448494989L28.681170276019667,108.75519963432099L28.914566803797445,109.1623191935292L29.147963331575223,109.01522573886093L29.381359859352997,108.94074776393695L29.614756387130775,109.53179672204539L29.848152914908557,109.97936801204459L30.081549442686335,110.68521840363111L30.314945970464112,111.08358377303468L30.548342498241887,110.62446121509173L30.781739026019665,110.9458980049392L31.015135553797442,111.27695485766381L31.248532081575224,108.75437098353301L31.481928609353,108.10452543211603L31.715325137130776,107.7691337098616L31.948721664908554,107.77813855665217L32.18211819268633,108.20907898732749L32.41551472046411,108.02669443507178L32.64891124824189,108.26023600063013L32.882307776019665,109.20373313026398L33.11570430379744,109.71617223335656L33.34910083157522,108.94633790809125L33.582497359353,109.69292279002974L33.81589388713078,110.00885286187822L34.049290414908555,110.34088086699656L34.282686942686325,110.76449421893001L34.51608347046411,111.08257136005513L34.74947999824189,111.56801060993742L34.982876526019666,111.40309708820926L35.216273053797444,111.35852651231654L35.44966958157522,112.09916812498693L35.683066109353,111.28974753966399L35.91646263713078,111.34986569258805L36.149859164908555,111.72504333241918L36.38325569268633,111.60223087440862L36.616652220464104,111.3748278254757L36.85004874824188,110.83566419748611L37.08344527601967,111.08568900453506L37.316841803797445,111.62412188226959L37.55023833157522,111.5190582625287L37.783634859353,110.95395249609255L38.01703138713078,111.09227731057332L38.250427914908556,111.1249178577365L38.483824442686334,111.68431472495018L38.717220970464105,111.81866757123362L38.95061749824188,111.2524289258085L39.18401402601966,111.30517570620262L39.41741055379744,111.36107004348621L39.65080708157522,112.04374867581458L39.884203609353,111.66505313317562L40.11760013713078,112.02040287637898L40.35099666490856,111.43228187562381L40.584393192686335,111.33883817492736L40.81778972046411,111.31977026971812L41.05118624824188,111.84548600290984L41.28458277601966,111.56887004089546L41.51797930379744,111.56132770704066L41.75137583157522,111.77003033149698L41.984772359352995,111.47976972267688L42.21816888713078,109.92763832535354L42.45156541490856,110.5468198403759L42.684961942686336,110.88329487103994L42.91835847046411,111.25307529429607L43.151754998241884,111.1396774682276L43.38515152601966,110.89266712452476L43.61854805379744,110.716759169442L43.85194458157522,110.66740298782435L44.085341109352996,110.5932648372738L44.31873763713077,110.5692623294568L44.55213416490855,110.15525670756406L44.785530692686336,110.76301872611732L45.018927220464114,110.68495080125498L45.25232374824189,110.49562629443503L45.48572027601966,110.41727326553428L45.71911680379744,111.0749234799751L45.95251333157522,110.99007151760713L46.185909859352996,111.51985448587908L46.419306387130774,112.1926468334862L46.65270291490855,112.19240526443055L46.88609944268633,111.56726775581922L47.11949597046411,109.45984857130071L47.35289249824189,109.8472462650005L47.586289026019664,110.48030724689423L47.81968555379744,110.93889761808035L48.05308208157522,111.47166200621676L48.286478609353,110.64472180412373L48.519875137130775,109.7874664738921L48.75327166490855,109.41733206001378L48.98666819268633,109.24289914903785L49.22006472046411,109.57875399627605L49.45346124824189,110.11910244013661L49.686857776019664,110.1253069662042L49.920254303797435,110.83101300317459L50.15365083157522,110.89910550354062L50.387047359353,110.96089043499438L50.620443887130776,109.04041795709297L50.853840414908554,107.6513876916934L51.08723694268633,108.37742138756208L51.32063347046411,109.16818959343955L51.55402999824189,109.37248098696287L51.787426526019665,109.26725246662272L52.020823053797436,109.72373876095556L52.254219581575214,109.84675842167998L52.48761610935299,109.45949462273825L52.72101263713078,109.57039223022817L52.954409164908554,109.94192500404358L53.18780569268633,110.56430414033349L53.42120222046411,111.2079659566967L53.65459874824189,110.84909191214517L53.887995276019666,111.51422692864364L54.121391803797444,111.5059252090643L54.354788331575214,111.59016962449999L54.58818485935299,112.08164610505051L54.82158138713077,112.683814289301L55.05497791490855,111.4929131563798L55.28837444268633,111.48371566824274L55.52177097046411,111.89916348942872L55.75516749824189,112.4487891559136L55.98856402601967,112.54986586349321L56.221960553797445,112.53407216330261L56.455357081575215,113.0770517132926L56.68875360935299,113.50772794364786L56.92215013713077,113.33864795590131L57.15554666490855,113.52071464131716L57.38894319268633,114.16127592289945L57.622339720464105,113.97233889782018L57.85573624824189,114.419748852211L58.08913277601967,114.01183955348947L58.322529303797445,114.05740935025725L58.55592583157522,114.08796120483618L58.789322359352994,114.4299091000332L59.02271888713077,115.1151311039755L59.25611541490855,115.55097720336528L59.48951194268633,115.82034419870817L59.722908470464105,115.3712389071357L59.95630499824188,115.84722812148115L60.18970152601966,115.8417847239036L60.423098053797446,115.52541182951911L60.656494581575224,115.38138327479743L60.889891109352995,115.77711197790376L61.12328763713077,115.58428009531991L61.35668416490855,116.35488115636181L61.59008069268633,116.95218492180149L61.823477220464106,117.52935697186004L62.056873748241884,117.88419892661477L62.29027027601966,118.11348486522346L62.52366680379744,117.50556377184284L62.75706333157522,116.81487345116957L62.990459859353,115.40836670476347L63.22385638713077,115.79889578424944L63.45725291490855,115.98506174195987L63.69064944268633,115.97061189876518L63.92404597046411,116.59968169605712L64.15744249824188,117.01300418664943L64.39083902601966,117.60370369822542L64.62423555379745,117.83618289099925L64.85763208157522,117.47230198506617L65.091028609353,117.66574329035859L65.32442513713077,117.19067971102338L65.55782166490854,117.32373459546213L65.79121819268633,117.38940483826903L66.0246147204641,118.00404830452464L66.25801124824189,118.25765660300273L66.49140777601966,118.3853068140474L66.72480430379744,118.74670947404866L66.95820083157523,118.7561588586011L67.191597359353,119.01718029746952L67.42499388713078,119.48869951824486L67.65839041490855,118.91900724749763L67.89178694268634,119.50511785625918L68.12518347046411,120.02420234559914L68.3585799982419,119.61615996226051L68.59197652601966,119.97530674572376L68.82537305379743,120.11454943467459L69.0587695815752,120.41516295953357L69.29216610935299,120.69752885299623L69.52556263713078,119.78685409997621L69.75895916490855,120.09030652306397L69.99235569268633,120.68119761144109L70.2257522204641,120.98334799313912L70.45914874824189,121.49196396520486L70.69254527601966,121.51286274083012L70.92594180379744,121.74895420250566L71.15933833157521,122.17523662036855L71.392734859353,122.11835253247435L71.62613138713077,122.07571367507725L71.85952791490855,122.36140402438001L72.09292444268634,122.69428069635316L72.32632097046411,122.56590781655139L72.5597174982419,122.57086653371084L72.79311402601967,121.8796547697008L73.02651055379745,121.38171821173904L73.25990708157521,121.48854394280673L73.49330360935299,121.2763483262396L73.72670013713076,121.55965631973314L73.96009666490855,121.77471238077953L74.19349319268632,121.76687387034968L74.4268897204641,122.07530585169016L74.66028624824187,121.93849807079536L74.89368277601966,122.23667345636764L75.12707930379744,122.65147958300349L75.36047583157522,122.84310821061388L75.593872359353,122.93601607919291L75.82726888713077,123.50173865453156L76.06066541490856,123.77471002790817L76.29406194268633,123.78072661205425L76.52745847046411,123.73734513764549L76.76085499824188,123.06153672898868L76.99425152601967,123.71210457127094L77.22764805379745,123.7963228586514L77.46104458157522,123.93561534023264L77.694441109353,122.90124525283886L77.92783763713076,123.19962169464702L78.16123416490855,122.74320259254597L78.39463069268632,122.1812389297227L78.6280272204641,122.21363413495988L78.86142374824188,121.26952530040325L79.09482027601966,121.39666819727276L79.32821680379743,121.69594789571047L79.56161333157522,121.97724837403052L79.79500985935299,121.6060025290518L80.02840638713077,120.5505276086538L80.26180291490856,120.73734750178205L80.49519944268633,120.54072052166174L80.72859597046411,120.05167654500437L80.96199249824188,120.15381952337881L81.19538902601967,120.24314037528124L81.42878555379744,120.56410345465068L81.66218208157522,120.25178049171626L81.895578609353,119.9947183804823L82.12897513713077,120.14644931792058L82.36237166490854,118.56562515308867L82.59576819268632,118.46133347093493L82.8291647204641,118.61303397357318L83.06256124824188,119.0191399797779L83.29595777601966,118.84499837310321L83.52935430379743,118.64722778468504L83.76275083157522,118.45861346790426L83.99614735935299,118.56374816131702L84.22954388713077,118.99482429597481L84.46294041490854,119.38963069899526L84.69633694268633,119.76085433686745L84.9297334704641,119.12606212834238L85.16312999824189,119.529087256964L85.39652652601967,120.16506497933047L85.62992305379744,120.10767049293602L85.86331958157523,120.79297110687502L86.096716109353,120.83644065350595L86.33011263713078,120.62475241184158L86.56350916490854,120.99946692415428L86.79690569268632,121.17536754789698L87.0303022204641,121.64482985878723L87.26369874824188,121.75991941439165L87.49709527601965,121.90710153213985L87.73049180379743,122.08138503171148L87.96388833157522,121.6421651967978L88.19728485935299,120.33039344875084L88.43068138713078,120.57481961395922L88.66407791490855,120.61081982856575L88.89747444268633,120.47239249857243L89.1308709704641,120.63964919519L89.36426749824189,120.23492700084874L89.59766402601966,119.69457442040333L89.83106055379744,119.56953471871508L90.06445708157521,118.10867254871187L90.297853609353,118.11568668663844L90.53125013713078,118.34723555733223L90.76464666490855,118.04267890454736L90.99804319268632,118.24757032981262L91.2314397204641,118.28597108590503L91.46483624824188,118.60597740156535L91.69823277601965,118.73163277327426L91.93162930379744,118.54556370926502L92.1650258315752,118.47990338966362L92.39842235935299,119.00948467140157L92.63181888713076,119.32413525146487L92.86521541490855,119.29331372672266L93.09861194268633,118.99972565562966L93.3320084704641,118.62588066816056L93.56540499824189,119.12708970925024L93.79880152601966,119.45209573739953L94.03219805379744,119.69212064675153L94.26559458157521,119.78207300093183L94.498991109353,119.48210729871934L94.73238763713077,118.84790353480986L94.96578416490856,118.22971231601475L95.19918069268633,118.6691625805248L95.4325772204641,119.39704424175534L95.66597374824188,119.72680880776178L95.89937027601965,119.631910463233L96.13276680379744,119.40826630477672L96.36616333157521,119.681273831221L96.599559859353,119.87830707573654L96.83295638713076,120.00878072392763L97.06635291490855,119.26345046533457L97.29974944268632,118.55260231648582L97.5331459704641,118.95303772835197L97.76654249824188,119.36973459369187L97.99993902601966,118.96457241176978L98.23333555379745,119.66314941951174L98.46673208157522,120.03904943722114L98.700128609353,120.29148435245739L98.93352513713077,119.91959500846501L99.16692166490856,119.62791089907569L99.40031819268633,120.04494117386083L99.6337147204641,120.48858796528839L99.86711124824187,120.84633098153654L100.10050777601965,120.74332974031064L100.33390430379742,119.38754933087407L100.56730083157521,119.51626148552671L100.800697359353,119.81940432653292L101.03409388713077,119.74976991638835L101.26749041490855,120.04376150727458L101.50088694268632,120.03941051296363L101.7342834704641,119.98737595513049L101.96767999824188,120.01372665617251L102.20107652601966,120.26511691956605L102.43447305379743,120.58884807236564L102.66786958157522,120.87018355138406L102.90126610935299,121.09658845403388L103.13466263713077,120.80829364136744L103.36805916490856,120.68072543299351L103.60145569268633,120.88111303461935L103.83485222046411,120.60061004966481L104.06824874824187,120.643565265079L104.30164527601966,121.12572024746989L104.53504180379743,121.68827854991797L104.76843833157521,121.07839575390894L105.00183485935298,120.61165182693428L105.23523138713077,117.8483114701286L105.46862791490854,118.21696649700331L105.70202444268632,118.09230469126325L105.9354209704641,118.23385221127333L106.16881749824188,118.18902171398939L106.40221402601966,118.7541656484561L106.63561055379743,119.43142754225624L106.86900708157522,119.9178847885781L107.10240360935299,120.41361541851091L107.33580013713078,120.31310870856815L107.56919666490855,120.26222040565798L107.80259319268633,119.92592351332038L108.0359897204641,118.95857858189L108.26938624824189,119.0385712940352L108.50278277601964,119.31451257257913L108.73617930379743,119.87409585094225L108.96957583157521,119.8987386742964L109.20297235935298,119.40029693554675L109.43636888713077,119.62605317508275L109.66976541490854,119.48163000298584L109.90316194268632,119.29850012305516L110.1365584704641,119.69509768419609L110.36995499824188,119.9551172056776L110.60335152601965,120.06781167493364L110.83674805379744,120.25552735374615L111.0701445815752,120.35599869114057L111.30354110935299,120.40323263921883L111.53693763713078,120.7055034402535L111.77033416490855,120.97377647435664L112.00373069268633,121.53767517934875L112.2371272204641,121.74577026817246L112.47052374824189,122.19208010637729L112.70392027601966,121.31475876690547L112.93731680379743,120.90090952122003L113.1707133315752,121.08465935510667L113.40410985935299,121.40068761950474L113.63750638713076,121.36198590553113L113.87090291490854,121.88281371598868L114.10429944268633,121.89921207540849L114.3376959704641,122.12617628997761L114.57109249824188,122.07871307333653L114.80448902601965,121.58430473063618L115.03788555379744,122.00313353495844L115.27128208157521,121.8543284484334L115.504678609353,122.15401367864588L115.73807513713076,121.51176537505583L115.97147166490855,121.56687253307852L116.20486819268632,119.82557931142713L116.4382647204641,119.7038589956203L116.67166124824189,119.7436329149839L116.90505777601966,119.8403169400523L117.13845430379745,119.77462181565824L117.3718508315752,120.1425022858437L117.60524735935299,120.19696276412395L117.83864388713076,119.99323300278678L118.07204041490854,120.5630588390762L118.30543694268631,120.96539811426177L118.5388334704641,119.61168989638333L118.77222999824187,119.52801728968441L119.00562652601965,118.45860308920564L119.23902305379744,118.1156029741163L119.47241958157521,118.53187282027184L119.705816109353,119.31262296245094L119.93921263713077,119.11048154008962L120.17260916490855,119.61909426876696L120.40600569268632,119.975161885874L120.6394022204641,120.45645518463309L120.87279874824188,121.001901087932L121.10619527601966,120.13020547504183L121.33959180379743,120.25661306082776L121.57298833157522,120.60829471257611L121.80638485935299,120.86211525620854L122.03978138713076,121.49113804683304L122.27317791490854,121.3336982144799L122.50657444268631,121.90259492880783L122.7399709704641,122.25668267527658L122.97336749824187,121.97231157734744L123.20676402601966,121.55221172158141L123.44016055379743,121.98129135314818L123.67355708157521,121.87999213638616L123.90695360935298,121.53921224348025L124.14035013713077,120.65904701430654L124.37374666490855,118.58790045392996L124.60714319268632,118.94667990877178L124.84053972046411,119.52634021764078L125.07393624824188,119.18639252882338L125.30733277601966,119.1012950908515L125.54072930379743,119.21654907321124L125.77412583157522,119.35800887647761L126.00752235935299,119.63495839549435L126.24091888713076,119.61443986123521L126.47431541490853,119.59891952494873L126.70771194268632,119.90335854744929L126.9411084704641,120.19586779571918L127.17450499824187,120.39346808813346L127.40790152601966,120.33800417610007L127.64129805379743,120.35782553336648L127.87469458157521,120.75361081697076L128.10809110935298,121.06942685709299L128.34148763713077,119.94919392221868L128.57488416490855,119.97450999156953L128.8082806926863,118.34127621295L129.0416772204641,117.78998610397068L129.27507374824188,117.67598859935978L129.50847027601966,118.1225714325607L129.74186680379745,118.19312507692081L129.9752633315752,117.67016975100123L130.208659859353,118.17013606970889L130.44205638713078,118.05697456311576L130.67545291490853,118.57126136676465L130.90884944268632,118.54294739182545L131.1422459704641,118.14586414518342L131.37564249824186,117.3881510875061L131.60903902601964,117.55885053629146L131.84243555379743,118.08078130630878L132.07583208157521,118.36355859222434L132.309228609353,119.011203321056L132.54262513713076,119.55603310920193L132.77602166490854,119.78998229061872L133.00941819268633,120.25679960308582L133.2428147204641,120.46174390210231L133.47621124824187,120.47338168619021L133.70960777601965,120.41133424539558L133.94300430379744,120.55698983226877L134.17640083157522,118.74985453012243L134.40979735935298,119.02778267265413L134.64319388713076,119.38916402622131L134.87659041490855,119.6610807057941L135.10998694268633,119.7771011377632L135.34338347046412,120.37561411773164L135.57677999824188,121.08392377353161L135.81017652601966,121.5204784467827L136.04357305379745,121.66353156982356L136.27696958157523,121.62198457541322L136.510366109353,121.7782198170378L136.74376263713077,120.77499898074944L136.97715916490856,120.4643985013624L137.21055569268634,120.98202124127886L137.4439522204641,121.35874103870745L137.67734874824185,120.41758995618267L137.91074527601964,120.8356201251309L138.14414180379742,121.00345759962474L138.3775383315752,119.67252338592708L138.61093485935297,120.10193019253038L138.84433138713075,120.37781075373479L139.07772791490854,120.47977788243249L139.31112444268632,120.33360363250235L139.54452097046408,119.36692327157769L139.77791749824186,119.78823826321837L140.01131402601965,120.12315050868426L140.24471055379743,119.97895275759588L140.47810708157522,119.77731123473396L140.71150360935297,120.54498787826142L140.94490013713076,121.26837124787002L141.17829666490854,121.35187224151937L141.41169319268633,121.62703707166666L141.64508972046409,121.79427675612281L141.87848624824187,122.23797726303312L142.11188277601966,122.36763033440552L142.34527930379744,122.02716709354256L142.57867583157523,122.11241356700026L142.81207235935298,122.6624018235604L143.04546888713077,123.02236501201037L143.27886541490855,123.27382361632678L143.51226194268634,123.0470122356017L143.7456584704641,123.43697644475981L143.97905499824188,123.84882363569743L144.21245152601966,123.94312183018266L144.44584805379745,123.66337566496358L144.6792445815752,124.04157487115162L144.912641109353,123.18085280673776L145.14603763713077,122.89112638594375L145.37943416490856,122.1944392160959L145.61283069268634,122.52807333591613L145.8462272204641,122.85909128424717L146.0796237482419,123.05179705475919L146.31302027601964,123.29608879653236L146.54641680379743,123.60244880142761L146.77981333157518,123.18976592701368L147.01320985935297,123.10242397861117L147.24660638713075,123.30731930829376L147.48000291490854,122.76472704981032L147.7133994426863,123.49961525636758L147.94679597046408,123.86917664479577L148.18019249824187,124.00639917877282L148.41358902601965,124.22350520460468L148.64698555379744,124.5000989364134L148.8803820815752,124.78743986001629L149.11377860935298,123.4774236090897L149.34717513713076,123.7922055216387L149.58057166490855,123.08953860497985L149.8139681926863,123.49267200427724L150.0473647204641,123.59646458665948L150.28076124824187,123.44349507974042L150.51415777601966,123.29309821104161L150.74755430379744,122.0124009958193L150.9809508315752,122.3644234712973L151.21434735935298,121.85244197679896L151.44774388713077,122.01640864568023L151.68114041490855,121.67782650117526L151.9145369426863,122.0402854991681L152.1479334704641,121.83955195459853L152.38132999824188,122.12822652057213L152.61472652601967,121.35177711942612L152.84812305379745,121.11938582511016L153.0815195815752,120.49447043631156L153.314916109353,120.60306755635345L153.54831263713078,121.05417748191142L153.78170916490856,120.6886390193426L154.01510569268632,120.11682108950913L154.2485022204641,120.00590865243727L154.4818987482419,120.34589467722094L154.71529527601967,120.12476515936582L154.94869180379743,119.614887948694L155.1820883315752,119.96466290254183L155.41548485935297,119.85592303356614L155.64888138713076,120.14281404977841L155.88227791490854,120.31477161199436L156.1156744426863,120.44298004263742L156.34907097046408,119.55879037218301L156.58246749824187,118.83848066658446L156.81586402601965,118.79671674546796L157.0492605537974,119.28200796427541L157.2826570815752,119.7048978682559L157.51605360935298,120.07585409998396L157.74945013713076,120.15379534567154L157.98284666490852,120.845747487333L158.2162431926863,121.18967972524746L158.4496397204641,120.91984597531535L158.68303624824188,121.01833281383982L158.91643277601966,121.03519795801066L159.14982930379742,121.37770805682874L159.3832258315752,121.33456358270458L159.616622359353,121.15621983205395L159.85001888713077,120.71695191398362L160.08341541490853,121.17796160371797L160.31681194268631,121.37906611855317L160.5502084704641,121.86241129748691L160.78360499824188,121.71591056316021L161.01700152601967,122.07968739647859L161.25039805379743,122.27091535387319L161.4837945815752,122.46880499773124L161.717191109353,122.98385540302738L161.95058763713078,123.22996610210282L162.18398416490854,122.35910710968002L162.41738069268632,122.96373904968833L162.6507772204641,122.9854627994245L162.8841737482419,122.98319022577789L163.11757027601968,123.60928658186512L163.35096680379743,124.07459254546188L163.58436333157522,124.36944629668895L163.817759859353,124.24586777227165L164.05115638713076,124.53863541063421L164.28455291490852,125.0081813893631L164.5179494426863,124.71650599596248L164.7513459704641,124.83804717945284L164.98474249824187,124.90015937627666L165.21813902601963,124.76061273911398L165.4515355537974,124.37351330505841L165.6849320815752,124.69779371742112L165.91832860935298,124.28149207103054L166.15172513713077,124.35625096949221L166.38512166490852,124.41586778618975L166.6185181926863,124.19951648050639L166.8519147204641,124.06482810504272L167.08531124824188,124.4246261235555L167.31870777601964,123.39365229121611L167.55210430379742,123.99598816386441L167.7855008315752,123.77786697440112L168.018897359353,124.17577493744868L168.25229388713075,124.57753846569561L168.48569041490853,123.28972676489441L168.71908694268632,123.17617334253586L168.9524834704641,123.1396226374035L169.1858799982419,122.84570204980542L169.41927652601964,122.77134526788578L169.65267305379743,122.72168270798124L169.8860695815752,122.25723690563308L170.119466109353,122.55746771817824L170.35286263713076,122.90362955664048L170.58625916490854,123.09787134380554L170.81965569268633,122.71590915230951L171.0530522204641,122.59480029513776L171.2864487482419,123.11367661096403L171.51984527601965,122.8990260637716L171.75324180379744,122.95104628888113L171.98663833157522,123.43004244884646L172.220034859353,123.97922191435472L172.45343138713076,124.12781617761337L172.68682791490855,124.29423964666286L172.9202244426863,123.80468402236252L173.1536209704641,123.57601695120204L173.38701749824185,123.38919767703884L173.62041402601963,123.54318057696187L173.85381055379742,122.19805448019756L174.0872070815752,122.4863790794776L174.320603609353,122.68358975450082L174.55400013713074,123.07843712164133L174.78739666490853,123.44401476126136L175.0207931926863,122.54991995490776L175.2541897204641,122.18422502666155L175.48758624824185,122.2745972309045L175.72098277601964,121.40042800165614L175.95437930379742,121.64194199079573L176.1877758315752,121.39822555994627L176.421172359353,120.73613858461985L176.65456888713075,120.9373991258486L176.88796541490854,120.49868527700045L177.12136194268632,120.50019303693884L177.3547584704641,120.97663644933678L177.58815499824186,121.43380774925477L177.82155152601965,121.83044481433154L178.05494805379743,122.07622311623292L178.28834458157522,122.11715223952294L178.52174110935297,122.70991731352714L178.75513763713076,123.41246406861231L178.98853416490854,123.93134446104492L179.22193069268633,124.12027973405327L179.4553272204641,122.39106615466088L179.68872374824187,121.89540578619685L179.92212027601965,122.3020271878644L180.15551680379744,122.70509076232008L180.38891333157522,122.48446627975653L180.62230985935298,122.09286417942747L180.85570638713077,122.08417583750585L181.08910291490855,121.63999836814887L181.32249944268634,120.31358092329549L181.55589597046412,120.71373239247079L181.78929249824185,121.03331978144742L182.02268902601963,121.5495700644532L182.25608555379742,121.96916614886376L182.4894820815752,121.45052393221546L182.72287860935296,121.86722244856512L182.95627513713075,122.11846980842344L183.18967166490853,121.75629520709094L183.42306819268632,121.92078098626855L183.65646472046407,122.06852962142969L183.88986124824186,121.47766075414935L184.12325777601964,121.84838971145885L184.35665430379743,122.09162619969504L184.5900508315752,121.70277602823099L184.82344735935297,122.12337425199416L185.05684388713075,121.76904972056352L185.29024041490854,121.98862592088267L185.52363694268632,122.49431877538697L185.75703347046408,122.50332155062281L185.99042999824186,122.8017473343277L186.22382652601965,123.22063802744518L186.45722305379743,121.48034611560031L186.69061958157522,121.7196135442897L186.92401610935298,122.1164753418222L187.15741263713076,121.8935292729414L187.39080916490855,122.28456738900984L187.62420569268633,122.81742563018365L187.8576022204641,123.28891204652203L188.09099874824187,123.43653485837967L188.32439527601966,123.25898200445175L188.55779180379744,123.11199443353664L188.7911883315752,123.12239379330373L189.02458485935298,121.68693853734743L189.25798138713077,120.96718419324051L189.49137791490855,120.84041316849768L189.72477444268634,121.14915424468778L189.9581709704641,121.71524449134458L190.19156749824188,121.51994419796557L190.42496402601967,121.9362429214254L190.65836055379742,121.26521862456332L190.89175708157518,121.51396031602155L191.12515360935296,122.18011971861885L191.35855013713075,122.31112582185256L191.59194666490853,122.78829932977357L191.8253431926863,122.84617253676214L192.05873972046408,122.33870432859771L192.29213624824186,122.31252132418938L192.52553277601965,121.85078741193725L192.75892930379743,121.60666166423158L192.9923258315752,121.70512267497463L193.22572235935297,121.86027382210321L193.45911888713076,122.07251602236926L193.69251541490854,121.97919809908707L193.9259119426863,122.26702606437388L194.15930847046408,122.49435572937462L194.39270499824187,122.02821642672899L194.62610152601965,121.30169145782133L194.85949805379744,120.87281873824585L195.0928945815752,120.69568662838459L195.32629110935298,120.93434029285916L195.55968763713076,120.21299549355004L195.79308416490855,120.51076265765467L196.0264806926863,121.16713250234898L196.2598772204641,121.14425255831404L196.49327374824188,121.06383766191433L196.72667027601966,120.24517503972133L196.96006680379742,120.40617055396618L197.1934633315752,118.73793679854882L197.426859859353,119.25106774628257L197.66025638713077,119.5785683670399L197.89365291490856,120.10801204380599L198.1270494426863,119.88511800209102L198.3604459704641,119.58263025618845L198.59384249824188,119.67384131230767L198.82723902601967,119.44306768685851L199.06063555379743,119.84611811756403L199.2940320815752,120.41884965308071L199.52742860935297,120.01035916589996L199.76082513713075,120.49953040856218L199.99422166490854,120.75049161613036L200.2276181926863,120.80971184620086L200.46101472046408,120.02135925587017L200.69441124824186,120.03343644134517L200.92780777601965,119.97809793331989L201.1612043037974,119.65447974224722L201.3946008315752,120.06089309862314L201.62799735935297,120.15619401677411L201.86139388713076,120.44454089650623L202.09479041490852,120.53727865393691L202.3281869426863,120.51428776974622L202.5615834704641,120.36040511667417L202.79497999824187,121.00949715916673L203.02837652601966,120.94369605245049L203.2617730537974,121.41821338458192L203.4951695815752,121.34207986266097L203.72856610935298,121.35310521952296L203.96196263713077,120.53992919416541L204.19535916490852,121.00299621558926L204.4287556926863,121.21526024002385L204.6621522204641,121.17231438441878L204.89554874824188,121.58237095112122L205.12894527601966,122.07439460632733L205.36234180379742,122.42026115897096L205.5957383315752,122.9042520088574L205.829134859353,123.35687350233644L206.06253138713078,123.63912383700296L206.29592791490853,122.92840225272613L206.52932444268632,123.35424734535646L206.7627209704641,122.90683507274943L206.9961174982419,123.2389825831147L207.22951402601964,123.28308512906548L207.46291055379743,121.62588882016206L207.6963070815752,121.54791685263052L207.929703609353,121.94897904153336L208.16310013713078,122.4376483946923L208.3964966649085,122.25474073096679L208.6298931926863,122.26294414285681L208.86328972046408,122.45344689634086L209.09668624824187,122.16155586471874L209.33008277601962,122.6408486775158L209.5634793037974,122.55464602786665L209.7968758315752,122.39193212326305L210.03027235935298,122.88665778875395L210.26366888713076,123.00378984279027L210.49706541490852,122.84957481251871L210.7304619426863,122.74178647426406L210.9638584704641,123.2980281241747L211.19725499824187,123.44402322486172L211.43065152601963,123.1526832520099L211.66404805379742,122.97513048707495L211.8974445815752,122.89352639352352L212.13084110935299,123.43136343592943L212.36423763713074,123.77416314507418L212.59763416490853,124.3958263100028L212.8310306926863,124.1559705699984L213.0644272204641,123.70838663698336L213.29782374824188,123.32152870525664L213.53122027601964,122.2942311412315L213.76461680379742,121.1006475672632L213.9980133315752,120.9885787818128L214.231409859353,121.59741025800903L214.46480638713075,121.49672885632512L214.69820291490853,121.72411847042846L214.93159944268632,121.86230125677291L215.1649959704641,121.00724632000315L215.3983924982419,121.26226988752731L215.63178902601965,121.29367252103597L215.86518555379743,121.68938204551709L216.09858208157522,121.81711629998799L216.331978609353,121.6430166034043L216.56537513713076,121.92414746934486L216.79877166490854,121.24393991778143L217.03216819268633,120.8885100607138L217.26556472046408,120.65485614931008L217.49896124824184,120.88634629167115L217.73235777601963,120.636134596572L217.9657543037974,120.58000050623643L218.1991508315752,121.30911922728241L218.43254735935298,120.81637832552568L218.66594388713074,120.61280271444788L218.89934041490852,120.7850872054556L219.1327369426863,120.7866694849404L219.3661334704641,120.80678379769428L219.59952999824185,121.299212255103L219.83292652601963,121.6244653884336L220.06632305379742,121.7017701938438L220.2997195815752,121.85996928285694L220.533116109353,121.06802002146316L220.76651263713075,119.0940129712249L220.99990916490853,119.24334957028626L221.23330569268632,118.76557140836528L221.4667022204641,119.02354191493038L221.70009874824186,119.35001982198065L221.93349527601964,119.74344623650241L222.16689180379743,120.15617252908942L222.4002883315752,120.86920177467809L222.63368485935297,121.22857291813656L222.86708138713075,121.85385253436806L223.10047791490854,120.93807901864056L223.33387444268632,121.29908695040308L223.5672709704641,121.97444794131049L223.80066749824186,122.53574823419947L224.03406402601965,122.95329370092381L224.26746055379743,122.31133078113706L224.50085708157522,121.90673618001375L224.73425360935298,122.42152258018976L224.96765013713076,122.92280634530908L225.20104666490855,123.17167171018887L225.43444319268633,123.6457484208629L225.66783972046412,123.97325272068366L225.90123624824187,124.07999675926698L226.13463277601963,124.08516537352203L226.3680293037974,124.75254779565479L226.6014258315752,124.29753017441585L226.83482235935296,124.48619302475994L227.06821888713074,124.25866195799159L227.30161541490853,124.28926251268717L227.5350119426863,124.28452403960429L227.76840847046407,124.71194791728178L228.00180499824185,124.68020298214611L228.23520152601964,124.97515628198602L228.46859805379742,124.90561336147641L228.7019945815752,124.83669161729256L228.93539110935296,125.01590019412002L229.16878763713075,125.1447213295427L229.40218416490853,125.2964502912762L229.63558069268632,125.2530078773803L229.86897722046407,125.14084247439104L230.10237374824186,124.57388141478455L230.33577027601964,123.10579855689801L230.56916680379743,122.70357566504086L230.8025633315752,122.31899292770416L231.03595985935297,122.33904792526684L231.26935638713076,122.90927246331779L231.50275291490854,123.16116440537192L231.73614944268633,123.67783837209655L231.96954597046408,123.03870649253648L232.20294249824187,123.33028765977437L232.43633902601965,123.47797051706945L232.66973555379744,122.96850373841204L232.9031320815752,123.30793688463169L233.13652860935298,123.85097963759551L233.36992513713076,124.03301963397894L233.60332166490855,124.55257003888728L233.83671819268633,124.46770149402963L234.0701147204641,124.5350565252817L234.30351124824188,124.49309265534475L234.53690777601966,124.52093479958205L234.77030430379745,124.87454297464299L235.00370083157517,125.25627383180742L235.23709735935296,124.73621431393752" style="fill: none;" fill="none"></path></g></g></g></g><g opacity="0.2"><g><g><g><path stroke="rgb(255, 112, 67)" stroke-width="2px" d="M13.510395970464112,72.96112951788498L13.74379249824189,78.45730381137054L13.97718902601967,89.07765696616799L14.210585553797445,111.12020794742274L14.443982081575223,121.46348631112878L14.677378609353001,118.85542015139816L14.910775137130779,89.00639449674084L15.144171664908558,123.84595058313613L15.377568192686335,103.36162135300097L15.610964720464112,113.37229144701013L15.84436124824189,113.69327303365336L16.077757776019666,125.21466491233681L16.311154303797444,100.68250138649672L16.544550831575222,97.96258787123104L16.777947359353004,114.54593958120242L17.01134388713078,103.60664973376613L17.244740414908556,96.08586761904498L17.478136942686334,112.68024923688095L17.71153347046411,130.71614758372772L17.94492999824189,108.41066496603655L18.17832652601967,98.33323116940994L18.411723053797445,105.07656962317286L18.645119581575223,87.78237102473787L18.878516109353,95.49756413373544L19.11191263713078,103.0670773245576L19.345309164908553,90.1851047869073L19.578705692686334,116.95985766160004L19.812102220464112,121.41588618660978L20.04549874824189,99.90131014428142L20.278895276019668,117.05262073084498L20.512291803797442,104.3963544122447L20.745688331575224,93.60078722729388L20.979084859353,91.51940229803787L21.21248138713078,99.29167716252996L21.445877914908557,120.2600244570028L21.67927444268633,80.76489575004499L21.91267097046411,62.99884829322508L22.14606749824189,112.35011570625471L22.37946402601967,114.77415809860071L22.612860553797447,113.79357299794313L22.84625708157522,123.74042570600241L23.079653609353,139.523332870719L23.31305013713078,105.94470224660014L23.546446664908558,84.20258792712394L23.779843192686332,83.56814495587001L24.01323972046411,104.15786551904058L24.246636248241888,112.04523035670333L24.480032776019666,68.15889209142249L24.713429303797447,105.96385747819248L24.94682583157522,108.02428433052982L25.180222359353,134.04521832989485L25.413618887130777,136.20628943990027L25.647015414908555,132.52119638768573L25.880411942686337,144.10771188053005L26.11380847046411,123.79641824244563L26.34720499824189,106.5383850551172L26.580601526019667,83.63541779536202L26.813998053797444,110.75166796879122L27.047394581575222,105.33340831012674L27.280791109353,133.97365747287319L27.514187637130778,107.35023718763945L27.747584164908556,95.91945497961672L27.980980692686334,141.62476402109783L28.214377220464108,87.27900158591355L28.447773748241886,96.08010018330192L28.681170276019667,138.2499752875464L28.914566803797445,122.38694792376108L29.147963331575223,104.20824085685126L29.381359859352997,106.49254604339386L29.614756387130775,129.0710303571799L29.848152914908557,124.857159014823L30.081549442686335,134.27429862405214L30.314945970464112,124.46599583129777L30.548342498241887,95.12307309622578L30.781739026019665,121.85184924184385L31.015135553797442,122.56283802091184L31.248532081575224,22.360168953217453L31.481928609353,85.74831913180435L31.715325137130776,96.18045022662854L31.948721664908554,108.09060149506875L32.18211819268633,123.22417760820338L32.41551472046411,101.64644355391023L32.64891124824189,116.4619426645385L32.882307776019665,142.46387375604826L33.11570430379744,127.84725728036115L33.34910083157522,81.61047194062772L33.582497359353,136.29564922126644L33.81589388713078,121.3044185971041L34.049290414908555,122.25115444210907L34.282686942686325,126.00880575882904L34.51608347046411,122.56474519756495L34.74947999824189,129.14495953531892L34.982876526019666,105.41420666281937L35.216273053797444,109.73527635679113L35.44966958157522,139.14865612344772L35.683066109353,81.6478142091001L35.91646263713078,113.55730010211931L36.149859164908555,125.5364686298349L36.38325569268633,107.06977371505502L36.616652220464104,102.96187378791032L36.85004874824188,90.84138221822465L37.08344527601967,120.37907902059017L37.316841803797445,131.68278984587764L37.55023833157522,107.59643407926427L37.783634859353,89.81015469155992L38.01703138713078,116.27858244439204L38.250427914908556,112.35121744506526L38.483824442686334,132.74233289462384L38.717220970464105,116.88601194852242L38.95061749824188,89.85569322906221L39.18401402601966,113.30198882578912L39.41741055379744,113.48080854659517L39.65080708157522,137.97860950665506L39.884203609353,97.25413643002973L40.11760013713078,125.56519730397034L40.35099666490856,88.97900126358789L40.584393192686335,107.76576382258862L40.81778972046411,110.58954543351913L41.05118624824188,132.0082159470407L41.28458277601966,100.94448152123313L41.51797930379744,111.27122962952802L41.75137583157522,119.80832406444091L41.984772359352995,100.28524108023592L42.21816888713078,49.98812255185223L42.45156541490856,134.48854509017133L42.684961942686336,123.90983474113511L42.91835847046411,125.58634735053022L43.151754998241884,106.73901419646825L43.38515152601966,101.29584021697454L43.61854805379744,103.87473533774428L43.85194458157522,108.74557269817512L44.085341109352996,107.7033987287072L44.31873763713077,109.6326852765658L44.55213416490855,93.98440934252119L44.785530692686336,134.5253344026119L45.018927220464114,107.62970742599317L45.25232374824189,103.07932164906565L45.48572027601966,107.34518337817141L45.71911680379744,136.8832954192174L45.95251333157522,107.6573009752935L46.185909859352996,132.34605330283455L46.419306387130774,138.66255351920145L46.65270291490855,112.18289345573082L46.88609944268633,86.93303055988581L47.11949597046411,26.35090062716253L47.35289249824189,125.13624114064118L47.586289026019664,135.48286645330953L47.81968555379744,129.06368960502937L48.05308208157522,132.54264690846668L48.286478609353,77.91684249925805L48.519875137130775,75.8373856129205L48.75327166490855,94.74936663029332L48.98666819268633,102.32599521760022L49.22006472046411,122.90479437748604L49.45346124824189,131.57185643276495L49.686857776019664,110.37178091506175L49.920254303797435,138.88104001044L50.15365083157522,113.60711205076552L50.387047359353,113.41937826140148L50.620443887130776,32.58242715114005L50.853840414908554,52.32272378439717L51.08723694268633,137.31175287880467L51.32063347046411,140.69780939564572L51.55402999824189,117.52191138509787L51.787426526019665,105.06760130232495L52.020823053797436,127.95031576493034L52.254219581575214,114.76086628757204L52.48761610935299,93.98326587117995L52.72101263713078,114.00406770955219L52.954409164908554,124.801892624414L53.18780569268633,135.46723136068192L53.42120222046411,136.9725717355222L53.65459874824189,96.47852065391625L53.887995276019666,138.1585059267532L54.121391803797444,111.17324999394528L54.354788331575214,114.96730042394375L54.58818485935299,131.79044308207716L54.82158138713077,136.83965362523554L55.05497791490855,63.704411843301784L55.28837444268633,111.11451980348801L55.52177097046411,128.5808734375759L55.75516749824189,134.5249859359805L55.98856402601967,116.61091527938629L56.221960553797445,111.89932925611521L56.455357081575215,134.90541342598257L56.68875360935299,130.8261879206834L56.92215013713077,106.53771733462597L57.15554666490855,120.84594918806232L57.38894319268633,139.9401448676138L57.622339720464105,106.366805928388L57.85573624824189,132.43436351105356L58.08913277601967,97.58374830402221L58.322529303797445,115.89311157805463L58.55592583157522,115.31897211366544L58.789322359352994,128.21091872615358L59.02271888713077,142.73660419069355L59.25611541490855,133.12377239849545L59.48951194268633,126.68314920268739L59.722908470464105,97.2564400657245L59.95630499824188,135.05018357498867L60.18970152601966,115.62213808295189L60.423098053797446,102.75704635397064L60.656494581575224,109.56752827638039L60.889891109352995,131.75394798397804L61.12328763713077,107.7976808620697L61.35668416490855,147.47724022858648L61.59008069268633,141.07957232663026L61.823477220464106,140.8473266200192L62.056873748241884,132.2222161912287L62.29027027601966,127.37961923432408L62.52366680379744,92.93394311920272L62.75706333157522,88.89369162432635L62.990459859353,58.54212283495261L63.22385638713077,131.59052339374807L63.45725291490855,123.5139891676651L63.69064944268633,115.3861531415899L63.92404597046411,142.04723703578242L64.15744249824188,133.73512684713836L64.39083902601966,141.50507303641726L64.62423555379745,127.2440844943624L64.85763208157522,102.74513588970821L65.091028609353,125.49569594733882L65.32442513713077,97.9592993478117L65.55782166490854,122.7106129121285L65.79121819268633,120.04842383333015L66.0246147204641,142.89385027975308L66.25801124824189,128.52849493829152L66.49140777601966,123.55550468920771L66.72480430379744,133.3859695423915L66.95820083157523,119.13895931149534L67.191597359353,129.5922988784224L67.42499388713078,138.59372614294077L67.65839041490855,95.8341703798736L67.89178694268634,143.25729262975932L68.12518347046411,141.06190277313092L68.3585799982419,103.07747289795553L68.59197652601966,134.53333035549446L68.82537305379743,125.75919514619278L69.0587695815752,132.60241623893845L69.29216610935299,132.1458498332967L69.52556263713078,82.8615297460196L69.75895916490855,132.3953269018347L69.99235569268633,144.64353253522845L70.2257522204641,133.2372410628483L70.45914874824189,142.12055065909357L70.69254527601966,122.36053540507964L70.92594180379744,131.32563032836865L71.15933833157521,139.46776391946244L71.392734859353,119.81066108616025L71.62613138713077,120.34582654012661L71.85952791490855,133.95271191571373L72.09292444268634,136.20082665163133L72.32632097046411,117.35686757267663L72.5597174982419,122.77208910310597L72.79311402601967,93.82913928879042L73.02651055379745,101.1736139810538L73.25990708157521,125.82413931047161L73.49330360935299,112.66383165930269L73.72670013713076,133.05899307771287L73.96009666490855,130.5041338080011L74.19349319268632,121.44868378248869L74.4268897204641,134.59608564853795L74.66028624824187,116.38455803285731L74.89368277601966,134.34210146668408L75.12707930379744,139.4926031217364L75.36047583157522,130.6235347515933L75.593872359353,126.70836817099075L75.82726888713077,146.47271943494465L76.06066541490856,134.85902980473355L76.29406194268633,124.02504573864479L76.52745847046411,121.97566548718434L76.76085499824188,95.6166771228658L76.99425152601967,150.13281261464198L77.22764805379745,127.21668708795637L77.46104458157522,129.5928914803584L77.694441109353,80.88965932383242L77.92783763713076,135.3187324100576L78.16123416490855,104.2043513849898L78.39463069268632,99.35471832340878L78.6280272204641,123.52953870860478L78.86142374824188,82.91844457139133L79.09482027601966,126.56153643496799L79.32821680379743,133.85376825867178L79.56161333157522,133.4049787101264L79.79500985935299,106.52389969371046L80.02840638713077,77.67013647075868L80.26180291490856,128.32739004609047L80.49519944268633,112.55205524906981L80.72859597046411,100.18209078409919L80.96199249824188,124.30392337506254L81.19538902601967,123.87235475531142L81.42878555379744,133.6054951736445L81.66218208157522,107.5611951303393L81.895578609353,109.5493328929942L82.12897513713077,126.31195920835628L82.36237166490854,54.32841424946544L82.59576819268632,114.22333459911485L82.8291647204641,124.77765019732907L83.06256124824188,135.52226196229245L83.29595777601966,111.76820147139568L83.52935430379743,110.61005697235929L83.76275083157522,110.79341719250574L83.99614735935299,122.83644066544883L84.22954388713077,136.51410858636L84.46294041490854,135.43512861143924L84.69633694268633,134.84813970084682L84.9297334704641,93.32643757045733L85.16312999824189,135.90932075142308L85.39652652601967,146.01359691179738L85.62992305379744,117.77491067922716L85.86331958157523,148.64691542585592L86.096716109353,122.60327684316232L86.33011263713078,112.02049548575611L86.56350916490854,136.2302585189091L86.79690569268632,128.32517822196326L87.0303022204641,140.7272287431643L87.26369874824188,126.43805822312618L87.49709527601965,127.88979942215902L87.73049180379743,129.16578406813935L87.96388833157522,103.78825718762309L88.19728485935299,67.00744983681687L88.43068138713078,130.5107358943582L88.66407791490855,122.07424189795611L88.89747444268633,114.84521607862742L89.1308709704641,127.43882517563137L89.36426749824189,103.78235620778179L89.59766402601966,97.72822632531337L89.83106055379744,114.48639143314338L90.06445708157521,58.720854917444186L90.297853609353,118.40083186771167L90.53125013713078,127.76044944324741L90.76464666490855,105.66136340265034L90.99804319268632,126.57720282699361L91.2314397204641,119.8471227982348L91.46483624824188,131.61567141674922L91.69823277601965,123.84012472185009L91.93162930379744,110.98091310644477L92.1650258315752,115.81046030099883L92.39842235935299,140.5399394052522L92.63181888713076,132.11653273047835L92.86521541490855,118.04022941641973L93.09861194268633,107.06349296918434L93.3320084704641,103.42659890330438L93.56540499824189,139.50468677600125L93.79880152601966,132.66590393789576L94.03219805379744,129.450896544644L94.26559458157521,123.43931715047958L94.498991109353,107.28616523325229L94.73238763713077,93.06244592774107L94.96578416490856,93.09516423181162L95.19918069268633,136.5365126954675L95.4325772204641,148.9917012480117L95.66597374824188,133.13464163611684L95.89937027601965,115.77343937301288L96.13276680379744,110.31507892559661L96.36616333157521,130.78158419186883L96.599559859353,127.88958658625243L96.83295638713076,125.31380053902001L97.06635291490855,88.95841877944554L97.29974944268632,89.64949279486243L97.5331459704641,135.23481872394808L97.76654249824188,136.3127741652401L97.99993902601966,102.49047564085699L98.23333555379745,148.06774301826403L98.46673208157522,135.32344192614735L98.700128609353,130.55572356245523L98.93352513713077,104.79817608411126L99.16692166490856,107.76768351900093L99.40031819268633,137.00194935051002L99.6337147204641,138.52791602864988L99.86711124824187,135.3927304468723L100.10050777601965,116.55512305909046L100.33390430379742,64.25903717633462L100.56730083157521,124.7499481434489L100.800697359353,132.14581644727213L101.03409388713077,116.91828371451446L101.26749041490855,131.99812919436994L101.50088694268632,119.86248871603937L101.7342834704641,117.87152148780285L101.96767999824188,121.08521430633749L102.20107652601966,130.48731977138118L102.43447305379743,133.75265659665985L102.66786958157522,132.31009238112844L102.90126610935299,130.3028828519426L103.13466263713077,109.08534644339359L103.36805916490856,115.4934015722416L103.60145569268633,129.02951900889036L103.83485222046411,109.19443110539618L104.06824874824187,122.390269833205L104.30164527601966,140.7318130616619L104.53504180379743,144.5638922602628L104.76843833157521,96.27835474365601L105.00183485935298,101.63212094937322L105.23523138713077,5.480495408994784L105.46862791490854,133.20789266063196L105.70202444268632,113.02306945684069L105.9354209704641,123.98973584441762L106.16881749824188,116.3660329624786L106.40221402601966,141.73523211649322L106.63561055379743,146.97171113129832L106.86900708157522,139.69928765329234L107.10240360935299,140.5721423125686L107.33580013713078,116.22607040100942L107.56919666490855,118.1928786672224L107.80259319268633,106.25059752339453L108.0359897204641,79.6219836247149L108.26938624824189,122.29143885399594L108.50278277601964,130.5355542303668L108.73617930379743,142.62935367341532L108.96957583157521,120.90083163918884L109.20297235935298,99.1312907005351L109.43636888713077,128.80638351373162L109.66976541490854,113.608685367173L109.90316194268632,111.85154550846114L110.1365584704641,135.82270697057712L110.36995499824188,130.5288019068992L110.60335152601965,124.65053290881004L110.83674805379744,127.88899398431646L111.0701445815752,124.44167411240451L111.30354110935299,122.32400692095598L111.53693763713078,132.99739377576984L111.77033416490855,131.88315189903219L112.00373069268633,144.46874626351476L112.2371272204641,130.2080122898972L112.47052374824189,140.3414031503159L112.70392027601966,85.63819532978727L112.93731680379743,104.07157933856062L113.1707133315752,128.5569189649528L113.40410985935299,134.2521115241043L113.63750638713076,119.78816307885867L113.87090291490854,143.06252899559848L114.10429944268633,122.56605977228207L114.3376959704641,131.35579877481328L114.57109249824188,120.14859442677474L114.80448902601965,101.47889578964686L115.03788555379744,139.03506643475583L115.27128208157521,115.80307364306454L115.504678609353,134.3409141761856L115.73807513713076,95.39429281325967L115.97147166490855,123.80784460935189L116.20486819268632,49.01460276864255L116.4382647204641,114.75400963277767L116.67166124824189,121.36107050753239L116.90505777601966,123.77205061776858L117.13845430379745,117.103075360464L117.3718508315752,135.10267266547942L117.60524735935299,122.41164523543068L117.83864388713076,111.7083820618871L118.07204041490854,143.73554117172745L118.30543694268631,137.32689552757L118.5388334704641,64.56187345862853L118.77222999824187,116.12539067069025L119.00562652601965,74.96983307166995L119.23902305379744,104.16716352688105L119.47241958157521,135.45990521491714L119.705816109353,151.0626259184472L119.93921263713077,110.89019075795117L120.17260916490855,140.302366541097L120.40600569268632,134.4550317813909L120.6394022204641,140.0287680698131L120.87279874824188,143.18305671751963L121.10619527601966,84.68173580512867L121.33959180379743,125.39711953656703L121.57298833157522,134.90982872773088L121.80638485935299,131.18401933193672L122.03978138713076,147.0710804601534L122.27317791490854,114.93122265115167L122.50657444268631,145.03745423903305L122.7399709704641,136.65608474243558L122.97336749824187,110.40801727147051L123.20676402601966,104.468338854453L123.44016055379743,139.43034235918174L123.67355708157521,117.76053382240022L123.90695360935298,107.6809716667078L124.14035013713077,84.86601831420364L124.37374666490855,34.36209422992496L124.60714319268632,133.53690567280884L124.84053972046411,143.09897401466077L125.07393624824188,105.3619784006455L125.30733277601966,115.64069653935518L125.54072930379743,123.90350391622758L125.77412583157522,125.1106590993207L126.00752235935299,130.89747960288204L126.24091888713076,118.7800261614315L126.47431541490853,118.9677641240486L126.70771194268632,132.28378419377373L126.9411084704641,132.09115517855832L127.17450499824187,128.4291548222079L127.40790152601966,118.08248777700882L127.64129805379743,121.16388847321736L127.87469458157521,136.84877009656745L128.10809110935298,133.91252766190053L128.34148763713077,74.39334823905531L128.57488416490855,121.00402366785627L128.8082806926863,51.923510395699495L129.0416772204641,95.37098936811553L129.27507374824188,113.04011719563255L129.50847027601966,136.28350296820554L129.74186680379745,121.06229062722275L129.9752633315752,96.40343548467678L130.208659859353,138.50199178057764L130.44205638713078,113.45509713442951L130.67545291490853,139.48548563862514L130.90884944268632,117.39151809291869L131.1422459704641,101.99788988796611L131.37564249824186,86.57463158621493L131.60903902601964,124.500596272503L131.84243555379743,139.30587091310923L132.07583208157521,129.86311796316156L132.309228609353,145.34864328734702L132.54262513713076,141.71235225653572L132.77602166490854,129.30387701223307L133.00941819268633,139.24062836123588L133.2428147204641,128.79611313792577L133.47621124824187,120.94664978464682L133.70960777601965,117.88808095598549L133.94300430379744,126.48029571744993L134.17640083157522,45.25994367437394L134.40979735935298,130.3301550607565L134.64319388713076,134.08528990587513L134.87659041490855,130.71898956906853L135.10998694268633,124.49525033532007L135.34338347046412,144.71506626610517L135.57677999824188,149.88842900147617L135.81017652601966,139.27364922615402L136.04357305379745,127.48100841766518L136.27696958157523,119.93241157123097L136.510366109353,128.1317688084237L136.74376263713077,79.97746132123662L136.97715916490856,107.83334548280784L137.21055569268634,142.0319587562923L137.4439522204641,136.67864117528015L137.67734874824185,82.144205968791L137.91074527601964,137.83547318622595L138.14414180379742,127.82883236805611L138.3775383315752,65.54798811960414L138.61093485935297,137.56443500570063L138.84433138713075,131.59692933721087L139.07772791490854,124.62643237232949L139.31112444268632,114.38919636913785L139.54452097046408,80.05533422352701L139.77791749824186,136.92168100095734L140.01131402601965,133.74288909784897L140.24471055379743,114.11492183085656L140.47810708157522,111.5772375841553L140.71150360935297,151.76378251328174L140.94490013713076,150.68591053705111L141.17829666490854,124.74757356245195L141.41169319268633,132.81705499084623L141.64508972046409,128.59534627922343L141.87848624824187,140.2817694505689L142.11188277601966,127.6401804630166L142.34527930379744,108.1816827433264L142.57867583157523,125.57909840994725L142.81207235935298,145.02855895011388L143.04546888713077,137.6608475847555L143.27886541490855,133.49979293325532L143.51226194268634,113.8233616783584L143.7456584704641,139.2955003792297L143.97905499824188,140.59725486291867L144.21245152601966,127.77791033409324L144.44584805379745,112.28704533260441L144.6792445815752,139.4216578195426L144.912641109353,88.17819573194252L145.14603763713077,111.108931817627L145.37943416490856,93.86252531335221L145.61283069268634,136.0958463840233L145.8462272204641,136.32047381715466L146.0796237482419,130.88849041576876L146.31302027601964,133.2306097637197L146.54641680379743,136.06107692606872L146.77981333157518,106.40734490871216L147.01320985935297,119.55052135602782L147.24660638713075,131.63972187419293L147.48000291490854,100.69932794287588L147.7133994426863,153.38504333865362L147.94679597046408,138.89799385103777L148.18019249824187,129.5867776646105L148.41358902601965,133.05247654304372L148.64698555379744,135.74823526953895L148.8803820815752,136.4726285374685L149.11377860935298,70.20346892859911L149.34717513713076,136.59332736276554L149.58057166490855,94.51443752195811L149.8139681926863,139.88675226783337L150.0473647204641,127.81736009536606L150.28076124824187,117.2227392189996L150.51415777601966,117.17696280607231L150.74755430379744,69.93074684045995L150.9809508315752,136.67999539590141L151.21434735935298,101.03187361377671L151.44774388713077,128.68438263347667L151.68114041490855,107.908827111089L151.9145369426863,136.78027658055237L152.1479334704641,113.67639222498431L152.38132999824188,133.8676526716364L152.61472652601967,89.7761844115683L152.84812305379745,111.66881127627522L153.0815195815752,95.08125710046212L153.314916109353,125.01934832214418L153.54831263713078,139.39930587609848L153.78170916490856,105.82341499262023L154.01510569268632,96.86290230120234L154.2485022204641,115.49547150576443L154.4818987482419,134.17198715178253L154.71529527601967,111.132168490722L154.94869180379743,98.87988976233171L155.1820883315752,134.18883874768008L155.41548485935297,115.43383673117029L155.64888138713076,131.80971099150239L155.88227791490854,127.30770991067104L156.1156744426863,125.65678768910254L156.34907097046408,83.6017563360976L156.58246749824187,89.54589596064717L156.81586402601965,117.09831785196394L157.0492605537974,139.01717778547032L157.2826570815752,136.90241517815863L157.51605360935298,135.16140285593667L157.74945013713076,123.3234050464541L157.98284666490852,148.98512628779957L158.2162431926863,135.17625337698706L158.4496397204641,109.94660989226729L158.68303624824188,125.02346314967143L158.91643277601966,121.7210469708638L159.14982930379742,135.3064484396454L159.3832258315752,119.58002208198124L159.616622359353,113.90357577562119L159.85001888713077,102.8533942476029L160.08341541490853,139.9256845457255L160.31681194268631,129.55731449793473L160.5502084704641,141.51844413925426L160.78360499824188,115.75821534581269L161.01700152601967,136.8732754385958L161.25039805379743,130.0475173233225L161.4837945815752,130.51631553371308L161.717191109353,143.92923436647575L161.95058763713078,133.2384659126244L162.18398416490854,86.94418149208944L162.41738069268632,147.55210004216016L162.6507772204641,123.86889512851621L162.8841737482419,122.89077224717008L163.11757027601968,149.07053399850824L163.35096680379743,142.99703187528786L163.58436333157522,136.36016354047905L163.817759859353,119.2203419196178L164.05115638713076,136.44451750478748L164.28455291490852,144.10304827022406L164.5179494426863,112.85504176847424L164.7513459704641,129.78072125454304L164.98474249824187,127.42605502123646L165.21813902601963,119.08571694882542L165.4515355537974,108.63147178598211L165.6849320815752,137.88519540993116L165.91832860935298,107.35189396910833L166.15172513713077,127.39644579070323L166.38512166490852,126.84028470054056L166.6185181926863,115.40123110493262L166.8519147204641,118.58750147754282L167.08531124824188,139.05641053758347L167.31870777601964,81.467387785862L167.55210430379742,148.4909776516339L167.7855008315752,114.90760621202728L168.018897359353,140.35736375668296L168.25229388713075,140.91592029410793L168.48569041490853,70.91872277230487L168.71908694268632,118.55833461183502L168.9524834704641,121.65322743521959L169.1858799982419,110.8929325852183L169.41927652601964,119.74750307419546L169.65267305379743,120.70207211521324L169.8860695815752,103.36977588950019L170.119466109353,134.766853077545L170.35286263713076,136.98087650913192L170.58625916490854,130.9970367281253L170.81965569268633,107.18278123494363L171.0530522204641,117.66970714257985L171.2864487482419,144.21464523057494L171.51984527601965,114.16990444005677L171.75324180379744,125.06653529460921L171.98663833157522,142.9092182841842L172.220034859353,146.3125186827114L172.45343138713076,130.17064915515948L172.68682791490855,131.0621269562616L172.9202244426863,103.89608987370461L173.1536209704641,114.27688995576506L173.38701749824185,115.7918809783302L173.62041402601963,129.80515147801614L173.85381055379742,67.49626296893224L174.0872070815752,134.21157880365973L174.320603609353,130.70349010716572L174.55400013713074,139.1355625419399L174.78739666490853,138.31083801032253L175.0207931926863,86.19006631579376L175.2541897204641,107.31263200422366L175.48758624824185,125.94973336162002L175.72098277601964,85.8508809992582L175.95437930379742,131.4635104365558L176.1877758315752,111.48709114458536L176.421172359353,93.81126941914371L176.65456888713075,129.12199412367346L176.88796541490854,102.65765615885017L177.12136194268632,120.56150860530195L177.3547584704641,140.35200112648772L177.58815499824186,140.0254399004896L177.82155152601965,137.9603515244728L178.05494805379743,132.07120702888264L178.28834458157522,123.78160319404631L178.52174110935297,146.8156961518945L178.75513763713076,151.98269780627322L178.98853416490854,145.03247972137336L179.22193069268633,131.80364725479134L179.4553272204641,52.06971614376174L179.68872374824187,101.73855142242316L179.92212027601965,138.8379636922491L180.15551680379744,139.09634230958594L180.38891333157522,113.51240424558983L180.62230985935298,106.1677125441668L180.85570638713077,121.73084994232576L181.08910291490855,103.57678176154253L181.32249944268634,66.37260623326819L181.55589597046412,136.98655839318704L181.78929249824185,134.02987327835564L182.02268902601963,142.54374773318582L182.25608555379742,139.03273984616916L182.4894820815752,100.35907427355433L182.72287860935296,138.8129617331054L182.95627513713075,132.33586221883706L183.18967166490853,107.02786173447076L183.42306819268632,128.60986919990782L183.65646472046407,128.07697399561164L183.88986124824186,97.44899396238466L184.12325777601964,136.92470034955363L184.35665430379743,131.98324320066845L184.5900508315752,105.88953601426485L184.82344735935297,139.22770170985086L185.05684388713075,107.35985236271326L185.29024041490854,130.9180579137713L185.52363694268632,143.0591611803708L185.75703347046408,122.86943440422203L185.99042999824186,134.93772901113186L186.22382652601965,140.2555259486368L186.45722305379743,50.7084761108098L186.69061958157522,131.44982216648543L186.92401610935298,138.2555215408767L187.15741263713076,112.82705593338531L187.39080916490855,138.18678388955706L187.62420569268633,144.48699381256432L187.8576022204641,142.46269272542938L188.09099874824187,129.4398624635263L188.32439527601966,116.03849936851509L188.55779180379744,117.13449995608278L188.7911883315752,123.545301085451L189.02458485935298,63.31175880843051L189.25798138713077,91.69717453232329L189.49137791490855,115.68505821949165L189.72477444268634,133.7046245404481L189.9581709704641,144.7362476120631L190.19156749824188,113.57773234915113L190.42496402601967,138.86572417167224L190.65836055379742,93.97689748699479L190.89175708157518,131.6294556716402L191.12515360935296,149.27060183732135L191.35855013713075,127.63870730468282L191.59194666490853,142.19335514553018L191.8253431926863,125.19968293381473L192.05873972046408,101.70166403853544L192.29213624824186,121.24774582041044L192.52553277601965,103.07360846561251L192.75892930379743,111.67888133593367L192.9923258315752,125.70920374766456L193.22572235935297,128.16975375786888L193.45911888713076,130.70369876981923L193.69251541490854,118.18426924613853L193.9259119426863,133.9720299041758L194.15930847046408,131.73909537630112L194.39270499824187,103.0718849120945L194.62610152601965,91.75634291435294L194.85949805379744,103.43199491952417L195.0928945815752,113.49231420530978L195.32629110935298,130.63958925615444L195.55968763713076,90.87830716139L195.79308416490855,132.61996059484568L196.0264806926863,147.85950603656596L196.2598772204641,120.213801505997L196.49327374824188,117.79363189250017L196.72667027601966,86.95289524450008L196.96006680379742,126.95332143320066L197.1934633315752,50.89643108258656L197.426859859353,140.11839285274925L197.66025638713077,132.89692688135725L197.89365291490856,141.6387214659912L198.1270494426863,110.82076034662185L198.3604459704641,107.28146197704216L198.59384249824188,123.38309091186446L198.82723902601967,110.05827362466728L199.06063555379743,136.23683556574775L199.2940320815752,143.709932004262L199.52742860935297,103.39841275206807L199.76082513713075,140.39249420102811L199.99422166490854,130.9562473526169L200.2276181926863,123.21800119365945L200.46101472046408,87.96168736265928L200.69441124824186,120.52457531563047L200.92780777601965,117.72766528121915L201.1612043037974,106.49400668196844L201.3946008315752,136.58836953811812L201.62799735935297,124.03176467608786L201.86139388713076,132.17064730303997L202.09479041490852,124.30861411151348L202.3281869426863,119.5793251487185L202.5615834704641,114.10251057622571L202.79497999824187,147.40590681385714L203.02837652601966,118.26778438657985L203.2617730537974,140.71525150685272L203.4951695815752,118.24598331254101L203.72856610935298,121.8014697307801L203.96196263713077,87.47077091099649L204.19535916490852,139.83438837493472L204.4287556926863,129.8473305467969L204.6621522204641,119.42584959380792L204.89554874824188,138.2580046264535L205.12894527601966,142.0833565411052L205.36234180379742,136.48550093656362L205.5957383315752,142.5865465300475L205.829134859353,141.76348086652555L206.06253138713078,135.11730409074363L206.29592791490853,94.02572454791641L206.52932444268632,140.67194774636954L206.7627209704641,104.71206935351331L206.9961174982419,136.7463146470669L207.22951402601964,125.07658866125539L207.46291055379743,54.2332390399459L207.6963070815752,118.37705684497061L207.929703609353,138.25884136369407L208.16310013713078,142.3102020582434L208.3964966649085,114.81649575099813L208.6298931926863,122.59654955921312L208.86328972046408,130.20055885991377L209.09668624824187,110.29132059586783L209.33008277601962,142.13208970383275L209.5634793037974,119.04907161361578L209.7968758315752,115.77490001158745L210.03027235935298,143.00550149239388L210.26366888713076,127.76716003418431L210.49706541490852,116.57816358929117L210.7304619426863,118.35839405724059L210.9638584704641,145.91852186035152L211.19725499824187,129.38115731258748L211.43065152601963,111.30485770276788L211.66404805379742,115.75465138769073L211.8974445815752,119.57495992600704L212.13084110935299,145.30340313743926L212.36423763713074,137.7146846359879L212.59763416490853,149.67679499177896L212.8310306926863,114.40183715268756L213.0644272204641,105.50664004507176L213.29782374824188,107.58930616302034L213.53122027601964,80.51746357551139L213.76461680379742,72.5615822689417L213.9980133315752,116.43111484410875L214.231409859353,146.35655693573494L214.46480638713075,117.402351857889L214.69820291490853,130.97129610318817L214.93159944268632,127.4817345636994L215.1649959704641,86.23501225136008L215.3983924982419,131.63322829241565L215.63178902601965,122.57071294945536L215.86518555379743,137.7815693629444L216.09858208157522,127.01164264485703L216.331978609353,114.56296228047586L216.56537513713076,133.35680267668369L216.79877166490854,93.58216617209453L217.03216819268633,106.43436254908879L217.26556472046408,111.15293042474636L217.49896124824184,130.30027874202676L217.73235777601963,110.4608590018457L217.9657543037974,118.29721416723109L218.1991508315752,150.9599471999074L218.43254735935298,100.7782483316869L218.66594388713074,112.33406120169356L218.89934041490852,127.79132316946092L219.1327369426863,120.85101551728957L219.3661334704641,121.62476584928066L219.59952999824185,141.3246361800465L219.83292652601963,134.85142613763963L220.06632305379742,124.84549894574478L220.2997195815752,128.29339889983348L220.533116109353,88.86208340557248L220.76651263713075,38.81772629589307L220.99990916490853,125.31637126291128L221.23330569268632,99.33592616483357L221.4667022204641,129.51434251107062L221.70009874824186,132.62678803686856L221.93349527601964,135.74278708765578L222.16689180379743,136.9403750880854L222.4002883315752,149.86572441814764L222.63368485935297,135.84299941363108L222.86708138713075,147.28189025236927L223.10047791490854,83.69662272488992L223.33387444268632,135.98007617060222L223.5672709704641,149.43912822942968L223.80066749824186,145.3619601378941L224.03406402601965,139.9334760092076L224.26746055379743,96.20483871757094L224.50085708157522,105.45322240577289L224.73425360935298,143.35616951475214L224.96765013713076,143.30834612119392L225.20104666490855,133.29219654590355L225.43444319268633,142.92486798319754L225.66783972046412,137.29176090997177L225.90123624824187,128.42092099390032L226.13463277601963,124.29535568650937L226.3680293037974,151.89276628923642L226.6014258315752,105.79348024834749L226.83482235935296,132.15848227034024L227.06821888713074,115.00573191146745L227.30161541490853,125.53368507003707L227.5350119426863,124.09182613427453L227.76840847046407,142.0938522725768L228.00180499824185,123.38924228688995L228.23520152601964,136.96992380644912L228.46859805379742,122.07753459462852L228.7019945815752,122.03387402100782L228.93539110935296,132.30371565043714L229.16878763713075,130.38344750246327L229.40218416490853,131.46676140069746L229.63558069268632,123.48634971258102L229.86897722046407,120.57944942025085L230.10237374824186,101.51746499452189L230.33577027601964,63.40376234561667L230.56916680379743,106.34651139870749L230.8025633315752,106.67929494503333L231.03595985935297,123.15461782602888L231.26935638713076,146.09840367406395L231.50275291490854,133.40477004747285L231.73614944268633,144.68924634935968L231.96954597046408,97.04734339389398L232.20294249824187,135.18792179257142L232.43633902601965,129.48374004630665L232.66973555379744,102.2501880755796L232.9031320815752,137.11155149589334L233.13652860935298,145.93471825551705L233.36992513713076,131.4359794860515L233.60332166490855,145.6809531694494L233.83671819268633,121.01638067019721L234.0701147204641,127.2741611292395L234.30351124824188,122.78656194475352L234.53690777601966,125.65318199844987L234.77030430379745,139.25460875902112L235.00370083157517,140.77999535498418L235.23709735935296,103.58712725590362" style="fill: none;" fill="none"></path></g></g></g></g></g></g><g transform="translate(64, 177)" clip-path="url(#clip_1)"><clipPath id="clip_1"><rect width="266" height="23"></rect></clipPath><g><g><line x1="13.43259712787152" y1="0" x2="13.43259712787152" y2="5" style="visibility: inherit;" fill="rgb(0, 0, 0)" stroke="rgb(204, 204, 204)" stroke-width="1px"></line><line x1="52.332018424167806" y1="0" x2="52.332018424167806" y2="5" style="visibility: inherit;" fill="rgb(0, 0, 0)" stroke="rgb(204, 204, 204)" stroke-width="1px"></line><line x1="91.2314397204641" y1="0" x2="91.2314397204641" y2="5" style="visibility: inherit;" fill="rgb(0, 0, 0)" stroke="rgb(204, 204, 204)" stroke-width="1px"></line><line x1="130.1308610167604" y1="0" x2="130.1308610167604" y2="5" style="visibility: inherit;" fill="rgb(0, 0, 0)" stroke="rgb(204, 204, 204)" stroke-width="1px"></line><line x1="169.0302823130567" y1="0" x2="169.0302823130567" y2="5" style="visibility: inherit;" fill="rgb(0, 0, 0)" stroke="rgb(204, 204, 204)" stroke-width="1px"></line><line x1="207.929703609353" y1="0" x2="207.929703609353" y2="5" style="visibility: inherit;" fill="rgb(0, 0, 0)" stroke="rgb(204, 204, 204)" stroke-width="1px"></line><line x1="246.82912490564928" y1="0" x2="246.82912490564928" y2="5" style="visibility: inherit;" fill="rgb(0, 0, 0)" stroke="rgb(204, 204, 204)" stroke-width="1px"></line></g><g transform="translate(0, 8)"><text x="13.43259712787152" y="0" dx="0em" dy="0.95em" style="text-anchor: middle; visibility: inherit; font-family: &quot;Helvetica Neue&quot;, sans-serif; font-size: 12px; font-weight: 200;" fill="rgb(50, 49, 63)" stroke="none" stroke-width="1px">0</text><text x="52.332018424167806" y="0" dx="0em" dy="0.95em" style="text-anchor: middle; visibility: inherit; font-family: &quot;Helvetica Neue&quot;, sans-serif; font-size: 12px; font-weight: 200;" fill="rgb(50, 49, 63)" stroke="none" stroke-width="1px">50k</text><text x="91.2314397204641" y="0" dx="0em" dy="0.95em" style="text-anchor: middle; visibility: inherit; font-family: &quot;Helvetica Neue&quot;, sans-serif; font-size: 12px; font-weight: 200;" fill="rgb(50, 49, 63)" stroke="none" stroke-width="1px">100k</text><text x="130.1308610167604" y="0" dx="0em" dy="0.95em" style="text-anchor: middle; visibility: inherit; font-family: &quot;Helvetica Neue&quot;, sans-serif; font-size: 12px; font-weight: 200;" fill="rgb(50, 49, 63)" stroke="none" stroke-width="1px">150k</text><text x="169.0302823130567" y="0" dx="0em" dy="0.95em" style="text-anchor: middle; visibility: inherit; font-family: &quot;Helvetica Neue&quot;, sans-serif; font-size: 12px; font-weight: 200;" fill="rgb(50, 49, 63)" stroke="none" stroke-width="1px">200k</text><text x="207.929703609353" y="0" dx="0em" dy="0.95em" style="text-anchor: middle; visibility: inherit; font-family: &quot;Helvetica Neue&quot;, sans-serif; font-size: 12px; font-weight: 200;" fill="rgb(50, 49, 63)" stroke="none" stroke-width="1px">250k</text><text x="246.82912490564928" y="0" dx="0em" dy="0.95em" style="text-anchor: middle; visibility: inherit; font-family: &quot;Helvetica Neue&quot;, sans-serif; font-size: 12px; font-weight: 200;" fill="rgb(50, 49, 63)" stroke="none" stroke-width="1px">300k</text></g><line x1="0" y1="0" x2="266" y2="0" fill="rgb(0, 0, 0)" stroke="rgb(204, 204, 204)" stroke-width="1px"></line></g></g></g></g></svg>