<svg viewBox="0 0 330 200" xmlns="http://www.w3.org/2000/svg"><g><g><g><g><g><line x1="46" y1="155.87007619502722" x2="41" y2="155.87007619502722" style="visibility: inherit;" fill="rgb(0, 0, 0)" stroke="rgb(204, 204, 204)" stroke-width="1px"></line><line x1="46" y1="130.71641332981608" x2="41" y2="130.71641332981608" style="visibility: inherit;" fill="rgb(0, 0, 0)" stroke="rgb(204, 204, 204)" stroke-width="1px"></line><line x1="46" y1="105.56275046460493" x2="41" y2="105.56275046460493" style="visibility: inherit;" fill="rgb(0, 0, 0)" stroke="rgb(204, 204, 204)" stroke-width="1px"></line><line x1="46" y1="80.40908759939377" x2="41" y2="80.40908759939377" style="visibility: inherit;" fill="rgb(0, 0, 0)" stroke="rgb(204, 204, 204)" stroke-width="1px"></line><line x1="46" y1="55.255424734182625" x2="41" y2="55.255424734182625" style="visibility: inherit;" fill="rgb(0, 0, 0)" stroke="rgb(204, 204, 204)" stroke-width="1px"></line><line x1="46" y1="30.101761868971494" x2="41" y2="30.101761868971494" style="visibility: inherit;" fill="rgb(0, 0, 0)" stroke="rgb(204, 204, 204)" stroke-width="1px"></line><line x1="46" y1="4.948099003760348" x2="41" y2="4.948099003760348" style="visibility: inherit;" fill="rgb(0, 0, 0)" stroke="rgb(204, 204, 204)" stroke-width="1px"></line></g><g transform="translate(36, 0)"><text x="0" y="155.87007619502722" dx="0em" dy="0.3em" style="text-anchor: end; visibility: inherit; font-family: &quot;Helvetica Neue&quot;, sans-serif; font-size: 12px; font-weight: 200;" fill="rgb(50, 49, 63)" stroke="none" stroke-width="1px">0.05</text><text x="0" y="130.71641332981608" dx="0em" dy="0.3em" style="text-anchor: end; visibility: inherit; font-family: &quot;Helvetica Neue&quot;, sans-serif; font-size: 12px; font-weight: 200;" fill="rgb(50, 49, 63)" stroke="none" stroke-width="1px">0.1</text><text x="0" y="105.56275046460493" dx="0em" dy="0.3em" style="text-anchor: end; visibility: inherit; font-family: &quot;Helvetica Neue&quot;, sans-serif; font-size: 12px; font-weight: 200;" fill="rgb(50, 49, 63)" stroke="none" stroke-width="1px">0.15</text><text x="0" y="80.40908759939377" dx="0em" dy="0.3em" style="text-anchor: end; visibility: inherit; font-family: &quot;Helvetica Neue&quot;, sans-serif; font-size: 12px; font-weight: 200;" fill="rgb(50, 49, 63)" stroke="none" stroke-width="1px">0.2</text><text x="0" y="55.255424734182625" dx="0em" dy="0.3em" style="text-anchor: end; visibility: inherit; font-family: &quot;Helvetica Neue&quot;, sans-serif; font-size: 12px; font-weight: 200;" fill="rgb(50, 49, 63)" stroke="none" stroke-width="1px">0.25</text><text x="0" y="30.101761868971494" dx="0em" dy="0.3em" style="text-anchor: end; visibility: inherit; font-family: &quot;Helvetica Neue&quot;, sans-serif; font-size: 12px; font-weight: 200;" fill="rgb(50, 49, 63)" stroke="none" stroke-width="1px">0.3</text><text x="0" y="4.948099003760348" dx="0em" dy="0.3em" style="text-anchor: end; visibility: hidden; font-family: &quot;Helvetica Neue&quot;, sans-serif; font-size: 12px; font-weight: 200;" fill="rgb(50, 49, 63)" stroke="none" stroke-width="1px">0.35</text></g><line x1="46" y1="0" x2="46" y2="177" fill="rgb(0, 0, 0)" stroke="rgb(204, 204, 204)" stroke-width="1px"></line></g></g><g transform="translate(46, 0)" clip-path="url(#clip_0)"><clipPath id="clip_0"><rect width="284" height="177"></rect></clipPath><g><g><g><line x1="39.90431223386486" y1="0" x2="39.90431223386486" y2="177" fill="rgb(0, 0, 0)" stroke="rgb(60, 60, 60)" stroke-width="1px" opacity="0.25"></line><line x1="84.53844595531292" y1="0" x2="84.53844595531292" y2="177" fill="rgb(0, 0, 0)" stroke="rgb(60, 60, 60)" stroke-width="1px" opacity="0.25"></line><line x1="129.172579676761" y1="0" x2="129.172579676761" y2="177" fill="rgb(0, 0, 0)" stroke="rgb(60, 60, 60)" stroke-width="1px" opacity="0.25"></line><line x1="173.80671339820907" y1="0" x2="173.80671339820907" y2="177" fill="rgb(0, 0, 0)" stroke="rgb(60, 60, 60)" stroke-width="1px" opacity="0.25"></line><line x1="218.44084711965715" y1="0" x2="218.44084711965715" y2="177" fill="rgb(0, 0, 0)" stroke="rgb(60, 60, 60)" stroke-width="1px" opacity="0.25"></line><line x1="263.07498084110523" y1="0" x2="263.07498084110523" y2="177" fill="rgb(0, 0, 0)" stroke="rgb(60, 60, 60)" stroke-width="1px" opacity="0.25"></line></g><g><line x1="0" y1="155.87007619502722" x2="284" y2="155.87007619502722" fill="rgb(0, 0, 0)" stroke="rgb(60, 60, 60)" stroke-width="1px" opacity="0.25"></line><line x1="0" y1="130.71641332981608" x2="284" y2="130.71641332981608" fill="rgb(0, 0, 0)" stroke="rgb(60, 60, 60)" stroke-width="1px" opacity="0.25"></line><line x1="0" y1="105.56275046460493" x2="284" y2="105.56275046460493" fill="rgb(0, 0, 0)" stroke="rgb(60, 60, 60)" stroke-width="1px" opacity="0.25"></line><line x1="0" y1="80.40908759939377" x2="284" y2="80.40908759939377" fill="rgb(0, 0, 0)" stroke="rgb(60, 60, 60)" stroke-width="1px" opacity="0.25"></line><line x1="0" y1="55.255424734182625" x2="284" y2="55.255424734182625" fill="rgb(0, 0, 0)" stroke="rgb(60, 60, 60)" stroke-width="1px" opacity="0.25"></line><line x1="0" y1="30.101761868971494" x2="284" y2="30.101761868971494" fill="rgb(0, 0, 0)" stroke="rgb(60, 60, 60)" stroke-width="1px" opacity="0.25"></line><line x1="0" y1="4.948099003760348" x2="284" y2="4.948099003760348" fill="rgb(0, 0, 0)" stroke="rgb(60, 60, 60)" stroke-width="1px" opacity="0.25"></line></g></g></g><g><g><line x1="0" y1="181.02373906023837" x2="284" y2="181.02373906023837" fill="rgb(0, 0, 0)" stroke="rgb(153, 153, 153)" stroke-width="1.5px"></line></g></g><g><g><line x1="39.90431223386486" y1="0" x2="39.90431223386486" y2="177" fill="rgb(0, 0, 0)" stroke="rgb(153, 153, 153)" stroke-width="1.5px"></line></g></g><g><g><g><g><g><path stroke="rgb(204, 51, 17)" stroke-width="2px" d="M43.42683806716154,145.32176627559315L46.7297639625487,149.81295629626558L50.121958125378754,142.72182202664573L51.81805520679377,148.0766388267116L55.21024936962383,148.52617871695435L63.69073477669897,145.59093588952246L68.77902602094404,145.34437651588746L72.17122018377411,148.29666681013362L84.04389975367928,154.49066000622742L87.43609391650935,153.52445479987384L87.43609391650935,153.44329356255693L160.1897318824697,134.1119729328848L163.58192604529975,138.4341411007302L166.9741202081298,132.85120412609373L170.36631437095986,129.40923615318655L175.45460561520494,124.66061065957575L178.846799778035,125.74822503496128L182.23899394086504,130.29908482638027L185.6311881036951,130.68135704885947L189.02338226652515,118.8214662807368L192.4155764293552,113.36573183898786L197.50386767360027,98.0424472440323L200.89606183643033,78.91729060250971L204.28825599926037,60.95927562592435L207.68045016209044,41.61279476566469L211.0726443249205,29.58218422210075L214.46483848775057,28.57161293644137L217.8570326505806,21.0542303642018L222.9453238948257,26.368765895529037L226.33751805765573,7.490687227765363L229.7297122204858,19.283432604673038L233.12190638331583,26.220018883728613" style="fill: none;" fill="none"></path></g><g><path stroke="rgb(0, 119, 187)" stroke-width="2px" d="M43.42683806716154,128.31040956938838L43.42683806716154,128.31040956938838" style="fill: none;" fill="none"></path></g></g></g></g><g opacity="0.2"><g><g><g><path stroke="rgb(204, 51, 17)" stroke-width="2px" d="M43.42683806716154,145.32176627559315L46.7297639625487,150.19021625800207L50.121958125378754,142.07613170459123L51.81805520679377,148.56740084659504L55.21024936962383,148.56740084659504L63.69073477669897,145.32176627559315L68.77902602094404,145.32176627559315L72.17122018377411,148.56740084659504L84.04389975367928,155.05866811450494L87.43609391650935,153.43585082900398L87.43609391650935,153.43585082900398L160.1897318824697,132.33923173977337L163.58192604529975,138.83049713358935L166.9741202081298,132.33923173977337L170.36631437095986,129.09359716877148L175.45460561520494,124.22514718636256L178.846799778035,125.84796259776958L182.23899394086504,130.7164125801785L185.6311881036951,130.7164125801785L189.02338226652515,117.73387804435875L192.4155764293552,112.86542431376196L197.50386767360027,96.63725520694031L200.89606183643033,77.16345527730459L204.28825599926037,59.31247075907591L207.68045016209044,39.83866333306449L211.0726443249205,28.47894046046389L214.46483848775057,28.47894046046389L217.8570326505806,20.364863403428757L222.9453238948257,26.856125049056885L226.33751805765573,5.7595097080141215L229.7297122204858,20.364863403428757L233.12190638331583,26.856125049056885" style="fill: none;" fill="none"></path></g><g><path stroke="rgb(0, 119, 187)" stroke-width="2px" d="M43.42683806716154,128.31040956938838L43.42683806716154,128.31040956938838" style="fill: none;" fill="none"></path></g></g></g></g></g></g><g transform="translate(46, 177)" clip-path="url(#clip_1)"><clipPath id="clip_1"><rect width="284" height="23"></rect></clipPath><g><g><line x1="39.90431223386486" y1="0" x2="39.90431223386486" y2="5" style="visibility: inherit;" fill="rgb(0, 0, 0)" stroke="rgb(204, 204, 204)" stroke-width="1px"></line><line x1="84.53844595531292" y1="0" x2="84.53844595531292" y2="5" style="visibility: inherit;" fill="rgb(0, 0, 0)" stroke="rgb(204, 204, 204)" stroke-width="1px"></line><line x1="129.172579676761" y1="0" x2="129.172579676761" y2="5" style="visibility: inherit;" fill="rgb(0, 0, 0)" stroke="rgb(204, 204, 204)" stroke-width="1px"></line><line x1="173.80671339820907" y1="0" x2="173.80671339820907" y2="5" style="visibility: inherit;" fill="rgb(0, 0, 0)" stroke="rgb(204, 204, 204)" stroke-width="1px"></line><line x1="218.44084711965715" y1="0" x2="218.44084711965715" y2="5" style="visibility: inherit;" fill="rgb(0, 0, 0)" stroke="rgb(204, 204, 204)" stroke-width="1px"></line><line x1="263.07498084110523" y1="0" x2="263.07498084110523" y2="5" style="visibility: inherit;" fill="rgb(0, 0, 0)" stroke="rgb(204, 204, 204)" stroke-width="1px"></line></g><g transform="translate(0, 8)"><text x="39.90431223386486" y="0" dx="0em" dy="0.95em" style="text-anchor: middle; visibility: inherit; font-family: &quot;Helvetica Neue&quot;, sans-serif; font-size: 12px; font-weight: 200;" fill="rgb(50, 49, 63)" stroke="none" stroke-width="1px">0</text><text x="84.53844595531292" y="0" dx="0em" dy="0.95em" style="text-anchor: middle; visibility: inherit; font-family: &quot;Helvetica Neue&quot;, sans-serif; font-size: 12px; font-weight: 200;" fill="rgb(50, 49, 63)" stroke="none" stroke-width="1px">50k</text><text x="129.172579676761" y="0" dx="0em" dy="0.95em" style="text-anchor: middle; visibility: inherit; font-family: &quot;Helvetica Neue&quot;, sans-serif; font-size: 12px; font-weight: 200;" fill="rgb(50, 49, 63)" stroke="none" stroke-width="1px">100k</text><text x="173.80671339820907" y="0" dx="0em" dy="0.95em" style="text-anchor: middle; visibility: inherit; font-family: &quot;Helvetica Neue&quot;, sans-serif; font-size: 12px; font-weight: 200;" fill="rgb(50, 49, 63)" stroke="none" stroke-width="1px">150k</text><text x="218.44084711965715" y="0" dx="0em" dy="0.95em" style="text-anchor: middle; visibility: inherit; font-family: &quot;Helvetica Neue&quot;, sans-serif; font-size: 12px; font-weight: 200;" fill="rgb(50, 49, 63)" stroke="none" stroke-width="1px">200k</text><text x="263.07498084110523" y="0" dx="0em" dy="0.95em" style="text-anchor: middle; visibility: inherit; font-family: &quot;Helvetica Neue&quot;, sans-serif; font-size: 12px; font-weight: 200;" fill="rgb(50, 49, 63)" stroke="none" stroke-width="1px">250k</text></g><line x1="0" y1="0" x2="284" y2="0" fill="rgb(0, 0, 0)" stroke="rgb(204, 204, 204)" stroke-width="1px"></line></g></g></g></g></svg>