<svg viewBox="0 0 330 200" xmlns="http://www.w3.org/2000/svg"><g><g><g><g><g><line x1="37" y1="155.69421964033458" x2="32" y2="155.69421964033458" style="visibility: inherit;" fill="rgb(0, 0, 0)" stroke="rgb(204, 204, 204)" stroke-width="1px"></line><line x1="37" y1="134.15253679279792" x2="32" y2="134.15253679279792" style="visibility: inherit;" fill="rgb(0, 0, 0)" stroke="rgb(204, 204, 204)" stroke-width="1px"></line><line x1="37" y1="112.61085394526125" x2="32" y2="112.61085394526125" style="visibility: inherit;" fill="rgb(0, 0, 0)" stroke="rgb(204, 204, 204)" stroke-width="1px"></line><line x1="37" y1="91.06917109772459" x2="32" y2="91.06917109772459" style="visibility: inherit;" fill="rgb(0, 0, 0)" stroke="rgb(204, 204, 204)" stroke-width="1px"></line><line x1="37" y1="69.52748825018794" x2="32" y2="69.52748825018794" style="visibility: inherit;" fill="rgb(0, 0, 0)" stroke="rgb(204, 204, 204)" stroke-width="1px"></line><line x1="37" y1="47.985805402651266" x2="32" y2="47.985805402651266" style="visibility: inherit;" fill="rgb(0, 0, 0)" stroke="rgb(204, 204, 204)" stroke-width="1px"></line><line x1="37" y1="26.444122555114603" x2="32" y2="26.444122555114603" style="visibility: inherit;" fill="rgb(0, 0, 0)" stroke="rgb(204, 204, 204)" stroke-width="1px"></line><line x1="37" y1="4.902439707577969" x2="32" y2="4.902439707577969" style="visibility: inherit;" fill="rgb(0, 0, 0)" stroke="rgb(204, 204, 204)" stroke-width="1px"></line></g><g transform="translate(27, 0)"><text x="0" y="155.69421964033458" dx="0em" dy="0.3em" style="text-anchor: end; visibility: inherit; font-family: &quot;Helvetica Neue&quot;, sans-serif; font-size: 12px; font-weight: 200;" fill="rgb(50, 49, 63)" stroke="none" stroke-width="1px">100</text><text x="0" y="134.15253679279792" dx="0em" dy="0.3em" style="text-anchor: end; visibility: hidden; font-family: &quot;Helvetica Neue&quot;, sans-serif; font-size: 12px; font-weight: 200;" fill="rgb(50, 49, 63)" stroke="none" stroke-width="1px">200</text><text x="0" y="112.61085394526125" dx="0em" dy="0.3em" style="text-anchor: end; visibility: inherit; font-family: &quot;Helvetica Neue&quot;, sans-serif; font-size: 12px; font-weight: 200;" fill="rgb(50, 49, 63)" stroke="none" stroke-width="1px">300</text><text x="0" y="91.06917109772459" dx="0em" dy="0.3em" style="text-anchor: end; visibility: hidden; font-family: &quot;Helvetica Neue&quot;, sans-serif; font-size: 12px; font-weight: 200;" fill="rgb(50, 49, 63)" stroke="none" stroke-width="1px">400</text><text x="0" y="69.52748825018794" dx="0em" dy="0.3em" style="text-anchor: end; visibility: inherit; font-family: &quot;Helvetica Neue&quot;, sans-serif; font-size: 12px; font-weight: 200;" fill="rgb(50, 49, 63)" stroke="none" stroke-width="1px">500</text><text x="0" y="47.985805402651266" dx="0em" dy="0.3em" style="text-anchor: end; visibility: hidden; font-family: &quot;Helvetica Neue&quot;, sans-serif; font-size: 12px; font-weight: 200;" fill="rgb(50, 49, 63)" stroke="none" stroke-width="1px">600</text><text x="0" y="26.444122555114603" dx="0em" dy="0.3em" style="text-anchor: end; visibility: inherit; font-family: &quot;Helvetica Neue&quot;, sans-serif; font-size: 12px; font-weight: 200;" fill="rgb(50, 49, 63)" stroke="none" stroke-width="1px">700</text><text x="0" y="4.902439707577969" dx="0em" dy="0.3em" style="text-anchor: end; visibility: hidden; font-family: &quot;Helvetica Neue&quot;, sans-serif; font-size: 12px; font-weight: 200;" fill="rgb(50, 49, 63)" stroke="none" stroke-width="1px">800</text></g><line x1="37" y1="0" x2="37" y2="177" fill="rgb(0, 0, 0)" stroke="rgb(204, 204, 204)" stroke-width="1px"></line></g></g><g transform="translate(37, 0)" clip-path="url(#clip_0)"><clipPath id="clip_0"><rect width="293" height="177"></rect></clipPath><g><g><g><line x1="25.362468856830212" y1="0" x2="25.362468856830212" y2="177" fill="rgb(0, 0, 0)" stroke="rgb(60, 60, 60)" stroke-width="1px" opacity="0.25"></line><line x1="51.41496577111556" y1="0" x2="51.41496577111556" y2="177" fill="rgb(0, 0, 0)" stroke="rgb(60, 60, 60)" stroke-width="1px" opacity="0.25"></line><line x1="77.4674626854009" y1="0" x2="77.4674626854009" y2="177" fill="rgb(0, 0, 0)" stroke="rgb(60, 60, 60)" stroke-width="1px" opacity="0.25"></line><line x1="103.51995959968626" y1="0" x2="103.51995959968626" y2="177" fill="rgb(0, 0, 0)" stroke="rgb(60, 60, 60)" stroke-width="1px" opacity="0.25"></line><line x1="129.57245651397162" y1="0" x2="129.57245651397162" y2="177" fill="rgb(0, 0, 0)" stroke="rgb(60, 60, 60)" stroke-width="1px" opacity="0.25"></line><line x1="155.62495342825696" y1="0" x2="155.62495342825696" y2="177" fill="rgb(0, 0, 0)" stroke="rgb(60, 60, 60)" stroke-width="1px" opacity="0.25"></line><line x1="181.6774503425423" y1="0" x2="181.6774503425423" y2="177" fill="rgb(0, 0, 0)" stroke="rgb(60, 60, 60)" stroke-width="1px" opacity="0.25"></line><line x1="207.72994725682764" y1="0" x2="207.72994725682764" y2="177" fill="rgb(0, 0, 0)" stroke="rgb(60, 60, 60)" stroke-width="1px" opacity="0.25"></line><line x1="233.78244417111299" y1="0" x2="233.78244417111299" y2="177" fill="rgb(0, 0, 0)" stroke="rgb(60, 60, 60)" stroke-width="1px" opacity="0.25"></line><line x1="259.8349410853983" y1="0" x2="259.8349410853983" y2="177" fill="rgb(0, 0, 0)" stroke="rgb(60, 60, 60)" stroke-width="1px" opacity="0.25"></line><line x1="285.8874379996837" y1="0" x2="285.8874379996837" y2="177" fill="rgb(0, 0, 0)" stroke="rgb(60, 60, 60)" stroke-width="1px" opacity="0.25"></line></g><g><line x1="0" y1="155.69421964033458" x2="293" y2="155.69421964033458" fill="rgb(0, 0, 0)" stroke="rgb(60, 60, 60)" stroke-width="1px" opacity="0.25"></line><line x1="0" y1="134.15253679279792" x2="293" y2="134.15253679279792" fill="rgb(0, 0, 0)" stroke="rgb(60, 60, 60)" stroke-width="1px" opacity="0.25"></line><line x1="0" y1="112.61085394526125" x2="293" y2="112.61085394526125" fill="rgb(0, 0, 0)" stroke="rgb(60, 60, 60)" stroke-width="1px" opacity="0.25"></line><line x1="0" y1="91.06917109772459" x2="293" y2="91.06917109772459" fill="rgb(0, 0, 0)" stroke="rgb(60, 60, 60)" stroke-width="1px" opacity="0.25"></line><line x1="0" y1="69.52748825018794" x2="293" y2="69.52748825018794" fill="rgb(0, 0, 0)" stroke="rgb(60, 60, 60)" stroke-width="1px" opacity="0.25"></line><line x1="0" y1="47.985805402651266" x2="293" y2="47.985805402651266" fill="rgb(0, 0, 0)" stroke="rgb(60, 60, 60)" stroke-width="1px" opacity="0.25"></line><line x1="0" y1="26.444122555114603" x2="293" y2="26.444122555114603" fill="rgb(0, 0, 0)" stroke="rgb(60, 60, 60)" stroke-width="1px" opacity="0.25"></line><line x1="0" y1="4.902439707577969" x2="293" y2="4.902439707577969" fill="rgb(0, 0, 0)" stroke="rgb(60, 60, 60)" stroke-width="1px" opacity="0.25"></line></g></g></g><g><g><line x1="0" y1="177.23590248787124" x2="293" y2="177.23590248787124" fill="rgb(0, 0, 0)" stroke="rgb(153, 153, 153)" stroke-width="1.5px"></line></g></g><g><g><line x1="51.41496577111556" y1="0" x2="51.41496577111556" y2="177" fill="rgb(0, 0, 0)" stroke="rgb(153, 153, 153)" stroke-width="1.5px"></line></g></g><g><g><g><g><g><path stroke="rgb(255, 112, 67)" stroke-width="2px" d="M51.416268395961275,-44.97570709231968L51.5465308805327,86.55635761355109L51.67679336510413,65.79548996520866L51.80705584967556,166.58836507767347L51.93731833424698,123.00641531030669L52.067580818818406,166.1482319798891L52.19784330338983,170.59444080797948L52.328105787961256,115.41768190040025L52.458368272532695,166.15043944973513L52.58863075710412,143.82836086868963L52.718893241675545,88.46138218284791L52.84915572624697,165.7092136322799L52.979418210818395,159.6346559020708L53.10968069538983,162.96564109626607L53.23994317996125,172.01891469976613L53.370205664532676,166.7857695549385L53.5004681491041,149.1488910801079L53.630730633675526,165.32671951153438L53.76099311824695,166.25499918668922L53.8834398537441,120.18550667139748L54.013702338315525,147.3088587341082L54.14396482288695,141.01704701201936L54.274227307458375,173.35799143042973L54.4044897920298,124.92060930709351L54.53475227660123,153.5794072858424L54.665014761172664,160.36286447550626L54.79527724574409,151.52305657345866L54.92553973031551,173.17016038978335L55.05580221488694,166.83802718428942L55.18606469945836,147.8621328855386L55.316327184029795,150.83378352076343L55.44658966860122,54.28555545364391L55.576852153172645,157.4566191950623L55.70711463774407,169.21598118790897L55.837377122315495,170.6475177705983L55.96763960688693,161.28703452797637L56.09790209145836,142.39819219889526L56.22816457602978,145.54365357331753L56.35842706060121,127.77188263078028L56.48868954517263,153.35341712804376L56.61895202974406,110.78443348664874L56.68538589687549,152.26807281991097L57.07617335058977,163.08260563762565L57.466960804304044,148.51513495865072L57.85774825801833,150.94412034960826L58.24853571173261,155.74587148812319L58.63932316544689,157.95501073759556L59.030110619161164,163.5997326444407L59.42089807287545,163.42239869962208L59.81168552658973,149.79676764702253L60.20247298030401,145.3524890083879L60.59326043401829,157.9374006329616L60.98404788773257,157.5394802331282L61.37483534144685,159.37955133687225L61.76562279516113,152.24949967687752L62.15641024887541,153.7292071562955L62.54719770258969,159.53385884763003L62.93798515630397,142.00567313107518L63.328772610018255,149.0318752665461L63.71956006373253,152.3139623743749L64.11034751744681,142.92091142232672L64.5011349711611,149.16330530090084L64.89192242487537,144.50053093774875L65.28270987858964,129.32170414066732L65.67349733230394,158.2121537867409L66.06428478601822,145.66883076350567L66.45507223973249,158.4735432952624L66.84585969344678,159.5357305366287L67.23664714716105,161.4852421321044L67.62743460087533,148.6137674485997L68.01822205458961,155.00883208526264L68.4090095083039,149.25944880629578L68.79979696201818,151.76985836696514L69.19058441573246,156.98659853111965L69.58137186944673,139.89065256616036L69.97215932316102,151.63138032334894L70.36294677687529,165.5139406849166L70.75373423058957,166.0164604369334L71.14452168430385,154.1460730929881L71.53530913801814,156.67252950202706L71.92609659173242,150.35513612263605L72.3168840454467,153.63214609446027L72.70767149916098,150.22732320677892L73.09845895287526,165.71749679393645L73.48924640658953,153.8157232812978L73.88003386030381,154.3865304179521L74.27082131401811,161.70870981762405L74.66160876773237,122.66649939098534L75.05239622144666,156.62283346013723L75.44318367516094,159.53852759653225L75.83397112887522,159.35533874472202L76.22475858258949,166.41323949810038L76.61554603630377,157.0574081479683L77.00633349001806,161.9151338987976L77.39712094373235,160.44655200597578L77.78790839744663,151.40269947832869L78.1786958511609,162.0958363918947L78.56948330487518,165.61087387148828L78.96027075858946,148.26771614726817L79.35105821230374,150.38373425093624L79.74184566601801,152.10815547097144L80.1326331197323,139.0562704965849L80.52342057344659,142.14942494751978L80.91420802716087,157.4224160334089L81.30499548087514,157.1578252199821L81.69578293458942,156.864860068845L82.0865703883037,153.39144132913876L82.477357842018,157.42641182818335L82.86814529573226,159.92428774207622L83.25893274944654,164.63312911606369L83.64972020316083,162.07287144949538L84.0405076568751,163.22133936277083L84.43129511058937,166.00900034269327L84.82208256430366,159.8580680734368L85.21287001801794,152.614925377499L85.60365747173223,154.13892244089118L85.9944449254465,151.32505873600496L86.38523237916078,146.93784685000023L86.77601983287506,143.41795784307334L87.16680728658935,156.0957027479748L87.55759474030361,154.4873080329309L87.9483821940179,154.2327151331345L88.33916964773219,153.7156123815668L88.72995710144647,159.77032826353363L89.12074455516075,159.25171257435863L89.51153200887502,160.79889981857144L89.9023194625893,163.1674494562688L90.29310691630359,159.27781859105897L90.68389437001787,149.14515444093288L91.07468182373213,144.95968925767434L91.46546927744643,158.83767486608144L91.85625673116071,142.50951848250617L92.247044184875,158.33739219334842L92.63783163858926,142.66845280077283L93.02861909230354,157.23905434719748L93.41940654601783,162.01368941527485L93.81019399973212,162.93218009636138L94.20098145344639,152.7322900053008L94.59176890716067,145.24711662427433L94.98255636087495,149.98899069137215L95.37334381458923,150.7273605047056L95.7641312683035,156.15723852498016L96.15491872201778,152.841967850538L96.54570617573206,150.6512523443587L96.93649362944636,162.9160640705585L97.32728108316063,157.17470034291648L97.71806853687491,157.34141533485757L98.10885599058919,161.78750344549337L98.49964344430347,146.17387415033573L98.89043089801774,157.37133111414303L99.28121835173202,156.09199858553265L99.6720058054463,149.3911685710585L100.0627932591606,154.61370492855218L100.45358071287488,158.8376902407399L100.84436816658915,158.04919582160937L101.23515562030343,159.87340181899742L101.62594307401771,155.14183226266928L102.016730527732,158.28407328937874L102.40751798144626,160.05742994378295L102.79830543516056,149.46980901626566L103.18909288887484,151.47718048259367L103.57988034258912,151.74183485297684L103.97066779630339,150.90867148121598L104.36145525001767,142.77566550428708L104.75224270373195,141.6736474708702L105.14303015744623,164.23060029845183L105.53381761116052,151.83963690617202L105.9246050648748,159.95074202563646L106.31539251858908,157.63839982312732L106.70617997230336,154.4866126976608L107.09696742601763,156.73583243143673L107.48775487973191,137.22868426599626L107.87854233344619,161.03653703613142L108.26932978716049,155.30965312811273L108.66011724087475,156.41345121188536L109.05090469458904,164.0956197629075L109.44169214830332,161.68386653848293L109.8324796020176,162.76618274150977L110.22326705573187,138.9381504824765L110.61405450944615,161.83273236197743L111.00484196316043,153.71089879770065L111.39562941687473,130.13584148902558L111.78641687058901,150.68481379615417L112.17720432430328,136.56168222458166L112.56799177801756,143.2857526955638L112.95877923173184,162.50799498162996L113.34956668544612,156.27834284977013L113.74035413916039,156.6951522683893L114.13114159287468,146.6597870550893L114.52192904658897,150.9108046548485L114.91271650030325,163.21663008692295L115.30350395401751,148.14662864305905L115.6942914077318,152.969651976267L116.08507886144608,141.13918603151384L116.47586631516036,149.43713754817492L116.86665376887463,160.59729029534438L117.25744122258892,161.66032191127493L117.6482286763032,151.93635987604318L118.03901613001749,160.0517093478458L118.42980358373175,156.3369434844287L118.82059103744604,116.60962494662222L119.21137849116032,156.04353953588407L119.60216594487461,158.7798708823131L119.99295339858888,147.21106937948574L120.38374085230316,152.1752992433498L120.77452830601744,160.13949828361643L120.90479079058888,156.44047412468564L121.29557824430314,146.6211800642668L121.68636569801743,156.62312358901164L122.07715315173171,154.7136283576782L122.467940605446,162.1838587010978L122.85872805916027,151.641811368632L123.24951551287455,154.2933615841182L123.64030296658883,145.40747823086352L124.03109042030312,154.82578745777886L124.42187787401738,133.45124597662968L124.81266532773166,157.63479810998598L125.20345278144595,157.48893826823917L125.59424023516024,159.4426457199719L125.98502768887451,142.34687070962443L126.37581514258879,147.12494910827894L126.76660259630307,157.72046698995356L127.15739005001736,161.12134190840024L127.54817750373162,156.87452667922557L127.9389649574459,152.5646806301887L128.3297524111602,146.26986351401223L128.72053986487447,159.10126565057942L129.11132731858874,122.49698203256108L129.50211477230303,155.6730693383084L129.89290222601733,150.7867997644352L130.2836896797316,159.84294561149972L130.6744771334459,153.51411370166295L131.06526458716016,161.56867165560746L131.45605204087443,154.15232813135435L131.84683949458872,162.82287942816208L132.237626948303,154.355324683739L132.62841440201728,156.89801887508708L133.01920185573155,156.4537973189717L133.40998930944585,155.03705750011693L133.80077676316012,165.99778422360538L134.19156421687438,157.27941497959674L134.58235167058868,137.91737705488066L134.97313912430295,155.03914833574237L135.36392657801724,165.53369839853394L135.7547140317315,146.31064474797458L136.1455014854458,159.57310939325498L136.53628893916007,148.79404772193806L136.92707639287437,151.90446644919209L137.31786384658864,149.53413868021525L137.7086513003029,162.00904587094814L138.0994387540172,154.08238863229033L138.4902262077315,157.43696987849899L138.88101366144576,161.08427766168836L139.27180111516003,166.79868854197477L139.66258856887433,160.8451745903947L140.0533760225886,164.15974784159852L140.44416347630286,151.0734021398579L140.83495093001716,147.61698789005447L141.22573838373145,164.88466471175957L141.61652583744572,154.44883106264172L142.00731329116,161.07726968977755L142.39810074487428,165.42935982330326L142.78888819858855,155.23091211730573L143.17967565230285,161.16426522494658L143.57046310601712,142.67418344874298L143.96125055973138,140.4041666074845L144.35203801344568,157.3202701515239L144.74282546715997,166.38029542860048L145.13361292087424,164.53855848641624L145.5244003745885,145.00295816972124L145.9151878283028,159.15804887366608L146.30597528201707,149.89587972633365L146.69676273573137,164.44802691935774L147.08755018944566,153.92789463323558L147.47833764315993,158.79057777155123L147.8691250968742,157.34260500524312L148.25991255058847,168.70769068190748L148.65070000430276,157.51097641348892L149.04148745801703,160.99121022185696L149.43227491173133,155.71798834165537L149.82306236544562,152.82487193144556L150.2138498191599,150.19765472380323L150.60463727287419,149.10722396997198L150.99542472658842,150.20599848945147L151.38621218030272,161.13807643367508L151.776999634017,158.2777820474233L152.16778708773128,164.02794015123294L152.55857454144558,157.440110665356L152.94936199515985,151.9370827584678L153.34014944887414,159.78854201115982L153.7309369025884,164.70883803977853L154.1217243563027,113.29504643424372L154.51251181001695,161.5647502627919L154.90329926373124,163.50628108258988L155.2940867174455,155.13556216308936L155.6848741711598,169.1291245890193L156.0756616248741,157.50449755764203L156.46644907858837,155.78043727459587L156.85723653230266,153.19454565470744L157.24802398601693,156.8012295672984L157.6388114397312,163.4569666970707L158.02959889344547,160.64393338742823L158.42038634715976,160.35560461578248L158.81117380087406,158.10773574065087L159.20196125458833,160.31195974305876L159.59274870830262,141.90570875611502L159.9835361620169,160.88350837612828L160.37432361573119,157.35295601226326L160.76511106944542,141.77523672489087L161.15589852315972,158.27156667964363L161.54668597687402,148.87912594154332L161.93747343058828,166.81089705734067L162.32826088430258,156.7200908072449L162.71904833801685,166.4081497828213L163.10983579173114,160.32758328541587L163.5006232454454,141.2263519091032L163.89141069915968,161.6727163147185L164.28219815287397,154.622246010143L164.67298560658824,158.5233276146217L165.06377306030254,162.56857193084502L165.4545605140168,164.4807428687435L165.8453479677311,158.7638102148956L166.23613542144537,166.5167176894057L166.62692287515966,154.1855075803751L167.01771032887396,156.1174071275874L167.4084977825882,153.55835268893694L167.7992852363025,164.5913802686841L168.19007269001676,161.26662098638033L168.58086014373106,140.09913301101926L168.97164759744533,159.40446738141907L169.36243505115962,161.54502523768923L169.75322250487392,158.37840445092434L170.14400995858819,152.5798104039934L170.53479741230245,156.9979362391471L170.92558486601672,157.54780247799542L171.31637231973102,169.97410320156357L171.70715977344528,150.16119745401372L172.09794722715958,147.25356222368202L172.48873468087388,164.84393324322306L172.87952213458814,164.00623663066784L173.27030958830244,163.25880030441118L173.66109704201668,157.81406833098865L174.05188449573097,157.33391040085482L174.44267194944524,162.91643494991914L174.83345940315954,148.9033760624704L175.2242468568738,144.36551224322636L175.6150343105881,151.5554342478295L176.0058217643024,163.40531306373663L176.39660921801666,157.0926966882538L176.78739667173096,166.82689854643377L177.1781841254452,165.0659470529656L177.5689715791595,155.6713588857892L177.95975903287376,147.3930933862061L178.35054648658806,153.77149998142664L178.74133394030235,162.10103964768155L179.13212139401662,161.0916177787902L179.52290884773092,154.40128182814627L179.91369630144519,156.91153383491118L180.30448375515945,163.40708710651015L180.69527120887372,148.28205538482706L181.08605866258802,157.45760982973613L181.4768461163023,151.73673527161617L181.86763357001658,157.46322193479773L182.25842102373088,150.65177035653343L182.64920847744514,151.06550996063189L183.03999593115944,162.46097983941726L183.43078338487368,163.91431560070572L183.82157083858797,152.73155433354964L184.21235829230227,158.05030895653178L184.60314574601654,158.99517125342314L184.99393319973083,163.0542807595722L185.3847206534451,162.7160504187232L185.7755081071594,159.23458259966634L186.16629556087366,166.15637262921126L186.55708301458793,136.421325537587L186.9478704683022,162.55295349967827L187.3386579220165,159.1907774025861L187.7294453757308,163.39085821159924L188.12023282944506,158.65876690681864L188.51102028315935,152.53656622711972L188.90180773687362,161.93258793613256L189.29259519058792,153.85766291851536L189.6833826443022,161.28350096690204L190.07417009801645,159.35909576855843L190.46495755173075,148.2973884020116L190.85574500544502,151.18685014327292L191.2465324591593,161.73134616416723L191.63731991287358,156.6163323040796L192.02810736658788,158.50310975886038L192.41889482030217,149.35533700410167L192.80968227401644,163.2108234783562L193.2004697277307,158.29135074510762L193.59125718144497,126.25582890806697L193.98204463515927,148.83637514118098L194.37283208887354,168.5885305417168L194.76361954258783,153.121391328251L195.15440699630213,161.4112346882147L195.5451944500164,162.05033350529322L195.9359819037307,160.25776810958055L196.32676935744493,166.0057401579496L196.71755681115923,150.11398427942558L197.1083442648735,157.761618291722L197.4991317185878,157.331531301967L197.88991917230206,160.66294851529653L198.28070662601635,153.74455448265348L198.67149407973065,161.25163047250552L199.06228153344492,152.52119048038585L199.4530689871592,153.27030717841234L199.84385644087345,163.2472891029767L200.23464389458775,162.56097181140646L200.62543134830202,155.37949975078496L201.0162188020163,161.89761306998335L201.4070062557306,157.3657128615018L201.79779370944487,159.75796800274907L202.18858116315917,165.13265210978284L202.57936861687344,159.64018644198728L202.9701560705877,167.5172085362093L203.36094352430197,163.43649611657855L203.75173097801627,164.7306319868364L204.14251843173056,153.39209310925875L204.53330588544483,161.38914041082933L204.92409333915913,155.86938572651397L205.3148807928734,160.72441374184157L205.7056682465877,163.55215075325958L206.09645570030193,151.62887039265044L206.48724315401623,150.50116347187713L206.87803060773052,153.97806838486915L207.2688180614448,141.6993380176961L207.6596055151591,161.9876397689264L208.05039296887335,159.81504084647693L208.44118042258765,148.96068950491602L208.83196787630192,150.94968398901102L209.22275533001618,163.10398310310325L209.61354278373045,156.0698342018899L210.00433023744475,164.26973725609594L210.39511769115904,166.76684155560423L210.7859051448733,159.1338548750537L211.1766925985876,149.135548569189L211.56748005230187,151.79681293584022L211.95826750601617,164.44526129318703L212.34905495973047,159.78026230619457L212.7398424134447,155.42916854119633L213.130629867159,153.78234677335684L213.52141732087327,161.50176540971233L213.91220477458756,167.22390022947545L214.30299222830183,163.81157982660702L214.69377968201613,157.8584530271738L215.08456713573042,139.04965382665517L215.4753545894447,168.36135475628518L215.86614204315896,161.70800894906736L216.25692949687323,133.43536835464798L216.64771695058752,160.69057548464423L217.0385044043018,152.85279615968156L217.4292918580161,163.385281968503L217.82007931173035,159.26209485830242L218.21086676544465,162.57345037669398L218.60165421915895,158.56394083408927L218.99244167287318,144.89948195405518L219.38322912658748,162.7649134269968L219.77401658030175,157.4198857408793L220.16480403401604,160.00383702623688L220.5555914877303,157.4056871210405L220.9463789414446,147.07608237757378L221.3371663951589,158.96545264655114L221.72795384887317,159.81253758752734L222.11874130258747,162.3453670358061L222.5095287563017,157.35120510225227L222.900316210016,158.8997343695506L223.29110366373027,150.98500576044466L223.68189111744456,160.99084206234846L224.07267857115886,147.1077393709974L224.46346602487313,163.43317704340626L224.85425347858742,163.17130859284978L225.2450409323017,157.27851247637545L225.63582838601596,169.05970553120002L226.02661583973023,162.20918354271595L226.41740329344452,152.48276481958186L226.80819074715882,149.6388679751316L227.19897820087309,161.99261861974773L227.58976565458738,159.15682012272032L227.98055310830165,164.77329765277148L228.37134056201594,165.0213158289142L228.76212801573018,149.25803804137152L229.15291546944448,154.44524328562542L229.54370292315875,160.79876239447043L229.93449037687304,161.91175500483294L230.32527783058734,161.1745961573203L230.7160652843016,154.6201678311703L231.1068527380159,149.89892240191145L231.49764019173017,166.12057825055038L231.88842764544444,158.47331147976666L232.2792150991587,167.3517028516469L232.670002552873,162.89426385444872L233.0607900065873,154.73578633451328L233.45157746030156,156.52613393135383L233.84236491401586,155.36436579314744L234.23315236773013,164.89545939093992L234.62393982144442,163.38492362386305L235.01472727515872,161.84273143969918L235.40551472887296,166.23151516655219L235.79630218258725,161.37358912701598L236.18708963630152,164.00310253361977L236.57787709001582,154.8417188879234L236.96866454373009,158.39262222308548L237.35945199744438,164.56169608300223L237.75023945115865,155.86085196336575L238.14102690487294,162.12653265686117L238.5318143585872,167.98659903199592L238.92260181230148,158.0383169617467L239.31338926601578,152.2370358284585L239.70417671973004,154.4092045797007L240.09496417344434,159.17214377542382L240.4857516271586,160.28319246479208L240.8765390808729,162.34113456536687L241.2673265345872,164.0791156660481L241.65811398830144,164.928176026276L242.04890144201573,160.1294296141734L242.43968889573,163.50580425723425L242.8304763494443,164.7478412408509L243.22126380315856,149.84482326028106L243.61205125687286,166.784139516657" style="fill: none;" fill="none"></path></g></g></g></g><g opacity="0.2"><g><g><g><path stroke="rgb(255, 112, 67)" stroke-width="2px" d="M51.416268395961275,-44.97570709231968L51.5465308805327,88.39780651943325L51.67679336510413,65.5007686880728L51.80705584967556,168.01949730841935L51.93731833424698,122.38760468829483L52.067580818818406,166.76079327101417L52.19784330338983,170.65757156213039L52.328105787961256,114.63423907615478L52.458368272532695,166.87078286321452L52.58863075710412,143.51141451966868L52.718893241675545,87.67523846925586L52.84915572624697,166.80603882527384L52.979418210818395,159.5484045752727L53.10968069538983,163.01293703208628L53.23994317996125,172.14746016675295L53.370205664532676,166.71146526282126L53.5004681491041,148.89846887052613L53.630730633675526,165.55642498621995L53.76099311824695,166.26817962832428L53.8834398537441,119.53137594602822L54.013702338315525,147.69397732323392L54.14396482288695,140.92771094294304L54.274227307458375,173.8171934809954L54.4044897920298,124.23285743110293L54.53475227660123,153.98632733827898L54.665014761172664,160.45918131187065L54.79527724574409,151.3975420596365L54.92553973031551,173.47752291861556L55.05580221488694,166.74811859922156L55.18606469945836,147.59269828089106L55.316327184029795,150.8759773431703L55.44658966860122,52.91468811800527L55.576852153172645,158.9215227370297L55.70711463774407,169.38294981661065L55.837377122315495,170.6678438478373L55.96763960688693,161.154127058L56.09790209145836,142.12999362627139L56.22816457602978,145.5883152966866L56.35842706060121,127.5195451123264L56.48868954517263,153.71664378419152L56.61895202974406,110.1800057270346L56.68538589687549,152.85709001125548L57.07617335058977,163.23615884193396L57.466960804304044,148.3082946041825L57.85774825801833,150.97860898599103L58.24853571173261,155.8140505103739L58.63932316544689,157.98637782633045L59.030110619161164,163.67988082567382L59.42089807287545,163.4198807734279L59.81168552658973,149.60330026899373L60.20247298030401,145.28938566057766L60.59326043401829,158.11609106170812L60.98404788773257,157.533830247735L61.37483534144685,159.40567810710797L61.76562279516113,152.14826162085328L62.15641024887541,153.7502172016422L62.54719770258969,159.61627783716216L62.93798515630397,141.75679422637765L63.328772610018255,149.131638785711L63.71956006373253,152.36056401687958L64.11034751744681,142.78754153051264L64.5011349711611,149.25193969674265L64.89192242487537,144.43432521656808L65.28270987858964,129.10618327336596L65.67349733230394,158.62236301092452L66.06428478601822,145.49073084228326L66.45507223973249,158.6553546293847L66.84585969344678,159.5508123027333L67.23664714716105,161.51292282412942L67.62743460087533,148.4310081731747L68.01822205458961,155.09963422006314L68.4090095083039,149.17781456095548L68.79979696201818,151.80550312746146L69.19058441573246,157.06066989247682L69.58137186944673,139.64791093988305L69.97215932316102,151.79808436858283L70.36294677687529,165.7110561464399L70.75373423058957,166.02359560582613L71.14452168430385,153.97752803942296L71.53530913801814,156.7084021082406L71.92609659173242,150.2654368251599L72.3168840454467,153.67867564781275L72.70767149916098,150.17897886557452L73.09845895287526,165.93743840673582L73.48924640658953,153.6467325823354L73.88003386030381,154.3946351845983L74.27082131401811,161.81267585372487L74.66160876773237,122.11214751880183L75.05239622144666,157.10497207775197L75.44318367516094,159.57992690475695L75.83397112887522,159.3527376859742L76.22475858258949,166.5134530990611L76.61554603630377,156.92456672920372L77.00633349001806,161.9841076924199L77.39712094373235,160.42569993041846L77.78790839744663,151.27428777915316L78.1786958511609,162.24766592210761L78.56948330487518,165.66078312576244L78.96027075858946,148.0214644148756L79.35105821230374,150.41377913273274L79.74184566601801,152.13264015360886L80.1326331197323,138.87094961459562L80.52342057344659,142.19334397623487L80.91420802716087,157.63927391900975L81.30499548087514,157.15406835244863L81.69578293458942,156.86070032024872L82.0865703883037,153.3421230103194L82.477357842018,157.48370349855517L82.86814529573226,159.95975454004224L83.25893274944654,164.69998893273288L83.64972020316083,162.03651890656238L84.0405076568751,163.2376462094096L84.43129511058937,166.0485817359173L84.82208256430366,159.770732321135L85.21287001801794,152.51208156640047L85.60365747173223,154.16056134442817L85.9944449254465,151.28510529597617L86.38523237916078,146.8755537806249L86.77601983287506,143.36797970301555L87.16680728658935,156.27571129632025L87.55759474030361,154.46447078545563L87.9483821940179,154.22910022380674L88.33916964773219,153.70827015182851L88.72995710144647,159.85629786023497L89.12074455516075,159.24434886274764L89.51153200887502,160.82086799445275L89.9023194625893,163.20107997850792L90.29310691630359,159.22259056660366L90.68389437001787,149.0012829418439L91.07468182373213,144.90026074594448L91.46546927744643,159.0347253716775L91.85625673116071,142.27767853385498L92.247044184875,158.56212873691007L92.63783163858926,142.44597293110135L93.02861909230354,157.44593915617307L93.41940654601783,162.08148342232667L93.81019399973212,162.94522154619426L94.20098145344639,152.58746397966706L94.59176890716067,145.14083627200822L94.98255636087495,150.05631953208146L95.37334381458923,150.7378444574304L95.7641312683035,156.23433618449724L96.15491872201778,152.7948950417731L96.54570617573206,150.62014685035615L96.93649362944636,163.09020947032198L97.32728108316063,157.0931799654449L97.71806853687491,157.34378248484455L98.10885599058919,161.85063248560382L98.49964344430347,145.95217961673308L98.89043089801774,157.53032137529243L99.28121835173202,156.07383362062336L99.6720058054463,149.29602494002134L100.0627932591606,154.68785858880057L100.45358071287488,158.89766569142003L100.84436816658915,158.0380001604858L101.23515562030343,159.89930332403134L101.62594307401771,155.07464973347194L102.016730527732,158.3286892877296L102.40751798144626,160.0826094500321L102.79830543516056,149.3194776846376L103.18909288887484,151.50568271436708L103.57988034258912,151.7455926229417L103.97066779630339,150.8968415753289L104.36145525001767,142.66018671759642L104.75224270373195,141.6580001559941L105.14303015744623,164.55088157592257L105.53381761116052,151.6637003062816L105.9246050648748,160.0659098468053L106.31539251858908,157.60556737806127L106.70617997230336,154.44186115632556L107.09696742601763,156.76776861426924L107.48775487973191,136.95170650299812L107.87854233344619,161.37457957039297L108.26932978716049,155.2283383464573L108.66011724087475,156.42912380131014L109.05090469458904,164.2046972068368L109.44169214830332,161.64962257789273L109.8324796020176,162.78155031437223L110.22326705573187,138.5998214240318L110.61405450944615,162.15780756107785L111.00484196316043,153.5955786456724L111.39562941687473,129.8011043669957L111.78641687058901,150.97658419402416L112.17720432430328,136.36115094466075L112.56799177801756,143.38122631279882L112.95877923173184,162.7809274278824L113.34956668544612,156.18988937122447L113.74035413916039,156.70107045486057L114.13114159287468,146.51729708248666L114.52192904658897,150.97116393111284L114.91271650030325,163.3913578313946L115.30350395401751,147.93265296332874L115.6942914077318,153.03813303779327L116.08507886144608,140.97120781323136L116.47586631516036,149.5549583607847L116.86665376887463,160.7557508820182L117.25744122258892,161.6754156664707L117.6482286763032,151.79829144957944L118.03901613001749,160.16693743365232L118.42980358373175,156.2841983301814L118.82059103744604,116.0455453730631L119.21137849116032,156.60345313045778L119.60216594487461,158.8187234572117L119.99295339858888,147.04680647782288L120.38374085230316,152.2457852657576L120.77452830601744,160.25258021725102L120.90479079058888,156.3879524834838L121.29557824430314,146.48175803906815L121.68636569801743,156.76513901431227L122.07715315173171,154.68651584932255L122.467940605446,162.28992688041612L122.85872805916027,151.49212712658888L123.24951551287455,154.3310103701393L123.64030296658883,145.2813095017098L124.03109042030312,154.95951598635574L124.42187787401738,133.1477535012381L124.81266532773166,157.97817511796467L125.20345278144595,157.4868672360034L125.59424023516024,159.47038598804923L125.98502768887451,142.10413151069454L126.37581514258879,147.19279200643427L126.76660259630307,157.87091044871974L127.15739005001736,161.16963019324635L127.54817750373162,156.8142270715091L127.9389649574459,152.5034860615411L128.3297524111602,146.18048477199756L128.72053986487447,159.28345594460777L129.11132731858874,121.97724575400908L129.50211477230303,156.14412940147318L129.89290222601733,150.71742068326458L130.2836896797316,159.97153186084952L130.6744771334459,153.42425199097562L131.06526458716016,161.68303657584602L131.45605204087443,154.04702507928585L131.84683949458872,162.94599070418167L132.237626948303,154.23509571170865L132.62841440201728,156.9341220380474L133.01920185573155,156.44748991350963L133.40998930944585,155.01694151891616L133.80077676316012,166.15341320345206L134.19156421687438,157.1556247469232L134.58235167058868,137.64245968069608L134.97313912430295,155.28225665007508L135.36392657801724,165.6827082371537L135.7547140317315,146.0377007813338L136.1455014854458,159.76142025028736L136.53628893916007,148.64099816473885L136.92707639287437,151.9486306096196L137.31786384658864,149.50048291067603L137.7086513003029,162.1861743706137L138.0994387540172,153.96983974654876L138.4902262077315,157.4846008495405L138.88101366144576,161.13606499329552L139.27180111516003,166.87982622181656L139.66258856887433,160.76064193793817L140.0533760225886,164.20681074780222L140.44416347630286,150.88759195748025L140.83495093001716,147.5679110142966L141.22573838373145,165.12984470719962L141.61652583744572,154.30065492563597L142.00731329116,161.17138545121762L142.39810074487428,165.49115420653789L142.78888819858855,155.08610657178448L143.17967565230285,161.24851161795567L143.57046310601712,142.411646790663L143.96125055973138,140.3719351310366L144.35203801344568,157.56045823429932L144.74282546715997,166.50893676113503L145.13361292087424,164.51240806330208L145.5244003745885,144.72557642080267L145.9151878283028,159.35903393437118L146.30597528201707,149.76436819685836L146.69676273573137,164.6546496989747L147.08755018944566,153.77852155817908L147.47833764315993,158.85962195404252L147.8691250968742,157.32204555420023L148.25991255058847,168.86906106676884L148.65070000430276,157.35199669771015L149.04148745801703,161.0406253063571L149.43227491173133,155.64311500867075L149.82306236544562,152.78379319945475L150.2138498191599,150.1603514368793L150.60463727287419,149.0917411803638L150.99542472658842,150.22159975037715L151.38621218030272,161.2932986357229L151.776999634017,158.23716934822704L152.16778708773128,164.10958539814303L152.55857454144558,157.34657150429894L152.94936199515985,151.858946459587L153.34014944887414,159.90002317701953L153.7309369025884,164.77870025519502L154.1217243563027,112.56503316601096L154.51251181001695,162.25012131106743L154.90329926373124,163.53384845731318L155.2940867174455,155.01670814191996L155.6848741711598,169.32781614476272L156.0756616248741,157.3394420014156L156.46644907858837,155.7559577168244L156.85723653230266,153.1578291408348L157.24802398601693,156.85244008938386L157.6388114397312,163.55147006402487L158.02959889344547,160.60399173800127L158.42038634715976,160.35151069813236L158.81117380087406,158.07581873836705L159.20196125458833,160.34325704126738L159.59274870830262,141.64436239321725L159.9835361620169,161.15297003401892L160.37432361573119,157.30282646551467L160.76511106944542,141.5540520696949L161.15589852315972,158.50579448833182L161.54668597687402,148.74576471402466L161.93747343058828,167.06550638352846L162.32826088430258,156.57681363939363L162.71904833801685,166.54570842953336L163.10983579173114,160.24124664143648L163.5006232454454,140.95513767049428L163.89141069915968,161.9630298052648L164.28219815287397,154.52213791251208L164.67298560658824,158.57871822563862L165.06377306030254,162.62600947691718L165.4545605140168,164.50789336887593L165.8453479677311,158.68263672893832L166.23613542144537,166.62679953995655L166.62692287515966,154.01041940438478L167.01771032887396,156.1448377499616L167.4084977825882,153.52201723037598L167.7992852363025,164.74803583269673L168.19007269001676,161.2194134509318L168.58086014373106,139.7985804434178L168.97164759744533,159.67857963414278L169.36243505115962,161.57541855410685L169.75322250487392,158.33344228965183L170.14400995858819,152.49747742563943L170.53479741230245,157.06066824897687L170.92558486601672,157.55560990937866L171.31637231973102,170.15054154855136L171.70715977344528,149.87987830546837L172.09794722715958,147.21227734211547L172.48873468087388,165.09369510354108L172.87952213458814,163.99434235827863L173.27030958830244,163.24818761823715L173.66109704201668,157.73675976341468L174.05188449573097,157.32709274261765L174.44267194944524,162.99570000436833L174.83345940315954,148.70440768070134L175.2242468568738,144.30108009974825L175.6150343105881,151.6575223898827L176.0058217643024,163.57356692116332L176.39660921801666,157.00306521841935L176.78739667173096,166.9651123659211L177.1781841254452,165.04094368490422L177.5689715791595,155.53796716739117L177.95975903287376,147.27555209108016L178.35054648658806,153.86206559231215L178.74133394030235,162.21930897357157L179.13212139401662,161.07728521675728L179.52290884773092,154.3062872000438L179.91369630144519,156.9471763583338L180.30448375515945,163.4993160576282L180.69527120887372,148.06729834212567L181.08605866258802,157.58789153585047L181.4768461163023,151.6555058154157L181.86763357001658,157.5445310760599L182.25842102373088,150.55505603392118L182.64920847744514,151.07138455947305L183.03999593115944,162.62278164296998L183.43078338487368,163.93495119975037L183.82157083858797,152.57277273340745L184.21235829230227,158.12582879904878L184.60314574601654,159.00858714810516L184.99393319973083,163.11191517446682L185.3847206534451,162.7112479595225L185.7755081071594,159.18514999371624L186.16629556087366,166.25465362354558L186.55708301458793,135.9991240575842L186.9478704683022,162.92399081354162L187.3386579220165,159.14303859390526L187.7294453757308,163.450494247427L188.12023282944506,158.59157696942825L188.51102028315935,152.44963842842216L188.90180773687362,162.06600000908L189.29259519058792,153.74300881076013L189.6833826443022,161.38893882965803L190.07417009801645,159.33177155681724L190.46495755173075,148.14032561993082L190.85574500544502,151.22787698341253L191.2465324591593,161.88106517460588L191.63731991287358,156.54370533243537L192.02810736658788,158.5298997024374L192.41889482030217,149.2254497641761L192.80968227401644,163.40755452362959L193.2004697277307,158.2215002194834L193.59125718144497,125.80096348644571L193.98204463515927,149.1569914162962L194.37283208887354,168.86898710927005L194.76361954258783,152.9017767755243L195.15440699630213,161.52894037486732L195.5451944500164,162.05940793068785L195.9359819037307,160.2323158625826L196.32676935744493,166.08735436553292L196.71755681115923,149.8883406868299L197.1083442648735,157.87020538723127L197.4991317185878,157.32542459014493L197.88991917230206,160.71025058526266L198.28070662601635,153.6463217073421L198.67149407973065,161.35822181516062L199.06228153344492,152.39722885777968L199.4530689871592,153.2809437238204L199.84385644087345,163.388950103934L200.23464389458775,162.55122694114075L200.62543134830202,155.2775315876524L201.0162188020163,161.99016234632086L201.4070062557306,157.30136539403858L201.79779370944487,159.79193511428807L202.18858116315917,165.20896608290505L202.57936861687344,159.562200114047L202.9701560705877,167.62905266330776L203.36094352430197,163.37855496660407L203.75173097801627,164.74900714118084L204.14251843173056,153.23109965663596L204.53330588544483,161.50268874979685L204.92409333915913,155.79101192775087L205.3148807928734,160.793349230903L205.7056682465877,163.59230117735677L206.09645570030193,151.4595743226215L206.48724315401623,150.48515140606494L206.87803060773052,154.02743620310636L207.2688180614448,141.52499499017034L207.6596055151591,162.27570896214877L208.05039296887335,159.78419258591475L208.44118042258765,148.80657092602976L208.83196787630192,150.97792529000222L209.22275533001618,163.27655935827292L209.61354278373045,155.96995784832296L210.00433023744475,164.38616589986762L210.39511769115904,166.80229739758508L210.7859051448733,159.02547575382883L211.1766925985876,148.99358478796984L211.56748005230187,151.83459965098538L211.95826750601617,164.62485386621225L212.34905495973047,159.71402499806283L212.7398424134447,155.36738830518217L213.130629867159,153.75896390849908L213.52141732087327,161.6113717595186L213.91220477458756,167.30514757985748L214.30299222830183,163.76312902981172L214.69377968201613,157.7739258718066L215.08456713573042,138.78259176904132L215.4753545894447,168.77754523601624L215.86614204315896,161.61353953598314L216.25692949687323,133.03393126710046L216.64771695058752,161.0775662552527L217.0385044043018,152.7415092321466L217.4292918580161,163.53483044854713L217.82007931173035,159.20355061941518L218.21086676544465,162.62046759500785L218.60165421915895,158.5070106783119L218.99244167287318,144.70546326813175L219.38322912658748,163.01858081099394L219.77401658030175,157.34399285284113L220.16480403401604,160.04052598972066L220.5555914877303,157.36879655443528L220.9463789414446,146.92941456174364L221.3371663951589,159.1342672345488L221.72795384887317,159.8245651627542L222.11874130258747,162.38133013142058L222.5095287563017,157.28029408088335L222.900316210016,158.92172160052644L223.29110366373027,150.8726262467251L223.68189111744456,161.1329127603471L224.07267857115886,146.91061620905123L224.46346602487313,163.66497838966765L224.85425347858742,163.16759037955586L225.2450409323017,157.19484194328152L225.63582838601596,169.22698413441253L226.02661583973023,162.11191446782874L226.41740329344452,152.34466151113978L226.80819074715882,149.59848810107246L227.19897820087309,162.16802684391064L227.58976565458738,159.11655523533858L227.98055310830165,164.85304479822858L228.37134056201594,165.02483738516773L228.76212801573018,149.034218681305L229.15291546944448,154.51889528706513L229.54370292315875,160.8889746333384L229.93449037687304,161.9275581453452L230.32527783058734,161.16412939883634L230.7160652843016,154.52710292593085L231.1068527380159,149.83188646275363L231.49764019173017,166.3509060212207L231.88842764544444,158.3647295986399L232.2792150991587,167.47776520378312L232.670002552873,162.83097364556357L233.0607900065873,154.61994588291176L233.45157746030156,156.55155468830694L233.84236491401586,155.3478700995015L234.23315236773013,165.03078932032037L234.62393982144442,163.3634758543508L235.01472727515872,161.82083418759137L235.40551472887296,166.29383055415457L235.79630218258725,161.30461248953776L236.18708963630152,164.0404384237744L236.57787709001582,154.71163838991149L236.96866454373009,158.4430407288586L237.35945199744438,164.64928942381243L237.75023945115865,155.73731056612954L238.14102690487294,162.21549769713394L238.5318143585872,168.06980484259623L238.92260181230148,157.89706346379182L239.31338926601578,152.1546646967485L239.70417671973004,154.44004673235526L240.09496417344434,159.23977171532252L240.4857516271586,160.29896800399203L240.8765390808729,162.37035483860018L241.2673265345872,164.1037928824878L241.65811398830144,164.94023165005206L242.04890144201573,160.06129325538086L242.43968889573,163.55374466798764L242.8304763494443,164.76547665441137L243.22126380315856,149.6332185425042L243.61205125687286,167.02465719169683" style="fill: none;" fill="none"></path></g></g></g></g></g></g><g transform="translate(37, 177)" clip-path="url(#clip_1)"><clipPath id="clip_1"><rect width="293" height="23"></rect></clipPath><g><g><line x1="25.362468856830212" y1="0" x2="25.362468856830212" y2="5" style="visibility: inherit;" fill="rgb(0, 0, 0)" stroke="rgb(204, 204, 204)" stroke-width="1px"></line><line x1="51.41496577111556" y1="0" x2="51.41496577111556" y2="5" style="visibility: inherit;" fill="rgb(0, 0, 0)" stroke="rgb(204, 204, 204)" stroke-width="1px"></line><line x1="77.4674626854009" y1="0" x2="77.4674626854009" y2="5" style="visibility: inherit;" fill="rgb(0, 0, 0)" stroke="rgb(204, 204, 204)" stroke-width="1px"></line><line x1="103.51995959968626" y1="0" x2="103.51995959968626" y2="5" style="visibility: inherit;" fill="rgb(0, 0, 0)" stroke="rgb(204, 204, 204)" stroke-width="1px"></line><line x1="129.57245651397162" y1="0" x2="129.57245651397162" y2="5" style="visibility: inherit;" fill="rgb(0, 0, 0)" stroke="rgb(204, 204, 204)" stroke-width="1px"></line><line x1="155.62495342825696" y1="0" x2="155.62495342825696" y2="5" style="visibility: inherit;" fill="rgb(0, 0, 0)" stroke="rgb(204, 204, 204)" stroke-width="1px"></line><line x1="181.6774503425423" y1="0" x2="181.6774503425423" y2="5" style="visibility: inherit;" fill="rgb(0, 0, 0)" stroke="rgb(204, 204, 204)" stroke-width="1px"></line><line x1="207.72994725682764" y1="0" x2="207.72994725682764" y2="5" style="visibility: inherit;" fill="rgb(0, 0, 0)" stroke="rgb(204, 204, 204)" stroke-width="1px"></line><line x1="233.78244417111299" y1="0" x2="233.78244417111299" y2="5" style="visibility: inherit;" fill="rgb(0, 0, 0)" stroke="rgb(204, 204, 204)" stroke-width="1px"></line><line x1="259.8349410853983" y1="0" x2="259.8349410853983" y2="5" style="visibility: inherit;" fill="rgb(0, 0, 0)" stroke="rgb(204, 204, 204)" stroke-width="1px"></line><line x1="285.8874379996837" y1="0" x2="285.8874379996837" y2="5" style="visibility: inherit;" fill="rgb(0, 0, 0)" stroke="rgb(204, 204, 204)" stroke-width="1px"></line></g><g transform="translate(0, 8)"><text x="25.362468856830212" y="0" dx="0em" dy="0.95em" style="text-anchor: middle; visibility: inherit; font-family: &quot;Helvetica Neue&quot;, sans-serif; font-size: 12px; font-weight: 200;" fill="rgb(50, 49, 63)" stroke="none" stroke-width="1px">-20k</text><text x="51.41496577111556" y="0" dx="0em" dy="0.95em" style="text-anchor: middle; visibility: hidden; font-family: &quot;Helvetica Neue&quot;, sans-serif; font-size: 12px; font-weight: 200;" fill="rgb(50, 49, 63)" stroke="none" stroke-width="1px">0</text><text x="77.4674626854009" y="0" dx="0em" dy="0.95em" style="text-anchor: middle; visibility: inherit; font-family: &quot;Helvetica Neue&quot;, sans-serif; font-size: 12px; font-weight: 200;" fill="rgb(50, 49, 63)" stroke="none" stroke-width="1px">20k</text><text x="103.51995959968626" y="0" dx="0em" dy="0.95em" style="text-anchor: middle; visibility: hidden; font-family: &quot;Helvetica Neue&quot;, sans-serif; font-size: 12px; font-weight: 200;" fill="rgb(50, 49, 63)" stroke="none" stroke-width="1px">40k</text><text x="129.57245651397162" y="0" dx="0em" dy="0.95em" style="text-anchor: middle; visibility: inherit; font-family: &quot;Helvetica Neue&quot;, sans-serif; font-size: 12px; font-weight: 200;" fill="rgb(50, 49, 63)" stroke="none" stroke-width="1px">60k</text><text x="155.62495342825696" y="0" dx="0em" dy="0.95em" style="text-anchor: middle; visibility: hidden; font-family: &quot;Helvetica Neue&quot;, sans-serif; font-size: 12px; font-weight: 200;" fill="rgb(50, 49, 63)" stroke="none" stroke-width="1px">80k</text><text x="181.6774503425423" y="0" dx="0em" dy="0.95em" style="text-anchor: middle; visibility: inherit; font-family: &quot;Helvetica Neue&quot;, sans-serif; font-size: 12px; font-weight: 200;" fill="rgb(50, 49, 63)" stroke="none" stroke-width="1px">100k</text><text x="207.72994725682764" y="0" dx="0em" dy="0.95em" style="text-anchor: middle; visibility: hidden; font-family: &quot;Helvetica Neue&quot;, sans-serif; font-size: 12px; font-weight: 200;" fill="rgb(50, 49, 63)" stroke="none" stroke-width="1px">120k</text><text x="233.78244417111299" y="0" dx="0em" dy="0.95em" style="text-anchor: middle; visibility: inherit; font-family: &quot;Helvetica Neue&quot;, sans-serif; font-size: 12px; font-weight: 200;" fill="rgb(50, 49, 63)" stroke="none" stroke-width="1px">140k</text><text x="259.8349410853983" y="0" dx="0em" dy="0.95em" style="text-anchor: middle; visibility: hidden; font-family: &quot;Helvetica Neue&quot;, sans-serif; font-size: 12px; font-weight: 200;" fill="rgb(50, 49, 63)" stroke="none" stroke-width="1px">160k</text><text x="285.8874379996837" y="0" dx="0em" dy="0.95em" style="text-anchor: middle; visibility: hidden; font-family: &quot;Helvetica Neue&quot;, sans-serif; font-size: 12px; font-weight: 200;" fill="rgb(50, 49, 63)" stroke="none" stroke-width="1px">180k</text></g><line x1="0" y1="0" x2="293" y2="0" fill="rgb(0, 0, 0)" stroke="rgb(204, 204, 204)" stroke-width="1px"></line></g></g></g></g></svg>