<svg viewBox="0 0 330 200" xmlns="http://www.w3.org/2000/svg"><g><g><g><g><g><line x1="37" y1="155.69421964033458" x2="32" y2="155.69421964033458" style="visibility: inherit;" fill="rgb(0, 0, 0)" stroke="rgb(204, 204, 204)" stroke-width="1px"></line><line x1="37" y1="134.15253679279792" x2="32" y2="134.15253679279792" style="visibility: inherit;" fill="rgb(0, 0, 0)" stroke="rgb(204, 204, 204)" stroke-width="1px"></line><line x1="37" y1="112.61085394526125" x2="32" y2="112.61085394526125" style="visibility: inherit;" fill="rgb(0, 0, 0)" stroke="rgb(204, 204, 204)" stroke-width="1px"></line><line x1="37" y1="91.06917109772459" x2="32" y2="91.06917109772459" style="visibility: inherit;" fill="rgb(0, 0, 0)" stroke="rgb(204, 204, 204)" stroke-width="1px"></line><line x1="37" y1="69.52748825018794" x2="32" y2="69.52748825018794" style="visibility: inherit;" fill="rgb(0, 0, 0)" stroke="rgb(204, 204, 204)" stroke-width="1px"></line><line x1="37" y1="47.985805402651266" x2="32" y2="47.985805402651266" style="visibility: inherit;" fill="rgb(0, 0, 0)" stroke="rgb(204, 204, 204)" stroke-width="1px"></line><line x1="37" y1="26.444122555114603" x2="32" y2="26.444122555114603" style="visibility: inherit;" fill="rgb(0, 0, 0)" stroke="rgb(204, 204, 204)" stroke-width="1px"></line><line x1="37" y1="4.902439707577969" x2="32" y2="4.902439707577969" style="visibility: inherit;" fill="rgb(0, 0, 0)" stroke="rgb(204, 204, 204)" stroke-width="1px"></line></g><g transform="translate(27, 0)"><text x="0" y="155.69421964033458" dx="0em" dy="0.3em" style="text-anchor: end; visibility: inherit; font-family: &quot;Helvetica Neue&quot;, sans-serif; font-size: 12px; font-weight: 200;" fill="rgb(50, 49, 63)" stroke="none" stroke-width="1px">100</text><text x="0" y="134.15253679279792" dx="0em" dy="0.3em" style="text-anchor: end; visibility: hidden; font-family: &quot;Helvetica Neue&quot;, sans-serif; font-size: 12px; font-weight: 200;" fill="rgb(50, 49, 63)" stroke="none" stroke-width="1px">200</text><text x="0" y="112.61085394526125" dx="0em" dy="0.3em" style="text-anchor: end; visibility: inherit; font-family: &quot;Helvetica Neue&quot;, sans-serif; font-size: 12px; font-weight: 200;" fill="rgb(50, 49, 63)" stroke="none" stroke-width="1px">300</text><text x="0" y="91.06917109772459" dx="0em" dy="0.3em" style="text-anchor: end; visibility: hidden; font-family: &quot;Helvetica Neue&quot;, sans-serif; font-size: 12px; font-weight: 200;" fill="rgb(50, 49, 63)" stroke="none" stroke-width="1px">400</text><text x="0" y="69.52748825018794" dx="0em" dy="0.3em" style="text-anchor: end; visibility: inherit; font-family: &quot;Helvetica Neue&quot;, sans-serif; font-size: 12px; font-weight: 200;" fill="rgb(50, 49, 63)" stroke="none" stroke-width="1px">500</text><text x="0" y="47.985805402651266" dx="0em" dy="0.3em" style="text-anchor: end; visibility: hidden; font-family: &quot;Helvetica Neue&quot;, sans-serif; font-size: 12px; font-weight: 200;" fill="rgb(50, 49, 63)" stroke="none" stroke-width="1px">600</text><text x="0" y="26.444122555114603" dx="0em" dy="0.3em" style="text-anchor: end; visibility: inherit; font-family: &quot;Helvetica Neue&quot;, sans-serif; font-size: 12px; font-weight: 200;" fill="rgb(50, 49, 63)" stroke="none" stroke-width="1px">700</text><text x="0" y="4.902439707577969" dx="0em" dy="0.3em" style="text-anchor: end; visibility: hidden; font-family: &quot;Helvetica Neue&quot;, sans-serif; font-size: 12px; font-weight: 200;" fill="rgb(50, 49, 63)" stroke="none" stroke-width="1px">800</text></g><line x1="37" y1="0" x2="37" y2="177" fill="rgb(0, 0, 0)" stroke="rgb(204, 204, 204)" stroke-width="1px"></line></g></g><g transform="translate(37, 0)" clip-path="url(#clip_0)"><clipPath id="clip_0"><rect width="293" height="177"></rect></clipPath><g><g><g><line x1="25.362468856830212" y1="0" x2="25.362468856830212" y2="177" fill="rgb(0, 0, 0)" stroke="rgb(60, 60, 60)" stroke-width="1px" opacity="0.25"></line><line x1="51.41496577111556" y1="0" x2="51.41496577111556" y2="177" fill="rgb(0, 0, 0)" stroke="rgb(60, 60, 60)" stroke-width="1px" opacity="0.25"></line><line x1="77.4674626854009" y1="0" x2="77.4674626854009" y2="177" fill="rgb(0, 0, 0)" stroke="rgb(60, 60, 60)" stroke-width="1px" opacity="0.25"></line><line x1="103.51995959968626" y1="0" x2="103.51995959968626" y2="177" fill="rgb(0, 0, 0)" stroke="rgb(60, 60, 60)" stroke-width="1px" opacity="0.25"></line><line x1="129.57245651397162" y1="0" x2="129.57245651397162" y2="177" fill="rgb(0, 0, 0)" stroke="rgb(60, 60, 60)" stroke-width="1px" opacity="0.25"></line><line x1="155.62495342825696" y1="0" x2="155.62495342825696" y2="177" fill="rgb(0, 0, 0)" stroke="rgb(60, 60, 60)" stroke-width="1px" opacity="0.25"></line><line x1="181.6774503425423" y1="0" x2="181.6774503425423" y2="177" fill="rgb(0, 0, 0)" stroke="rgb(60, 60, 60)" stroke-width="1px" opacity="0.25"></line><line x1="207.72994725682764" y1="0" x2="207.72994725682764" y2="177" fill="rgb(0, 0, 0)" stroke="rgb(60, 60, 60)" stroke-width="1px" opacity="0.25"></line><line x1="233.78244417111299" y1="0" x2="233.78244417111299" y2="177" fill="rgb(0, 0, 0)" stroke="rgb(60, 60, 60)" stroke-width="1px" opacity="0.25"></line><line x1="259.8349410853983" y1="0" x2="259.8349410853983" y2="177" fill="rgb(0, 0, 0)" stroke="rgb(60, 60, 60)" stroke-width="1px" opacity="0.25"></line><line x1="285.8874379996837" y1="0" x2="285.8874379996837" y2="177" fill="rgb(0, 0, 0)" stroke="rgb(60, 60, 60)" stroke-width="1px" opacity="0.25"></line></g><g><line x1="0" y1="155.69421964033458" x2="293" y2="155.69421964033458" fill="rgb(0, 0, 0)" stroke="rgb(60, 60, 60)" stroke-width="1px" opacity="0.25"></line><line x1="0" y1="134.15253679279792" x2="293" y2="134.15253679279792" fill="rgb(0, 0, 0)" stroke="rgb(60, 60, 60)" stroke-width="1px" opacity="0.25"></line><line x1="0" y1="112.61085394526125" x2="293" y2="112.61085394526125" fill="rgb(0, 0, 0)" stroke="rgb(60, 60, 60)" stroke-width="1px" opacity="0.25"></line><line x1="0" y1="91.06917109772459" x2="293" y2="91.06917109772459" fill="rgb(0, 0, 0)" stroke="rgb(60, 60, 60)" stroke-width="1px" opacity="0.25"></line><line x1="0" y1="69.52748825018794" x2="293" y2="69.52748825018794" fill="rgb(0, 0, 0)" stroke="rgb(60, 60, 60)" stroke-width="1px" opacity="0.25"></line><line x1="0" y1="47.985805402651266" x2="293" y2="47.985805402651266" fill="rgb(0, 0, 0)" stroke="rgb(60, 60, 60)" stroke-width="1px" opacity="0.25"></line><line x1="0" y1="26.444122555114603" x2="293" y2="26.444122555114603" fill="rgb(0, 0, 0)" stroke="rgb(60, 60, 60)" stroke-width="1px" opacity="0.25"></line><line x1="0" y1="4.902439707577969" x2="293" y2="4.902439707577969" fill="rgb(0, 0, 0)" stroke="rgb(60, 60, 60)" stroke-width="1px" opacity="0.25"></line></g></g></g><g><g><line x1="0" y1="177.23590248787124" x2="293" y2="177.23590248787124" fill="rgb(0, 0, 0)" stroke="rgb(153, 153, 153)" stroke-width="1.5px"></line></g></g><g><g><line x1="51.41496577111556" y1="0" x2="51.41496577111556" y2="177" fill="rgb(0, 0, 0)" stroke="rgb(153, 153, 153)" stroke-width="1.5px"></line></g></g><g><g><g><g><g><path stroke="rgb(255, 112, 67)" stroke-width="2px" d="M51.416268395961275,-44.97570709231968L51.5465308805327,21.74440977198671L51.67679336510413,36.34445792548749L51.80705584967556,69.31263708001414L51.93731833424698,79.94888182931408L52.067580818818406,94.45374758735302L52.19784330338983,105.37271050367562L52.328105787961256,106.53445957489822L52.458368272532695,113.26535635537931L52.58863075710412,116.30359786342258L52.718893241675545,113.68798080729695L52.84915572624697,118.13888419416699L52.979418210818395,121.34338861917436L53.10968069538983,124.33917990091132L53.23994317996125,127.54876864038326L53.370205664532676,130.01484673208432L53.5004681491041,131.13456111720444L53.630730633675526,133.06319315566452L53.76099311824695,134.82660515529062L53.8834398537441,134.05455302008212L54.013702338315525,134.71056820603172L54.14396482288695,134.9961442559779L54.274227307458375,136.70265685302945L54.4044897920298,136.17708185637503L54.53475227660123,136.89803717486L54.665014761172664,137.81561349798332L54.79527724574409,138.32521786855773L54.92553973031551,139.59768772476102L55.05580221488694,140.54708215100433L55.18606469945836,140.7853590061376L55.316327184029795,141.11577143363724L55.44658966860122,138.31653009354918L55.576852153172645,138.9509707484736L55.70711463774407,139.86088360758225L55.837377122315495,140.75613567564466L55.96763960688693,141.3327234136587L56.09790209145836,141.35466157605438L56.22816457602978,141.46814804062697L56.35842706060121,141.10365075739392L56.48868954517263,141.42516645409717L56.61895202974406,140.64774108019665L56.68538589687549,140.94444191794958L57.07617335058977,141.47382046481937L57.466960804304044,141.63251405363943L57.85774825801833,141.84480930099392L58.24853571173261,142.15537478708552L58.63932316544689,142.50001373099377L59.030110619161164,142.95171499387402L59.42089807287545,143.37954146888396L59.81168552658973,143.50709222054115L60.20247298030401,143.5429203992873L60.59326043401829,143.8303832957335L60.98404788773257,144.09572187372066L61.37483534144685,144.38682170329102L61.76562279516113,144.5317845316185L62.15641024887541,144.70096933452646L62.54719770258969,144.97003908923602L62.93798515630397,144.9130438607308L63.328772610018255,144.98663976092303L63.71956006373253,145.11320088688785L64.11034751744681,145.0739197326682L64.5011349711611,145.1433840579498L64.89192242487537,145.13177653049962L65.28270987858964,144.87340355330153L65.67349733230394,145.09176921290276L66.06428478601822,145.09801273917657L66.45507223973249,145.3071143328393L66.84585969344678,145.52367832634624L67.23664714716105,145.76337722316174L67.62743460087533,145.8028165622179L68.01822205458961,145.93839561242L68.4090095083039,145.98500419657572L68.79979696201818,146.06764285763117L69.19058441573246,146.2216873189986L69.58137186944673,146.13075280876922L69.97215932316102,146.20815524295696L70.36294677687529,146.47118965124002L70.75373423058957,146.73163950991648L71.14452168430385,146.82698441544647L71.53530913801814,146.9554469783356L71.92609659173242,146.9979679611626L72.3168840454467,147.0827852863705L72.70767149916098,147.1216396889718L73.09845895287526,147.35506493561635L73.48924640658953,147.43223795573522L73.88003386030381,147.51668669184497L74.27082131401811,147.68817791105948L74.66160876773237,147.3847109022885L75.05239622144666,147.4988049517405L75.44318367516094,147.63910371404884L75.83397112887522,147.7737062726742L76.22475858258949,147.9868109059235L76.61554603630377,148.08740591696403L77.00633349001806,148.24222648574028L77.39712094373235,148.3765976633467L77.78790839744663,148.40823887534577L78.1786958511609,148.55787365246593L78.56948330487518,148.7409970385898L78.96027075858946,148.7333669624436L79.35105821230374,148.75101689487406L79.74184566601801,148.78620085279715L80.1326331197323,148.6839991868119L80.52342057344659,148.61771357302146L80.91420802716087,148.70900495749717L81.30499548087514,148.79369036077287L81.69578293458942,148.8738609558961L82.0865703883037,148.91787351649072L82.477357842018,149.0015071248601L82.86814529573226,149.1075699204333L83.25893274944654,149.25718748039864L83.64972020316083,149.37876692756032L84.0405076568751,149.50950386765822L84.43129511058937,149.6642195213092L84.82208256430366,149.75797810364685L85.21287001801794,149.78331830565426L85.60365747173223,149.82326523540263L85.9944449254465,149.83649852351974L86.38523237916078,149.8099087237984L86.77601983287506,149.75251707408216L87.16680728658935,149.81017668744317L87.55759474030361,149.8509967819591L87.9483821940179,149.88909850336103L88.33916964773219,149.92208189372593L88.72995710144647,150.00722626118784L89.12074455516075,150.08580109173317L89.51153200887502,150.17643770702205L89.9023194625893,150.2855928558487L90.29310691630359,150.35994208296233L90.68389437001787,150.34872117014848L91.07468182373213,150.3040476271389L91.46546927744643,150.37512136254898L91.85625673116071,150.3096699639852L92.247044184875,150.37590520963954L92.63783163858926,150.3127026699536L93.02861909230354,150.3691619178438L93.41940654601783,150.46122778756782L93.81019399973212,150.5586908091368L94.20098145344639,150.57442243387953L94.59176890716067,150.5325716911629L94.98255636087495,150.52892790789298L95.37334381458923,150.53051575804514L95.7641312683035,150.57358283678914L96.15491872201778,150.59024585140423L96.54570617573206,150.59046870275688L96.93649362944636,150.68303163326536L97.32728108316063,150.73019787819524L97.71806853687491,150.7785535707754L98.10885599058919,150.85900011640513L98.49964344430347,150.82357055926335L98.89043089801774,150.87169709207643L99.28121835173202,150.90879763520925L99.6720058054463,150.89736577743935L100.0627932591606,150.924071431458L100.45358071287488,150.97991126058812L100.84436816658915,151.02904476668834L101.23515562030343,151.09042741693042L101.62594307401771,151.11783618112935L102.016730527732,151.1671520463874L102.40751798144626,151.22777193262323L102.79830543516056,151.21487146507525L103.18909288887484,151.21682615044296L103.57988034258912,151.22036003077662L103.97066779630339,151.2182100935919L104.36145525001767,151.16165714272609L104.75224270373195,151.09920551554347L105.14303015744623,151.18711111194412L105.53381761116052,151.19020843966655L105.9246050648748,151.24757568967297L106.31539251858908,151.2884466682069L106.70617997230336,151.30860827033317L107.09696742601763,151.34332459369273L107.48775487973191,151.2522921482436L107.87854233344619,151.31598029363803L108.26932978716049,151.3404667737045L108.66011724087475,151.3721488097358L109.05090469458904,151.45162903619047L109.44169214830332,151.51446542005158L109.8324796020176,151.58353266157485L110.22326705573187,151.50434871260958L110.61405450944615,151.5689915221305L111.00484196316043,151.58122639667465L111.39562941687473,151.4503948663425L111.78641687058901,151.4475629012378L112.17720432430328,151.35783801834756L112.56799177801756,151.31063149037232L112.95877923173184,151.37818183275743L113.34956668544612,151.40638085143712L113.74035413916039,151.43726029758534L114.13114159287468,151.40870430049333L114.52192904658897,151.40617691085546L114.91271650030325,151.47507850310657L115.30350395401751,151.45480971159998L115.6942914077318,151.4638264805483L116.08507886144608,151.40435194624965L116.47586631516036,151.39391787398853L116.86665376887463,151.44649224689033L117.25744122258892,151.50367211183678L117.6482286763032,151.50531151431977L118.03901613001749,151.55328993480023L118.42980358373175,151.57937693706097L118.82059103744604,151.3843181084876L119.21137849116032,151.4128398968997L119.60216594487461,151.4531320390276L119.99295339858888,151.4292651497305L120.38374085230316,151.43366838898967L120.77452830601744,151.4810180477416L120.90479079058888,151.50724928425012L121.29557824430314,151.48050051629025L121.68636569801743,151.50850756222064L122.07715315173171,151.5252779732874L122.467940605446,151.58184131084215L122.85872805916027,151.5813719007051L123.24951551287455,151.59569815869054L123.64030296658883,151.56293665406085L124.03109042030312,151.5804859257191L124.42187787401738,151.48564381370733L124.81266532773166,151.51891198938594L125.20345278144595,151.5493666044472L125.59424023516024,151.5896225802225L125.98502768887451,151.54161168036964L126.37581514258879,151.51968912843802L126.76660259630307,151.551576997045L127.15739005001736,151.5996734150266L127.54817750373162,151.6256456132911L127.9389649574459,151.63000054938857L128.3297524111602,151.6030723517861L128.72053986487447,151.64087514771143L129.11132731858874,151.49544135547717L129.50211477230303,151.51814417492653L129.89290222601733,151.51424880634414L130.2836896797316,151.55523349329857L130.6744771334459,151.5642562080476L131.06526458716016,151.61291851589013L131.45605204087443,151.6245799775242L131.84683949458872,151.67861442440625L132.237626948303,151.69077005164218L132.62841440201728,151.7156080229651L133.01920185573155,151.73793968534085L133.40998930944585,151.75335727550095L133.80077676316012,151.8208154000775L134.19156421687438,151.84571496383907L134.58235167058868,151.77966525310606L134.97313912430295,151.79589419014405L135.36392657801724,151.86000453445104L135.7547140317315,151.83322194911304L136.1455014854458,151.869560825179L136.53628893916007,151.85481555634658L136.92707639287437,151.8552424990305L137.31786384658864,151.84456414742465L137.7086513003029,151.89129604033954L138.0994387540172,151.90065567390695L138.4902262077315,151.9257122754024L138.88101366144576,151.9668978775841L139.27180111516003,152.03335277253257L139.66258856887433,152.0721093120308L140.0533760225886,152.12581285610307L140.44416347630286,152.12035167225284L140.83495093001716,152.10034133925572L141.22573838373145,152.1574189425144L141.61652583744572,152.16677606123116L142.00731329116,152.20595725787194L142.39810074487428,152.2635712307285L142.78888819858855,152.2757710252213L143.17967565230285,152.31442532241275L143.57046310601712,152.27190510529368L143.96125055973138,152.2209771595403L144.35203801344568,152.2437536776086L144.74282546715997,152.30440631284992L145.13361292087424,152.35614399428394L145.5244003745885,152.32390991703093L145.9151878283028,152.35353312578692L146.30597528201707,152.34266567014635L146.69676273573137,152.3941778415267L147.08755018944566,152.39995142157647L147.47833764315993,152.42680714271L147.8691250968742,152.4470947672237L148.25991255058847,152.51493995856353L148.65070000430276,152.5348612406712L149.04148745801703,152.5697830878997L149.43227491173133,152.58236210357296L149.82306236544562,152.5831840102827L150.2138498191599,152.5733283960259L150.60463727287419,152.55920928737496L150.99542472658842,152.54975830253835L151.38621218030272,152.58500130147598L151.776999634017,152.60771492161868L152.16778708773128,152.6537968657325L152.55857454144558,152.67254198821993L152.94936199515985,152.66930181221954L153.34014944887414,152.69801281106436L153.7309369025884,152.74583947396783L154.1217243563027,152.58723555052507L154.51251181001695,152.6252653494881L154.90329926373124,152.66807211931734L155.2940867174455,152.67726161646337L155.6848741711598,152.7422209562788L156.0756616248741,152.76010435579343L156.46644907858837,152.7717247784377L156.85723653230266,152.77321811471106L157.24802398601693,152.78895021114465L157.6388114397312,152.83033915762633L158.02959889344547,152.860149120568L158.42038634715976,152.8887953651963L158.81117380087406,152.90857418913887L159.20196125458833,152.93684411651526L159.59274870830262,152.89402514215587L159.9835361620169,152.9252543273363L160.37432361573119,152.94176113871538L160.76511106944542,152.89893937261326L161.15589852315972,152.91996506917238L161.54668597687402,152.90435475371763L161.93747343058828,152.95716871539713L162.32826088430258,152.97063142110687L162.71904833801685,153.02098487799046L163.10983579173114,153.04769432567576L163.5006232454454,153.00308153282944L163.89141069915968,153.0360486075765L164.28219815287397,153.0415018867861L164.67298560658824,153.06176688133104L165.06377306030254,153.09667705332478L165.4545605140168,153.1382187235639L165.8453479677311,153.1583496040527L166.23613542144537,153.20712304138246L166.62692287515966,153.210024421409L167.01771032887396,153.2205968915923L167.4084977825882,153.22167991984333L167.7992852363025,153.26298795647705L168.19007269001676,153.29142862820987L168.58086014373106,153.2433215694065L168.97164759744533,153.2662069657274L169.36243505115962,153.29568126839754L169.75322250487392,153.31350573166418L170.14400995858819,153.31062579321758L170.53479741230245,153.3238271062619L170.92558486601672,153.33868684365893L171.31637231973102,153.397573113834L171.70715977344528,153.3852825716465L172.09794722715958,153.36376824382512L172.48873468087388,153.4045483600735L172.87952213458814,153.44127375110793L173.27030958830244,153.47520038404005L173.66109704201668,153.48990691103083L174.05188449573097,153.5031165598086L174.44267194944524,153.53571549207348L174.83345940315954,153.51916435605355L175.2242468568738,153.48766138359014L175.6150343105881,153.48142193390785L176.0058217643024,153.51574614912937L176.39660921801666,153.52757839792756L176.78739667173096,153.57306224454098L177.1781841254452,153.6117867889994L177.5689715791595,153.61827565907885L177.95975903287376,153.59695893917825L178.35054648658806,153.5978478150978L178.74133394030235,153.62668685108687L179.13212139401662,153.65155101012806L179.52290884773092,153.65373090283802L179.91369630144519,153.66467068738888L180.30448375515945,153.6972626018763L180.69527120887372,153.67864803164576L181.08605866258802,153.69154357429358L181.4768461163023,153.68484263711787L181.86763357001658,153.6975164725941L182.25842102373088,153.68722126774284L182.64920847744514,153.67867082894176L183.03999593115944,153.70784044867298L183.43078338487368,153.7411190898139L183.82157083858797,153.73732588361332L184.21235829230227,153.75154185770316L184.60314574601654,153.7685333097016L184.99393319973083,153.79866507333284L185.3847206534451,153.82734373185787L185.7755081071594,153.84454577992872L186.16629556087366,153.8843024217334L186.55708301458793,153.82713199053023L186.9478704683022,153.85614660165714L187.3386579220165,153.87297240779137L187.7294453757308,153.9033869830811L188.12023282944506,153.91824257546943L188.51102028315935,153.91359904097789L188.90180773687362,153.93932026209447L189.29259519058792,153.93870222183506L189.6833826443022,153.96210725276376L190.07417009801645,153.97894008658008L190.46495755173075,153.96067617673637L190.85574500544502,153.9521457957925L191.2465324591593,153.9768433720805L191.63731991287358,153.9848219472274L192.02810736658788,153.99891968682306L192.41889482030217,153.98414458329648L192.80968227401644,154.01325144759045L193.2004697277307,154.02622271884647L193.59125718144497,153.93940354175433L193.98204463515927,153.92472360818795L194.37283208887354,153.97050128358015L194.76361954258783,153.96723427810446L195.15440699630213,153.99030236058138L195.5451944500164,154.01486796349482L195.9359819037307,154.0337577573469L196.32676935744493,154.0703043962799L196.71755681115923,154.05765034898081L197.1083442648735,154.06916329278118L197.4991317185878,154.0789765510913L197.88991917230206,154.09892078308692L198.28070662601635,154.09756227262142L198.67149407973065,154.11931215907185L199.06228153344492,154.11416379476367L199.4530689871592,154.11167773469302L199.84385644087345,154.13930332428814L200.23464389458775,154.16430266079112L200.62543134830202,154.16760454702575L201.0162188020163,154.19076107269254L201.4070062557306,154.19995114458257L201.79779370944487,154.21644005977902L202.18858116315917,154.2487903511014L202.57936861687344,154.26439704870677L202.9701560705877,154.30357619464843L203.36094352430197,154.33012865434088L203.75173097801627,154.36055462982742L204.14251843173056,154.35726263385223L204.53330588544483,154.3780494401005L204.92409333915913,154.3821520662432L205.3148807928734,154.40073201546986L205.7056682465877,154.42731914915572L206.09645570030193,154.41875099510227L206.48724315401623,154.40741571964955L206.87803060773052,154.40632280640315L207.2688180614448,154.3693423677545L207.6596055151591,154.39199802311796L208.05039296887335,154.40742055997632L208.44118042258765,154.3914309794914L208.83196787630192,154.38170397799735L209.22275533001618,154.4070036406068L209.61354278373045,154.41144097194908L210.00433023744475,154.43970789719333L210.39511769115904,154.4746775553805L210.7859051448733,154.48752675455074L211.1766925985876,154.47204281973626L211.56748005230187,154.46462303359013L211.95826750601617,154.49315456492187L212.34905495973047,154.5077891312792L212.7398424134447,154.51019432779256L213.130629867159,154.50809612451067L213.52141732087327,154.52790022227532L213.91220477458756,154.5634599036988L214.30299222830183,154.58901744603668L214.69377968201613,154.59784971529325L215.08456713573042,154.55406906205093L215.4753545894447,154.59337375812498L215.86614204315896,154.6127389103057L216.25692949687323,154.55331818449423L216.64771695058752,154.57125230303734L217.0385044043018,154.56623141157823L217.4292918580161,154.59079877566106L217.82007931173035,154.60341238418422L218.21086676544465,154.62529712948304L218.60165421915895,154.6358750311L218.99244167287318,154.60886066642342L219.38322912658748,154.63169890162374L219.77401658030175,154.63905204906843L220.16480403401604,154.65367066790148L220.5555914877303,154.66100640187545L220.9463789414446,154.6401526564816L221.3371663951589,154.65225370001377L221.72795384887317,154.6661573513336L222.11874130258747,154.68686149841238L222.5095287563017,154.69380943911716L222.900316210016,154.70511724917938L223.29110366373027,154.69488415317497L223.68189111744456,154.71204560797833L224.07267857115886,154.69128440064105L224.46346602487313,154.7151256398308L224.85425347858742,154.73754493716055L225.2450409323017,154.74405191377014L225.63582838601596,154.7823399378606L226.02661583973023,154.80168508212913L226.41740329344452,154.7952108068282L226.80819074715882,154.7815397562918L227.19897820087309,154.80093979775225L227.58976565458738,154.8122560255216L227.98055310830165,154.83854192540812L228.37134056201594,154.86516567409615L228.76212801573018,154.8499499795687L229.15291546944448,154.84908748967993L229.54370292315875,154.864797862206L229.93449037687304,154.88313946698344L230.32527783058734,154.89942484975595L230.7160652843016,154.8984610267526L231.1068527380159,154.88536608088353L231.49764019173017,154.9149527553076L231.88842764544444,154.92384081144533L232.2792150991587,154.95613402063424L232.670002552873,154.9763591395707L233.0607900065873,154.9754451891531L233.45157746030156,154.97948049388904L233.84236491401586,154.98042221047413L234.23315236773013,155.00607410273062L234.62393982144442,155.0273719208593L235.01472727515872,155.04465746557383L235.40551472887296,155.0732361529731L235.79630218258725,155.08904270471916L236.18708963630152,155.11171403926826L236.57787709001582,155.11070231234388L236.96866454373009,155.11911639607428L237.35945199744438,155.14314324014322L237.75023945115865,155.14463894048097L238.14102690487294,155.16241148170994L238.5318143585872,155.19480507386194L238.92260181230148,155.20157668922116L239.31338926601578,155.19395288383765L239.70417671973004,155.1920693332198L240.09496417344434,155.20216693702028L240.4857516271586,155.21486269991468L240.8765390808729,155.23265997894313L241.2673265345872,155.2546916670504L241.65811398830144,155.27871032391337L242.04890144201573,155.29055287248764L242.43968889573,155.31098388421836L242.8304763494443,155.33432605442874L243.22126380315856,155.32027125142764L243.61205125687286,155.34908357410808" style="fill: none;" fill="none"></path></g></g></g></g><g opacity="0.2"><g><g><g><path stroke="rgb(255, 112, 67)" stroke-width="2px" d="M51.416268395961275,-44.97570709231968L51.5465308805327,88.39780651943325L51.67679336510413,65.5007686880728L51.80705584967556,168.01949730841935L51.93731833424698,122.38760468829483L52.067580818818406,166.76079327101417L52.19784330338983,170.65757156213039L52.328105787961256,114.63423907615478L52.458368272532695,166.87078286321452L52.58863075710412,143.51141451966868L52.718893241675545,87.67523846925586L52.84915572624697,166.80603882527384L52.979418210818395,159.5484045752727L53.10968069538983,163.01293703208628L53.23994317996125,172.14746016675295L53.370205664532676,166.71146526282126L53.5004681491041,148.89846887052613L53.630730633675526,165.55642498621995L53.76099311824695,166.26817962832428L53.8834398537441,119.53137594602822L54.013702338315525,147.69397732323392L54.14396482288695,140.92771094294304L54.274227307458375,173.8171934809954L54.4044897920298,124.23285743110293L54.53475227660123,153.98632733827898L54.665014761172664,160.45918131187065L54.79527724574409,151.3975420596365L54.92553973031551,173.47752291861556L55.05580221488694,166.74811859922156L55.18606469945836,147.59269828089106L55.316327184029795,150.8759773431703L55.44658966860122,52.91468811800527L55.576852153172645,158.9215227370297L55.70711463774407,169.38294981661065L55.837377122315495,170.6678438478373L55.96763960688693,161.154127058L56.09790209145836,142.12999362627139L56.22816457602978,145.5883152966866L56.35842706060121,127.5195451123264L56.48868954517263,153.71664378419152L56.61895202974406,110.1800057270346L56.68538589687549,152.85709001125548L57.07617335058977,163.23615884193396L57.466960804304044,148.3082946041825L57.85774825801833,150.97860898599103L58.24853571173261,155.8140505103739L58.63932316544689,157.98637782633045L59.030110619161164,163.67988082567382L59.42089807287545,163.4198807734279L59.81168552658973,149.60330026899373L60.20247298030401,145.28938566057766L60.59326043401829,158.11609106170812L60.98404788773257,157.533830247735L61.37483534144685,159.40567810710797L61.76562279516113,152.14826162085328L62.15641024887541,153.7502172016422L62.54719770258969,159.61627783716216L62.93798515630397,141.75679422637765L63.328772610018255,149.131638785711L63.71956006373253,152.36056401687958L64.11034751744681,142.78754153051264L64.5011349711611,149.25193969674265L64.89192242487537,144.43432521656808L65.28270987858964,129.10618327336596L65.67349733230394,158.62236301092452L66.06428478601822,145.49073084228326L66.45507223973249,158.6553546293847L66.84585969344678,159.5508123027333L67.23664714716105,161.51292282412942L67.62743460087533,148.4310081731747L68.01822205458961,155.09963422006314L68.4090095083039,149.17781456095548L68.79979696201818,151.80550312746146L69.19058441573246,157.06066989247682L69.58137186944673,139.64791093988305L69.97215932316102,151.79808436858283L70.36294677687529,165.7110561464399L70.75373423058957,166.02359560582613L71.14452168430385,153.97752803942296L71.53530913801814,156.7084021082406L71.92609659173242,150.2654368251599L72.3168840454467,153.67867564781275L72.70767149916098,150.17897886557452L73.09845895287526,165.93743840673582L73.48924640658953,153.6467325823354L73.88003386030381,154.3946351845983L74.27082131401811,161.81267585372487L74.66160876773237,122.11214751880183L75.05239622144666,157.10497207775197L75.44318367516094,159.57992690475695L75.83397112887522,159.3527376859742L76.22475858258949,166.5134530990611L76.61554603630377,156.92456672920372L77.00633349001806,161.9841076924199L77.39712094373235,160.42569993041846L77.78790839744663,151.27428777915316L78.1786958511609,162.24766592210761L78.56948330487518,165.66078312576244L78.96027075858946,148.0214644148756L79.35105821230374,150.41377913273274L79.74184566601801,152.13264015360886L80.1326331197323,138.87094961459562L80.52342057344659,142.19334397623487L80.91420802716087,157.63927391900975L81.30499548087514,157.15406835244863L81.69578293458942,156.86070032024872L82.0865703883037,153.3421230103194L82.477357842018,157.48370349855517L82.86814529573226,159.95975454004224L83.25893274944654,164.69998893273288L83.64972020316083,162.03651890656238L84.0405076568751,163.2376462094096L84.43129511058937,166.0485817359173L84.82208256430366,159.770732321135L85.21287001801794,152.51208156640047L85.60365747173223,154.16056134442817L85.9944449254465,151.28510529597617L86.38523237916078,146.8755537806249L86.77601983287506,143.36797970301555L87.16680728658935,156.27571129632025L87.55759474030361,154.46447078545563L87.9483821940179,154.22910022380674L88.33916964773219,153.70827015182851L88.72995710144647,159.85629786023497L89.12074455516075,159.24434886274764L89.51153200887502,160.82086799445275L89.9023194625893,163.20107997850792L90.29310691630359,159.22259056660366L90.68389437001787,149.0012829418439L91.07468182373213,144.90026074594448L91.46546927744643,159.0347253716775L91.85625673116071,142.27767853385498L92.247044184875,158.56212873691007L92.63783163858926,142.44597293110135L93.02861909230354,157.44593915617307L93.41940654601783,162.08148342232667L93.81019399973212,162.94522154619426L94.20098145344639,152.58746397966706L94.59176890716067,145.14083627200822L94.98255636087495,150.05631953208146L95.37334381458923,150.7378444574304L95.7641312683035,156.23433618449724L96.15491872201778,152.7948950417731L96.54570617573206,150.62014685035615L96.93649362944636,163.09020947032198L97.32728108316063,157.0931799654449L97.71806853687491,157.34378248484455L98.10885599058919,161.85063248560382L98.49964344430347,145.95217961673308L98.89043089801774,157.53032137529243L99.28121835173202,156.07383362062336L99.6720058054463,149.29602494002134L100.0627932591606,154.68785858880057L100.45358071287488,158.89766569142003L100.84436816658915,158.0380001604858L101.23515562030343,159.89930332403134L101.62594307401771,155.07464973347194L102.016730527732,158.3286892877296L102.40751798144626,160.0826094500321L102.79830543516056,149.3194776846376L103.18909288887484,151.50568271436708L103.57988034258912,151.7455926229417L103.97066779630339,150.8968415753289L104.36145525001767,142.66018671759642L104.75224270373195,141.6580001559941L105.14303015744623,164.55088157592257L105.53381761116052,151.6637003062816L105.9246050648748,160.0659098468053L106.31539251858908,157.60556737806127L106.70617997230336,154.44186115632556L107.09696742601763,156.76776861426924L107.48775487973191,136.95170650299812L107.87854233344619,161.37457957039297L108.26932978716049,155.2283383464573L108.66011724087475,156.42912380131014L109.05090469458904,164.2046972068368L109.44169214830332,161.64962257789273L109.8324796020176,162.78155031437223L110.22326705573187,138.5998214240318L110.61405450944615,162.15780756107785L111.00484196316043,153.5955786456724L111.39562941687473,129.8011043669957L111.78641687058901,150.97658419402416L112.17720432430328,136.36115094466075L112.56799177801756,143.38122631279882L112.95877923173184,162.7809274278824L113.34956668544612,156.18988937122447L113.74035413916039,156.70107045486057L114.13114159287468,146.51729708248666L114.52192904658897,150.97116393111284L114.91271650030325,163.3913578313946L115.30350395401751,147.93265296332874L115.6942914077318,153.03813303779327L116.08507886144608,140.97120781323136L116.47586631516036,149.5549583607847L116.86665376887463,160.7557508820182L117.25744122258892,161.6754156664707L117.6482286763032,151.79829144957944L118.03901613001749,160.16693743365232L118.42980358373175,156.2841983301814L118.82059103744604,116.0455453730631L119.21137849116032,156.60345313045778L119.60216594487461,158.8187234572117L119.99295339858888,147.04680647782288L120.38374085230316,152.2457852657576L120.77452830601744,160.25258021725102L120.90479079058888,156.3879524834838L121.29557824430314,146.48175803906815L121.68636569801743,156.76513901431227L122.07715315173171,154.68651584932255L122.467940605446,162.28992688041612L122.85872805916027,151.49212712658888L123.24951551287455,154.3310103701393L123.64030296658883,145.2813095017098L124.03109042030312,154.95951598635574L124.42187787401738,133.1477535012381L124.81266532773166,157.97817511796467L125.20345278144595,157.4868672360034L125.59424023516024,159.47038598804923L125.98502768887451,142.10413151069454L126.37581514258879,147.19279200643427L126.76660259630307,157.87091044871974L127.15739005001736,161.16963019324635L127.54817750373162,156.8142270715091L127.9389649574459,152.5034860615411L128.3297524111602,146.18048477199756L128.72053986487447,159.28345594460777L129.11132731858874,121.97724575400908L129.50211477230303,156.14412940147318L129.89290222601733,150.71742068326458L130.2836896797316,159.97153186084952L130.6744771334459,153.42425199097562L131.06526458716016,161.68303657584602L131.45605204087443,154.04702507928585L131.84683949458872,162.94599070418167L132.237626948303,154.23509571170865L132.62841440201728,156.9341220380474L133.01920185573155,156.44748991350963L133.40998930944585,155.01694151891616L133.80077676316012,166.15341320345206L134.19156421687438,157.1556247469232L134.58235167058868,137.64245968069608L134.97313912430295,155.28225665007508L135.36392657801724,165.6827082371537L135.7547140317315,146.0377007813338L136.1455014854458,159.76142025028736L136.53628893916007,148.64099816473885L136.92707639287437,151.9486306096196L137.31786384658864,149.50048291067603L137.7086513003029,162.1861743706137L138.0994387540172,153.96983974654876L138.4902262077315,157.4846008495405L138.88101366144576,161.13606499329552L139.27180111516003,166.87982622181656L139.66258856887433,160.76064193793817L140.0533760225886,164.20681074780222L140.44416347630286,150.88759195748025L140.83495093001716,147.5679110142966L141.22573838373145,165.12984470719962L141.61652583744572,154.30065492563597L142.00731329116,161.17138545121762L142.39810074487428,165.49115420653789L142.78888819858855,155.08610657178448L143.17967565230285,161.24851161795567L143.57046310601712,142.411646790663L143.96125055973138,140.3719351310366L144.35203801344568,157.56045823429932L144.74282546715997,166.50893676113503L145.13361292087424,164.51240806330208L145.5244003745885,144.72557642080267L145.9151878283028,159.35903393437118L146.30597528201707,149.76436819685836L146.69676273573137,164.6546496989747L147.08755018944566,153.77852155817908L147.47833764315993,158.85962195404252L147.8691250968742,157.32204555420023L148.25991255058847,168.86906106676884L148.65070000430276,157.35199669771015L149.04148745801703,161.0406253063571L149.43227491173133,155.64311500867075L149.82306236544562,152.78379319945475L150.2138498191599,150.1603514368793L150.60463727287419,149.0917411803638L150.99542472658842,150.22159975037715L151.38621218030272,161.2932986357229L151.776999634017,158.23716934822704L152.16778708773128,164.10958539814303L152.55857454144558,157.34657150429894L152.94936199515985,151.858946459587L153.34014944887414,159.90002317701953L153.7309369025884,164.77870025519502L154.1217243563027,112.56503316601096L154.51251181001695,162.25012131106743L154.90329926373124,163.53384845731318L155.2940867174455,155.01670814191996L155.6848741711598,169.32781614476272L156.0756616248741,157.3394420014156L156.46644907858837,155.7559577168244L156.85723653230266,153.1578291408348L157.24802398601693,156.85244008938386L157.6388114397312,163.55147006402487L158.02959889344547,160.60399173800127L158.42038634715976,160.35151069813236L158.81117380087406,158.07581873836705L159.20196125458833,160.34325704126738L159.59274870830262,141.64436239321725L159.9835361620169,161.15297003401892L160.37432361573119,157.30282646551467L160.76511106944542,141.5540520696949L161.15589852315972,158.50579448833182L161.54668597687402,148.74576471402466L161.93747343058828,167.06550638352846L162.32826088430258,156.57681363939363L162.71904833801685,166.54570842953336L163.10983579173114,160.24124664143648L163.5006232454454,140.95513767049428L163.89141069915968,161.9630298052648L164.28219815287397,154.52213791251208L164.67298560658824,158.57871822563862L165.06377306030254,162.62600947691718L165.4545605140168,164.50789336887593L165.8453479677311,158.68263672893832L166.23613542144537,166.62679953995655L166.62692287515966,154.01041940438478L167.01771032887396,156.1448377499616L167.4084977825882,153.52201723037598L167.7992852363025,164.74803583269673L168.19007269001676,161.2194134509318L168.58086014373106,139.7985804434178L168.97164759744533,159.67857963414278L169.36243505115962,161.57541855410685L169.75322250487392,158.33344228965183L170.14400995858819,152.49747742563943L170.53479741230245,157.06066824897687L170.92558486601672,157.55560990937866L171.31637231973102,170.15054154855136L171.70715977344528,149.87987830546837L172.09794722715958,147.21227734211547L172.48873468087388,165.09369510354108L172.87952213458814,163.99434235827863L173.27030958830244,163.24818761823715L173.66109704201668,157.73675976341468L174.05188449573097,157.32709274261765L174.44267194944524,162.99570000436833L174.83345940315954,148.70440768070134L175.2242468568738,144.30108009974825L175.6150343105881,151.6575223898827L176.0058217643024,163.57356692116332L176.39660921801666,157.00306521841935L176.78739667173096,166.9651123659211L177.1781841254452,165.04094368490422L177.5689715791595,155.53796716739117L177.95975903287376,147.27555209108016L178.35054648658806,153.86206559231215L178.74133394030235,162.21930897357157L179.13212139401662,161.07728521675728L179.52290884773092,154.3062872000438L179.91369630144519,156.9471763583338L180.30448375515945,163.4993160576282L180.69527120887372,148.06729834212567L181.08605866258802,157.58789153585047L181.4768461163023,151.6555058154157L181.86763357001658,157.5445310760599L182.25842102373088,150.55505603392118L182.64920847744514,151.07138455947305L183.03999593115944,162.62278164296998L183.43078338487368,163.93495119975037L183.82157083858797,152.57277273340745L184.21235829230227,158.12582879904878L184.60314574601654,159.00858714810516L184.99393319973083,163.11191517446682L185.3847206534451,162.7112479595225L185.7755081071594,159.18514999371624L186.16629556087366,166.25465362354558L186.55708301458793,135.9991240575842L186.9478704683022,162.92399081354162L187.3386579220165,159.14303859390526L187.7294453757308,163.450494247427L188.12023282944506,158.59157696942825L188.51102028315935,152.44963842842216L188.90180773687362,162.06600000908L189.29259519058792,153.74300881076013L189.6833826443022,161.38893882965803L190.07417009801645,159.33177155681724L190.46495755173075,148.14032561993082L190.85574500544502,151.22787698341253L191.2465324591593,161.88106517460588L191.63731991287358,156.54370533243537L192.02810736658788,158.5298997024374L192.41889482030217,149.2254497641761L192.80968227401644,163.40755452362959L193.2004697277307,158.2215002194834L193.59125718144497,125.80096348644571L193.98204463515927,149.1569914162962L194.37283208887354,168.86898710927005L194.76361954258783,152.9017767755243L195.15440699630213,161.52894037486732L195.5451944500164,162.05940793068785L195.9359819037307,160.2323158625826L196.32676935744493,166.08735436553292L196.71755681115923,149.8883406868299L197.1083442648735,157.87020538723127L197.4991317185878,157.32542459014493L197.88991917230206,160.71025058526266L198.28070662601635,153.6463217073421L198.67149407973065,161.35822181516062L199.06228153344492,152.39722885777968L199.4530689871592,153.2809437238204L199.84385644087345,163.388950103934L200.23464389458775,162.55122694114075L200.62543134830202,155.2775315876524L201.0162188020163,161.99016234632086L201.4070062557306,157.30136539403858L201.79779370944487,159.79193511428807L202.18858116315917,165.20896608290505L202.57936861687344,159.562200114047L202.9701560705877,167.62905266330776L203.36094352430197,163.37855496660407L203.75173097801627,164.74900714118084L204.14251843173056,153.23109965663596L204.53330588544483,161.50268874979685L204.92409333915913,155.79101192775087L205.3148807928734,160.793349230903L205.7056682465877,163.59230117735677L206.09645570030193,151.4595743226215L206.48724315401623,150.48515140606494L206.87803060773052,154.02743620310636L207.2688180614448,141.52499499017034L207.6596055151591,162.27570896214877L208.05039296887335,159.78419258591475L208.44118042258765,148.80657092602976L208.83196787630192,150.97792529000222L209.22275533001618,163.27655935827292L209.61354278373045,155.96995784832296L210.00433023744475,164.38616589986762L210.39511769115904,166.80229739758508L210.7859051448733,159.02547575382883L211.1766925985876,148.99358478796984L211.56748005230187,151.83459965098538L211.95826750601617,164.62485386621225L212.34905495973047,159.71402499806283L212.7398424134447,155.36738830518217L213.130629867159,153.75896390849908L213.52141732087327,161.6113717595186L213.91220477458756,167.30514757985748L214.30299222830183,163.76312902981172L214.69377968201613,157.7739258718066L215.08456713573042,138.78259176904132L215.4753545894447,168.77754523601624L215.86614204315896,161.61353953598314L216.25692949687323,133.03393126710046L216.64771695058752,161.0775662552527L217.0385044043018,152.7415092321466L217.4292918580161,163.53483044854713L217.82007931173035,159.20355061941518L218.21086676544465,162.62046759500785L218.60165421915895,158.5070106783119L218.99244167287318,144.70546326813175L219.38322912658748,163.01858081099394L219.77401658030175,157.34399285284113L220.16480403401604,160.04052598972066L220.5555914877303,157.36879655443528L220.9463789414446,146.92941456174364L221.3371663951589,159.1342672345488L221.72795384887317,159.8245651627542L222.11874130258747,162.38133013142058L222.5095287563017,157.28029408088335L222.900316210016,158.92172160052644L223.29110366373027,150.8726262467251L223.68189111744456,161.1329127603471L224.07267857115886,146.91061620905123L224.46346602487313,163.66497838966765L224.85425347858742,163.16759037955586L225.2450409323017,157.19484194328152L225.63582838601596,169.22698413441253L226.02661583973023,162.11191446782874L226.41740329344452,152.34466151113978L226.80819074715882,149.59848810107246L227.19897820087309,162.16802684391064L227.58976565458738,159.11655523533858L227.98055310830165,164.85304479822858L228.37134056201594,165.02483738516773L228.76212801573018,149.034218681305L229.15291546944448,154.51889528706513L229.54370292315875,160.8889746333384L229.93449037687304,161.9275581453452L230.32527783058734,161.16412939883634L230.7160652843016,154.52710292593085L231.1068527380159,149.83188646275363L231.49764019173017,166.3509060212207L231.88842764544444,158.3647295986399L232.2792150991587,167.47776520378312L232.670002552873,162.83097364556357L233.0607900065873,154.61994588291176L233.45157746030156,156.55155468830694L233.84236491401586,155.3478700995015L234.23315236773013,165.03078932032037L234.62393982144442,163.3634758543508L235.01472727515872,161.82083418759137L235.40551472887296,166.29383055415457L235.79630218258725,161.30461248953776L236.18708963630152,164.0404384237744L236.57787709001582,154.71163838991149L236.96866454373009,158.4430407288586L237.35945199744438,164.64928942381243L237.75023945115865,155.73731056612954L238.14102690487294,162.21549769713394L238.5318143585872,168.06980484259623L238.92260181230148,157.89706346379182L239.31338926601578,152.1546646967485L239.70417671973004,154.44004673235526L240.09496417344434,159.23977171532252L240.4857516271586,160.29896800399203L240.8765390808729,162.37035483860018L241.2673265345872,164.1037928824878L241.65811398830144,164.94023165005206L242.04890144201573,160.06129325538086L242.43968889573,163.55374466798764L242.8304763494443,164.76547665441137L243.22126380315856,149.6332185425042L243.61205125687286,167.02465719169683" style="fill: none;" fill="none"></path></g></g></g></g></g></g><g transform="translate(37, 177)" clip-path="url(#clip_1)"><clipPath id="clip_1"><rect width="293" height="23"></rect></clipPath><g><g><line x1="25.362468856830212" y1="0" x2="25.362468856830212" y2="5" style="visibility: inherit;" fill="rgb(0, 0, 0)" stroke="rgb(204, 204, 204)" stroke-width="1px"></line><line x1="51.41496577111556" y1="0" x2="51.41496577111556" y2="5" style="visibility: inherit;" fill="rgb(0, 0, 0)" stroke="rgb(204, 204, 204)" stroke-width="1px"></line><line x1="77.4674626854009" y1="0" x2="77.4674626854009" y2="5" style="visibility: inherit;" fill="rgb(0, 0, 0)" stroke="rgb(204, 204, 204)" stroke-width="1px"></line><line x1="103.51995959968626" y1="0" x2="103.51995959968626" y2="5" style="visibility: inherit;" fill="rgb(0, 0, 0)" stroke="rgb(204, 204, 204)" stroke-width="1px"></line><line x1="129.57245651397162" y1="0" x2="129.57245651397162" y2="5" style="visibility: inherit;" fill="rgb(0, 0, 0)" stroke="rgb(204, 204, 204)" stroke-width="1px"></line><line x1="155.62495342825696" y1="0" x2="155.62495342825696" y2="5" style="visibility: inherit;" fill="rgb(0, 0, 0)" stroke="rgb(204, 204, 204)" stroke-width="1px"></line><line x1="181.6774503425423" y1="0" x2="181.6774503425423" y2="5" style="visibility: inherit;" fill="rgb(0, 0, 0)" stroke="rgb(204, 204, 204)" stroke-width="1px"></line><line x1="207.72994725682764" y1="0" x2="207.72994725682764" y2="5" style="visibility: inherit;" fill="rgb(0, 0, 0)" stroke="rgb(204, 204, 204)" stroke-width="1px"></line><line x1="233.78244417111299" y1="0" x2="233.78244417111299" y2="5" style="visibility: inherit;" fill="rgb(0, 0, 0)" stroke="rgb(204, 204, 204)" stroke-width="1px"></line><line x1="259.8349410853983" y1="0" x2="259.8349410853983" y2="5" style="visibility: inherit;" fill="rgb(0, 0, 0)" stroke="rgb(204, 204, 204)" stroke-width="1px"></line><line x1="285.8874379996837" y1="0" x2="285.8874379996837" y2="5" style="visibility: inherit;" fill="rgb(0, 0, 0)" stroke="rgb(204, 204, 204)" stroke-width="1px"></line></g><g transform="translate(0, 8)"><text x="25.362468856830212" y="0" dx="0em" dy="0.95em" style="text-anchor: middle; visibility: inherit; font-family: &quot;Helvetica Neue&quot;, sans-serif; font-size: 12px; font-weight: 200;" fill="rgb(50, 49, 63)" stroke="none" stroke-width="1px">-20k</text><text x="51.41496577111556" y="0" dx="0em" dy="0.95em" style="text-anchor: middle; visibility: hidden; font-family: &quot;Helvetica Neue&quot;, sans-serif; font-size: 12px; font-weight: 200;" fill="rgb(50, 49, 63)" stroke="none" stroke-width="1px">0</text><text x="77.4674626854009" y="0" dx="0em" dy="0.95em" style="text-anchor: middle; visibility: inherit; font-family: &quot;Helvetica Neue&quot;, sans-serif; font-size: 12px; font-weight: 200;" fill="rgb(50, 49, 63)" stroke="none" stroke-width="1px">20k</text><text x="103.51995959968626" y="0" dx="0em" dy="0.95em" style="text-anchor: middle; visibility: hidden; font-family: &quot;Helvetica Neue&quot;, sans-serif; font-size: 12px; font-weight: 200;" fill="rgb(50, 49, 63)" stroke="none" stroke-width="1px">40k</text><text x="129.57245651397162" y="0" dx="0em" dy="0.95em" style="text-anchor: middle; visibility: inherit; font-family: &quot;Helvetica Neue&quot;, sans-serif; font-size: 12px; font-weight: 200;" fill="rgb(50, 49, 63)" stroke="none" stroke-width="1px">60k</text><text x="155.62495342825696" y="0" dx="0em" dy="0.95em" style="text-anchor: middle; visibility: hidden; font-family: &quot;Helvetica Neue&quot;, sans-serif; font-size: 12px; font-weight: 200;" fill="rgb(50, 49, 63)" stroke="none" stroke-width="1px">80k</text><text x="181.6774503425423" y="0" dx="0em" dy="0.95em" style="text-anchor: middle; visibility: inherit; font-family: &quot;Helvetica Neue&quot;, sans-serif; font-size: 12px; font-weight: 200;" fill="rgb(50, 49, 63)" stroke="none" stroke-width="1px">100k</text><text x="207.72994725682764" y="0" dx="0em" dy="0.95em" style="text-anchor: middle; visibility: hidden; font-family: &quot;Helvetica Neue&quot;, sans-serif; font-size: 12px; font-weight: 200;" fill="rgb(50, 49, 63)" stroke="none" stroke-width="1px">120k</text><text x="233.78244417111299" y="0" dx="0em" dy="0.95em" style="text-anchor: middle; visibility: inherit; font-family: &quot;Helvetica Neue&quot;, sans-serif; font-size: 12px; font-weight: 200;" fill="rgb(50, 49, 63)" stroke="none" stroke-width="1px">140k</text><text x="259.8349410853983" y="0" dx="0em" dy="0.95em" style="text-anchor: middle; visibility: hidden; font-family: &quot;Helvetica Neue&quot;, sans-serif; font-size: 12px; font-weight: 200;" fill="rgb(50, 49, 63)" stroke="none" stroke-width="1px">160k</text><text x="285.8874379996837" y="0" dx="0em" dy="0.95em" style="text-anchor: middle; visibility: hidden; font-family: &quot;Helvetica Neue&quot;, sans-serif; font-size: 12px; font-weight: 200;" fill="rgb(50, 49, 63)" stroke="none" stroke-width="1px">180k</text></g><line x1="0" y1="0" x2="293" y2="0" fill="rgb(0, 0, 0)" stroke="rgb(204, 204, 204)" stroke-width="1px"></line></g></g></g></g></svg>