<svg viewBox="0 0 330 200" xmlns="http://www.w3.org/2000/svg"><g><g><g><g><g><line x1="37" y1="157.25795388183548" x2="32" y2="157.25795388183548" style="visibility: inherit;" fill="rgb(0, 0, 0)" stroke="rgb(204, 204, 204)" stroke-width="1px"></line><line x1="37" y1="137.44772104892184" x2="32" y2="137.44772104892184" style="visibility: inherit;" fill="rgb(0, 0, 0)" stroke="rgb(204, 204, 204)" stroke-width="1px"></line><line x1="37" y1="117.6374882160082" x2="32" y2="117.6374882160082" style="visibility: inherit;" fill="rgb(0, 0, 0)" stroke="rgb(204, 204, 204)" stroke-width="1px"></line><line x1="37" y1="97.82725538309454" x2="32" y2="97.82725538309454" style="visibility: inherit;" fill="rgb(0, 0, 0)" stroke="rgb(204, 204, 204)" stroke-width="1px"></line><line x1="37" y1="78.01702255018088" x2="32" y2="78.01702255018088" style="visibility: inherit;" fill="rgb(0, 0, 0)" stroke="rgb(204, 204, 204)" stroke-width="1px"></line><line x1="37" y1="58.20678971726723" x2="32" y2="58.20678971726723" style="visibility: inherit;" fill="rgb(0, 0, 0)" stroke="rgb(204, 204, 204)" stroke-width="1px"></line><line x1="37" y1="38.39655688435357" x2="32" y2="38.39655688435357" style="visibility: inherit;" fill="rgb(0, 0, 0)" stroke="rgb(204, 204, 204)" stroke-width="1px"></line><line x1="37" y1="18.58632405143993" x2="32" y2="18.58632405143993" style="visibility: inherit;" fill="rgb(0, 0, 0)" stroke="rgb(204, 204, 204)" stroke-width="1px"></line></g><g transform="translate(27, 0)"><text x="0" y="157.25795388183548" dx="0em" dy="0.3em" style="text-anchor: end; visibility: inherit; font-family: &quot;Helvetica Neue&quot;, sans-serif; font-size: 12px; font-weight: 200;" fill="rgb(50, 49, 63)" stroke="none" stroke-width="1px">100</text><text x="0" y="137.44772104892184" dx="0em" dy="0.3em" style="text-anchor: end; visibility: hidden; font-family: &quot;Helvetica Neue&quot;, sans-serif; font-size: 12px; font-weight: 200;" fill="rgb(50, 49, 63)" stroke="none" stroke-width="1px">200</text><text x="0" y="117.6374882160082" dx="0em" dy="0.3em" style="text-anchor: end; visibility: inherit; font-family: &quot;Helvetica Neue&quot;, sans-serif; font-size: 12px; font-weight: 200;" fill="rgb(50, 49, 63)" stroke="none" stroke-width="1px">300</text><text x="0" y="97.82725538309454" dx="0em" dy="0.3em" style="text-anchor: end; visibility: hidden; font-family: &quot;Helvetica Neue&quot;, sans-serif; font-size: 12px; font-weight: 200;" fill="rgb(50, 49, 63)" stroke="none" stroke-width="1px">400</text><text x="0" y="78.01702255018088" dx="0em" dy="0.3em" style="text-anchor: end; visibility: inherit; font-family: &quot;Helvetica Neue&quot;, sans-serif; font-size: 12px; font-weight: 200;" fill="rgb(50, 49, 63)" stroke="none" stroke-width="1px">500</text><text x="0" y="58.20678971726723" dx="0em" dy="0.3em" style="text-anchor: end; visibility: hidden; font-family: &quot;Helvetica Neue&quot;, sans-serif; font-size: 12px; font-weight: 200;" fill="rgb(50, 49, 63)" stroke="none" stroke-width="1px">600</text><text x="0" y="38.39655688435357" dx="0em" dy="0.3em" style="text-anchor: end; visibility: inherit; font-family: &quot;Helvetica Neue&quot;, sans-serif; font-size: 12px; font-weight: 200;" fill="rgb(50, 49, 63)" stroke="none" stroke-width="1px">700</text><text x="0" y="18.58632405143993" dx="0em" dy="0.3em" style="text-anchor: end; visibility: hidden; font-family: &quot;Helvetica Neue&quot;, sans-serif; font-size: 12px; font-weight: 200;" fill="rgb(50, 49, 63)" stroke="none" stroke-width="1px">800</text></g><line x1="37" y1="0" x2="37" y2="177" fill="rgb(0, 0, 0)" stroke="rgb(204, 204, 204)" stroke-width="1px"></line></g></g><g transform="translate(37, 0)" clip-path="url(#clip_0)"><clipPath id="clip_0"><rect width="293" height="177"></rect></clipPath><g><g><g><line x1="10.023047485732848" y1="0" x2="10.023047485732848" y2="177" fill="rgb(0, 0, 0)" stroke="rgb(60, 60, 60)" stroke-width="1px" opacity="0.25"></line><line x1="42.81625776846561" y1="0" x2="42.81625776846561" y2="177" fill="rgb(0, 0, 0)" stroke="rgb(60, 60, 60)" stroke-width="1px" opacity="0.25"></line><line x1="75.60946805119838" y1="0" x2="75.60946805119838" y2="177" fill="rgb(0, 0, 0)" stroke="rgb(60, 60, 60)" stroke-width="1px" opacity="0.25"></line><line x1="108.40267833393114" y1="0" x2="108.40267833393114" y2="177" fill="rgb(0, 0, 0)" stroke="rgb(60, 60, 60)" stroke-width="1px" opacity="0.25"></line><line x1="141.1958886166639" y1="0" x2="141.1958886166639" y2="177" fill="rgb(0, 0, 0)" stroke="rgb(60, 60, 60)" stroke-width="1px" opacity="0.25"></line><line x1="173.98909889939665" y1="0" x2="173.98909889939665" y2="177" fill="rgb(0, 0, 0)" stroke="rgb(60, 60, 60)" stroke-width="1px" opacity="0.25"></line><line x1="206.7823091821294" y1="0" x2="206.7823091821294" y2="177" fill="rgb(0, 0, 0)" stroke="rgb(60, 60, 60)" stroke-width="1px" opacity="0.25"></line><line x1="239.5755194648622" y1="0" x2="239.5755194648622" y2="177" fill="rgb(0, 0, 0)" stroke="rgb(60, 60, 60)" stroke-width="1px" opacity="0.25"></line><line x1="272.36872974759495" y1="0" x2="272.36872974759495" y2="177" fill="rgb(0, 0, 0)" stroke="rgb(60, 60, 60)" stroke-width="1px" opacity="0.25"></line></g><g><line x1="0" y1="157.25795388183548" x2="293" y2="157.25795388183548" fill="rgb(0, 0, 0)" stroke="rgb(60, 60, 60)" stroke-width="1px" opacity="0.25"></line><line x1="0" y1="137.44772104892184" x2="293" y2="137.44772104892184" fill="rgb(0, 0, 0)" stroke="rgb(60, 60, 60)" stroke-width="1px" opacity="0.25"></line><line x1="0" y1="117.6374882160082" x2="293" y2="117.6374882160082" fill="rgb(0, 0, 0)" stroke="rgb(60, 60, 60)" stroke-width="1px" opacity="0.25"></line><line x1="0" y1="97.82725538309454" x2="293" y2="97.82725538309454" fill="rgb(0, 0, 0)" stroke="rgb(60, 60, 60)" stroke-width="1px" opacity="0.25"></line><line x1="0" y1="78.01702255018088" x2="293" y2="78.01702255018088" fill="rgb(0, 0, 0)" stroke="rgb(60, 60, 60)" stroke-width="1px" opacity="0.25"></line><line x1="0" y1="58.20678971726723" x2="293" y2="58.20678971726723" fill="rgb(0, 0, 0)" stroke="rgb(60, 60, 60)" stroke-width="1px" opacity="0.25"></line><line x1="0" y1="38.39655688435357" x2="293" y2="38.39655688435357" fill="rgb(0, 0, 0)" stroke="rgb(60, 60, 60)" stroke-width="1px" opacity="0.25"></line><line x1="0" y1="18.58632405143993" x2="293" y2="18.58632405143993" fill="rgb(0, 0, 0)" stroke="rgb(60, 60, 60)" stroke-width="1px" opacity="0.25"></line></g></g></g><g><g><line x1="0" y1="177.06818671474915" x2="293" y2="177.06818671474915" fill="rgb(0, 0, 0)" stroke="rgb(153, 153, 153)" stroke-width="1.5px"></line></g></g><g><g><line x1="-350.70226562432754" y1="0" x2="-350.70226562432754" y2="177" fill="rgb(0, 0, 0)" stroke="rgb(153, 153, 153)" stroke-width="1.5px"></line></g></g><g><g><g><g><g><path stroke="rgb(255, 112, 67)" stroke-width="2px" d="M-0.7987119075689646,95.45737144758796L0.18508440091301828,99.38485238988565L1.168880709395001,33.64423724371602L2.152677017876984,43.013540598623166L3.136473326358967,-17.179671964853043L4.12026963484095,71.73499279652356L5.104065943322932,92.93654407852836L6.087862251804916,50.98548793129581L7.071658560286899,84.8757025403942L8.05545486876888,97.8780194375231L9.039251177250865,80.5373685722326L10.023047485732848,71.1048096346967L11.00684379421483,80.02193728281128L11.990640102696814,58.835340809373434L12.974436411178795,98.50139769140381L13.958232719660778,81.99341204278966L14.94202902814276,71.26950962896929L15.925825336624744,99.85165191410934L16.90962164510673,81.64534904165782L17.89341795358871,76.2843831634125L18.877214262070694,-78.20248984307105L19.861010570552676,-15.071425840336957L20.84480687903466,75.63258505698649L21.828603187516645,81.76281442084182L22.812399495998623,62.6988601489778L23.796195804480607,118.0031912175031L24.77999211296259,83.05755069701313L25.763788421444573,67.29841804497327L26.747584729926555,-13.730079037460285L27.73138103840854,67.28931166863681L28.71517734689052,80.92566276712006L29.698973655372505,66.43618607939348L30.682769963854486,63.11153411316383L31.66656627233647,52.619285123796345L32.65036258081845,105.6113023914668L33.63415888930044,33.84201464419456L34.61795519778242,114.9736097783421L35.6017515062644,58.17105185136896L36.585547814746384,84.77563996288417L37.56934412322837,80.41847870550617L38.553140431710354,53.35032670933674L39.53693674019234,51.24873158958526L40.52073304867432,106.38764586935088L41.5045293571563,78.98253866614374L42.48832566563828,77.00609349601778L43.47212197412026,68.22587699660123L44.45591828260225,50.6507541728603L45.439714591084226,57.12954267575546L46.42351089956621,54.95157403947755L47.407307208048195,58.568437057173114L48.39110351653018,87.41801243704224L49.37489982501216,108.42600901347606L50.35869613349414,42.62673852357014L51.34249244197613,84.47512461812589L52.32628875045811,100.03833699337942L53.310085058940096,110.74332506900808L54.293881367422074,112.54836712793687L55.27767767590406,73.46900897413059L56.26147398438604,-9.917440962947836L57.24527029286803,73.5186513788243L58.229066601350006,73.14706994114329L59.21286290983199,64.88611674351075L60.196659218313975,119.84202585988969L61.18045552679596,1.5880336259304784L62.164251835277945,99.37168078562279L63.14804814375992,100.52469011404347L64.13184445224191,23.88252072625619L65.11564076072389,105.39248129183089L66.09943706920588,86.68409848165908L67.08323337768786,64.18030708673474L68.06702968616985,74.80295735923447L69.05082599465182,40.86238653988622L70.0346223031338,117.27579337836036L71.01841861161579,98.10503632505795L72.00221492009777,114.86399186237907L72.98601122857976,116.62238497314499L73.96980753706174,79.25281163334691L74.95360384554373,83.43954094131314L75.93740015402571,89.72918690718173L76.9211964625077,4.756438244498014L77.90499277098968,51.69130164109133L78.88878907947165,91.93263061924412L79.87258538795363,79.53148411122781L80.85638169643562,79.4802663828217L81.84017800491759,117.92741170719174L82.82397431339957,123.03090558128511L83.80777062188156,121.46395418240849L84.79156693036354,95.32102063472861L85.77536323884553,111.73589453907653L86.7591595473275,90.22249216968922L87.74295585580948,103.40647076145505L88.72675216429147,97.98981865547742L89.71054847277345,75.35351320877652L90.69434478125544,76.88331808174213L91.67814108973742,85.98972567049525L92.66193739821941,36.805002566837146L93.64573370670139,82.99520165119358L94.62953001518338,98.34418187356012L95.61332632366535,102.40364167452591L96.59712263214733,3.7078079803737864L97.58091894062932,64.60936375801836L98.5647152491113,101.50305164174358L99.54851155759329,60.94035189772585L100.53230786607527,26.417226100724008L101.51610417455726,82.3058144284143L102.49990048303924,54.41845638718107L103.48369679152123,75.60092575510598L104.4674931000032,116.89791645653261L105.45128940848518,99.29300605688782L106.43508571696717,66.25394237032202L107.41888202544915,22.727677800660672L108.40267833393114,103.76013186240753L109.38647464241312,76.36941755637551L110.3702709508951,-35.792936127858866L111.35406725937709,62.744368214479266L112.33786356785907,120.32120006798965L113.32165987634104,77.14901451405058L114.30545618482303,79.41300489104562L115.28925249330501,88.02191536926811L116.273048801787,80.57191945566895L117.25684511026898,68.75570423241119L118.24064141875097,99.77432180050587L119.22443772723295,120.3964850925134L120.20823403571494,96.00497262410579L121.19203034419692,61.54053035796659L122.1758266526789,80.56886637504932L123.15962296116088,83.86727194973166L124.14341926964286,135.22857151815288L125.12721557812485,81.95850049052686L126.11101188660683,42.485203386721196L127.09480819508882,-10.555693098322735L128.0786045035708,62.64032835691869L129.06240081205277,90.75255801727272L130.04619712053477,102.75029607006272L131.02999342901674,79.17306252562611L132.01378973749874,70.0603628817712L132.9975860459807,115.61215159482431L133.9813823544627,33.55163289422214L134.96517866294465,81.4965733344242L135.94897497142665,26.865584952932153L136.93277127990862,78.13836181258313L137.91656758839062,77.69201024295609L138.9003638968726,50.811968756686696L139.8841602053546,106.5320101038245L140.86795651383656,129.77844617412453L141.85175282231856,113.3013265423193L142.83554913080053,16.249000623643752L143.8193454392825,34.576784372221255L144.8031417477645,62.198189216312656L145.78693805624647,88.80955368976552L146.77073436472847,97.21099859721751L147.75453067321047,78.49925215614059L148.73832698169244,47.154415536553444L149.72212329017444,91.38435020070773L150.7059195986564,87.6326892344401L151.6897159071384,49.37806340460067L152.67351221562038,-20.735238824178822L153.65730852410235,37.77070451261153L154.64110483258435,116.40814816847967L155.62490114106632,112.66033396613975L156.60869744954832,86.99047939269009L157.5924937580303,100.21369082618784L158.57629006651229,53.77003450690397L159.56008637499426,102.58085556670713L160.5438826834762,77.11973579666439L161.5276789919582,67.86964185037989L162.51147530044017,51.28729304280307L163.49527160892217,22.548533813381738L164.47906791740414,87.45301512454311L165.46286422588614,104.44750933742824L166.4466605343681,100.66027256428973L167.4304568428501,84.24350960014507L168.41425315133208,81.05009714268994L169.39804945981405,89.74724523633684L170.38184576829605,81.91836306784823L171.36564207677802,108.2241486490258L172.34943838526002,102.3814573983406L173.33323469374199,72.72818286915837L174.31703100222398,92.31283140937133L175.30082731070596,51.881959194867605L176.28462361918795,92.22898885964028L177.26841992766992,48.880725742374636L178.2522162361519,81.81719470050744L179.2360125446339,114.3462994261349L180.21980885311586,112.25336722986349L181.20360516159786,105.90842531392305L182.18740147007983,92.28804780043498L183.17119777856183,110.36204041542075L184.1549940870438,70.25843283169041L185.1387903955258,77.05171785002332L186.12258670400777,117.20324446189184L187.10638301248974,77.64144592846591L188.09017932097174,122.29502880612925L189.0739756294537,81.86338265712207L190.0577719379357,96.93674074287084L191.04156824641768,12.598386649073746L192.02536455489968,75.46352512757322L193.00916086338165,93.32080384353937L193.99295717186365,52.84410680100861L194.97675348034562,96.05996242716662L195.9605497888276,84.53461959345134L196.9443460973096,103.32040651420371L197.92814240579156,44.11885650977558L198.91193871427356,88.54297375977804L199.89573502275553,109.10504977589846L200.87953133123753,71.89906015165285L201.8633276397195,98.51160990507994L202.8471239482015,92.78687847495856L203.83092025668347,58.75087659549369L204.81471656516544,72.03922264994804L205.79851287364744,118.12846456891954L206.7823091821294,73.58245140790329L207.7661054906114,111.92964292657553L208.74990179909338,-1.9650574082959054L209.73369810757538,74.31119702491999L210.71749441605735,104.19013576867536L211.70129072453935,91.51112256084194L212.68508703302132,63.70370751572415L213.66888334150332,114.94009089552031L214.6526796499853,124.1925581976931L215.63647595846726,46.85939134967853L216.62027226694926,76.23845611215715L217.60406857543123,42.87025943760804L218.58786488391323,66.88295870234785L219.5716611923952,103.68016996891603L220.5554575008772,39.37467840199872L221.53925380935917,105.58876202309207L222.52305011784117,104.88176641749696L223.50684642632314,82.64339379838918L224.4906427348051,95.35648592447293L225.4744390432871,93.49578567627165L226.45823535176908,122.91045357037034L227.44203166025108,102.0879234239776L228.42582796873305,-24.40548458827334L229.40962427721504,73.4076847610027L230.39342058569702,65.15527046312461L231.377216894179,-29.688062684102505L232.36101320266098,68.35369783627425L233.34480951114296,26.183232427510774L234.32860581962495,102.55029662457557L235.31240212810692,91.41244982569266L236.29619843658892,14.048621887922678L237.2799947450709,83.75916515948174L238.2637910535529,109.35100354033005L239.24758736203486,98.86702998950042L240.23138367051686,118.7135031789001L241.21517997899883,63.37501846817311L242.1989762874808,83.52510887756613L243.1827725959628,91.40405960103926L244.16656890444477,93.52344680032473L245.15036521292677,98.46438437954758L246.13416152140874,104.89814462916328L247.11795782989074,90.3450855308229L248.1017541383727,95.20193965965538L249.0855504468547,111.43005570281561L250.06934675533668,93.85774156666723L251.05314306381865,112.94144749837399L252.03693937230065,36.679816617629314L253.02073568078262,91.03262139507842L254.00453198926462,74.10570258856434L254.9883282977466,110.44698726144551L255.9721246062286,82.07234047247533L256.9559209147106,77.62707566515756L257.93971722319253,99.39695574143985L258.92351353167453,112.83459482228615L259.90730984015653,112.17822132019658L260.89110614863847,87.11360878228798L261.87490245712047,99.13665960287126L262.85869876560247,86.38007072925966L263.84249507408447,81.05237969604333L264.8262913825664,110.60409100043219L265.81008769104835,47.98317122829343L266.79388399953035,47.34972223244685L267.77768030801235,43.21243518078265L268.76147661649435,115.47379363727971L269.7452729249763,69.2653964992525L270.7290692334583,130.54733618247008L271.7128655419403,127.59588546768592L272.6966618504223,132.81316010630877L273.68045815890423,109.72460538299275L274.66425446738623,114.04961791367396L275.6480507758682,88.18115562557655L276.63184708435017,110.08594230876021L277.61564339283217,115.88532327676171L278.59943970131417,44.37263369390536L279.58323600979617,78.46015284371143L280.5670323182781,92.32931837735661L281.5508286267601,50.66904870545616L282.5346249352421,104.64221423618417L283.51842124372405,96.05492745213972L284.50221755220605,114.44598910903633L285.48601386068805,104.48354719379137L286.46981016917005,86.52252175830755L287.453606477652,71.30654562330676L288.437402786134,67.8490499389179L289.421199094616,98.52375315635405L290.404995403098,93.6336106761559L291.3887917115799,125.27083459026706" style="fill: none;" fill="none"></path></g></g></g></g><g opacity="0.2"><g><g><g><path stroke="rgb(255, 112, 67)" stroke-width="2px" d="M-0.7987119075689646,95.93021762059017L0.18508440091301828,99.66689014244079L1.168880709395001,28.923314183916062L2.152677017876984,43.686363026038805L3.136473326358967,-21.50222849406302L4.12026963484095,78.12007590371783L5.104065943322932,94.45905633564982L6.087862251804916,47.97292548556743L7.071658560286899,87.3094049828482L8.05545486876888,98.81173351266526L9.039251177250865,79.29211282949468L10.023047485732848,70.42744473778899L11.00684379421483,80.66228835722039L11.990640102696814,57.31390247741169L12.974436411178795,101.34987122955606L13.958232719660778,80.80795112268554L14.94202902814276,70.4994115992523L15.925825336624744,101.9041744576296L16.90962164510673,80.3379296499598L17.89341795358871,75.89940490634666L18.877214262070694,-89.29640248126441L19.861010570552676,-10.537898200269211L20.84480687903466,82.14616354586178L21.828603187516645,82.20303453593114L22.812399495998623,61.32985164285252L23.796195804480607,121.97467051181306L24.77999211296259,80.5480566832159L25.763788421444573,66.16673327789215L26.747584729926555,-19.548845708974795L27.73138103840854,73.10742439887102L28.71517734689052,81.9049077013091L29.698973655372505,65.39567703536596L30.682769963854486,62.87278632995118L31.66656627233647,51.86582244181605L32.65036258081845,109.41673128421482L33.63415888930044,28.688164398677714L34.61795519778242,120.79978006128732L35.6017515062644,54.09198284696683L36.585547814746384,86.68615164934883L37.56934412322837,80.10558502464409L38.553140431710354,51.406525869311736L39.53693674019234,51.097813183343746L40.52073304867432,110.34724635889461L41.5045293571563,77.01454061403778L42.48832566563828,76.86416227801303L43.47212197412026,67.59535769814367L44.45591828260225,49.38866067962273L45.439714591084226,57.59479329707807L46.42351089956621,54.795171147054575L47.407307208048195,58.82816891374934L48.39110351653018,89.48973971512501L49.37489982501216,109.93462184372372L50.35869613349414,37.90160334369483L51.34249244197613,87.48031418761703L52.32628875045811,101.15595245869774L53.310085058940096,111.51206483435334L54.293881367422074,112.67798965521258L55.27767767590406,70.66266707026669L56.26147398438604,-15.905535438600822L57.24527029286803,79.51031074313164L58.229066601350006,73.12038617230662L59.21286290983199,64.29288644957575L60.196659218313975,123.7884844995439L61.18045552679596,-6.9039465237750335L62.164251835277945,106.39365759130274L63.14804814375992,100.60748928339416L64.13184445224191,18.378742217165353L65.11564076072389,111.24582251143809L66.09943706920588,85.34062404620194L67.08323337768786,62.56427919449477L68.06702968616985,75.56578433485878L69.05082599465182,38.42506794942926L70.0346223031338,122.76314413739333L71.01841861161579,96.72835816581761L72.00221492009777,116.06747527181156L72.98601122857976,116.74865757595452L73.96980753706174,76.56925170433676L74.95360384554373,83.74019567189593L75.93740015402571,90.18085494545954L76.9211964625077,-1.3455705019111974L77.90499277098968,55.06175806935687L78.88878907947165,94.82241522967955L79.87258538795363,78.64094090004123L80.85638169643562,79.47658836802725L81.84017800491759,120.68835354720545L82.82397431339957,123.3973944232618L83.80777062188156,121.35142926952025L84.79156693036354,93.44366099089737L85.77536323884553,112.91466897808115L86.7591595473275,88.67758546149099L87.74295585580948,104.35323021016708L88.72675216429147,97.600841494598L89.71054847277345,73.72796930210025L90.69434478125544,76.99317545204084L91.67814108973742,86.64366919508953L92.66193739821941,33.27298065049729L93.64573370670139,86.31218272156002L94.62953001518338,99.4464130363667L95.61332632366535,102.6951570085717L96.59712263214733,-3.3796741820143836L97.58091894062932,68.98278737763486L98.5647152491113,104.15243758837767L99.54851155759329,58.027489215143646L100.53230786607527,23.938073444347708L101.51610417455726,86.31925003179612L102.49990048303924,52.41582724595642L103.48369679152123,77.12206771400304L104.4674931000032,119.8635095722835L105.45128940848518,98.02877347727774L106.43508571696717,63.88136223420207L107.41888202544915,19.601997493943344L108.40267833393114,109.57918268999279L109.38647464241312,74.40245307780731L110.3702709508951,-43.84746742136764L111.35406725937709,69.82046616832349L112.33786356785907,124.45587073699843L113.32165987634104,74.04876110342474L114.30545618482303,79.57558512176229L115.28925249330501,88.64013294916192L116.273048801787,80.03692510817577L117.25684511026898,67.90716573299181L118.24064141875097,102.0018109506263L119.22443772723295,121.87739070940998L120.20823403571494,94.25338491201221L121.19203034419692,59.065591845821544L122.1758266526789,81.9353170858152L123.15962296116088,84.10413494384068L124.14341926964286,138.9168963531842L125.12721557812485,78.13310417878951L126.11101188660683,39.65057219062797L127.09480819508882,-14.364632074204764L128.0786045035708,67.89663429207538L129.06240081205277,92.77133549556183L130.04619712053477,103.61186997095976L131.02999342901674,77.4799492914597L132.01378973749874,69.4059675161353L132.9975860459807,118.88328754742298L133.9813823544627,27.65875534551867L134.96517866294465,84.93956477010859L135.94897497142665,22.942459313532396L136.93277127990862,81.82032971140052L137.91656758839062,77.65995712916722L138.9003638968726,48.88167638843373L139.8841602053546,110.53334211910663L140.86795651383656,131.44780439139151L141.85175282231856,112.11808215289706L142.83554913080053,9.279540991756022L143.8193454392825,35.892927470993754L144.8031417477645,64.18171989643498L145.78693805624647,90.7205519960049L146.77073436472847,97.81431779207206L147.75453067321047,77.15553617376959L148.73832698169244,44.90350015229586L149.72212329017444,94.5605620147467L150.7059195986564,87.36327735368991L151.6897159071384,46.63094665154679L152.67351221562038,-25.770170495484535L153.65730852410235,41.97209594194163L154.64110483258435,122.0552100387296L155.62490114106632,112.3911983267434L156.60869744954832,85.14709219395363L157.5924937580303,101.16326763866839L158.57629006651229,50.4348523274913L159.56008637499426,106.08602706832215L160.5438826834762,75.29133812829049L161.5276789919582,67.20538001286538L162.51147530044017,50.09649200303069L163.49527160892217,20.484764393905607L164.47906791740414,92.11389427550542L165.46286422588614,105.66790709976833L166.4466605343681,100.38830593642234L167.4304568428501,83.06459950518509L168.41425315133208,80.82077384724566L169.39804945981405,90.37179927950335L170.38184576829605,81.3561603826513L171.36564207677802,110.11320291905679L172.34943838526002,101.96188578655507L173.33323469374199,70.59874086116781L174.31703100222398,93.71923167967601L175.30082731070596,48.97856322662349L176.28462361918795,95.12636398026169L177.26841992766992,45.76782796224947L178.2522162361519,84.18240736952664L179.2360125446339,116.6822587151135L180.21980885311586,112.10307091994903L181.20360516159786,105.4527863982017L182.18740147007983,91.3099499511277L183.17119777856183,111.65995842742939L184.1549940870438,67.37853818205491L185.1387903955258,77.53955289421229L186.12258670400777,120.08658024216535L187.10638301248974,74.80045932424348L188.09017932097174,125.50166337505041L189.0739756294537,78.9599311115878L190.0577719379357,98.01917910486995L191.04156824641768,6.541934640194427L192.02536455489968,79.97795629376773L193.00916086338165,94.60315933546833L193.99295717186365,49.93742008948709L194.97675348034562,99.16335184512225L195.9605497888276,83.70696903626065L196.9443460973096,104.66943944420416L197.92814240579156,39.86751261878234L198.91193871427356,91.73313008962816L199.89573502275553,110.58164044372278L200.87953133123753,69.22724739192675L201.8633276397195,100.42269332788767L202.8471239482015,92.37577771845467L203.83092025668347,56.30670497070898L204.81471656516544,72.99347686822077L205.79851287364744,121.43819576781675L206.7823091821294,70.38354156675851L207.7661054906114,114.68340694774491L208.74990179909338,-10.143990872857898L209.73369810757538,79.78869868303947L210.71749441605735,106.33578303108867L211.70129072453935,90.60062536370921L212.68508703302132,61.70681918986898L213.66888334150332,118.6194453290105L214.6526796499853,124.85699046912458L215.63647595846726,41.30599137238278L216.62027226694926,78.34820674354633L217.60406857543123,40.47404381360502L218.58786488391323,68.60734332264536L219.5716611923952,106.32262779834807L220.5554575008772,34.75681351991571L221.53925380935917,110.3436854985618L222.52305011784117,104.83099610069645L223.50684642632314,81.04642598972872L224.4906427348051,96.26943037511347L225.4744390432871,93.36216625866236L226.45823535176908,125.02276091110411L227.44203166025108,100.59262919052817L228.42582796873305,-33.489148400514296L229.40962427721504,80.43178159530225L230.39342058569702,64.56265335920413L231.377216894179,-36.498891538190605L232.36101320266098,75.39421011372899L233.34480951114296,23.15491390405188L234.32860581962495,108.03431945544732L235.31240212810692,90.61262588622306L236.29619843658892,8.493020096035679L237.2799947450709,88.76517416183378L238.2637910535529,111.18878829008014L239.24758736203486,98.11416157802606L240.23138367051686,120.1387054336587L241.21517997899883,59.401086554326696L242.1989762874808,84.97211429817634L243.1827725959628,91.96985777732299L244.16656890444477,93.67564288001618L245.15036521292677,98.81919983271794L246.13416152140874,105.36016171032539L247.11795782989074,89.30001054734079L248.1017541383727,95.55071696579876L249.0855504468547,112.59541880559345L250.06934675533668,92.59584976910888L251.05314306381865,114.31187439807856L252.03693937230065,31.203365096718386L253.02073568078262,94.93577029120821L254.00453198926462,72.89015750813944L254.9883282977466,113.05670438157739L255.9721246062286,80.034718462978L256.9559209147106,77.3078551484477L257.93971722319253,100.96028046288778L258.92351353167453,113.7995699760018L259.90730984015653,112.13108624555564L260.89110614863847,85.31368483797944L261.87490245712047,100.00005124807929L262.85869876560247,85.46400271797137L263.84249507408447,80.66979095089278L264.8262913825664,112.72623961500247L265.81008769104835,43.48627773983333L266.79388399953035,47.3042333978041L267.77768030801235,42.91533096592576L268.76147661649435,120.66298015023288L269.7452729249763,65.94710860188079L270.7290692334583,134.9480756881245L271.7128655419403,127.38393777434129L272.6966618504223,133.18781969986475L273.68045815890423,108.06658484016084L274.66425446738623,114.3602029507111L275.6480507758682,86.32350613650634L276.63184708435017,111.65895485728464L277.61564339283217,116.30178471819377L278.59943970131417,39.23721011185674L279.58323600979617,80.90802399380468L280.5670323182781,93.32528203304174L281.5508286267601,47.67736803234007L282.5346249352421,108.51810072124182L283.51842124372405,95.43826269915904L284.50221755220605,115.76667628053909L285.48601386068805,103.76813067897743L286.46981016917005,85.23271607322992L287.453606477652,70.21386566505913L288.437402786134,67.60076246747737L289.421199094616,100.72654534881731L290.404995403098,93.28244288818883L291.3887917115799,127.54274670414213" style="fill: none;" fill="none"></path></g></g></g></g></g></g><g transform="translate(37, 177)" clip-path="url(#clip_1)"><clipPath id="clip_1"><rect width="293" height="23"></rect></clipPath><g><g><line x1="10.023047485732848" y1="0" x2="10.023047485732848" y2="5" style="visibility: inherit;" fill="rgb(0, 0, 0)" stroke="rgb(204, 204, 204)" stroke-width="1px"></line><line x1="42.81625776846561" y1="0" x2="42.81625776846561" y2="5" style="visibility: inherit;" fill="rgb(0, 0, 0)" stroke="rgb(204, 204, 204)" stroke-width="1px"></line><line x1="75.60946805119838" y1="0" x2="75.60946805119838" y2="5" style="visibility: inherit;" fill="rgb(0, 0, 0)" stroke="rgb(204, 204, 204)" stroke-width="1px"></line><line x1="108.40267833393114" y1="0" x2="108.40267833393114" y2="5" style="visibility: inherit;" fill="rgb(0, 0, 0)" stroke="rgb(204, 204, 204)" stroke-width="1px"></line><line x1="141.1958886166639" y1="0" x2="141.1958886166639" y2="5" style="visibility: inherit;" fill="rgb(0, 0, 0)" stroke="rgb(204, 204, 204)" stroke-width="1px"></line><line x1="173.98909889939665" y1="0" x2="173.98909889939665" y2="5" style="visibility: inherit;" fill="rgb(0, 0, 0)" stroke="rgb(204, 204, 204)" stroke-width="1px"></line><line x1="206.7823091821294" y1="0" x2="206.7823091821294" y2="5" style="visibility: inherit;" fill="rgb(0, 0, 0)" stroke="rgb(204, 204, 204)" stroke-width="1px"></line><line x1="239.5755194648622" y1="0" x2="239.5755194648622" y2="5" style="visibility: inherit;" fill="rgb(0, 0, 0)" stroke="rgb(204, 204, 204)" stroke-width="1px"></line><line x1="272.36872974759495" y1="0" x2="272.36872974759495" y2="5" style="visibility: inherit;" fill="rgb(0, 0, 0)" stroke="rgb(204, 204, 204)" stroke-width="1px"></line></g><g transform="translate(0, 8)"><text x="10.023047485732848" y="0" dx="0em" dy="0.95em" style="text-anchor: middle; visibility: hidden; font-family: &quot;Helvetica Neue&quot;, sans-serif; font-size: 12px; font-weight: 200;" fill="rgb(50, 49, 63)" stroke="none" stroke-width="1px">110k</text><text x="42.81625776846561" y="0" dx="0em" dy="0.95em" style="text-anchor: middle; visibility: inherit; font-family: &quot;Helvetica Neue&quot;, sans-serif; font-size: 12px; font-weight: 200;" fill="rgb(50, 49, 63)" stroke="none" stroke-width="1px">120k</text><text x="75.60946805119838" y="0" dx="0em" dy="0.95em" style="text-anchor: middle; visibility: inherit; font-family: &quot;Helvetica Neue&quot;, sans-serif; font-size: 12px; font-weight: 200;" fill="rgb(50, 49, 63)" stroke="none" stroke-width="1px">130k</text><text x="108.40267833393114" y="0" dx="0em" dy="0.95em" style="text-anchor: middle; visibility: inherit; font-family: &quot;Helvetica Neue&quot;, sans-serif; font-size: 12px; font-weight: 200;" fill="rgb(50, 49, 63)" stroke="none" stroke-width="1px">140k</text><text x="141.1958886166639" y="0" dx="0em" dy="0.95em" style="text-anchor: middle; visibility: inherit; font-family: &quot;Helvetica Neue&quot;, sans-serif; font-size: 12px; font-weight: 200;" fill="rgb(50, 49, 63)" stroke="none" stroke-width="1px">150k</text><text x="173.98909889939665" y="0" dx="0em" dy="0.95em" style="text-anchor: middle; visibility: inherit; font-family: &quot;Helvetica Neue&quot;, sans-serif; font-size: 12px; font-weight: 200;" fill="rgb(50, 49, 63)" stroke="none" stroke-width="1px">160k</text><text x="206.7823091821294" y="0" dx="0em" dy="0.95em" style="text-anchor: middle; visibility: inherit; font-family: &quot;Helvetica Neue&quot;, sans-serif; font-size: 12px; font-weight: 200;" fill="rgb(50, 49, 63)" stroke="none" stroke-width="1px">170k</text><text x="239.5755194648622" y="0" dx="0em" dy="0.95em" style="text-anchor: middle; visibility: inherit; font-family: &quot;Helvetica Neue&quot;, sans-serif; font-size: 12px; font-weight: 200;" fill="rgb(50, 49, 63)" stroke="none" stroke-width="1px">180k</text><text x="272.36872974759495" y="0" dx="0em" dy="0.95em" style="text-anchor: middle; visibility: inherit; font-family: &quot;Helvetica Neue&quot;, sans-serif; font-size: 12px; font-weight: 200;" fill="rgb(50, 49, 63)" stroke="none" stroke-width="1px">190k</text></g><line x1="0" y1="0" x2="293" y2="0" fill="rgb(0, 0, 0)" stroke="rgb(204, 204, 204)" stroke-width="1px"></line></g></g></g></g></svg>