<svg viewBox="0 0 330 200" xmlns="http://www.w3.org/2000/svg"><g><g><g><g><g><line x1="46" y1="177" x2="41" y2="177" style="visibility: inherit;" fill="rgb(0, 0, 0)" stroke="rgb(204, 204, 204)" stroke-width="1px"></line><line x1="46" y1="160.9090909090909" x2="41" y2="160.9090909090909" style="visibility: inherit;" fill="rgb(0, 0, 0)" stroke="rgb(204, 204, 204)" stroke-width="1px"></line><line x1="46" y1="144.8181818181818" x2="41" y2="144.8181818181818" style="visibility: inherit;" fill="rgb(0, 0, 0)" stroke="rgb(204, 204, 204)" stroke-width="1px"></line><line x1="46" y1="128.72727272727275" x2="41" y2="128.72727272727275" style="visibility: inherit;" fill="rgb(0, 0, 0)" stroke="rgb(204, 204, 204)" stroke-width="1px"></line><line x1="46" y1="112.63636363636364" x2="41" y2="112.63636363636364" style="visibility: inherit;" fill="rgb(0, 0, 0)" stroke="rgb(204, 204, 204)" stroke-width="1px"></line><line x1="46" y1="96.54545454545455" x2="41" y2="96.54545454545455" style="visibility: inherit;" fill="rgb(0, 0, 0)" stroke="rgb(204, 204, 204)" stroke-width="1px"></line><line x1="46" y1="80.45454545454547" x2="41" y2="80.45454545454547" style="visibility: inherit;" fill="rgb(0, 0, 0)" stroke="rgb(204, 204, 204)" stroke-width="1px"></line><line x1="46" y1="64.36363636363636" x2="41" y2="64.36363636363636" style="visibility: inherit;" fill="rgb(0, 0, 0)" stroke="rgb(204, 204, 204)" stroke-width="1px"></line><line x1="46" y1="48.27272727272728" x2="41" y2="48.27272727272728" style="visibility: inherit;" fill="rgb(0, 0, 0)" stroke="rgb(204, 204, 204)" stroke-width="1px"></line><line x1="46" y1="32.18181818181819" x2="41" y2="32.18181818181819" style="visibility: inherit;" fill="rgb(0, 0, 0)" stroke="rgb(204, 204, 204)" stroke-width="1px"></line><line x1="46" y1="16.090909090909093" x2="41" y2="16.090909090909093" style="visibility: inherit;" fill="rgb(0, 0, 0)" stroke="rgb(204, 204, 204)" stroke-width="1px"></line><line x1="46" y1="0" x2="41" y2="0" style="visibility: inherit;" fill="rgb(0, 0, 0)" stroke="rgb(204, 204, 204)" stroke-width="1px"></line></g><g transform="translate(36, 0)"><text x="0" y="177" dx="0em" dy="0.3em" style="text-anchor: end; visibility: hidden; font-family: &quot;Helvetica Neue&quot;, sans-serif; font-size: 12px; font-weight: 200;" fill="rgb(50, 49, 63)" stroke="none" stroke-width="1px">-100</text><text x="0" y="160.9090909090909" dx="0em" dy="0.3em" style="text-anchor: end; visibility: inherit; font-family: &quot;Helvetica Neue&quot;, sans-serif; font-size: 12px; font-weight: 200;" fill="rgb(50, 49, 63)" stroke="none" stroke-width="1px">0</text><text x="0" y="144.8181818181818" dx="0em" dy="0.3em" style="text-anchor: end; visibility: hidden; font-family: &quot;Helvetica Neue&quot;, sans-serif; font-size: 12px; font-weight: 200;" fill="rgb(50, 49, 63)" stroke="none" stroke-width="1px">100</text><text x="0" y="128.72727272727275" dx="0em" dy="0.3em" style="text-anchor: end; visibility: inherit; font-family: &quot;Helvetica Neue&quot;, sans-serif; font-size: 12px; font-weight: 200;" fill="rgb(50, 49, 63)" stroke="none" stroke-width="1px">200</text><text x="0" y="112.63636363636364" dx="0em" dy="0.3em" style="text-anchor: end; visibility: hidden; font-family: &quot;Helvetica Neue&quot;, sans-serif; font-size: 12px; font-weight: 200;" fill="rgb(50, 49, 63)" stroke="none" stroke-width="1px">300</text><text x="0" y="96.54545454545455" dx="0em" dy="0.3em" style="text-anchor: end; visibility: inherit; font-family: &quot;Helvetica Neue&quot;, sans-serif; font-size: 12px; font-weight: 200;" fill="rgb(50, 49, 63)" stroke="none" stroke-width="1px">400</text><text x="0" y="80.45454545454547" dx="0em" dy="0.3em" style="text-anchor: end; visibility: hidden; font-family: &quot;Helvetica Neue&quot;, sans-serif; font-size: 12px; font-weight: 200;" fill="rgb(50, 49, 63)" stroke="none" stroke-width="1px">500</text><text x="0" y="64.36363636363636" dx="0em" dy="0.3em" style="text-anchor: end; visibility: inherit; font-family: &quot;Helvetica Neue&quot;, sans-serif; font-size: 12px; font-weight: 200;" fill="rgb(50, 49, 63)" stroke="none" stroke-width="1px">600</text><text x="0" y="48.27272727272728" dx="0em" dy="0.3em" style="text-anchor: end; visibility: hidden; font-family: &quot;Helvetica Neue&quot;, sans-serif; font-size: 12px; font-weight: 200;" fill="rgb(50, 49, 63)" stroke="none" stroke-width="1px">700</text><text x="0" y="32.18181818181819" dx="0em" dy="0.3em" style="text-anchor: end; visibility: inherit; font-family: &quot;Helvetica Neue&quot;, sans-serif; font-size: 12px; font-weight: 200;" fill="rgb(50, 49, 63)" stroke="none" stroke-width="1px">800</text><text x="0" y="16.090909090909093" dx="0em" dy="0.3em" style="text-anchor: end; visibility: hidden; font-family: &quot;Helvetica Neue&quot;, sans-serif; font-size: 12px; font-weight: 200;" fill="rgb(50, 49, 63)" stroke="none" stroke-width="1px">900</text><text x="0" y="0" dx="0em" dy="0.3em" style="text-anchor: end; visibility: hidden; font-family: &quot;Helvetica Neue&quot;, sans-serif; font-size: 12px; font-weight: 200;" fill="rgb(50, 49, 63)" stroke="none" stroke-width="1px">1e+3</text></g><line x1="46" y1="0" x2="46" y2="177" fill="rgb(0, 0, 0)" stroke="rgb(204, 204, 204)" stroke-width="1px"></line></g></g><g transform="translate(46, 0)" clip-path="url(#clip_0)"><clipPath id="clip_0"><rect width="284" height="177"></rect></clipPath><g><g><g><line x1="0" y1="0" x2="0" y2="177" fill="rgb(0, 0, 0)" stroke="rgb(60, 60, 60)" stroke-width="1px" opacity="0.25"></line><line x1="25.81818181818182" y1="0" x2="25.81818181818182" y2="177" fill="rgb(0, 0, 0)" stroke="rgb(60, 60, 60)" stroke-width="1px" opacity="0.25"></line><line x1="51.63636363636364" y1="0" x2="51.63636363636364" y2="177" fill="rgb(0, 0, 0)" stroke="rgb(60, 60, 60)" stroke-width="1px" opacity="0.25"></line><line x1="77.45454545454545" y1="0" x2="77.45454545454545" y2="177" fill="rgb(0, 0, 0)" stroke="rgb(60, 60, 60)" stroke-width="1px" opacity="0.25"></line><line x1="103.27272727272728" y1="0" x2="103.27272727272728" y2="177" fill="rgb(0, 0, 0)" stroke="rgb(60, 60, 60)" stroke-width="1px" opacity="0.25"></line><line x1="129.0909090909091" y1="0" x2="129.0909090909091" y2="177" fill="rgb(0, 0, 0)" stroke="rgb(60, 60, 60)" stroke-width="1px" opacity="0.25"></line><line x1="154.9090909090909" y1="0" x2="154.9090909090909" y2="177" fill="rgb(0, 0, 0)" stroke="rgb(60, 60, 60)" stroke-width="1px" opacity="0.25"></line><line x1="180.72727272727272" y1="0" x2="180.72727272727272" y2="177" fill="rgb(0, 0, 0)" stroke="rgb(60, 60, 60)" stroke-width="1px" opacity="0.25"></line><line x1="206.54545454545456" y1="0" x2="206.54545454545456" y2="177" fill="rgb(0, 0, 0)" stroke="rgb(60, 60, 60)" stroke-width="1px" opacity="0.25"></line><line x1="232.36363636363637" y1="0" x2="232.36363636363637" y2="177" fill="rgb(0, 0, 0)" stroke="rgb(60, 60, 60)" stroke-width="1px" opacity="0.25"></line><line x1="258.1818181818182" y1="0" x2="258.1818181818182" y2="177" fill="rgb(0, 0, 0)" stroke="rgb(60, 60, 60)" stroke-width="1px" opacity="0.25"></line><line x1="284" y1="0" x2="284" y2="177" fill="rgb(0, 0, 0)" stroke="rgb(60, 60, 60)" stroke-width="1px" opacity="0.25"></line></g><g><line x1="0" y1="177" x2="284" y2="177" fill="rgb(0, 0, 0)" stroke="rgb(60, 60, 60)" stroke-width="1px" opacity="0.25"></line><line x1="0" y1="160.9090909090909" x2="284" y2="160.9090909090909" fill="rgb(0, 0, 0)" stroke="rgb(60, 60, 60)" stroke-width="1px" opacity="0.25"></line><line x1="0" y1="144.8181818181818" x2="284" y2="144.8181818181818" fill="rgb(0, 0, 0)" stroke="rgb(60, 60, 60)" stroke-width="1px" opacity="0.25"></line><line x1="0" y1="128.72727272727275" x2="284" y2="128.72727272727275" fill="rgb(0, 0, 0)" stroke="rgb(60, 60, 60)" stroke-width="1px" opacity="0.25"></line><line x1="0" y1="112.63636363636364" x2="284" y2="112.63636363636364" fill="rgb(0, 0, 0)" stroke="rgb(60, 60, 60)" stroke-width="1px" opacity="0.25"></line><line x1="0" y1="96.54545454545455" x2="284" y2="96.54545454545455" fill="rgb(0, 0, 0)" stroke="rgb(60, 60, 60)" stroke-width="1px" opacity="0.25"></line><line x1="0" y1="80.45454545454547" x2="284" y2="80.45454545454547" fill="rgb(0, 0, 0)" stroke="rgb(60, 60, 60)" stroke-width="1px" opacity="0.25"></line><line x1="0" y1="64.36363636363636" x2="284" y2="64.36363636363636" fill="rgb(0, 0, 0)" stroke="rgb(60, 60, 60)" stroke-width="1px" opacity="0.25"></line><line x1="0" y1="48.27272727272728" x2="284" y2="48.27272727272728" fill="rgb(0, 0, 0)" stroke="rgb(60, 60, 60)" stroke-width="1px" opacity="0.25"></line><line x1="0" y1="32.18181818181819" x2="284" y2="32.18181818181819" fill="rgb(0, 0, 0)" stroke="rgb(60, 60, 60)" stroke-width="1px" opacity="0.25"></line><line x1="0" y1="16.090909090909093" x2="284" y2="16.090909090909093" fill="rgb(0, 0, 0)" stroke="rgb(60, 60, 60)" stroke-width="1px" opacity="0.25"></line><line x1="0" y1="0" x2="284" y2="0" fill="rgb(0, 0, 0)" stroke="rgb(60, 60, 60)" stroke-width="1px" opacity="0.25"></line></g></g></g><g><g><line x1="0" y1="160.9090909090909" x2="284" y2="160.9090909090909" fill="rgb(0, 0, 0)" stroke="rgb(153, 153, 153)" stroke-width="1.5px"></line></g></g><g><g><line x1="-232.36363636363637" y1="0" x2="-232.36363636363637" y2="177" fill="rgb(0, 0, 0)" stroke="rgb(153, 153, 153)" stroke-width="1.5px"></line></g></g><g><g><g><g><g><path stroke="rgb(255, 112, 67)" stroke-width="2px" d="M22.978181818181817,80.73097045898439L23.75272727272727,72.61554163722315L24.527272727272727,77.19120925313443L25.301818181818184,77.0711680877592L26.076363636363634,64.41406212837484L26.85090909090909,64.70034803352705L27.625454545454545,62.21313795436893L28.400000000000002,68.85361580951746L29.174545454545452,61.972404470625776L29.94909090909091,64.45495532173622L30.723636363636363,71.7560437680063L31.49818181818182,76.21758997775211L32.27272727272727,74.15769368835304L33.04727272727273,74.14052326075984L33.82181818181818,75.93296665409741L34.596363636363634,75.90337733175403L35.37090909090909,76.92034885446829L36.14545454545454,79.72954262958586L36.92,82.6057735048963L37.694545454545455,82.01278671912097L38.469090909090916,82.41267575781515L39.24363636363636,83.45112092014718L40.018181818181816,77.92565092028875L40.79272727272728,77.72043153510975L41.56727272727273,76.66137307673407L42.34181818181818,77.81173751345963L43.11636363636364,79.17293732636526L43.89090909090909,80.64870192962317L44.66545454545455,77.5491413929255L45.44,75.63669542410774L46.21454545454545,69.87196414255929L46.98909090909091,70.67375681048006L47.763636363636365,72.39880239454466L48.53818181818181,71.18904464173555L49.31272727272727,72.42460738446843L50.087272727272726,74.24414536920166L50.86181818181818,74.77004715599496L51.63636363636364,74.73539213738549L52.41090909090909,75.30032343124384L53.18545454545455,74.46696220145829L53.96,76.24124158232603L54.734545454545454,76.70036117050542L55.509090909090915,76.5343620119804L56.28363636363636,78.17454313513524L57.058181818181815,78.466491051155L57.832727272727276,78.48521900064102L58.60727272727273,69.15338501046986L59.381818181818176,64.94034505736991L60.156363636363636,66.24823739825973L60.93090909090909,67.46584979550693L61.70545454545455,67.42682557933898L62.48,70.7830349965253L63.25454545454545,71.5891916502451L64.02909090909091,71.53703392382903L64.80363636363636,66.71861771260555L65.57818181818182,67.38546139573104L66.35272727272728,68.49395298690256L67.12727272727273,68.61053575538719L67.90181818181819,68.57940096962616L68.67636363636363,67.941924061404L69.4509090909091,70.52667134528433L70.22545454545455,68.47953261092903L71,71.65028699654809L71.77454545454546,70.92963553767048L72.5490909090909,72.05195796191967L73.32363636363637,72.73562404525653L74.09818181818183,71.79560430821086L74.87272727272726,70.9027924445961L75.64727272727272,73.32241076447173L76.42181818181818,73.7490325520256L77.19636363636363,74.13839326921082L77.97090909090909,73.99343559899624L78.74545454545455,72.86118199470201L79.52000000000001,72.25496112156036L80.29454545454546,71.53662117870769L81.06909090909092,71.08753871168138L81.84363636363636,72.34551724588935L82.61818181818181,74.63605652951851L83.39272727272727,72.83525943374156L84.16727272727273,73.86476268200282L84.94181818181818,75.57172326050612L85.71636363636364,77.72901787788227L86.4909090909091,79.80447545606864L87.26545454545455,79.44674354128524L88.04,74.38898685678036L88.81454545454545,74.87790157352708L89.5890909090909,74.98531479343227L90.36363636363636,74.6040204688612L91.13818181818182,77.492958714232L91.91272727272727,73.06128044384705L92.68727272727273,75.10462319937707L93.46181818181819,76.69515735237957L94.23636363636365,73.69672564912018L95.01090909090908,75.96118183401555L95.78545454545454,76.66175855787178L96.56,76.07416832364706L97.33454545454545,76.23444701731553L98.10909090909091,74.36046848096021L98.88363636363637,77.20686509969967L99.65818181818182,78.44395143323676L100.43272727272728,80.65140570149745L101.20727272727274,82.74780273959945L101.98181818181817,82.51518164600996L102.75636363636363,82.6887072679384L103.53090909090909,83.20133793827495L104.30545454545454,78.69542600652619L105.08,77.56336265047689L105.85454545454546,78.67225626450714L106.6290909090909,78.82570383928012L107.40363636363637,79.014358887447L108.17818181818183,81.43416217651686L108.95272727272726,83.83918728663724L109.72727272727272,85.97155649735231L110.50181818181818,86.44162171515691L111.27636363636364,87.9401645982617L112.05090909090909,88.01881088814386L112.82545454545455,88.94552289956789L113.60000000000001,89.44253547366222L114.37454545454545,88.60670817209486L115.14909090909092,88.00464821375027L115.92363636363638,87.96825303923633L116.69818181818181,85.02920116129218L117.47272727272727,85.17415801941928L118.24727272727273,86.02430753035995L119.02181818181818,86.99430673515907L119.79636363636364,82.12567965997756L120.5709090909091,81.52197204155962L121.34545454545454,82.87295612653541L122.12,81.62291120460932L122.89454545454545,78.60123788217714L123.6690909090909,79.17728957527429L124.44363636363636,77.86948702852663L125.21818181818182,77.99399397315797L125.99272727272728,80.43639973346957L126.76727272727273,81.52676687278763L127.54181818181819,80.68558511133968L128.31636363636363,77.49086769980934L129.0909090909091,79.40720930586858L129.86545454545455,79.28066442842099L130.64000000000001,72.72693991620231L131.41454545454545,72.79862948780848L132.1890909090909,75.83898099857224L132.96363636363637,75.9322720175301L133.7381818181818,76.32010058039882L134.51272727272726,77.17526444654754L135.28727272727272,77.50491441657634L136.06181818181818,77.15233890440973L136.83636363636364,78.67891400302447L137.6109090909091,81.18488401720008L138.38545454545454,82.01957429532389L139.16,80.88333106672569L139.93454545454546,81.06784446287362L140.70909090909092,81.35802678265696L141.48363636363635,84.6117949632451L142.2581818181818,84.33957067181946L143.03272727272727,81.99128979848295L143.80727272727273,76.8607383163292L144.58181818181816,76.5507572474057L145.35636363636365,77.61527151382384L146.13090909090909,79.1984217907008L146.90545454545452,79.25335483804314L147.68,78.86520802703343L148.45454545454544,81.19570170495437L149.22909090909093,78.40546940121025L150.00363636363636,78.91949406160649L150.77818181818182,76.0251056577179L151.55272727272728,76.52886226681206L152.32727272727274,76.77245333720761L153.10181818181817,75.43357055879407L153.87636363636366,77.53955956680197L154.6509090909091,80.6426373768179L155.42545454545453,82.48585810054969L156.20000000000002,78.60897993906943L156.97454545454545,76.44018875502182L157.7490909090909,75.95621829084136L158.52363636363637,76.94894881645551L159.29818181818183,78.26121674935436L160.07272727272726,78.36128733531804L160.84727272727275,76.69946083720689L161.62181818181818,77.8513703543539L162.39636363636362,78.53441719837747L163.1709090909091,76.95500175094784L163.94545454545454,71.54126096324191L164.72,70.17684937828636L165.49454545454546,73.26206154553668L166.26909090909092,75.61463779486816L167.04363636363635,76.32693815202296L167.8181818181818,77.863130918406L168.59272727272727,76.53570617819395L169.3672727272727,78.32581258547836L170.1418181818182,78.32010344948692L170.91636363636363,77.87473089782831L171.6909090909091,76.52811570549704L172.46545454545455,73.66022450628739L173.24,74.88261024240417L174.01454545454544,76.76071856353389L174.7890909090909,78.22567228549238L175.56363636363636,78.64970098308693L176.3381818181818,78.92320853883118L177.11272727272728,79.69816704535805L177.88727272727272,79.93056352541228L178.6618181818182,81.71237514447391L179.43636363636364,82.93120275308851L180.2109090909091,82.36155666105762L180.98545454545456,83.08831591533713L181.76,81.33155279962031L182.53454545454545,82.20389975551775L183.3090909090909,80.33166146519517L184.08363636363637,80.6754207226663L184.8581818181818,82.76482042758816L185.6327272727273,84.46502654473558L186.40727272727273,85.6894040665545L187.1818181818182,86.06208189592205L187.95636363636365,87.51725668046191L188.73090909090908,86.46509867000339L189.50545454545454,86.03640713728893L190.28,87.95188659877414L191.05454545454546,87.27451625840717L191.8290909090909,89.40173614503311L192.60363636363638,88.85358818157718L193.37818181818182,89.3793880077082L194.15272727272725,84.89168326635985L194.92727272727274,84.70111079621836L195.70181818181817,85.31922369558991L196.47636363636363,83.46517240938948L197.2509090909091,84.41426304666129L198.02545454545455,84.45861404323323L198.79999999999998,85.64079040426054L199.57454545454547,83.21718061774672L200.3490909090909,83.77852718976686L201.12363636363634,85.32801674211933L201.89818181818183,84.52314651531316L202.67272727272726,85.46988734049842L203.44727272727272,85.91527600475233L204.22181818181818,84.36791167740284L204.99636363636364,83.83233016846731L205.77090909090907,85.96903853202964L206.54545454545456,85.18414645672001L207.32,86.86268132160812L208.09454545454548,81.63553328357564L208.86909090909091,81.65282332834428L209.64363636363635,83.11367151714013L210.41818181818184,83.62032121845098L211.19272727272727,82.52059807479996L211.96727272727273,84.59179345418251L212.7418181818182,86.86367163132985L213.51636363636365,84.43641234506066L214.29090909090908,84.18765060031907L215.06545454545457,81.89440939512112L215.84,81.28585518152471L216.61454545454544,82.77057428217742L217.38909090909092,80.26114031993362L218.16363636363636,82.03334493935381L218.93818181818182,83.38680626040752L219.71272727272728,83.35520767937612L220.48727272727274,84.15417597955027L221.26181818181817,84.74139743827654L222.03636363636366,87.01227347683634L222.8109090909091,87.80149078155108L223.58545454545452,81.24097799204199L224.36,81.3197003991227L225.13454545454545,80.5295359853526L225.9090909090909,74.29245122717003L226.68363636363637,74.56257570241736L227.45818181818183,71.97169174122787L228.23272727272726,74.17361159147521L229.00727272727275,75.2798983729012L229.78181818181818,71.84304017919158L230.5563636363636,73.00493523932923L231.3309090909091,75.30929683706567L232.10545454545453,76.74773310980413L232.88,79.28838988988741L233.65454545454546,78.35342611937155L234.42909090909092,78.87270354365755L235.20363636363635,79.73801295409874L235.97818181818184,80.63817701240875L236.75272727272727,81.75794713237781L237.5272727272727,83.15865775644924L238.3018181818182,83.59151271452934L239.07636363636362,84.33553552636107L239.8509090909091,85.9572970069118L240.62545454545455,86.38200570635766L241.4,87.96006476026663L242.17454545454547,84.90955309318913L242.9490909090909,85.53180124055443L243.72363636363636,84.91261643750038L244.49818181818182,86.52081707614555L245.27272727272728,86.22418172566935L246.0472727272727,85.79902255892507L246.8218181818182,86.68953558130107L247.59636363636363,88.21911005836118L248.3709090909091,89.55540264111326L249.14545454545456,89.34273621501545L249.92,89.94356387341874L250.69454545454545,89.71307108067644L251.4690909090909,89.23711593500745L252.24363636363637,90.53759091164086L253.0181818181818,87.98283228855959L253.7927272727273,85.80701911714894L254.56727272727272,83.53813736159735L255.34181818181818,85.65236854976435L256.11636363636364,84.64725869418098L256.8909090909091,87.4645866599053L257.6654545454545,89.68150637852732L258.44,92.06574501515269L259.21454545454543,92.9231191867391L259.9890909090909,94.06555371722305L260.76363636363635,93.6056625636655L261.53818181818184,94.55536230683475L262.3127272727273,95.69409919585395L263.08727272727276,92.56261638976126L263.8618181818182,91.90870656781995L264.6363636363636,91.9743671933379L265.4109090909091,89.55142751118184L266.18545454545455,90.60183286073409L266.96,90.87004435652076L267.73454545454547,92.22657645964772L268.5090909090909,92.83924913465964L269.2836363636364,92.40215859980054L270.0581818181818,91.1770136158878L270.83272727272725,89.89174589051433L271.60727272727274,90.49532637041642L272.3818181818182,90.65335212389506L273.1563636363636,92.6652670817969" style="fill: none;" fill="none"></path></g></g></g></g><g opacity="0.2"><g><g><g><path stroke="rgb(255, 112, 67)" stroke-width="2px" d="M22.978181818181817,80.73097045898439L23.75272727272727,65.04384654651989L24.527272727272727,85.44337546608665L25.301818181818184,76.75718178488991L26.076363636363634,21.71650068803268L26.85090909090909,65.86850563742898L27.625454545454545,50.423756935813216L28.400000000000002,104.41617678555575L29.174545454545452,21.16951388272372L29.94909090909091,80.50545318603517L30.723636363636363,122.60920640425249L31.49818181818182,109.37349576083096L32.27272727272727,57.95336742054333L33.04727272727273,73.99848066850141L33.82181818181818,91.4398515181108L34.596363636363634,75.63693670099433L35.37090909090909,86.4130776422674L36.14545454545454,106.81554307417436L36.92,111.16359466552734L37.694545454545455,75.96629749644886L38.469090909090916,86.59011299826881L39.24363636363636,94.54127505215732L40.018181818181816,17.71435846502132L40.79272727272728,75.44250815651634L41.56727272727273,64.70540122292259L42.34181818181818,91.00166298606179L43.11636363636364,95.0045810768821L43.89090909090909,98.03970228715376L44.66545454545455,40.57806318803267L45.44,52.56938498757103L46.21454545454545,-0.3802046897194771L46.98909090909091,80.53825078790837L47.763636363636365,93.80962679776279L48.53818181818181,56.05115561745383L49.31272727272727,88.00230535333806L50.087272727272726,97.34509926535867L50.86181818181818,81.49024058948865L51.63636363636364,74.28989268909802L52.41090909090909,82.6031689453125L53.18545454545455,63.6383865633878L53.96,99.40670770818537L54.734545454545454,82.72148387562144L55.509090909090915,74.34834794477982L56.28363636363636,99.8569418334961L57.058181818181815,82.33970780806109L57.832727272727276,78.73450544877485L58.60727272727273,-55.446184969815334L59.381818181818176,8.525598865855812L60.156363636363636,83.80845012318004L60.93090909090909,83.85464372114701L61.70545454545455,66.90035089666193L62.48,116.15925034956499L63.25454545454545,82.51038399436257L64.02909090909091,70.82911959561434L64.80363636363636,1.2064351584694464L65.57818181818182,76.46671259099787L66.35272727272728,83.61248948530717L67.12727272727273,70.20282731489702L67.90181818181819,68.15360329367898L68.67636363636363,59.21317049893466L69.4509090909091,105.95903411865234L70.22545454545455,40.38706221147018L71,115.20494276566939L71.77454545454546,61.021374622691766L72.5490909090909,87.4960663396662L73.32363636363637,82.1509853293679L74.09818181818183,58.840105757279844L74.87272727272726,58.58935313831675L75.64727272727272,106.71484721790661L76.42181818181818,79.64027709960938L77.19636363636363,79.5181319358132L77.97090909090909,71.98952320445667L78.74545454545455,57.201089921431105L79.52000000000001,63.86654080477629L80.29454545454546,61.5925410045277L81.06909090909092,64.86835310502487L81.84363636363636,89.77328746448863L82.61818181818181,106.37969196666371L83.39272727272727,47.870700073242176L84.16727272727273,88.14112676447087L84.94181818181818,99.24919672185725L85.71636363636364,107.66097381591797L86.4909090909091,108.6079990456321L87.26545454545455,74.48095259232954L88.04,4.165722656250011L88.81454545454545,81.66747236772018L89.5890909090909,76.47724082253195L90.36363636363636,69.30708301890981L91.13818181818182,117.63252510764381L91.91272727272727,11.477284823330962L92.68727272727273,103.50353526722301L93.46181818181819,98.80370619340377L94.23636363636365,32.01320933948864L95.01090909090908,107.44471785111861L95.78545454545454,86.40315831964665L96.56,67.9030176336115L97.33454545454545,78.46352134011009L98.10909090909091,48.29588545365766L98.88363636363637,116.79968994140626L99.65818181818182,95.65287264737216L100.43272727272728,111.36111686012961L101.20727272727274,111.91440881902521L101.98181818181817,79.27859011563388L102.75636363636363,85.10320653742009L103.53090909090909,90.33464746648615L104.30545454545454,15.992089066938917L105.08,61.809076871004976L105.85454545454546,94.10476593017579L106.6290909090909,80.96132462935014L107.40363636363637,81.64008128773082L108.17818181818183,115.11443631258878L108.95272727272726,117.31486125599255L109.72727272727272,115.65302115700462L110.50181818181818,92.98486949573864L111.27636363636364,108.80024239280007L112.05090909090909,89.1136132257635L112.82545454545455,101.84619323730469L113.60000000000001,96.3615493219549L114.37454545454545,76.97075167569247L115.14909090909092,79.62292319557884L115.92363636363638,87.46155986439098L116.69818181818181,44.11109019886365L117.47272727272727,87.19230918190696L118.24727272727273,97.8606192294034L119.02181818181818,100.49941930597478L119.79636363636364,14.339883478338066L120.5709090909091,73.11646628639915L121.34545454545454,101.68309894908558L122.12,64.21799910111861L122.89454545454545,36.52878945090555L123.6690909090909,87.19804962158204L124.44363636363636,59.65991321910512L125.21818181818182,79.7276162442294L125.99272727272728,114.44445481733842L126.76727272727273,96.70913810036399L127.54181818181819,68.9728214888139L128.31636363636363,33.00680136940696L129.0909090909091,106.09098566228693L129.86545454545455,77.51860273881393L130.64000000000001,-18.530178555575276L131.41454545454545,73.79687289151279L132.1890909090909,118.17461117831144L132.96363636363637,77.23131558504971L133.7381818181818,81.72049163818359L134.51272727272726,89.08319233287465L135.28727272727272,82.09521614768288L136.06181818181818,72.24279002796519L136.83636363636364,99.93624730890447L137.6109090909091,116.08023459694601L138.38545454545454,93.64256969105114L139.16,65.06120045055043L139.93454545454546,83.63718958074395L140.70909090909092,85.39881708318536L141.48363636363635,129.92061388882723L142.2581818181818,80.54883303555575L143.03272727272727,49.291304210316056L143.80727272727273,5.4173251065340935L144.58181818181816,72.23423583984376L145.35636363636365,92.43877150102095L146.13090909090909,101.24402160644532L146.90545454545452,80.01830641313033L147.68,73.46019536798651L148.45454545454544,113.64826712868431L149.22909090909093,39.55092224121094L150.00363636363636,86.07739696155895L150.77818181818182,35.72009948730468L151.55272727272728,83.54379081032492L152.32727272727274,80.16451821067116L153.10181818181817,56.789290715997865L153.87636363636366,106.86600394509055L154.6509090909091,123.85382604425604L155.42545454545453,108.15321283513849L156.20000000000002,24.622361339222294L156.97454545454545,46.23914828213779L157.7490909090909,69.21678771972655L158.52363636363637,90.77301768909801L159.29818181818183,96.53494595614346L160.07272727272726,79.75480108087714L160.84727272727275,53.558007535067475L161.62181818181818,93.89207502885299L162.39636363636362,88.04606331565164L163.1709090909091,54.961130093661225L163.94545454545454,-3.846850807883527L164.72,51.17696744051847L165.49454545454546,116.22466877330433L166.26909090909092,108.37505210182883L167.04363636363635,86.24596160888672L167.8181818181818,99.25513849431819L168.59272727272727,58.05086159446023L169.3672727272727,103.2536616377397L170.1418181818182,78.24060175115412L170.91636363636363,71.67276289506391L171.6909090909091,57.77602761008522L172.46545454545455,33.72383089932529L173.24,91.90476329456676L174.01454545454544,102.91404269131748L174.7890909090909,98.62567399458452L175.56363636363636,84.55445193204012L176.3381818181818,82.73189916437322L177.11272727272728,90.48974245938388L177.88727272727272,83.16676816073331L178.6618181818182,106.52474487304687L179.43636363636364,99.90381799871271L180.2109090909091,74.42902837579899L180.98545454545456,93.20870244806463L181.76,56.867987282492905L182.53454545454545,94.35164903120561L183.3090909090909,54.26005986993964L184.08363636363637,85.4623940485174L184.8581818181818,111.86047618519176L185.6327272727273,108.14101992520419L186.40727272727273,102.73931038596413L187.1818181818182,91.25175759055398L187.95636363636365,107.78110074129971L188.73090909090908,71.8134110329368L189.50545454545454,80.06671958229758L190.28,114.62564450350675L191.05454545454546,77.84188426624645L191.8290909090909,119.02405875466087L192.60363636363638,81.22042519309304L193.37818181818182,96.70134504838423L194.15272727272725,22.398734019886376L194.92727272727274,82.04731858686968L195.70181818181817,93.9266748046875L196.47636363636363,57.64682106711649L197.2509090909091,97.63070209849964L198.02545454545455,85.07621812300248L198.79999999999998,102.10303494540128L199.57454545454547,49.46751459295099L200.3490909090909,91.59548667214133L201.12363636363634,106.905234375L201.89818181818183,73.31502951882104L202.67272727272726,98.65360523570668L203.44727272727272,92.11747874866832L204.22181818181818,62.82028797496449L204.99636363636364,76.37415843616832L205.77090909090907,115.72349745316939L206.54545454545456,74.25423223322089L207.32,110.23690404718572L208.09454545454548,8.845551036487933L208.86909090909091,81.89359363902699L209.64363636363635,103.45652651700107L210.41818181818184,90.67560699462891L211.19272727272727,67.20654369007458L211.96727272727273,113.43396065451883L212.7418181818182,118.50042164195668L213.51636363636365,50.63592240767046L214.29090909090908,80.72355060924183L215.06545454545457,49.960171009410516L215.84,72.81151095303622L216.61454545454544,103.44584114768288L217.38909090909092,45.316337002840896L218.16363636363636,106.71195490056819L218.93818181818182,102.23425972678444L219.71272727272728,82.91518565784801L220.48727272727274,95.28010744961826L221.26181818181817,92.91867520419034L222.03636363636366,118.63506908069958L222.8109090909091,98.79163604736328L223.58545454545452,-10.11660910866479L224.36,82.41593927556818L225.13454545454545,69.52620183771306L225.9090909090909,-12.561280184659097L226.68363636363637,78.32415976784446L227.45818181818183,35.892666237571035L228.23272727272726,104.83616679798473L229.00727272727275,90.68535444779829L229.78181818181818,23.98350785688922L230.5563636363636,89.18475735751065L231.3309090909091,107.3983916681463L232.10545454545453,96.77849478981712L232.88,114.66798331520774L233.65454545454546,65.33370683149859L234.42909090909092,86.10383539373224L235.20363636363635,91.78776930375533L235.97818181818184,93.17329734108665L236.75272727272727,97.35116380171343L237.5272727272727,102.66407576127486L238.3018181818182,89.61917949329722L239.07636363636362,94.69633076060902L239.8509090909091,108.5409306751598L240.62545454545455,92.29623279918324L241.4,109.93512584339489L242.17454545454547,42.43004000577059L242.9490909090909,94.19683885054155L243.72363636363636,76.29023703835227L244.49818181818182,108.91561098965731L245.27272727272728,82.0934237948331L246.0472727272727,79.87852253306995L246.8218181818182,99.09026167436079L247.59636363636363,109.51900534889914L248.3709090909091,108.16377544056286L249.14545454545456,86.38127688321201L249.92,98.31031319358132L250.69454545454545,86.50337294145064L251.4690909090909,82.60926294500177L252.24363636363637,108.64719019109553L253.0181818181818,52.406865234375005L253.7927272727273,55.50800886674361L254.56727272727272,51.94311234907671L255.34181818181818,115.0938267100941L256.11636363636364,70.65072892622516L256.8909090909091,126.69692979292435L257.6654545454545,120.55294064608486L258.44,125.26715764825994L259.21454545454543,104.86237443403765L259.9890909090909,109.97438082608309L260.76363636363635,87.20150665283204L261.53818181818184,107.78028558904474L262.3127272727273,111.55143526944248L263.08727272727276,48.95554987127133L263.8618181818182,82.80276830499824L264.6363636363636,92.88871590354226L265.4109090909091,55.811088367808935L266.18545454545455,105.22911929043856L266.96,94.60498951305043L267.73454545454547,111.11679215864702L268.5090909090909,101.370944740989L269.2836363636364,86.31550981001419L270.0581818181818,74.11641257546165L270.83272727272725,71.99391324129972L271.60727272727274,98.90040976784447L272.3818181818182,92.85391970547762L273.1563636363636,120.68193357987838" style="fill: none;" fill="none"></path></g></g></g></g></g></g><g transform="translate(46, 177)" clip-path="url(#clip_1)"><clipPath id="clip_1"><rect width="284" height="23"></rect></clipPath><g><g><line x1="0" y1="0" x2="0" y2="5" style="visibility: inherit;" fill="rgb(0, 0, 0)" stroke="rgb(204, 204, 204)" stroke-width="1px"></line><line x1="25.81818181818182" y1="0" x2="25.81818181818182" y2="5" style="visibility: inherit;" fill="rgb(0, 0, 0)" stroke="rgb(204, 204, 204)" stroke-width="1px"></line><line x1="51.63636363636364" y1="0" x2="51.63636363636364" y2="5" style="visibility: inherit;" fill="rgb(0, 0, 0)" stroke="rgb(204, 204, 204)" stroke-width="1px"></line><line x1="77.45454545454545" y1="0" x2="77.45454545454545" y2="5" style="visibility: inherit;" fill="rgb(0, 0, 0)" stroke="rgb(204, 204, 204)" stroke-width="1px"></line><line x1="103.27272727272728" y1="0" x2="103.27272727272728" y2="5" style="visibility: inherit;" fill="rgb(0, 0, 0)" stroke="rgb(204, 204, 204)" stroke-width="1px"></line><line x1="129.0909090909091" y1="0" x2="129.0909090909091" y2="5" style="visibility: inherit;" fill="rgb(0, 0, 0)" stroke="rgb(204, 204, 204)" stroke-width="1px"></line><line x1="154.9090909090909" y1="0" x2="154.9090909090909" y2="5" style="visibility: inherit;" fill="rgb(0, 0, 0)" stroke="rgb(204, 204, 204)" stroke-width="1px"></line><line x1="180.72727272727272" y1="0" x2="180.72727272727272" y2="5" style="visibility: inherit;" fill="rgb(0, 0, 0)" stroke="rgb(204, 204, 204)" stroke-width="1px"></line><line x1="206.54545454545456" y1="0" x2="206.54545454545456" y2="5" style="visibility: inherit;" fill="rgb(0, 0, 0)" stroke="rgb(204, 204, 204)" stroke-width="1px"></line><line x1="232.36363636363637" y1="0" x2="232.36363636363637" y2="5" style="visibility: inherit;" fill="rgb(0, 0, 0)" stroke="rgb(204, 204, 204)" stroke-width="1px"></line><line x1="258.1818181818182" y1="0" x2="258.1818181818182" y2="5" style="visibility: inherit;" fill="rgb(0, 0, 0)" stroke="rgb(204, 204, 204)" stroke-width="1px"></line><line x1="284" y1="0" x2="284" y2="5" style="visibility: inherit;" fill="rgb(0, 0, 0)" stroke="rgb(204, 204, 204)" stroke-width="1px"></line></g><g transform="translate(0, 8)"><text x="0" y="0" dx="0em" dy="0.95em" style="text-anchor: middle; visibility: hidden; font-family: &quot;Helvetica Neue&quot;, sans-serif; font-size: 12px; font-weight: 200;" fill="rgb(50, 49, 63)" stroke="none" stroke-width="1px">90k</text><text x="25.81818181818182" y="0" dx="0em" dy="0.95em" style="text-anchor: middle; visibility: inherit; font-family: &quot;Helvetica Neue&quot;, sans-serif; font-size: 12px; font-weight: 200;" fill="rgb(50, 49, 63)" stroke="none" stroke-width="1px">100k</text><text x="51.63636363636364" y="0" dx="0em" dy="0.95em" style="text-anchor: middle; visibility: hidden; font-family: &quot;Helvetica Neue&quot;, sans-serif; font-size: 12px; font-weight: 200;" fill="rgb(50, 49, 63)" stroke="none" stroke-width="1px">110k</text><text x="77.45454545454545" y="0" dx="0em" dy="0.95em" style="text-anchor: middle; visibility: inherit; font-family: &quot;Helvetica Neue&quot;, sans-serif; font-size: 12px; font-weight: 200;" fill="rgb(50, 49, 63)" stroke="none" stroke-width="1px">120k</text><text x="103.27272727272728" y="0" dx="0em" dy="0.95em" style="text-anchor: middle; visibility: hidden; font-family: &quot;Helvetica Neue&quot;, sans-serif; font-size: 12px; font-weight: 200;" fill="rgb(50, 49, 63)" stroke="none" stroke-width="1px">130k</text><text x="129.0909090909091" y="0" dx="0em" dy="0.95em" style="text-anchor: middle; visibility: inherit; font-family: &quot;Helvetica Neue&quot;, sans-serif; font-size: 12px; font-weight: 200;" fill="rgb(50, 49, 63)" stroke="none" stroke-width="1px">140k</text><text x="154.9090909090909" y="0" dx="0em" dy="0.95em" style="text-anchor: middle; visibility: hidden; font-family: &quot;Helvetica Neue&quot;, sans-serif; font-size: 12px; font-weight: 200;" fill="rgb(50, 49, 63)" stroke="none" stroke-width="1px">150k</text><text x="180.72727272727272" y="0" dx="0em" dy="0.95em" style="text-anchor: middle; visibility: inherit; font-family: &quot;Helvetica Neue&quot;, sans-serif; font-size: 12px; font-weight: 200;" fill="rgb(50, 49, 63)" stroke="none" stroke-width="1px">160k</text><text x="206.54545454545456" y="0" dx="0em" dy="0.95em" style="text-anchor: middle; visibility: hidden; font-family: &quot;Helvetica Neue&quot;, sans-serif; font-size: 12px; font-weight: 200;" fill="rgb(50, 49, 63)" stroke="none" stroke-width="1px">170k</text><text x="232.36363636363637" y="0" dx="0em" dy="0.95em" style="text-anchor: middle; visibility: inherit; font-family: &quot;Helvetica Neue&quot;, sans-serif; font-size: 12px; font-weight: 200;" fill="rgb(50, 49, 63)" stroke="none" stroke-width="1px">180k</text><text x="258.1818181818182" y="0" dx="0em" dy="0.95em" style="text-anchor: middle; visibility: hidden; font-family: &quot;Helvetica Neue&quot;, sans-serif; font-size: 12px; font-weight: 200;" fill="rgb(50, 49, 63)" stroke="none" stroke-width="1px">190k</text><text x="284" y="0" dx="0em" dy="0.95em" style="text-anchor: middle; visibility: hidden; font-family: &quot;Helvetica Neue&quot;, sans-serif; font-size: 12px; font-weight: 200;" fill="rgb(50, 49, 63)" stroke="none" stroke-width="1px">200k</text></g><line x1="0" y1="0" x2="284" y2="0" fill="rgb(0, 0, 0)" stroke="rgb(204, 204, 204)" stroke-width="1px"></line></g></g></g></g></svg>