<svg viewBox="0 0 330 200" xmlns="http://www.w3.org/2000/svg"><g><g><g><g><g><line x1="37" y1="157.25795388183548" x2="32" y2="157.25795388183548" style="visibility: inherit;" fill="rgb(0, 0, 0)" stroke="rgb(204, 204, 204)" stroke-width="1px"></line><line x1="37" y1="137.44772104892184" x2="32" y2="137.44772104892184" style="visibility: inherit;" fill="rgb(0, 0, 0)" stroke="rgb(204, 204, 204)" stroke-width="1px"></line><line x1="37" y1="117.6374882160082" x2="32" y2="117.6374882160082" style="visibility: inherit;" fill="rgb(0, 0, 0)" stroke="rgb(204, 204, 204)" stroke-width="1px"></line><line x1="37" y1="97.82725538309454" x2="32" y2="97.82725538309454" style="visibility: inherit;" fill="rgb(0, 0, 0)" stroke="rgb(204, 204, 204)" stroke-width="1px"></line><line x1="37" y1="78.01702255018088" x2="32" y2="78.01702255018088" style="visibility: inherit;" fill="rgb(0, 0, 0)" stroke="rgb(204, 204, 204)" stroke-width="1px"></line><line x1="37" y1="58.20678971726723" x2="32" y2="58.20678971726723" style="visibility: inherit;" fill="rgb(0, 0, 0)" stroke="rgb(204, 204, 204)" stroke-width="1px"></line><line x1="37" y1="38.39655688435357" x2="32" y2="38.39655688435357" style="visibility: inherit;" fill="rgb(0, 0, 0)" stroke="rgb(204, 204, 204)" stroke-width="1px"></line><line x1="37" y1="18.58632405143993" x2="32" y2="18.58632405143993" style="visibility: inherit;" fill="rgb(0, 0, 0)" stroke="rgb(204, 204, 204)" stroke-width="1px"></line></g><g transform="translate(27, 0)"><text x="0" y="157.25795388183548" dx="0em" dy="0.3em" style="text-anchor: end; visibility: inherit; font-family: &quot;Helvetica Neue&quot;, sans-serif; font-size: 12px; font-weight: 200;" fill="rgb(50, 49, 63)" stroke="none" stroke-width="1px">100</text><text x="0" y="137.44772104892184" dx="0em" dy="0.3em" style="text-anchor: end; visibility: hidden; font-family: &quot;Helvetica Neue&quot;, sans-serif; font-size: 12px; font-weight: 200;" fill="rgb(50, 49, 63)" stroke="none" stroke-width="1px">200</text><text x="0" y="117.6374882160082" dx="0em" dy="0.3em" style="text-anchor: end; visibility: inherit; font-family: &quot;Helvetica Neue&quot;, sans-serif; font-size: 12px; font-weight: 200;" fill="rgb(50, 49, 63)" stroke="none" stroke-width="1px">300</text><text x="0" y="97.82725538309454" dx="0em" dy="0.3em" style="text-anchor: end; visibility: hidden; font-family: &quot;Helvetica Neue&quot;, sans-serif; font-size: 12px; font-weight: 200;" fill="rgb(50, 49, 63)" stroke="none" stroke-width="1px">400</text><text x="0" y="78.01702255018088" dx="0em" dy="0.3em" style="text-anchor: end; visibility: inherit; font-family: &quot;Helvetica Neue&quot;, sans-serif; font-size: 12px; font-weight: 200;" fill="rgb(50, 49, 63)" stroke="none" stroke-width="1px">500</text><text x="0" y="58.20678971726723" dx="0em" dy="0.3em" style="text-anchor: end; visibility: hidden; font-family: &quot;Helvetica Neue&quot;, sans-serif; font-size: 12px; font-weight: 200;" fill="rgb(50, 49, 63)" stroke="none" stroke-width="1px">600</text><text x="0" y="38.39655688435357" dx="0em" dy="0.3em" style="text-anchor: end; visibility: inherit; font-family: &quot;Helvetica Neue&quot;, sans-serif; font-size: 12px; font-weight: 200;" fill="rgb(50, 49, 63)" stroke="none" stroke-width="1px">700</text><text x="0" y="18.58632405143993" dx="0em" dy="0.3em" style="text-anchor: end; visibility: hidden; font-family: &quot;Helvetica Neue&quot;, sans-serif; font-size: 12px; font-weight: 200;" fill="rgb(50, 49, 63)" stroke="none" stroke-width="1px">800</text></g><line x1="37" y1="0" x2="37" y2="177" fill="rgb(0, 0, 0)" stroke="rgb(204, 204, 204)" stroke-width="1px"></line></g></g><g transform="translate(37, 0)" clip-path="url(#clip_0)"><clipPath id="clip_0"><rect width="293" height="177"></rect></clipPath><g><g><g><line x1="10.023047485732848" y1="0" x2="10.023047485732848" y2="177" fill="rgb(0, 0, 0)" stroke="rgb(60, 60, 60)" stroke-width="1px" opacity="0.25"></line><line x1="42.81625776846561" y1="0" x2="42.81625776846561" y2="177" fill="rgb(0, 0, 0)" stroke="rgb(60, 60, 60)" stroke-width="1px" opacity="0.25"></line><line x1="75.60946805119838" y1="0" x2="75.60946805119838" y2="177" fill="rgb(0, 0, 0)" stroke="rgb(60, 60, 60)" stroke-width="1px" opacity="0.25"></line><line x1="108.40267833393114" y1="0" x2="108.40267833393114" y2="177" fill="rgb(0, 0, 0)" stroke="rgb(60, 60, 60)" stroke-width="1px" opacity="0.25"></line><line x1="141.1958886166639" y1="0" x2="141.1958886166639" y2="177" fill="rgb(0, 0, 0)" stroke="rgb(60, 60, 60)" stroke-width="1px" opacity="0.25"></line><line x1="173.98909889939665" y1="0" x2="173.98909889939665" y2="177" fill="rgb(0, 0, 0)" stroke="rgb(60, 60, 60)" stroke-width="1px" opacity="0.25"></line><line x1="206.7823091821294" y1="0" x2="206.7823091821294" y2="177" fill="rgb(0, 0, 0)" stroke="rgb(60, 60, 60)" stroke-width="1px" opacity="0.25"></line><line x1="239.5755194648622" y1="0" x2="239.5755194648622" y2="177" fill="rgb(0, 0, 0)" stroke="rgb(60, 60, 60)" stroke-width="1px" opacity="0.25"></line><line x1="272.36872974759495" y1="0" x2="272.36872974759495" y2="177" fill="rgb(0, 0, 0)" stroke="rgb(60, 60, 60)" stroke-width="1px" opacity="0.25"></line></g><g><line x1="0" y1="157.25795388183548" x2="293" y2="157.25795388183548" fill="rgb(0, 0, 0)" stroke="rgb(60, 60, 60)" stroke-width="1px" opacity="0.25"></line><line x1="0" y1="137.44772104892184" x2="293" y2="137.44772104892184" fill="rgb(0, 0, 0)" stroke="rgb(60, 60, 60)" stroke-width="1px" opacity="0.25"></line><line x1="0" y1="117.6374882160082" x2="293" y2="117.6374882160082" fill="rgb(0, 0, 0)" stroke="rgb(60, 60, 60)" stroke-width="1px" opacity="0.25"></line><line x1="0" y1="97.82725538309454" x2="293" y2="97.82725538309454" fill="rgb(0, 0, 0)" stroke="rgb(60, 60, 60)" stroke-width="1px" opacity="0.25"></line><line x1="0" y1="78.01702255018088" x2="293" y2="78.01702255018088" fill="rgb(0, 0, 0)" stroke="rgb(60, 60, 60)" stroke-width="1px" opacity="0.25"></line><line x1="0" y1="58.20678971726723" x2="293" y2="58.20678971726723" fill="rgb(0, 0, 0)" stroke="rgb(60, 60, 60)" stroke-width="1px" opacity="0.25"></line><line x1="0" y1="38.39655688435357" x2="293" y2="38.39655688435357" fill="rgb(0, 0, 0)" stroke="rgb(60, 60, 60)" stroke-width="1px" opacity="0.25"></line><line x1="0" y1="18.58632405143993" x2="293" y2="18.58632405143993" fill="rgb(0, 0, 0)" stroke="rgb(60, 60, 60)" stroke-width="1px" opacity="0.25"></line></g></g></g><g><g><line x1="0" y1="177.06818671474915" x2="293" y2="177.06818671474915" fill="rgb(0, 0, 0)" stroke="rgb(153, 153, 153)" stroke-width="1.5px"></line></g></g><g><g><line x1="-350.70226562432754" y1="0" x2="-350.70226562432754" y2="177" fill="rgb(0, 0, 0)" stroke="rgb(153, 153, 153)" stroke-width="1.5px"></line></g></g><g><g><g><g><g><path stroke="rgb(255, 112, 67)" stroke-width="2px" d="M-0.7987119075689646,76.43917786307442L0.18508440091301828,78.25605720978756L1.168880709395001,74.44005057120786L2.152677017876984,72.08555340087388L3.136473326358967,64.9883366891608L4.12026963484095,65.97545925293238L5.104065943322932,68.09923948651884L6.087862251804916,66.60985298764719L7.071658560286899,68.13100915569987L8.05545486876888,70.3711231804731L9.039251177250865,71.01858422725175L10.023047485732848,70.97591889469635L11.00684379421483,71.67143090105377L11.990640102696814,70.64544287870504L12.974436411178795,72.82983702617344L13.958232719660778,73.39507954221769L14.94202902814276,73.19071060557968L15.925825336624744,75.21001043222556L16.90962164510673,75.56944047802095L17.89341795358871,75.59249728840409L18.877214262070694,64.10366200514267L19.861010570552676,58.916801403684744L20.84480687903466,60.52700575242784L21.828603187516645,62.02606245291824L22.812399495998623,61.9780180071979L23.796195804480607,66.10999648118243L24.77999211296259,67.10249174169041L25.763788421444573,67.0382780482005L26.747584729926555,61.10611184858213L27.73138103840854,61.92709272363642L28.71517734689052,63.291805953347065L29.698973655372505,63.43533617745919L30.682769963854486,63.39700475990881L31.66656627233647,62.61217862571469L32.65036258081845,65.79437580417242L33.63415888930044,63.274052388028906L34.61795519778242,67.17770893597272L35.6017515062644,66.29048291840668L36.585547814746384,67.67222390099278L37.56934412322837,68.51391558008633L38.553140431710354,67.35661553238862L39.53693674019234,66.25743519433126L40.52073304867432,69.23633477127314L41.5045293571563,69.76156780163132L42.48832566563828,70.24092707336989L43.47212197412026,70.06246324751369L44.45591828260225,68.6684955480972L45.439714591084226,67.92215010687578L46.42351089956621,67.03776989935021L47.407307208048195,66.48488452893963L48.39110351653018,68.0336377734376L49.37489982501216,70.85362241602469L50.35869613349414,68.63658113199114L51.34249244197613,69.90404830460845L52.32628875045811,72.00556328463277L53.310085058940096,74.6615045007545L54.293881367422074,77.21669250327301L55.27767767590406,76.77627285491226L56.26147398438604,70.54944396872615L57.24527029286803,71.15136859085098L58.229066601350006,71.28360977645669L59.21286290983199,70.81418139892088L60.196659218313975,74.3708815802076L61.18045552679596,68.9148456358811L62.164251835277945,71.4304956539007L63.14804814375992,73.38867289060401L64.13184445224191,69.69717045033993L65.11564076072389,72.48504303163821L66.09943706920588,73.34755415133328L67.08323337768786,72.6241457171315L68.06702968616985,72.82147193541967L69.05082599465182,70.51433372965751L70.0346223031338,74.01865902498247L71.01841861161579,75.54169095334201L72.00221492009777,78.25938594342553L72.98601122857976,80.84035344503764L73.96980753706174,80.55396328523878L74.95360384554373,80.76759838524815L75.93740015402571,81.39872077114225L76.9211964625077,75.85129246934558L77.90499277098968,74.45755899299299L78.88878907947165,75.82276717090018L79.87258538795363,76.01168329532327L80.85638169643562,76.24394490392322L81.84017800491759,79.22307220465525L82.82397431339957,82.18400543293419L83.80777062188156,84.80925987389477L84.79156693036354,85.38797804070262L85.77536323884553,87.2329007393949L86.7591595473275,87.32972567981363L87.74295585580948,88.47064199545794L88.72675216429147,89.08253624941635L89.71054847277345,88.05351213657055L90.69434478125544,87.31228938235593L91.67814108973742,87.2674816665804L92.66193739821941,83.64908436651855L93.64573370670139,83.82754719257775L94.62953001518338,84.87420401348028L95.61332632366535,86.06841311541775L96.59712263214733,80.07443009114823L97.58091894062932,79.33117882943918L98.5647152491113,80.99443533817507L99.54851155759329,79.45544951611556L100.53230786607527,75.73533328624981L101.51610417455726,76.44453611000425L102.49990048303924,74.83444231081762L103.48369679152123,74.98772834012311L104.4674931000032,77.99468254705221L105.45128940848518,79.33708195911852L106.43508571696717,78.30146573290422L107.41888202544915,74.36830723948292L108.40267833393114,76.72760050184316L109.38647464241312,76.57180548293616L110.3702709508951,68.5032241631165L111.35406725937709,68.5914843786945L112.33786356785907,72.3345961557761L113.32165987634104,72.44945087258134L114.30545618482303,72.92692384109273L115.28925249330501,73.97975405739616L116.273048801787,74.38560077635644L117.25684511026898,73.9515294042703L118.24064141875097,75.83096380848133L119.22443772723295,78.91617479144348L120.20823403571494,79.94379906422894L121.19203034419692,78.54491956113924L122.1758266526789,78.77208219799408L123.15962296116088,79.12933853984683L124.14341926964286,83.13519705769735L125.12721557812485,82.80004964213191L126.11101188660683,79.90897676395892L127.09480819508882,73.59252696932687L128.0786045035708,73.21089550807903L129.06240081205277,74.52146630010567L130.04619712053477,76.47055291896818L131.02999342901674,76.53818343331172L132.01378973749874,76.06031865537948L132.9975860459807,78.92949292728748L133.9813823544627,75.49431401459842L134.96517866294465,76.12715260356676L135.94897497142665,72.56374249006902L136.93277127990862,73.18393962504085L137.91656758839062,73.48383541049905L138.9003638968726,71.83547735773149L139.8841602053546,74.42825395950624L140.86795651383656,78.24859086948192L141.85175282231856,80.51786176606589L142.83554913080053,75.74486487634054L143.8193454392825,73.07476972638864L144.8031417477645,72.47893219318892L145.78693805624647,73.70112683375572L146.77073436472847,75.31671816815586L147.75453067321047,75.43991951100517L148.73832698169244,73.39397110190708L149.72212329017444,74.81213806862146L150.7059195986564,75.65306737469395L151.6897159071384,73.70857887024032L152.67351221562038,67.04348214415865L153.65730852410235,65.36369444383755L154.64110483258435,69.16203616753154L155.62490114106632,72.05839727386393L156.60869744954832,72.93534187919865L157.5924937580303,74.826617021352L158.57629006651229,73.19236546830412L159.56008637499426,75.39624497092522L160.5438826834762,75.38921620004434L161.5276789919582,74.8408982712127L162.51147530044017,73.18302050024866L163.49527160892217,69.65223227226063L164.47906791740414,71.15716564223331L165.46286422588614,73.46938820944878L166.4466605343681,75.27295780004681L167.4304568428501,75.79499836218825L168.41425315133208,76.13172566145042L169.39804945981405,77.08581149733509L170.38184576829605,77.3719251254349L171.36564207677802,79.56559254587567L172.34943838526002,81.06614534705209L173.33323469374199,80.36482874326445L174.31703100222398,81.25957433901743L175.30082731070596,79.09674524353224L176.28462361918795,80.17073032478385L177.26841992766992,77.86573461320276L178.2522162361519,78.28895190257393L179.2360125446339,80.86130467653298L180.21980885311586,82.9545039391939L181.20360516159786,84.46188948500634L182.18740147007983,84.92070971260972L183.17119777856183,86.71224001903634L184.1549940870438,85.41688156250423L185.1387903955258,84.88910037695457L186.12258670400777,87.24733221483902L187.10638301248974,86.41339150453071L188.09017932097174,89.0323063839064L189.0739756294537,88.35745708101125L190.0577719379357,89.00479259949019L191.04156824641768,83.47977997843765L192.02536455489968,83.24515774648562L193.00916086338165,84.00614398936335L193.99295717186365,81.72353910630272L194.97675348034562,82.89200674213787L195.9605497888276,82.94660922379369L196.9443460973096,84.40203904626091L197.92814240579156,81.41822539746636L198.91193871427356,82.10932409355927L199.89573502275553,84.01696949947431L200.87953133123753,83.02605801627425L201.8633276397195,84.19163269408664L202.8471239482015,84.73997045984996L203.83092025668347,82.83494151282443L204.81471656516544,82.17556333020765L205.79851287364744,84.80615989495475L206.7823091821294,83.8398444013586L207.7661054906114,85.90636322287028L208.74990179909338,79.47098911811973L209.73369810757538,79.49227566014314L210.71749441605735,81.2907907465242L211.70129072453935,81.91454969581591L212.68508703302132,80.56063169128385L213.66888334150332,83.11057231155647L214.6526796499853,85.90758243715167L215.63647595846726,82.91927572712177L216.62027226694926,82.61301409482921L217.60406857543123,79.7897029965974L218.58786488391323,79.04048487631069L219.5716611923952,80.86838850246578L220.5554575008772,77.7789128991913L221.53925380935917,79.96075271569453L222.52305011784117,81.62705905978825L223.50684642632314,81.58815664328182L224.4906427348051,82.57180200248087L225.4744390432871,83.29475642078799L226.45823535176908,86.09053276905973L227.44203166025108,87.06217324467438L228.42582796873305,78.98523457519241L229.40962427721504,79.08215322687488L230.39342058569702,78.10934672323788L231.377216894179,70.43059466764265L232.36101320266098,70.76315690625115L233.34480951114296,67.57340459180777L234.32860581962495,70.28428591407307L235.31240212810692,71.64628470458298L236.29619843658892,67.41501593993868L237.2799947450709,68.8454765521202L238.2637910535529,71.68247845949998L239.24758736203486,73.45340124063465L240.23138367051686,76.58131664166106L241.21517997899883,75.43024121891055L242.1989762874808,76.06954671879639L243.1827725959628,77.13486756527584L244.16656890444477,78.24309951675811L245.15036521292677,79.62169824418858L246.13416152140874,81.34617530372698L247.11795782989074,81.87908226715595L248.1017541383727,82.79508179534376L249.0855504468547,84.79170438190178L250.06934675533668,85.31458212452355L251.05314306381865,87.25740071267192L252.03693937230065,83.50178031590598L253.02073568078262,84.26785764624898L254.00453198926462,83.50555173514093L254.9883282977466,85.48547896694667L255.9721246062286,85.12027801240728L256.9559209147106,84.59684567948767L257.93971722319253,85.69319581199674L258.92351353167453,87.57632288422431L259.90730984015653,89.22149203207378L260.89110614863847,88.95966894967741L261.87490245712047,89.69937456470372L262.85869876560247,89.4156046506028L263.84249507408447,88.82963513200963L264.8262913825664,90.43070763418675L265.81008769104835,87.2854308279355L266.79388399953035,84.60669059747099L267.77768030801235,81.81336949958342L268.76147661649435,84.4162934154148L269.7452729249763,83.17885803191542L270.7290692334583,86.64739561747733L271.7128655419403,89.37674394389299L272.6966618504223,92.31208602145543L273.68045815890423,93.36763744295028L274.66425446738623,94.7741393327679L275.6480507758682,94.20794690831879L276.63184708435017,95.3771644414767L277.61564339283217,96.77911400066245L278.59943970131417,92.92380643845577L279.58323600979617,92.11874901434136L280.5670323182781,92.19958672662453L281.5508286267601,89.2165980730664L282.5346249352421,90.50979875091524L283.51842124372405,90.84000583554788L284.50221755220605,92.5100927558357L285.48601386068805,93.26438129688569L286.46981016917005,92.72625972676796L287.453606477652,91.21792932428623L288.437402786134,89.63557914454017L289.421199094616,90.37867388037566L290.404995403098,90.57322640393552L291.3887917115799,93.05018426448144" style="fill: none;" fill="none"></path></g></g></g></g><g opacity="0.2"><g><g><g><path stroke="rgb(255, 112, 67)" stroke-width="2px" d="M-0.7987119075689646,95.93021762059017L0.18508440091301828,99.66689014244079L1.168880709395001,28.923314183916062L2.152677017876984,43.686363026038805L3.136473326358967,-21.50222849406302L4.12026963484095,78.12007590371783L5.104065943322932,94.45905633564982L6.087862251804916,47.97292548556743L7.071658560286899,87.3094049828482L8.05545486876888,98.81173351266526L9.039251177250865,79.29211282949468L10.023047485732848,70.42744473778899L11.00684379421483,80.66228835722039L11.990640102696814,57.31390247741169L12.974436411178795,101.34987122955606L13.958232719660778,80.80795112268554L14.94202902814276,70.4994115992523L15.925825336624744,101.9041744576296L16.90962164510673,80.3379296499598L17.89341795358871,75.89940490634666L18.877214262070694,-89.29640248126441L19.861010570552676,-10.537898200269211L20.84480687903466,82.14616354586178L21.828603187516645,82.20303453593114L22.812399495998623,61.32985164285252L23.796195804480607,121.97467051181306L24.77999211296259,80.5480566832159L25.763788421444573,66.16673327789215L26.747584729926555,-19.548845708974795L27.73138103840854,73.10742439887102L28.71517734689052,81.9049077013091L29.698973655372505,65.39567703536596L30.682769963854486,62.87278632995118L31.66656627233647,51.86582244181605L32.65036258081845,109.41673128421482L33.63415888930044,28.688164398677714L34.61795519778242,120.79978006128732L35.6017515062644,54.09198284696683L36.585547814746384,86.68615164934883L37.56934412322837,80.10558502464409L38.553140431710354,51.406525869311736L39.53693674019234,51.097813183343746L40.52073304867432,110.34724635889461L41.5045293571563,77.01454061403778L42.48832566563828,76.86416227801303L43.47212197412026,67.59535769814367L44.45591828260225,49.38866067962273L45.439714591084226,57.59479329707807L46.42351089956621,54.795171147054575L47.407307208048195,58.82816891374934L48.39110351653018,89.48973971512501L49.37489982501216,109.93462184372372L50.35869613349414,37.90160334369483L51.34249244197613,87.48031418761703L52.32628875045811,101.15595245869774L53.310085058940096,111.51206483435334L54.293881367422074,112.67798965521258L55.27767767590406,70.66266707026669L56.26147398438604,-15.905535438600822L57.24527029286803,79.51031074313164L58.229066601350006,73.12038617230662L59.21286290983199,64.29288644957575L60.196659218313975,123.7884844995439L61.18045552679596,-6.9039465237750335L62.164251835277945,106.39365759130274L63.14804814375992,100.60748928339416L64.13184445224191,18.378742217165353L65.11564076072389,111.24582251143809L66.09943706920588,85.34062404620194L67.08323337768786,62.56427919449477L68.06702968616985,75.56578433485878L69.05082599465182,38.42506794942926L70.0346223031338,122.76314413739333L71.01841861161579,96.72835816581761L72.00221492009777,116.06747527181156L72.98601122857976,116.74865757595452L73.96980753706174,76.56925170433676L74.95360384554373,83.74019567189593L75.93740015402571,90.18085494545954L76.9211964625077,-1.3455705019111974L77.90499277098968,55.06175806935687L78.88878907947165,94.82241522967955L79.87258538795363,78.64094090004123L80.85638169643562,79.47658836802725L81.84017800491759,120.68835354720545L82.82397431339957,123.3973944232618L83.80777062188156,121.35142926952025L84.79156693036354,93.44366099089737L85.77536323884553,112.91466897808115L86.7591595473275,88.67758546149099L87.74295585580948,104.35323021016708L88.72675216429147,97.600841494598L89.71054847277345,73.72796930210025L90.69434478125544,76.99317545204084L91.67814108973742,86.64366919508953L92.66193739821941,33.27298065049729L93.64573370670139,86.31218272156002L94.62953001518338,99.4464130363667L95.61332632366535,102.6951570085717L96.59712263214733,-3.3796741820143836L97.58091894062932,68.98278737763486L98.5647152491113,104.15243758837767L99.54851155759329,58.027489215143646L100.53230786607527,23.938073444347708L101.51610417455726,86.31925003179612L102.49990048303924,52.41582724595642L103.48369679152123,77.12206771400304L104.4674931000032,119.8635095722835L105.45128940848518,98.02877347727774L106.43508571696717,63.88136223420207L107.41888202544915,19.601997493943344L108.40267833393114,109.57918268999279L109.38647464241312,74.40245307780731L110.3702709508951,-43.84746742136764L111.35406725937709,69.82046616832349L112.33786356785907,124.45587073699843L113.32165987634104,74.04876110342474L114.30545618482303,79.57558512176229L115.28925249330501,88.64013294916192L116.273048801787,80.03692510817577L117.25684511026898,67.90716573299181L118.24064141875097,102.0018109506263L119.22443772723295,121.87739070940998L120.20823403571494,94.25338491201221L121.19203034419692,59.065591845821544L122.1758266526789,81.9353170858152L123.15962296116088,84.10413494384068L124.14341926964286,138.9168963531842L125.12721557812485,78.13310417878951L126.11101188660683,39.65057219062797L127.09480819508882,-14.364632074204764L128.0786045035708,67.89663429207538L129.06240081205277,92.77133549556183L130.04619712053477,103.61186997095976L131.02999342901674,77.4799492914597L132.01378973749874,69.4059675161353L132.9975860459807,118.88328754742298L133.9813823544627,27.65875534551867L134.96517866294465,84.93956477010859L135.94897497142665,22.942459313532396L136.93277127990862,81.82032971140052L137.91656758839062,77.65995712916722L138.9003638968726,48.88167638843373L139.8841602053546,110.53334211910663L140.86795651383656,131.44780439139151L141.85175282231856,112.11808215289706L142.83554913080053,9.279540991756022L143.8193454392825,35.892927470993754L144.8031417477645,64.18171989643498L145.78693805624647,90.7205519960049L146.77073436472847,97.81431779207206L147.75453067321047,77.15553617376959L148.73832698169244,44.90350015229586L149.72212329017444,94.5605620147467L150.7059195986564,87.36327735368991L151.6897159071384,46.63094665154679L152.67351221562038,-25.770170495484535L153.65730852410235,41.97209594194163L154.64110483258435,122.0552100387296L155.62490114106632,112.3911983267434L156.60869744954832,85.14709219395363L157.5924937580303,101.16326763866839L158.57629006651229,50.4348523274913L159.56008637499426,106.08602706832215L160.5438826834762,75.29133812829049L161.5276789919582,67.20538001286538L162.51147530044017,50.09649200303069L163.49527160892217,20.484764393905607L164.47906791740414,92.11389427550542L165.46286422588614,105.66790709976833L166.4466605343681,100.38830593642234L167.4304568428501,83.06459950518509L168.41425315133208,80.82077384724566L169.39804945981405,90.37179927950335L170.38184576829605,81.3561603826513L171.36564207677802,110.11320291905679L172.34943838526002,101.96188578655507L173.33323469374199,70.59874086116781L174.31703100222398,93.71923167967601L175.30082731070596,48.97856322662349L176.28462361918795,95.12636398026169L177.26841992766992,45.76782796224947L178.2522162361519,84.18240736952664L179.2360125446339,116.6822587151135L180.21980885311586,112.10307091994903L181.20360516159786,105.4527863982017L182.18740147007983,91.3099499511277L183.17119777856183,111.65995842742939L184.1549940870438,67.37853818205491L185.1387903955258,77.53955289421229L186.12258670400777,120.08658024216535L187.10638301248974,74.80045932424348L188.09017932097174,125.50166337505041L189.0739756294537,78.9599311115878L190.0577719379357,98.01917910486995L191.04156824641768,6.541934640194427L192.02536455489968,79.97795629376773L193.00916086338165,94.60315933546833L193.99295717186365,49.93742008948709L194.97675348034562,99.16335184512225L195.9605497888276,83.70696903626065L196.9443460973096,104.66943944420416L197.92814240579156,39.86751261878234L198.91193871427356,91.73313008962816L199.89573502275553,110.58164044372278L200.87953133123753,69.22724739192675L201.8633276397195,100.42269332788767L202.8471239482015,92.37577771845467L203.83092025668347,56.30670497070898L204.81471656516544,72.99347686822077L205.79851287364744,121.43819576781675L206.7823091821294,70.38354156675851L207.7661054906114,114.68340694774491L208.74990179909338,-10.143990872857898L209.73369810757538,79.78869868303947L210.71749441605735,106.33578303108867L211.70129072453935,90.60062536370921L212.68508703302132,61.70681918986898L213.66888334150332,118.6194453290105L214.6526796499853,124.85699046912458L215.63647595846726,41.30599137238278L216.62027226694926,78.34820674354633L217.60406857543123,40.47404381360502L218.58786488391323,68.60734332264536L219.5716611923952,106.32262779834807L220.5554575008772,34.75681351991571L221.53925380935917,110.3436854985618L222.52305011784117,104.83099610069645L223.50684642632314,81.04642598972872L224.4906427348051,96.26943037511347L225.4744390432871,93.36216625866236L226.45823535176908,125.02276091110411L227.44203166025108,100.59262919052817L228.42582796873305,-33.489148400514296L229.40962427721504,80.43178159530225L230.39342058569702,64.56265335920413L231.377216894179,-36.498891538190605L232.36101320266098,75.39421011372899L233.34480951114296,23.15491390405188L234.32860581962495,108.03431945544732L235.31240212810692,90.61262588622306L236.29619843658892,8.493020096035679L237.2799947450709,88.76517416183378L238.2637910535529,111.18878829008014L239.24758736203486,98.11416157802606L240.23138367051686,120.1387054336587L241.21517997899883,59.401086554326696L242.1989762874808,84.97211429817634L243.1827725959628,91.96985777732299L244.16656890444477,93.67564288001618L245.15036521292677,98.81919983271794L246.13416152140874,105.36016171032539L247.11795782989074,89.30001054734079L248.1017541383727,95.55071696579876L249.0855504468547,112.59541880559345L250.06934675533668,92.59584976910888L251.05314306381865,114.31187439807856L252.03693937230065,31.203365096718386L253.02073568078262,94.93577029120821L254.00453198926462,72.89015750813944L254.9883282977466,113.05670438157739L255.9721246062286,80.034718462978L256.9559209147106,77.3078551484477L257.93971722319253,100.96028046288778L258.92351353167453,113.7995699760018L259.90730984015653,112.13108624555564L260.89110614863847,85.31368483797944L261.87490245712047,100.00005124807929L262.85869876560247,85.46400271797137L263.84249507408447,80.66979095089278L264.8262913825664,112.72623961500247L265.81008769104835,43.48627773983333L266.79388399953035,47.3042333978041L267.77768030801235,42.91533096592576L268.76147661649435,120.66298015023288L269.7452729249763,65.94710860188079L270.7290692334583,134.9480756881245L271.7128655419403,127.38393777434129L272.6966618504223,133.18781969986475L273.68045815890423,108.06658484016084L274.66425446738623,114.3602029507111L275.6480507758682,86.32350613650634L276.63184708435017,111.65895485728464L277.61564339283217,116.30178471819377L278.59943970131417,39.23721011185674L279.58323600979617,80.90802399380468L280.5670323182781,93.32528203304174L281.5508286267601,47.67736803234007L282.5346249352421,108.51810072124182L283.51842124372405,95.43826269915904L284.50221755220605,115.76667628053909L285.48601386068805,103.76813067897743L286.46981016917005,85.23271607322992L287.453606477652,70.21386566505913L288.437402786134,67.60076246747737L289.421199094616,100.72654534881731L290.404995403098,93.28244288818883L291.3887917115799,127.54274670414213" style="fill: none;" fill="none"></path></g></g></g></g></g></g><g transform="translate(37, 177)" clip-path="url(#clip_1)"><clipPath id="clip_1"><rect width="293" height="23"></rect></clipPath><g><g><line x1="10.023047485732848" y1="0" x2="10.023047485732848" y2="5" style="visibility: inherit;" fill="rgb(0, 0, 0)" stroke="rgb(204, 204, 204)" stroke-width="1px"></line><line x1="42.81625776846561" y1="0" x2="42.81625776846561" y2="5" style="visibility: inherit;" fill="rgb(0, 0, 0)" stroke="rgb(204, 204, 204)" stroke-width="1px"></line><line x1="75.60946805119838" y1="0" x2="75.60946805119838" y2="5" style="visibility: inherit;" fill="rgb(0, 0, 0)" stroke="rgb(204, 204, 204)" stroke-width="1px"></line><line x1="108.40267833393114" y1="0" x2="108.40267833393114" y2="5" style="visibility: inherit;" fill="rgb(0, 0, 0)" stroke="rgb(204, 204, 204)" stroke-width="1px"></line><line x1="141.1958886166639" y1="0" x2="141.1958886166639" y2="5" style="visibility: inherit;" fill="rgb(0, 0, 0)" stroke="rgb(204, 204, 204)" stroke-width="1px"></line><line x1="173.98909889939665" y1="0" x2="173.98909889939665" y2="5" style="visibility: inherit;" fill="rgb(0, 0, 0)" stroke="rgb(204, 204, 204)" stroke-width="1px"></line><line x1="206.7823091821294" y1="0" x2="206.7823091821294" y2="5" style="visibility: inherit;" fill="rgb(0, 0, 0)" stroke="rgb(204, 204, 204)" stroke-width="1px"></line><line x1="239.5755194648622" y1="0" x2="239.5755194648622" y2="5" style="visibility: inherit;" fill="rgb(0, 0, 0)" stroke="rgb(204, 204, 204)" stroke-width="1px"></line><line x1="272.36872974759495" y1="0" x2="272.36872974759495" y2="5" style="visibility: inherit;" fill="rgb(0, 0, 0)" stroke="rgb(204, 204, 204)" stroke-width="1px"></line></g><g transform="translate(0, 8)"><text x="10.023047485732848" y="0" dx="0em" dy="0.95em" style="text-anchor: middle; visibility: hidden; font-family: &quot;Helvetica Neue&quot;, sans-serif; font-size: 12px; font-weight: 200;" fill="rgb(50, 49, 63)" stroke="none" stroke-width="1px">110k</text><text x="42.81625776846561" y="0" dx="0em" dy="0.95em" style="text-anchor: middle; visibility: inherit; font-family: &quot;Helvetica Neue&quot;, sans-serif; font-size: 12px; font-weight: 200;" fill="rgb(50, 49, 63)" stroke="none" stroke-width="1px">120k</text><text x="75.60946805119838" y="0" dx="0em" dy="0.95em" style="text-anchor: middle; visibility: inherit; font-family: &quot;Helvetica Neue&quot;, sans-serif; font-size: 12px; font-weight: 200;" fill="rgb(50, 49, 63)" stroke="none" stroke-width="1px">130k</text><text x="108.40267833393114" y="0" dx="0em" dy="0.95em" style="text-anchor: middle; visibility: inherit; font-family: &quot;Helvetica Neue&quot;, sans-serif; font-size: 12px; font-weight: 200;" fill="rgb(50, 49, 63)" stroke="none" stroke-width="1px">140k</text><text x="141.1958886166639" y="0" dx="0em" dy="0.95em" style="text-anchor: middle; visibility: inherit; font-family: &quot;Helvetica Neue&quot;, sans-serif; font-size: 12px; font-weight: 200;" fill="rgb(50, 49, 63)" stroke="none" stroke-width="1px">150k</text><text x="173.98909889939665" y="0" dx="0em" dy="0.95em" style="text-anchor: middle; visibility: inherit; font-family: &quot;Helvetica Neue&quot;, sans-serif; font-size: 12px; font-weight: 200;" fill="rgb(50, 49, 63)" stroke="none" stroke-width="1px">160k</text><text x="206.7823091821294" y="0" dx="0em" dy="0.95em" style="text-anchor: middle; visibility: inherit; font-family: &quot;Helvetica Neue&quot;, sans-serif; font-size: 12px; font-weight: 200;" fill="rgb(50, 49, 63)" stroke="none" stroke-width="1px">170k</text><text x="239.5755194648622" y="0" dx="0em" dy="0.95em" style="text-anchor: middle; visibility: inherit; font-family: &quot;Helvetica Neue&quot;, sans-serif; font-size: 12px; font-weight: 200;" fill="rgb(50, 49, 63)" stroke="none" stroke-width="1px">180k</text><text x="272.36872974759495" y="0" dx="0em" dy="0.95em" style="text-anchor: middle; visibility: inherit; font-family: &quot;Helvetica Neue&quot;, sans-serif; font-size: 12px; font-weight: 200;" fill="rgb(50, 49, 63)" stroke="none" stroke-width="1px">190k</text></g><line x1="0" y1="0" x2="293" y2="0" fill="rgb(0, 0, 0)" stroke="rgb(204, 204, 204)" stroke-width="1px"></line></g></g></g></g></svg>