<svg viewBox="0 0 330 200" xmlns="http://www.w3.org/2000/svg"><g><g><g><g><g><line x1="46" y1="177" x2="41" y2="177" style="visibility: inherit;" fill="rgb(0, 0, 0)" stroke="rgb(204, 204, 204)" stroke-width="1px"></line><line x1="46" y1="160.9090909090909" x2="41" y2="160.9090909090909" style="visibility: inherit;" fill="rgb(0, 0, 0)" stroke="rgb(204, 204, 204)" stroke-width="1px"></line><line x1="46" y1="144.8181818181818" x2="41" y2="144.8181818181818" style="visibility: inherit;" fill="rgb(0, 0, 0)" stroke="rgb(204, 204, 204)" stroke-width="1px"></line><line x1="46" y1="128.72727272727275" x2="41" y2="128.72727272727275" style="visibility: inherit;" fill="rgb(0, 0, 0)" stroke="rgb(204, 204, 204)" stroke-width="1px"></line><line x1="46" y1="112.63636363636364" x2="41" y2="112.63636363636364" style="visibility: inherit;" fill="rgb(0, 0, 0)" stroke="rgb(204, 204, 204)" stroke-width="1px"></line><line x1="46" y1="96.54545454545455" x2="41" y2="96.54545454545455" style="visibility: inherit;" fill="rgb(0, 0, 0)" stroke="rgb(204, 204, 204)" stroke-width="1px"></line><line x1="46" y1="80.45454545454547" x2="41" y2="80.45454545454547" style="visibility: inherit;" fill="rgb(0, 0, 0)" stroke="rgb(204, 204, 204)" stroke-width="1px"></line><line x1="46" y1="64.36363636363636" x2="41" y2="64.36363636363636" style="visibility: inherit;" fill="rgb(0, 0, 0)" stroke="rgb(204, 204, 204)" stroke-width="1px"></line><line x1="46" y1="48.27272727272728" x2="41" y2="48.27272727272728" style="visibility: inherit;" fill="rgb(0, 0, 0)" stroke="rgb(204, 204, 204)" stroke-width="1px"></line><line x1="46" y1="32.18181818181819" x2="41" y2="32.18181818181819" style="visibility: inherit;" fill="rgb(0, 0, 0)" stroke="rgb(204, 204, 204)" stroke-width="1px"></line><line x1="46" y1="16.090909090909093" x2="41" y2="16.090909090909093" style="visibility: inherit;" fill="rgb(0, 0, 0)" stroke="rgb(204, 204, 204)" stroke-width="1px"></line><line x1="46" y1="0" x2="41" y2="0" style="visibility: inherit;" fill="rgb(0, 0, 0)" stroke="rgb(204, 204, 204)" stroke-width="1px"></line></g><g transform="translate(36, 0)"><text x="0" y="177" dx="0em" dy="0.3em" style="text-anchor: end; visibility: hidden; font-family: &quot;Helvetica Neue&quot;, sans-serif; font-size: 12px; font-weight: 200;" fill="rgb(50, 49, 63)" stroke="none" stroke-width="1px">-100</text><text x="0" y="160.9090909090909" dx="0em" dy="0.3em" style="text-anchor: end; visibility: inherit; font-family: &quot;Helvetica Neue&quot;, sans-serif; font-size: 12px; font-weight: 200;" fill="rgb(50, 49, 63)" stroke="none" stroke-width="1px">0</text><text x="0" y="144.8181818181818" dx="0em" dy="0.3em" style="text-anchor: end; visibility: hidden; font-family: &quot;Helvetica Neue&quot;, sans-serif; font-size: 12px; font-weight: 200;" fill="rgb(50, 49, 63)" stroke="none" stroke-width="1px">100</text><text x="0" y="128.72727272727275" dx="0em" dy="0.3em" style="text-anchor: end; visibility: inherit; font-family: &quot;Helvetica Neue&quot;, sans-serif; font-size: 12px; font-weight: 200;" fill="rgb(50, 49, 63)" stroke="none" stroke-width="1px">200</text><text x="0" y="112.63636363636364" dx="0em" dy="0.3em" style="text-anchor: end; visibility: hidden; font-family: &quot;Helvetica Neue&quot;, sans-serif; font-size: 12px; font-weight: 200;" fill="rgb(50, 49, 63)" stroke="none" stroke-width="1px">300</text><text x="0" y="96.54545454545455" dx="0em" dy="0.3em" style="text-anchor: end; visibility: inherit; font-family: &quot;Helvetica Neue&quot;, sans-serif; font-size: 12px; font-weight: 200;" fill="rgb(50, 49, 63)" stroke="none" stroke-width="1px">400</text><text x="0" y="80.45454545454547" dx="0em" dy="0.3em" style="text-anchor: end; visibility: hidden; font-family: &quot;Helvetica Neue&quot;, sans-serif; font-size: 12px; font-weight: 200;" fill="rgb(50, 49, 63)" stroke="none" stroke-width="1px">500</text><text x="0" y="64.36363636363636" dx="0em" dy="0.3em" style="text-anchor: end; visibility: inherit; font-family: &quot;Helvetica Neue&quot;, sans-serif; font-size: 12px; font-weight: 200;" fill="rgb(50, 49, 63)" stroke="none" stroke-width="1px">600</text><text x="0" y="48.27272727272728" dx="0em" dy="0.3em" style="text-anchor: end; visibility: hidden; font-family: &quot;Helvetica Neue&quot;, sans-serif; font-size: 12px; font-weight: 200;" fill="rgb(50, 49, 63)" stroke="none" stroke-width="1px">700</text><text x="0" y="32.18181818181819" dx="0em" dy="0.3em" style="text-anchor: end; visibility: inherit; font-family: &quot;Helvetica Neue&quot;, sans-serif; font-size: 12px; font-weight: 200;" fill="rgb(50, 49, 63)" stroke="none" stroke-width="1px">800</text><text x="0" y="16.090909090909093" dx="0em" dy="0.3em" style="text-anchor: end; visibility: hidden; font-family: &quot;Helvetica Neue&quot;, sans-serif; font-size: 12px; font-weight: 200;" fill="rgb(50, 49, 63)" stroke="none" stroke-width="1px">900</text><text x="0" y="0" dx="0em" dy="0.3em" style="text-anchor: end; visibility: hidden; font-family: &quot;Helvetica Neue&quot;, sans-serif; font-size: 12px; font-weight: 200;" fill="rgb(50, 49, 63)" stroke="none" stroke-width="1px">1e+3</text></g><line x1="46" y1="0" x2="46" y2="177" fill="rgb(0, 0, 0)" stroke="rgb(204, 204, 204)" stroke-width="1px"></line></g></g><g transform="translate(46, 0)" clip-path="url(#clip_0)"><clipPath id="clip_0"><rect width="284" height="177"></rect></clipPath><g><g><g><line x1="0" y1="0" x2="0" y2="177" fill="rgb(0, 0, 0)" stroke="rgb(60, 60, 60)" stroke-width="1px" opacity="0.25"></line><line x1="25.81818181818182" y1="0" x2="25.81818181818182" y2="177" fill="rgb(0, 0, 0)" stroke="rgb(60, 60, 60)" stroke-width="1px" opacity="0.25"></line><line x1="51.63636363636364" y1="0" x2="51.63636363636364" y2="177" fill="rgb(0, 0, 0)" stroke="rgb(60, 60, 60)" stroke-width="1px" opacity="0.25"></line><line x1="77.45454545454545" y1="0" x2="77.45454545454545" y2="177" fill="rgb(0, 0, 0)" stroke="rgb(60, 60, 60)" stroke-width="1px" opacity="0.25"></line><line x1="103.27272727272728" y1="0" x2="103.27272727272728" y2="177" fill="rgb(0, 0, 0)" stroke="rgb(60, 60, 60)" stroke-width="1px" opacity="0.25"></line><line x1="129.0909090909091" y1="0" x2="129.0909090909091" y2="177" fill="rgb(0, 0, 0)" stroke="rgb(60, 60, 60)" stroke-width="1px" opacity="0.25"></line><line x1="154.9090909090909" y1="0" x2="154.9090909090909" y2="177" fill="rgb(0, 0, 0)" stroke="rgb(60, 60, 60)" stroke-width="1px" opacity="0.25"></line><line x1="180.72727272727272" y1="0" x2="180.72727272727272" y2="177" fill="rgb(0, 0, 0)" stroke="rgb(60, 60, 60)" stroke-width="1px" opacity="0.25"></line><line x1="206.54545454545456" y1="0" x2="206.54545454545456" y2="177" fill="rgb(0, 0, 0)" stroke="rgb(60, 60, 60)" stroke-width="1px" opacity="0.25"></line><line x1="232.36363636363637" y1="0" x2="232.36363636363637" y2="177" fill="rgb(0, 0, 0)" stroke="rgb(60, 60, 60)" stroke-width="1px" opacity="0.25"></line><line x1="258.1818181818182" y1="0" x2="258.1818181818182" y2="177" fill="rgb(0, 0, 0)" stroke="rgb(60, 60, 60)" stroke-width="1px" opacity="0.25"></line><line x1="284" y1="0" x2="284" y2="177" fill="rgb(0, 0, 0)" stroke="rgb(60, 60, 60)" stroke-width="1px" opacity="0.25"></line></g><g><line x1="0" y1="177" x2="284" y2="177" fill="rgb(0, 0, 0)" stroke="rgb(60, 60, 60)" stroke-width="1px" opacity="0.25"></line><line x1="0" y1="160.9090909090909" x2="284" y2="160.9090909090909" fill="rgb(0, 0, 0)" stroke="rgb(60, 60, 60)" stroke-width="1px" opacity="0.25"></line><line x1="0" y1="144.8181818181818" x2="284" y2="144.8181818181818" fill="rgb(0, 0, 0)" stroke="rgb(60, 60, 60)" stroke-width="1px" opacity="0.25"></line><line x1="0" y1="128.72727272727275" x2="284" y2="128.72727272727275" fill="rgb(0, 0, 0)" stroke="rgb(60, 60, 60)" stroke-width="1px" opacity="0.25"></line><line x1="0" y1="112.63636363636364" x2="284" y2="112.63636363636364" fill="rgb(0, 0, 0)" stroke="rgb(60, 60, 60)" stroke-width="1px" opacity="0.25"></line><line x1="0" y1="96.54545454545455" x2="284" y2="96.54545454545455" fill="rgb(0, 0, 0)" stroke="rgb(60, 60, 60)" stroke-width="1px" opacity="0.25"></line><line x1="0" y1="80.45454545454547" x2="284" y2="80.45454545454547" fill="rgb(0, 0, 0)" stroke="rgb(60, 60, 60)" stroke-width="1px" opacity="0.25"></line><line x1="0" y1="64.36363636363636" x2="284" y2="64.36363636363636" fill="rgb(0, 0, 0)" stroke="rgb(60, 60, 60)" stroke-width="1px" opacity="0.25"></line><line x1="0" y1="48.27272727272728" x2="284" y2="48.27272727272728" fill="rgb(0, 0, 0)" stroke="rgb(60, 60, 60)" stroke-width="1px" opacity="0.25"></line><line x1="0" y1="32.18181818181819" x2="284" y2="32.18181818181819" fill="rgb(0, 0, 0)" stroke="rgb(60, 60, 60)" stroke-width="1px" opacity="0.25"></line><line x1="0" y1="16.090909090909093" x2="284" y2="16.090909090909093" fill="rgb(0, 0, 0)" stroke="rgb(60, 60, 60)" stroke-width="1px" opacity="0.25"></line><line x1="0" y1="0" x2="284" y2="0" fill="rgb(0, 0, 0)" stroke="rgb(60, 60, 60)" stroke-width="1px" opacity="0.25"></line></g></g></g><g><g><line x1="0" y1="160.9090909090909" x2="284" y2="160.9090909090909" fill="rgb(0, 0, 0)" stroke="rgb(153, 153, 153)" stroke-width="1.5px"></line></g></g><g><g><line x1="-232.36363636363637" y1="0" x2="-232.36363636363637" y2="177" fill="rgb(0, 0, 0)" stroke="rgb(153, 153, 153)" stroke-width="1.5px"></line></g></g><g><g><g><g><g><path stroke="rgb(255, 112, 67)" stroke-width="2px" d="M22.978181818181817,80.73097045898439L23.75272727272727,66.02888619238222L24.527272727272727,84.148054260094L25.301818181818184,77.25223128216535L26.076363636363634,25.437324681233207L26.85090909090909,63.15961992566169L27.625454545454545,51.27705968411627L28.400000000000002,100.85585595989166L29.174545454545452,26.508498799871205L29.94909090909091,76.88765724225398L30.723636363636363,119.5458626104038L31.49818181818182,110.05504433975226L32.27272727272727,61.444179774130276L33.04727272727273,73.15734250857855L33.82181818181818,90.21492341447214L34.596363636363634,76.61366181079732L35.37090909090909,85.7565167815589L36.14545454545454,105.40458831256913L36.92,110.77774123987915L37.694545454545455,78.29866422725868L38.469090909090916,86.03458593061114L39.24363636363636,93.97132688101372L40.018181818181816,22.823575348892803L40.79272727272728,71.91703965840557L41.56727272727273,65.18858099809994L42.34181818181818,89.27218649286834L43.11636363636364,94.62051063975316L43.89090909090909,97.81061644677793L44.66545454545455,44.412644256368594L45.44,52.022883358580444L46.21454545454545,3.130802209516645L46.98909090909091,75.35195173315613L47.763636363636365,92.57296256843414L48.53818181818181,58.49811668316951L49.31272727272727,86.02552471243678L50.087272727272726,96.58668777031289L50.86181818181818,82.50170255060384L51.63636363636364,74.8400839498189L52.41090909090909,82.08304225061443L53.18545454545455,64.87417849443194L53.96,97.09302825086388L54.734545454545454,83.68437734876268L55.509090909090915,74.97386191484668L56.28363636363636,98.18977547894657L57.058181818181815,83.4016623420104L57.832727272727276,79.04720496062164L58.60727272727273,-46.43512784447606L59.381818181818176,4.8432301762635745L60.156363636363636,78.51778038673665L60.93090909090909,83.49707387774151L61.70545454545455,68.01233133639425L62.48,112.93340677568256L63.25454545454545,84.548726520711L64.02909090909091,71.74833325959582L64.80363636363636,5.932742331244896L65.57818181818182,71.74093658359442L66.35272727272728,82.81709544089242L67.12727272727273,71.04798327933871L67.90181818181819,68.34752675271818L68.67636363636363,59.82517236793814L69.4509090909091,102.8680653813545L70.22545454545455,44.57328942385243L71,110.47262199176765L71.77454545454546,64.33460819641984L72.5490909090909,85.9442486440687L73.32363636363637,82.40513397145283L74.09818181818183,60.4189626476294L74.87272727272726,58.71193697544069L75.64727272727272,103.49865223166138L76.42181818181818,81.23878823345684L77.19636363636363,79.63341590775534L77.97090909090909,72.50166401557769L78.74545454545455,58.226228385738935L79.52000000000001,63.48863987270076L80.29454545454546,61.7195796286953L81.06909090909092,64.65738528211078L81.84363636363636,88.09052201826931L82.61818181818181,105.15431758012129L83.39272727272727,51.70870244620308L84.16727272727273,85.70015433514693L84.94181818181818,98.34141088194764L85.71636363636364,107.03656309934195L86.4909090909091,108.50271283723066L87.26545454545455,76.7604105287379L88.04,9.02956674370671L88.81454545454545,76.80073269091126L89.5890909090909,76.49891477771335L90.36363636363636,69.78893574674963L91.13818181818182,114.42700462046392L91.91272727272727,18.374916049738886L92.68727272727273,97.79991777965157L93.46181818181819,98.73645236968235L94.23636363636365,36.483666622511606L95.01090909090908,102.69032741880193L95.78545454545454,87.49439864929008L96.56,69.21564016166195L97.33454545454545,77.84391330115406L98.10909090909091,50.275603319439924L98.88363636363637,112.34257613773451L99.65818181818182,96.77108278122643L100.43272727272728,110.3835845768431L101.20727272727274,111.81184359479902L101.98181818181817,81.45831809873793L102.75636363636363,84.85899901202838L103.53090909090909,89.96777902003748L104.30545454545454,20.9484602937965L105.08,59.071415560332L105.85454545454546,91.75753145539623L106.6290909090909,81.68467048669523L107.40363636363637,81.64306876406144L108.17818181818183,112.87185468683745L108.95272727272726,117.01717981585915L109.72727272727272,115.74441978714788L110.50181818181818,94.50975936526306L111.27636363636364,107.84278002995508L112.05090909090909,90.36846740164432L112.82545454545455,101.07718560631544L113.60000000000001,96.67749695300705L114.37454545454545,78.29110360927254L115.14909090909092,79.53369128329632L115.92363636363638,86.93039266945765L116.69818181818181,46.97998346439343L117.47272727272727,84.49808335883354L118.24727272727273,96.96532932607523L119.02181818181818,100.26263527732151L119.79636363636364,20.096707848869954L120.5709090909091,69.5641424710847L121.34545454545454,99.53112886505951L122.12,66.58397879530267L122.89454545454545,38.54248713698013L123.6690909090909,83.9381269351137L124.44363636363636,61.28655353807768L125.21818181818182,78.49206504291723L125.99272727272728,112.0356447024522L126.76727272727273,97.7360140427039L127.54181818181819,70.89995538992454L128.31636363636363,35.54564268878161L129.0909090909091,101.36444768306207L129.86545454545455,79.11627435007853L130.64000000000001,-11.987866210896499L131.41454545454545,68.04929537165135L132.1890909090909,114.8162150192652L132.96363636363637,79.74950384714215L133.7381818181818,81.58843545618382L134.51272727272726,88.58104362213635L135.28727272727272,82.52976658847126L136.06181818181818,72.9320174575191L136.83636363636364,98.12696390886165L137.6109090909091,114.87736546084437L138.38545454545454,95.06530100762727L139.16,67.0714751878746L139.93454545454546,82.52728671642173L140.70909090909092,85.2064245486122L141.48363636363635,126.92476320303282L142.2581818181818,83.65602035677671L143.03272727272727,51.59374019212892L143.80727272727273,8.51114491726895L144.58181818181816,67.96478874803122L145.35636363636365,90.79901465657063L146.13090909090909,100.54420614080371L146.90545454545452,81.39354169488445L147.68,73.99172957188867L148.45454545454544,110.99127911237899L149.22909090909093,44.337426151579194L150.00363636363636,83.28081891729032L150.77818181818182,38.90666768911373L151.55272727272728,80.55310356120377L152.32727272727274,80.19055342915685L153.10181818181817,58.35717531777949L153.87636363636366,103.61591242706072L154.6509090909091,122.49788583190396L155.42545454545453,109.11430592592177L156.20000000000002,30.283321626531176L156.97454545454545,45.17010789621213L157.7490909090909,67.60566017155108L158.52363636363637,89.22080473542238L159.29818181818183,96.04489849435515L160.07272727272726,80.84623760758014L160.84727272727275,55.38631894992581L161.62181818181818,91.31218937156487L162.39636363636362,88.26489376139783L163.1709090909091,57.19248225939958L163.94545454545454,0.24278450762443526L164.72,47.764377184014535L165.49454545454546,111.63782923682191L166.26909090909092,108.59365816987336L167.04363636363635,87.74325727847283L167.8181818181818,98.48384245285654L168.59272727272727,60.75987131197279L169.3672727272727,100.40657768591332L170.1418181818182,79.72572213878298L170.91636363636363,72.21231116439309L171.6909090909091,58.743258608223826L172.46545454545455,35.40013255582147L173.24,88.11895303507082L174.01454545454544,101.92277168434894L174.7890909090909,98.84657953979874L175.56363636363636,85.51202448175995L176.3381818181818,82.91816756063814L177.11272727272728,89.98244694116792L177.88727272727272,83.62341863902242L178.6618181818182,104.99035601536723L179.43636363636364,100.24461604582856L180.2109090909091,76.15867274969098L180.98545454545456,92.06635045827358L181.76,59.22627761527019L182.53454545454545,91.99824914633793L183.3090909090909,56.78851855145831L184.08363636363637,83.54124439021443L184.8581818181818,109.96308765492827L185.6327272727273,108.2630984630957L186.40727272727273,103.10940418713196L187.1818181818182,92.04621991252469L187.95636363636365,106.72686372577179L188.73090909090908,74.15261236335671L189.50545454545454,79.67047439862854L190.28,112.2836481064799L191.05454545454546,80.14948244354208L191.8290909090909,116.41946214181591L192.60363636363638,83.57876066865745L193.37818181818182,95.82213189494254L194.15272727272725,27.31810167751513L194.92727272727274,78.3804610539429L195.70181818181817,92.8850784833876L196.47636363636363,60.007784314006656L197.2509090909091,95.10996660693861L198.02545454545455,85.7484792714262L198.79999999999998,101.00727971524493L199.57454545454547,52.920678856144676L200.3490909090909,89.00427454846955L201.12363636363634,105.70587006662247L201.89818181818183,75.48521583552369L202.67272727272726,97.10132314589441L203.44727272727272,92.45139632328247L204.22181818181818,64.80557223430179L204.99636363636364,75.59906316064325L205.77090909090907,113.03516035557013L206.54545454545456,76.85255441741828L207.32,108.0001526219913L208.09454545454548,15.488909342716624L208.86909090909091,77.44447979117419L209.64363636363635,101.71371938637066L210.41818181818184,91.41516052487559L211.19272727272727,68.82852101800623L211.96727272727273,110.44539619887247L212.7418181818182,117.96073493727003L213.51636363636365,55.14668484715362L214.29090909090908,79.00990060318192L215.06545454545457,51.9065028921932L215.84,71.41087541295974L216.61454545454544,101.29949844345643L217.38909090909092,49.067208819362136L218.16363636363636,102.84975691312738L218.93818181818182,102.27549803826942L219.71272727272728,84.21232658733624L220.48727272727274,94.53856613184537L221.26181818181817,93.02720789634323L222.03636363636366,116.91934238134769L222.8109090909091,100.00619237174024L223.58545454545452,-2.738381409477654L224.36,76.7105997896701L225.13454545454545,70.00755650049418L225.9090909090909,-7.029168126753802L226.68363636363637,72.60548679890637L227.45818181818183,38.35242521518049L228.23272727272726,100.38175611193685L229.00727272727275,91.33501335929557L229.78181818181818,28.496058725550427L230.5563636363636,85.11861454916932L231.3309090909091,105.90564660117485L232.10545454545453,97.39001396117808L232.88,113.51035936848776L233.65454545454546,68.56154255147686L234.42909090909092,84.92850177330112L235.20363636363635,91.3281983792149L235.97818181818184,93.04967571064124L236.75272727272727,97.06296409961158L237.5272727272727,102.28880127994341L238.3018181818182,90.46804415300252L239.07636363636362,94.41303555789936L239.8509090909091,107.59436170230336L240.62545454545455,93.32120743569227L241.4,108.82199331007881L242.17454545454547,46.87830087715923L242.9490909090909,91.02649680632493L243.72363636363636,77.27756644280645L244.49818181818182,106.79586200501831L245.27272727272728,83.7484871549155L246.0472727272727,80.1378101627336L246.8218181818182,97.82044742308177L247.59636363636363,108.73520196786937L248.3709090909091,108.20206101789239L249.14545454545456,87.84326942023559L249.92,97.60902126076716L250.69454545454545,87.24745137884484L251.4690909090909,82.92002157006927L252.24363636363637,106.92346989348675L253.0181818181818,56.05947774653549L253.7927272727273,55.54495728168965L254.56727272727272,52.18443595956177L255.34181818181818,110.87889752980843L256.11636363636364,73.34601622266521L256.8909090909091,123.122418583717L257.6654545454545,120.72509566790623L258.44,124.96283949557625L259.21454545454543,106.20910559316073L259.9890909090909,109.7221073854773L260.76363636363635,88.71038690191928L261.53818181818184,106.50260237700734L262.3127272727273,111.21316346564932L263.08727272727276,53.12680998209463L263.8618181818182,80.81447909736369L264.6363636363636,92.07974203752828L265.4109090909091,58.24108816368016L266.18545454545455,102.08092120494574L266.96,95.1058769364074L267.73454545454547,110.04406083875696L268.5090909090909,101.95204351953944L269.2836363636364,87.3631575685524L270.0581818181818,75.00394448999872L270.83272727272725,72.19558533496253L271.60727272727274,97.11118653084137L272.3818181818182,93.13915658277699L273.1563636363636,118.83656752107258" style="fill: none;" fill="none"></path></g></g></g></g><g opacity="0.2"><g><g><g><path stroke="rgb(255, 112, 67)" stroke-width="2px" d="M22.978181818181817,80.73097045898439L23.75272727272727,65.04384654651989L24.527272727272727,85.44337546608665L25.301818181818184,76.75718178488991L26.076363636363634,21.71650068803268L26.85090909090909,65.86850563742898L27.625454545454545,50.423756935813216L28.400000000000002,104.41617678555575L29.174545454545452,21.16951388272372L29.94909090909091,80.50545318603517L30.723636363636363,122.60920640425249L31.49818181818182,109.37349576083096L32.27272727272727,57.95336742054333L33.04727272727273,73.99848066850141L33.82181818181818,91.4398515181108L34.596363636363634,75.63693670099433L35.37090909090909,86.4130776422674L36.14545454545454,106.81554307417436L36.92,111.16359466552734L37.694545454545455,75.96629749644886L38.469090909090916,86.59011299826881L39.24363636363636,94.54127505215732L40.018181818181816,17.71435846502132L40.79272727272728,75.44250815651634L41.56727272727273,64.70540122292259L42.34181818181818,91.00166298606179L43.11636363636364,95.0045810768821L43.89090909090909,98.03970228715376L44.66545454545455,40.57806318803267L45.44,52.56938498757103L46.21454545454545,-0.3802046897194771L46.98909090909091,80.53825078790837L47.763636363636365,93.80962679776279L48.53818181818181,56.05115561745383L49.31272727272727,88.00230535333806L50.087272727272726,97.34509926535867L50.86181818181818,81.49024058948865L51.63636363636364,74.28989268909802L52.41090909090909,82.6031689453125L53.18545454545455,63.6383865633878L53.96,99.40670770818537L54.734545454545454,82.72148387562144L55.509090909090915,74.34834794477982L56.28363636363636,99.8569418334961L57.058181818181815,82.33970780806109L57.832727272727276,78.73450544877485L58.60727272727273,-55.446184969815334L59.381818181818176,8.525598865855812L60.156363636363636,83.80845012318004L60.93090909090909,83.85464372114701L61.70545454545455,66.90035089666193L62.48,116.15925034956499L63.25454545454545,82.51038399436257L64.02909090909091,70.82911959561434L64.80363636363636,1.2064351584694464L65.57818181818182,76.46671259099787L66.35272727272728,83.61248948530717L67.12727272727273,70.20282731489702L67.90181818181819,68.15360329367898L68.67636363636363,59.21317049893466L69.4509090909091,105.95903411865234L70.22545454545455,40.38706221147018L71,115.20494276566939L71.77454545454546,61.021374622691766L72.5490909090909,87.4960663396662L73.32363636363637,82.1509853293679L74.09818181818183,58.840105757279844L74.87272727272726,58.58935313831675L75.64727272727272,106.71484721790661L76.42181818181818,79.64027709960938L77.19636363636363,79.5181319358132L77.97090909090909,71.98952320445667L78.74545454545455,57.201089921431105L79.52000000000001,63.86654080477629L80.29454545454546,61.5925410045277L81.06909090909092,64.86835310502487L81.84363636363636,89.77328746448863L82.61818181818181,106.37969196666371L83.39272727272727,47.870700073242176L84.16727272727273,88.14112676447087L84.94181818181818,99.24919672185725L85.71636363636364,107.66097381591797L86.4909090909091,108.6079990456321L87.26545454545455,74.48095259232954L88.04,4.165722656250011L88.81454545454545,81.66747236772018L89.5890909090909,76.47724082253195L90.36363636363636,69.30708301890981L91.13818181818182,117.63252510764381L91.91272727272727,11.477284823330962L92.68727272727273,103.50353526722301L93.46181818181819,98.80370619340377L94.23636363636365,32.01320933948864L95.01090909090908,107.44471785111861L95.78545454545454,86.40315831964665L96.56,67.9030176336115L97.33454545454545,78.46352134011009L98.10909090909091,48.29588545365766L98.88363636363637,116.79968994140626L99.65818181818182,95.65287264737216L100.43272727272728,111.36111686012961L101.20727272727274,111.91440881902521L101.98181818181817,79.27859011563388L102.75636363636363,85.10320653742009L103.53090909090909,90.33464746648615L104.30545454545454,15.992089066938917L105.08,61.809076871004976L105.85454545454546,94.10476593017579L106.6290909090909,80.96132462935014L107.40363636363637,81.64008128773082L108.17818181818183,115.11443631258878L108.95272727272726,117.31486125599255L109.72727272727272,115.65302115700462L110.50181818181818,92.98486949573864L111.27636363636364,108.80024239280007L112.05090909090909,89.1136132257635L112.82545454545455,101.84619323730469L113.60000000000001,96.3615493219549L114.37454545454545,76.97075167569247L115.14909090909092,79.62292319557884L115.92363636363638,87.46155986439098L116.69818181818181,44.11109019886365L117.47272727272727,87.19230918190696L118.24727272727273,97.8606192294034L119.02181818181818,100.49941930597478L119.79636363636364,14.339883478338066L120.5709090909091,73.11646628639915L121.34545454545454,101.68309894908558L122.12,64.21799910111861L122.89454545454545,36.52878945090555L123.6690909090909,87.19804962158204L124.44363636363636,59.65991321910512L125.21818181818182,79.7276162442294L125.99272727272728,114.44445481733842L126.76727272727273,96.70913810036399L127.54181818181819,68.9728214888139L128.31636363636363,33.00680136940696L129.0909090909091,106.09098566228693L129.86545454545455,77.51860273881393L130.64000000000001,-18.530178555575276L131.41454545454545,73.79687289151279L132.1890909090909,118.17461117831144L132.96363636363637,77.23131558504971L133.7381818181818,81.72049163818359L134.51272727272726,89.08319233287465L135.28727272727272,82.09521614768288L136.06181818181818,72.24279002796519L136.83636363636364,99.93624730890447L137.6109090909091,116.08023459694601L138.38545454545454,93.64256969105114L139.16,65.06120045055043L139.93454545454546,83.63718958074395L140.70909090909092,85.39881708318536L141.48363636363635,129.92061388882723L142.2581818181818,80.54883303555575L143.03272727272727,49.291304210316056L143.80727272727273,5.4173251065340935L144.58181818181816,72.23423583984376L145.35636363636365,92.43877150102095L146.13090909090909,101.24402160644532L146.90545454545452,80.01830641313033L147.68,73.46019536798651L148.45454545454544,113.64826712868431L149.22909090909093,39.55092224121094L150.00363636363636,86.07739696155895L150.77818181818182,35.72009948730468L151.55272727272728,83.54379081032492L152.32727272727274,80.16451821067116L153.10181818181817,56.789290715997865L153.87636363636366,106.86600394509055L154.6509090909091,123.85382604425604L155.42545454545453,108.15321283513849L156.20000000000002,24.622361339222294L156.97454545454545,46.23914828213779L157.7490909090909,69.21678771972655L158.52363636363637,90.77301768909801L159.29818181818183,96.53494595614346L160.07272727272726,79.75480108087714L160.84727272727275,53.558007535067475L161.62181818181818,93.89207502885299L162.39636363636362,88.04606331565164L163.1709090909091,54.961130093661225L163.94545454545454,-3.846850807883527L164.72,51.17696744051847L165.49454545454546,116.22466877330433L166.26909090909092,108.37505210182883L167.04363636363635,86.24596160888672L167.8181818181818,99.25513849431819L168.59272727272727,58.05086159446023L169.3672727272727,103.2536616377397L170.1418181818182,78.24060175115412L170.91636363636363,71.67276289506391L171.6909090909091,57.77602761008522L172.46545454545455,33.72383089932529L173.24,91.90476329456676L174.01454545454544,102.91404269131748L174.7890909090909,98.62567399458452L175.56363636363636,84.55445193204012L176.3381818181818,82.73189916437322L177.11272727272728,90.48974245938388L177.88727272727272,83.16676816073331L178.6618181818182,106.52474487304687L179.43636363636364,99.90381799871271L180.2109090909091,74.42902837579899L180.98545454545456,93.20870244806463L181.76,56.867987282492905L182.53454545454545,94.35164903120561L183.3090909090909,54.26005986993964L184.08363636363637,85.4623940485174L184.8581818181818,111.86047618519176L185.6327272727273,108.14101992520419L186.40727272727273,102.73931038596413L187.1818181818182,91.25175759055398L187.95636363636365,107.78110074129971L188.73090909090908,71.8134110329368L189.50545454545454,80.06671958229758L190.28,114.62564450350675L191.05454545454546,77.84188426624645L191.8290909090909,119.02405875466087L192.60363636363638,81.22042519309304L193.37818181818182,96.70134504838423L194.15272727272725,22.398734019886376L194.92727272727274,82.04731858686968L195.70181818181817,93.9266748046875L196.47636363636363,57.64682106711649L197.2509090909091,97.63070209849964L198.02545454545455,85.07621812300248L198.79999999999998,102.10303494540128L199.57454545454547,49.46751459295099L200.3490909090909,91.59548667214133L201.12363636363634,106.905234375L201.89818181818183,73.31502951882104L202.67272727272726,98.65360523570668L203.44727272727272,92.11747874866832L204.22181818181818,62.82028797496449L204.99636363636364,76.37415843616832L205.77090909090907,115.72349745316939L206.54545454545456,74.25423223322089L207.32,110.23690404718572L208.09454545454548,8.845551036487933L208.86909090909091,81.89359363902699L209.64363636363635,103.45652651700107L210.41818181818184,90.67560699462891L211.19272727272727,67.20654369007458L211.96727272727273,113.43396065451883L212.7418181818182,118.50042164195668L213.51636363636365,50.63592240767046L214.29090909090908,80.72355060924183L215.06545454545457,49.960171009410516L215.84,72.81151095303622L216.61454545454544,103.44584114768288L217.38909090909092,45.316337002840896L218.16363636363636,106.71195490056819L218.93818181818182,102.23425972678444L219.71272727272728,82.91518565784801L220.48727272727274,95.28010744961826L221.26181818181817,92.91867520419034L222.03636363636366,118.63506908069958L222.8109090909091,98.79163604736328L223.58545454545452,-10.11660910866479L224.36,82.41593927556818L225.13454545454545,69.52620183771306L225.9090909090909,-12.561280184659097L226.68363636363637,78.32415976784446L227.45818181818183,35.892666237571035L228.23272727272726,104.83616679798473L229.00727272727275,90.68535444779829L229.78181818181818,23.98350785688922L230.5563636363636,89.18475735751065L231.3309090909091,107.3983916681463L232.10545454545453,96.77849478981712L232.88,114.66798331520774L233.65454545454546,65.33370683149859L234.42909090909092,86.10383539373224L235.20363636363635,91.78776930375533L235.97818181818184,93.17329734108665L236.75272727272727,97.35116380171343L237.5272727272727,102.66407576127486L238.3018181818182,89.61917949329722L239.07636363636362,94.69633076060902L239.8509090909091,108.5409306751598L240.62545454545455,92.29623279918324L241.4,109.93512584339489L242.17454545454547,42.43004000577059L242.9490909090909,94.19683885054155L243.72363636363636,76.29023703835227L244.49818181818182,108.91561098965731L245.27272727272728,82.0934237948331L246.0472727272727,79.87852253306995L246.8218181818182,99.09026167436079L247.59636363636363,109.51900534889914L248.3709090909091,108.16377544056286L249.14545454545456,86.38127688321201L249.92,98.31031319358132L250.69454545454545,86.50337294145064L251.4690909090909,82.60926294500177L252.24363636363637,108.64719019109553L253.0181818181818,52.406865234375005L253.7927272727273,55.50800886674361L254.56727272727272,51.94311234907671L255.34181818181818,115.0938267100941L256.11636363636364,70.65072892622516L256.8909090909091,126.69692979292435L257.6654545454545,120.55294064608486L258.44,125.26715764825994L259.21454545454543,104.86237443403765L259.9890909090909,109.97438082608309L260.76363636363635,87.20150665283204L261.53818181818184,107.78028558904474L262.3127272727273,111.55143526944248L263.08727272727276,48.95554987127133L263.8618181818182,82.80276830499824L264.6363636363636,92.88871590354226L265.4109090909091,55.811088367808935L266.18545454545455,105.22911929043856L266.96,94.60498951305043L267.73454545454547,111.11679215864702L268.5090909090909,101.370944740989L269.2836363636364,86.31550981001419L270.0581818181818,74.11641257546165L270.83272727272725,71.99391324129972L271.60727272727274,98.90040976784447L272.3818181818182,92.85391970547762L273.1563636363636,120.68193357987838" style="fill: none;" fill="none"></path></g></g></g></g></g></g><g transform="translate(46, 177)" clip-path="url(#clip_1)"><clipPath id="clip_1"><rect width="284" height="23"></rect></clipPath><g><g><line x1="0" y1="0" x2="0" y2="5" style="visibility: inherit;" fill="rgb(0, 0, 0)" stroke="rgb(204, 204, 204)" stroke-width="1px"></line><line x1="25.81818181818182" y1="0" x2="25.81818181818182" y2="5" style="visibility: inherit;" fill="rgb(0, 0, 0)" stroke="rgb(204, 204, 204)" stroke-width="1px"></line><line x1="51.63636363636364" y1="0" x2="51.63636363636364" y2="5" style="visibility: inherit;" fill="rgb(0, 0, 0)" stroke="rgb(204, 204, 204)" stroke-width="1px"></line><line x1="77.45454545454545" y1="0" x2="77.45454545454545" y2="5" style="visibility: inherit;" fill="rgb(0, 0, 0)" stroke="rgb(204, 204, 204)" stroke-width="1px"></line><line x1="103.27272727272728" y1="0" x2="103.27272727272728" y2="5" style="visibility: inherit;" fill="rgb(0, 0, 0)" stroke="rgb(204, 204, 204)" stroke-width="1px"></line><line x1="129.0909090909091" y1="0" x2="129.0909090909091" y2="5" style="visibility: inherit;" fill="rgb(0, 0, 0)" stroke="rgb(204, 204, 204)" stroke-width="1px"></line><line x1="154.9090909090909" y1="0" x2="154.9090909090909" y2="5" style="visibility: inherit;" fill="rgb(0, 0, 0)" stroke="rgb(204, 204, 204)" stroke-width="1px"></line><line x1="180.72727272727272" y1="0" x2="180.72727272727272" y2="5" style="visibility: inherit;" fill="rgb(0, 0, 0)" stroke="rgb(204, 204, 204)" stroke-width="1px"></line><line x1="206.54545454545456" y1="0" x2="206.54545454545456" y2="5" style="visibility: inherit;" fill="rgb(0, 0, 0)" stroke="rgb(204, 204, 204)" stroke-width="1px"></line><line x1="232.36363636363637" y1="0" x2="232.36363636363637" y2="5" style="visibility: inherit;" fill="rgb(0, 0, 0)" stroke="rgb(204, 204, 204)" stroke-width="1px"></line><line x1="258.1818181818182" y1="0" x2="258.1818181818182" y2="5" style="visibility: inherit;" fill="rgb(0, 0, 0)" stroke="rgb(204, 204, 204)" stroke-width="1px"></line><line x1="284" y1="0" x2="284" y2="5" style="visibility: inherit;" fill="rgb(0, 0, 0)" stroke="rgb(204, 204, 204)" stroke-width="1px"></line></g><g transform="translate(0, 8)"><text x="0" y="0" dx="0em" dy="0.95em" style="text-anchor: middle; visibility: hidden; font-family: &quot;Helvetica Neue&quot;, sans-serif; font-size: 12px; font-weight: 200;" fill="rgb(50, 49, 63)" stroke="none" stroke-width="1px">90k</text><text x="25.81818181818182" y="0" dx="0em" dy="0.95em" style="text-anchor: middle; visibility: inherit; font-family: &quot;Helvetica Neue&quot;, sans-serif; font-size: 12px; font-weight: 200;" fill="rgb(50, 49, 63)" stroke="none" stroke-width="1px">100k</text><text x="51.63636363636364" y="0" dx="0em" dy="0.95em" style="text-anchor: middle; visibility: hidden; font-family: &quot;Helvetica Neue&quot;, sans-serif; font-size: 12px; font-weight: 200;" fill="rgb(50, 49, 63)" stroke="none" stroke-width="1px">110k</text><text x="77.45454545454545" y="0" dx="0em" dy="0.95em" style="text-anchor: middle; visibility: inherit; font-family: &quot;Helvetica Neue&quot;, sans-serif; font-size: 12px; font-weight: 200;" fill="rgb(50, 49, 63)" stroke="none" stroke-width="1px">120k</text><text x="103.27272727272728" y="0" dx="0em" dy="0.95em" style="text-anchor: middle; visibility: hidden; font-family: &quot;Helvetica Neue&quot;, sans-serif; font-size: 12px; font-weight: 200;" fill="rgb(50, 49, 63)" stroke="none" stroke-width="1px">130k</text><text x="129.0909090909091" y="0" dx="0em" dy="0.95em" style="text-anchor: middle; visibility: inherit; font-family: &quot;Helvetica Neue&quot;, sans-serif; font-size: 12px; font-weight: 200;" fill="rgb(50, 49, 63)" stroke="none" stroke-width="1px">140k</text><text x="154.9090909090909" y="0" dx="0em" dy="0.95em" style="text-anchor: middle; visibility: hidden; font-family: &quot;Helvetica Neue&quot;, sans-serif; font-size: 12px; font-weight: 200;" fill="rgb(50, 49, 63)" stroke="none" stroke-width="1px">150k</text><text x="180.72727272727272" y="0" dx="0em" dy="0.95em" style="text-anchor: middle; visibility: inherit; font-family: &quot;Helvetica Neue&quot;, sans-serif; font-size: 12px; font-weight: 200;" fill="rgb(50, 49, 63)" stroke="none" stroke-width="1px">160k</text><text x="206.54545454545456" y="0" dx="0em" dy="0.95em" style="text-anchor: middle; visibility: hidden; font-family: &quot;Helvetica Neue&quot;, sans-serif; font-size: 12px; font-weight: 200;" fill="rgb(50, 49, 63)" stroke="none" stroke-width="1px">170k</text><text x="232.36363636363637" y="0" dx="0em" dy="0.95em" style="text-anchor: middle; visibility: inherit; font-family: &quot;Helvetica Neue&quot;, sans-serif; font-size: 12px; font-weight: 200;" fill="rgb(50, 49, 63)" stroke="none" stroke-width="1px">180k</text><text x="258.1818181818182" y="0" dx="0em" dy="0.95em" style="text-anchor: middle; visibility: hidden; font-family: &quot;Helvetica Neue&quot;, sans-serif; font-size: 12px; font-weight: 200;" fill="rgb(50, 49, 63)" stroke="none" stroke-width="1px">190k</text><text x="284" y="0" dx="0em" dy="0.95em" style="text-anchor: middle; visibility: hidden; font-family: &quot;Helvetica Neue&quot;, sans-serif; font-size: 12px; font-weight: 200;" fill="rgb(50, 49, 63)" stroke="none" stroke-width="1px">200k</text></g><line x1="0" y1="0" x2="284" y2="0" fill="rgb(0, 0, 0)" stroke="rgb(204, 204, 204)" stroke-width="1px"></line></g></g></g></g></svg>