<svg viewBox="0 0 330 200" xmlns="http://www.w3.org/2000/svg"><g><g><g><g><g><line x1="64" y1="167.70626579682963" x2="59" y2="167.70626579682963" style="visibility: inherit;" fill="rgb(0, 0, 0)" stroke="rgb(204, 204, 204)" stroke-width="1px"></line><line x1="64" y1="152.0857167719131" x2="59" y2="152.0857167719131" style="visibility: inherit;" fill="rgb(0, 0, 0)" stroke="rgb(204, 204, 204)" stroke-width="1px"></line><line x1="64" y1="136.46516774699654" x2="59" y2="136.46516774699654" style="visibility: inherit;" fill="rgb(0, 0, 0)" stroke="rgb(204, 204, 204)" stroke-width="1px"></line><line x1="64" y1="120.84461872208001" x2="59" y2="120.84461872208001" style="visibility: inherit;" fill="rgb(0, 0, 0)" stroke="rgb(204, 204, 204)" stroke-width="1px"></line><line x1="64" y1="105.22406969716349" x2="59" y2="105.22406969716349" style="visibility: inherit;" fill="rgb(0, 0, 0)" stroke="rgb(204, 204, 204)" stroke-width="1px"></line><line x1="64" y1="89.60352067224694" x2="59" y2="89.60352067224694" style="visibility: inherit;" fill="rgb(0, 0, 0)" stroke="rgb(204, 204, 204)" stroke-width="1px"></line><line x1="64" y1="73.98297164733042" x2="59" y2="73.98297164733042" style="visibility: inherit;" fill="rgb(0, 0, 0)" stroke="rgb(204, 204, 204)" stroke-width="1px"></line><line x1="64" y1="58.36242262241389" x2="59" y2="58.36242262241389" style="visibility: inherit;" fill="rgb(0, 0, 0)" stroke="rgb(204, 204, 204)" stroke-width="1px"></line><line x1="64" y1="42.741873597497346" x2="59" y2="42.741873597497346" style="visibility: inherit;" fill="rgb(0, 0, 0)" stroke="rgb(204, 204, 204)" stroke-width="1px"></line><line x1="64" y1="27.121324572580818" x2="59" y2="27.121324572580818" style="visibility: inherit;" fill="rgb(0, 0, 0)" stroke="rgb(204, 204, 204)" stroke-width="1px"></line><line x1="64" y1="11.50077554766429" x2="59" y2="11.50077554766429" style="visibility: inherit;" fill="rgb(0, 0, 0)" stroke="rgb(204, 204, 204)" stroke-width="1px"></line></g><g transform="translate(54, 0)"><text x="0" y="167.70626579682963" dx="0em" dy="0.3em" style="text-anchor: end; visibility: inherit; font-family: &quot;Helvetica Neue&quot;, sans-serif; font-size: 12px; font-weight: 200;" fill="rgb(50, 49, 63)" stroke="none" stroke-width="1px">100</text><text x="0" y="152.0857167719131" dx="0em" dy="0.3em" style="text-anchor: end; visibility: hidden; font-family: &quot;Helvetica Neue&quot;, sans-serif; font-size: 12px; font-weight: 200;" fill="rgb(50, 49, 63)" stroke="none" stroke-width="1px">200</text><text x="0" y="136.46516774699654" dx="0em" dy="0.3em" style="text-anchor: end; visibility: inherit; font-family: &quot;Helvetica Neue&quot;, sans-serif; font-size: 12px; font-weight: 200;" fill="rgb(50, 49, 63)" stroke="none" stroke-width="1px">300</text><text x="0" y="120.84461872208001" dx="0em" dy="0.3em" style="text-anchor: end; visibility: hidden; font-family: &quot;Helvetica Neue&quot;, sans-serif; font-size: 12px; font-weight: 200;" fill="rgb(50, 49, 63)" stroke="none" stroke-width="1px">400</text><text x="0" y="105.22406969716349" dx="0em" dy="0.3em" style="text-anchor: end; visibility: inherit; font-family: &quot;Helvetica Neue&quot;, sans-serif; font-size: 12px; font-weight: 200;" fill="rgb(50, 49, 63)" stroke="none" stroke-width="1px">500</text><text x="0" y="89.60352067224694" dx="0em" dy="0.3em" style="text-anchor: end; visibility: hidden; font-family: &quot;Helvetica Neue&quot;, sans-serif; font-size: 12px; font-weight: 200;" fill="rgb(50, 49, 63)" stroke="none" stroke-width="1px">600</text><text x="0" y="73.98297164733042" dx="0em" dy="0.3em" style="text-anchor: end; visibility: inherit; font-family: &quot;Helvetica Neue&quot;, sans-serif; font-size: 12px; font-weight: 200;" fill="rgb(50, 49, 63)" stroke="none" stroke-width="1px">700</text><text x="0" y="58.36242262241389" dx="0em" dy="0.3em" style="text-anchor: end; visibility: hidden; font-family: &quot;Helvetica Neue&quot;, sans-serif; font-size: 12px; font-weight: 200;" fill="rgb(50, 49, 63)" stroke="none" stroke-width="1px">800</text><text x="0" y="42.741873597497346" dx="0em" dy="0.3em" style="text-anchor: end; visibility: inherit; font-family: &quot;Helvetica Neue&quot;, sans-serif; font-size: 12px; font-weight: 200;" fill="rgb(50, 49, 63)" stroke="none" stroke-width="1px">900</text><text x="0" y="27.121324572580818" dx="0em" dy="0.3em" style="text-anchor: end; visibility: hidden; font-family: &quot;Helvetica Neue&quot;, sans-serif; font-size: 12px; font-weight: 200;" fill="rgb(50, 49, 63)" stroke="none" stroke-width="1px">1e+3</text><text x="0" y="11.50077554766429" dx="0em" dy="0.3em" style="text-anchor: end; visibility: inherit; font-family: &quot;Helvetica Neue&quot;, sans-serif; font-size: 12px; font-weight: 200;" fill="rgb(50, 49, 63)" stroke="none" stroke-width="1px">1.1e+3</text></g><line x1="64" y1="0" x2="64" y2="177" fill="rgb(0, 0, 0)" stroke="rgb(204, 204, 204)" stroke-width="1px"></line></g></g><g transform="translate(64, 0)" clip-path="url(#clip_0)"><clipPath id="clip_0"><rect width="266" height="177"></rect></clipPath><g><g><g><line x1="17.90033346797788" y1="0" x2="17.90033346797788" y2="177" fill="rgb(0, 0, 0)" stroke="rgb(60, 60, 60)" stroke-width="1px" opacity="0.25"></line><line x1="39.77415294829768" y1="0" x2="39.77415294829768" y2="177" fill="rgb(0, 0, 0)" stroke="rgb(60, 60, 60)" stroke-width="1px" opacity="0.25"></line><line x1="61.64797242861748" y1="0" x2="61.64797242861748" y2="177" fill="rgb(0, 0, 0)" stroke="rgb(60, 60, 60)" stroke-width="1px" opacity="0.25"></line><line x1="83.52179190893729" y1="0" x2="83.52179190893729" y2="177" fill="rgb(0, 0, 0)" stroke="rgb(60, 60, 60)" stroke-width="1px" opacity="0.25"></line><line x1="105.39561138925708" y1="0" x2="105.39561138925708" y2="177" fill="rgb(0, 0, 0)" stroke="rgb(60, 60, 60)" stroke-width="1px" opacity="0.25"></line><line x1="127.2694308695769" y1="0" x2="127.2694308695769" y2="177" fill="rgb(0, 0, 0)" stroke="rgb(60, 60, 60)" stroke-width="1px" opacity="0.25"></line><line x1="149.1432503498967" y1="0" x2="149.1432503498967" y2="177" fill="rgb(0, 0, 0)" stroke="rgb(60, 60, 60)" stroke-width="1px" opacity="0.25"></line><line x1="171.0170698302165" y1="0" x2="171.0170698302165" y2="177" fill="rgb(0, 0, 0)" stroke="rgb(60, 60, 60)" stroke-width="1px" opacity="0.25"></line><line x1="192.8908893105363" y1="0" x2="192.8908893105363" y2="177" fill="rgb(0, 0, 0)" stroke="rgb(60, 60, 60)" stroke-width="1px" opacity="0.25"></line><line x1="214.7647087908561" y1="0" x2="214.7647087908561" y2="177" fill="rgb(0, 0, 0)" stroke="rgb(60, 60, 60)" stroke-width="1px" opacity="0.25"></line><line x1="236.6385282711759" y1="0" x2="236.6385282711759" y2="177" fill="rgb(0, 0, 0)" stroke="rgb(60, 60, 60)" stroke-width="1px" opacity="0.25"></line><line x1="258.5123477514957" y1="0" x2="258.5123477514957" y2="177" fill="rgb(0, 0, 0)" stroke="rgb(60, 60, 60)" stroke-width="1px" opacity="0.25"></line></g><g><line x1="0" y1="167.70626579682963" x2="266" y2="167.70626579682963" fill="rgb(0, 0, 0)" stroke="rgb(60, 60, 60)" stroke-width="1px" opacity="0.25"></line><line x1="0" y1="152.0857167719131" x2="266" y2="152.0857167719131" fill="rgb(0, 0, 0)" stroke="rgb(60, 60, 60)" stroke-width="1px" opacity="0.25"></line><line x1="0" y1="136.46516774699654" x2="266" y2="136.46516774699654" fill="rgb(0, 0, 0)" stroke="rgb(60, 60, 60)" stroke-width="1px" opacity="0.25"></line><line x1="0" y1="120.84461872208001" x2="266" y2="120.84461872208001" fill="rgb(0, 0, 0)" stroke="rgb(60, 60, 60)" stroke-width="1px" opacity="0.25"></line><line x1="0" y1="105.22406969716349" x2="266" y2="105.22406969716349" fill="rgb(0, 0, 0)" stroke="rgb(60, 60, 60)" stroke-width="1px" opacity="0.25"></line><line x1="0" y1="89.60352067224694" x2="266" y2="89.60352067224694" fill="rgb(0, 0, 0)" stroke="rgb(60, 60, 60)" stroke-width="1px" opacity="0.25"></line><line x1="0" y1="73.98297164733042" x2="266" y2="73.98297164733042" fill="rgb(0, 0, 0)" stroke="rgb(60, 60, 60)" stroke-width="1px" opacity="0.25"></line><line x1="0" y1="58.36242262241389" x2="266" y2="58.36242262241389" fill="rgb(0, 0, 0)" stroke="rgb(60, 60, 60)" stroke-width="1px" opacity="0.25"></line><line x1="0" y1="42.741873597497346" x2="266" y2="42.741873597497346" fill="rgb(0, 0, 0)" stroke="rgb(60, 60, 60)" stroke-width="1px" opacity="0.25"></line><line x1="0" y1="27.121324572580818" x2="266" y2="27.121324572580818" fill="rgb(0, 0, 0)" stroke="rgb(60, 60, 60)" stroke-width="1px" opacity="0.25"></line><line x1="0" y1="11.50077554766429" x2="266" y2="11.50077554766429" fill="rgb(0, 0, 0)" stroke="rgb(60, 60, 60)" stroke-width="1px" opacity="0.25"></line></g></g></g><g><g><line x1="0" y1="183.32681482174615" x2="266" y2="183.32681482174615" fill="rgb(0, 0, 0)" stroke="rgb(153, 153, 153)" stroke-width="1.5px"></line></g></g><g><g><line x1="17.90033346797788" y1="0" x2="17.90033346797788" y2="177" fill="rgb(0, 0, 0)" stroke="rgb(153, 153, 153)" stroke-width="1.5px"></line></g></g><g><g><g><g><g><path stroke="rgb(255, 112, 67)" stroke-width="2px" d="M18.119071662781078,74.77797598143178L18.77528624719067,77.93282847047236L19.431500831600264,83.06891642820251L20.087715416009857,92.02671938242148L20.74393000041945,99.81175269487764L21.400144584829047,104.49225690434785L22.056359169238643,102.81621459631805L22.712573753648236,106.71062021789933L23.36878833805783,107.03359268587893L24.025002922467422,108.48783319017073L24.681217506877015,109.71249798130918L25.33743209128661,111.89121469430046L25.993646675696205,111.44642503540611L26.6498612601058,110.82855181760438L27.306075844515394,111.64680850514829L27.962290428924987,111.52137999346492L28.61850501333458,110.86374946629522L29.274719597744173,111.42479218339372L29.93093418215377,113.11179739632482L30.587148766563367,113.23038438224224L31.24336335097296,112.73265376637346L31.899577935382553,112.66863523388454L32.55579251979214,111.65302774275519L33.21200710420174,111.1336132181501L33.868221688611335,111.04511284649085L34.524436273020925,110.32356110939901L35.18065085743052,110.94265316850789L35.83686544184011,111.72478164730585L36.493080026249714,111.48059806371086L37.149294610659304,112.00545851886415L37.8055091950689,111.95615901279037L38.4617237794785,111.46157744760795L39.117938363888086,110.91299160782098L39.77415294829768,110.70368810202555L40.43036753270727,111.31412858573007L41.08658211711687,110.40427060278857L41.74279670152646,108.89063845502017L42.399011285936055,109.23339004678229L43.05522587034565,109.64374655071947L43.71144045475524,109.99949301162312L44.36765503916484,110.6740953509736L45.023869623574434,111.83969620203274L45.68008420798403,111.85721340669036L46.33629879239363,111.17900526940295L46.99251337680322,110.51149826094193L47.64872796121281,110.50884570334924L48.3049425456224,110.74562185582577L48.961157130032,109.66247406517203L49.61737171444159,109.73482946687659L50.273586298851185,109.86381880889635L50.92980088326078,110.72878974608416L51.58601546767037,111.62042906249978L52.24223005207997,112.37574266527612L52.89844463648956,113.41843307722884L53.55465922089916,113.87593381388919L54.21087380530875,113.85866115953661L54.86708838971835,113.24210519897335L55.523302974127944,113.34857550841409L56.17951755853753,113.31297493360893L56.83573214294713,114.00103275506167L57.49194672735672,114.00231677498888L58.148161311766316,113.72199176899095L58.804375896175905,114.56380328796928L59.4605904805855,114.06990214681437L60.1168050649951,113.8013023207481L60.77301964940469,114.53459532161801L61.429234233814284,114.87542995672248L62.08544881822388,114.78646904058556L62.74166340263348,114.75235397872379L63.39787798704307,115.22979949152807L64.05409257145266,115.59889352012993L64.71030715586225,116.16617990663804L65.36652174027185,116.50174519267298L66.02273632468145,116.18899636247146L66.67895090909104,116.4616708324446L67.33516549350063,116.7420431170928L67.99138007791024,114.89036391202674L68.64759466231982,114.42097992280776L69.30380924672941,114.18154305159663L69.96002383113901,114.19464839450119L70.61623841554861,114.51779433769401L71.27245299995819,114.39357905812858L71.92866758436779,114.57164474546533L72.58488216877738,115.26620696071598L73.24109675318698,115.65281173447983L73.89731133759656,115.11718499877868L74.55352592200617,115.66629354059401L75.20974050641577,115.91044868499912L75.86595509082535,116.16706122611362L76.52216967523495,116.48970721095662L77.17838425964455,116.73914792616915L77.83459884405414,117.10738160711784L78.49081342846372,117.02078387961109L79.14702801287334,117.01691412051487L79.80324259728292,117.55935232985777L80.45945718169251,117.02847554606944L81.1156717661021,117.09465789762882L81.7718863505117,117.3777853646391L82.42810093492129,117.32005980108752L83.08431551933089,117.18956564522756L83.7405301037405,116.84473481589372L84.39674468815008,117.03339240303575L85.05295927255968,117.4183103464239L85.70917385696926,117.37085125395768L86.36538844137887,117.01272323354269L87.02160302578845,117.123280771325L87.67781761019805,117.16348981045036L88.33403219460764,117.55460169035291L88.99024677901724,117.66574237153011L89.64646136342682,117.31311677380165L90.30267594783642,117.36585270666129L90.95889053224602,117.42057579316418L91.61510511665561,117.88647822941294L92.27131970106521,117.66127442034865L92.9275342854748,117.9123744942219L93.5837488698844,117.55154144084655L94.23996345429399,117.50790865080288L94.89617803870358,117.51153927475004L95.55239262311318,117.86582187946192L96.20860720752277,117.70706110166586L96.86482179193236,117.71888125446873L97.52103637634197,117.86849819244627L98.17725096075155,117.70107591432122L98.83346554516115,116.73023006162296L99.48968012957073,117.12627981281696L100.14589471398034,117.34697874623603L100.80210929838994,117.5903161358764L101.45832388279952,117.53188945718853L102.11453846720913,117.38890728635049L102.77075305161871,117.28881738138404L103.42696763602831,117.26647885651283L104.08318222043789,117.22832121599498L104.7393968048475,117.22070884241126L105.39561138925708,116.97164882897339L106.05182597366668,117.35049263392122L106.70804055807628,117.31061318582063L107.36425514248587,117.2018802396494L108.02046972689546,117.15991906554453L108.67668431130505,117.56694026857585L109.33289889571466,117.52514233647373L109.98911348012425,117.85628607382971L110.64532806453384,118.27695231795511L111.30154264894344,118.2940450642289L111.95775723335304,117.93373021717058L112.61397181776262,116.67713907790827L113.27018640217221,116.90716011716911L113.92640098658181,117.28665153572379L114.58261557099141,117.56539279759858L115.23883015540099,117.89092214994521L115.8950447398106,117.409871061269L116.55125932422018,116.90592266826216L117.20747390862978,116.68573465599084L117.86368849303939,116.57919205160724L118.51990307744897,116.77287690380277L119.17611766185857,117.08900012315434L119.83233224626815,117.09433579840682L120.48854683067776,117.5099455092081L121.14476141508734,117.5564105760611L121.80097599949694,117.59948584725396L122.45719058390652,116.48728577705293L123.11340516831613,115.67299114238833L123.76961975272572,116.07875090702302L124.42583433713531,116.52649316404384L125.08204892154491,116.63981778864508L125.7382635059545,116.57574004644042L126.3944780903641,116.83472489609855L127.0506926747737,116.90468617283912L127.7069072591833,116.68248674452771L128.3631218435929,116.74341270298609L129.01933642800248,116.95408153272086L129.67555101241206,117.31016498811519L130.33176559682167,117.68204926164007L130.98798018123125,117.48744042860415L131.64419476564086,117.8719881667338L132.30040935005044,117.87869109341595L132.95662393446005,117.93754765662368L133.61283851886964,118.2267737483991L134.26905310327922,118.58119094548888L134.92526768768883,117.92960893875754L135.5814822720984,117.93475282721619L136.237696856508,118.17795735268834L136.8939114409176,118.49867890961605L137.55012602532722,118.571675922478L138.2063406097368,118.5797995057817L138.86255519414638,118.89909699613392L139.518769778556,119.15893863680245L140.17498436296557,119.08780637736103L140.83119894737516,119.21018323491097L141.48741353178474,119.58739371840988L142.14362811619438,119.50931864944019L142.79984270060396,119.78123480332853L143.45605728501354,119.58379290681347L144.11227186942315,119.63324571740179L144.76848645383274,119.67439266071509L145.42470103824232,119.88640344150991L146.0809156226519,120.28842026833416L146.73713020706154,120.55772615912996L147.39334479147112,120.73826254762679L148.0495593758807,120.52768091220673L148.7057739602903,120.81835800474373L149.3619885446999,120.84937545459545L150.01820312910948,120.71081922526156L150.67441771351906,120.66348384893412L151.33063229792867,120.90762727285843L151.98684688233828,120.83500822672798L152.64306146674787,121.28200215991066L153.29927605115745,121.63973667473371L153.95549063556706,121.98985230783985L154.61170521997664,122.22322243840028L155.26791980438622,122.39066952492524L155.92413438879584,122.10888555798513L156.58034897320545,121.77831249093734L157.23656355761503,121.05903909072083L157.8927781420246,121.29319303841262L158.5489927264342,121.42012075318212L159.2052073108438,121.44065311307536L159.8614218952534,121.80424443754184L160.517636479663,122.05638024561803L161.1738510640726,122.4051652147802L161.8300656484822,122.56665145700191L162.48628023289177,122.41222774004618L163.14249481730135,122.55086581023151L163.79870940171097,122.33581995635247L164.45492398612055,122.43942462737209L165.11113857053016,122.50780366141086L165.76735315493974,122.86631924688442L166.42356773934935,123.03767094214027L167.07978232375893,123.14372616777817L167.73599690816852,123.37326636435142L168.3922114925781,123.41936059954173L169.0484260769877,123.5972891191753L169.70464066139732,123.88693662179412L170.3608552458069,123.63267001569588L171.0170698302165,123.98018353801467L171.6732844146261,124.29580819616318L172.32949899903568,124.12908605492848L172.98571358344526,124.36025384450089L173.64192816785487,124.47832933059735L174.29814275226448,124.68093776349679L174.95435733667406,124.87539043774211L175.61057192108365,124.44973713060247L176.26678650549326,124.64946840252057L176.92300108990284,125.00005475728682L177.57921567431242,125.20390535729092L178.23543025872203,125.51626266190677L178.89164484313164,125.57840162047809L179.54785942754123,125.75154641794666L180.2040740119508,126.0240372320387L180.86028859636042,126.04875186340317L181.51650318077,126.07982782778313L182.17271776517958,126.27952798062856L182.82893234958917,126.50478061483767L183.4851469339988,126.49376904198192L184.1413615184084,126.54996628483872L184.79757610281797,126.24728448937006L185.45379068722755,126.03895783240944L186.11000527163716,126.13764640452818L186.76621985604675,126.07270756372318L187.42243444045633,126.26012240587082L188.07864902486597,126.4138728749139L188.73486360927555,126.45431114734303L189.39107819368513,126.65608749384194L190.04729277809471,126.631579158461L190.70350736250433,126.8280172023328L191.3597219469139,127.0854368983719L192.0159365313235,127.2310788989424L192.6721511157331,127.32704784516419L193.3283657001427,127.6640605455104L193.9845802845523,127.85503466836668L194.64079486896188,127.91128503249435L195.2970094533715,127.9418394258384L195.95322403778107,127.65002844142545L196.60943862219065,128.02707801643692L197.26565320660026,128.12027113245682L197.92186779100987,128.24137559956165L198.57808237541946,127.76774401993364L199.23429695982904,127.96215685029736L199.89051154423862,127.7757986173081L200.54672612864823,127.53257784422281L201.2029407130578,127.58585803396116L201.85915529746742,127.14537241399968L202.515369881877,127.23949505453264L203.17158446628662,127.4210025756297L203.8277990506962,127.59503230789801L204.48401363510578,127.44148648179524L205.1402282195154,126.94035216193333L205.79644280392498,127.05772417871322L206.4526573883346,126.98303249272324L207.10887197274417,126.75968744335015L207.76508655715378,126.83016948048423L208.42130114156336,126.89465695673735L209.07751572597294,127.07584676736505L209.73373031038253,126.94100193730313L210.38994489479214,126.83161250556344L211.04615947920175,126.92532318114331L211.70237406361133,126.15150708800121L212.35858864802094,126.10684327800479L213.01480323243052,126.18958310443202L213.6710178168401,126.40053875114572" style="fill: none;" fill="none"></path></g></g></g></g><g opacity="0.2"><g><g><g><path stroke="rgb(255, 112, 67)" stroke-width="2px" d="M18.119071662781078,74.77797598143178L18.77528624719067,81.05613243462243L19.431500831600264,93.18752331372617L20.087715416009857,118.36623423120442L20.74393000041945,130.18112879945267L21.400144584829047,127.20199340149627L22.056359169238643,93.10612179543105L22.712573753648236,132.9025642280066L23.36878833805783,109.50377501968681L24.025002922467422,120.93873863173211L24.681217506877015,121.30538868901434L25.33743209128661,134.46601586538117L25.993646675696205,106.44347645409789L26.6498612601058,103.33658033396841L27.306075844515394,122.27937053567081L27.962290428924987,109.78366543577842L28.61850501333458,101.1928449404128L29.274719597744173,120.14823435814084L29.93093418215377,140.75023595942864L30.587148766563367,115.27118413900672L31.24336335097296,103.75995784895221L31.899577935382553,111.46272191153287L32.55579251979214,91.70794727452466L33.21200710420174,100.52083908224553L33.868221688611335,109.16732399135748L34.524436273020925,94.4525360864447L35.18065085743052,125.03673494310684L35.83686544184011,130.1267562462977L36.493080026249714,105.55113924341244L37.149294610659304,125.14269611367746L37.8055091950689,110.68572735349844L38.4617237794785,98.3541934229997L39.117938363888086,95.97667416552808L39.77415294829768,104.854769180513L40.43036753270727,128.80644135284L41.08658211711687,83.69204287841808L41.74279670152646,63.398285888046146L42.399011285936055,119.77113024079645L43.05522587034565,122.5400594223824L43.71144045475524,121.41995908551851L44.36765503916484,132.78202553091066L45.023869623574434,150.81048590628842L45.68008420798403,112.45437030930209L46.33629879239363,87.61884144286535L46.99251337680322,86.89413148618141L47.64872796121281,110.41330684717308L48.3049425456224,119.42286655362808L48.961157130032,69.29248802584894L49.61737171444159,112.47625090012984L50.273586298851185,114.82983021704874L50.92980088326078,144.5529587029468L51.58601546767037,147.02150169496318L52.24223005207997,142.8121026673904L52.89844463648956,156.04711908555834L53.55465922089916,132.84598454771586L54.21087380530875,113.13252084755149L54.86708838971835,86.97097573980739L55.523302974127944,117.94525929089974L56.17951755853753,111.75610297512829L56.83573214294713,144.47121634320416L57.49194672735672,114.0598813046011L58.148161311766316,101.00275551996675L58.804375896175905,153.2109035119171L59.4605904805855,91.13295967006684L60.1168050649951,101.18625692809822L60.77301964940469,149.35595813822073L61.429234233814284,131.23597825892L62.08544881822388,110.47084946414078L62.74166340263348,113.08015997398897L63.39787798704307,138.8710555003322L64.05409257145266,134.05764490811538L64.71030715586225,144.814631977895L65.36652174027185,133.61082798897036L66.02273632468145,100.09306638104316L66.67895090909104,130.62474705270546L67.33516549350063,131.43689356646183L67.99138007791024,16.977635209260598L68.64759466231982,89.38449548135986L69.30380924672941,101.3008845287614L69.96002383113901,114.90558282463998L70.61623841554861,132.19232692355644L71.27245299995819,107.54456594211189L71.92866758436779,124.46797782496967L72.58488216877738,154.1693997160237L73.24109675318698,137.47316700022094L73.89731133759656,84.65792556955898L74.55352592200617,147.12357536622662L75.20974050641577,129.99942932233057L75.86595509082535,131.0808644147056L76.52216967523495,135.37314511818832L77.17838425964455,131.43907209151814L77.83459884405414,138.95550314009552L78.49081342846372,111.84839711870477L79.14702801287334,116.78425798033169L79.80324259728292,150.38250107299632L80.45945718169251,84.70058080413995L81.1156717661021,121.15006986323009L81.7718863505117,134.8336050242741L82.42810093492129,113.73951417898479L83.08431551933089,109.04715235428195L83.7405301037405,95.20218705646433L84.39674468815008,128.94243470689972L85.05295927255968,141.85440970501685L85.70917385696926,114.34110648440333L86.36538844137887,94.02423901378458L87.02160302578845,124.25852956370632L87.67781761019805,119.77238873229504L88.33403219460764,143.06470193261296L88.99024677901724,124.95238264360856L89.64646136342682,94.07625666239295L90.30267594783642,120.85843352648499L90.95889053224602,121.06269527732991L91.61510511665561,149.0459831014943L92.27131970106521,102.52733216426935L92.9275342854748,134.86642114350246L93.5837488698844,93.07483112044338L94.23996345429399,114.53452804711267L94.89617803870358,117.760070360077L95.55239262311318,142.2261366314127L96.20860720752277,106.74273047802006L96.86482179193236,118.5387429067762L97.52103637634197,128.2904741394581L98.17725096075155,105.98969492859135L98.83346554516115,48.536426090275455L99.48968012957073,145.05936090423813L100.14589471398034,132.9755376668718L100.80210929838994,134.89058036666478L101.45832388279952,113.36169500965258L102.11453846720913,107.1440796247653L102.77075305161871,110.0898936000886L103.42696763602831,115.65374171951166L104.08318222043789,114.46328980107131L104.7393968048475,116.66707049355205L105.39561138925708,98.79239634919794L106.05182597366668,145.1013845095632L106.70804055807628,114.37911388106339L107.36425514248587,109.18131040823953L108.02046972689546,114.05410845155265L108.67668431130505,147.79483041980666L109.33289889571466,114.41063337268716L109.98911348012425,142.6120406552207L110.64532806453384,149.8272369858696L111.30154264894344,119.5801160197795L111.95775723335304,90.73776473743023L112.61397181776262,21.53615836989377L113.27018640217221,134.3764341523452L113.92640098658181,146.19515186522176L114.58261557099141,138.8626703240215L115.23883015540099,142.83660511550687L115.8950447398106,80.43877561637876L116.55125932422018,78.06345871902968L117.20747390862978,99.66618987833222L117.86368849303939,108.32080254503921L118.51990307744897,131.82750263234982L119.17611766185857,141.727692958746L119.83233224626815,117.51132284156222L120.48854683067776,150.076809197677L121.14476141508734,121.20696893340875L121.80097599949694,120.99252484225704L122.45719058390652,28.65429116020735L123.11340516831613,51.20318864383957L123.76961975272572,148.28424775288025L124.42583433713531,152.15206406235765L125.08204892154491,125.67875628791754L125.7382635059545,111.45247760005383L126.3944780903641,137.59088839248483L127.0506926747737,122.52487648517403L127.7069072591833,98.79109018756684L128.3631218435929,121.66040246694789L129.01933642800248,133.9945153516161L129.67555101241206,146.17729225007224L130.33176559682167,147.89680875080504L130.98798018123125,101.64136368328889L131.64419476564086,149.2514747417583L132.30040935005044,118.4268229696403L132.95662393446005,122.76068156270898L133.61283851886964,141.97737957887142L134.26905310327922,147.74497937872144L134.92526768768883,64.20423528457464L135.5814822720984,118.35973679214163L136.237696856508,138.31116025983096L136.8939114409176,145.10098646395662L137.55012602532722,124.63814589703463L138.2063406097368,119.25620700331677L138.86255519414638,145.5355402415103L139.518769778556,140.87593256486352L140.17498436296557,113.13175812543113L140.83119894737516,129.4757300134535L141.48741353178474,151.28660088888165L142.14362811619438,112.9365298646992L142.79984270060396,142.7129154226512L143.45605728501354,102.90384040495721L144.11227186942315,123.81821485063733L144.76848645383274,123.16238823544813L145.42470103824232,137.88856930203377L146.0809156226519,154.48093356608362L146.73713020706154,143.50041171088031L147.39334479147112,136.14343248857685L148.0495593758807,102.52996355558459L148.7057739602903,145.70090793123023L149.3619885446999,123.50868791315659L150.01820312910948,108.8131825768491L150.67441771351906,116.59264311564493L151.33063229792867,141.93569204798064L151.98684688233828,114.57098616446575L152.64306146674787,159.89605563905025L153.29927605115745,152.58814328415204L153.95549063556706,152.32285422965202L154.61170521997664,142.47058430397394L155.26791980438622,136.93899456322873L155.92413438879584,97.59247237542542L156.58034897320545,92.97738383554125L157.23656355761503,58.30746849364215L157.8927781420246,141.7490158090232L158.5489927264342,132.52337215885774L159.2052073108438,123.23912761478259L159.8614218952534,153.69348494798703L160.517636479663,144.19874816674627L161.1738510640726,153.07418318833646L161.8300656484822,136.78417627383598L162.48628023289177,108.79957752102722L163.14249481730135,134.78703130479977L163.79870940171097,103.33282392752565L164.45492398612055,131.60569350572342L165.11113857053016,128.56473471289883L165.76735315493974,154.66055224192112L166.42356773934935,138.25132947650218L167.07978232375893,132.57079440669096L167.73599690816852,143.79991361949158L168.3922114925781,127.52587381587946L169.0484260769877,139.46648882462884L169.70464066139732,149.74861701980717L170.3608552458069,100.90533683714413L171.0170698302165,155.0757042755382L171.6732844146261,152.5679597500421L172.32949899903568,109.1791986213688L172.98571358344526,145.11051810695446L173.64192816785487,135.08802052154576L174.29814275226448,142.90487827930536L174.95435733667406,142.38335272847132L175.61057192108365,86.08698080231335L176.26678650549326,142.6683247806898L176.92300108990284,156.6591749850655L177.57921567431242,143.6300244177019L178.23543025872203,153.77722945329563L178.89164484313164,131.20580783204662L179.54785942754123,141.44643440985098L180.2040740119508,150.7470107413283L180.86028859636042,128.29314366687936L181.51650318077,128.90445114530593L182.17271776517958,144.44729070369118L182.82893234958917,147.015261674616L183.4851469339988,125.49023044781823L184.1413615184084,131.67591637794206L184.79757610281797,98.61503485413537L185.45379068722755,107.00446334063392L186.11000527163716,135.162204781777L186.76621985604675,120.12948092800656L187.42243444045633,143.42641574767254L188.07864902486597,140.50805738517545L188.73486360927555,130.16422020344697L189.39107819368513,145.1822020687349L190.04729277809471,124.37958309823352L190.70350736250433,144.89208164220403L191.3597219469139,150.7753840042056L192.0159365313235,140.64444640133507L192.6721511157331,136.1722395496601L193.3283657001427,158.74861409767817L193.9845802845523,145.48255727271834L194.64079486896188,133.10714060172617L195.2970094533715,130.76617956888595L195.95322403778107,100.65689917449076L196.60943862219065,162.92945633236346L197.26565320660026,136.75288083183506L197.92186779100987,139.46716574051067L198.57808237541946,83.83455750660683L199.23429695982904,146.00766523401143L199.89051154423862,110.46640660778971L200.54672612864823,104.92677968270124L201.2029407130578,132.54113405023557L201.85915529746742,86.15199332904729L202.515369881877,136.00451695539354L203.17158446628662,144.334269586494L203.8277990506962,143.82162736485552L204.48401363510578,113.11597454455298L205.1402282195154,80.15696886095978L205.79644280392498,138.02161187489034L206.4526573883346,120.00180124505874L207.10887197274417,105.87186866203592L207.76508655715378,133.42569626230664L208.42130114156336,132.9327251208535L209.07751572597294,144.05067281759878L209.73373031038253,114.30085382450147L210.38994489479214,116.5718589378652L211.04615947920175,135.71943049485702L211.70237406361133,53.49424381494218L212.35858864802094,121.91086611023344L213.01480323243052,133.96682377163387L213.6710178168401,146.2401524703228" style="fill: none;" fill="none"></path></g></g></g></g></g></g><g transform="translate(64, 177)" clip-path="url(#clip_1)"><clipPath id="clip_1"><rect width="266" height="23"></rect></clipPath><g><g><line x1="17.90033346797788" y1="0" x2="17.90033346797788" y2="5" style="visibility: inherit;" fill="rgb(0, 0, 0)" stroke="rgb(204, 204, 204)" stroke-width="1px"></line><line x1="39.77415294829768" y1="0" x2="39.77415294829768" y2="5" style="visibility: inherit;" fill="rgb(0, 0, 0)" stroke="rgb(204, 204, 204)" stroke-width="1px"></line><line x1="61.64797242861748" y1="0" x2="61.64797242861748" y2="5" style="visibility: inherit;" fill="rgb(0, 0, 0)" stroke="rgb(204, 204, 204)" stroke-width="1px"></line><line x1="83.52179190893729" y1="0" x2="83.52179190893729" y2="5" style="visibility: inherit;" fill="rgb(0, 0, 0)" stroke="rgb(204, 204, 204)" stroke-width="1px"></line><line x1="105.39561138925708" y1="0" x2="105.39561138925708" y2="5" style="visibility: inherit;" fill="rgb(0, 0, 0)" stroke="rgb(204, 204, 204)" stroke-width="1px"></line><line x1="127.2694308695769" y1="0" x2="127.2694308695769" y2="5" style="visibility: inherit;" fill="rgb(0, 0, 0)" stroke="rgb(204, 204, 204)" stroke-width="1px"></line><line x1="149.1432503498967" y1="0" x2="149.1432503498967" y2="5" style="visibility: inherit;" fill="rgb(0, 0, 0)" stroke="rgb(204, 204, 204)" stroke-width="1px"></line><line x1="171.0170698302165" y1="0" x2="171.0170698302165" y2="5" style="visibility: inherit;" fill="rgb(0, 0, 0)" stroke="rgb(204, 204, 204)" stroke-width="1px"></line><line x1="192.8908893105363" y1="0" x2="192.8908893105363" y2="5" style="visibility: inherit;" fill="rgb(0, 0, 0)" stroke="rgb(204, 204, 204)" stroke-width="1px"></line><line x1="214.7647087908561" y1="0" x2="214.7647087908561" y2="5" style="visibility: inherit;" fill="rgb(0, 0, 0)" stroke="rgb(204, 204, 204)" stroke-width="1px"></line><line x1="236.6385282711759" y1="0" x2="236.6385282711759" y2="5" style="visibility: inherit;" fill="rgb(0, 0, 0)" stroke="rgb(204, 204, 204)" stroke-width="1px"></line><line x1="258.5123477514957" y1="0" x2="258.5123477514957" y2="5" style="visibility: inherit;" fill="rgb(0, 0, 0)" stroke="rgb(204, 204, 204)" stroke-width="1px"></line></g><g transform="translate(0, 8)"><text x="17.90033346797788" y="0" dx="0em" dy="0.95em" style="text-anchor: middle; visibility: inherit; font-family: &quot;Helvetica Neue&quot;, sans-serif; font-size: 12px; font-weight: 200;" fill="rgb(50, 49, 63)" stroke="none" stroke-width="1px">0</text><text x="39.77415294829768" y="0" dx="0em" dy="0.95em" style="text-anchor: middle; visibility: hidden; font-family: &quot;Helvetica Neue&quot;, sans-serif; font-size: 12px; font-weight: 200;" fill="rgb(50, 49, 63)" stroke="none" stroke-width="1px">10k</text><text x="61.64797242861748" y="0" dx="0em" dy="0.95em" style="text-anchor: middle; visibility: inherit; font-family: &quot;Helvetica Neue&quot;, sans-serif; font-size: 12px; font-weight: 200;" fill="rgb(50, 49, 63)" stroke="none" stroke-width="1px">20k</text><text x="83.52179190893729" y="0" dx="0em" dy="0.95em" style="text-anchor: middle; visibility: hidden; font-family: &quot;Helvetica Neue&quot;, sans-serif; font-size: 12px; font-weight: 200;" fill="rgb(50, 49, 63)" stroke="none" stroke-width="1px">30k</text><text x="105.39561138925708" y="0" dx="0em" dy="0.95em" style="text-anchor: middle; visibility: inherit; font-family: &quot;Helvetica Neue&quot;, sans-serif; font-size: 12px; font-weight: 200;" fill="rgb(50, 49, 63)" stroke="none" stroke-width="1px">40k</text><text x="127.2694308695769" y="0" dx="0em" dy="0.95em" style="text-anchor: middle; visibility: hidden; font-family: &quot;Helvetica Neue&quot;, sans-serif; font-size: 12px; font-weight: 200;" fill="rgb(50, 49, 63)" stroke="none" stroke-width="1px">50k</text><text x="149.1432503498967" y="0" dx="0em" dy="0.95em" style="text-anchor: middle; visibility: inherit; font-family: &quot;Helvetica Neue&quot;, sans-serif; font-size: 12px; font-weight: 200;" fill="rgb(50, 49, 63)" stroke="none" stroke-width="1px">60k</text><text x="171.0170698302165" y="0" dx="0em" dy="0.95em" style="text-anchor: middle; visibility: hidden; font-family: &quot;Helvetica Neue&quot;, sans-serif; font-size: 12px; font-weight: 200;" fill="rgb(50, 49, 63)" stroke="none" stroke-width="1px">70k</text><text x="192.8908893105363" y="0" dx="0em" dy="0.95em" style="text-anchor: middle; visibility: inherit; font-family: &quot;Helvetica Neue&quot;, sans-serif; font-size: 12px; font-weight: 200;" fill="rgb(50, 49, 63)" stroke="none" stroke-width="1px">80k</text><text x="214.7647087908561" y="0" dx="0em" dy="0.95em" style="text-anchor: middle; visibility: hidden; font-family: &quot;Helvetica Neue&quot;, sans-serif; font-size: 12px; font-weight: 200;" fill="rgb(50, 49, 63)" stroke="none" stroke-width="1px">90k</text><text x="236.6385282711759" y="0" dx="0em" dy="0.95em" style="text-anchor: middle; visibility: inherit; font-family: &quot;Helvetica Neue&quot;, sans-serif; font-size: 12px; font-weight: 200;" fill="rgb(50, 49, 63)" stroke="none" stroke-width="1px">100k</text><text x="258.5123477514957" y="0" dx="0em" dy="0.95em" style="text-anchor: middle; visibility: hidden; font-family: &quot;Helvetica Neue&quot;, sans-serif; font-size: 12px; font-weight: 200;" fill="rgb(50, 49, 63)" stroke="none" stroke-width="1px">110k</text></g><line x1="0" y1="0" x2="266" y2="0" fill="rgb(0, 0, 0)" stroke="rgb(204, 204, 204)" stroke-width="1px"></line></g></g></g></g></svg>