<svg viewBox="0 0 330 200" xmlns="http://www.w3.org/2000/svg"><g><g><g><g><g><line x1="64" y1="167.70626579682963" x2="59" y2="167.70626579682963" style="visibility: inherit;" fill="rgb(0, 0, 0)" stroke="rgb(204, 204, 204)" stroke-width="1px"></line><line x1="64" y1="152.0857167719131" x2="59" y2="152.0857167719131" style="visibility: inherit;" fill="rgb(0, 0, 0)" stroke="rgb(204, 204, 204)" stroke-width="1px"></line><line x1="64" y1="136.46516774699654" x2="59" y2="136.46516774699654" style="visibility: inherit;" fill="rgb(0, 0, 0)" stroke="rgb(204, 204, 204)" stroke-width="1px"></line><line x1="64" y1="120.84461872208001" x2="59" y2="120.84461872208001" style="visibility: inherit;" fill="rgb(0, 0, 0)" stroke="rgb(204, 204, 204)" stroke-width="1px"></line><line x1="64" y1="105.22406969716349" x2="59" y2="105.22406969716349" style="visibility: inherit;" fill="rgb(0, 0, 0)" stroke="rgb(204, 204, 204)" stroke-width="1px"></line><line x1="64" y1="89.60352067224694" x2="59" y2="89.60352067224694" style="visibility: inherit;" fill="rgb(0, 0, 0)" stroke="rgb(204, 204, 204)" stroke-width="1px"></line><line x1="64" y1="73.98297164733042" x2="59" y2="73.98297164733042" style="visibility: inherit;" fill="rgb(0, 0, 0)" stroke="rgb(204, 204, 204)" stroke-width="1px"></line><line x1="64" y1="58.36242262241389" x2="59" y2="58.36242262241389" style="visibility: inherit;" fill="rgb(0, 0, 0)" stroke="rgb(204, 204, 204)" stroke-width="1px"></line><line x1="64" y1="42.741873597497346" x2="59" y2="42.741873597497346" style="visibility: inherit;" fill="rgb(0, 0, 0)" stroke="rgb(204, 204, 204)" stroke-width="1px"></line><line x1="64" y1="27.121324572580818" x2="59" y2="27.121324572580818" style="visibility: inherit;" fill="rgb(0, 0, 0)" stroke="rgb(204, 204, 204)" stroke-width="1px"></line><line x1="64" y1="11.50077554766429" x2="59" y2="11.50077554766429" style="visibility: inherit;" fill="rgb(0, 0, 0)" stroke="rgb(204, 204, 204)" stroke-width="1px"></line></g><g transform="translate(54, 0)"><text x="0" y="167.70626579682963" dx="0em" dy="0.3em" style="text-anchor: end; visibility: inherit; font-family: &quot;Helvetica Neue&quot;, sans-serif; font-size: 12px; font-weight: 200;" fill="rgb(50, 49, 63)" stroke="none" stroke-width="1px">100</text><text x="0" y="152.0857167719131" dx="0em" dy="0.3em" style="text-anchor: end; visibility: hidden; font-family: &quot;Helvetica Neue&quot;, sans-serif; font-size: 12px; font-weight: 200;" fill="rgb(50, 49, 63)" stroke="none" stroke-width="1px">200</text><text x="0" y="136.46516774699654" dx="0em" dy="0.3em" style="text-anchor: end; visibility: inherit; font-family: &quot;Helvetica Neue&quot;, sans-serif; font-size: 12px; font-weight: 200;" fill="rgb(50, 49, 63)" stroke="none" stroke-width="1px">300</text><text x="0" y="120.84461872208001" dx="0em" dy="0.3em" style="text-anchor: end; visibility: hidden; font-family: &quot;Helvetica Neue&quot;, sans-serif; font-size: 12px; font-weight: 200;" fill="rgb(50, 49, 63)" stroke="none" stroke-width="1px">400</text><text x="0" y="105.22406969716349" dx="0em" dy="0.3em" style="text-anchor: end; visibility: inherit; font-family: &quot;Helvetica Neue&quot;, sans-serif; font-size: 12px; font-weight: 200;" fill="rgb(50, 49, 63)" stroke="none" stroke-width="1px">500</text><text x="0" y="89.60352067224694" dx="0em" dy="0.3em" style="text-anchor: end; visibility: hidden; font-family: &quot;Helvetica Neue&quot;, sans-serif; font-size: 12px; font-weight: 200;" fill="rgb(50, 49, 63)" stroke="none" stroke-width="1px">600</text><text x="0" y="73.98297164733042" dx="0em" dy="0.3em" style="text-anchor: end; visibility: inherit; font-family: &quot;Helvetica Neue&quot;, sans-serif; font-size: 12px; font-weight: 200;" fill="rgb(50, 49, 63)" stroke="none" stroke-width="1px">700</text><text x="0" y="58.36242262241389" dx="0em" dy="0.3em" style="text-anchor: end; visibility: hidden; font-family: &quot;Helvetica Neue&quot;, sans-serif; font-size: 12px; font-weight: 200;" fill="rgb(50, 49, 63)" stroke="none" stroke-width="1px">800</text><text x="0" y="42.741873597497346" dx="0em" dy="0.3em" style="text-anchor: end; visibility: inherit; font-family: &quot;Helvetica Neue&quot;, sans-serif; font-size: 12px; font-weight: 200;" fill="rgb(50, 49, 63)" stroke="none" stroke-width="1px">900</text><text x="0" y="27.121324572580818" dx="0em" dy="0.3em" style="text-anchor: end; visibility: hidden; font-family: &quot;Helvetica Neue&quot;, sans-serif; font-size: 12px; font-weight: 200;" fill="rgb(50, 49, 63)" stroke="none" stroke-width="1px">1e+3</text><text x="0" y="11.50077554766429" dx="0em" dy="0.3em" style="text-anchor: end; visibility: inherit; font-family: &quot;Helvetica Neue&quot;, sans-serif; font-size: 12px; font-weight: 200;" fill="rgb(50, 49, 63)" stroke="none" stroke-width="1px">1.1e+3</text></g><line x1="64" y1="0" x2="64" y2="177" fill="rgb(0, 0, 0)" stroke="rgb(204, 204, 204)" stroke-width="1px"></line></g></g><g transform="translate(64, 0)" clip-path="url(#clip_0)"><clipPath id="clip_0"><rect width="266" height="177"></rect></clipPath><g><g><g><line x1="17.90033346797788" y1="0" x2="17.90033346797788" y2="177" fill="rgb(0, 0, 0)" stroke="rgb(60, 60, 60)" stroke-width="1px" opacity="0.25"></line><line x1="39.77415294829768" y1="0" x2="39.77415294829768" y2="177" fill="rgb(0, 0, 0)" stroke="rgb(60, 60, 60)" stroke-width="1px" opacity="0.25"></line><line x1="61.64797242861748" y1="0" x2="61.64797242861748" y2="177" fill="rgb(0, 0, 0)" stroke="rgb(60, 60, 60)" stroke-width="1px" opacity="0.25"></line><line x1="83.52179190893729" y1="0" x2="83.52179190893729" y2="177" fill="rgb(0, 0, 0)" stroke="rgb(60, 60, 60)" stroke-width="1px" opacity="0.25"></line><line x1="105.39561138925708" y1="0" x2="105.39561138925708" y2="177" fill="rgb(0, 0, 0)" stroke="rgb(60, 60, 60)" stroke-width="1px" opacity="0.25"></line><line x1="127.2694308695769" y1="0" x2="127.2694308695769" y2="177" fill="rgb(0, 0, 0)" stroke="rgb(60, 60, 60)" stroke-width="1px" opacity="0.25"></line><line x1="149.1432503498967" y1="0" x2="149.1432503498967" y2="177" fill="rgb(0, 0, 0)" stroke="rgb(60, 60, 60)" stroke-width="1px" opacity="0.25"></line><line x1="171.0170698302165" y1="0" x2="171.0170698302165" y2="177" fill="rgb(0, 0, 0)" stroke="rgb(60, 60, 60)" stroke-width="1px" opacity="0.25"></line><line x1="192.8908893105363" y1="0" x2="192.8908893105363" y2="177" fill="rgb(0, 0, 0)" stroke="rgb(60, 60, 60)" stroke-width="1px" opacity="0.25"></line><line x1="214.7647087908561" y1="0" x2="214.7647087908561" y2="177" fill="rgb(0, 0, 0)" stroke="rgb(60, 60, 60)" stroke-width="1px" opacity="0.25"></line><line x1="236.6385282711759" y1="0" x2="236.6385282711759" y2="177" fill="rgb(0, 0, 0)" stroke="rgb(60, 60, 60)" stroke-width="1px" opacity="0.25"></line><line x1="258.5123477514957" y1="0" x2="258.5123477514957" y2="177" fill="rgb(0, 0, 0)" stroke="rgb(60, 60, 60)" stroke-width="1px" opacity="0.25"></line></g><g><line x1="0" y1="167.70626579682963" x2="266" y2="167.70626579682963" fill="rgb(0, 0, 0)" stroke="rgb(60, 60, 60)" stroke-width="1px" opacity="0.25"></line><line x1="0" y1="152.0857167719131" x2="266" y2="152.0857167719131" fill="rgb(0, 0, 0)" stroke="rgb(60, 60, 60)" stroke-width="1px" opacity="0.25"></line><line x1="0" y1="136.46516774699654" x2="266" y2="136.46516774699654" fill="rgb(0, 0, 0)" stroke="rgb(60, 60, 60)" stroke-width="1px" opacity="0.25"></line><line x1="0" y1="120.84461872208001" x2="266" y2="120.84461872208001" fill="rgb(0, 0, 0)" stroke="rgb(60, 60, 60)" stroke-width="1px" opacity="0.25"></line><line x1="0" y1="105.22406969716349" x2="266" y2="105.22406969716349" fill="rgb(0, 0, 0)" stroke="rgb(60, 60, 60)" stroke-width="1px" opacity="0.25"></line><line x1="0" y1="89.60352067224694" x2="266" y2="89.60352067224694" fill="rgb(0, 0, 0)" stroke="rgb(60, 60, 60)" stroke-width="1px" opacity="0.25"></line><line x1="0" y1="73.98297164733042" x2="266" y2="73.98297164733042" fill="rgb(0, 0, 0)" stroke="rgb(60, 60, 60)" stroke-width="1px" opacity="0.25"></line><line x1="0" y1="58.36242262241389" x2="266" y2="58.36242262241389" fill="rgb(0, 0, 0)" stroke="rgb(60, 60, 60)" stroke-width="1px" opacity="0.25"></line><line x1="0" y1="42.741873597497346" x2="266" y2="42.741873597497346" fill="rgb(0, 0, 0)" stroke="rgb(60, 60, 60)" stroke-width="1px" opacity="0.25"></line><line x1="0" y1="27.121324572580818" x2="266" y2="27.121324572580818" fill="rgb(0, 0, 0)" stroke="rgb(60, 60, 60)" stroke-width="1px" opacity="0.25"></line><line x1="0" y1="11.50077554766429" x2="266" y2="11.50077554766429" fill="rgb(0, 0, 0)" stroke="rgb(60, 60, 60)" stroke-width="1px" opacity="0.25"></line></g></g></g><g><g><line x1="0" y1="183.32681482174615" x2="266" y2="183.32681482174615" fill="rgb(0, 0, 0)" stroke="rgb(153, 153, 153)" stroke-width="1.5px"></line></g></g><g><g><line x1="17.90033346797788" y1="0" x2="17.90033346797788" y2="177" fill="rgb(0, 0, 0)" stroke="rgb(153, 153, 153)" stroke-width="1.5px"></line></g></g><g><g><g><g><g><path stroke="rgb(255, 112, 67)" stroke-width="2px" d="M18.119071662781078,74.77797598143178L18.77528624719067,80.98782410526032L19.431500831600264,93.05334268163827L20.087715416009857,118.08779279068857L20.74393000041945,130.04810210528248L21.400144584829047,127.23330059723293L22.056359169238643,93.48152076225021L22.712573753648236,132.46893274988332L23.36878833805783,109.75639175471898L24.025002922467422,120.81573281608496L24.681217506877015,121.30000247441211L25.33743209128661,134.32118971808052L25.993646675696205,106.7501313000017L26.6498612601058,103.37412939459476L27.306075844515394,122.07141288311897L27.962290428924987,109.91883065769916L28.61850501333458,101.28883078330294L29.274719597744173,119.94078091881762L29.93093418215377,140.52133195398193L30.587148766563367,115.54893576497145L31.24336335097296,103.88963660602842L31.899577935382553,111.37941797317232L32.55579251979214,91.92433345220978L33.21200710420174,100.42627752031514L33.868221688611335,109.071172480176L34.524436273020925,94.61334108677573L35.18065085743052,124.70207761068718L35.83686544184011,130.067084781306L36.493080026249714,105.82081464432926L37.149294610659304,124.93015541751461L37.8055091950689,110.84241606220262L38.4617237794785,98.49156387203092L39.117938363888086,96.00433795229962L39.77415294829768,104.75741443700265L40.43036753270727,128.54190205676582L41.08658211711687,84.1853913293799L41.74279670152646,63.62694404790082L42.399011285936055,119.15354419267462L43.05522587034565,122.50280775485561L43.71144045475524,121.43187042088121L44.36765503916484,132.65717382470035L45.023869623574434,150.61079947339093L45.68008420798403,112.87409103010708L46.33629879239363,87.89664918832501L46.99251337680322,86.905159180905L47.64872796121281,110.15471722284414L48.3049425456224,119.32091691098947L48.961157130032,69.84280074358547L49.61737171444159,112.00728294840786L50.273586298851185,114.7987821970937L50.92980088326078,144.2256627613824L51.58601546767037,146.9907474666938L52.24223005207997,142.85806776018273L52.89844463648956,155.9020395209792L53.55465922089916,133.09960115242177L54.21087380530875,113.35215873090505L54.86708838971835,87.26116875270948L55.523302974127944,117.60773429497965L56.17951755853753,111.82047091964665L56.83573214294713,144.11205814354503L57.49194672735672,114.39045524982949L58.148161311766316,101.15002021699524L58.804375896175905,152.638233795673L59.4605904805855,91.80951768544848L60.1168050649951,101.08311279642908L60.77301964940469,148.82495683946104L61.429234233814284,131.42945702330593L62.08544881822388,110.70139414729161L62.74166340263348,113.0539935498953L63.39787798704307,138.58706781887741L64.05409257145266,134.10746856013378L64.71030715586225,144.69685318029963L65.36652174027185,133.73277426607498L66.02273632468145,100.46310316777853L66.67895090909104,130.29296896997124L67.33516549350063,131.42431039590048L67.99138007791024,18.236548636313614L68.64759466231982,88.60186806606436L69.30380924672941,101.16119534767174L69.96002383113901,114.75439456239333L70.61623841554861,132.00050966758366L71.27245299995819,107.81358132309208L71.92866758436779,124.28477946344903L72.58488216877738,153.84066889324538L73.24109675318698,137.6532095210442L73.89731133759656,85.24087369302532L74.55352592200617,146.4428656478214L75.20974050641577,130.18030712191097L75.86595509082535,131.07095828448485L76.52216967523495,135.32582106301757L77.17838425964455,131.48182633020463L77.83459884405414,138.8732926951867L78.49081342846372,112.14567097004607L79.14702801287334,116.73323352321853L79.80324259728292,150.01235912994875L80.45945718169251,85.41901036572384L81.1156717661021,120.75702820875753L81.7718863505117,134.67876267930342L82.42810093492129,113.96984591248831L83.08431551933089,109.1013019834222L83.7405301037405,95.35507732066084L84.39674468815008,128.5729737756511L85.05295927255968,141.70831390979382L85.70917385696926,114.64214576608262L86.36538844137887,94.25103598805987L87.02160302578845,123.92844713437421L87.67781761019805,119.81810537471792L88.33403219460764,142.80898937047613L88.99024677901724,125.14880531760411L89.64646136342682,94.41805469760028L90.30267594783642,120.56758935936726L90.95889053224602,121.05724911223233L91.61510511665561,148.73810702761241L92.27131970106521,103.03565068776614L92.9275342854748,134.51628266848937L93.5837488698844,93.5306870874719L94.23996345429399,114.30348579655663L94.89617803870358,117.72204792987827L95.55239262311318,141.95659165569583L96.20860720752277,107.1300829509745L96.86482179193236,118.4132476472624L97.52103637634197,128.18182464804394L98.17725096075155,106.23380835550533L98.83346554516115,49.17109729519301L99.48968012957073,144.00459000453864L100.14589471398034,133.0968572425861L100.80210929838994,134.87084941229992L101.45832388279952,113.59829570808171L102.11453846720913,107.21507600168178L102.77075305161871,110.05827060650613L103.42696763602831,115.5921915372686L104.08318222043789,114.47570772016948L104.7393968048475,116.64296550304485L105.39561138925708,98.98875260989026L106.05182597366668,144.59414555866678L106.70804055807628,114.71147922951702L107.36425514248587,109.24214226527359L108.02046972689546,114.00117682350358L108.67668431130505,147.42310023024731L109.33289889571466,114.77377050812032L109.98911348012425,142.30581968360258L110.64532806453384,149.74450139554466L111.30154264894344,119.9119242589129L111.95775723335304,91.05868049216654L112.61397181776262,22.300906113238767L113.27018640217221,133.14360334391503L113.92640098658181,146.05158483148736L114.58261557099141,138.94174838360365L115.23883015540099,142.79376169145596L115.8950447398106,81.12468046320461L116.55125932422018,78.09713215821562L117.20747390862978,99.42893024341095L117.86368849303939,108.2229919497213L118.51990307744897,131.5678530148409L119.17611766185857,141.61593471936303L119.83233224626815,117.77647357221804L120.48854683067776,149.72150550579696L121.14476141508734,121.52062883570503L121.80097599949694,120.99833398618497L122.45719058390652,29.670075631293116L123.11340516831613,50.96632440070155L123.76961975272572,147.2137505960063L124.42583433713531,152.0977426142278L125.08204892154491,125.96936513750695L125.7382635059545,111.61216336296582L126.3944780903641,137.30512241716013L127.0506926747737,122.68745919042588L127.7069072591833,99.05395024659829L128.3631218435929,121.41173149252404L129.01933642800248,133.85610472916608L129.67555101241206,146.04175918734228L130.33176559682167,147.87640320560695L130.98798018123125,102.14994911803437L131.64419476564086,148.73335795989735L132.30040935005044,118.76019485453313L132.95662393446005,122.71667620891905L133.61283851886964,141.76551184180195L134.26905310327922,147.6792052358153L134.92526768768883,65.12245995403828L135.5814822720984,117.77412674692249L136.237696856508,138.08525289118896L136.8939114409176,145.02381339465617L137.55012602532722,124.86238823950845L138.2063406097368,119.3178749969149L138.86255519414638,145.24714592381974L139.518769778556,140.92401591181203L140.17498436296557,113.43747296108131L140.83119894737516,129.29930918587743L141.48741353178474,151.0447406801486L142.14362811619438,113.35572018366912L142.79984270060396,142.3899862750224L143.45605728501354,103.33818800952793L144.11227186942315,123.59293455538511L144.76848645383274,123.16712424496745L145.42470103824232,137.72663340640602L146.0809156226519,154.29663626432716L146.73713020706154,143.6191701809682L147.39334479147112,136.22566560319316L148.0495593758807,102.90061627810829L148.7057739602903,145.2301047230459L149.3619885446999,123.74762349806538L150.01820312910948,108.97746142698247L150.67441771351906,116.50887611706963L151.33063229792867,141.65599707274063L151.98684688233828,114.86892128445677L152.64306146674787,159.40075716114973L153.29927605115745,152.663082036799L153.95549063556706,152.32659673553064L154.61170521997664,142.57900044072107L155.26791980438622,137.00103462788115L155.92413438879584,98.02596656020243L156.58034897320545,93.03291824551252L157.23656355761503,58.68944844091273L157.8927781420246,140.835360567974L158.5489927264342,132.61480403135803L159.2052073108438,123.34226005536493L159.8614218952534,153.3596214741682L160.517636479663,144.29951777312792L161.1738510640726,152.97766186876916L161.8300656484822,136.96230461538025L162.48628023289177,109.1093675190651L163.14249481730135,134.5045770031567L163.79870940171097,103.67571321135759L164.45492398612055,131.2984637224854L165.11113857053016,128.59480573200426L165.76735315493974,154.37382903031204L166.42356773934935,138.4286769715941L167.07978232375893,132.6352311149049L167.73599690816852,143.67710211194114L168.3922114925781,127.70353732713616L169.0484260769877,139.33709635815643L169.70464066139732,149.634090292529L170.3608552458069,101.44135312515336L171.0170698302165,154.48572641288396L171.6732844146261,152.58905518333336L172.32949899903568,109.6567070435504L172.98571358344526,144.72052618525703L173.64192816785487,135.1939780838466L174.29814275226448,142.8200583771553L174.95435733667406,142.38815649060686L175.61057192108365,86.70629373488458L176.26678650549326,142.05274243918595L176.92300108990284,156.49850422706083L177.57921567431242,143.77157769560483L178.23543025872203,153.66716728396102L178.89164484313164,131.45288278601768L179.54785942754123,141.3365053419888L180.2040740119508,150.64349518193555L180.86028859636042,128.53899753354497L181.51650318077,128.90043115557654L182.17271776517958,144.27627524866193L182.82893234958917,146.9851328239305L183.4851469339988,125.72667437395546L184.1413615184084,131.6104747158982L184.79757610281797,98.97798469261477L185.45379068722755,106.9161720755057L186.11000527163716,134.85149842200804L186.76621985604675,120.29142312044057L187.42243444045633,143.171930828773L188.07864902486597,140.53735999305502L188.73486360927555,130.27832474113268L189.39107819368513,145.0182594181313L190.04729277809471,124.6066085377524L190.70350736250433,144.66894143805504L191.3597219469139,150.70821313597793L192.0159365313235,140.75514783541615L192.6721511157331,136.2226515408034L193.3283657001427,158.50082850955255L193.9845802845523,145.62575825632354L194.64079486896188,133.24484539592675L195.2970094533715,130.79344489298342L195.95322403778107,100.98840117739418L196.60943862219065,162.24810472565878L197.26565320660026,137.03332829466711L197.92186779100987,139.4403935286064L198.57808237541946,84.44622170284882L199.23429695982904,145.33048935516865L199.89051154423862,110.84991151801087L200.54672612864823,104.99193413288964L201.2029407130578,132.23809285114476L201.85915529746742,86.65894042379037L202.515369881877,135.4617156135459L203.17158446628662,144.23667149279157L203.8277990506962,143.8261928502628L204.48401363510578,113.4537869459158L205.1402282195154,80.52323385989428L205.79644280392498,137.3891297167254L206.4526573883346,120.19306185824709L207.10887197274417,106.02940178719425L207.76508655715378,133.12433702308041L208.42130114156336,132.93483285177797L209.07751572597294,143.92839857797478L209.73373031038253,114.62675681678968L210.38994489479214,116.55046281453338L211.04615947920175,135.50857185037344L211.70237406361133,54.39640142333191L212.35858864802094,121.16820699867752L213.01480323243052,133.82603898713134L213.6710178168401,146.10359722200772" style="fill: none;" fill="none"></path></g></g></g></g><g opacity="0.2"><g><g><g><path stroke="rgb(255, 112, 67)" stroke-width="2px" d="M18.119071662781078,74.77797598143178L18.77528624719067,81.05613243462243L19.431500831600264,93.18752331372617L20.087715416009857,118.36623423120442L20.74393000041945,130.18112879945267L21.400144584829047,127.20199340149627L22.056359169238643,93.10612179543105L22.712573753648236,132.9025642280066L23.36878833805783,109.50377501968681L24.025002922467422,120.93873863173211L24.681217506877015,121.30538868901434L25.33743209128661,134.46601586538117L25.993646675696205,106.44347645409789L26.6498612601058,103.33658033396841L27.306075844515394,122.27937053567081L27.962290428924987,109.78366543577842L28.61850501333458,101.1928449404128L29.274719597744173,120.14823435814084L29.93093418215377,140.75023595942864L30.587148766563367,115.27118413900672L31.24336335097296,103.75995784895221L31.899577935382553,111.46272191153287L32.55579251979214,91.70794727452466L33.21200710420174,100.52083908224553L33.868221688611335,109.16732399135748L34.524436273020925,94.4525360864447L35.18065085743052,125.03673494310684L35.83686544184011,130.1267562462977L36.493080026249714,105.55113924341244L37.149294610659304,125.14269611367746L37.8055091950689,110.68572735349844L38.4617237794785,98.3541934229997L39.117938363888086,95.97667416552808L39.77415294829768,104.854769180513L40.43036753270727,128.80644135284L41.08658211711687,83.69204287841808L41.74279670152646,63.398285888046146L42.399011285936055,119.77113024079645L43.05522587034565,122.5400594223824L43.71144045475524,121.41995908551851L44.36765503916484,132.78202553091066L45.023869623574434,150.81048590628842L45.68008420798403,112.45437030930209L46.33629879239363,87.61884144286535L46.99251337680322,86.89413148618141L47.64872796121281,110.41330684717308L48.3049425456224,119.42286655362808L48.961157130032,69.29248802584894L49.61737171444159,112.47625090012984L50.273586298851185,114.82983021704874L50.92980088326078,144.5529587029468L51.58601546767037,147.02150169496318L52.24223005207997,142.8121026673904L52.89844463648956,156.04711908555834L53.55465922089916,132.84598454771586L54.21087380530875,113.13252084755149L54.86708838971835,86.97097573980739L55.523302974127944,117.94525929089974L56.17951755853753,111.75610297512829L56.83573214294713,144.47121634320416L57.49194672735672,114.0598813046011L58.148161311766316,101.00275551996675L58.804375896175905,153.2109035119171L59.4605904805855,91.13295967006684L60.1168050649951,101.18625692809822L60.77301964940469,149.35595813822073L61.429234233814284,131.23597825892L62.08544881822388,110.47084946414078L62.74166340263348,113.08015997398897L63.39787798704307,138.8710555003322L64.05409257145266,134.05764490811538L64.71030715586225,144.814631977895L65.36652174027185,133.61082798897036L66.02273632468145,100.09306638104316L66.67895090909104,130.62474705270546L67.33516549350063,131.43689356646183L67.99138007791024,16.977635209260598L68.64759466231982,89.38449548135986L69.30380924672941,101.3008845287614L69.96002383113901,114.90558282463998L70.61623841554861,132.19232692355644L71.27245299995819,107.54456594211189L71.92866758436779,124.46797782496967L72.58488216877738,154.1693997160237L73.24109675318698,137.47316700022094L73.89731133759656,84.65792556955898L74.55352592200617,147.12357536622662L75.20974050641577,129.99942932233057L75.86595509082535,131.0808644147056L76.52216967523495,135.37314511818832L77.17838425964455,131.43907209151814L77.83459884405414,138.95550314009552L78.49081342846372,111.84839711870477L79.14702801287334,116.78425798033169L79.80324259728292,150.38250107299632L80.45945718169251,84.70058080413995L81.1156717661021,121.15006986323009L81.7718863505117,134.8336050242741L82.42810093492129,113.73951417898479L83.08431551933089,109.04715235428195L83.7405301037405,95.20218705646433L84.39674468815008,128.94243470689972L85.05295927255968,141.85440970501685L85.70917385696926,114.34110648440333L86.36538844137887,94.02423901378458L87.02160302578845,124.25852956370632L87.67781761019805,119.77238873229504L88.33403219460764,143.06470193261296L88.99024677901724,124.95238264360856L89.64646136342682,94.07625666239295L90.30267594783642,120.85843352648499L90.95889053224602,121.06269527732991L91.61510511665561,149.0459831014943L92.27131970106521,102.52733216426935L92.9275342854748,134.86642114350246L93.5837488698844,93.07483112044338L94.23996345429399,114.53452804711267L94.89617803870358,117.760070360077L95.55239262311318,142.2261366314127L96.20860720752277,106.74273047802006L96.86482179193236,118.5387429067762L97.52103637634197,128.2904741394581L98.17725096075155,105.98969492859135L98.83346554516115,48.536426090275455L99.48968012957073,145.05936090423813L100.14589471398034,132.9755376668718L100.80210929838994,134.89058036666478L101.45832388279952,113.36169500965258L102.11453846720913,107.1440796247653L102.77075305161871,110.0898936000886L103.42696763602831,115.65374171951166L104.08318222043789,114.46328980107131L104.7393968048475,116.66707049355205L105.39561138925708,98.79239634919794L106.05182597366668,145.1013845095632L106.70804055807628,114.37911388106339L107.36425514248587,109.18131040823953L108.02046972689546,114.05410845155265L108.67668431130505,147.79483041980666L109.33289889571466,114.41063337268716L109.98911348012425,142.6120406552207L110.64532806453384,149.8272369858696L111.30154264894344,119.5801160197795L111.95775723335304,90.73776473743023L112.61397181776262,21.53615836989377L113.27018640217221,134.3764341523452L113.92640098658181,146.19515186522176L114.58261557099141,138.8626703240215L115.23883015540099,142.83660511550687L115.8950447398106,80.43877561637876L116.55125932422018,78.06345871902968L117.20747390862978,99.66618987833222L117.86368849303939,108.32080254503921L118.51990307744897,131.82750263234982L119.17611766185857,141.727692958746L119.83233224626815,117.51132284156222L120.48854683067776,150.076809197677L121.14476141508734,121.20696893340875L121.80097599949694,120.99252484225704L122.45719058390652,28.65429116020735L123.11340516831613,51.20318864383957L123.76961975272572,148.28424775288025L124.42583433713531,152.15206406235765L125.08204892154491,125.67875628791754L125.7382635059545,111.45247760005383L126.3944780903641,137.59088839248483L127.0506926747737,122.52487648517403L127.7069072591833,98.79109018756684L128.3631218435929,121.66040246694789L129.01933642800248,133.9945153516161L129.67555101241206,146.17729225007224L130.33176559682167,147.89680875080504L130.98798018123125,101.64136368328889L131.64419476564086,149.2514747417583L132.30040935005044,118.4268229696403L132.95662393446005,122.76068156270898L133.61283851886964,141.97737957887142L134.26905310327922,147.74497937872144L134.92526768768883,64.20423528457464L135.5814822720984,118.35973679214163L136.237696856508,138.31116025983096L136.8939114409176,145.10098646395662L137.55012602532722,124.63814589703463L138.2063406097368,119.25620700331677L138.86255519414638,145.5355402415103L139.518769778556,140.87593256486352L140.17498436296557,113.13175812543113L140.83119894737516,129.4757300134535L141.48741353178474,151.28660088888165L142.14362811619438,112.9365298646992L142.79984270060396,142.7129154226512L143.45605728501354,102.90384040495721L144.11227186942315,123.81821485063733L144.76848645383274,123.16238823544813L145.42470103824232,137.88856930203377L146.0809156226519,154.48093356608362L146.73713020706154,143.50041171088031L147.39334479147112,136.14343248857685L148.0495593758807,102.52996355558459L148.7057739602903,145.70090793123023L149.3619885446999,123.50868791315659L150.01820312910948,108.8131825768491L150.67441771351906,116.59264311564493L151.33063229792867,141.93569204798064L151.98684688233828,114.57098616446575L152.64306146674787,159.89605563905025L153.29927605115745,152.58814328415204L153.95549063556706,152.32285422965202L154.61170521997664,142.47058430397394L155.26791980438622,136.93899456322873L155.92413438879584,97.59247237542542L156.58034897320545,92.97738383554125L157.23656355761503,58.30746849364215L157.8927781420246,141.7490158090232L158.5489927264342,132.52337215885774L159.2052073108438,123.23912761478259L159.8614218952534,153.69348494798703L160.517636479663,144.19874816674627L161.1738510640726,153.07418318833646L161.8300656484822,136.78417627383598L162.48628023289177,108.79957752102722L163.14249481730135,134.78703130479977L163.79870940171097,103.33282392752565L164.45492398612055,131.60569350572342L165.11113857053016,128.56473471289883L165.76735315493974,154.66055224192112L166.42356773934935,138.25132947650218L167.07978232375893,132.57079440669096L167.73599690816852,143.79991361949158L168.3922114925781,127.52587381587946L169.0484260769877,139.46648882462884L169.70464066139732,149.74861701980717L170.3608552458069,100.90533683714413L171.0170698302165,155.0757042755382L171.6732844146261,152.5679597500421L172.32949899903568,109.1791986213688L172.98571358344526,145.11051810695446L173.64192816785487,135.08802052154576L174.29814275226448,142.90487827930536L174.95435733667406,142.38335272847132L175.61057192108365,86.08698080231335L176.26678650549326,142.6683247806898L176.92300108990284,156.6591749850655L177.57921567431242,143.6300244177019L178.23543025872203,153.77722945329563L178.89164484313164,131.20580783204662L179.54785942754123,141.44643440985098L180.2040740119508,150.7470107413283L180.86028859636042,128.29314366687936L181.51650318077,128.90445114530593L182.17271776517958,144.44729070369118L182.82893234958917,147.015261674616L183.4851469339988,125.49023044781823L184.1413615184084,131.67591637794206L184.79757610281797,98.61503485413537L185.45379068722755,107.00446334063392L186.11000527163716,135.162204781777L186.76621985604675,120.12948092800656L187.42243444045633,143.42641574767254L188.07864902486597,140.50805738517545L188.73486360927555,130.16422020344697L189.39107819368513,145.1822020687349L190.04729277809471,124.37958309823352L190.70350736250433,144.89208164220403L191.3597219469139,150.7753840042056L192.0159365313235,140.64444640133507L192.6721511157331,136.1722395496601L193.3283657001427,158.74861409767817L193.9845802845523,145.48255727271834L194.64079486896188,133.10714060172617L195.2970094533715,130.76617956888595L195.95322403778107,100.65689917449076L196.60943862219065,162.92945633236346L197.26565320660026,136.75288083183506L197.92186779100987,139.46716574051067L198.57808237541946,83.83455750660683L199.23429695982904,146.00766523401143L199.89051154423862,110.46640660778971L200.54672612864823,104.92677968270124L201.2029407130578,132.54113405023557L201.85915529746742,86.15199332904729L202.515369881877,136.00451695539354L203.17158446628662,144.334269586494L203.8277990506962,143.82162736485552L204.48401363510578,113.11597454455298L205.1402282195154,80.15696886095978L205.79644280392498,138.02161187489034L206.4526573883346,120.00180124505874L207.10887197274417,105.87186866203592L207.76508655715378,133.42569626230664L208.42130114156336,132.9327251208535L209.07751572597294,144.05067281759878L209.73373031038253,114.30085382450147L210.38994489479214,116.5718589378652L211.04615947920175,135.71943049485702L211.70237406361133,53.49424381494218L212.35858864802094,121.91086611023344L213.01480323243052,133.96682377163387L213.6710178168401,146.2401524703228" style="fill: none;" fill="none"></path></g></g></g></g></g></g><g transform="translate(64, 177)" clip-path="url(#clip_1)"><clipPath id="clip_1"><rect width="266" height="23"></rect></clipPath><g><g><line x1="17.90033346797788" y1="0" x2="17.90033346797788" y2="5" style="visibility: inherit;" fill="rgb(0, 0, 0)" stroke="rgb(204, 204, 204)" stroke-width="1px"></line><line x1="39.77415294829768" y1="0" x2="39.77415294829768" y2="5" style="visibility: inherit;" fill="rgb(0, 0, 0)" stroke="rgb(204, 204, 204)" stroke-width="1px"></line><line x1="61.64797242861748" y1="0" x2="61.64797242861748" y2="5" style="visibility: inherit;" fill="rgb(0, 0, 0)" stroke="rgb(204, 204, 204)" stroke-width="1px"></line><line x1="83.52179190893729" y1="0" x2="83.52179190893729" y2="5" style="visibility: inherit;" fill="rgb(0, 0, 0)" stroke="rgb(204, 204, 204)" stroke-width="1px"></line><line x1="105.39561138925708" y1="0" x2="105.39561138925708" y2="5" style="visibility: inherit;" fill="rgb(0, 0, 0)" stroke="rgb(204, 204, 204)" stroke-width="1px"></line><line x1="127.2694308695769" y1="0" x2="127.2694308695769" y2="5" style="visibility: inherit;" fill="rgb(0, 0, 0)" stroke="rgb(204, 204, 204)" stroke-width="1px"></line><line x1="149.1432503498967" y1="0" x2="149.1432503498967" y2="5" style="visibility: inherit;" fill="rgb(0, 0, 0)" stroke="rgb(204, 204, 204)" stroke-width="1px"></line><line x1="171.0170698302165" y1="0" x2="171.0170698302165" y2="5" style="visibility: inherit;" fill="rgb(0, 0, 0)" stroke="rgb(204, 204, 204)" stroke-width="1px"></line><line x1="192.8908893105363" y1="0" x2="192.8908893105363" y2="5" style="visibility: inherit;" fill="rgb(0, 0, 0)" stroke="rgb(204, 204, 204)" stroke-width="1px"></line><line x1="214.7647087908561" y1="0" x2="214.7647087908561" y2="5" style="visibility: inherit;" fill="rgb(0, 0, 0)" stroke="rgb(204, 204, 204)" stroke-width="1px"></line><line x1="236.6385282711759" y1="0" x2="236.6385282711759" y2="5" style="visibility: inherit;" fill="rgb(0, 0, 0)" stroke="rgb(204, 204, 204)" stroke-width="1px"></line><line x1="258.5123477514957" y1="0" x2="258.5123477514957" y2="5" style="visibility: inherit;" fill="rgb(0, 0, 0)" stroke="rgb(204, 204, 204)" stroke-width="1px"></line></g><g transform="translate(0, 8)"><text x="17.90033346797788" y="0" dx="0em" dy="0.95em" style="text-anchor: middle; visibility: inherit; font-family: &quot;Helvetica Neue&quot;, sans-serif; font-size: 12px; font-weight: 200;" fill="rgb(50, 49, 63)" stroke="none" stroke-width="1px">0</text><text x="39.77415294829768" y="0" dx="0em" dy="0.95em" style="text-anchor: middle; visibility: hidden; font-family: &quot;Helvetica Neue&quot;, sans-serif; font-size: 12px; font-weight: 200;" fill="rgb(50, 49, 63)" stroke="none" stroke-width="1px">10k</text><text x="61.64797242861748" y="0" dx="0em" dy="0.95em" style="text-anchor: middle; visibility: inherit; font-family: &quot;Helvetica Neue&quot;, sans-serif; font-size: 12px; font-weight: 200;" fill="rgb(50, 49, 63)" stroke="none" stroke-width="1px">20k</text><text x="83.52179190893729" y="0" dx="0em" dy="0.95em" style="text-anchor: middle; visibility: hidden; font-family: &quot;Helvetica Neue&quot;, sans-serif; font-size: 12px; font-weight: 200;" fill="rgb(50, 49, 63)" stroke="none" stroke-width="1px">30k</text><text x="105.39561138925708" y="0" dx="0em" dy="0.95em" style="text-anchor: middle; visibility: inherit; font-family: &quot;Helvetica Neue&quot;, sans-serif; font-size: 12px; font-weight: 200;" fill="rgb(50, 49, 63)" stroke="none" stroke-width="1px">40k</text><text x="127.2694308695769" y="0" dx="0em" dy="0.95em" style="text-anchor: middle; visibility: hidden; font-family: &quot;Helvetica Neue&quot;, sans-serif; font-size: 12px; font-weight: 200;" fill="rgb(50, 49, 63)" stroke="none" stroke-width="1px">50k</text><text x="149.1432503498967" y="0" dx="0em" dy="0.95em" style="text-anchor: middle; visibility: inherit; font-family: &quot;Helvetica Neue&quot;, sans-serif; font-size: 12px; font-weight: 200;" fill="rgb(50, 49, 63)" stroke="none" stroke-width="1px">60k</text><text x="171.0170698302165" y="0" dx="0em" dy="0.95em" style="text-anchor: middle; visibility: hidden; font-family: &quot;Helvetica Neue&quot;, sans-serif; font-size: 12px; font-weight: 200;" fill="rgb(50, 49, 63)" stroke="none" stroke-width="1px">70k</text><text x="192.8908893105363" y="0" dx="0em" dy="0.95em" style="text-anchor: middle; visibility: inherit; font-family: &quot;Helvetica Neue&quot;, sans-serif; font-size: 12px; font-weight: 200;" fill="rgb(50, 49, 63)" stroke="none" stroke-width="1px">80k</text><text x="214.7647087908561" y="0" dx="0em" dy="0.95em" style="text-anchor: middle; visibility: hidden; font-family: &quot;Helvetica Neue&quot;, sans-serif; font-size: 12px; font-weight: 200;" fill="rgb(50, 49, 63)" stroke="none" stroke-width="1px">90k</text><text x="236.6385282711759" y="0" dx="0em" dy="0.95em" style="text-anchor: middle; visibility: inherit; font-family: &quot;Helvetica Neue&quot;, sans-serif; font-size: 12px; font-weight: 200;" fill="rgb(50, 49, 63)" stroke="none" stroke-width="1px">100k</text><text x="258.5123477514957" y="0" dx="0em" dy="0.95em" style="text-anchor: middle; visibility: hidden; font-family: &quot;Helvetica Neue&quot;, sans-serif; font-size: 12px; font-weight: 200;" fill="rgb(50, 49, 63)" stroke="none" stroke-width="1px">110k</text></g><line x1="0" y1="0" x2="266" y2="0" fill="rgb(0, 0, 0)" stroke="rgb(204, 204, 204)" stroke-width="1px"></line></g></g></g></g></svg>