<svg viewBox="0 0 330 200" xmlns="http://www.w3.org/2000/svg"><g><g><g><g><g><line x1="64" y1="162.0489741338166" x2="59" y2="162.0489741338166" style="visibility: inherit;" fill="rgb(0, 0, 0)" stroke="rgb(204, 204, 204)" stroke-width="1px"></line><line x1="64" y1="144.9350134774458" x2="59" y2="144.9350134774458" style="visibility: inherit;" fill="rgb(0, 0, 0)" stroke="rgb(204, 204, 204)" stroke-width="1px"></line><line x1="64" y1="127.82105282107497" x2="59" y2="127.82105282107497" style="visibility: inherit;" fill="rgb(0, 0, 0)" stroke="rgb(204, 204, 204)" stroke-width="1px"></line><line x1="64" y1="110.70709216470416" x2="59" y2="110.70709216470416" style="visibility: inherit;" fill="rgb(0, 0, 0)" stroke="rgb(204, 204, 204)" stroke-width="1px"></line><line x1="64" y1="93.59313150833336" x2="59" y2="93.59313150833336" style="visibility: inherit;" fill="rgb(0, 0, 0)" stroke="rgb(204, 204, 204)" stroke-width="1px"></line><line x1="64" y1="76.47917085196256" x2="59" y2="76.47917085196256" style="visibility: inherit;" fill="rgb(0, 0, 0)" stroke="rgb(204, 204, 204)" stroke-width="1px"></line><line x1="64" y1="59.36521019559174" x2="59" y2="59.36521019559174" style="visibility: inherit;" fill="rgb(0, 0, 0)" stroke="rgb(204, 204, 204)" stroke-width="1px"></line><line x1="64" y1="42.251249539220936" x2="59" y2="42.251249539220936" style="visibility: inherit;" fill="rgb(0, 0, 0)" stroke="rgb(204, 204, 204)" stroke-width="1px"></line><line x1="64" y1="25.13728888285013" x2="59" y2="25.13728888285013" style="visibility: inherit;" fill="rgb(0, 0, 0)" stroke="rgb(204, 204, 204)" stroke-width="1px"></line><line x1="64" y1="8.023328226479322" x2="59" y2="8.023328226479322" style="visibility: inherit;" fill="rgb(0, 0, 0)" stroke="rgb(204, 204, 204)" stroke-width="1px"></line></g><g transform="translate(54, 0)"><text x="0" y="162.0489741338166" dx="0em" dy="0.3em" style="text-anchor: end; visibility: inherit; font-family: &quot;Helvetica Neue&quot;, sans-serif; font-size: 12px; font-weight: 200;" fill="rgb(50, 49, 63)" stroke="none" stroke-width="1px">200</text><text x="0" y="144.9350134774458" dx="0em" dy="0.3em" style="text-anchor: end; visibility: hidden; font-family: &quot;Helvetica Neue&quot;, sans-serif; font-size: 12px; font-weight: 200;" fill="rgb(50, 49, 63)" stroke="none" stroke-width="1px">300</text><text x="0" y="127.82105282107497" dx="0em" dy="0.3em" style="text-anchor: end; visibility: inherit; font-family: &quot;Helvetica Neue&quot;, sans-serif; font-size: 12px; font-weight: 200;" fill="rgb(50, 49, 63)" stroke="none" stroke-width="1px">400</text><text x="0" y="110.70709216470416" dx="0em" dy="0.3em" style="text-anchor: end; visibility: hidden; font-family: &quot;Helvetica Neue&quot;, sans-serif; font-size: 12px; font-weight: 200;" fill="rgb(50, 49, 63)" stroke="none" stroke-width="1px">500</text><text x="0" y="93.59313150833336" dx="0em" dy="0.3em" style="text-anchor: end; visibility: inherit; font-family: &quot;Helvetica Neue&quot;, sans-serif; font-size: 12px; font-weight: 200;" fill="rgb(50, 49, 63)" stroke="none" stroke-width="1px">600</text><text x="0" y="76.47917085196256" dx="0em" dy="0.3em" style="text-anchor: end; visibility: hidden; font-family: &quot;Helvetica Neue&quot;, sans-serif; font-size: 12px; font-weight: 200;" fill="rgb(50, 49, 63)" stroke="none" stroke-width="1px">700</text><text x="0" y="59.36521019559174" dx="0em" dy="0.3em" style="text-anchor: end; visibility: inherit; font-family: &quot;Helvetica Neue&quot;, sans-serif; font-size: 12px; font-weight: 200;" fill="rgb(50, 49, 63)" stroke="none" stroke-width="1px">800</text><text x="0" y="42.251249539220936" dx="0em" dy="0.3em" style="text-anchor: end; visibility: hidden; font-family: &quot;Helvetica Neue&quot;, sans-serif; font-size: 12px; font-weight: 200;" fill="rgb(50, 49, 63)" stroke="none" stroke-width="1px">900</text><text x="0" y="25.13728888285013" dx="0em" dy="0.3em" style="text-anchor: end; visibility: inherit; font-family: &quot;Helvetica Neue&quot;, sans-serif; font-size: 12px; font-weight: 200;" fill="rgb(50, 49, 63)" stroke="none" stroke-width="1px">1e+3</text><text x="0" y="8.023328226479322" dx="0em" dy="0.3em" style="text-anchor: end; visibility: hidden; font-family: &quot;Helvetica Neue&quot;, sans-serif; font-size: 12px; font-weight: 200;" fill="rgb(50, 49, 63)" stroke="none" stroke-width="1px">1.1e+3</text></g><line x1="64" y1="0" x2="64" y2="177" fill="rgb(0, 0, 0)" stroke="rgb(204, 204, 204)" stroke-width="1px"></line></g></g><g transform="translate(64, 0)" clip-path="url(#clip_0)"><clipPath id="clip_0"><rect width="266" height="177"></rect></clipPath><g><g><g><line x1="14.47251217300642" y1="0" x2="14.47251217300642" y2="177" fill="rgb(0, 0, 0)" stroke="rgb(60, 60, 60)" stroke-width="1px" opacity="0.25"></line><line x1="38.24505233451676" y1="0" x2="38.24505233451676" y2="177" fill="rgb(0, 0, 0)" stroke="rgb(60, 60, 60)" stroke-width="1px" opacity="0.25"></line><line x1="62.01759249602708" y1="0" x2="62.01759249602708" y2="177" fill="rgb(0, 0, 0)" stroke="rgb(60, 60, 60)" stroke-width="1px" opacity="0.25"></line><line x1="85.79013265753741" y1="0" x2="85.79013265753741" y2="177" fill="rgb(0, 0, 0)" stroke="rgb(60, 60, 60)" stroke-width="1px" opacity="0.25"></line><line x1="109.56267281904773" y1="0" x2="109.56267281904773" y2="177" fill="rgb(0, 0, 0)" stroke="rgb(60, 60, 60)" stroke-width="1px" opacity="0.25"></line><line x1="133.33521298055808" y1="0" x2="133.33521298055808" y2="177" fill="rgb(0, 0, 0)" stroke="rgb(60, 60, 60)" stroke-width="1px" opacity="0.25"></line><line x1="157.10775314206842" y1="0" x2="157.10775314206842" y2="177" fill="rgb(0, 0, 0)" stroke="rgb(60, 60, 60)" stroke-width="1px" opacity="0.25"></line><line x1="180.88029330357872" y1="0" x2="180.88029330357872" y2="177" fill="rgb(0, 0, 0)" stroke="rgb(60, 60, 60)" stroke-width="1px" opacity="0.25"></line><line x1="204.65283346508906" y1="0" x2="204.65283346508906" y2="177" fill="rgb(0, 0, 0)" stroke="rgb(60, 60, 60)" stroke-width="1px" opacity="0.25"></line><line x1="228.42537362659937" y1="0" x2="228.42537362659937" y2="177" fill="rgb(0, 0, 0)" stroke="rgb(60, 60, 60)" stroke-width="1px" opacity="0.25"></line><line x1="252.1979137881097" y1="0" x2="252.1979137881097" y2="177" fill="rgb(0, 0, 0)" stroke="rgb(60, 60, 60)" stroke-width="1px" opacity="0.25"></line></g><g><line x1="0" y1="162.0489741338166" x2="266" y2="162.0489741338166" fill="rgb(0, 0, 0)" stroke="rgb(60, 60, 60)" stroke-width="1px" opacity="0.25"></line><line x1="0" y1="144.9350134774458" x2="266" y2="144.9350134774458" fill="rgb(0, 0, 0)" stroke="rgb(60, 60, 60)" stroke-width="1px" opacity="0.25"></line><line x1="0" y1="127.82105282107497" x2="266" y2="127.82105282107497" fill="rgb(0, 0, 0)" stroke="rgb(60, 60, 60)" stroke-width="1px" opacity="0.25"></line><line x1="0" y1="110.70709216470416" x2="266" y2="110.70709216470416" fill="rgb(0, 0, 0)" stroke="rgb(60, 60, 60)" stroke-width="1px" opacity="0.25"></line><line x1="0" y1="93.59313150833336" x2="266" y2="93.59313150833336" fill="rgb(0, 0, 0)" stroke="rgb(60, 60, 60)" stroke-width="1px" opacity="0.25"></line><line x1="0" y1="76.47917085196256" x2="266" y2="76.47917085196256" fill="rgb(0, 0, 0)" stroke="rgb(60, 60, 60)" stroke-width="1px" opacity="0.25"></line><line x1="0" y1="59.36521019559174" x2="266" y2="59.36521019559174" fill="rgb(0, 0, 0)" stroke="rgb(60, 60, 60)" stroke-width="1px" opacity="0.25"></line><line x1="0" y1="42.251249539220936" x2="266" y2="42.251249539220936" fill="rgb(0, 0, 0)" stroke="rgb(60, 60, 60)" stroke-width="1px" opacity="0.25"></line><line x1="0" y1="25.13728888285013" x2="266" y2="25.13728888285013" fill="rgb(0, 0, 0)" stroke="rgb(60, 60, 60)" stroke-width="1px" opacity="0.25"></line><line x1="0" y1="8.023328226479322" x2="266" y2="8.023328226479322" fill="rgb(0, 0, 0)" stroke="rgb(60, 60, 60)" stroke-width="1px" opacity="0.25"></line></g></g></g><g><g><line x1="0" y1="196.27689544655823" x2="266" y2="196.27689544655823" fill="rgb(0, 0, 0)" stroke="rgb(153, 153, 153)" stroke-width="1.5px"></line></g></g><g><g><line x1="14.47251217300642" y1="0" x2="14.47251217300642" y2="177" fill="rgb(0, 0, 0)" stroke="rgb(153, 153, 153)" stroke-width="1.5px"></line></g></g><g><g><g><g><g><path stroke="rgb(255, 112, 67)" stroke-width="2px" d="M14.710237574621523,77.35018203561253L15.423413779466834,84.15372628387928L16.136589984312145,97.3727757478559L16.849766189157453,124.80065895072904L17.562942394002764,137.90444056054855L18.276118598848072,134.82052832497908L18.989294803693383,97.84189004171486L19.702471008538694,140.55671612022L20.415647213384002,115.67272949609884L21.128823418229313,127.78940526131672L21.84199962307462,128.31997380064686L22.555175827919932,142.58605918803735L23.268352032765243,112.3790537704398L23.981528237610554,108.6802872486737L24.694704442455862,129.16513534800768L25.407880647301173,115.85069846442592L26.121056852146484,106.39562245657793L26.834233056991792,126.83080308144677L27.547409261837103,149.37896961134345L28.26058546668241,122.01907302945534L28.973761671527722,109.2450798254569L29.68693787637303,117.45092607565329L30.40011408121834,96.13582693752289L31.11329028606365,105.45060428959474L31.826466490908963,114.92199943617523L32.539642695754274,99.08191870351884L33.252818900599586,132.04730629961068L33.96599510544489,137.92523808630136L34.6791713102902,111.3608892579685L35.392347515135505,132.29718961718228L36.10552371998082,116.8625837861427L36.818699924826134,103.33092122306074L37.53187612967144,100.6059026295472L38.24505233451676,110.1958220582731L38.95822853936206,136.25423938453224L39.67140474420737,87.65699877336692L40.384580949052676,65.13304923932125L41.097757153897994,125.96830213241027L41.8109333587433,129.63777397616886L42.52410956358861,128.46444905846965L43.237285768433914,140.7629540919579L43.95046197327923,160.43304651321597L44.66363817812454,119.08849821538513L45.37681438296985,91.72307358817152L46.089990587815166,90.63679160466988L46.80316679266047,116.10913710117411L47.51634299750578,126.15167661634302L48.229519202351085,71.94317651243448L48.9426954071964,118.13881844528473L49.65587161204171,121.19720059549559L50.36904781688702,153.4374551098308L51.08222402173233,156.46689733895786L51.79540022657764,151.9391103969115L52.50857643142295,166.23015862837883L53.221752636268256,141.2476799404444L53.934928841113575,119.61227185544654L54.64810504595888,91.02683767766224L55.36128125080419,124.27470418465685L56.074457455649494,117.93414614437799L56.78763366049481,153.31298925674523L57.500809865340116,120.74983531407884L58.21398607018543,106.24354082572812L58.92716227503074,162.65431486745655L59.64033847987605,96.0100341429195L60.353514684721354,106.17023668248949L61.066690889566665,158.47646736053736L61.77986709441198,139.4178607151045L62.49304329925729,116.70807938942635L63.2062195041026,119.28560041971396L63.9193957089479,147.2597790339569L64.63257191379321,142.351905095073L65.34574811863853,153.95369396149633L66.05892432348384,141.94138793613956L66.77210052832915,105.49095067440032L67.48527673317446,138.17271806357667L68.19845293801977,139.4122220414068L68.91162914286507,15.403078800259294L69.62480534771038,92.49571532493185L70.33798155255569,106.25578436124164L71.05115775740101,121.14856925528598L71.76433396224633,140.0435091779912L72.47751016709162,113.54417554856389L73.19068637193693,131.5901121214535L73.90386257678225,163.9717094685598L74.61703878162756,146.23663867299715L75.33021498647285,88.81339113935276L76.04339119131818,155.86663496165176L76.75656739616349,138.04928511431845L77.4697436010088,139.02508749684208L78.18291980585411,143.68673889423619L78.89609601069941,139.4752368199031L79.60927221554472,147.57336860524651L80.32244842039003,118.29043713383732L81.03562462523536,123.3165962604083L81.74880083008065,159.77739193433288L82.46197703492597,89.00855867175873L83.17515323977128,127.72508816602468L83.88832944461659,142.97781811919845L84.60150564946188,120.28901337757219L85.3146818543072,114.9550094880197L86.02785805915252,99.89456905939724L86.74103426399783,136.28828173308733L87.45421046884314,150.67943366412314L88.16738667368844,121.02558884782897L88.88056287853375,98.68497521612058L89.59373908337906,131.19971243379516L90.30691528822437,126.69639907094289L91.02009149306969,151.88533983934803L91.733267697915,132.53674366753495L92.44644390276031,98.86796184606509L93.15962010760562,127.5175379057821L93.87279631245092,128.05401186275853L94.58597251729623,158.3813142221541L95.29914872214154,108.30944808915092L96.01232492698685,142.79980411289924L96.72550113183217,97.89575694191922L97.43867733667747,120.65455109588373L98.15185354152278,124.39994684079021L98.8650297463681,150.95144814763725L99.5782059512134,112.79533091893818L100.2913821560587,125.15722910725458L101.00455836090401,135.85973656671933L101.71773456574934,111.81336747196222L102.43091077059465,49.295142890079504L103.14408697543996,153.1952465641014L103.85726318028526,141.24467369752062L104.57043938513057,143.18826941549213L105.28361558997588,119.8819409008021L105.99679179482119,112.88844977945641L106.7099679996665,116.00346965025315L107.42314420451181,122.0664642949015L108.13632040935713,120.84323839619393L108.84949661420244,123.21769811391442L109.56267281904773,103.87564397799993L110.27584902389304,153.84116691824516L110.98902522873836,121.10155097716856L111.70220143358368,115.10931488654262L112.41537763842899,120.32333969847093L113.12855384327429,156.94058543873754L113.8417300481196,121.16979764951992L114.55490625296491,151.33406432330207L115.26808245781022,159.48392550618212L115.98125866265552,126.79918756386823L116.69443486750085,95.18741272515305L117.40761107234616,19.856011526412004L118.12078727719147,141.295888986926L118.83396348203676,155.4379455163799L119.54713968688208,147.64836903938001L120.26031589172739,151.86865630926061L120.9734920965727,84.3036668731439L121.68666830141801,80.98666805996544L122.39984450626332,104.35790504896941L123.11302071110863,113.99272811513862L123.82619691595394,139.56948813552043L124.53937312079925,150.5782225077177L125.25254932564455,124.45957587817006L125.96572553048986,159.45873108108393L126.67890173533517,128.56169327292037L127.3920779401805,127.98946412198251L128.1052541450258,27.929714761870628L128.8184303498711,51.26200372217424L129.53160655471643,156.71122081153325L130.24478275956173,162.06214971374695L130.95795896440703,133.4357535839992L131.67113516925235,117.70592322316222L132.38431137409768,145.85527250005663L133.09748757894297,129.84007911912198L133.81066378378827,103.94707487250498L134.5238399886336,128.4423847362095L135.2370161934789,142.07650947954411L135.9501923983242,155.42718048583876L136.66336860316952,157.43722670745007L137.3765448080148,107.33906850815816L138.08972101286014,158.37611111707113L138.80289721770544,125.5373464031062L139.51607342255073,129.87208944758044L140.2292496273961,150.74210003752984L140.94242583224138,157.2211755116088L141.6556020370867,66.77154480934172L142.368778241932,124.45700468328369L143.0819544467773,146.70998779963213L143.79513065162263,154.3119133964068L144.50830685646793,132.22294351889593L145.22148306131322,126.14834387831253L145.93465926615855,154.55659776129667L146.64783547100384,149.82015240205482L147.36101167584917,119.70574260198279L148.07418788069447,137.08405886064634L148.78736408553976,160.9084749202318L149.5005402903851,119.61617380296366L150.21371649523041,151.42627771041427L150.92689270007574,108.64090966668293L151.64006890492104,130.83212298048096L152.35324510976633,130.36560282885628L153.06642131461166,146.3170822914203L153.77959751945696,164.47126986408975L154.49277372430228,152.77297845519894L155.20594992914758,144.6726135925487L155.91912613399288,108.16150363659331L156.6323023388382,154.53792732665858L157.3454785436835,131.0016010490676L158.0586547485288,114.81932908349665L158.77183095337412,123.07078903457565L159.48500715821942,150.62211504558L160.19818336306474,121.2740453709059L160.91135956791007,170.0633731937644L161.62453577275537,162.68153873905882L162.3377119776007,162.31288356578875L163.050888182446,151.63336268483505L163.7640643872913,145.52211222166295L164.4772405921366,102.8208102107247L165.1904167969819,97.3503986216917L165.90359300182723,59.72350150676647L166.61676920667253,149.72302111275116L167.32994541151783,140.71653350999742L168.04312161636315,130.55748259978384L168.75629782120845,163.44467123252826L169.46947402605377,153.51837107272507L170.18265023089907,163.02619415795843L170.8958264357444,145.4796794038981L171.60900264058972,114.96384613386645L172.32217884543502,142.78697932065666L173.03535505028034,109.01070416080938L173.74853125512564,139.27434372393378L174.46170745997094,136.31220094626505L175.17488366481626,164.5558426891495L175.88805986966156,147.0862451380348L176.60123607450686,140.73891353669097L177.31441227935218,152.83644900196634L178.02758848419748,135.3357223096404L178.7407646890428,148.0815144858864L179.4539408938881,159.36295848575136L180.1671170987334,106.56272678520823L180.88029330357872,164.67843808575384L181.59346950842405,162.60043450541724L182.30664571326938,115.56351437041667L183.01982191811467,153.97963023779576L183.73299812295997,143.5422909907245L184.4461743278053,151.89746710481805L185.1593505326506,151.4242729884005L185.8725267374959,90.41891351256976L186.58570294234121,151.05679148243968L187.2988791471865,166.88364868794795L188.01205535203184,152.93995697849323L188.72523155687713,163.78162013748872L189.43840776172243,139.44352611142025L190.15158396656776,150.27207812297243L190.86476017141305,160.46886811390186L191.5779363762584,136.25105717268758L192.2911125811037,136.6470458653687L193.004288785949,153.49290643325364L193.71746499079433,156.46074590502317L194.43064119563962,133.16986022951724L195.14381740048492,139.61618470897884L195.85699360533025,103.86384658776034L196.57016981017554,112.56096897039826L197.28334601502087,143.16706836257208L197.99652221986616,127.2149686337245L198.70969842471146,152.28298052585336L199.4228746295568,149.39653002036997L200.13605083440208,138.15667376476318L200.8492270392474,154.30582842874134L201.56240324409274,131.94270985069585L202.27557944893803,153.9231137009778L202.98875565378336,160.53977346540233L203.70193185862865,149.63513959546614L204.41510806347395,144.6693113689795L205.12828426831928,169.07740634250916L205.84146047316457,154.97140754500856L206.5546366780099,141.40681034392406L207.2678128828552,138.72104227690798L207.9809890877005,106.06647010429309L208.69416529254582,173.18294307036044L209.40734149739112,145.55749334315513L210.12051770223644,148.19468744211062L210.83369390708174,87.94276598567254L211.54687011192703,154.64790928964288L212.2600463167724,116.87079584934223L212.97322252161769,110.45276314543666L213.686398726463,140.30380663934127L214.3995749313083,90.36703296075802L215.1127511361536,143.8356257219301L215.82592734099893,153.44951633737872L216.53910354584423,152.99979364662616L217.25227975068952,119.72361629478068L217.96545595553485,83.64471861917778L218.67863216038015,145.9473113661243L219.39180836522547,127.10720348612276L220.10498457007077,111.58941849536737L220.81816077491607,141.2747806983357L221.5313369797614,141.06715887104176L222.24451318460672,153.11177081209763L222.95768938945204,121.00872862913101L223.67086559429734,123.11635165232279L224.38404179914264,143.8869616764022L225.09721800398796,55.0200152440472L225.81039420883326,128.1755779421651L226.52357041367856,142.04356928483864L227.23674661852388,155.49493058160323" style="fill: none;" fill="none"></path></g></g></g></g><g opacity="0.2"><g><g><g><path stroke="rgb(255, 112, 67)" stroke-width="2px" d="M14.710237574621523,77.35018203561253L15.423413779466834,84.2285652706102L16.136589984312145,97.51978479694478L16.849766189157453,125.10572094634074L17.562942394002764,138.05018534881714L18.276118598848072,134.7862279866719L18.989294803693383,97.43060083937392L19.702471008538694,141.0318051868161L20.415647213384002,115.39596119188718L21.128823418229313,127.9241711191705L21.84199962307462,128.32587496741394L22.555175827919932,142.74473152298305L23.268352032765243,112.04308101048674L23.981528237610554,108.63914828837095L24.694704442455862,129.39297491230764L25.407880647301173,115.70261069322329L26.121056852146484,106.29045983161701L26.834233056991792,127.05809022692054L27.547409261837103,149.62975811673158L28.26058546668241,121.71476679851423L28.973761671527722,109.10300305574611L29.68693787637303,117.54219433526112L30.40011408121834,95.89875303406542L31.11329028606365,105.55420646439028L31.826466490908963,115.02734356824034L32.539642695754274,98.90573984804945L33.252818900599586,132.4139587400121L33.96599510544489,137.99061447624433L34.6791713102902,111.06543138424587L35.392347515135505,132.53005038963056L36.10552371998082,116.69091476274389L36.818699924826134,103.18041739273323L37.53187612967144,100.57559403042825L38.24505233451676,110.30248445839037L38.95822853936206,136.54407011313572L39.67140474420737,87.11648345817702L40.384580949052676,64.8825300837353L41.097757153897994,126.6449328521514L41.8109333587433,129.6785871109326L42.52410956358861,128.45139893299475L43.237285768433914,140.89974231781065L43.95046197327923,160.65182408311875L44.66363817812454,118.628649852113L45.37681438296985,91.41870587239868L46.089990587815166,90.62470960080888L46.80316679266047,116.39244933622118L47.51634299750578,126.26337321357948L48.229519202351085,71.34025082877119L48.9426954071964,118.65262234949238L49.65587161204171,121.23121697937052L50.36904781688702,153.79604236934313L51.08222402173233,156.50059184302296L51.79540022657764,151.88875078481593L52.50857643142295,166.3891086087086L53.221752636268256,140.96981617344008L53.934928841113575,119.37163536511795L54.64810504595888,90.70890059378394L55.36128125080419,124.64449845318762L56.074457455649494,117.86362426526469L56.78763366049481,153.70648498398086L57.500809865340116,120.38765665546477L58.21398607018543,106.08219680209632L58.92716227503074,163.28173500341106L59.64033847987605,95.26879340685286L60.353514684721354,106.28324196857164L61.066690889566665,159.05823534583413L61.77986709441198,139.2058843014546L62.49304329925729,116.45549334839251L63.2062195041026,119.31426849992948L63.9193957089479,147.57091752208296L64.63257191379321,142.29731802396307L65.34574811863853,154.08273306921186L66.05892432348384,141.807782914624L66.77210052832915,105.08553630647398L67.48527673317446,138.5362159819598L68.19845293801977,139.42600823327348L68.91162914286507,14.023806226293061L69.62480534771038,93.35316628728917L70.33798155255569,106.40882860734821L71.05115775740101,121.31421195885977L71.76433396224633,140.25366523375436L72.47751016709162,113.249440796366L73.19068637193693,131.7908252683714L73.90386257678225,164.33186879193508L74.61703878162756,146.0393830827533L75.33021498647285,88.17470992310393L76.04339119131818,156.6124243267127L76.75656739616349,137.85111438800837L77.4697436010088,139.0359407083767L78.18291980585411,143.73858739309497L78.89609601069941,139.42839503747877L79.60927221554472,147.6634388273282L80.32244842039003,117.9647422438621L81.03562462523536,123.37249894027917L81.74880083008065,160.1829215121015L82.46197703492597,88.22144323607795L83.17515323977128,128.15570679538456L83.88832944461659,143.14746425619026L84.60150564946188,120.03666064535997L85.3146818543072,114.89568285224107L86.02785805915252,99.72706163299195L86.74103426399783,136.6930651905298L87.45421046884314,150.83949703241575L88.16738667368844,120.69576853136867L88.88056287853375,98.43649518583867L89.59373908337906,131.5613525848512L90.30691528822437,126.64631166245819L91.02009149306969,152.16549994900674L91.733267697915,132.32154189009313L92.44644390276031,98.49348601185257L93.15962010760562,127.83618839785177L93.87279631245092,128.05997871162276L94.58597251729623,158.71862496629296L95.29914872214154,107.75253147897595L96.01232492698685,143.18341777949303L96.72550113183217,97.39631860129151L97.43867733667747,120.90768227454257L98.15185354152278,124.4416044274373L98.8650297463681,151.24676312678318L99.5782059512134,112.37094538858864L100.2913821560587,125.29472241369693L101.00455836090401,135.9787735556517L101.71773456574934,111.5459154395635L102.43091077059465,48.59979357723756L103.14408697543996,154.35085944621892L103.85726318028526,141.11175529354452L104.57043938513057,143.20988675917027L105.28361558997588,119.62271985564378L105.99679179482119,112.8106657528287L106.7099679996665,116.038115978442L107.42314420451181,122.1338990179461L108.13632040935713,120.8296332547523L108.84949661420244,123.2441076759922L109.56267281904773,103.66051496334366L110.27584902389304,154.39690074265638L110.98902522873836,120.73740964718692L111.70220143358368,115.04266716460441L112.41537763842899,120.381331885459L113.12855384327429,157.34785510824506L113.8417300481196,120.77194257805237L114.55490625296491,151.6695617281672L115.26808245781022,159.57457108051142L115.98125866265552,126.43565660596586L116.69443486750085,94.83581563392364L117.40761107234616,19.018149632391612L118.12078727719147,142.64658529841807L118.83396348203676,155.59523835947797L119.54713968688208,147.56173067613736L120.26031589172739,151.91559580366777L120.9734920965727,83.55218569640245L121.68666830141801,80.94977525213433L122.39984450626332,104.61784802862466L123.11302071110863,114.0998899490394L123.82619691595394,139.853961705009L124.53937312079925,150.7006654582679L125.25254932564455,124.16907525842788L125.96572553048986,159.84800378809308L126.67890173533517,128.21804573410355L127.3920779401805,127.98309959148673L128.1052541450258,26.816815628441674L128.8184303498711,51.52151350838591L129.53160655471643,157.88406346874552L130.24478275956173,162.12166459536914L130.95795896440703,133.11736090712637L131.67113516925235,117.53097061045321L132.38431137409768,146.16835929686738L133.09748757894297,129.66195260022383L133.81066378378827,103.65908392537374L134.5238399886336,128.7148300430859L135.2370161934789,142.2281529296722L135.9501923983242,155.57567126548412L136.66336860316952,157.45958313660853L137.3765448080148,106.78185946853004L138.08972101286014,158.9437627537729L138.80289721770544,125.17210230618647L139.51607342255073,129.92030195869185L140.2292496273961,150.9742235122411L140.94242583224138,157.2932380295207L141.6556020370867,65.76553273884127L142.368778241932,125.09860231585532L143.0819544467773,146.95749317301923L143.79513065162263,154.39646464166918L144.50830685646793,131.97726235746762L145.22148306131322,126.08078008049006L145.93465926615855,154.87256418466657L146.64783547100384,149.76747201888833L147.36101167584917,119.37079972250778L148.07418788069447,137.2773465035637L148.78736408553976,161.17345831422114L149.5005402903851,119.15690655090103L150.21371649523041,151.78008068612905L150.92689270007574,108.16503600795589L151.64006890492104,131.07894132876385L152.35324510976633,130.36041403040545L153.06642131461166,146.49450016208579L153.77959751945696,164.6731870160608L154.49277372430228,152.64286601283516L155.20594992914758,144.582518533409L155.91912613399288,107.75541444598106L156.6323023388382,155.053741948085L157.3454785436835,130.73982188925618L158.0586547485288,114.63934425880376L158.77183095337412,123.16256462553812L159.48500715821942,150.92855042082877L160.19818336306474,120.94762599130891L160.91135956791007,170.60602496934723L161.62453577275537,162.59943542358687L162.3377119776007,162.30878325546928L163.050888182446,151.51458136057772L163.7640643872913,145.45414078071767L164.4772405921366,102.34587156348474L165.1904167969819,97.28955481230912L165.90359300182723,59.30500214552869L166.61676920667253,150.72402689198861L167.32994541151783,140.61636024040158L168.04312161636315,130.44449012252161L168.75629782120845,163.81045391701784L169.46947402605377,153.407967329795L170.18265023089907,163.13194345415417L170.8958264357444,145.28452099915123L171.60900264058972,114.62443848374477L172.32217884543502,143.0964378293065L173.03535505028034,108.63503274851584L173.74853125512564,139.61094638843767L174.46170745997094,136.27925496997148L175.17488366481626,164.8699782393737L175.88805986966156,146.89194223301735L176.60123607450686,140.66831631968918L177.31441227935218,152.97100197478537L178.02758848419748,135.1410731755498L178.7407646890428,148.22327759401452L179.4539408938881,159.48843460708454L180.1671170987334,105.9754643497118L180.88029330357872,165.32482112347475L181.59346950842405,162.57732223101513L182.30664571326938,115.04035347912749L183.01982191811467,154.4069075629132L183.73299812295997,143.42620329434655L184.4461743278053,151.99039626281103L185.1593505326506,151.41900995980535L185.8725267374959,89.74039080859187L186.58570294234121,151.73122693003177L187.2988791471865,167.05968046677563L188.01205535203184,152.7848704175185L188.72523155687713,163.90220486423183L189.43840776172243,139.1728294134559L190.15158396656776,150.3925170229998L190.86476017141305,160.58228033827015L191.5779363762584,135.9816983047873L192.2911125811037,136.65145018854312L193.004288785949,153.68027191985294L193.71746499079433,156.49375524191848L194.43064119563962,132.91081094495652L195.14381740048492,139.68788295900316L195.85699360533025,103.46619671988024L196.57016981017554,112.65770137303629L197.28334601502087,143.5074799837186L197.99652221986616,127.03754386424288L198.70969842471146,152.56179562273246L199.4228746295568,149.36442591970228L200.13605083440208,138.03166019670286L200.8492270392474,154.48544491135382L201.56240324409274,131.6939795126185L202.27557944893803,154.16758735350874L202.98875565378336,160.61336624336863L203.70193185862865,149.5138544867004L204.41510806347395,144.614079710242L205.12828426831928,169.34888161521778L205.84146047316457,154.81451574847418L206.5546366780099,141.2559402031638L207.2678128828552,138.69117023571772L207.9809890877005,105.70327466051276L208.69416529254582,173.92943569182327L209.40734149739112,145.2502335383025L210.12051770223644,148.22401922683105L210.83369390708174,87.27262327988808L211.54687011192703,155.3898269603645L212.2600463167724,116.45062573018824L212.97322252161769,110.38137956632346L213.686398726463,140.63582026768603L214.3995749313083,89.8116188955766L215.1127511361536,144.4303219002647L215.82592734099893,153.55644535332405L216.53910354584423,152.99479167534378L217.25227975068952,119.35350714324349L217.96545595553485,83.24343664300828L218.67863216038015,146.64026234713177L219.39180836522547,126.89765729129968L220.10498457007077,111.41682432459051L220.81816077491607,141.6049515620694L221.5313369797614,141.06484962928215L222.24451318460672,153.24573515117913L222.95768938945204,120.65166749261672L223.67086559429734,123.13979336441088L224.38404179914264,144.11797958364676L225.09721800398796,54.03160633529501L225.81039420883326,128.98923940796823L226.52357041367856,142.19781388015656L227.23674661852388,155.64454127347827" style="fill: none;" fill="none"></path></g></g></g></g></g></g><g transform="translate(64, 177)" clip-path="url(#clip_1)"><clipPath id="clip_1"><rect width="266" height="23"></rect></clipPath><g><g><line x1="14.47251217300642" y1="0" x2="14.47251217300642" y2="5" style="visibility: inherit;" fill="rgb(0, 0, 0)" stroke="rgb(204, 204, 204)" stroke-width="1px"></line><line x1="38.24505233451676" y1="0" x2="38.24505233451676" y2="5" style="visibility: inherit;" fill="rgb(0, 0, 0)" stroke="rgb(204, 204, 204)" stroke-width="1px"></line><line x1="62.01759249602708" y1="0" x2="62.01759249602708" y2="5" style="visibility: inherit;" fill="rgb(0, 0, 0)" stroke="rgb(204, 204, 204)" stroke-width="1px"></line><line x1="85.79013265753741" y1="0" x2="85.79013265753741" y2="5" style="visibility: inherit;" fill="rgb(0, 0, 0)" stroke="rgb(204, 204, 204)" stroke-width="1px"></line><line x1="109.56267281904773" y1="0" x2="109.56267281904773" y2="5" style="visibility: inherit;" fill="rgb(0, 0, 0)" stroke="rgb(204, 204, 204)" stroke-width="1px"></line><line x1="133.33521298055808" y1="0" x2="133.33521298055808" y2="5" style="visibility: inherit;" fill="rgb(0, 0, 0)" stroke="rgb(204, 204, 204)" stroke-width="1px"></line><line x1="157.10775314206842" y1="0" x2="157.10775314206842" y2="5" style="visibility: inherit;" fill="rgb(0, 0, 0)" stroke="rgb(204, 204, 204)" stroke-width="1px"></line><line x1="180.88029330357872" y1="0" x2="180.88029330357872" y2="5" style="visibility: inherit;" fill="rgb(0, 0, 0)" stroke="rgb(204, 204, 204)" stroke-width="1px"></line><line x1="204.65283346508906" y1="0" x2="204.65283346508906" y2="5" style="visibility: inherit;" fill="rgb(0, 0, 0)" stroke="rgb(204, 204, 204)" stroke-width="1px"></line><line x1="228.42537362659937" y1="0" x2="228.42537362659937" y2="5" style="visibility: inherit;" fill="rgb(0, 0, 0)" stroke="rgb(204, 204, 204)" stroke-width="1px"></line><line x1="252.1979137881097" y1="0" x2="252.1979137881097" y2="5" style="visibility: inherit;" fill="rgb(0, 0, 0)" stroke="rgb(204, 204, 204)" stroke-width="1px"></line></g><g transform="translate(0, 8)"><text x="14.47251217300642" y="0" dx="0em" dy="0.95em" style="text-anchor: middle; visibility: inherit; font-family: &quot;Helvetica Neue&quot;, sans-serif; font-size: 12px; font-weight: 200;" fill="rgb(50, 49, 63)" stroke="none" stroke-width="1px">0</text><text x="38.24505233451676" y="0" dx="0em" dy="0.95em" style="text-anchor: middle; visibility: hidden; font-family: &quot;Helvetica Neue&quot;, sans-serif; font-size: 12px; font-weight: 200;" fill="rgb(50, 49, 63)" stroke="none" stroke-width="1px">10k</text><text x="62.01759249602708" y="0" dx="0em" dy="0.95em" style="text-anchor: middle; visibility: inherit; font-family: &quot;Helvetica Neue&quot;, sans-serif; font-size: 12px; font-weight: 200;" fill="rgb(50, 49, 63)" stroke="none" stroke-width="1px">20k</text><text x="85.79013265753741" y="0" dx="0em" dy="0.95em" style="text-anchor: middle; visibility: hidden; font-family: &quot;Helvetica Neue&quot;, sans-serif; font-size: 12px; font-weight: 200;" fill="rgb(50, 49, 63)" stroke="none" stroke-width="1px">30k</text><text x="109.56267281904773" y="0" dx="0em" dy="0.95em" style="text-anchor: middle; visibility: inherit; font-family: &quot;Helvetica Neue&quot;, sans-serif; font-size: 12px; font-weight: 200;" fill="rgb(50, 49, 63)" stroke="none" stroke-width="1px">40k</text><text x="133.33521298055808" y="0" dx="0em" dy="0.95em" style="text-anchor: middle; visibility: hidden; font-family: &quot;Helvetica Neue&quot;, sans-serif; font-size: 12px; font-weight: 200;" fill="rgb(50, 49, 63)" stroke="none" stroke-width="1px">50k</text><text x="157.10775314206842" y="0" dx="0em" dy="0.95em" style="text-anchor: middle; visibility: inherit; font-family: &quot;Helvetica Neue&quot;, sans-serif; font-size: 12px; font-weight: 200;" fill="rgb(50, 49, 63)" stroke="none" stroke-width="1px">60k</text><text x="180.88029330357872" y="0" dx="0em" dy="0.95em" style="text-anchor: middle; visibility: hidden; font-family: &quot;Helvetica Neue&quot;, sans-serif; font-size: 12px; font-weight: 200;" fill="rgb(50, 49, 63)" stroke="none" stroke-width="1px">70k</text><text x="204.65283346508906" y="0" dx="0em" dy="0.95em" style="text-anchor: middle; visibility: inherit; font-family: &quot;Helvetica Neue&quot;, sans-serif; font-size: 12px; font-weight: 200;" fill="rgb(50, 49, 63)" stroke="none" stroke-width="1px">80k</text><text x="228.42537362659937" y="0" dx="0em" dy="0.95em" style="text-anchor: middle; visibility: hidden; font-family: &quot;Helvetica Neue&quot;, sans-serif; font-size: 12px; font-weight: 200;" fill="rgb(50, 49, 63)" stroke="none" stroke-width="1px">90k</text><text x="252.1979137881097" y="0" dx="0em" dy="0.95em" style="text-anchor: middle; visibility: inherit; font-family: &quot;Helvetica Neue&quot;, sans-serif; font-size: 12px; font-weight: 200;" fill="rgb(50, 49, 63)" stroke="none" stroke-width="1px">100k</text></g><line x1="0" y1="0" x2="266" y2="0" fill="rgb(0, 0, 0)" stroke="rgb(204, 204, 204)" stroke-width="1px"></line></g></g></g></g></svg>