<svg viewBox="0 0 330 200" xmlns="http://www.w3.org/2000/svg"><g><g><g><g><g><line x1="64" y1="162.0489741338166" x2="59" y2="162.0489741338166" style="visibility: inherit;" fill="rgb(0, 0, 0)" stroke="rgb(204, 204, 204)" stroke-width="1px"></line><line x1="64" y1="144.9350134774458" x2="59" y2="144.9350134774458" style="visibility: inherit;" fill="rgb(0, 0, 0)" stroke="rgb(204, 204, 204)" stroke-width="1px"></line><line x1="64" y1="127.82105282107497" x2="59" y2="127.82105282107497" style="visibility: inherit;" fill="rgb(0, 0, 0)" stroke="rgb(204, 204, 204)" stroke-width="1px"></line><line x1="64" y1="110.70709216470416" x2="59" y2="110.70709216470416" style="visibility: inherit;" fill="rgb(0, 0, 0)" stroke="rgb(204, 204, 204)" stroke-width="1px"></line><line x1="64" y1="93.59313150833336" x2="59" y2="93.59313150833336" style="visibility: inherit;" fill="rgb(0, 0, 0)" stroke="rgb(204, 204, 204)" stroke-width="1px"></line><line x1="64" y1="76.47917085196256" x2="59" y2="76.47917085196256" style="visibility: inherit;" fill="rgb(0, 0, 0)" stroke="rgb(204, 204, 204)" stroke-width="1px"></line><line x1="64" y1="59.36521019559174" x2="59" y2="59.36521019559174" style="visibility: inherit;" fill="rgb(0, 0, 0)" stroke="rgb(204, 204, 204)" stroke-width="1px"></line><line x1="64" y1="42.251249539220936" x2="59" y2="42.251249539220936" style="visibility: inherit;" fill="rgb(0, 0, 0)" stroke="rgb(204, 204, 204)" stroke-width="1px"></line><line x1="64" y1="25.13728888285013" x2="59" y2="25.13728888285013" style="visibility: inherit;" fill="rgb(0, 0, 0)" stroke="rgb(204, 204, 204)" stroke-width="1px"></line><line x1="64" y1="8.023328226479322" x2="59" y2="8.023328226479322" style="visibility: inherit;" fill="rgb(0, 0, 0)" stroke="rgb(204, 204, 204)" stroke-width="1px"></line></g><g transform="translate(54, 0)"><text x="0" y="162.0489741338166" dx="0em" dy="0.3em" style="text-anchor: end; visibility: inherit; font-family: &quot;Helvetica Neue&quot;, sans-serif; font-size: 12px; font-weight: 200;" fill="rgb(50, 49, 63)" stroke="none" stroke-width="1px">200</text><text x="0" y="144.9350134774458" dx="0em" dy="0.3em" style="text-anchor: end; visibility: hidden; font-family: &quot;Helvetica Neue&quot;, sans-serif; font-size: 12px; font-weight: 200;" fill="rgb(50, 49, 63)" stroke="none" stroke-width="1px">300</text><text x="0" y="127.82105282107497" dx="0em" dy="0.3em" style="text-anchor: end; visibility: inherit; font-family: &quot;Helvetica Neue&quot;, sans-serif; font-size: 12px; font-weight: 200;" fill="rgb(50, 49, 63)" stroke="none" stroke-width="1px">400</text><text x="0" y="110.70709216470416" dx="0em" dy="0.3em" style="text-anchor: end; visibility: hidden; font-family: &quot;Helvetica Neue&quot;, sans-serif; font-size: 12px; font-weight: 200;" fill="rgb(50, 49, 63)" stroke="none" stroke-width="1px">500</text><text x="0" y="93.59313150833336" dx="0em" dy="0.3em" style="text-anchor: end; visibility: inherit; font-family: &quot;Helvetica Neue&quot;, sans-serif; font-size: 12px; font-weight: 200;" fill="rgb(50, 49, 63)" stroke="none" stroke-width="1px">600</text><text x="0" y="76.47917085196256" dx="0em" dy="0.3em" style="text-anchor: end; visibility: hidden; font-family: &quot;Helvetica Neue&quot;, sans-serif; font-size: 12px; font-weight: 200;" fill="rgb(50, 49, 63)" stroke="none" stroke-width="1px">700</text><text x="0" y="59.36521019559174" dx="0em" dy="0.3em" style="text-anchor: end; visibility: inherit; font-family: &quot;Helvetica Neue&quot;, sans-serif; font-size: 12px; font-weight: 200;" fill="rgb(50, 49, 63)" stroke="none" stroke-width="1px">800</text><text x="0" y="42.251249539220936" dx="0em" dy="0.3em" style="text-anchor: end; visibility: hidden; font-family: &quot;Helvetica Neue&quot;, sans-serif; font-size: 12px; font-weight: 200;" fill="rgb(50, 49, 63)" stroke="none" stroke-width="1px">900</text><text x="0" y="25.13728888285013" dx="0em" dy="0.3em" style="text-anchor: end; visibility: inherit; font-family: &quot;Helvetica Neue&quot;, sans-serif; font-size: 12px; font-weight: 200;" fill="rgb(50, 49, 63)" stroke="none" stroke-width="1px">1e+3</text><text x="0" y="8.023328226479322" dx="0em" dy="0.3em" style="text-anchor: end; visibility: hidden; font-family: &quot;Helvetica Neue&quot;, sans-serif; font-size: 12px; font-weight: 200;" fill="rgb(50, 49, 63)" stroke="none" stroke-width="1px">1.1e+3</text></g><line x1="64" y1="0" x2="64" y2="177" fill="rgb(0, 0, 0)" stroke="rgb(204, 204, 204)" stroke-width="1px"></line></g></g><g transform="translate(64, 0)" clip-path="url(#clip_0)"><clipPath id="clip_0"><rect width="266" height="177"></rect></clipPath><g><g><g><line x1="14.47251217300642" y1="0" x2="14.47251217300642" y2="177" fill="rgb(0, 0, 0)" stroke="rgb(60, 60, 60)" stroke-width="1px" opacity="0.25"></line><line x1="38.24505233451676" y1="0" x2="38.24505233451676" y2="177" fill="rgb(0, 0, 0)" stroke="rgb(60, 60, 60)" stroke-width="1px" opacity="0.25"></line><line x1="62.01759249602708" y1="0" x2="62.01759249602708" y2="177" fill="rgb(0, 0, 0)" stroke="rgb(60, 60, 60)" stroke-width="1px" opacity="0.25"></line><line x1="85.79013265753741" y1="0" x2="85.79013265753741" y2="177" fill="rgb(0, 0, 0)" stroke="rgb(60, 60, 60)" stroke-width="1px" opacity="0.25"></line><line x1="109.56267281904773" y1="0" x2="109.56267281904773" y2="177" fill="rgb(0, 0, 0)" stroke="rgb(60, 60, 60)" stroke-width="1px" opacity="0.25"></line><line x1="133.33521298055808" y1="0" x2="133.33521298055808" y2="177" fill="rgb(0, 0, 0)" stroke="rgb(60, 60, 60)" stroke-width="1px" opacity="0.25"></line><line x1="157.10775314206842" y1="0" x2="157.10775314206842" y2="177" fill="rgb(0, 0, 0)" stroke="rgb(60, 60, 60)" stroke-width="1px" opacity="0.25"></line><line x1="180.88029330357872" y1="0" x2="180.88029330357872" y2="177" fill="rgb(0, 0, 0)" stroke="rgb(60, 60, 60)" stroke-width="1px" opacity="0.25"></line><line x1="204.65283346508906" y1="0" x2="204.65283346508906" y2="177" fill="rgb(0, 0, 0)" stroke="rgb(60, 60, 60)" stroke-width="1px" opacity="0.25"></line><line x1="228.42537362659937" y1="0" x2="228.42537362659937" y2="177" fill="rgb(0, 0, 0)" stroke="rgb(60, 60, 60)" stroke-width="1px" opacity="0.25"></line><line x1="252.1979137881097" y1="0" x2="252.1979137881097" y2="177" fill="rgb(0, 0, 0)" stroke="rgb(60, 60, 60)" stroke-width="1px" opacity="0.25"></line></g><g><line x1="0" y1="162.0489741338166" x2="266" y2="162.0489741338166" fill="rgb(0, 0, 0)" stroke="rgb(60, 60, 60)" stroke-width="1px" opacity="0.25"></line><line x1="0" y1="144.9350134774458" x2="266" y2="144.9350134774458" fill="rgb(0, 0, 0)" stroke="rgb(60, 60, 60)" stroke-width="1px" opacity="0.25"></line><line x1="0" y1="127.82105282107497" x2="266" y2="127.82105282107497" fill="rgb(0, 0, 0)" stroke="rgb(60, 60, 60)" stroke-width="1px" opacity="0.25"></line><line x1="0" y1="110.70709216470416" x2="266" y2="110.70709216470416" fill="rgb(0, 0, 0)" stroke="rgb(60, 60, 60)" stroke-width="1px" opacity="0.25"></line><line x1="0" y1="93.59313150833336" x2="266" y2="93.59313150833336" fill="rgb(0, 0, 0)" stroke="rgb(60, 60, 60)" stroke-width="1px" opacity="0.25"></line><line x1="0" y1="76.47917085196256" x2="266" y2="76.47917085196256" fill="rgb(0, 0, 0)" stroke="rgb(60, 60, 60)" stroke-width="1px" opacity="0.25"></line><line x1="0" y1="59.36521019559174" x2="266" y2="59.36521019559174" fill="rgb(0, 0, 0)" stroke="rgb(60, 60, 60)" stroke-width="1px" opacity="0.25"></line><line x1="0" y1="42.251249539220936" x2="266" y2="42.251249539220936" fill="rgb(0, 0, 0)" stroke="rgb(60, 60, 60)" stroke-width="1px" opacity="0.25"></line><line x1="0" y1="25.13728888285013" x2="266" y2="25.13728888285013" fill="rgb(0, 0, 0)" stroke="rgb(60, 60, 60)" stroke-width="1px" opacity="0.25"></line><line x1="0" y1="8.023328226479322" x2="266" y2="8.023328226479322" fill="rgb(0, 0, 0)" stroke="rgb(60, 60, 60)" stroke-width="1px" opacity="0.25"></line></g></g></g><g><g><line x1="0" y1="196.27689544655823" x2="266" y2="196.27689544655823" fill="rgb(0, 0, 0)" stroke="rgb(153, 153, 153)" stroke-width="1.5px"></line></g></g><g><g><line x1="14.47251217300642" y1="0" x2="14.47251217300642" y2="177" fill="rgb(0, 0, 0)" stroke="rgb(153, 153, 153)" stroke-width="1.5px"></line></g></g><g><g><g><g><g><path stroke="rgb(255, 112, 67)" stroke-width="2px" d="M14.710237574621523,77.35018203561253L15.423413779466834,80.8066560230486L16.136589984312145,86.43378264299295L16.849766189157453,96.2480015338584L17.562942394002764,104.77732746250466L18.276118598848072,109.90531398622285L18.989294803693383,108.06903268315973L19.702471008538694,112.3357652084621L20.415647213384002,112.68961564619492L21.128823418229313,114.28288965568409L21.84199962307462,115.62463923307436L22.555175827919932,118.0116534185575L23.268352032765243,117.52433938685884L23.981528237610554,116.84739404241435L24.694704442455862,117.74388063421733L25.407880647301173,117.60646045707041L26.121056852146484,116.88595678268237L26.834233056991792,117.50063831350766L27.547409261837103,119.34893063634104L28.26058546668241,119.47885519969094L28.973761671527722,118.93353876018155L29.68693787637303,118.86339969883701L30.40011408121834,117.75069446563563L31.11329028606365,117.18162101474351L31.826466490908963,117.0846595138235L32.539642695754274,116.29412340523805L33.252818900599586,116.97240411901836L33.96599510544489,117.8293084437655L34.6791713102902,117.56177954731567L35.392347515135505,118.13681959009843L36.10552371998082,118.08280677620952L36.818699924826134,117.54094045420018L37.53187612967144,116.93990674765246L38.24505233451676,116.71059265903048L38.95822853936206,117.37939465853196L39.67140474420737,116.38254917646165L40.384580949052676,114.72420535104257L41.097757153897994,115.09972590713626L41.8109333587433,115.54931478216649L42.52410956358861,115.93907258938805L43.237285768433914,116.6781706758845L43.95046197327923,117.95520947101514L44.66363817812454,117.97440141816385L45.37681438296985,117.23135279933149L46.089990587815166,116.5000283969413L46.80316679266047,116.49712224004453L47.51634299750578,116.75653551363605L48.229519202351085,115.56983275147867L48.9426954071964,115.64910573324602L49.65587161204171,115.7904271759748L50.36904781688702,116.73809416029935L51.08222402173233,117.71497916968472L51.79540022657764,118.54250496666643L52.50857643142295,119.6848823990134L53.221752636268256,120.18612275842564L53.934928841113575,120.16719874195545L54.64810504595888,119.4916965918902L55.36128125080419,119.60834605689517L56.074457455649494,119.56934186852845L56.78763366049481,120.32318185628223L57.500809865340116,120.32458863567783L58.21398607018543,120.01746299521584L58.92716227503074,120.9397563917472L59.64033847987605,120.39863554609838L60.353514684721354,120.10435607818252L61.066690889566665,120.90775598086594L61.77986709441198,121.2811763085511L62.49304329925729,121.18371023253202L63.2062195041026,121.14633358043352L63.9193957089479,121.66942554785795L64.63257191379321,122.07380702471372L65.34574811863853,122.69532915457665L66.05892432348384,123.06297635402433L66.77210052832915,122.72032699087728L67.48527673317446,123.01907066138935L68.19845293801977,123.32624810060435L68.91162914286507,121.29753803329672L69.62480534771038,120.78327831608635L70.33798155255569,120.52094994420548L71.05115775740101,120.53530823100444L71.76433396224633,120.88934872914865L72.47751016709162,120.75325777587858L73.19068637193693,120.94834753632617L73.90386257678225,121.70931377421195L74.61703878162756,122.13288012115699L75.33021498647285,121.54604448134255L76.04339119131818,122.14765086314864L76.75656739616349,122.41514860146339L77.4697436010088,122.69629473311085L78.18291980585411,123.04978747409783L78.89609601069941,123.32307611327656L79.60927221554472,123.72651498844377L80.32244842039003,123.6316380350718L81.03562462523536,123.62739830541717L81.74880083008065,124.22169663375368L82.46197703492597,123.6400650677542L83.17515323977128,123.71257482134394L83.88832944461659,124.02277085372559L84.60150564946188,123.95952640425631L85.3146818543072,123.81655627908904L86.02785805915252,123.43875769871201L86.74103426399783,123.64545200367688L87.45421046884314,124.06717024985171L88.16738667368844,124.01517380337864L88.88056287853375,123.62280674627011L89.59373908337906,123.74393420144816L90.30691528822437,123.78798744903403L91.02009149306969,124.21649180660907L91.733267697915,124.33825815694382L92.44644390276031,123.9519195848278L93.15962010760562,124.00969736707461L93.87279631245092,124.06965228593896L94.58597251729623,124.58009759429208L95.29914872214154,124.33336304470336L96.01232492698685,124.6084696864881L96.72550113183217,124.21313898017723L97.43867733667747,124.16533465198467L98.15185354152278,124.16931238383587L98.8650297463681,124.5574663820471L99.5782059512134,124.38352718819144L100.2913821560587,124.39647741354513L101.00455836090401,124.5603985654835L101.71773456574934,124.37696978354622L102.43091077059465,123.31330565112833L103.14408697543996,123.74721996803792L103.85726318028526,123.98901895073773L104.57043938513057,124.25562075237009L105.28361558997588,124.19160815724608L105.99679179482119,124.03495609320007L106.7099679996665,123.92529703493246L107.42314420451181,123.90082282246031L108.13632040935713,123.85901709863327L108.84949661420244,123.85067693966666L109.56267281904773,123.57780539947612L110.27584902389304,123.99286878568907L110.98902522873836,123.94917663986865L111.70220143358368,123.83004821743887L112.41537763842899,123.78407532099453L113.12855384327429,124.23001002174519L113.8417300481196,124.18421597414977L114.55490625296491,124.54701890019763L115.26808245781022,125.00790318409454L115.98125866265552,125.02663009226995L116.69443486750085,124.63186713569101L117.40761107234616,123.25513887318398L118.12078727719147,123.50715120705063L118.83396348203676,123.92292412234417L119.54713968688208,124.22831460390938L120.26031589172739,124.5849663784192L120.9734920965727,124.05792412195453L121.68666830141801,123.50579545112464L122.39984450626332,123.26455623648467L123.11302071110863,123.14782756473696L123.82619691595394,123.36002976934078L124.53937312079925,123.70637613206583L125.25254932564455,123.71222192763938L125.96572553048986,124.16756624541674L126.67890173533517,124.21847363188247L127.3920779401805,124.26566713931177L128.1052541450258,123.04713453760412L128.8184303498711,122.1549887930394L129.53160655471643,122.59954145484531L130.24478275956173,123.09009036952341L130.95795896440703,123.21424946045742L131.67113516925235,123.144045528618L132.38431137409768,123.42779077474061L133.09748757894297,123.50444073984093L133.81066378378827,123.26099780656605L134.5238399886336,123.32774862654975L135.2370161934789,123.55855857169658L135.9501923983242,123.94868559196215L136.66336860316952,124.35612407672195L137.3765448080148,124.14290955355465L138.08972101286014,124.56422220078296L138.80289721770544,124.57156596465053L139.51607342255073,124.63604954365275L140.2292496273961,124.95292726335038L140.94242583224138,125.34122872172168L141.6556020370867,124.62735184006971L142.368778241932,124.63298751296199L143.0819544467773,124.89944374787041L143.79513065162263,125.25082807489727L144.50830685646793,125.3308040094281L145.22148306131322,125.33970425261586L145.93465926615855,125.68952836435801L146.64783547100384,125.97421231549151L147.36101167584917,125.89627941521141L148.07418788069447,126.03035618306504L148.78736408553976,126.4436300931865L149.5005402903851,126.35809061205433L150.21371649523041,126.65600346723336L150.92689270007574,126.43968502391309L151.64006890492104,126.49386579908337L152.35324510976633,126.53894661972996L153.06642131461166,126.77122681394475L153.77959751945696,127.21167869220426L154.49277372430228,127.50673172857682L155.20594992914758,127.70452840299905L155.91912613399288,127.47381398842987L156.6323023388382,127.79228143265678L157.3454785436835,127.82626432375598L158.0586547485288,127.67446134591358L158.77183095337412,127.62260044353238L159.48500715821942,127.89008534082296L160.19818336306474,127.8105235087518L160.91135956791007,128.30025255565806L161.62453577275537,128.69218848584475L162.3377119776007,129.0757771267178L163.050888182446,129.33145874369634L163.7640643872913,129.51491470585498L164.4772405921366,129.2061906196454L165.1904167969819,128.8440129231709L165.90359300182723,128.05597297317655L166.61676920667253,128.312513344577L167.32994541151783,128.45157605698893L168.04312161636315,128.47407142503488L168.75629782120845,128.87242410854117L169.46947402605377,129.14866550649685L170.18265023089907,129.53079626452933L170.8958264357444,129.7077214924147L171.60900264058972,129.53853400661148L172.32217884543502,129.6904266497473L173.03535505028034,129.45482121252923L173.74853125512564,129.56833106809307L174.46170745997094,129.64324751926222L175.17488366481626,130.03603919481105L175.88805986966156,130.2237730680785L176.60123607450686,130.33996776495337L177.31441227935218,130.59145328488896L178.02758848419748,130.6419543861162L178.7407646890428,130.83689386486293L179.4539408938881,131.1542332846316L180.1671170987334,130.87565737247553L180.88029330357872,131.2563951262532L181.59346950842405,131.60219526254278L182.30664571326938,131.4195335544885L183.01982191811467,131.67280227439406L183.73299812295997,131.80216643568656L184.4461743278053,132.02414536509286L185.1593505326506,132.237188799818L185.8725267374959,131.77084066186063L186.58570294234121,131.98966735764452L187.2988791471865,132.3737717237945L188.01205535203184,132.59711157841056L188.72523155687713,132.93933198394168L189.43840776172243,133.00741177361624L190.15158396656776,133.19711017967137L190.86476017141305,133.49565263577549L191.5779363762584,133.5227301237776L192.2911125811037,133.55677712372037L193.004288785949,133.77556972527464L193.71746499079433,134.0223577679644L194.43064119563962,134.01029342731175L195.14381740048492,134.07186344010154L195.85699360533025,133.7402435763703L196.57016981017554,133.51199972878143L197.28334601502087,133.6201234789633L197.99652221986616,133.5489761226934L198.70969842471146,133.7543088693093L199.4228746295568,133.92275874094344L200.13605083440208,133.96706313781579L200.8492270392474,134.1881304287196L201.56240324409274,134.16127895974796L202.27557944893803,134.37649757651195L202.98875565378336,134.65852803159777L203.70193185862865,134.81809421993745L204.41510806347395,134.92323833281424L205.12828426831928,135.29247132745624L205.84146047316457,135.50170364187323L206.5546366780099,135.56333185462375L207.2678128828552,135.59680741842982L207.9809890877005,135.2770976759378L208.69416529254582,135.6901952938227L209.40734149739112,135.79229819164436L210.12051770223644,135.92498092142787L210.83369390708174,135.4060675204687L211.54687011192703,135.61906730201486L212.2600463167724,135.41489218228753L212.97322252161769,135.14841814640351L213.686398726463,135.20679221952295L214.3995749313083,134.72419371689074L215.1127511361536,134.82731500695456L215.82592734099893,135.02617565967142L216.53910354584423,135.21684360523003L217.25227975068952,135.04861794154297L217.96545595553485,134.49957238494997L218.67863216038015,134.62816582133468L219.39180836522547,134.54633319347047L220.10498457007077,134.3016351113692L220.81816077491607,134.3788556244619L221.5313369797614,134.44950846321063L222.24451318460672,134.6480210305648L222.95768938945204,134.50028428247012L223.67086559429734,134.38043661078908L224.38404179914264,134.48310654975205L225.09721800398796,133.635309321103L225.81039420883326,133.5863754016983L226.52357041367856,133.6770256171249L227.23674661852388,133.90814980055399" style="fill: none;" fill="none"></path></g></g></g></g><g opacity="0.2"><g><g><g><path stroke="rgb(255, 112, 67)" stroke-width="2px" d="M14.710237574621523,77.35018203561253L15.423413779466834,84.2285652706102L16.136589984312145,97.51978479694478L16.849766189157453,125.10572094634074L17.562942394002764,138.05018534881714L18.276118598848072,134.7862279866719L18.989294803693383,97.43060083937392L19.702471008538694,141.0318051868161L20.415647213384002,115.39596119188718L21.128823418229313,127.9241711191705L21.84199962307462,128.32587496741394L22.555175827919932,142.74473152298305L23.268352032765243,112.04308101048674L23.981528237610554,108.63914828837095L24.694704442455862,129.39297491230764L25.407880647301173,115.70261069322329L26.121056852146484,106.29045983161701L26.834233056991792,127.05809022692054L27.547409261837103,149.62975811673158L28.26058546668241,121.71476679851423L28.973761671527722,109.10300305574611L29.68693787637303,117.54219433526112L30.40011408121834,95.89875303406542L31.11329028606365,105.55420646439028L31.826466490908963,115.02734356824034L32.539642695754274,98.90573984804945L33.252818900599586,132.4139587400121L33.96599510544489,137.99061447624433L34.6791713102902,111.06543138424587L35.392347515135505,132.53005038963056L36.10552371998082,116.69091476274389L36.818699924826134,103.18041739273323L37.53187612967144,100.57559403042825L38.24505233451676,110.30248445839037L38.95822853936206,136.54407011313572L39.67140474420737,87.11648345817702L40.384580949052676,64.8825300837353L41.097757153897994,126.6449328521514L41.8109333587433,129.6785871109326L42.52410956358861,128.45139893299475L43.237285768433914,140.89974231781065L43.95046197327923,160.65182408311875L44.66363817812454,118.628649852113L45.37681438296985,91.41870587239868L46.089990587815166,90.62470960080888L46.80316679266047,116.39244933622118L47.51634299750578,126.26337321357948L48.229519202351085,71.34025082877119L48.9426954071964,118.65262234949238L49.65587161204171,121.23121697937052L50.36904781688702,153.79604236934313L51.08222402173233,156.50059184302296L51.79540022657764,151.88875078481593L52.50857643142295,166.3891086087086L53.221752636268256,140.96981617344008L53.934928841113575,119.37163536511795L54.64810504595888,90.70890059378394L55.36128125080419,124.64449845318762L56.074457455649494,117.86362426526469L56.78763366049481,153.70648498398086L57.500809865340116,120.38765665546477L58.21398607018543,106.08219680209632L58.92716227503074,163.28173500341106L59.64033847987605,95.26879340685286L60.353514684721354,106.28324196857164L61.066690889566665,159.05823534583413L61.77986709441198,139.2058843014546L62.49304329925729,116.45549334839251L63.2062195041026,119.31426849992948L63.9193957089479,147.57091752208296L64.63257191379321,142.29731802396307L65.34574811863853,154.08273306921186L66.05892432348384,141.807782914624L66.77210052832915,105.08553630647398L67.48527673317446,138.5362159819598L68.19845293801977,139.42600823327348L68.91162914286507,14.023806226293061L69.62480534771038,93.35316628728917L70.33798155255569,106.40882860734821L71.05115775740101,121.31421195885977L71.76433396224633,140.25366523375436L72.47751016709162,113.249440796366L73.19068637193693,131.7908252683714L73.90386257678225,164.33186879193508L74.61703878162756,146.0393830827533L75.33021498647285,88.17470992310393L76.04339119131818,156.6124243267127L76.75656739616349,137.85111438800837L77.4697436010088,139.0359407083767L78.18291980585411,143.73858739309497L78.89609601069941,139.42839503747877L79.60927221554472,147.6634388273282L80.32244842039003,117.9647422438621L81.03562462523536,123.37249894027917L81.74880083008065,160.1829215121015L82.46197703492597,88.22144323607795L83.17515323977128,128.15570679538456L83.88832944461659,143.14746425619026L84.60150564946188,120.03666064535997L85.3146818543072,114.89568285224107L86.02785805915252,99.72706163299195L86.74103426399783,136.6930651905298L87.45421046884314,150.83949703241575L88.16738667368844,120.69576853136867L88.88056287853375,98.43649518583867L89.59373908337906,131.5613525848512L90.30691528822437,126.64631166245819L91.02009149306969,152.16549994900674L91.733267697915,132.32154189009313L92.44644390276031,98.49348601185257L93.15962010760562,127.83618839785177L93.87279631245092,128.05997871162276L94.58597251729623,158.71862496629296L95.29914872214154,107.75253147897595L96.01232492698685,143.18341777949303L96.72550113183217,97.39631860129151L97.43867733667747,120.90768227454257L98.15185354152278,124.4416044274373L98.8650297463681,151.24676312678318L99.5782059512134,112.37094538858864L100.2913821560587,125.29472241369693L101.00455836090401,135.9787735556517L101.71773456574934,111.5459154395635L102.43091077059465,48.59979357723756L103.14408697543996,154.35085944621892L103.85726318028526,141.11175529354452L104.57043938513057,143.20988675917027L105.28361558997588,119.62271985564378L105.99679179482119,112.8106657528287L106.7099679996665,116.038115978442L107.42314420451181,122.1338990179461L108.13632040935713,120.8296332547523L108.84949661420244,123.2441076759922L109.56267281904773,103.66051496334366L110.27584902389304,154.39690074265638L110.98902522873836,120.73740964718692L111.70220143358368,115.04266716460441L112.41537763842899,120.381331885459L113.12855384327429,157.34785510824506L113.8417300481196,120.77194257805237L114.55490625296491,151.6695617281672L115.26808245781022,159.57457108051142L115.98125866265552,126.43565660596586L116.69443486750085,94.83581563392364L117.40761107234616,19.018149632391612L118.12078727719147,142.64658529841807L118.83396348203676,155.59523835947797L119.54713968688208,147.56173067613736L120.26031589172739,151.91559580366777L120.9734920965727,83.55218569640245L121.68666830141801,80.94977525213433L122.39984450626332,104.61784802862466L123.11302071110863,114.0998899490394L123.82619691595394,139.853961705009L124.53937312079925,150.7006654582679L125.25254932564455,124.16907525842788L125.96572553048986,159.84800378809308L126.67890173533517,128.21804573410355L127.3920779401805,127.98309959148673L128.1052541450258,26.816815628441674L128.8184303498711,51.52151350838591L129.53160655471643,157.88406346874552L130.24478275956173,162.12166459536914L130.95795896440703,133.11736090712637L131.67113516925235,117.53097061045321L132.38431137409768,146.16835929686738L133.09748757894297,129.66195260022383L133.81066378378827,103.65908392537374L134.5238399886336,128.7148300430859L135.2370161934789,142.2281529296722L135.9501923983242,155.57567126548412L136.66336860316952,157.45958313660853L137.3765448080148,106.78185946853004L138.08972101286014,158.9437627537729L138.80289721770544,125.17210230618647L139.51607342255073,129.92030195869185L140.2292496273961,150.9742235122411L140.94242583224138,157.2932380295207L141.6556020370867,65.76553273884127L142.368778241932,125.09860231585532L143.0819544467773,146.95749317301923L143.79513065162263,154.39646464166918L144.50830685646793,131.97726235746762L145.22148306131322,126.08078008049006L145.93465926615855,154.87256418466657L146.64783547100384,149.76747201888833L147.36101167584917,119.37079972250778L148.07418788069447,137.2773465035637L148.78736408553976,161.17345831422114L149.5005402903851,119.15690655090103L150.21371649523041,151.78008068612905L150.92689270007574,108.16503600795589L151.64006890492104,131.07894132876385L152.35324510976633,130.36041403040545L153.06642131461166,146.49450016208579L153.77959751945696,164.6731870160608L154.49277372430228,152.64286601283516L155.20594992914758,144.582518533409L155.91912613399288,107.75541444598106L156.6323023388382,155.053741948085L157.3454785436835,130.73982188925618L158.0586547485288,114.63934425880376L158.77183095337412,123.16256462553812L159.48500715821942,150.92855042082877L160.19818336306474,120.94762599130891L160.91135956791007,170.60602496934723L161.62453577275537,162.59943542358687L162.3377119776007,162.30878325546928L163.050888182446,151.51458136057772L163.7640643872913,145.45414078071767L164.4772405921366,102.34587156348474L165.1904167969819,97.28955481230912L165.90359300182723,59.30500214552869L166.61676920667253,150.72402689198861L167.32994541151783,140.61636024040158L168.04312161636315,130.44449012252161L168.75629782120845,163.81045391701784L169.46947402605377,153.407967329795L170.18265023089907,163.13194345415417L170.8958264357444,145.28452099915123L171.60900264058972,114.62443848374477L172.32217884543502,143.0964378293065L173.03535505028034,108.63503274851584L173.74853125512564,139.61094638843767L174.46170745997094,136.27925496997148L175.17488366481626,164.8699782393737L175.88805986966156,146.89194223301735L176.60123607450686,140.66831631968918L177.31441227935218,152.97100197478537L178.02758848419748,135.1410731755498L178.7407646890428,148.22327759401452L179.4539408938881,159.48843460708454L180.1671170987334,105.9754643497118L180.88029330357872,165.32482112347475L181.59346950842405,162.57732223101513L182.30664571326938,115.04035347912749L183.01982191811467,154.4069075629132L183.73299812295997,143.42620329434655L184.4461743278053,151.99039626281103L185.1593505326506,151.41900995980535L185.8725267374959,89.74039080859187L186.58570294234121,151.73122693003177L187.2988791471865,167.05968046677563L188.01205535203184,152.7848704175185L188.72523155687713,163.90220486423183L189.43840776172243,139.1728294134559L190.15158396656776,150.3925170229998L190.86476017141305,160.58228033827015L191.5779363762584,135.9816983047873L192.2911125811037,136.65145018854312L193.004288785949,153.68027191985294L193.71746499079433,156.49375524191848L194.43064119563962,132.91081094495652L195.14381740048492,139.68788295900316L195.85699360533025,103.46619671988024L196.57016981017554,112.65770137303629L197.28334601502087,143.5074799837186L197.99652221986616,127.03754386424288L198.70969842471146,152.56179562273246L199.4228746295568,149.36442591970228L200.13605083440208,138.03166019670286L200.8492270392474,154.48544491135382L201.56240324409274,131.6939795126185L202.27557944893803,154.16758735350874L202.98875565378336,160.61336624336863L203.70193185862865,149.5138544867004L204.41510806347395,144.614079710242L205.12828426831928,169.34888161521778L205.84146047316457,154.81451574847418L206.5546366780099,141.2559402031638L207.2678128828552,138.69117023571772L207.9809890877005,105.70327466051276L208.69416529254582,173.92943569182327L209.40734149739112,145.2502335383025L210.12051770223644,148.22401922683105L210.83369390708174,87.27262327988808L211.54687011192703,155.3898269603645L212.2600463167724,116.45062573018824L212.97322252161769,110.38137956632346L213.686398726463,140.63582026768603L214.3995749313083,89.8116188955766L215.1127511361536,144.4303219002647L215.82592734099893,153.55644535332405L216.53910354584423,152.99479167534378L217.25227975068952,119.35350714324349L217.96545595553485,83.24343664300828L218.67863216038015,146.64026234713177L219.39180836522547,126.89765729129968L220.10498457007077,111.41682432459051L220.81816077491607,141.6049515620694L221.5313369797614,141.06484962928215L222.24451318460672,153.24573515117913L222.95768938945204,120.65166749261672L223.67086559429734,123.13979336441088L224.38404179914264,144.11797958364676L225.09721800398796,54.03160633529501L225.81039420883326,128.98923940796823L226.52357041367856,142.19781388015656L227.23674661852388,155.64454127347827" style="fill: none;" fill="none"></path></g></g></g></g></g></g><g transform="translate(64, 177)" clip-path="url(#clip_1)"><clipPath id="clip_1"><rect width="266" height="23"></rect></clipPath><g><g><line x1="14.47251217300642" y1="0" x2="14.47251217300642" y2="5" style="visibility: inherit;" fill="rgb(0, 0, 0)" stroke="rgb(204, 204, 204)" stroke-width="1px"></line><line x1="38.24505233451676" y1="0" x2="38.24505233451676" y2="5" style="visibility: inherit;" fill="rgb(0, 0, 0)" stroke="rgb(204, 204, 204)" stroke-width="1px"></line><line x1="62.01759249602708" y1="0" x2="62.01759249602708" y2="5" style="visibility: inherit;" fill="rgb(0, 0, 0)" stroke="rgb(204, 204, 204)" stroke-width="1px"></line><line x1="85.79013265753741" y1="0" x2="85.79013265753741" y2="5" style="visibility: inherit;" fill="rgb(0, 0, 0)" stroke="rgb(204, 204, 204)" stroke-width="1px"></line><line x1="109.56267281904773" y1="0" x2="109.56267281904773" y2="5" style="visibility: inherit;" fill="rgb(0, 0, 0)" stroke="rgb(204, 204, 204)" stroke-width="1px"></line><line x1="133.33521298055808" y1="0" x2="133.33521298055808" y2="5" style="visibility: inherit;" fill="rgb(0, 0, 0)" stroke="rgb(204, 204, 204)" stroke-width="1px"></line><line x1="157.10775314206842" y1="0" x2="157.10775314206842" y2="5" style="visibility: inherit;" fill="rgb(0, 0, 0)" stroke="rgb(204, 204, 204)" stroke-width="1px"></line><line x1="180.88029330357872" y1="0" x2="180.88029330357872" y2="5" style="visibility: inherit;" fill="rgb(0, 0, 0)" stroke="rgb(204, 204, 204)" stroke-width="1px"></line><line x1="204.65283346508906" y1="0" x2="204.65283346508906" y2="5" style="visibility: inherit;" fill="rgb(0, 0, 0)" stroke="rgb(204, 204, 204)" stroke-width="1px"></line><line x1="228.42537362659937" y1="0" x2="228.42537362659937" y2="5" style="visibility: inherit;" fill="rgb(0, 0, 0)" stroke="rgb(204, 204, 204)" stroke-width="1px"></line><line x1="252.1979137881097" y1="0" x2="252.1979137881097" y2="5" style="visibility: inherit;" fill="rgb(0, 0, 0)" stroke="rgb(204, 204, 204)" stroke-width="1px"></line></g><g transform="translate(0, 8)"><text x="14.47251217300642" y="0" dx="0em" dy="0.95em" style="text-anchor: middle; visibility: inherit; font-family: &quot;Helvetica Neue&quot;, sans-serif; font-size: 12px; font-weight: 200;" fill="rgb(50, 49, 63)" stroke="none" stroke-width="1px">0</text><text x="38.24505233451676" y="0" dx="0em" dy="0.95em" style="text-anchor: middle; visibility: hidden; font-family: &quot;Helvetica Neue&quot;, sans-serif; font-size: 12px; font-weight: 200;" fill="rgb(50, 49, 63)" stroke="none" stroke-width="1px">10k</text><text x="62.01759249602708" y="0" dx="0em" dy="0.95em" style="text-anchor: middle; visibility: inherit; font-family: &quot;Helvetica Neue&quot;, sans-serif; font-size: 12px; font-weight: 200;" fill="rgb(50, 49, 63)" stroke="none" stroke-width="1px">20k</text><text x="85.79013265753741" y="0" dx="0em" dy="0.95em" style="text-anchor: middle; visibility: hidden; font-family: &quot;Helvetica Neue&quot;, sans-serif; font-size: 12px; font-weight: 200;" fill="rgb(50, 49, 63)" stroke="none" stroke-width="1px">30k</text><text x="109.56267281904773" y="0" dx="0em" dy="0.95em" style="text-anchor: middle; visibility: inherit; font-family: &quot;Helvetica Neue&quot;, sans-serif; font-size: 12px; font-weight: 200;" fill="rgb(50, 49, 63)" stroke="none" stroke-width="1px">40k</text><text x="133.33521298055808" y="0" dx="0em" dy="0.95em" style="text-anchor: middle; visibility: hidden; font-family: &quot;Helvetica Neue&quot;, sans-serif; font-size: 12px; font-weight: 200;" fill="rgb(50, 49, 63)" stroke="none" stroke-width="1px">50k</text><text x="157.10775314206842" y="0" dx="0em" dy="0.95em" style="text-anchor: middle; visibility: inherit; font-family: &quot;Helvetica Neue&quot;, sans-serif; font-size: 12px; font-weight: 200;" fill="rgb(50, 49, 63)" stroke="none" stroke-width="1px">60k</text><text x="180.88029330357872" y="0" dx="0em" dy="0.95em" style="text-anchor: middle; visibility: hidden; font-family: &quot;Helvetica Neue&quot;, sans-serif; font-size: 12px; font-weight: 200;" fill="rgb(50, 49, 63)" stroke="none" stroke-width="1px">70k</text><text x="204.65283346508906" y="0" dx="0em" dy="0.95em" style="text-anchor: middle; visibility: inherit; font-family: &quot;Helvetica Neue&quot;, sans-serif; font-size: 12px; font-weight: 200;" fill="rgb(50, 49, 63)" stroke="none" stroke-width="1px">80k</text><text x="228.42537362659937" y="0" dx="0em" dy="0.95em" style="text-anchor: middle; visibility: hidden; font-family: &quot;Helvetica Neue&quot;, sans-serif; font-size: 12px; font-weight: 200;" fill="rgb(50, 49, 63)" stroke="none" stroke-width="1px">90k</text><text x="252.1979137881097" y="0" dx="0em" dy="0.95em" style="text-anchor: middle; visibility: inherit; font-family: &quot;Helvetica Neue&quot;, sans-serif; font-size: 12px; font-weight: 200;" fill="rgb(50, 49, 63)" stroke="none" stroke-width="1px">100k</text></g><line x1="0" y1="0" x2="266" y2="0" fill="rgb(0, 0, 0)" stroke="rgb(204, 204, 204)" stroke-width="1px"></line></g></g></g></g></svg>