<svg viewBox="0 0 330 200" xmlns="http://www.w3.org/2000/svg"><g><g><g><g><g><line x1="46" y1="161.6284361626023" x2="41" y2="161.6284361626023" style="visibility: inherit;" fill="rgb(0, 0, 0)" stroke="rgb(204, 204, 204)" stroke-width="1px"></line><line x1="46" y1="145.26667674717538" x2="41" y2="145.26667674717538" style="visibility: inherit;" fill="rgb(0, 0, 0)" stroke="rgb(204, 204, 204)" stroke-width="1px"></line><line x1="46" y1="128.9049173317485" x2="41" y2="128.9049173317485" style="visibility: inherit;" fill="rgb(0, 0, 0)" stroke="rgb(204, 204, 204)" stroke-width="1px"></line><line x1="46" y1="112.54315791632162" x2="41" y2="112.54315791632162" style="visibility: inherit;" fill="rgb(0, 0, 0)" stroke="rgb(204, 204, 204)" stroke-width="1px"></line><line x1="46" y1="96.18139850089472" x2="41" y2="96.18139850089472" style="visibility: inherit;" fill="rgb(0, 0, 0)" stroke="rgb(204, 204, 204)" stroke-width="1px"></line><line x1="46" y1="79.81963908546783" x2="41" y2="79.81963908546783" style="visibility: inherit;" fill="rgb(0, 0, 0)" stroke="rgb(204, 204, 204)" stroke-width="1px"></line><line x1="46" y1="63.45787967004094" x2="41" y2="63.45787967004094" style="visibility: inherit;" fill="rgb(0, 0, 0)" stroke="rgb(204, 204, 204)" stroke-width="1px"></line><line x1="46" y1="47.09612025461402" x2="41" y2="47.09612025461402" style="visibility: inherit;" fill="rgb(0, 0, 0)" stroke="rgb(204, 204, 204)" stroke-width="1px"></line><line x1="46" y1="30.734360839187133" x2="41" y2="30.734360839187133" style="visibility: inherit;" fill="rgb(0, 0, 0)" stroke="rgb(204, 204, 204)" stroke-width="1px"></line><line x1="46" y1="14.372601423760244" x2="41" y2="14.372601423760244" style="visibility: inherit;" fill="rgb(0, 0, 0)" stroke="rgb(204, 204, 204)" stroke-width="1px"></line></g><g transform="translate(36, 0)"><text x="0" y="161.6284361626023" dx="0em" dy="0.3em" style="text-anchor: end; visibility: inherit; font-family: &quot;Helvetica Neue&quot;, sans-serif; font-size: 12px; font-weight: 200;" fill="rgb(50, 49, 63)" stroke="none" stroke-width="1px">0</text><text x="0" y="145.26667674717538" dx="0em" dy="0.3em" style="text-anchor: end; visibility: hidden; font-family: &quot;Helvetica Neue&quot;, sans-serif; font-size: 12px; font-weight: 200;" fill="rgb(50, 49, 63)" stroke="none" stroke-width="1px">0.02</text><text x="0" y="128.9049173317485" dx="0em" dy="0.3em" style="text-anchor: end; visibility: inherit; font-family: &quot;Helvetica Neue&quot;, sans-serif; font-size: 12px; font-weight: 200;" fill="rgb(50, 49, 63)" stroke="none" stroke-width="1px">0.04</text><text x="0" y="112.54315791632162" dx="0em" dy="0.3em" style="text-anchor: end; visibility: hidden; font-family: &quot;Helvetica Neue&quot;, sans-serif; font-size: 12px; font-weight: 200;" fill="rgb(50, 49, 63)" stroke="none" stroke-width="1px">0.06</text><text x="0" y="96.18139850089472" dx="0em" dy="0.3em" style="text-anchor: end; visibility: inherit; font-family: &quot;Helvetica Neue&quot;, sans-serif; font-size: 12px; font-weight: 200;" fill="rgb(50, 49, 63)" stroke="none" stroke-width="1px">0.08</text><text x="0" y="79.81963908546783" dx="0em" dy="0.3em" style="text-anchor: end; visibility: hidden; font-family: &quot;Helvetica Neue&quot;, sans-serif; font-size: 12px; font-weight: 200;" fill="rgb(50, 49, 63)" stroke="none" stroke-width="1px">0.1</text><text x="0" y="63.45787967004094" dx="0em" dy="0.3em" style="text-anchor: end; visibility: inherit; font-family: &quot;Helvetica Neue&quot;, sans-serif; font-size: 12px; font-weight: 200;" fill="rgb(50, 49, 63)" stroke="none" stroke-width="1px">0.12</text><text x="0" y="47.09612025461402" dx="0em" dy="0.3em" style="text-anchor: end; visibility: hidden; font-family: &quot;Helvetica Neue&quot;, sans-serif; font-size: 12px; font-weight: 200;" fill="rgb(50, 49, 63)" stroke="none" stroke-width="1px">0.14</text><text x="0" y="30.734360839187133" dx="0em" dy="0.3em" style="text-anchor: end; visibility: inherit; font-family: &quot;Helvetica Neue&quot;, sans-serif; font-size: 12px; font-weight: 200;" fill="rgb(50, 49, 63)" stroke="none" stroke-width="1px">0.16</text><text x="0" y="14.372601423760244" dx="0em" dy="0.3em" style="text-anchor: end; visibility: hidden; font-family: &quot;Helvetica Neue&quot;, sans-serif; font-size: 12px; font-weight: 200;" fill="rgb(50, 49, 63)" stroke="none" stroke-width="1px">0.18</text></g><line x1="46" y1="0" x2="46" y2="177" fill="rgb(0, 0, 0)" stroke="rgb(204, 204, 204)" stroke-width="1px"></line></g></g><g transform="translate(46, 0)" clip-path="url(#clip_0)"><clipPath id="clip_0"><rect width="284" height="177"></rect></clipPath><g><g><g><line x1="14.209892398330998" y1="0" x2="14.209892398330998" y2="177" fill="rgb(0, 0, 0)" stroke="rgb(60, 60, 60)" stroke-width="1px" opacity="0.25"></line><line x1="47.854920996149865" y1="0" x2="47.854920996149865" y2="177" fill="rgb(0, 0, 0)" stroke="rgb(60, 60, 60)" stroke-width="1px" opacity="0.25"></line><line x1="81.49994959396874" y1="0" x2="81.49994959396874" y2="177" fill="rgb(0, 0, 0)" stroke="rgb(60, 60, 60)" stroke-width="1px" opacity="0.25"></line><line x1="115.14497819178762" y1="0" x2="115.14497819178762" y2="177" fill="rgb(0, 0, 0)" stroke="rgb(60, 60, 60)" stroke-width="1px" opacity="0.25"></line><line x1="148.79000678960648" y1="0" x2="148.79000678960648" y2="177" fill="rgb(0, 0, 0)" stroke="rgb(60, 60, 60)" stroke-width="1px" opacity="0.25"></line><line x1="182.43503538742536" y1="0" x2="182.43503538742536" y2="177" fill="rgb(0, 0, 0)" stroke="rgb(60, 60, 60)" stroke-width="1px" opacity="0.25"></line><line x1="216.0800639852442" y1="0" x2="216.0800639852442" y2="177" fill="rgb(0, 0, 0)" stroke="rgb(60, 60, 60)" stroke-width="1px" opacity="0.25"></line><line x1="249.7250925830631" y1="0" x2="249.7250925830631" y2="177" fill="rgb(0, 0, 0)" stroke="rgb(60, 60, 60)" stroke-width="1px" opacity="0.25"></line><line x1="283.37012118088194" y1="0" x2="283.37012118088194" y2="177" fill="rgb(0, 0, 0)" stroke="rgb(60, 60, 60)" stroke-width="1px" opacity="0.25"></line></g><g><line x1="0" y1="161.6284361626023" x2="284" y2="161.6284361626023" fill="rgb(0, 0, 0)" stroke="rgb(60, 60, 60)" stroke-width="1px" opacity="0.25"></line><line x1="0" y1="145.26667674717538" x2="284" y2="145.26667674717538" fill="rgb(0, 0, 0)" stroke="rgb(60, 60, 60)" stroke-width="1px" opacity="0.25"></line><line x1="0" y1="128.9049173317485" x2="284" y2="128.9049173317485" fill="rgb(0, 0, 0)" stroke="rgb(60, 60, 60)" stroke-width="1px" opacity="0.25"></line><line x1="0" y1="112.54315791632162" x2="284" y2="112.54315791632162" fill="rgb(0, 0, 0)" stroke="rgb(60, 60, 60)" stroke-width="1px" opacity="0.25"></line><line x1="0" y1="96.18139850089472" x2="284" y2="96.18139850089472" fill="rgb(0, 0, 0)" stroke="rgb(60, 60, 60)" stroke-width="1px" opacity="0.25"></line><line x1="0" y1="79.81963908546783" x2="284" y2="79.81963908546783" fill="rgb(0, 0, 0)" stroke="rgb(60, 60, 60)" stroke-width="1px" opacity="0.25"></line><line x1="0" y1="63.45787967004094" x2="284" y2="63.45787967004094" fill="rgb(0, 0, 0)" stroke="rgb(60, 60, 60)" stroke-width="1px" opacity="0.25"></line><line x1="0" y1="47.09612025461402" x2="284" y2="47.09612025461402" fill="rgb(0, 0, 0)" stroke="rgb(60, 60, 60)" stroke-width="1px" opacity="0.25"></line><line x1="0" y1="30.734360839187133" x2="284" y2="30.734360839187133" fill="rgb(0, 0, 0)" stroke="rgb(60, 60, 60)" stroke-width="1px" opacity="0.25"></line><line x1="0" y1="14.372601423760244" x2="284" y2="14.372601423760244" fill="rgb(0, 0, 0)" stroke="rgb(60, 60, 60)" stroke-width="1px" opacity="0.25"></line></g></g></g><g><g><line x1="0" y1="161.6284361626023" x2="284" y2="161.6284361626023" fill="rgb(0, 0, 0)" stroke="rgb(153, 153, 153)" stroke-width="1.5px"></line></g></g><g><g><line x1="14.209892398330998" y1="0" x2="14.209892398330998" y2="177" fill="rgb(0, 0, 0)" stroke="rgb(153, 153, 153)" stroke-width="1.5px"></line></g></g><g><g><g><g><g><path stroke="rgb(0, 119, 187)" stroke-width="2px" d="M14.647277770102644,161.04639985347129L35.33897035776125,160.95500366048066L49.36894728305172,157.5257891470478L67.46997266867827,136.34857109925568L70.49802524248196,132.61157392411815L73.52607781628566,148.4651447745507L74.03075324525294,149.26778823539985L77.05880581905664,140.13927095973355L80.08685839286034,118.61571936178879L102.72996263919245,90.64622886155253L105.75801521299616,108.36483128786435L108.78606778679985,108.03879586428891L111.81412036060355,96.76536305820888L114.84217293440724,79.16516211322319L117.87022550821095,55.678150033752786L120.89827808201463,75.17282587716097L125.77680722869837,112.56083451001467L128.80485980250208,107.03850754469397L131.22730186154502,107.41877548870548L135.16377020748985,95.83845793339331L138.19182278129355,72.99102762057265L141.21987535509723,70.8657324390503L144.24792792890094,90.347666816797L147.27598050270464,64.97557659302352L150.30403307650832,61.34869066515098L152.32273479237747,99.1864316837174L152.32273479237747,100.88913002955289L156.22555810972443,75.90837028031831L159.25361068352814,64.61048738482376L162.28166325733184,91.79139246707373L165.30971583113555,75.60458731600207L168.33776840493925,69.47674235787242L174.39387355254664,79.75682487102928L186.94346921953309,69.6515553335983L189.97152179333676,79.00946458840738L192.99957436714047,45.28180459856492L196.02762694094417,52.037997682949026L199.05567951474788,59.0864177230295L202.08373208855159,78.33921218788296L205.11178466235526,53.47763972148675L208.13983723615897,63.540537576999895L211.16788980996267,66.41214525440891L216.7193195286028,42.48268595794451L219.74737210240647,56.841527897199256L221.69878376107997,133.07039238792188L224.72683633488367,70.44541804955036L227.75488890868738,47.369742032833585L230.78294148249108,52.770978209078805L233.81099405629476,65.73473120555202L236.83904663009847,55.71055709972708L238.8577483459676,44.120043246295126L240.8091600046411,55.80314071759655L243.8372125784448,35.280098520989355L254.13259132937736,155.54984458940513L253.79614104339916,152.81961151424468L256.82419361720287,152.07626884932114" style="fill: none;" fill="none"></path></g></g></g></g><g opacity="0.2"><g><g><g><path stroke="rgb(0, 119, 187)" stroke-width="2px" d="M14.647277770102644,161.04639985347129L35.33897035776125,160.95089083179607L49.36894728305172,157.3645303345536L67.46997266867827,135.35078264656366L70.49802524248196,132.43548577406568L73.52607781628566,149.2121715354147L74.03075324525294,149.30560913114675L77.05880581905664,139.70913140240214L80.08685839286034,117.60152059541053L102.72996263919245,89.32829475421254L105.75801521299616,109.19973925559628L108.78606778679985,108.0234329385707L111.81412036060355,96.2341541825297L114.84217293440724,78.33583327288353L117.87022550821095,54.571432187076155L120.89827808201463,76.0914231682116L125.77680722869837,114.32257313669363L128.80485980250208,106.77829318507152L131.22730186154502,107.43669387350182L135.16377020748985,95.29278851979223L138.19182278129355,71.91444713462825L141.21987535509723,70.76558763992098L144.24792792890094,91.26566372464893L147.27598050270464,63.78003307462582L150.30403307650832,61.177790281115094L152.32273479237747,100.96936188878074L152.32273479237747,100.96936188878074L156.22555810972443,74.73126641778892L159.25361068352814,64.07812641069052L162.28166325733184,93.07216809922166L165.30971583113555,74.8418582774699L168.33776840493925,69.18799573680872L174.39387355254664,80.24122666484294L186.94346921953309,69.17539080042091L189.97152179333676,79.45041319203712L192.99957436714047,43.69254313307496L196.02762694094417,52.356352330904286L199.05567951474788,59.41854222753591L202.08373208855159,79.24641192706454L205.11178466235526,52.30615201364611L208.13983723615897,64.01470553877799L211.16788980996267,66.54745661093605L216.7193195286028,41.35511981308491L219.74737210240647,57.51812254355157L221.69878376107997,136.66232841104494L224.72683633488367,67.49450302837053L227.75488890868738,46.28240651372124L230.78294148249108,53.02548672000137L233.81099405629476,66.34558867659001L236.83904663009847,55.238213817253666L238.8577483459676,43.57389337885593L240.8091600046411,56.35365316388824L243.8372125784448,34.3130441766466L254.13259132937736,161.21700539891162L253.79614104339916,152.69096178818998L256.82419361720287,152.0412422316022" style="fill: none;" fill="none"></path></g></g></g></g></g></g><g transform="translate(46, 177)" clip-path="url(#clip_1)"><clipPath id="clip_1"><rect width="284" height="23"></rect></clipPath><g><g><line x1="14.209892398330998" y1="0" x2="14.209892398330998" y2="5" style="visibility: inherit;" fill="rgb(0, 0, 0)" stroke="rgb(204, 204, 204)" stroke-width="1px"></line><line x1="47.854920996149865" y1="0" x2="47.854920996149865" y2="5" style="visibility: inherit;" fill="rgb(0, 0, 0)" stroke="rgb(204, 204, 204)" stroke-width="1px"></line><line x1="81.49994959396874" y1="0" x2="81.49994959396874" y2="5" style="visibility: inherit;" fill="rgb(0, 0, 0)" stroke="rgb(204, 204, 204)" stroke-width="1px"></line><line x1="115.14497819178762" y1="0" x2="115.14497819178762" y2="5" style="visibility: inherit;" fill="rgb(0, 0, 0)" stroke="rgb(204, 204, 204)" stroke-width="1px"></line><line x1="148.79000678960648" y1="0" x2="148.79000678960648" y2="5" style="visibility: inherit;" fill="rgb(0, 0, 0)" stroke="rgb(204, 204, 204)" stroke-width="1px"></line><line x1="182.43503538742536" y1="0" x2="182.43503538742536" y2="5" style="visibility: inherit;" fill="rgb(0, 0, 0)" stroke="rgb(204, 204, 204)" stroke-width="1px"></line><line x1="216.0800639852442" y1="0" x2="216.0800639852442" y2="5" style="visibility: inherit;" fill="rgb(0, 0, 0)" stroke="rgb(204, 204, 204)" stroke-width="1px"></line><line x1="249.7250925830631" y1="0" x2="249.7250925830631" y2="5" style="visibility: inherit;" fill="rgb(0, 0, 0)" stroke="rgb(204, 204, 204)" stroke-width="1px"></line><line x1="283.37012118088194" y1="0" x2="283.37012118088194" y2="5" style="visibility: inherit;" fill="rgb(0, 0, 0)" stroke="rgb(204, 204, 204)" stroke-width="1px"></line></g><g transform="translate(0, 8)"><text x="14.209892398330998" y="0" dx="0em" dy="0.95em" style="text-anchor: middle; visibility: inherit; font-family: &quot;Helvetica Neue&quot;, sans-serif; font-size: 12px; font-weight: 200;" fill="rgb(50, 49, 63)" stroke="none" stroke-width="1px">0</text><text x="47.854920996149865" y="0" dx="0em" dy="0.95em" style="text-anchor: middle; visibility: inherit; font-family: &quot;Helvetica Neue&quot;, sans-serif; font-size: 12px; font-weight: 200;" fill="rgb(50, 49, 63)" stroke="none" stroke-width="1px">100k</text><text x="81.49994959396874" y="0" dx="0em" dy="0.95em" style="text-anchor: middle; visibility: inherit; font-family: &quot;Helvetica Neue&quot;, sans-serif; font-size: 12px; font-weight: 200;" fill="rgb(50, 49, 63)" stroke="none" stroke-width="1px">200k</text><text x="115.14497819178762" y="0" dx="0em" dy="0.95em" style="text-anchor: middle; visibility: inherit; font-family: &quot;Helvetica Neue&quot;, sans-serif; font-size: 12px; font-weight: 200;" fill="rgb(50, 49, 63)" stroke="none" stroke-width="1px">300k</text><text x="148.79000678960648" y="0" dx="0em" dy="0.95em" style="text-anchor: middle; visibility: inherit; font-family: &quot;Helvetica Neue&quot;, sans-serif; font-size: 12px; font-weight: 200;" fill="rgb(50, 49, 63)" stroke="none" stroke-width="1px">400k</text><text x="182.43503538742536" y="0" dx="0em" dy="0.95em" style="text-anchor: middle; visibility: inherit; font-family: &quot;Helvetica Neue&quot;, sans-serif; font-size: 12px; font-weight: 200;" fill="rgb(50, 49, 63)" stroke="none" stroke-width="1px">500k</text><text x="216.0800639852442" y="0" dx="0em" dy="0.95em" style="text-anchor: middle; visibility: inherit; font-family: &quot;Helvetica Neue&quot;, sans-serif; font-size: 12px; font-weight: 200;" fill="rgb(50, 49, 63)" stroke="none" stroke-width="1px">600k</text><text x="249.7250925830631" y="0" dx="0em" dy="0.95em" style="text-anchor: middle; visibility: inherit; font-family: &quot;Helvetica Neue&quot;, sans-serif; font-size: 12px; font-weight: 200;" fill="rgb(50, 49, 63)" stroke="none" stroke-width="1px">700k</text><text x="283.37012118088194" y="0" dx="0em" dy="0.95em" style="text-anchor: middle; visibility: hidden; font-family: &quot;Helvetica Neue&quot;, sans-serif; font-size: 12px; font-weight: 200;" fill="rgb(50, 49, 63)" stroke="none" stroke-width="1px">800k</text></g><line x1="0" y1="0" x2="284" y2="0" fill="rgb(0, 0, 0)" stroke="rgb(204, 204, 204)" stroke-width="1px"></line></g></g></g></g></svg>