<svg viewBox="0 0 330 200" xmlns="http://www.w3.org/2000/svg"><g><g><g><g><g><line x1="46" y1="177" x2="41" y2="177" style="visibility: inherit;" fill="rgb(0, 0, 0)" stroke="rgb(204, 204, 204)" stroke-width="1px"></line><line x1="46" y1="158.12710843373495" x2="41" y2="158.12710843373495" style="visibility: inherit;" fill="rgb(0, 0, 0)" stroke="rgb(204, 204, 204)" stroke-width="1px"></line><line x1="46" y1="139.2542168674699" x2="41" y2="139.2542168674699" style="visibility: inherit;" fill="rgb(0, 0, 0)" stroke="rgb(204, 204, 204)" stroke-width="1px"></line><line x1="46" y1="120.38132530120481" x2="41" y2="120.38132530120481" style="visibility: inherit;" fill="rgb(0, 0, 0)" stroke="rgb(204, 204, 204)" stroke-width="1px"></line><line x1="46" y1="101.50843373493976" x2="41" y2="101.50843373493976" style="visibility: inherit;" fill="rgb(0, 0, 0)" stroke="rgb(204, 204, 204)" stroke-width="1px"></line><line x1="46" y1="82.6355421686747" x2="41" y2="82.6355421686747" style="visibility: inherit;" fill="rgb(0, 0, 0)" stroke="rgb(204, 204, 204)" stroke-width="1px"></line><line x1="46" y1="63.762650602409636" x2="41" y2="63.762650602409636" style="visibility: inherit;" fill="rgb(0, 0, 0)" stroke="rgb(204, 204, 204)" stroke-width="1px"></line><line x1="46" y1="44.889759036144596" x2="41" y2="44.889759036144596" style="visibility: inherit;" fill="rgb(0, 0, 0)" stroke="rgb(204, 204, 204)" stroke-width="1px"></line><line x1="46" y1="26.016867469879514" x2="41" y2="26.016867469879514" style="visibility: inherit;" fill="rgb(0, 0, 0)" stroke="rgb(204, 204, 204)" stroke-width="1px"></line><line x1="46" y1="7.143975903614461" x2="41" y2="7.143975903614461" style="visibility: inherit;" fill="rgb(0, 0, 0)" stroke="rgb(204, 204, 204)" stroke-width="1px"></line></g><g transform="translate(36, 0)"><text x="0" y="177" dx="0em" dy="0.3em" style="text-anchor: end; visibility: hidden; font-family: &quot;Helvetica Neue&quot;, sans-serif; font-size: 12px; font-weight: 200;" fill="rgb(50, 49, 63)" stroke="none" stroke-width="1px">0</text><text x="0" y="158.12710843373495" dx="0em" dy="0.3em" style="text-anchor: end; visibility: inherit; font-family: &quot;Helvetica Neue&quot;, sans-serif; font-size: 12px; font-weight: 200;" fill="rgb(50, 49, 63)" stroke="none" stroke-width="1px">0.05</text><text x="0" y="139.2542168674699" dx="0em" dy="0.3em" style="text-anchor: end; visibility: hidden; font-family: &quot;Helvetica Neue&quot;, sans-serif; font-size: 12px; font-weight: 200;" fill="rgb(50, 49, 63)" stroke="none" stroke-width="1px">0.1</text><text x="0" y="120.38132530120481" dx="0em" dy="0.3em" style="text-anchor: end; visibility: inherit; font-family: &quot;Helvetica Neue&quot;, sans-serif; font-size: 12px; font-weight: 200;" fill="rgb(50, 49, 63)" stroke="none" stroke-width="1px">0.15</text><text x="0" y="101.50843373493976" dx="0em" dy="0.3em" style="text-anchor: end; visibility: hidden; font-family: &quot;Helvetica Neue&quot;, sans-serif; font-size: 12px; font-weight: 200;" fill="rgb(50, 49, 63)" stroke="none" stroke-width="1px">0.2</text><text x="0" y="82.6355421686747" dx="0em" dy="0.3em" style="text-anchor: end; visibility: inherit; font-family: &quot;Helvetica Neue&quot;, sans-serif; font-size: 12px; font-weight: 200;" fill="rgb(50, 49, 63)" stroke="none" stroke-width="1px">0.25</text><text x="0" y="63.762650602409636" dx="0em" dy="0.3em" style="text-anchor: end; visibility: hidden; font-family: &quot;Helvetica Neue&quot;, sans-serif; font-size: 12px; font-weight: 200;" fill="rgb(50, 49, 63)" stroke="none" stroke-width="1px">0.3</text><text x="0" y="44.889759036144596" dx="0em" dy="0.3em" style="text-anchor: end; visibility: inherit; font-family: &quot;Helvetica Neue&quot;, sans-serif; font-size: 12px; font-weight: 200;" fill="rgb(50, 49, 63)" stroke="none" stroke-width="1px">0.35</text><text x="0" y="26.016867469879514" dx="0em" dy="0.3em" style="text-anchor: end; visibility: hidden; font-family: &quot;Helvetica Neue&quot;, sans-serif; font-size: 12px; font-weight: 200;" fill="rgb(50, 49, 63)" stroke="none" stroke-width="1px">0.4</text><text x="0" y="7.143975903614461" dx="0em" dy="0.3em" style="text-anchor: end; visibility: hidden; font-family: &quot;Helvetica Neue&quot;, sans-serif; font-size: 12px; font-weight: 200;" fill="rgb(50, 49, 63)" stroke="none" stroke-width="1px">0.45</text></g><line x1="46" y1="0" x2="46" y2="177" fill="rgb(0, 0, 0)" stroke="rgb(204, 204, 204)" stroke-width="1px"></line></g></g><g transform="translate(46, 0)" clip-path="url(#clip_0)"><clipPath id="clip_0"><rect width="284" height="177"></rect></clipPath><g><g><g><line x1="22.11279461279461" y1="0" x2="22.11279461279461" y2="177" fill="rgb(0, 0, 0)" stroke="rgb(60, 60, 60)" stroke-width="1px" opacity="0.25"></line><line x1="57.13468013468013" y1="0" x2="57.13468013468013" y2="177" fill="rgb(0, 0, 0)" stroke="rgb(60, 60, 60)" stroke-width="1px" opacity="0.25"></line><line x1="92.15656565656566" y1="0" x2="92.15656565656566" y2="177" fill="rgb(0, 0, 0)" stroke="rgb(60, 60, 60)" stroke-width="1px" opacity="0.25"></line><line x1="127.17845117845117" y1="0" x2="127.17845117845117" y2="177" fill="rgb(0, 0, 0)" stroke="rgb(60, 60, 60)" stroke-width="1px" opacity="0.25"></line><line x1="162.20033670033672" y1="0" x2="162.20033670033672" y2="177" fill="rgb(0, 0, 0)" stroke="rgb(60, 60, 60)" stroke-width="1px" opacity="0.25"></line><line x1="197.22222222222223" y1="0" x2="197.22222222222223" y2="177" fill="rgb(0, 0, 0)" stroke="rgb(60, 60, 60)" stroke-width="1px" opacity="0.25"></line><line x1="232.24410774410774" y1="0" x2="232.24410774410774" y2="177" fill="rgb(0, 0, 0)" stroke="rgb(60, 60, 60)" stroke-width="1px" opacity="0.25"></line><line x1="267.26599326599325" y1="0" x2="267.26599326599325" y2="177" fill="rgb(0, 0, 0)" stroke="rgb(60, 60, 60)" stroke-width="1px" opacity="0.25"></line></g><g><line x1="0" y1="177" x2="284" y2="177" fill="rgb(0, 0, 0)" stroke="rgb(60, 60, 60)" stroke-width="1px" opacity="0.25"></line><line x1="0" y1="158.12710843373495" x2="284" y2="158.12710843373495" fill="rgb(0, 0, 0)" stroke="rgb(60, 60, 60)" stroke-width="1px" opacity="0.25"></line><line x1="0" y1="139.2542168674699" x2="284" y2="139.2542168674699" fill="rgb(0, 0, 0)" stroke="rgb(60, 60, 60)" stroke-width="1px" opacity="0.25"></line><line x1="0" y1="120.38132530120481" x2="284" y2="120.38132530120481" fill="rgb(0, 0, 0)" stroke="rgb(60, 60, 60)" stroke-width="1px" opacity="0.25"></line><line x1="0" y1="101.50843373493976" x2="284" y2="101.50843373493976" fill="rgb(0, 0, 0)" stroke="rgb(60, 60, 60)" stroke-width="1px" opacity="0.25"></line><line x1="0" y1="82.6355421686747" x2="284" y2="82.6355421686747" fill="rgb(0, 0, 0)" stroke="rgb(60, 60, 60)" stroke-width="1px" opacity="0.25"></line><line x1="0" y1="63.762650602409636" x2="284" y2="63.762650602409636" fill="rgb(0, 0, 0)" stroke="rgb(60, 60, 60)" stroke-width="1px" opacity="0.25"></line><line x1="0" y1="44.889759036144596" x2="284" y2="44.889759036144596" fill="rgb(0, 0, 0)" stroke="rgb(60, 60, 60)" stroke-width="1px" opacity="0.25"></line><line x1="0" y1="26.016867469879514" x2="284" y2="26.016867469879514" fill="rgb(0, 0, 0)" stroke="rgb(60, 60, 60)" stroke-width="1px" opacity="0.25"></line><line x1="0" y1="7.143975903614461" x2="284" y2="7.143975903614461" fill="rgb(0, 0, 0)" stroke="rgb(60, 60, 60)" stroke-width="1px" opacity="0.25"></line></g></g></g><g><g><line x1="0" y1="177" x2="284" y2="177" fill="rgb(0, 0, 0)" stroke="rgb(153, 153, 153)" stroke-width="1.5px"></line></g></g><g><g><line x1="22.11279461279461" y1="0" x2="22.11279461279461" y2="177" fill="rgb(0, 0, 0)" stroke="rgb(153, 153, 153)" stroke-width="1.5px"></line></g></g><g><g><g><g><g><path stroke="rgb(0, 119, 187)" stroke-width="2px" d="M22.568079124579125,176.36030424775203L44.10653872053872,176.23683847011242L58.71066498316498,172.64123377618313L77.55243939393938,148.02629835191044L80.70440909090908,142.3528445476155L83.85637878787878,162.3031323319577L84.38170707070707,163.329462230212L87.53367676767677,153.21707254920685L90.68564646464647,127.0651552469773L114.25537542087542,91.68243292707281L117.40734511784513,123.16365950811486L120.5593148148148,103.45779389300286L123.7112845117845,106.43221427210291L126.8632542087542,87.87279354912836L130.0152239057239,51.157794890653875L133.1671936026936,66.93768812096894L138.245367003367,114.92368115111435L141.3973367003367,106.58590680193011L143.91891245791246,111.10583187741767L148.01647306397305,101.17799334195378L151.16844276094275,68.51083762891379L154.32041245791245,64.216923667256L157.47238215488215,93.2281521973746L160.62435185185183,60.48786764989269L163.77632154882153,56.22159172735992L165.87763468013466,101.89775090307708L165.87763468013466,103.95317806598435L169.9401734006734,76.93713243130718L173.0921430976431,61.39490250859572L176.2441127946128,95.76255057807495L179.3960824915825,75.55779680379969L182.5480521885522,64.50794230276098L188.8519915824916,73.98892812441105L201.9151548821549,64.70238153438625L205.0671245791246,77.9281969600304L208.21909427609424,42.74256206873332L211.37106397306394,43.85541022995241L214.52303367003364,54.34496449413359L217.67500336700334,76.55736683438276L220.82697306397304,46.243943304071024L223.97894276094274,62.0268657953215L227.13091245791244,66.83836418245602L232.90952356902355,32.22151296301553L236.06149326599325,49.18469191417998L238.0927626262626,142.62463159816613L241.2447323232323,68.62568003618364L244.396702020202,35.59182931976727L247.54867171717171,48.79364584417465L250.70064141414142,65.25828162183478L253.8526111111111,53.224538622852506L255.95392424242422,34.39858808621776L257.9851936026936,49.97181794414993L261.1371632996633,32.31200321425902L271.8538602693602,170.03372659730044L271.5036414141414,166.96522591962585L274.6556111111111,166.3898559404872" style="fill: none;" fill="none"></path></g></g></g></g><g opacity="0.2"><g><g><g><path stroke="rgb(0, 119, 187)" stroke-width="2px" d="M22.568079124579125,176.36030424775203L44.10653872053872,176.23128251011866L58.71066498316498,172.47215046545108L77.55243939393938,146.86653797759348L80.70440909090908,142.0855101242841L83.85637878787878,163.2431980750288L84.38170707070707,163.37782332449254L87.53367676767677,152.74057251206006L90.68564646464647,125.83286595003432L114.25537542087542,90.01518423137176L117.40734511784513,124.64706809046757L120.5593148148148,102.52924525145308L123.7112845117845,106.57237020619662L126.8632542087542,86.99826587108245L130.0152239057239,49.42776877585665L133.1671936026936,67.68124329936074L138.245367003367,117.18480124154004L141.3973367003367,106.19302738233503L143.91891245791246,111.31881264013698L148.01647306397305,100.71018943190575L151.16844276094275,66.97154756913703L154.32041245791245,64.01459264288466L157.47238215488215,94.59517343701368L160.62435185185183,58.94513172880713L163.77632154882153,56.02056301896832L165.87763468013466,104.05003065481243L165.87763468013466,104.05003065481243L169.9401734006734,75.66412504537996L173.0921430976431,60.662546124803015L176.2441127946128,97.38196854993522L179.3960824915825,74.60574034323176L182.5480521885522,63.987268530460724L188.8519915824916,74.43567614742074L201.9151548821549,64.26479556941125L205.0671245791246,78.5514029224953L208.21909427609424,41.08460021521671L211.37106397306394,43.90784810142344L214.52303367003364,54.839236684592365L217.67500336700334,77.60402453627931L220.82697306397304,44.81556209060082L223.97894276094274,62.7705637137574L227.13091245791244,67.06508400174508L232.90952356902355,30.59035243435079L236.06149326599325,49.98400401135525L238.0927626262626,147.02756069322308L241.2447323232323,65.13881844425777L244.396702020202,34.035260437841885L247.54867171717171,49.41572096836137L250.70064141414142,66.03410215586065L253.8526111111111,52.65750361242927L255.95392424242422,33.51150141171664L257.9851936026936,50.705635057874474L261.1371632996633,31.479865347405507L271.8538602693602,176.52323188760082L271.5036414141414,166.82063688245793L274.6556111111111,166.36274426607753" style="fill: none;" fill="none"></path></g></g></g></g></g></g><g transform="translate(46, 177)" clip-path="url(#clip_1)"><clipPath id="clip_1"><rect width="284" height="23"></rect></clipPath><g><g><line x1="22.11279461279461" y1="0" x2="22.11279461279461" y2="5" style="visibility: inherit;" fill="rgb(0, 0, 0)" stroke="rgb(204, 204, 204)" stroke-width="1px"></line><line x1="57.13468013468013" y1="0" x2="57.13468013468013" y2="5" style="visibility: inherit;" fill="rgb(0, 0, 0)" stroke="rgb(204, 204, 204)" stroke-width="1px"></line><line x1="92.15656565656566" y1="0" x2="92.15656565656566" y2="5" style="visibility: inherit;" fill="rgb(0, 0, 0)" stroke="rgb(204, 204, 204)" stroke-width="1px"></line><line x1="127.17845117845117" y1="0" x2="127.17845117845117" y2="5" style="visibility: inherit;" fill="rgb(0, 0, 0)" stroke="rgb(204, 204, 204)" stroke-width="1px"></line><line x1="162.20033670033672" y1="0" x2="162.20033670033672" y2="5" style="visibility: inherit;" fill="rgb(0, 0, 0)" stroke="rgb(204, 204, 204)" stroke-width="1px"></line><line x1="197.22222222222223" y1="0" x2="197.22222222222223" y2="5" style="visibility: inherit;" fill="rgb(0, 0, 0)" stroke="rgb(204, 204, 204)" stroke-width="1px"></line><line x1="232.24410774410774" y1="0" x2="232.24410774410774" y2="5" style="visibility: inherit;" fill="rgb(0, 0, 0)" stroke="rgb(204, 204, 204)" stroke-width="1px"></line><line x1="267.26599326599325" y1="0" x2="267.26599326599325" y2="5" style="visibility: inherit;" fill="rgb(0, 0, 0)" stroke="rgb(204, 204, 204)" stroke-width="1px"></line></g><g transform="translate(0, 8)"><text x="22.11279461279461" y="0" dx="0em" dy="0.95em" style="text-anchor: middle; visibility: inherit; font-family: &quot;Helvetica Neue&quot;, sans-serif; font-size: 12px; font-weight: 200;" fill="rgb(50, 49, 63)" stroke="none" stroke-width="1px">0</text><text x="57.13468013468013" y="0" dx="0em" dy="0.95em" style="text-anchor: middle; visibility: inherit; font-family: &quot;Helvetica Neue&quot;, sans-serif; font-size: 12px; font-weight: 200;" fill="rgb(50, 49, 63)" stroke="none" stroke-width="1px">100k</text><text x="92.15656565656566" y="0" dx="0em" dy="0.95em" style="text-anchor: middle; visibility: inherit; font-family: &quot;Helvetica Neue&quot;, sans-serif; font-size: 12px; font-weight: 200;" fill="rgb(50, 49, 63)" stroke="none" stroke-width="1px">200k</text><text x="127.17845117845117" y="0" dx="0em" dy="0.95em" style="text-anchor: middle; visibility: inherit; font-family: &quot;Helvetica Neue&quot;, sans-serif; font-size: 12px; font-weight: 200;" fill="rgb(50, 49, 63)" stroke="none" stroke-width="1px">300k</text><text x="162.20033670033672" y="0" dx="0em" dy="0.95em" style="text-anchor: middle; visibility: inherit; font-family: &quot;Helvetica Neue&quot;, sans-serif; font-size: 12px; font-weight: 200;" fill="rgb(50, 49, 63)" stroke="none" stroke-width="1px">400k</text><text x="197.22222222222223" y="0" dx="0em" dy="0.95em" style="text-anchor: middle; visibility: inherit; font-family: &quot;Helvetica Neue&quot;, sans-serif; font-size: 12px; font-weight: 200;" fill="rgb(50, 49, 63)" stroke="none" stroke-width="1px">500k</text><text x="232.24410774410774" y="0" dx="0em" dy="0.95em" style="text-anchor: middle; visibility: inherit; font-family: &quot;Helvetica Neue&quot;, sans-serif; font-size: 12px; font-weight: 200;" fill="rgb(50, 49, 63)" stroke="none" stroke-width="1px">600k</text><text x="267.26599326599325" y="0" dx="0em" dy="0.95em" style="text-anchor: middle; visibility: inherit; font-family: &quot;Helvetica Neue&quot;, sans-serif; font-size: 12px; font-weight: 200;" fill="rgb(50, 49, 63)" stroke="none" stroke-width="1px">700k</text></g><line x1="0" y1="0" x2="284" y2="0" fill="rgb(0, 0, 0)" stroke="rgb(204, 204, 204)" stroke-width="1px"></line></g></g></g></g></svg>