<svg viewBox="0 0 330 200" xmlns="http://www.w3.org/2000/svg"><g><g><g><g><g><line x1="55" y1="176.58882668607015" x2="50" y2="176.58882668607015" style="visibility: inherit;" fill="rgb(0, 0, 0)" stroke="rgb(204, 204, 204)" stroke-width="1px"></line><line x1="55" y1="163.79300625253697" x2="50" y2="163.79300625253697" style="visibility: inherit;" fill="rgb(0, 0, 0)" stroke="rgb(204, 204, 204)" stroke-width="1px"></line><line x1="55" y1="150.9971858190038" x2="50" y2="150.9971858190038" style="visibility: inherit;" fill="rgb(0, 0, 0)" stroke="rgb(204, 204, 204)" stroke-width="1px"></line><line x1="55" y1="138.2013653854706" x2="50" y2="138.2013653854706" style="visibility: inherit;" fill="rgb(0, 0, 0)" stroke="rgb(204, 204, 204)" stroke-width="1px"></line><line x1="55" y1="125.40554495193743" x2="50" y2="125.40554495193743" style="visibility: inherit;" fill="rgb(0, 0, 0)" stroke="rgb(204, 204, 204)" stroke-width="1px"></line><line x1="55" y1="112.60972451840426" x2="50" y2="112.60972451840426" style="visibility: inherit;" fill="rgb(0, 0, 0)" stroke="rgb(204, 204, 204)" stroke-width="1px"></line><line x1="55" y1="99.81390408487108" x2="50" y2="99.81390408487108" style="visibility: inherit;" fill="rgb(0, 0, 0)" stroke="rgb(204, 204, 204)" stroke-width="1px"></line><line x1="55" y1="87.0180836513379" x2="50" y2="87.0180836513379" style="visibility: inherit;" fill="rgb(0, 0, 0)" stroke="rgb(204, 204, 204)" stroke-width="1px"></line><line x1="55" y1="74.22226321780472" x2="50" y2="74.22226321780472" style="visibility: inherit;" fill="rgb(0, 0, 0)" stroke="rgb(204, 204, 204)" stroke-width="1px"></line><line x1="55" y1="61.42644278427154" x2="50" y2="61.42644278427154" style="visibility: inherit;" fill="rgb(0, 0, 0)" stroke="rgb(204, 204, 204)" stroke-width="1px"></line><line x1="55" y1="48.63062235073838" x2="50" y2="48.63062235073838" style="visibility: inherit;" fill="rgb(0, 0, 0)" stroke="rgb(204, 204, 204)" stroke-width="1px"></line><line x1="55" y1="35.8348019172052" x2="50" y2="35.8348019172052" style="visibility: inherit;" fill="rgb(0, 0, 0)" stroke="rgb(204, 204, 204)" stroke-width="1px"></line><line x1="55" y1="23.038981483672018" x2="50" y2="23.038981483672018" style="visibility: inherit;" fill="rgb(0, 0, 0)" stroke="rgb(204, 204, 204)" stroke-width="1px"></line><line x1="55" y1="10.243161050138838" x2="50" y2="10.243161050138838" style="visibility: inherit;" fill="rgb(0, 0, 0)" stroke="rgb(204, 204, 204)" stroke-width="1px"></line></g><g transform="translate(45, 0)"><text x="0" y="176.58882668607015" dx="0em" dy="0.3em" style="text-anchor: end; visibility: hidden; font-family: &quot;Helvetica Neue&quot;, sans-serif; font-size: 12px; font-weight: 200;" fill="rgb(50, 49, 63)" stroke="none" stroke-width="1px">-0.01</text><text x="0" y="163.79300625253697" dx="0em" dy="0.3em" style="text-anchor: end; visibility: inherit; font-family: &quot;Helvetica Neue&quot;, sans-serif; font-size: 12px; font-weight: 200;" fill="rgb(50, 49, 63)" stroke="none" stroke-width="1px">-5e-3</text><text x="0" y="150.9971858190038" dx="0em" dy="0.3em" style="text-anchor: end; visibility: hidden; font-family: &quot;Helvetica Neue&quot;, sans-serif; font-size: 12px; font-weight: 200;" fill="rgb(50, 49, 63)" stroke="none" stroke-width="1px">0</text><text x="0" y="138.2013653854706" dx="0em" dy="0.3em" style="text-anchor: end; visibility: inherit; font-family: &quot;Helvetica Neue&quot;, sans-serif; font-size: 12px; font-weight: 200;" fill="rgb(50, 49, 63)" stroke="none" stroke-width="1px">5e-3</text><text x="0" y="125.40554495193743" dx="0em" dy="0.3em" style="text-anchor: end; visibility: hidden; font-family: &quot;Helvetica Neue&quot;, sans-serif; font-size: 12px; font-weight: 200;" fill="rgb(50, 49, 63)" stroke="none" stroke-width="1px">0.01</text><text x="0" y="112.60972451840426" dx="0em" dy="0.3em" style="text-anchor: end; visibility: inherit; font-family: &quot;Helvetica Neue&quot;, sans-serif; font-size: 12px; font-weight: 200;" fill="rgb(50, 49, 63)" stroke="none" stroke-width="1px">0.015</text><text x="0" y="99.81390408487108" dx="0em" dy="0.3em" style="text-anchor: end; visibility: hidden; font-family: &quot;Helvetica Neue&quot;, sans-serif; font-size: 12px; font-weight: 200;" fill="rgb(50, 49, 63)" stroke="none" stroke-width="1px">0.02</text><text x="0" y="87.0180836513379" dx="0em" dy="0.3em" style="text-anchor: end; visibility: inherit; font-family: &quot;Helvetica Neue&quot;, sans-serif; font-size: 12px; font-weight: 200;" fill="rgb(50, 49, 63)" stroke="none" stroke-width="1px">0.025</text><text x="0" y="74.22226321780472" dx="0em" dy="0.3em" style="text-anchor: end; visibility: hidden; font-family: &quot;Helvetica Neue&quot;, sans-serif; font-size: 12px; font-weight: 200;" fill="rgb(50, 49, 63)" stroke="none" stroke-width="1px">0.03</text><text x="0" y="61.42644278427154" dx="0em" dy="0.3em" style="text-anchor: end; visibility: inherit; font-family: &quot;Helvetica Neue&quot;, sans-serif; font-size: 12px; font-weight: 200;" fill="rgb(50, 49, 63)" stroke="none" stroke-width="1px">0.035</text><text x="0" y="48.63062235073838" dx="0em" dy="0.3em" style="text-anchor: end; visibility: hidden; font-family: &quot;Helvetica Neue&quot;, sans-serif; font-size: 12px; font-weight: 200;" fill="rgb(50, 49, 63)" stroke="none" stroke-width="1px">0.04</text><text x="0" y="35.8348019172052" dx="0em" dy="0.3em" style="text-anchor: end; visibility: inherit; font-family: &quot;Helvetica Neue&quot;, sans-serif; font-size: 12px; font-weight: 200;" fill="rgb(50, 49, 63)" stroke="none" stroke-width="1px">0.045</text><text x="0" y="23.038981483672018" dx="0em" dy="0.3em" style="text-anchor: end; visibility: hidden; font-family: &quot;Helvetica Neue&quot;, sans-serif; font-size: 12px; font-weight: 200;" fill="rgb(50, 49, 63)" stroke="none" stroke-width="1px">0.05</text><text x="0" y="10.243161050138838" dx="0em" dy="0.3em" style="text-anchor: end; visibility: inherit; font-family: &quot;Helvetica Neue&quot;, sans-serif; font-size: 12px; font-weight: 200;" fill="rgb(50, 49, 63)" stroke="none" stroke-width="1px">0.055</text></g><line x1="55" y1="0" x2="55" y2="177" fill="rgb(0, 0, 0)" stroke="rgb(204, 204, 204)" stroke-width="1px"></line></g></g><g transform="translate(55, 0)" clip-path="url(#clip_0)"><clipPath id="clip_0"><rect width="275" height="177"></rect></clipPath><g><g><g><line x1="11.323504304833145" y1="0" x2="11.323504304833145" y2="177" fill="rgb(0, 0, 0)" stroke="rgb(60, 60, 60)" stroke-width="1px" opacity="0.25"></line><line x1="46.48688601277453" y1="0" x2="46.48688601277453" y2="177" fill="rgb(0, 0, 0)" stroke="rgb(60, 60, 60)" stroke-width="1px" opacity="0.25"></line><line x1="81.65026772071589" y1="0" x2="81.65026772071589" y2="177" fill="rgb(0, 0, 0)" stroke="rgb(60, 60, 60)" stroke-width="1px" opacity="0.25"></line><line x1="116.81364942865727" y1="0" x2="116.81364942865727" y2="177" fill="rgb(0, 0, 0)" stroke="rgb(60, 60, 60)" stroke-width="1px" opacity="0.25"></line><line x1="151.97703113659867" y1="0" x2="151.97703113659867" y2="177" fill="rgb(0, 0, 0)" stroke="rgb(60, 60, 60)" stroke-width="1px" opacity="0.25"></line><line x1="187.14041284454004" y1="0" x2="187.14041284454004" y2="177" fill="rgb(0, 0, 0)" stroke="rgb(60, 60, 60)" stroke-width="1px" opacity="0.25"></line><line x1="222.30379455248143" y1="0" x2="222.30379455248143" y2="177" fill="rgb(0, 0, 0)" stroke="rgb(60, 60, 60)" stroke-width="1px" opacity="0.25"></line><line x1="257.4671762604228" y1="0" x2="257.4671762604228" y2="177" fill="rgb(0, 0, 0)" stroke="rgb(60, 60, 60)" stroke-width="1px" opacity="0.25"></line></g><g><line x1="0" y1="176.58882668607015" x2="275" y2="176.58882668607015" fill="rgb(0, 0, 0)" stroke="rgb(60, 60, 60)" stroke-width="1px" opacity="0.25"></line><line x1="0" y1="163.79300625253697" x2="275" y2="163.79300625253697" fill="rgb(0, 0, 0)" stroke="rgb(60, 60, 60)" stroke-width="1px" opacity="0.25"></line><line x1="0" y1="150.9971858190038" x2="275" y2="150.9971858190038" fill="rgb(0, 0, 0)" stroke="rgb(60, 60, 60)" stroke-width="1px" opacity="0.25"></line><line x1="0" y1="138.2013653854706" x2="275" y2="138.2013653854706" fill="rgb(0, 0, 0)" stroke="rgb(60, 60, 60)" stroke-width="1px" opacity="0.25"></line><line x1="0" y1="125.40554495193743" x2="275" y2="125.40554495193743" fill="rgb(0, 0, 0)" stroke="rgb(60, 60, 60)" stroke-width="1px" opacity="0.25"></line><line x1="0" y1="112.60972451840426" x2="275" y2="112.60972451840426" fill="rgb(0, 0, 0)" stroke="rgb(60, 60, 60)" stroke-width="1px" opacity="0.25"></line><line x1="0" y1="99.81390408487108" x2="275" y2="99.81390408487108" fill="rgb(0, 0, 0)" stroke="rgb(60, 60, 60)" stroke-width="1px" opacity="0.25"></line><line x1="0" y1="87.0180836513379" x2="275" y2="87.0180836513379" fill="rgb(0, 0, 0)" stroke="rgb(60, 60, 60)" stroke-width="1px" opacity="0.25"></line><line x1="0" y1="74.22226321780472" x2="275" y2="74.22226321780472" fill="rgb(0, 0, 0)" stroke="rgb(60, 60, 60)" stroke-width="1px" opacity="0.25"></line><line x1="0" y1="61.42644278427154" x2="275" y2="61.42644278427154" fill="rgb(0, 0, 0)" stroke="rgb(60, 60, 60)" stroke-width="1px" opacity="0.25"></line><line x1="0" y1="48.63062235073838" x2="275" y2="48.63062235073838" fill="rgb(0, 0, 0)" stroke="rgb(60, 60, 60)" stroke-width="1px" opacity="0.25"></line><line x1="0" y1="35.8348019172052" x2="275" y2="35.8348019172052" fill="rgb(0, 0, 0)" stroke="rgb(60, 60, 60)" stroke-width="1px" opacity="0.25"></line><line x1="0" y1="23.038981483672018" x2="275" y2="23.038981483672018" fill="rgb(0, 0, 0)" stroke="rgb(60, 60, 60)" stroke-width="1px" opacity="0.25"></line><line x1="0" y1="10.243161050138838" x2="275" y2="10.243161050138838" fill="rgb(0, 0, 0)" stroke="rgb(60, 60, 60)" stroke-width="1px" opacity="0.25"></line></g></g></g><g><g><line x1="0" y1="150.9971858190038" x2="275" y2="150.9971858190038" fill="rgb(0, 0, 0)" stroke="rgb(153, 153, 153)" stroke-width="1.5px"></line></g></g><g><g><line x1="11.323504304833145" y1="0" x2="11.323504304833145" y2="177" fill="rgb(0, 0, 0)" stroke="rgb(153, 153, 153)" stroke-width="1.5px"></line></g></g><g><g><g><g><g><path stroke="rgb(0, 119, 187)" stroke-width="2px" d="M11.780628267036382,150.9971858190038L33.40610801742033,150.2132227934094L48.06923818963188,144.48058752968774L66.98713754850435,112.21519944042434L70.15184190221908,121.14531608214024L73.31654625593379,142.12458323107734L73.84399698155292,122.9195246549263L77.00870133526763,123.69448750843327L80.17340568898236,115.15649781550391L103.8383615784269,101.34423636281022L107.00306593214162,57.350038303515575L110.16777028585636,113.09667982609602L113.33247463957109,73.01838578475967L116.4971789932858,20.00004645748004L119.66188334700053,61.15111019899359L122.82658770071525,114.89283597909741L127.92527804836675,135.53854755739832L131.08998240208146,131.32024969922142L133.62174588505326,84.27193101812996L137.7358615448824,90.32304471349455L140.90056589859714,113.74193227249049L144.06527025231182,122.25976448167467L147.22997460602656,90.33085362480404L150.3946789597413,81.58847247347599L153.559383313456,97.06037282125986L155.6691862159325,92.47591294460618L155.6691862159325,92.26961225015675L159.74813849405368,66.71369170572733L162.91284284776842,77.9744639184299L166.07754720148316,52.1962683569338L169.24225155519787,76.42425229588146L172.4069559089126,81.9583835150061L178.73636461634203,101.07082683784171L191.85230599340417,70.1409825298783L195.0170103471189,96.25953748127L198.18171470083362,28.020980891858216L201.34641905454833,96.86676413231497L204.51112340826307,78.07854793440578L207.67582776197779,85.9652879369707L210.84053211569253,67.3577665696206L214.00523646940727,55.61275236489405L217.16994082312198,75.56357143706357L222.9718988049323,75.19058154043651L226.13660315864703,83.89264115051645L228.17607929770762,132.0884437662368L231.34078365142233,85.00313943159873L234.50548800513707,96.28165644077731L237.6701923588518,77.79447551867348L240.83489671256652,60.46992774208371L243.99960106628126,67.29854978980688L246.1094039687577,81.46434683043519L248.14888010781831,68.13195830176238L251.31358446153303,34.07835548164334L262.07357926416313,145.66735344461534L261.7219454470837,150.6875413311475L264.8866498007984,122.32442266833384" style="fill: none;" fill="none"></path></g></g></g></g><g opacity="0.2"><g><g><g><path stroke="rgb(0, 119, 187)" stroke-width="2px" d="M11.780628267036382,150.9971858190038L33.40610801742033,150.17794445725767L48.06923818963188,144.21101035641124L66.98713754850435,110.69497938203709L70.15184190221908,121.56610519315545L73.31654625593379,143.11313490384723L73.84399698155292,122.01457425832896L77.00870133526763,123.73100408266863L80.17340568898236,114.75418416505852L103.8383615784269,100.69339681791938L107.00306593214162,55.27701326407242L110.16777028585636,115.72348492401866L113.33247463957109,71.12987978281188L116.4971789932858,17.50180010174435L119.66188334700053,63.09016555854136L122.82658770071525,117.42516860747926L127.92527804836675,136.51138213438634L131.08998240208146,131.1214817373178L133.62174588505326,82.05499453577488L137.7358615448824,90.60817572531802L140.90056589859714,114.84544006322852L144.06527025231182,122.66112830304985L147.22997460602656,88.82634997186248L150.3946789597413,81.17652781189508L153.559383313456,97.78941524602455L155.6691862159325,92.25989127502564L155.6691862159325,92.25989127502564L159.74813849405368,65.50948602562333L162.91284284776842,78.50507622164626L166.07754720148316,50.981588984926134L169.24225155519787,77.56588504693133L172.4069559089126,82.21915409601196L178.73636461634203,101.97141317242557L191.85230599340417,68.68355531117847L195.0170103471189,97.49025473028847L198.18171470083362,24.80555152377073L201.34641905454833,100.11080627453545L204.51112340826307,77.19323931775038L207.67582776197779,86.33691442923816L210.84053211569253,66.48097236906483L214.00523646940727,55.059322376189655L217.16994082312198,76.5036623881082L222.9718988049323,75.17300610028131L226.13660315864703,84.30268584418513L228.17607929770762,134.35945017221314L231.34078365142233,82.78446016975712L234.50548800513707,96.81310488623598L237.6701923588518,76.92335181030211L240.83489671256652,59.65358779449569L243.99960106628126,67.62031732085144L246.1094039687577,82.13184512030772L248.14888010781831,67.50373057004481L251.31358446153303,32.4737354534702L262.07357926416313,150.9254737674779L261.7219454470837,150.92409468705736L264.8866498007984,120.98794063710179" style="fill: none;" fill="none"></path></g></g></g></g></g></g><g transform="translate(55, 177)" clip-path="url(#clip_1)"><clipPath id="clip_1"><rect width="275" height="23"></rect></clipPath><g><g><line x1="11.323504304833145" y1="0" x2="11.323504304833145" y2="5" style="visibility: inherit;" fill="rgb(0, 0, 0)" stroke="rgb(204, 204, 204)" stroke-width="1px"></line><line x1="46.48688601277453" y1="0" x2="46.48688601277453" y2="5" style="visibility: inherit;" fill="rgb(0, 0, 0)" stroke="rgb(204, 204, 204)" stroke-width="1px"></line><line x1="81.65026772071589" y1="0" x2="81.65026772071589" y2="5" style="visibility: inherit;" fill="rgb(0, 0, 0)" stroke="rgb(204, 204, 204)" stroke-width="1px"></line><line x1="116.81364942865727" y1="0" x2="116.81364942865727" y2="5" style="visibility: inherit;" fill="rgb(0, 0, 0)" stroke="rgb(204, 204, 204)" stroke-width="1px"></line><line x1="151.97703113659867" y1="0" x2="151.97703113659867" y2="5" style="visibility: inherit;" fill="rgb(0, 0, 0)" stroke="rgb(204, 204, 204)" stroke-width="1px"></line><line x1="187.14041284454004" y1="0" x2="187.14041284454004" y2="5" style="visibility: inherit;" fill="rgb(0, 0, 0)" stroke="rgb(204, 204, 204)" stroke-width="1px"></line><line x1="222.30379455248143" y1="0" x2="222.30379455248143" y2="5" style="visibility: inherit;" fill="rgb(0, 0, 0)" stroke="rgb(204, 204, 204)" stroke-width="1px"></line><line x1="257.4671762604228" y1="0" x2="257.4671762604228" y2="5" style="visibility: inherit;" fill="rgb(0, 0, 0)" stroke="rgb(204, 204, 204)" stroke-width="1px"></line></g><g transform="translate(0, 8)"><text x="11.323504304833145" y="0" dx="0em" dy="0.95em" style="text-anchor: middle; visibility: inherit; font-family: &quot;Helvetica Neue&quot;, sans-serif; font-size: 12px; font-weight: 200;" fill="rgb(50, 49, 63)" stroke="none" stroke-width="1px">0</text><text x="46.48688601277453" y="0" dx="0em" dy="0.95em" style="text-anchor: middle; visibility: inherit; font-family: &quot;Helvetica Neue&quot;, sans-serif; font-size: 12px; font-weight: 200;" fill="rgb(50, 49, 63)" stroke="none" stroke-width="1px">100k</text><text x="81.65026772071589" y="0" dx="0em" dy="0.95em" style="text-anchor: middle; visibility: inherit; font-family: &quot;Helvetica Neue&quot;, sans-serif; font-size: 12px; font-weight: 200;" fill="rgb(50, 49, 63)" stroke="none" stroke-width="1px">200k</text><text x="116.81364942865727" y="0" dx="0em" dy="0.95em" style="text-anchor: middle; visibility: inherit; font-family: &quot;Helvetica Neue&quot;, sans-serif; font-size: 12px; font-weight: 200;" fill="rgb(50, 49, 63)" stroke="none" stroke-width="1px">300k</text><text x="151.97703113659867" y="0" dx="0em" dy="0.95em" style="text-anchor: middle; visibility: inherit; font-family: &quot;Helvetica Neue&quot;, sans-serif; font-size: 12px; font-weight: 200;" fill="rgb(50, 49, 63)" stroke="none" stroke-width="1px">400k</text><text x="187.14041284454004" y="0" dx="0em" dy="0.95em" style="text-anchor: middle; visibility: inherit; font-family: &quot;Helvetica Neue&quot;, sans-serif; font-size: 12px; font-weight: 200;" fill="rgb(50, 49, 63)" stroke="none" stroke-width="1px">500k</text><text x="222.30379455248143" y="0" dx="0em" dy="0.95em" style="text-anchor: middle; visibility: inherit; font-family: &quot;Helvetica Neue&quot;, sans-serif; font-size: 12px; font-weight: 200;" fill="rgb(50, 49, 63)" stroke="none" stroke-width="1px">600k</text><text x="257.4671762604228" y="0" dx="0em" dy="0.95em" style="text-anchor: middle; visibility: inherit; font-family: &quot;Helvetica Neue&quot;, sans-serif; font-size: 12px; font-weight: 200;" fill="rgb(50, 49, 63)" stroke="none" stroke-width="1px">700k</text></g><line x1="0" y1="0" x2="275" y2="0" fill="rgb(0, 0, 0)" stroke="rgb(204, 204, 204)" stroke-width="1px"></line></g></g></g></g></svg>