<svg viewBox="0 0 330 200" xmlns="http://www.w3.org/2000/svg"><g><g><g><g><g><line x1="46" y1="177" x2="41" y2="177" style="visibility: inherit;" fill="rgb(0, 0, 0)" stroke="rgb(204, 204, 204)" stroke-width="1px"></line><line x1="46" y1="152.83987016382014" x2="41" y2="152.83987016382014" style="visibility: inherit;" fill="rgb(0, 0, 0)" stroke="rgb(204, 204, 204)" stroke-width="1px"></line><line x1="46" y1="128.6797403276403" x2="41" y2="128.6797403276403" style="visibility: inherit;" fill="rgb(0, 0, 0)" stroke="rgb(204, 204, 204)" stroke-width="1px"></line><line x1="46" y1="104.51961049146045" x2="41" y2="104.51961049146045" style="visibility: inherit;" fill="rgb(0, 0, 0)" stroke="rgb(204, 204, 204)" stroke-width="1px"></line><line x1="46" y1="80.35948065528059" x2="41" y2="80.35948065528059" style="visibility: inherit;" fill="rgb(0, 0, 0)" stroke="rgb(204, 204, 204)" stroke-width="1px"></line><line x1="46" y1="56.199350819100744" x2="41" y2="56.199350819100744" style="visibility: inherit;" fill="rgb(0, 0, 0)" stroke="rgb(204, 204, 204)" stroke-width="1px"></line><line x1="46" y1="32.03922098292091" x2="41" y2="32.03922098292091" style="visibility: inherit;" fill="rgb(0, 0, 0)" stroke="rgb(204, 204, 204)" stroke-width="1px"></line><line x1="46" y1="7.879091146741047" x2="41" y2="7.879091146741047" style="visibility: inherit;" fill="rgb(0, 0, 0)" stroke="rgb(204, 204, 204)" stroke-width="1px"></line></g><g transform="translate(36, 0)"><text x="0" y="177" dx="0em" dy="0.3em" style="text-anchor: end; visibility: hidden; font-family: &quot;Helvetica Neue&quot;, sans-serif; font-size: 12px; font-weight: 200;" fill="rgb(50, 49, 63)" stroke="none" stroke-width="1px">0</text><text x="0" y="152.83987016382014" dx="0em" dy="0.3em" style="text-anchor: end; visibility: inherit; font-family: &quot;Helvetica Neue&quot;, sans-serif; font-size: 12px; font-weight: 200;" fill="rgb(50, 49, 63)" stroke="none" stroke-width="1px">0.05</text><text x="0" y="128.6797403276403" dx="0em" dy="0.3em" style="text-anchor: end; visibility: inherit; font-family: &quot;Helvetica Neue&quot;, sans-serif; font-size: 12px; font-weight: 200;" fill="rgb(50, 49, 63)" stroke="none" stroke-width="1px">0.1</text><text x="0" y="104.51961049146045" dx="0em" dy="0.3em" style="text-anchor: end; visibility: inherit; font-family: &quot;Helvetica Neue&quot;, sans-serif; font-size: 12px; font-weight: 200;" fill="rgb(50, 49, 63)" stroke="none" stroke-width="1px">0.15</text><text x="0" y="80.35948065528059" dx="0em" dy="0.3em" style="text-anchor: end; visibility: inherit; font-family: &quot;Helvetica Neue&quot;, sans-serif; font-size: 12px; font-weight: 200;" fill="rgb(50, 49, 63)" stroke="none" stroke-width="1px">0.2</text><text x="0" y="56.199350819100744" dx="0em" dy="0.3em" style="text-anchor: end; visibility: inherit; font-family: &quot;Helvetica Neue&quot;, sans-serif; font-size: 12px; font-weight: 200;" fill="rgb(50, 49, 63)" stroke="none" stroke-width="1px">0.25</text><text x="0" y="32.03922098292091" dx="0em" dy="0.3em" style="text-anchor: end; visibility: inherit; font-family: &quot;Helvetica Neue&quot;, sans-serif; font-size: 12px; font-weight: 200;" fill="rgb(50, 49, 63)" stroke="none" stroke-width="1px">0.3</text><text x="0" y="7.879091146741047" dx="0em" dy="0.3em" style="text-anchor: end; visibility: inherit; font-family: &quot;Helvetica Neue&quot;, sans-serif; font-size: 12px; font-weight: 200;" fill="rgb(50, 49, 63)" stroke="none" stroke-width="1px">0.35</text></g><line x1="46" y1="0" x2="46" y2="177" fill="rgb(0, 0, 0)" stroke="rgb(204, 204, 204)" stroke-width="1px"></line></g></g><g transform="translate(46, 0)" clip-path="url(#clip_0)"><clipPath id="clip_0"><rect width="284" height="177"></rect></clipPath><g><g><g><line x1="9.435876885608492" y1="0" x2="9.435876885608492" y2="177" fill="rgb(0, 0, 0)" stroke="rgb(60, 60, 60)" stroke-width="1px" opacity="0.25"></line><line x1="46.14188349611074" y1="0" x2="46.14188349611074" y2="177" fill="rgb(0, 0, 0)" stroke="rgb(60, 60, 60)" stroke-width="1px" opacity="0.25"></line><line x1="82.84789010661301" y1="0" x2="82.84789010661301" y2="177" fill="rgb(0, 0, 0)" stroke="rgb(60, 60, 60)" stroke-width="1px" opacity="0.25"></line><line x1="119.55389671711525" y1="0" x2="119.55389671711525" y2="177" fill="rgb(0, 0, 0)" stroke="rgb(60, 60, 60)" stroke-width="1px" opacity="0.25"></line><line x1="156.2599033276175" y1="0" x2="156.2599033276175" y2="177" fill="rgb(0, 0, 0)" stroke="rgb(60, 60, 60)" stroke-width="1px" opacity="0.25"></line><line x1="192.96590993811975" y1="0" x2="192.96590993811975" y2="177" fill="rgb(0, 0, 0)" stroke="rgb(60, 60, 60)" stroke-width="1px" opacity="0.25"></line><line x1="229.671916548622" y1="0" x2="229.671916548622" y2="177" fill="rgb(0, 0, 0)" stroke="rgb(60, 60, 60)" stroke-width="1px" opacity="0.25"></line><line x1="266.37792315912424" y1="0" x2="266.37792315912424" y2="177" fill="rgb(0, 0, 0)" stroke="rgb(60, 60, 60)" stroke-width="1px" opacity="0.25"></line></g><g><line x1="0" y1="177" x2="284" y2="177" fill="rgb(0, 0, 0)" stroke="rgb(60, 60, 60)" stroke-width="1px" opacity="0.25"></line><line x1="0" y1="152.83987016382014" x2="284" y2="152.83987016382014" fill="rgb(0, 0, 0)" stroke="rgb(60, 60, 60)" stroke-width="1px" opacity="0.25"></line><line x1="0" y1="128.6797403276403" x2="284" y2="128.6797403276403" fill="rgb(0, 0, 0)" stroke="rgb(60, 60, 60)" stroke-width="1px" opacity="0.25"></line><line x1="0" y1="104.51961049146045" x2="284" y2="104.51961049146045" fill="rgb(0, 0, 0)" stroke="rgb(60, 60, 60)" stroke-width="1px" opacity="0.25"></line><line x1="0" y1="80.35948065528059" x2="284" y2="80.35948065528059" fill="rgb(0, 0, 0)" stroke="rgb(60, 60, 60)" stroke-width="1px" opacity="0.25"></line><line x1="0" y1="56.199350819100744" x2="284" y2="56.199350819100744" fill="rgb(0, 0, 0)" stroke="rgb(60, 60, 60)" stroke-width="1px" opacity="0.25"></line><line x1="0" y1="32.03922098292091" x2="284" y2="32.03922098292091" fill="rgb(0, 0, 0)" stroke="rgb(60, 60, 60)" stroke-width="1px" opacity="0.25"></line><line x1="0" y1="7.879091146741047" x2="284" y2="7.879091146741047" fill="rgb(0, 0, 0)" stroke="rgb(60, 60, 60)" stroke-width="1px" opacity="0.25"></line></g></g></g><g><g><line x1="0" y1="177" x2="284" y2="177" fill="rgb(0, 0, 0)" stroke="rgb(153, 153, 153)" stroke-width="1.5px"></line></g></g><g><g><line x1="9.435876885608492" y1="0" x2="9.435876885608492" y2="177" fill="rgb(0, 0, 0)" stroke="rgb(153, 153, 153)" stroke-width="1.5px"></line></g></g><g><g><g><g><g><path stroke="rgb(0, 119, 187)" stroke-width="2px" d="M9.913054971545021,175.80543882013885L32.487249037003906,175.31403372070386L47.79365379358334,168.17823777592267L67.54148535003355,142.749911577249L70.84502594497876,123.44304737150316L74.14856653992396,150.36336791841774L74.6991566390815,156.1893693958324L78.0026972340267,120.50770070584818L81.3062378289719,110.86668451014182L106.00938027783992,79.5694217418617L109.31292087278513,88.33794099147455L112.61646146773033,85.5624689140735L115.92000206267554,77.55529383491942L119.22354265762075,60.60362467028433L122.52708325256594,46.309426553946224L125.83062384751115,61.055390512798354L131.15299480603397,94.24447973120739L134.45653540097916,94.00780990004564L137.09936787693533,105.44549138831566L141.3939706503641,63.6835073478194L144.6975112453093,48.75363366418995L148.00105184025452,46.87006729624116L151.3045924351997,58.29780088953204L154.6081330301449,39.93401371271702L157.91167362509012,31.30961247973579L160.11403402172024,67.83975290143513L160.11403402172024,69.48360922041161L164.37193078853852,51.53322238570743L167.6754713834837,41.17837684495393L170.9790119784289,71.8074460192227L174.28255257337412,58.00715756955938L177.5860931683193,65.69316357322926L184.19317435820975,66.13530158409398L197.88451482392705,66.48439908643942L201.18805541887227,45.222022242150956L204.49159601381746,35.5488589905315L207.79513660876265,41.349117012541626L211.09867720370787,34.49936696689613L214.40221779865306,45.62706193576574L217.70575839359827,33.509802900391264L221.00929898854346,50.38754329431052L224.31283958348865,48.578549527500485L230.36933067422154,38.51864967112428L233.67287126916676,41.58866586047222L235.8018196525759,124.1610995524485L239.10536024752108,48.454188600108296L242.40890084246627,22.297055064306136L245.71244143741148,32.47723952689833L249.01598203235667,38.15321065150977L252.3195226273019,34.42678930876738L254.52188302393202,35.94078775809035L256.6508314073412,41.80922784840578L259.9543720022864,11.833231110287329L271.18641002510003,168.2871978392469L270.819349958995,158.69053418429317L274.12289055394024,156.28645227330864" style="fill: none;" fill="none"></path></g></g></g></g><g opacity="0.2"><g><g><g><path stroke="rgb(0, 119, 187)" stroke-width="2px" d="M9.913054971545021,175.80543882013885L32.487249037003906,175.2919204912293L47.79365379358334,167.8426769716193L67.54148535003355,141.55182738153152L70.84502594497876,122.53330357401717L74.14856653992396,151.63186446404194L74.6991566390815,156.46389302337863L78.0026972340267,118.82636553260284L81.3062378289719,110.4123957888858L106.00938027783992,78.09468161142031L109.31292087278513,88.7511172911945L112.61646146773033,85.431687507285L115.92000206267554,77.17799239139907L119.22354265762075,59.804854919071175L122.52708325256594,45.63587795160569L125.83062384751115,61.750226510859434L131.15299480603397,95.80836351636802L134.45653540097916,93.99665791847256L137.09936787693533,105.98443973069487L141.3939706503641,61.715665167900724L144.6975112453093,48.050131762867096L148.00105184025452,46.781312860055095L151.3045924351997,58.83628048293318L154.6081330301449,39.06870436930686L157.91167362509012,30.903227081323053L160.11403402172024,69.56106841868798L160.11403402172024,69.56106841868798L164.37193078853852,50.68739263956954L167.6754713834837,40.69045218596554L170.9790119784289,73.25070058764373L174.28255257337412,57.356882197585705L177.5860931683193,66.0553313953917L184.19317435820975,66.1561353123546L197.88451482392705,66.5008487069688L201.18805541887227,44.220130139540515L204.49159601381746,35.09305548652847L207.79513660876265,41.622427599966215L211.09867720370787,34.176603875740085L214.40221779865306,46.15140358351351L217.70575839359827,32.93883257935266L221.00929898854346,51.1828294908826L224.31283958348865,48.49330898351468L230.36933067422154,38.04462297632125L233.67287126916676,41.733326309184974L235.8018196525759,128.05194721332697L239.10536024752108,44.886847246333105L242.40890084246627,21.06451997623168L245.71244143741148,32.95693408272729L249.01598203235667,38.42066478827155L252.3195226273019,34.25119877429262L254.52188302393202,36.01212799915791L256.6508314073412,42.08575120344682L259.9543720022864,10.420749588595868L271.18641002510003,175.65937428197273L270.819349958995,158.23833537332678L274.12289055394024,156.17317092671775" style="fill: none;" fill="none"></path></g></g></g></g></g></g><g transform="translate(46, 177)" clip-path="url(#clip_1)"><clipPath id="clip_1"><rect width="284" height="23"></rect></clipPath><g><g><line x1="9.435876885608492" y1="0" x2="9.435876885608492" y2="5" style="visibility: inherit;" fill="rgb(0, 0, 0)" stroke="rgb(204, 204, 204)" stroke-width="1px"></line><line x1="46.14188349611074" y1="0" x2="46.14188349611074" y2="5" style="visibility: inherit;" fill="rgb(0, 0, 0)" stroke="rgb(204, 204, 204)" stroke-width="1px"></line><line x1="82.84789010661301" y1="0" x2="82.84789010661301" y2="5" style="visibility: inherit;" fill="rgb(0, 0, 0)" stroke="rgb(204, 204, 204)" stroke-width="1px"></line><line x1="119.55389671711525" y1="0" x2="119.55389671711525" y2="5" style="visibility: inherit;" fill="rgb(0, 0, 0)" stroke="rgb(204, 204, 204)" stroke-width="1px"></line><line x1="156.2599033276175" y1="0" x2="156.2599033276175" y2="5" style="visibility: inherit;" fill="rgb(0, 0, 0)" stroke="rgb(204, 204, 204)" stroke-width="1px"></line><line x1="192.96590993811975" y1="0" x2="192.96590993811975" y2="5" style="visibility: inherit;" fill="rgb(0, 0, 0)" stroke="rgb(204, 204, 204)" stroke-width="1px"></line><line x1="229.671916548622" y1="0" x2="229.671916548622" y2="5" style="visibility: inherit;" fill="rgb(0, 0, 0)" stroke="rgb(204, 204, 204)" stroke-width="1px"></line><line x1="266.37792315912424" y1="0" x2="266.37792315912424" y2="5" style="visibility: inherit;" fill="rgb(0, 0, 0)" stroke="rgb(204, 204, 204)" stroke-width="1px"></line></g><g transform="translate(0, 8)"><text x="9.435876885608492" y="0" dx="0em" dy="0.95em" style="text-anchor: middle; visibility: inherit; font-family: &quot;Helvetica Neue&quot;, sans-serif; font-size: 12px; font-weight: 200;" fill="rgb(50, 49, 63)" stroke="none" stroke-width="1px">0</text><text x="46.14188349611074" y="0" dx="0em" dy="0.95em" style="text-anchor: middle; visibility: inherit; font-family: &quot;Helvetica Neue&quot;, sans-serif; font-size: 12px; font-weight: 200;" fill="rgb(50, 49, 63)" stroke="none" stroke-width="1px">100k</text><text x="82.84789010661301" y="0" dx="0em" dy="0.95em" style="text-anchor: middle; visibility: inherit; font-family: &quot;Helvetica Neue&quot;, sans-serif; font-size: 12px; font-weight: 200;" fill="rgb(50, 49, 63)" stroke="none" stroke-width="1px">200k</text><text x="119.55389671711525" y="0" dx="0em" dy="0.95em" style="text-anchor: middle; visibility: inherit; font-family: &quot;Helvetica Neue&quot;, sans-serif; font-size: 12px; font-weight: 200;" fill="rgb(50, 49, 63)" stroke="none" stroke-width="1px">300k</text><text x="156.2599033276175" y="0" dx="0em" dy="0.95em" style="text-anchor: middle; visibility: inherit; font-family: &quot;Helvetica Neue&quot;, sans-serif; font-size: 12px; font-weight: 200;" fill="rgb(50, 49, 63)" stroke="none" stroke-width="1px">400k</text><text x="192.96590993811975" y="0" dx="0em" dy="0.95em" style="text-anchor: middle; visibility: inherit; font-family: &quot;Helvetica Neue&quot;, sans-serif; font-size: 12px; font-weight: 200;" fill="rgb(50, 49, 63)" stroke="none" stroke-width="1px">500k</text><text x="229.671916548622" y="0" dx="0em" dy="0.95em" style="text-anchor: middle; visibility: inherit; font-family: &quot;Helvetica Neue&quot;, sans-serif; font-size: 12px; font-weight: 200;" fill="rgb(50, 49, 63)" stroke="none" stroke-width="1px">600k</text><text x="266.37792315912424" y="0" dx="0em" dy="0.95em" style="text-anchor: middle; visibility: inherit; font-family: &quot;Helvetica Neue&quot;, sans-serif; font-size: 12px; font-weight: 200;" fill="rgb(50, 49, 63)" stroke="none" stroke-width="1px">700k</text></g><line x1="0" y1="0" x2="284" y2="0" fill="rgb(0, 0, 0)" stroke="rgb(204, 204, 204)" stroke-width="1px"></line></g></g></g></g></svg>