<svg viewBox="0 0 330 200" xmlns="http://www.w3.org/2000/svg"><g><g><g><g><g><line x1="46" y1="169.1649702886248" x2="41" y2="169.1649702886248" style="visibility: inherit;" fill="rgb(0, 0, 0)" stroke="rgb(204, 204, 204)" stroke-width="1px"></line><line x1="46" y1="157.3966489813243" x2="41" y2="157.3966489813243" style="visibility: inherit;" fill="rgb(0, 0, 0)" stroke="rgb(204, 204, 204)" stroke-width="1px"></line><line x1="46" y1="145.62832767402378" x2="41" y2="145.62832767402378" style="visibility: inherit;" fill="rgb(0, 0, 0)" stroke="rgb(204, 204, 204)" stroke-width="1px"></line><line x1="46" y1="133.86000636672327" x2="41" y2="133.86000636672327" style="visibility: inherit;" fill="rgb(0, 0, 0)" stroke="rgb(204, 204, 204)" stroke-width="1px"></line><line x1="46" y1="122.09168505942276" x2="41" y2="122.09168505942276" style="visibility: inherit;" fill="rgb(0, 0, 0)" stroke="rgb(204, 204, 204)" stroke-width="1px"></line><line x1="46" y1="110.32336375212223" x2="41" y2="110.32336375212223" style="visibility: inherit;" fill="rgb(0, 0, 0)" stroke="rgb(204, 204, 204)" stroke-width="1px"></line><line x1="46" y1="98.55504244482174" x2="41" y2="98.55504244482174" style="visibility: inherit;" fill="rgb(0, 0, 0)" stroke="rgb(204, 204, 204)" stroke-width="1px"></line><line x1="46" y1="86.78672113752124" x2="41" y2="86.78672113752124" style="visibility: inherit;" fill="rgb(0, 0, 0)" stroke="rgb(204, 204, 204)" stroke-width="1px"></line><line x1="46" y1="75.01839983022072" x2="41" y2="75.01839983022072" style="visibility: inherit;" fill="rgb(0, 0, 0)" stroke="rgb(204, 204, 204)" stroke-width="1px"></line><line x1="46" y1="63.250078522920205" x2="41" y2="63.250078522920205" style="visibility: inherit;" fill="rgb(0, 0, 0)" stroke="rgb(204, 204, 204)" stroke-width="1px"></line><line x1="46" y1="51.48175721561971" x2="41" y2="51.48175721561971" style="visibility: inherit;" fill="rgb(0, 0, 0)" stroke="rgb(204, 204, 204)" stroke-width="1px"></line><line x1="46" y1="39.713435908319184" x2="41" y2="39.713435908319184" style="visibility: inherit;" fill="rgb(0, 0, 0)" stroke="rgb(204, 204, 204)" stroke-width="1px"></line><line x1="46" y1="27.945114601018673" x2="41" y2="27.945114601018673" style="visibility: inherit;" fill="rgb(0, 0, 0)" stroke="rgb(204, 204, 204)" stroke-width="1px"></line><line x1="46" y1="16.17679329371819" x2="41" y2="16.17679329371819" style="visibility: inherit;" fill="rgb(0, 0, 0)" stroke="rgb(204, 204, 204)" stroke-width="1px"></line><line x1="46" y1="4.4084719864176805" x2="41" y2="4.4084719864176805" style="visibility: inherit;" fill="rgb(0, 0, 0)" stroke="rgb(204, 204, 204)" stroke-width="1px"></line></g><g transform="translate(36, 0)"><text x="0" y="169.1649702886248" dx="0em" dy="0.3em" style="text-anchor: end; visibility: inherit; font-family: &quot;Helvetica Neue&quot;, sans-serif; font-size: 12px; font-weight: 200;" fill="rgb(50, 49, 63)" stroke="none" stroke-width="1px">0.04</text><text x="0" y="157.3966489813243" dx="0em" dy="0.3em" style="text-anchor: end; visibility: hidden; font-family: &quot;Helvetica Neue&quot;, sans-serif; font-size: 12px; font-weight: 200;" fill="rgb(50, 49, 63)" stroke="none" stroke-width="1px">0.06</text><text x="0" y="145.62832767402378" dx="0em" dy="0.3em" style="text-anchor: end; visibility: hidden; font-family: &quot;Helvetica Neue&quot;, sans-serif; font-size: 12px; font-weight: 200;" fill="rgb(50, 49, 63)" stroke="none" stroke-width="1px">0.08</text><text x="0" y="133.86000636672327" dx="0em" dy="0.3em" style="text-anchor: end; visibility: inherit; font-family: &quot;Helvetica Neue&quot;, sans-serif; font-size: 12px; font-weight: 200;" fill="rgb(50, 49, 63)" stroke="none" stroke-width="1px">0.1</text><text x="0" y="122.09168505942276" dx="0em" dy="0.3em" style="text-anchor: end; visibility: hidden; font-family: &quot;Helvetica Neue&quot;, sans-serif; font-size: 12px; font-weight: 200;" fill="rgb(50, 49, 63)" stroke="none" stroke-width="1px">0.12</text><text x="0" y="110.32336375212223" dx="0em" dy="0.3em" style="text-anchor: end; visibility: hidden; font-family: &quot;Helvetica Neue&quot;, sans-serif; font-size: 12px; font-weight: 200;" fill="rgb(50, 49, 63)" stroke="none" stroke-width="1px">0.14</text><text x="0" y="98.55504244482174" dx="0em" dy="0.3em" style="text-anchor: end; visibility: inherit; font-family: &quot;Helvetica Neue&quot;, sans-serif; font-size: 12px; font-weight: 200;" fill="rgb(50, 49, 63)" stroke="none" stroke-width="1px">0.16</text><text x="0" y="86.78672113752124" dx="0em" dy="0.3em" style="text-anchor: end; visibility: hidden; font-family: &quot;Helvetica Neue&quot;, sans-serif; font-size: 12px; font-weight: 200;" fill="rgb(50, 49, 63)" stroke="none" stroke-width="1px">0.18</text><text x="0" y="75.01839983022072" dx="0em" dy="0.3em" style="text-anchor: end; visibility: hidden; font-family: &quot;Helvetica Neue&quot;, sans-serif; font-size: 12px; font-weight: 200;" fill="rgb(50, 49, 63)" stroke="none" stroke-width="1px">0.2</text><text x="0" y="63.250078522920205" dx="0em" dy="0.3em" style="text-anchor: end; visibility: inherit; font-family: &quot;Helvetica Neue&quot;, sans-serif; font-size: 12px; font-weight: 200;" fill="rgb(50, 49, 63)" stroke="none" stroke-width="1px">0.22</text><text x="0" y="51.48175721561971" dx="0em" dy="0.3em" style="text-anchor: end; visibility: hidden; font-family: &quot;Helvetica Neue&quot;, sans-serif; font-size: 12px; font-weight: 200;" fill="rgb(50, 49, 63)" stroke="none" stroke-width="1px">0.24</text><text x="0" y="39.713435908319184" dx="0em" dy="0.3em" style="text-anchor: end; visibility: hidden; font-family: &quot;Helvetica Neue&quot;, sans-serif; font-size: 12px; font-weight: 200;" fill="rgb(50, 49, 63)" stroke="none" stroke-width="1px">0.26</text><text x="0" y="27.945114601018673" dx="0em" dy="0.3em" style="text-anchor: end; visibility: inherit; font-family: &quot;Helvetica Neue&quot;, sans-serif; font-size: 12px; font-weight: 200;" fill="rgb(50, 49, 63)" stroke="none" stroke-width="1px">0.28</text><text x="0" y="16.17679329371819" dx="0em" dy="0.3em" style="text-anchor: end; visibility: hidden; font-family: &quot;Helvetica Neue&quot;, sans-serif; font-size: 12px; font-weight: 200;" fill="rgb(50, 49, 63)" stroke="none" stroke-width="1px">0.3</text><text x="0" y="4.4084719864176805" dx="0em" dy="0.3em" style="text-anchor: end; visibility: hidden; font-family: &quot;Helvetica Neue&quot;, sans-serif; font-size: 12px; font-weight: 200;" fill="rgb(50, 49, 63)" stroke="none" stroke-width="1px">0.32</text></g><line x1="46" y1="0" x2="46" y2="177" fill="rgb(0, 0, 0)" stroke="rgb(204, 204, 204)" stroke-width="1px"></line></g></g><g transform="translate(46, 0)" clip-path="url(#clip_0)"><clipPath id="clip_0"><rect width="284" height="177"></rect></clipPath><g><g><g><line x1="9.053252257232357" y1="0" x2="9.053252257232357" y2="177" fill="rgb(0, 0, 0)" stroke="rgb(60, 60, 60)" stroke-width="1px" opacity="0.25"></line><line x1="46.59257988473978" y1="0" x2="46.59257988473978" y2="177" fill="rgb(0, 0, 0)" stroke="rgb(60, 60, 60)" stroke-width="1px" opacity="0.25"></line><line x1="84.1319075122472" y1="0" x2="84.1319075122472" y2="177" fill="rgb(0, 0, 0)" stroke="rgb(60, 60, 60)" stroke-width="1px" opacity="0.25"></line><line x1="121.67123513975461" y1="0" x2="121.67123513975461" y2="177" fill="rgb(0, 0, 0)" stroke="rgb(60, 60, 60)" stroke-width="1px" opacity="0.25"></line><line x1="159.21056276726205" y1="0" x2="159.21056276726205" y2="177" fill="rgb(0, 0, 0)" stroke="rgb(60, 60, 60)" stroke-width="1px" opacity="0.25"></line><line x1="196.74989039476947" y1="0" x2="196.74989039476947" y2="177" fill="rgb(0, 0, 0)" stroke="rgb(60, 60, 60)" stroke-width="1px" opacity="0.25"></line><line x1="234.2892180222769" y1="0" x2="234.2892180222769" y2="177" fill="rgb(0, 0, 0)" stroke="rgb(60, 60, 60)" stroke-width="1px" opacity="0.25"></line><line x1="271.82854564978436" y1="0" x2="271.82854564978436" y2="177" fill="rgb(0, 0, 0)" stroke="rgb(60, 60, 60)" stroke-width="1px" opacity="0.25"></line></g><g><line x1="0" y1="169.1649702886248" x2="284" y2="169.1649702886248" fill="rgb(0, 0, 0)" stroke="rgb(60, 60, 60)" stroke-width="1px" opacity="0.25"></line><line x1="0" y1="157.3966489813243" x2="284" y2="157.3966489813243" fill="rgb(0, 0, 0)" stroke="rgb(60, 60, 60)" stroke-width="1px" opacity="0.25"></line><line x1="0" y1="145.62832767402378" x2="284" y2="145.62832767402378" fill="rgb(0, 0, 0)" stroke="rgb(60, 60, 60)" stroke-width="1px" opacity="0.25"></line><line x1="0" y1="133.86000636672327" x2="284" y2="133.86000636672327" fill="rgb(0, 0, 0)" stroke="rgb(60, 60, 60)" stroke-width="1px" opacity="0.25"></line><line x1="0" y1="122.09168505942276" x2="284" y2="122.09168505942276" fill="rgb(0, 0, 0)" stroke="rgb(60, 60, 60)" stroke-width="1px" opacity="0.25"></line><line x1="0" y1="110.32336375212223" x2="284" y2="110.32336375212223" fill="rgb(0, 0, 0)" stroke="rgb(60, 60, 60)" stroke-width="1px" opacity="0.25"></line><line x1="0" y1="98.55504244482174" x2="284" y2="98.55504244482174" fill="rgb(0, 0, 0)" stroke="rgb(60, 60, 60)" stroke-width="1px" opacity="0.25"></line><line x1="0" y1="86.78672113752124" x2="284" y2="86.78672113752124" fill="rgb(0, 0, 0)" stroke="rgb(60, 60, 60)" stroke-width="1px" opacity="0.25"></line><line x1="0" y1="75.01839983022072" x2="284" y2="75.01839983022072" fill="rgb(0, 0, 0)" stroke="rgb(60, 60, 60)" stroke-width="1px" opacity="0.25"></line><line x1="0" y1="63.250078522920205" x2="284" y2="63.250078522920205" fill="rgb(0, 0, 0)" stroke="rgb(60, 60, 60)" stroke-width="1px" opacity="0.25"></line><line x1="0" y1="51.48175721561971" x2="284" y2="51.48175721561971" fill="rgb(0, 0, 0)" stroke="rgb(60, 60, 60)" stroke-width="1px" opacity="0.25"></line><line x1="0" y1="39.713435908319184" x2="284" y2="39.713435908319184" fill="rgb(0, 0, 0)" stroke="rgb(60, 60, 60)" stroke-width="1px" opacity="0.25"></line><line x1="0" y1="27.945114601018673" x2="284" y2="27.945114601018673" fill="rgb(0, 0, 0)" stroke="rgb(60, 60, 60)" stroke-width="1px" opacity="0.25"></line><line x1="0" y1="16.17679329371819" x2="284" y2="16.17679329371819" fill="rgb(0, 0, 0)" stroke="rgb(60, 60, 60)" stroke-width="1px" opacity="0.25"></line><line x1="0" y1="4.4084719864176805" x2="284" y2="4.4084719864176805" fill="rgb(0, 0, 0)" stroke="rgb(60, 60, 60)" stroke-width="1px" opacity="0.25"></line></g></g></g><g><g><line x1="0" y1="192.7016129032258" x2="284" y2="192.7016129032258" fill="rgb(0, 0, 0)" stroke="rgb(153, 153, 153)" stroke-width="1.5px"></line></g></g><g><g><line x1="9.053252257232357" y1="0" x2="9.053252257232357" y2="177" fill="rgb(0, 0, 0)" stroke="rgb(153, 153, 153)" stroke-width="1.5px"></line></g></g><g><g><g><g><g><path stroke="rgb(0, 119, 187)" stroke-width="2px" d="M9.541263516389954,162.02886070897375L32.62795000730702,145.25633669515975L48.281849627977614,123.01250763143746L68.4780078915766,74.78671782614224L71.85654737805227,100.11581452491346L75.23508686452793,119.78759836701516L75.79817677894056,103.93427300470937L79.17671626541622,117.56820303741628L82.55525575189188,85.30242121953907L107.81922324520438,63.525066874728125L111.19776273168006,59.55605786838552L114.57630221815572,69.54014954461519L117.95484170463138,71.18504656908003L121.33338119110707,59.90075695463136L124.71192067758273,54.012710063085265L128.0904601640584,65.1060579335153L133.53366267004697,75.17015340644191L136.91220215652262,79.80767028906608L139.61503374570316,81.21197144781868L144.00713507812154,79.48174983817022L147.3856745645972,59.67630633898263L150.76421405107288,61.77408944234604L154.14275353754854,62.46629194475517L157.5212930240242,49.94351817777947L160.89983251049986,56.553662378953774L163.15219216815032,58.64454240331786L163.15219216815032,58.73863200441426L167.50675417294119,55.15602733936004L170.88529365941687,57.98383819025943L174.26383314589253,58.11108967854992L177.6423726323682,47.95411891400789L181.02091211884385,41.51900748146875L187.7779910917952,34.65355233555513L201.78016029685548,55.865613916053675L205.15869978333117,32.907940574080214L208.53723926980683,43.23313850720319L211.9157787562825,37.121914029782204L215.29431824275815,37.444711191056115L218.6728577292338,44.035112194762746L222.0513972157095,34.76677704765336L225.42993670218516,49.294850643686615L228.80847618866082,45.763972995646725L235.00246524719955,30.659943197350685L238.38100473367524,35.958317978081055L240.55828573607064,106.14001151478494L243.9368252225463,62.66934327622259L247.31536470902202,39.78996677969934L250.69390419549768,45.33625322176732L254.07244368197334,45.58583611166037L257.450983168449,46.79268024074008L259.70334282609946,46.24917759027193L261.8806238284949,33.670805464935654L265.2591633149705,24.13769453681499L276.74619756898784,158.81278629205346L276.37080429271276,144.54777125800905L279.7493437791884,128.9607052773428" style="fill: none;" fill="none"></path></g></g></g></g><g opacity="0.2"><g><g><g><path stroke="rgb(0, 119, 187)" stroke-width="2px" d="M9.541263516389954,162.02886070897375L32.62795000730702,144.50157311453813L48.281849627977614,121.96649156971591L68.4780078915766,72.51450548545223L71.85654737805227,101.309327276237L75.23508686452793,120.71454089009859L75.79817677894056,103.18725767970427L79.17671626541622,118.21063953086399L82.55525575189188,83.78204406584268L107.81922324520438,62.49890881659644L111.19776273168006,59.36903650159449L114.57630221815572,70.01060412621761L117.95484170463138,71.26255480583492L121.33338119110707,59.36903650159449L124.71192067758273,53.73526282735796L128.0904601640584,65.62878113159839L133.53366267004697,75.64437780045417L136.91220215652262,80.02619202699076L139.61503374570316,81.27814270660807L144.00713507812154,79.40022107122343L147.3856745645972,58.74306554582718L150.76421405107288,61.87293786082911L154.14275353754854,62.49890881659644L157.5212930240242,49.35343983273873L160.89983251049986,56.865135142359904L163.15219216815032,58.74306554582718L163.15219216815032,58.74306554582718L167.50675417294119,54.987213506975266L170.88529365941687,58.11708582197721L174.26383314589253,58.11708582197721L177.6423726323682,47.47551819735409L181.02091211884385,41.21578233543286L187.7779910917952,34.33004921349638L201.78016029685548,56.865135142359904L205.15869978333117,31.826165390427036L208.53723926980683,43.71966615850218L211.9157787562825,36.83395057273097L215.29431824275815,37.459921528498285L218.6728577292338,44.34565465043477L222.0513972157095,34.33004921349638L225.42993670218516,49.97941955658868L228.80847618866082,45.59759656196945L235.00246524719955,29.94823498695976L238.38100473367524,36.207979616963655L240.55828573607064,109.44700230970815L243.9368252225463,60.6209871812118L247.31536470902202,38.711880976198245L250.69390419549768,45.59759656196945L254.07244368197334,45.59759656196945L257.450983168449,46.84954724158678L259.70334282609946,46.2235675177368L261.8806238284949,33.078107301961694L265.2591633149705,23.688490356955896L276.74619756898784,165.15873302397569L276.37080429271276,143.87559777472947L279.7493437791884,128.22623619971978" style="fill: none;" fill="none"></path></g></g></g></g></g></g><g transform="translate(46, 177)" clip-path="url(#clip_1)"><clipPath id="clip_1"><rect width="284" height="23"></rect></clipPath><g><g><line x1="9.053252257232357" y1="0" x2="9.053252257232357" y2="5" style="visibility: inherit;" fill="rgb(0, 0, 0)" stroke="rgb(204, 204, 204)" stroke-width="1px"></line><line x1="46.59257988473978" y1="0" x2="46.59257988473978" y2="5" style="visibility: inherit;" fill="rgb(0, 0, 0)" stroke="rgb(204, 204, 204)" stroke-width="1px"></line><line x1="84.1319075122472" y1="0" x2="84.1319075122472" y2="5" style="visibility: inherit;" fill="rgb(0, 0, 0)" stroke="rgb(204, 204, 204)" stroke-width="1px"></line><line x1="121.67123513975461" y1="0" x2="121.67123513975461" y2="5" style="visibility: inherit;" fill="rgb(0, 0, 0)" stroke="rgb(204, 204, 204)" stroke-width="1px"></line><line x1="159.21056276726205" y1="0" x2="159.21056276726205" y2="5" style="visibility: inherit;" fill="rgb(0, 0, 0)" stroke="rgb(204, 204, 204)" stroke-width="1px"></line><line x1="196.74989039476947" y1="0" x2="196.74989039476947" y2="5" style="visibility: inherit;" fill="rgb(0, 0, 0)" stroke="rgb(204, 204, 204)" stroke-width="1px"></line><line x1="234.2892180222769" y1="0" x2="234.2892180222769" y2="5" style="visibility: inherit;" fill="rgb(0, 0, 0)" stroke="rgb(204, 204, 204)" stroke-width="1px"></line><line x1="271.82854564978436" y1="0" x2="271.82854564978436" y2="5" style="visibility: inherit;" fill="rgb(0, 0, 0)" stroke="rgb(204, 204, 204)" stroke-width="1px"></line></g><g transform="translate(0, 8)"><text x="9.053252257232357" y="0" dx="0em" dy="0.95em" style="text-anchor: middle; visibility: inherit; font-family: &quot;Helvetica Neue&quot;, sans-serif; font-size: 12px; font-weight: 200;" fill="rgb(50, 49, 63)" stroke="none" stroke-width="1px">0</text><text x="46.59257988473978" y="0" dx="0em" dy="0.95em" style="text-anchor: middle; visibility: inherit; font-family: &quot;Helvetica Neue&quot;, sans-serif; font-size: 12px; font-weight: 200;" fill="rgb(50, 49, 63)" stroke="none" stroke-width="1px">100k</text><text x="84.1319075122472" y="0" dx="0em" dy="0.95em" style="text-anchor: middle; visibility: inherit; font-family: &quot;Helvetica Neue&quot;, sans-serif; font-size: 12px; font-weight: 200;" fill="rgb(50, 49, 63)" stroke="none" stroke-width="1px">200k</text><text x="121.67123513975461" y="0" dx="0em" dy="0.95em" style="text-anchor: middle; visibility: inherit; font-family: &quot;Helvetica Neue&quot;, sans-serif; font-size: 12px; font-weight: 200;" fill="rgb(50, 49, 63)" stroke="none" stroke-width="1px">300k</text><text x="159.21056276726205" y="0" dx="0em" dy="0.95em" style="text-anchor: middle; visibility: inherit; font-family: &quot;Helvetica Neue&quot;, sans-serif; font-size: 12px; font-weight: 200;" fill="rgb(50, 49, 63)" stroke="none" stroke-width="1px">400k</text><text x="196.74989039476947" y="0" dx="0em" dy="0.95em" style="text-anchor: middle; visibility: inherit; font-family: &quot;Helvetica Neue&quot;, sans-serif; font-size: 12px; font-weight: 200;" fill="rgb(50, 49, 63)" stroke="none" stroke-width="1px">500k</text><text x="234.2892180222769" y="0" dx="0em" dy="0.95em" style="text-anchor: middle; visibility: inherit; font-family: &quot;Helvetica Neue&quot;, sans-serif; font-size: 12px; font-weight: 200;" fill="rgb(50, 49, 63)" stroke="none" stroke-width="1px">600k</text><text x="271.82854564978436" y="0" dx="0em" dy="0.95em" style="text-anchor: middle; visibility: hidden; font-family: &quot;Helvetica Neue&quot;, sans-serif; font-size: 12px; font-weight: 200;" fill="rgb(50, 49, 63)" stroke="none" stroke-width="1px">700k</text></g><line x1="0" y1="0" x2="284" y2="0" fill="rgb(0, 0, 0)" stroke="rgb(204, 204, 204)" stroke-width="1px"></line></g></g></g></g></svg>