<svg viewBox="0 0 330 200" xmlns="http://www.w3.org/2000/svg"><g><g><g><g><g><line x1="46" y1="172.90401244677366" x2="41" y2="172.90401244677366" style="visibility: inherit;" fill="rgb(0, 0, 0)" stroke="rgb(204, 204, 204)" stroke-width="1px"></line><line x1="46" y1="157.76799050114641" x2="41" y2="157.76799050114641" style="visibility: inherit;" fill="rgb(0, 0, 0)" stroke="rgb(204, 204, 204)" stroke-width="1px"></line><line x1="46" y1="142.63196855551917" x2="41" y2="142.63196855551917" style="visibility: inherit;" fill="rgb(0, 0, 0)" stroke="rgb(204, 204, 204)" stroke-width="1px"></line><line x1="46" y1="127.49594660989192" x2="41" y2="127.49594660989192" style="visibility: inherit;" fill="rgb(0, 0, 0)" stroke="rgb(204, 204, 204)" stroke-width="1px"></line><line x1="46" y1="112.35992466426467" x2="41" y2="112.35992466426467" style="visibility: inherit;" fill="rgb(0, 0, 0)" stroke="rgb(204, 204, 204)" stroke-width="1px"></line><line x1="46" y1="97.22390271863742" x2="41" y2="97.22390271863742" style="visibility: inherit;" fill="rgb(0, 0, 0)" stroke="rgb(204, 204, 204)" stroke-width="1px"></line><line x1="46" y1="82.08788077301016" x2="41" y2="82.08788077301016" style="visibility: inherit;" fill="rgb(0, 0, 0)" stroke="rgb(204, 204, 204)" stroke-width="1px"></line><line x1="46" y1="66.95185882738289" x2="41" y2="66.95185882738289" style="visibility: inherit;" fill="rgb(0, 0, 0)" stroke="rgb(204, 204, 204)" stroke-width="1px"></line><line x1="46" y1="51.815836881755644" x2="41" y2="51.815836881755644" style="visibility: inherit;" fill="rgb(0, 0, 0)" stroke="rgb(204, 204, 204)" stroke-width="1px"></line><line x1="46" y1="36.679814936128395" x2="41" y2="36.679814936128395" style="visibility: inherit;" fill="rgb(0, 0, 0)" stroke="rgb(204, 204, 204)" stroke-width="1px"></line><line x1="46" y1="21.543792990501174" x2="41" y2="21.543792990501174" style="visibility: inherit;" fill="rgb(0, 0, 0)" stroke="rgb(204, 204, 204)" stroke-width="1px"></line><line x1="46" y1="6.407771044873897" x2="41" y2="6.407771044873897" style="visibility: inherit;" fill="rgb(0, 0, 0)" stroke="rgb(204, 204, 204)" stroke-width="1px"></line></g><g transform="translate(36, 0)"><text x="0" y="172.90401244677366" dx="0em" dy="0.3em" style="text-anchor: end; visibility: hidden; font-family: &quot;Helvetica Neue&quot;, sans-serif; font-size: 12px; font-weight: 200;" fill="rgb(50, 49, 63)" stroke="none" stroke-width="1px">0.1</text><text x="0" y="157.76799050114641" dx="0em" dy="0.3em" style="text-anchor: end; visibility: inherit; font-family: &quot;Helvetica Neue&quot;, sans-serif; font-size: 12px; font-weight: 200;" fill="rgb(50, 49, 63)" stroke="none" stroke-width="1px">0.15</text><text x="0" y="142.63196855551917" dx="0em" dy="0.3em" style="text-anchor: end; visibility: hidden; font-family: &quot;Helvetica Neue&quot;, sans-serif; font-size: 12px; font-weight: 200;" fill="rgb(50, 49, 63)" stroke="none" stroke-width="1px">0.2</text><text x="0" y="127.49594660989192" dx="0em" dy="0.3em" style="text-anchor: end; visibility: inherit; font-family: &quot;Helvetica Neue&quot;, sans-serif; font-size: 12px; font-weight: 200;" fill="rgb(50, 49, 63)" stroke="none" stroke-width="1px">0.25</text><text x="0" y="112.35992466426467" dx="0em" dy="0.3em" style="text-anchor: end; visibility: hidden; font-family: &quot;Helvetica Neue&quot;, sans-serif; font-size: 12px; font-weight: 200;" fill="rgb(50, 49, 63)" stroke="none" stroke-width="1px">0.3</text><text x="0" y="97.22390271863742" dx="0em" dy="0.3em" style="text-anchor: end; visibility: inherit; font-family: &quot;Helvetica Neue&quot;, sans-serif; font-size: 12px; font-weight: 200;" fill="rgb(50, 49, 63)" stroke="none" stroke-width="1px">0.35</text><text x="0" y="82.08788077301016" dx="0em" dy="0.3em" style="text-anchor: end; visibility: hidden; font-family: &quot;Helvetica Neue&quot;, sans-serif; font-size: 12px; font-weight: 200;" fill="rgb(50, 49, 63)" stroke="none" stroke-width="1px">0.4</text><text x="0" y="66.95185882738289" dx="0em" dy="0.3em" style="text-anchor: end; visibility: inherit; font-family: &quot;Helvetica Neue&quot;, sans-serif; font-size: 12px; font-weight: 200;" fill="rgb(50, 49, 63)" stroke="none" stroke-width="1px">0.45</text><text x="0" y="51.815836881755644" dx="0em" dy="0.3em" style="text-anchor: end; visibility: hidden; font-family: &quot;Helvetica Neue&quot;, sans-serif; font-size: 12px; font-weight: 200;" fill="rgb(50, 49, 63)" stroke="none" stroke-width="1px">0.5</text><text x="0" y="36.679814936128395" dx="0em" dy="0.3em" style="text-anchor: end; visibility: inherit; font-family: &quot;Helvetica Neue&quot;, sans-serif; font-size: 12px; font-weight: 200;" fill="rgb(50, 49, 63)" stroke="none" stroke-width="1px">0.55</text><text x="0" y="21.543792990501174" dx="0em" dy="0.3em" style="text-anchor: end; visibility: hidden; font-family: &quot;Helvetica Neue&quot;, sans-serif; font-size: 12px; font-weight: 200;" fill="rgb(50, 49, 63)" stroke="none" stroke-width="1px">0.6</text><text x="0" y="6.407771044873897" dx="0em" dy="0.3em" style="text-anchor: end; visibility: hidden; font-family: &quot;Helvetica Neue&quot;, sans-serif; font-size: 12px; font-weight: 200;" fill="rgb(50, 49, 63)" stroke="none" stroke-width="1px">0.65</text></g><line x1="46" y1="0" x2="46" y2="177" fill="rgb(0, 0, 0)" stroke="rgb(204, 204, 204)" stroke-width="1px"></line></g></g><g transform="translate(46, 0)" clip-path="url(#clip_0)"><clipPath id="clip_0"><rect width="284" height="177"></rect></clipPath><g><g><g><line x1="8.260874639149925" y1="0" x2="8.260874639149925" y2="177" fill="rgb(0, 0, 0)" stroke="rgb(60, 60, 60)" stroke-width="1px" opacity="0.25"></line><line x1="45.698863706160544" y1="0" x2="45.698863706160544" y2="177" fill="rgb(0, 0, 0)" stroke="rgb(60, 60, 60)" stroke-width="1px" opacity="0.25"></line><line x1="83.13685277317116" y1="0" x2="83.13685277317116" y2="177" fill="rgb(0, 0, 0)" stroke="rgb(60, 60, 60)" stroke-width="1px" opacity="0.25"></line><line x1="120.57484184018179" y1="0" x2="120.57484184018179" y2="177" fill="rgb(0, 0, 0)" stroke="rgb(60, 60, 60)" stroke-width="1px" opacity="0.25"></line><line x1="158.01283090719238" y1="0" x2="158.01283090719238" y2="177" fill="rgb(0, 0, 0)" stroke="rgb(60, 60, 60)" stroke-width="1px" opacity="0.25"></line><line x1="195.45081997420303" y1="0" x2="195.45081997420303" y2="177" fill="rgb(0, 0, 0)" stroke="rgb(60, 60, 60)" stroke-width="1px" opacity="0.25"></line><line x1="232.88880904121365" y1="0" x2="232.88880904121365" y2="177" fill="rgb(0, 0, 0)" stroke="rgb(60, 60, 60)" stroke-width="1px" opacity="0.25"></line><line x1="270.3267981082243" y1="0" x2="270.3267981082243" y2="177" fill="rgb(0, 0, 0)" stroke="rgb(60, 60, 60)" stroke-width="1px" opacity="0.25"></line></g><g><line x1="0" y1="172.90401244677366" x2="284" y2="172.90401244677366" fill="rgb(0, 0, 0)" stroke="rgb(60, 60, 60)" stroke-width="1px" opacity="0.25"></line><line x1="0" y1="157.76799050114641" x2="284" y2="157.76799050114641" fill="rgb(0, 0, 0)" stroke="rgb(60, 60, 60)" stroke-width="1px" opacity="0.25"></line><line x1="0" y1="142.63196855551917" x2="284" y2="142.63196855551917" fill="rgb(0, 0, 0)" stroke="rgb(60, 60, 60)" stroke-width="1px" opacity="0.25"></line><line x1="0" y1="127.49594660989192" x2="284" y2="127.49594660989192" fill="rgb(0, 0, 0)" stroke="rgb(60, 60, 60)" stroke-width="1px" opacity="0.25"></line><line x1="0" y1="112.35992466426467" x2="284" y2="112.35992466426467" fill="rgb(0, 0, 0)" stroke="rgb(60, 60, 60)" stroke-width="1px" opacity="0.25"></line><line x1="0" y1="97.22390271863742" x2="284" y2="97.22390271863742" fill="rgb(0, 0, 0)" stroke="rgb(60, 60, 60)" stroke-width="1px" opacity="0.25"></line><line x1="0" y1="82.08788077301016" x2="284" y2="82.08788077301016" fill="rgb(0, 0, 0)" stroke="rgb(60, 60, 60)" stroke-width="1px" opacity="0.25"></line><line x1="0" y1="66.95185882738289" x2="284" y2="66.95185882738289" fill="rgb(0, 0, 0)" stroke="rgb(60, 60, 60)" stroke-width="1px" opacity="0.25"></line><line x1="0" y1="51.815836881755644" x2="284" y2="51.815836881755644" fill="rgb(0, 0, 0)" stroke="rgb(60, 60, 60)" stroke-width="1px" opacity="0.25"></line><line x1="0" y1="36.679814936128395" x2="284" y2="36.679814936128395" fill="rgb(0, 0, 0)" stroke="rgb(60, 60, 60)" stroke-width="1px" opacity="0.25"></line><line x1="0" y1="21.543792990501174" x2="284" y2="21.543792990501174" fill="rgb(0, 0, 0)" stroke="rgb(60, 60, 60)" stroke-width="1px" opacity="0.25"></line><line x1="0" y1="6.407771044873897" x2="284" y2="6.407771044873897" fill="rgb(0, 0, 0)" stroke="rgb(60, 60, 60)" stroke-width="1px" opacity="0.25"></line></g></g></g><g><g><line x1="0" y1="203.17605633802816" x2="284" y2="203.17605633802816" fill="rgb(0, 0, 0)" stroke="rgb(153, 153, 153)" stroke-width="1.5px"></line></g></g><g><g><line x1="8.260874639149925" y1="0" x2="8.260874639149925" y2="177" fill="rgb(0, 0, 0)" stroke="rgb(153, 153, 153)" stroke-width="1.5px"></line></g></g><g><g><g><g><g><path stroke="rgb(0, 119, 187)" stroke-width="2px" d="M8.747568497021064,155.3266971627933L31.771931773232595,143.17863064657192L47.383573214176025,128.6666316686294L67.52521133222773,63.66702501783283L70.89463034825869,94.31499055169004L74.26404936428963,108.75017920478577L74.82561920029481,96.34372683005542L78.19503821632576,110.70661894966231L81.56445723235672,83.37572226778035L106.76022387445487,51.370884992150664L110.12964289048583,59.2564095904158L113.49906190651677,76.39759601669743L116.86848092254773,75.30379405811274L120.23789993857868,64.06368396233411L123.60731895460962,45.83897643846919L126.9767379706406,53.41202489378276L132.40524638535715,77.06717207133647L135.7746654013881,79.0642270603139L138.47020061421284,71.69349899112551L142.85044533505308,78.8224117717044L146.21986435108406,53.96370611779085L149.58928336711503,69.63140218272446L152.95870238314598,71.26902187163398L156.32812139917692,63.88211921394256L159.69754041520787,57.95426839842143L161.94381975922852,58.62008847771047L161.94381975922852,58.650050381278476L166.28662649100175,63.31426549687656L169.6560455070327,64.45672854306596L173.02546452306365,60.777845916194494L176.3948835390946,56.88200273403528L179.76430255512554,47.38094751517076L186.5031405871875,46.02082666433432L200.46751050918246,48.75734132400919L203.8369295252134,36.75701349427234L207.20634854124438,48.34046973135642L210.57576755727533,48.8617252620252L213.94518657330627,47.952608394917775L217.31460558933722,53.50713833182296L220.6840246053682,37.90332772561146L224.05344362139917,49.32462723775416L227.42286263743011,55.434025911725584L233.60013083348687,26.799157274857095L236.96954984951782,44.162072737532725L239.1409532154044,103.69557768531979L242.5103722314354,59.7458740296334L245.87979124746636,41.91436429596288L249.2492102634973,46.7074037854575L252.61862927952825,46.92309056248473L255.98804829555922,48.79794319942596L258.2343276395799,47.949738202100804L260.40573100546646,34.85552462181147L263.7751500214974,29.60341818076097L275.23117467600264,157.12974515229422L274.85679478533257,131.16090526716494L278.2262138013635,129.05972979845046" style="fill: none;" fill="none"></path></g></g></g></g><g opacity="0.2"><g><g><g><path stroke="rgb(0, 119, 187)" stroke-width="2px" d="M8.747568497021064,155.3266971627933L31.771931773232595,142.63196765334195L47.383573214176025,127.98420491669165L67.52521133222773,60.60449542592305L70.89463034825869,95.75912960259262L74.26404936428963,109.43037121475739L74.82561920029481,95.75912960259262L78.19503821632576,111.38340444195634L81.56445723235672,82.08787896865573L106.76022387445487,49.8628036545567L110.12964289048583,59.62797881232356L113.49906190651677,77.20529590065836L116.86848092254773,75.25225365168728L120.23789993857868,63.53404526672146L123.60731895460962,44.98022058655931L126.9767379706406,53.7688701089546L132.40524638535715,78.18181251425783L135.7746654013881,79.15832912785731L138.47020061421284,71.3461871972894L142.85044533505308,79.15832912785731L146.21986435108406,52.792353495355144L149.58928336711503,70.36967058368991L152.95870238314598,71.3461871972894L156.32812139917692,63.53404526672146L159.69754041520787,57.67494558512463L161.94381975922852,58.65146219872409L161.94381975922852,58.65146219872409L166.28662649100175,63.53404526672146L169.6560455070327,64.51056188032095L173.02546452306365,60.60449542592305L176.3948835390946,56.698428971525146L179.76430255512554,46.933253813758284L186.5031405871875,45.956737200158784L200.46751050918246,48.88628704095723L203.8369295252134,36.191553020619835L207.20634854124438,48.88628704095723L210.57576755727533,48.88628704095723L213.94518657330627,47.909770427357756L217.31460558933722,53.7688701089546L220.6840246053682,37.16806963421928L224.05344362139917,49.8628036545567L227.42286263743011,55.72190333615356L233.60013083348687,25.44987027102559L236.96954984951782,44.98022058655931L239.1409532154044,106.50082137395896L242.5103722314354,57.67494558512463L245.87979124746636,41.074136088617195L249.2492102634973,46.933253813758284L252.61862927952825,46.933253813758284L255.98804829555922,48.88628704095723L258.2343276395799,47.909770427357756L260.40573100546646,34.23851979342086L263.7751500214974,29.355936725423476L275.23117467600264,163.1388390933612L274.85679478533257,129.93724265477667L278.2262138013635,128.96072153029112" style="fill: none;" fill="none"></path></g></g></g></g></g></g><g transform="translate(46, 177)" clip-path="url(#clip_1)"><clipPath id="clip_1"><rect width="284" height="23"></rect></clipPath><g><g><line x1="8.260874639149925" y1="0" x2="8.260874639149925" y2="5" style="visibility: inherit;" fill="rgb(0, 0, 0)" stroke="rgb(204, 204, 204)" stroke-width="1px"></line><line x1="45.698863706160544" y1="0" x2="45.698863706160544" y2="5" style="visibility: inherit;" fill="rgb(0, 0, 0)" stroke="rgb(204, 204, 204)" stroke-width="1px"></line><line x1="83.13685277317116" y1="0" x2="83.13685277317116" y2="5" style="visibility: inherit;" fill="rgb(0, 0, 0)" stroke="rgb(204, 204, 204)" stroke-width="1px"></line><line x1="120.57484184018179" y1="0" x2="120.57484184018179" y2="5" style="visibility: inherit;" fill="rgb(0, 0, 0)" stroke="rgb(204, 204, 204)" stroke-width="1px"></line><line x1="158.01283090719238" y1="0" x2="158.01283090719238" y2="5" style="visibility: inherit;" fill="rgb(0, 0, 0)" stroke="rgb(204, 204, 204)" stroke-width="1px"></line><line x1="195.45081997420303" y1="0" x2="195.45081997420303" y2="5" style="visibility: inherit;" fill="rgb(0, 0, 0)" stroke="rgb(204, 204, 204)" stroke-width="1px"></line><line x1="232.88880904121365" y1="0" x2="232.88880904121365" y2="5" style="visibility: inherit;" fill="rgb(0, 0, 0)" stroke="rgb(204, 204, 204)" stroke-width="1px"></line><line x1="270.3267981082243" y1="0" x2="270.3267981082243" y2="5" style="visibility: inherit;" fill="rgb(0, 0, 0)" stroke="rgb(204, 204, 204)" stroke-width="1px"></line></g><g transform="translate(0, 8)"><text x="8.260874639149925" y="0" dx="0em" dy="0.95em" style="text-anchor: middle; visibility: inherit; font-family: &quot;Helvetica Neue&quot;, sans-serif; font-size: 12px; font-weight: 200;" fill="rgb(50, 49, 63)" stroke="none" stroke-width="1px">0</text><text x="45.698863706160544" y="0" dx="0em" dy="0.95em" style="text-anchor: middle; visibility: inherit; font-family: &quot;Helvetica Neue&quot;, sans-serif; font-size: 12px; font-weight: 200;" fill="rgb(50, 49, 63)" stroke="none" stroke-width="1px">100k</text><text x="83.13685277317116" y="0" dx="0em" dy="0.95em" style="text-anchor: middle; visibility: inherit; font-family: &quot;Helvetica Neue&quot;, sans-serif; font-size: 12px; font-weight: 200;" fill="rgb(50, 49, 63)" stroke="none" stroke-width="1px">200k</text><text x="120.57484184018179" y="0" dx="0em" dy="0.95em" style="text-anchor: middle; visibility: inherit; font-family: &quot;Helvetica Neue&quot;, sans-serif; font-size: 12px; font-weight: 200;" fill="rgb(50, 49, 63)" stroke="none" stroke-width="1px">300k</text><text x="158.01283090719238" y="0" dx="0em" dy="0.95em" style="text-anchor: middle; visibility: inherit; font-family: &quot;Helvetica Neue&quot;, sans-serif; font-size: 12px; font-weight: 200;" fill="rgb(50, 49, 63)" stroke="none" stroke-width="1px">400k</text><text x="195.45081997420303" y="0" dx="0em" dy="0.95em" style="text-anchor: middle; visibility: inherit; font-family: &quot;Helvetica Neue&quot;, sans-serif; font-size: 12px; font-weight: 200;" fill="rgb(50, 49, 63)" stroke="none" stroke-width="1px">500k</text><text x="232.88880904121365" y="0" dx="0em" dy="0.95em" style="text-anchor: middle; visibility: inherit; font-family: &quot;Helvetica Neue&quot;, sans-serif; font-size: 12px; font-weight: 200;" fill="rgb(50, 49, 63)" stroke="none" stroke-width="1px">600k</text><text x="270.3267981082243" y="0" dx="0em" dy="0.95em" style="text-anchor: middle; visibility: inherit; font-family: &quot;Helvetica Neue&quot;, sans-serif; font-size: 12px; font-weight: 200;" fill="rgb(50, 49, 63)" stroke="none" stroke-width="1px">700k</text></g><line x1="0" y1="0" x2="284" y2="0" fill="rgb(0, 0, 0)" stroke="rgb(204, 204, 204)" stroke-width="1px"></line></g></g></g></g></svg>