<svg viewBox="0 0 330 200" xmlns="http://www.w3.org/2000/svg"><g><g><g><g><g><line x1="46" y1="177" x2="41" y2="177" style="visibility: inherit;" fill="rgb(0, 0, 0)" stroke="rgb(204, 204, 204)" stroke-width="1px"></line><line x1="46" y1="150.45" x2="41" y2="150.45" style="visibility: inherit;" fill="rgb(0, 0, 0)" stroke="rgb(204, 204, 204)" stroke-width="1px"></line><line x1="46" y1="123.9" x2="41" y2="123.9" style="visibility: inherit;" fill="rgb(0, 0, 0)" stroke="rgb(204, 204, 204)" stroke-width="1px"></line><line x1="46" y1="97.35000000000001" x2="41" y2="97.35000000000001" style="visibility: inherit;" fill="rgb(0, 0, 0)" stroke="rgb(204, 204, 204)" stroke-width="1px"></line><line x1="46" y1="70.8" x2="41" y2="70.8" style="visibility: inherit;" fill="rgb(0, 0, 0)" stroke="rgb(204, 204, 204)" stroke-width="1px"></line><line x1="46" y1="44.25000000000003" x2="41" y2="44.25000000000003" style="visibility: inherit;" fill="rgb(0, 0, 0)" stroke="rgb(204, 204, 204)" stroke-width="1px"></line><line x1="46" y1="17.700000000000017" x2="41" y2="17.700000000000017" style="visibility: inherit;" fill="rgb(0, 0, 0)" stroke="rgb(204, 204, 204)" stroke-width="1px"></line></g><g transform="translate(36, 0)"><text x="0" y="177" dx="0em" dy="0.3em" style="text-anchor: end; visibility: hidden; font-family: &quot;Helvetica Neue&quot;, sans-serif; font-size: 12px; font-weight: 200;" fill="rgb(50, 49, 63)" stroke="none" stroke-width="1px">0</text><text x="0" y="150.45" dx="0em" dy="0.3em" style="text-anchor: end; visibility: inherit; font-family: &quot;Helvetica Neue&quot;, sans-serif; font-size: 12px; font-weight: 200;" fill="rgb(50, 49, 63)" stroke="none" stroke-width="1px">0.05</text><text x="0" y="123.9" dx="0em" dy="0.3em" style="text-anchor: end; visibility: inherit; font-family: &quot;Helvetica Neue&quot;, sans-serif; font-size: 12px; font-weight: 200;" fill="rgb(50, 49, 63)" stroke="none" stroke-width="1px">0.1</text><text x="0" y="97.35000000000001" dx="0em" dy="0.3em" style="text-anchor: end; visibility: inherit; font-family: &quot;Helvetica Neue&quot;, sans-serif; font-size: 12px; font-weight: 200;" fill="rgb(50, 49, 63)" stroke="none" stroke-width="1px">0.15</text><text x="0" y="70.8" dx="0em" dy="0.3em" style="text-anchor: end; visibility: inherit; font-family: &quot;Helvetica Neue&quot;, sans-serif; font-size: 12px; font-weight: 200;" fill="rgb(50, 49, 63)" stroke="none" stroke-width="1px">0.2</text><text x="0" y="44.25000000000003" dx="0em" dy="0.3em" style="text-anchor: end; visibility: inherit; font-family: &quot;Helvetica Neue&quot;, sans-serif; font-size: 12px; font-weight: 200;" fill="rgb(50, 49, 63)" stroke="none" stroke-width="1px">0.25</text><text x="0" y="17.700000000000017" dx="0em" dy="0.3em" style="text-anchor: end; visibility: inherit; font-family: &quot;Helvetica Neue&quot;, sans-serif; font-size: 12px; font-weight: 200;" fill="rgb(50, 49, 63)" stroke="none" stroke-width="1px">0.3</text></g><line x1="46" y1="0" x2="46" y2="177" fill="rgb(0, 0, 0)" stroke="rgb(204, 204, 204)" stroke-width="1px"></line></g></g><g transform="translate(46, 0)" clip-path="url(#clip_0)"><clipPath id="clip_0"><rect width="284" height="177"></rect></clipPath><g><g><g><line x1="21.305758313057584" y1="0" x2="21.305758313057584" y2="177" fill="rgb(0, 0, 0)" stroke="rgb(60, 60, 60)" stroke-width="1px" opacity="0.25"></line><line x1="55.049472830494736" y1="0" x2="55.049472830494736" y2="177" fill="rgb(0, 0, 0)" stroke="rgb(60, 60, 60)" stroke-width="1px" opacity="0.25"></line><line x1="88.79318734793188" y1="0" x2="88.79318734793188" y2="177" fill="rgb(0, 0, 0)" stroke="rgb(60, 60, 60)" stroke-width="1px" opacity="0.25"></line><line x1="122.53690186536902" y1="0" x2="122.53690186536902" y2="177" fill="rgb(0, 0, 0)" stroke="rgb(60, 60, 60)" stroke-width="1px" opacity="0.25"></line><line x1="156.28061638280616" y1="0" x2="156.28061638280616" y2="177" fill="rgb(0, 0, 0)" stroke="rgb(60, 60, 60)" stroke-width="1px" opacity="0.25"></line><line x1="190.02433090024329" y1="0" x2="190.02433090024329" y2="177" fill="rgb(0, 0, 0)" stroke="rgb(60, 60, 60)" stroke-width="1px" opacity="0.25"></line><line x1="223.76804541768047" y1="0" x2="223.76804541768047" y2="177" fill="rgb(0, 0, 0)" stroke="rgb(60, 60, 60)" stroke-width="1px" opacity="0.25"></line><line x1="257.5117599351176" y1="0" x2="257.5117599351176" y2="177" fill="rgb(0, 0, 0)" stroke="rgb(60, 60, 60)" stroke-width="1px" opacity="0.25"></line></g><g><line x1="0" y1="177" x2="284" y2="177" fill="rgb(0, 0, 0)" stroke="rgb(60, 60, 60)" stroke-width="1px" opacity="0.25"></line><line x1="0" y1="150.45" x2="284" y2="150.45" fill="rgb(0, 0, 0)" stroke="rgb(60, 60, 60)" stroke-width="1px" opacity="0.25"></line><line x1="0" y1="123.9" x2="284" y2="123.9" fill="rgb(0, 0, 0)" stroke="rgb(60, 60, 60)" stroke-width="1px" opacity="0.25"></line><line x1="0" y1="97.35000000000001" x2="284" y2="97.35000000000001" fill="rgb(0, 0, 0)" stroke="rgb(60, 60, 60)" stroke-width="1px" opacity="0.25"></line><line x1="0" y1="70.8" x2="284" y2="70.8" fill="rgb(0, 0, 0)" stroke="rgb(60, 60, 60)" stroke-width="1px" opacity="0.25"></line><line x1="0" y1="44.25000000000003" x2="284" y2="44.25000000000003" fill="rgb(0, 0, 0)" stroke="rgb(60, 60, 60)" stroke-width="1px" opacity="0.25"></line><line x1="0" y1="17.700000000000017" x2="284" y2="17.700000000000017" fill="rgb(0, 0, 0)" stroke="rgb(60, 60, 60)" stroke-width="1px" opacity="0.25"></line></g></g></g><g><g><line x1="0" y1="177" x2="284" y2="177" fill="rgb(0, 0, 0)" stroke="rgb(153, 153, 153)" stroke-width="1.5px"></line></g></g><g><g><line x1="21.305758313057584" y1="0" x2="21.305758313057584" y2="177" fill="rgb(0, 0, 0)" stroke="rgb(153, 153, 153)" stroke-width="1.5px"></line></g></g><g><g><g><g><g><path stroke="rgb(0, 119, 187)" stroke-width="2px" d="M21.74442660178427,167.96170241385698L42.49681103000811,163.63715811426704L56.567939983779404,145.1075257295271L74.72205839416058,119.45949932979435L77.75899270072993,119.38439149206596L80.79592700729928,138.80205280813553L81.30208272506084,141.29426969382146L84.33901703163018,132.23537116223673L87.37595133819951,113.48562414773957L110.08547120843471,88.36558145634535L113.12240551500406,77.52466092751274L116.15933982157341,98.6157531015184L119.19627412814275,88.23590757663L122.23320843471208,78.0582959202893L125.27014274128143,74.90293669602858L128.30707704785078,83.93199382129384L133.19991565287916,94.58829787346858L136.2368499594485,99.92308708145015L138.66639740470399,93.15000068781399L142.61441200324413,87.98994871801331L145.65134630981348,73.7314425633816L148.6882806163828,81.72138020296306L151.72521492295215,89.09408686119293L154.76214922952147,75.39954728836923L157.79908353609085,69.92802992550516L159.82370640713708,74.53707472626328L159.82370640713708,74.7444817422974L163.73797729115975,83.92486334837592L166.77491159772913,68.69325063966086L169.81184590429848,77.1788763581257L172.8487802108678,67.85021090773587L175.88571451743715,74.44357287046367L181.95958313057582,63.411329486067785L194.54598864557988,78.02013809739482L197.58292295214923,63.5722749212797L200.61985725871858,67.77738416044154L203.6567915652879,66.34819556765926L206.69372587185728,61.42861899889702L209.7306601784266,61.20723805330272L212.76759448499595,59.57885740220641L215.8045287915653,69.21609888062783L218.84146309813462,70.18925262097387L224.40917599351175,50.811999767394624L227.4461103000811,66.12422358733589L229.40324574209245,121.8395634013752L232.4401800486618,77.41256405004118L235.47711435523115,63.54493408914878L238.5140486618005,68.85510201417648L241.55098296836982,67.47564106225816L244.58791727493917,62.558302237334786L246.6125401459854,67.73175538966403L248.56967558799676,55.55667547407272L251.6066098945661,47.99563741342243L261.9321865369019,162.02375539324703L261.5947493917275,160.14186690523044L264.63168369829685,143.3335057402136" style="fill: none;" fill="none"></path></g></g></g></g><g opacity="0.2"><g><g><g><path stroke="rgb(0, 119, 187)" stroke-width="2px" d="M21.74442660178427,167.96170241385698L42.49681103000811,163.44255362078547L56.567939983779404,144.2361697666347L74.72205839416058,118.25106371194124L77.75899270072993,119.38085239380598L80.79592700729928,139.7170209735632L81.30208272506084,141.4117039963603L84.33901703163018,131.80851206928492L87.37595133819951,112.60212821513416L110.08547120843471,87.18191452324392L113.12240551500406,77.01383221149446L116.15933982157341,99.60957419872285L119.19627412814275,87.74680490791799L122.23320843471208,77.57872259616853L125.27014274128143,74.75425484776498L128.30707704785078,84.35744677484037L133.19991565287916,95.0904273837805L136.2368499594485,100.17446458339693L138.66639740470399,92.83085002005102L142.61441200324413,87.74680490791799L145.65134630981348,73.05957578122617L148.6882806163828,82.09786941111089L151.72521492295215,89.4414918869734L154.76214922952147,74.75425484776498L157.79908353609085,69.67020973563196L159.82370640713708,74.75425484776498L159.82370640713708,74.75425484776498L163.73797729115975,84.35744677484037L166.77491159772913,67.97553066909315L169.81184590429848,77.57872259616853L172.8487802108678,67.41064028441907L175.88571451743715,74.75425484776498L181.95958313057582,62.89148555696012L194.54598864557988,78.70851127803327L197.58292295214923,62.89148555696012L200.61985725871858,67.97553066909315L203.6567915652879,66.28085160255434L206.69372587185728,61.19680649042131L209.7306601784266,61.19680649042131L212.76759448499595,59.5021274238825L215.8045287915653,69.67020973563196L218.84146309813462,70.23510803282262L224.40917599351175,49.89893549680711L227.4461103000811,66.84574198722841L229.40324574209245,124.46489354968071L232.4401800486618,75.31914523243906L235.47711435523115,62.89148555696012L238.5140486618005,69.10531935095788L241.55098296836982,67.41064028441907L244.58791727493917,62.32659517228605L246.6125401459854,67.97553066909315L248.56967558799676,54.98298060894014L251.6066098945661,47.63935813307765L261.9321865369019,167.3968080729246L261.5947493917275,160.05319153144956L264.63168369829685,142.54148872196674" style="fill: none;" fill="none"></path></g></g></g></g></g></g><g transform="translate(46, 177)" clip-path="url(#clip_1)"><clipPath id="clip_1"><rect width="284" height="23"></rect></clipPath><g><g><line x1="21.305758313057584" y1="0" x2="21.305758313057584" y2="5" style="visibility: inherit;" fill="rgb(0, 0, 0)" stroke="rgb(204, 204, 204)" stroke-width="1px"></line><line x1="55.049472830494736" y1="0" x2="55.049472830494736" y2="5" style="visibility: inherit;" fill="rgb(0, 0, 0)" stroke="rgb(204, 204, 204)" stroke-width="1px"></line><line x1="88.79318734793188" y1="0" x2="88.79318734793188" y2="5" style="visibility: inherit;" fill="rgb(0, 0, 0)" stroke="rgb(204, 204, 204)" stroke-width="1px"></line><line x1="122.53690186536902" y1="0" x2="122.53690186536902" y2="5" style="visibility: inherit;" fill="rgb(0, 0, 0)" stroke="rgb(204, 204, 204)" stroke-width="1px"></line><line x1="156.28061638280616" y1="0" x2="156.28061638280616" y2="5" style="visibility: inherit;" fill="rgb(0, 0, 0)" stroke="rgb(204, 204, 204)" stroke-width="1px"></line><line x1="190.02433090024329" y1="0" x2="190.02433090024329" y2="5" style="visibility: inherit;" fill="rgb(0, 0, 0)" stroke="rgb(204, 204, 204)" stroke-width="1px"></line><line x1="223.76804541768047" y1="0" x2="223.76804541768047" y2="5" style="visibility: inherit;" fill="rgb(0, 0, 0)" stroke="rgb(204, 204, 204)" stroke-width="1px"></line><line x1="257.5117599351176" y1="0" x2="257.5117599351176" y2="5" style="visibility: inherit;" fill="rgb(0, 0, 0)" stroke="rgb(204, 204, 204)" stroke-width="1px"></line></g><g transform="translate(0, 8)"><text x="21.305758313057584" y="0" dx="0em" dy="0.95em" style="text-anchor: middle; visibility: inherit; font-family: &quot;Helvetica Neue&quot;, sans-serif; font-size: 12px; font-weight: 200;" fill="rgb(50, 49, 63)" stroke="none" stroke-width="1px">0</text><text x="55.049472830494736" y="0" dx="0em" dy="0.95em" style="text-anchor: middle; visibility: inherit; font-family: &quot;Helvetica Neue&quot;, sans-serif; font-size: 12px; font-weight: 200;" fill="rgb(50, 49, 63)" stroke="none" stroke-width="1px">100k</text><text x="88.79318734793188" y="0" dx="0em" dy="0.95em" style="text-anchor: middle; visibility: inherit; font-family: &quot;Helvetica Neue&quot;, sans-serif; font-size: 12px; font-weight: 200;" fill="rgb(50, 49, 63)" stroke="none" stroke-width="1px">200k</text><text x="122.53690186536902" y="0" dx="0em" dy="0.95em" style="text-anchor: middle; visibility: inherit; font-family: &quot;Helvetica Neue&quot;, sans-serif; font-size: 12px; font-weight: 200;" fill="rgb(50, 49, 63)" stroke="none" stroke-width="1px">300k</text><text x="156.28061638280616" y="0" dx="0em" dy="0.95em" style="text-anchor: middle; visibility: inherit; font-family: &quot;Helvetica Neue&quot;, sans-serif; font-size: 12px; font-weight: 200;" fill="rgb(50, 49, 63)" stroke="none" stroke-width="1px">400k</text><text x="190.02433090024329" y="0" dx="0em" dy="0.95em" style="text-anchor: middle; visibility: inherit; font-family: &quot;Helvetica Neue&quot;, sans-serif; font-size: 12px; font-weight: 200;" fill="rgb(50, 49, 63)" stroke="none" stroke-width="1px">500k</text><text x="223.76804541768047" y="0" dx="0em" dy="0.95em" style="text-anchor: middle; visibility: inherit; font-family: &quot;Helvetica Neue&quot;, sans-serif; font-size: 12px; font-weight: 200;" fill="rgb(50, 49, 63)" stroke="none" stroke-width="1px">600k</text><text x="257.5117599351176" y="0" dx="0em" dy="0.95em" style="text-anchor: middle; visibility: inherit; font-family: &quot;Helvetica Neue&quot;, sans-serif; font-size: 12px; font-weight: 200;" fill="rgb(50, 49, 63)" stroke="none" stroke-width="1px">700k</text></g><line x1="0" y1="0" x2="284" y2="0" fill="rgb(0, 0, 0)" stroke="rgb(204, 204, 204)" stroke-width="1px"></line></g></g></g></g></svg>