<svg viewBox="0 0 330 200" xmlns="http://www.w3.org/2000/svg"><g><g><g><g><g><line x1="55" y1="170.1282232892172" x2="50" y2="170.1282232892172" style="visibility: inherit;" fill="rgb(0, 0, 0)" stroke="rgb(204, 204, 204)" stroke-width="1px"></line><line x1="55" y1="155.9909703306369" x2="50" y2="155.9909703306369" style="visibility: inherit;" fill="rgb(0, 0, 0)" stroke="rgb(204, 204, 204)" stroke-width="1px"></line><line x1="55" y1="141.85371737205662" x2="50" y2="141.85371737205662" style="visibility: inherit;" fill="rgb(0, 0, 0)" stroke="rgb(204, 204, 204)" stroke-width="1px"></line><line x1="55" y1="127.71646441347633" x2="50" y2="127.71646441347633" style="visibility: inherit;" fill="rgb(0, 0, 0)" stroke="rgb(204, 204, 204)" stroke-width="1px"></line><line x1="55" y1="113.57921145489604" x2="50" y2="113.57921145489604" style="visibility: inherit;" fill="rgb(0, 0, 0)" stroke="rgb(204, 204, 204)" stroke-width="1px"></line><line x1="55" y1="99.44195849631575" x2="50" y2="99.44195849631575" style="visibility: inherit;" fill="rgb(0, 0, 0)" stroke="rgb(204, 204, 204)" stroke-width="1px"></line><line x1="55" y1="85.30470553773547" x2="50" y2="85.30470553773547" style="visibility: inherit;" fill="rgb(0, 0, 0)" stroke="rgb(204, 204, 204)" stroke-width="1px"></line><line x1="55" y1="71.16745257915517" x2="50" y2="71.16745257915517" style="visibility: inherit;" fill="rgb(0, 0, 0)" stroke="rgb(204, 204, 204)" stroke-width="1px"></line><line x1="55" y1="57.03019962057488" x2="50" y2="57.03019962057488" style="visibility: inherit;" fill="rgb(0, 0, 0)" stroke="rgb(204, 204, 204)" stroke-width="1px"></line><line x1="55" y1="42.892946661994614" x2="50" y2="42.892946661994614" style="visibility: inherit;" fill="rgb(0, 0, 0)" stroke="rgb(204, 204, 204)" stroke-width="1px"></line><line x1="55" y1="28.755693703414295" x2="50" y2="28.755693703414295" style="visibility: inherit;" fill="rgb(0, 0, 0)" stroke="rgb(204, 204, 204)" stroke-width="1px"></line><line x1="55" y1="14.618440744834004" x2="50" y2="14.618440744834004" style="visibility: inherit;" fill="rgb(0, 0, 0)" stroke="rgb(204, 204, 204)" stroke-width="1px"></line><line x1="55" y1="0.48118778625371306" x2="50" y2="0.48118778625371306" style="visibility: inherit;" fill="rgb(0, 0, 0)" stroke="rgb(204, 204, 204)" stroke-width="1px"></line></g><g transform="translate(45, 0)"><text x="0" y="170.1282232892172" dx="0em" dy="0.3em" style="text-anchor: end; visibility: inherit; font-family: &quot;Helvetica Neue&quot;, sans-serif; font-size: 12px; font-weight: 200;" fill="rgb(50, 49, 63)" stroke="none" stroke-width="1px">-0.03</text><text x="0" y="155.9909703306369" dx="0em" dy="0.3em" style="text-anchor: end; visibility: hidden; font-family: &quot;Helvetica Neue&quot;, sans-serif; font-size: 12px; font-weight: 200;" fill="rgb(50, 49, 63)" stroke="none" stroke-width="1px">-0.02</text><text x="0" y="141.85371737205662" dx="0em" dy="0.3em" style="text-anchor: end; visibility: inherit; font-family: &quot;Helvetica Neue&quot;, sans-serif; font-size: 12px; font-weight: 200;" fill="rgb(50, 49, 63)" stroke="none" stroke-width="1px">-0.01</text><text x="0" y="127.71646441347633" dx="0em" dy="0.3em" style="text-anchor: end; visibility: hidden; font-family: &quot;Helvetica Neue&quot;, sans-serif; font-size: 12px; font-weight: 200;" fill="rgb(50, 49, 63)" stroke="none" stroke-width="1px">0</text><text x="0" y="113.57921145489604" dx="0em" dy="0.3em" style="text-anchor: end; visibility: inherit; font-family: &quot;Helvetica Neue&quot;, sans-serif; font-size: 12px; font-weight: 200;" fill="rgb(50, 49, 63)" stroke="none" stroke-width="1px">0.01</text><text x="0" y="99.44195849631575" dx="0em" dy="0.3em" style="text-anchor: end; visibility: hidden; font-family: &quot;Helvetica Neue&quot;, sans-serif; font-size: 12px; font-weight: 200;" fill="rgb(50, 49, 63)" stroke="none" stroke-width="1px">0.02</text><text x="0" y="85.30470553773547" dx="0em" dy="0.3em" style="text-anchor: end; visibility: inherit; font-family: &quot;Helvetica Neue&quot;, sans-serif; font-size: 12px; font-weight: 200;" fill="rgb(50, 49, 63)" stroke="none" stroke-width="1px">0.03</text><text x="0" y="71.16745257915517" dx="0em" dy="0.3em" style="text-anchor: end; visibility: hidden; font-family: &quot;Helvetica Neue&quot;, sans-serif; font-size: 12px; font-weight: 200;" fill="rgb(50, 49, 63)" stroke="none" stroke-width="1px">0.04</text><text x="0" y="57.03019962057488" dx="0em" dy="0.3em" style="text-anchor: end; visibility: inherit; font-family: &quot;Helvetica Neue&quot;, sans-serif; font-size: 12px; font-weight: 200;" fill="rgb(50, 49, 63)" stroke="none" stroke-width="1px">0.05</text><text x="0" y="42.892946661994614" dx="0em" dy="0.3em" style="text-anchor: end; visibility: hidden; font-family: &quot;Helvetica Neue&quot;, sans-serif; font-size: 12px; font-weight: 200;" fill="rgb(50, 49, 63)" stroke="none" stroke-width="1px">0.06</text><text x="0" y="28.755693703414295" dx="0em" dy="0.3em" style="text-anchor: end; visibility: inherit; font-family: &quot;Helvetica Neue&quot;, sans-serif; font-size: 12px; font-weight: 200;" fill="rgb(50, 49, 63)" stroke="none" stroke-width="1px">0.07</text><text x="0" y="14.618440744834004" dx="0em" dy="0.3em" style="text-anchor: end; visibility: hidden; font-family: &quot;Helvetica Neue&quot;, sans-serif; font-size: 12px; font-weight: 200;" fill="rgb(50, 49, 63)" stroke="none" stroke-width="1px">0.08</text><text x="0" y="0.48118778625371306" dx="0em" dy="0.3em" style="text-anchor: end; visibility: hidden; font-family: &quot;Helvetica Neue&quot;, sans-serif; font-size: 12px; font-weight: 200;" fill="rgb(50, 49, 63)" stroke="none" stroke-width="1px">0.09</text></g><line x1="55" y1="0" x2="55" y2="177" fill="rgb(0, 0, 0)" stroke="rgb(204, 204, 204)" stroke-width="1px"></line></g></g><g transform="translate(55, 0)" clip-path="url(#clip_0)"><clipPath id="clip_0"><rect width="275" height="177"></rect></clipPath><g><g><g><line x1="11.331644983734142" y1="0" x2="11.331644983734142" y2="177" fill="rgb(0, 0, 0)" stroke="rgb(60, 60, 60)" stroke-width="1px" opacity="0.25"></line><line x1="45.79569808347278" y1="0" x2="45.79569808347278" y2="177" fill="rgb(0, 0, 0)" stroke="rgb(60, 60, 60)" stroke-width="1px" opacity="0.25"></line><line x1="80.25975118321142" y1="0" x2="80.25975118321142" y2="177" fill="rgb(0, 0, 0)" stroke="rgb(60, 60, 60)" stroke-width="1px" opacity="0.25"></line><line x1="114.72380428295004" y1="0" x2="114.72380428295004" y2="177" fill="rgb(0, 0, 0)" stroke="rgb(60, 60, 60)" stroke-width="1px" opacity="0.25"></line><line x1="149.18785738268866" y1="0" x2="149.18785738268866" y2="177" fill="rgb(0, 0, 0)" stroke="rgb(60, 60, 60)" stroke-width="1px" opacity="0.25"></line><line x1="183.65191048242733" y1="0" x2="183.65191048242733" y2="177" fill="rgb(0, 0, 0)" stroke="rgb(60, 60, 60)" stroke-width="1px" opacity="0.25"></line><line x1="218.11596358216593" y1="0" x2="218.11596358216593" y2="177" fill="rgb(0, 0, 0)" stroke="rgb(60, 60, 60)" stroke-width="1px" opacity="0.25"></line><line x1="252.5800166819046" y1="0" x2="252.5800166819046" y2="177" fill="rgb(0, 0, 0)" stroke="rgb(60, 60, 60)" stroke-width="1px" opacity="0.25"></line></g><g><line x1="0" y1="170.1282232892172" x2="275" y2="170.1282232892172" fill="rgb(0, 0, 0)" stroke="rgb(60, 60, 60)" stroke-width="1px" opacity="0.25"></line><line x1="0" y1="155.9909703306369" x2="275" y2="155.9909703306369" fill="rgb(0, 0, 0)" stroke="rgb(60, 60, 60)" stroke-width="1px" opacity="0.25"></line><line x1="0" y1="141.85371737205662" x2="275" y2="141.85371737205662" fill="rgb(0, 0, 0)" stroke="rgb(60, 60, 60)" stroke-width="1px" opacity="0.25"></line><line x1="0" y1="127.71646441347633" x2="275" y2="127.71646441347633" fill="rgb(0, 0, 0)" stroke="rgb(60, 60, 60)" stroke-width="1px" opacity="0.25"></line><line x1="0" y1="113.57921145489604" x2="275" y2="113.57921145489604" fill="rgb(0, 0, 0)" stroke="rgb(60, 60, 60)" stroke-width="1px" opacity="0.25"></line><line x1="0" y1="99.44195849631575" x2="275" y2="99.44195849631575" fill="rgb(0, 0, 0)" stroke="rgb(60, 60, 60)" stroke-width="1px" opacity="0.25"></line><line x1="0" y1="85.30470553773547" x2="275" y2="85.30470553773547" fill="rgb(0, 0, 0)" stroke="rgb(60, 60, 60)" stroke-width="1px" opacity="0.25"></line><line x1="0" y1="71.16745257915517" x2="275" y2="71.16745257915517" fill="rgb(0, 0, 0)" stroke="rgb(60, 60, 60)" stroke-width="1px" opacity="0.25"></line><line x1="0" y1="57.03019962057488" x2="275" y2="57.03019962057488" fill="rgb(0, 0, 0)" stroke="rgb(60, 60, 60)" stroke-width="1px" opacity="0.25"></line><line x1="0" y1="42.892946661994614" x2="275" y2="42.892946661994614" fill="rgb(0, 0, 0)" stroke="rgb(60, 60, 60)" stroke-width="1px" opacity="0.25"></line><line x1="0" y1="28.755693703414295" x2="275" y2="28.755693703414295" fill="rgb(0, 0, 0)" stroke="rgb(60, 60, 60)" stroke-width="1px" opacity="0.25"></line><line x1="0" y1="14.618440744834004" x2="275" y2="14.618440744834004" fill="rgb(0, 0, 0)" stroke="rgb(60, 60, 60)" stroke-width="1px" opacity="0.25"></line><line x1="0" y1="0.48118778625371306" x2="275" y2="0.48118778625371306" fill="rgb(0, 0, 0)" stroke="rgb(60, 60, 60)" stroke-width="1px" opacity="0.25"></line></g></g></g><g><g><line x1="0" y1="127.71646441347633" x2="275" y2="127.71646441347633" fill="rgb(0, 0, 0)" stroke="rgb(153, 153, 153)" stroke-width="1.5px"></line></g></g><g><g><line x1="11.331644983734142" y1="0" x2="11.331644983734142" y2="177" fill="rgb(0, 0, 0)" stroke="rgb(153, 153, 153)" stroke-width="1.5px"></line></g></g><g><g><g><g><g><path stroke="rgb(0, 119, 187)" stroke-width="2px" d="M11.779677674030744,127.71646441347633L32.97507033037,127.71646441347633L47.346580472961016,127.71646441347633L65.8882410406204,127.71646441347633L68.99000581959689,127.71646441347633L72.09177059857335,127.71646441347633L72.60873139506943,127.71646441347633L75.71049617404591,127.71646441347633L78.81226095302239,127.71646441347633L102.00656868914648,127.71646441347633L105.10833346812296,127.71646441347633L108.21009824709944,127.71646441347633L111.31186302607591,127.71646441347633L114.41362780505239,127.71646441347633L117.51539258402887,127.71646441347633L120.61715736300533,127.71646441347633L125.61444506246745,127.71646441347633L128.7162098414439,127.71646441347633L131.1976216646251,127.71646441347633L135.22991587729453,127.71646441347633L138.331680656271,127.71646441347633L141.43344543524748,127.71646441347633L144.53521021422395,127.71646441347633L147.63697499320045,127.71646441347633L150.7387397721769,127.71646441347633L152.80658295816124,127.71646441347633L152.80658295816124,127.71646441347633L156.80441311773092,127.71646441347633L159.9061778967074,127.71646441347633L163.00794267568386,127.71646441347633L166.10970745466034,127.71646441347633L169.2114722336368,127.71646441347633L175.4150017915898,127.71646441347633L188.27009359779228,127.71646441347633L191.37185837676878,127.71646441347633L194.47362315574523,127.71646441347633L197.5753879347217,127.71646441347633L200.6771527136982,127.71646441347633L203.77891749267468,127.71646441347633L206.88068227165115,127.71646441347633L209.98244705062763,127.71646441347633L213.0842118296041,127.71646441347633L218.770780591061,127.71646441347633L221.87254537003744,127.71646441347633L223.8714604498223,127.71646441347633L226.97322522879875,127.71646441347633L230.07499000777526,127.71646441347633L233.17675478675173,127.71646441347633L236.27851956572823,127.71646441347633L239.38028434470468,127.71646441347633L241.448127530689,127.71646441347633L243.44704261047383,127.71646441347633L246.54880738945033,127.71646441347633L257.09480763797035,127.71646441347633L256.7501671069729,127.71646441347633L259.85193188594945,127.71646441347633" style="fill: none;" fill="none"></path></g></g></g></g><g opacity="0.2"><g><g><g><path stroke="rgb(0, 119, 187)" stroke-width="2px" d="M11.779677674030744,127.71646441347633L32.97507033037,127.71646441347633L47.346580472961016,127.71646441347633L65.8882410406204,127.71646441347633L68.99000581959689,127.71646441347633L72.09177059857335,127.71646441347633L72.60873139506943,127.71646441347633L75.71049617404591,127.71646441347633L78.81226095302239,127.71646441347633L102.00656868914648,127.71646441347633L105.10833346812296,127.71646441347633L108.21009824709944,127.71646441347633L111.31186302607591,127.71646441347633L114.41362780505239,127.71646441347633L117.51539258402887,127.71646441347633L120.61715736300533,127.71646441347633L125.61444506246745,127.71646441347633L128.7162098414439,127.71646441347633L131.1976216646251,127.71646441347633L135.22991587729453,127.71646441347633L138.331680656271,127.71646441347633L141.43344543524748,127.71646441347633L144.53521021422395,127.71646441347633L147.63697499320045,127.71646441347633L150.7387397721769,127.71646441347633L152.80658295816124,127.71646441347633L152.80658295816124,127.71646441347633L156.80441311773092,127.71646441347633L159.9061778967074,127.71646441347633L163.00794267568386,127.71646441347633L166.10970745466034,127.71646441347633L169.2114722336368,127.71646441347633L175.4150017915898,127.71646441347633L188.27009359779228,127.71646441347633L191.37185837676878,127.71646441347633L194.47362315574523,127.71646441347633L197.5753879347217,127.71646441347633L200.6771527136982,127.71646441347633L203.77891749267468,127.71646441347633L206.88068227165115,127.71646441347633L209.98244705062763,127.71646441347633L213.0842118296041,127.71646441347633L218.770780591061,127.71646441347633L221.87254537003744,127.71646441347633L223.8714604498223,127.71646441347633L226.97322522879875,127.71646441347633L230.07499000777526,127.71646441347633L233.17675478675173,127.71646441347633L236.27851956572823,127.71646441347633L239.38028434470468,127.71646441347633L241.448127530689,127.71646441347633L243.44704261047383,127.71646441347633L246.54880738945033,127.71646441347633L257.09480763797035,127.71646441347633L256.7501671069729,127.71646441347633L259.85193188594945,127.71646441347633" style="fill: none;" fill="none"></path></g></g></g></g></g></g><g transform="translate(55, 177)" clip-path="url(#clip_1)"><clipPath id="clip_1"><rect width="275" height="23"></rect></clipPath><g><g><line x1="11.331644983734142" y1="0" x2="11.331644983734142" y2="5" style="visibility: inherit;" fill="rgb(0, 0, 0)" stroke="rgb(204, 204, 204)" stroke-width="1px"></line><line x1="45.79569808347278" y1="0" x2="45.79569808347278" y2="5" style="visibility: inherit;" fill="rgb(0, 0, 0)" stroke="rgb(204, 204, 204)" stroke-width="1px"></line><line x1="80.25975118321142" y1="0" x2="80.25975118321142" y2="5" style="visibility: inherit;" fill="rgb(0, 0, 0)" stroke="rgb(204, 204, 204)" stroke-width="1px"></line><line x1="114.72380428295004" y1="0" x2="114.72380428295004" y2="5" style="visibility: inherit;" fill="rgb(0, 0, 0)" stroke="rgb(204, 204, 204)" stroke-width="1px"></line><line x1="149.18785738268866" y1="0" x2="149.18785738268866" y2="5" style="visibility: inherit;" fill="rgb(0, 0, 0)" stroke="rgb(204, 204, 204)" stroke-width="1px"></line><line x1="183.65191048242733" y1="0" x2="183.65191048242733" y2="5" style="visibility: inherit;" fill="rgb(0, 0, 0)" stroke="rgb(204, 204, 204)" stroke-width="1px"></line><line x1="218.11596358216593" y1="0" x2="218.11596358216593" y2="5" style="visibility: inherit;" fill="rgb(0, 0, 0)" stroke="rgb(204, 204, 204)" stroke-width="1px"></line><line x1="252.5800166819046" y1="0" x2="252.5800166819046" y2="5" style="visibility: inherit;" fill="rgb(0, 0, 0)" stroke="rgb(204, 204, 204)" stroke-width="1px"></line></g><g transform="translate(0, 8)"><text x="11.331644983734142" y="0" dx="0em" dy="0.95em" style="text-anchor: middle; visibility: inherit; font-family: &quot;Helvetica Neue&quot;, sans-serif; font-size: 12px; font-weight: 200;" fill="rgb(50, 49, 63)" stroke="none" stroke-width="1px">0</text><text x="45.79569808347278" y="0" dx="0em" dy="0.95em" style="text-anchor: middle; visibility: inherit; font-family: &quot;Helvetica Neue&quot;, sans-serif; font-size: 12px; font-weight: 200;" fill="rgb(50, 49, 63)" stroke="none" stroke-width="1px">100k</text><text x="80.25975118321142" y="0" dx="0em" dy="0.95em" style="text-anchor: middle; visibility: inherit; font-family: &quot;Helvetica Neue&quot;, sans-serif; font-size: 12px; font-weight: 200;" fill="rgb(50, 49, 63)" stroke="none" stroke-width="1px">200k</text><text x="114.72380428295004" y="0" dx="0em" dy="0.95em" style="text-anchor: middle; visibility: inherit; font-family: &quot;Helvetica Neue&quot;, sans-serif; font-size: 12px; font-weight: 200;" fill="rgb(50, 49, 63)" stroke="none" stroke-width="1px">300k</text><text x="149.18785738268866" y="0" dx="0em" dy="0.95em" style="text-anchor: middle; visibility: inherit; font-family: &quot;Helvetica Neue&quot;, sans-serif; font-size: 12px; font-weight: 200;" fill="rgb(50, 49, 63)" stroke="none" stroke-width="1px">400k</text><text x="183.65191048242733" y="0" dx="0em" dy="0.95em" style="text-anchor: middle; visibility: inherit; font-family: &quot;Helvetica Neue&quot;, sans-serif; font-size: 12px; font-weight: 200;" fill="rgb(50, 49, 63)" stroke="none" stroke-width="1px">500k</text><text x="218.11596358216593" y="0" dx="0em" dy="0.95em" style="text-anchor: middle; visibility: inherit; font-family: &quot;Helvetica Neue&quot;, sans-serif; font-size: 12px; font-weight: 200;" fill="rgb(50, 49, 63)" stroke="none" stroke-width="1px">600k</text><text x="252.5800166819046" y="0" dx="0em" dy="0.95em" style="text-anchor: middle; visibility: inherit; font-family: &quot;Helvetica Neue&quot;, sans-serif; font-size: 12px; font-weight: 200;" fill="rgb(50, 49, 63)" stroke="none" stroke-width="1px">700k</text></g><line x1="0" y1="0" x2="275" y2="0" fill="rgb(0, 0, 0)" stroke="rgb(204, 204, 204)" stroke-width="1px"></line></g></g></g></g></svg>