<svg viewBox="0 0 330 200" xmlns="http://www.w3.org/2000/svg"><g><g><g><g><g><line x1="55" y1="170.43407202228593" x2="50" y2="170.43407202228593" style="visibility: inherit;" fill="rgb(0, 0, 0)" stroke="rgb(204, 204, 204)" stroke-width="1px"></line><line x1="55" y1="153.33832713775575" x2="50" y2="153.33832713775575" style="visibility: inherit;" fill="rgb(0, 0, 0)" stroke="rgb(204, 204, 204)" stroke-width="1px"></line><line x1="55" y1="136.2425822532256" x2="50" y2="136.2425822532256" style="visibility: inherit;" fill="rgb(0, 0, 0)" stroke="rgb(204, 204, 204)" stroke-width="1px"></line><line x1="55" y1="119.14683736869544" x2="50" y2="119.14683736869544" style="visibility: inherit;" fill="rgb(0, 0, 0)" stroke="rgb(204, 204, 204)" stroke-width="1px"></line><line x1="55" y1="102.0510924841653" x2="50" y2="102.0510924841653" style="visibility: inherit;" fill="rgb(0, 0, 0)" stroke="rgb(204, 204, 204)" stroke-width="1px"></line><line x1="55" y1="84.95534759963513" x2="50" y2="84.95534759963513" style="visibility: inherit;" fill="rgb(0, 0, 0)" stroke="rgb(204, 204, 204)" stroke-width="1px"></line><line x1="55" y1="67.85960271510497" x2="50" y2="67.85960271510497" style="visibility: inherit;" fill="rgb(0, 0, 0)" stroke="rgb(204, 204, 204)" stroke-width="1px"></line><line x1="55" y1="50.76385783057481" x2="50" y2="50.76385783057481" style="visibility: inherit;" fill="rgb(0, 0, 0)" stroke="rgb(204, 204, 204)" stroke-width="1px"></line><line x1="55" y1="33.66811294604466" x2="50" y2="33.66811294604466" style="visibility: inherit;" fill="rgb(0, 0, 0)" stroke="rgb(204, 204, 204)" stroke-width="1px"></line><line x1="55" y1="16.57236806151448" x2="50" y2="16.57236806151448" style="visibility: inherit;" fill="rgb(0, 0, 0)" stroke="rgb(204, 204, 204)" stroke-width="1px"></line></g><g transform="translate(45, 0)"><text x="0" y="170.43407202228593" dx="0em" dy="0.3em" style="text-anchor: end; visibility: inherit; font-family: &quot;Helvetica Neue&quot;, sans-serif; font-size: 12px; font-weight: 200;" fill="rgb(50, 49, 63)" stroke="none" stroke-width="1px">-0.02</text><text x="0" y="153.33832713775575" dx="0em" dy="0.3em" style="text-anchor: end; visibility: hidden; font-family: &quot;Helvetica Neue&quot;, sans-serif; font-size: 12px; font-weight: 200;" fill="rgb(50, 49, 63)" stroke="none" stroke-width="1px">0</text><text x="0" y="136.2425822532256" dx="0em" dy="0.3em" style="text-anchor: end; visibility: inherit; font-family: &quot;Helvetica Neue&quot;, sans-serif; font-size: 12px; font-weight: 200;" fill="rgb(50, 49, 63)" stroke="none" stroke-width="1px">0.02</text><text x="0" y="119.14683736869544" dx="0em" dy="0.3em" style="text-anchor: end; visibility: hidden; font-family: &quot;Helvetica Neue&quot;, sans-serif; font-size: 12px; font-weight: 200;" fill="rgb(50, 49, 63)" stroke="none" stroke-width="1px">0.04</text><text x="0" y="102.0510924841653" dx="0em" dy="0.3em" style="text-anchor: end; visibility: inherit; font-family: &quot;Helvetica Neue&quot;, sans-serif; font-size: 12px; font-weight: 200;" fill="rgb(50, 49, 63)" stroke="none" stroke-width="1px">0.06</text><text x="0" y="84.95534759963513" dx="0em" dy="0.3em" style="text-anchor: end; visibility: hidden; font-family: &quot;Helvetica Neue&quot;, sans-serif; font-size: 12px; font-weight: 200;" fill="rgb(50, 49, 63)" stroke="none" stroke-width="1px">0.08</text><text x="0" y="67.85960271510497" dx="0em" dy="0.3em" style="text-anchor: end; visibility: inherit; font-family: &quot;Helvetica Neue&quot;, sans-serif; font-size: 12px; font-weight: 200;" fill="rgb(50, 49, 63)" stroke="none" stroke-width="1px">0.1</text><text x="0" y="50.76385783057481" dx="0em" dy="0.3em" style="text-anchor: end; visibility: hidden; font-family: &quot;Helvetica Neue&quot;, sans-serif; font-size: 12px; font-weight: 200;" fill="rgb(50, 49, 63)" stroke="none" stroke-width="1px">0.12</text><text x="0" y="33.66811294604466" dx="0em" dy="0.3em" style="text-anchor: end; visibility: inherit; font-family: &quot;Helvetica Neue&quot;, sans-serif; font-size: 12px; font-weight: 200;" fill="rgb(50, 49, 63)" stroke="none" stroke-width="1px">0.14</text><text x="0" y="16.57236806151448" dx="0em" dy="0.3em" style="text-anchor: end; visibility: hidden; font-family: &quot;Helvetica Neue&quot;, sans-serif; font-size: 12px; font-weight: 200;" fill="rgb(50, 49, 63)" stroke="none" stroke-width="1px">0.16</text></g><line x1="55" y1="0" x2="55" y2="177" fill="rgb(0, 0, 0)" stroke="rgb(204, 204, 204)" stroke-width="1px"></line></g></g><g transform="translate(55, 0)" clip-path="url(#clip_0)"><clipPath id="clip_0"><rect width="275" height="177"></rect></clipPath><g><g><g><line x1="10.5671573787577" y1="0" x2="10.5671573787577" y2="177" fill="rgb(0, 0, 0)" stroke="rgb(60, 60, 60)" stroke-width="1px" opacity="0.25"></line><line x1="44.54739672880191" y1="0" x2="44.54739672880191" y2="177" fill="rgb(0, 0, 0)" stroke="rgb(60, 60, 60)" stroke-width="1px" opacity="0.25"></line><line x1="78.52763607884611" y1="0" x2="78.52763607884611" y2="177" fill="rgb(0, 0, 0)" stroke="rgb(60, 60, 60)" stroke-width="1px" opacity="0.25"></line><line x1="112.50787542889033" y1="0" x2="112.50787542889033" y2="177" fill="rgb(0, 0, 0)" stroke="rgb(60, 60, 60)" stroke-width="1px" opacity="0.25"></line><line x1="146.48811477893454" y1="0" x2="146.48811477893454" y2="177" fill="rgb(0, 0, 0)" stroke="rgb(60, 60, 60)" stroke-width="1px" opacity="0.25"></line><line x1="180.46835412897875" y1="0" x2="180.46835412897875" y2="177" fill="rgb(0, 0, 0)" stroke="rgb(60, 60, 60)" stroke-width="1px" opacity="0.25"></line><line x1="214.44859347902297" y1="0" x2="214.44859347902297" y2="177" fill="rgb(0, 0, 0)" stroke="rgb(60, 60, 60)" stroke-width="1px" opacity="0.25"></line><line x1="248.42883282906718" y1="0" x2="248.42883282906718" y2="177" fill="rgb(0, 0, 0)" stroke="rgb(60, 60, 60)" stroke-width="1px" opacity="0.25"></line></g><g><line x1="0" y1="170.43407202228593" x2="275" y2="170.43407202228593" fill="rgb(0, 0, 0)" stroke="rgb(60, 60, 60)" stroke-width="1px" opacity="0.25"></line><line x1="0" y1="153.33832713775575" x2="275" y2="153.33832713775575" fill="rgb(0, 0, 0)" stroke="rgb(60, 60, 60)" stroke-width="1px" opacity="0.25"></line><line x1="0" y1="136.2425822532256" x2="275" y2="136.2425822532256" fill="rgb(0, 0, 0)" stroke="rgb(60, 60, 60)" stroke-width="1px" opacity="0.25"></line><line x1="0" y1="119.14683736869544" x2="275" y2="119.14683736869544" fill="rgb(0, 0, 0)" stroke="rgb(60, 60, 60)" stroke-width="1px" opacity="0.25"></line><line x1="0" y1="102.0510924841653" x2="275" y2="102.0510924841653" fill="rgb(0, 0, 0)" stroke="rgb(60, 60, 60)" stroke-width="1px" opacity="0.25"></line><line x1="0" y1="84.95534759963513" x2="275" y2="84.95534759963513" fill="rgb(0, 0, 0)" stroke="rgb(60, 60, 60)" stroke-width="1px" opacity="0.25"></line><line x1="0" y1="67.85960271510497" x2="275" y2="67.85960271510497" fill="rgb(0, 0, 0)" stroke="rgb(60, 60, 60)" stroke-width="1px" opacity="0.25"></line><line x1="0" y1="50.76385783057481" x2="275" y2="50.76385783057481" fill="rgb(0, 0, 0)" stroke="rgb(60, 60, 60)" stroke-width="1px" opacity="0.25"></line><line x1="0" y1="33.66811294604466" x2="275" y2="33.66811294604466" fill="rgb(0, 0, 0)" stroke="rgb(60, 60, 60)" stroke-width="1px" opacity="0.25"></line><line x1="0" y1="16.57236806151448" x2="275" y2="16.57236806151448" fill="rgb(0, 0, 0)" stroke="rgb(60, 60, 60)" stroke-width="1px" opacity="0.25"></line></g></g></g><g><g><line x1="0" y1="153.33832713775575" x2="275" y2="153.33832713775575" fill="rgb(0, 0, 0)" stroke="rgb(153, 153, 153)" stroke-width="1.5px"></line></g></g><g><g><line x1="10.5671573787577" y1="0" x2="10.5671573787577" y2="177" fill="rgb(0, 0, 0)" stroke="rgb(153, 153, 153)" stroke-width="1.5px"></line></g></g><g><g><g><g><g><path stroke="rgb(0, 119, 187)" stroke-width="2px" d="M11.008900490308276,152.8193578185653L31.906747690585462,153.1388081840775L46.0765074995539,152.8258576022846L64.35787626987769,144.17356155718406L67.41609781138166,145.76246817384046L70.47431935288564,152.780006190629L70.9840229431363,152.47469353621256L74.04224448464028,151.6802099721902L77.10046602614426,131.9273884221045L99.96916710872401,104.01029051920096L103.02738865022799,110.93818728823545L106.08561019173197,128.35159339393664L109.14383173323596,112.95425902434508L112.20205327473994,104.7417338530456L115.2602748162439,60.438497039555L118.31849635774789,98.51555767134893L123.24563106350429,133.0869635631066L126.30385260500827,131.20200792681788L128.75042983821146,118.68838514383069L132.72611784216664,133.22825838223147L135.7843393836706,101.63365034685414L138.84256092517458,82.0476161531162L141.90078246667855,119.3956250434857L144.95900400818255,114.64809845988057L148.01722554968651,97.85453822888353L150.05603991068918,120.00824276266803L150.05603991068918,121.00515946668835L153.9977476752943,110.62818441303597L157.0559692167983,112.63329978396439L160.11419075830227,132.15236982678965L163.17241229980624,88.87677129131927L166.23063384131024,77.76678946349382L172.3470769243182,108.0573424541431L185.02170620188465,57.15157231207904L188.07992774338862,106.61807032019549L191.13814928489262,14.287055049476919L194.1963708263966,67.31729179297558L197.25459236790059,82.46609490153368L200.31281390940455,129.47873095006045L203.37103545090855,90.13121249125159L206.42925699241252,87.03934752248978L209.4874785339165,63.45519643326526L215.0942180266738,40.3571170574684L218.15243956817775,63.32343290482561L220.12329345048033,142.6550704969674L223.1815149919843,99.61820420787565L226.2397365334883,64.50653955114792L229.29795807499227,93.77873463504076L232.35617961649626,112.45679427255268L235.41440115800023,80.15304007188212L237.4532155190029,46.08153794715824L239.42406940130545,92.79710162000382L242.48229094280944,53.57571937828014L252.88024418392297,148.7874483794325L252.54044179042253,153.07347524880242L255.5986633319265,149.72621552874367" style="fill: none;" fill="none"></path></g></g></g></g><g opacity="0.2"><g><g><g><path stroke="rgb(0, 119, 187)" stroke-width="2px" d="M11.008900490308276,152.8193578185653L31.906747690585462,153.15318345052557L46.0765074995539,152.8111411011758L64.35787626987769,143.76589889518607L67.41609781138166,145.83733781211436L70.47431935288564,153.11067546024523L70.9840229431363,152.46030707617626L74.04224448464028,151.64277357389946L77.10046602614426,130.99662719724702L99.96916710872401,102.69482517299184L103.02738865022799,111.26463268572921L106.08561019173197,129.1721203832105L109.14383173323596,112.22873017970463L112.20205327473994,104.35475622717286L115.2602748162439,58.350909964573745L118.31849635774789,100.30976471682614L123.24563106350429,134.71598268889622L126.30385260500827,131.11318802772573L128.75042983821146,118.09873799698836L132.72611784216664,133.91338329922417L135.7843393836706,100.14489918288348L138.84256092517458,81.12471401833274L141.90078246667855,121.155478865545L144.95900400818255,114.42439301876828L148.01722554968651,97.06321863684703L150.05603991068918,121.0521345993385L150.05603991068918,121.0521345993385L153.9977476752943,110.13921700213089L157.0559692167983,112.72778166008143L160.11419075830227,133.0721165827343L163.17241229980624,86.83760696242277L166.23063384131024,77.24328246637116L172.3470769243182,109.4846459982051L185.02170620188465,54.75287110119642L188.07992774338862,108.94895242528997L191.13814928489262,9.936378937244086L194.1963708263966,69.8160987599467L197.25459236790059,83.17991284905736L200.31281390940455,131.6939860518235L203.37103545090855,88.2771409408365L206.42925699241252,86.89365755013975L209.4874785339165,62.343901355762526L215.0942180266738,39.26872588269265L218.15243956817775,64.40561532695237L220.12329345048033,146.39321048822015L223.1815149919843,97.59028904242106L226.2397365334883,62.852063206066504L229.29795807499227,95.15805272799906L232.35617961649626,113.33691226594331L235.41440115800023,78.63087364357827L237.4532155190029,44.47607449625502L239.42406940130545,94.99835854699654L242.48229094280944,51.72759141924605L252.88024418392297,153.27386492922503L252.54044179042253,153.27543463008163L255.5986633319265,149.5684912487409" style="fill: none;" fill="none"></path></g></g></g></g></g></g><g transform="translate(55, 177)" clip-path="url(#clip_1)"><clipPath id="clip_1"><rect width="275" height="23"></rect></clipPath><g><g><line x1="10.5671573787577" y1="0" x2="10.5671573787577" y2="5" style="visibility: inherit;" fill="rgb(0, 0, 0)" stroke="rgb(204, 204, 204)" stroke-width="1px"></line><line x1="44.54739672880191" y1="0" x2="44.54739672880191" y2="5" style="visibility: inherit;" fill="rgb(0, 0, 0)" stroke="rgb(204, 204, 204)" stroke-width="1px"></line><line x1="78.52763607884611" y1="0" x2="78.52763607884611" y2="5" style="visibility: inherit;" fill="rgb(0, 0, 0)" stroke="rgb(204, 204, 204)" stroke-width="1px"></line><line x1="112.50787542889033" y1="0" x2="112.50787542889033" y2="5" style="visibility: inherit;" fill="rgb(0, 0, 0)" stroke="rgb(204, 204, 204)" stroke-width="1px"></line><line x1="146.48811477893454" y1="0" x2="146.48811477893454" y2="5" style="visibility: inherit;" fill="rgb(0, 0, 0)" stroke="rgb(204, 204, 204)" stroke-width="1px"></line><line x1="180.46835412897875" y1="0" x2="180.46835412897875" y2="5" style="visibility: inherit;" fill="rgb(0, 0, 0)" stroke="rgb(204, 204, 204)" stroke-width="1px"></line><line x1="214.44859347902297" y1="0" x2="214.44859347902297" y2="5" style="visibility: inherit;" fill="rgb(0, 0, 0)" stroke="rgb(204, 204, 204)" stroke-width="1px"></line><line x1="248.42883282906718" y1="0" x2="248.42883282906718" y2="5" style="visibility: inherit;" fill="rgb(0, 0, 0)" stroke="rgb(204, 204, 204)" stroke-width="1px"></line></g><g transform="translate(0, 8)"><text x="10.5671573787577" y="0" dx="0em" dy="0.95em" style="text-anchor: middle; visibility: inherit; font-family: &quot;Helvetica Neue&quot;, sans-serif; font-size: 12px; font-weight: 200;" fill="rgb(50, 49, 63)" stroke="none" stroke-width="1px">0</text><text x="44.54739672880191" y="0" dx="0em" dy="0.95em" style="text-anchor: middle; visibility: inherit; font-family: &quot;Helvetica Neue&quot;, sans-serif; font-size: 12px; font-weight: 200;" fill="rgb(50, 49, 63)" stroke="none" stroke-width="1px">100k</text><text x="78.52763607884611" y="0" dx="0em" dy="0.95em" style="text-anchor: middle; visibility: inherit; font-family: &quot;Helvetica Neue&quot;, sans-serif; font-size: 12px; font-weight: 200;" fill="rgb(50, 49, 63)" stroke="none" stroke-width="1px">200k</text><text x="112.50787542889033" y="0" dx="0em" dy="0.95em" style="text-anchor: middle; visibility: inherit; font-family: &quot;Helvetica Neue&quot;, sans-serif; font-size: 12px; font-weight: 200;" fill="rgb(50, 49, 63)" stroke="none" stroke-width="1px">300k</text><text x="146.48811477893454" y="0" dx="0em" dy="0.95em" style="text-anchor: middle; visibility: inherit; font-family: &quot;Helvetica Neue&quot;, sans-serif; font-size: 12px; font-weight: 200;" fill="rgb(50, 49, 63)" stroke="none" stroke-width="1px">400k</text><text x="180.46835412897875" y="0" dx="0em" dy="0.95em" style="text-anchor: middle; visibility: inherit; font-family: &quot;Helvetica Neue&quot;, sans-serif; font-size: 12px; font-weight: 200;" fill="rgb(50, 49, 63)" stroke="none" stroke-width="1px">500k</text><text x="214.44859347902297" y="0" dx="0em" dy="0.95em" style="text-anchor: middle; visibility: inherit; font-family: &quot;Helvetica Neue&quot;, sans-serif; font-size: 12px; font-weight: 200;" fill="rgb(50, 49, 63)" stroke="none" stroke-width="1px">600k</text><text x="248.42883282906718" y="0" dx="0em" dy="0.95em" style="text-anchor: middle; visibility: inherit; font-family: &quot;Helvetica Neue&quot;, sans-serif; font-size: 12px; font-weight: 200;" fill="rgb(50, 49, 63)" stroke="none" stroke-width="1px">700k</text></g><line x1="0" y1="0" x2="275" y2="0" fill="rgb(0, 0, 0)" stroke="rgb(204, 204, 204)" stroke-width="1px"></line></g></g></g></g></svg>