<svg viewBox="0 0 330 200" xmlns="http://www.w3.org/2000/svg"><g><g><g><g><g><line x1="46" y1="172.49405751254966" x2="41" y2="172.49405751254966" style="visibility: inherit;" fill="rgb(0, 0, 0)" stroke="rgb(204, 204, 204)" stroke-width="1px"></line><line x1="46" y1="160.37641211948085" x2="41" y2="160.37641211948085" style="visibility: inherit;" fill="rgb(0, 0, 0)" stroke="rgb(204, 204, 204)" stroke-width="1px"></line><line x1="46" y1="148.25876672641203" x2="41" y2="148.25876672641203" style="visibility: inherit;" fill="rgb(0, 0, 0)" stroke="rgb(204, 204, 204)" stroke-width="1px"></line><line x1="46" y1="136.14112133334322" x2="41" y2="136.14112133334322" style="visibility: inherit;" fill="rgb(0, 0, 0)" stroke="rgb(204, 204, 204)" stroke-width="1px"></line><line x1="46" y1="124.02347594027441" x2="41" y2="124.02347594027441" style="visibility: inherit;" fill="rgb(0, 0, 0)" stroke="rgb(204, 204, 204)" stroke-width="1px"></line><line x1="46" y1="111.9058305472056" x2="41" y2="111.9058305472056" style="visibility: inherit;" fill="rgb(0, 0, 0)" stroke="rgb(204, 204, 204)" stroke-width="1px"></line><line x1="46" y1="99.7881851541368" x2="41" y2="99.7881851541368" style="visibility: inherit;" fill="rgb(0, 0, 0)" stroke="rgb(204, 204, 204)" stroke-width="1px"></line><line x1="46" y1="87.67053976106797" x2="41" y2="87.67053976106797" style="visibility: inherit;" fill="rgb(0, 0, 0)" stroke="rgb(204, 204, 204)" stroke-width="1px"></line><line x1="46" y1="75.55289436799919" x2="41" y2="75.55289436799919" style="visibility: inherit;" fill="rgb(0, 0, 0)" stroke="rgb(204, 204, 204)" stroke-width="1px"></line><line x1="46" y1="63.43524897493036" x2="41" y2="63.43524897493036" style="visibility: inherit;" fill="rgb(0, 0, 0)" stroke="rgb(204, 204, 204)" stroke-width="1px"></line><line x1="46" y1="51.31760358186155" x2="41" y2="51.31760358186155" style="visibility: inherit;" fill="rgb(0, 0, 0)" stroke="rgb(204, 204, 204)" stroke-width="1px"></line><line x1="46" y1="39.19995818879275" x2="41" y2="39.19995818879275" style="visibility: inherit;" fill="rgb(0, 0, 0)" stroke="rgb(204, 204, 204)" stroke-width="1px"></line><line x1="46" y1="27.082312795723936" x2="41" y2="27.082312795723936" style="visibility: inherit;" fill="rgb(0, 0, 0)" stroke="rgb(204, 204, 204)" stroke-width="1px"></line><line x1="46" y1="14.964667402655124" x2="41" y2="14.964667402655124" style="visibility: inherit;" fill="rgb(0, 0, 0)" stroke="rgb(204, 204, 204)" stroke-width="1px"></line><line x1="46" y1="2.8470220095863112" x2="41" y2="2.8470220095863112" style="visibility: inherit;" fill="rgb(0, 0, 0)" stroke="rgb(204, 204, 204)" stroke-width="1px"></line></g><g transform="translate(36, 0)"><text x="0" y="172.49405751254966" dx="0em" dy="0.3em" style="text-anchor: end; visibility: hidden; font-family: &quot;Helvetica Neue&quot;, sans-serif; font-size: 12px; font-weight: 200;" fill="rgb(50, 49, 63)" stroke="none" stroke-width="1px">0</text><text x="0" y="160.37641211948085" dx="0em" dy="0.3em" style="text-anchor: end; visibility: inherit; font-family: &quot;Helvetica Neue&quot;, sans-serif; font-size: 12px; font-weight: 200;" fill="rgb(50, 49, 63)" stroke="none" stroke-width="1px">0.02</text><text x="0" y="148.25876672641203" dx="0em" dy="0.3em" style="text-anchor: end; visibility: hidden; font-family: &quot;Helvetica Neue&quot;, sans-serif; font-size: 12px; font-weight: 200;" fill="rgb(50, 49, 63)" stroke="none" stroke-width="1px">0.04</text><text x="0" y="136.14112133334322" dx="0em" dy="0.3em" style="text-anchor: end; visibility: inherit; font-family: &quot;Helvetica Neue&quot;, sans-serif; font-size: 12px; font-weight: 200;" fill="rgb(50, 49, 63)" stroke="none" stroke-width="1px">0.06</text><text x="0" y="124.02347594027441" dx="0em" dy="0.3em" style="text-anchor: end; visibility: hidden; font-family: &quot;Helvetica Neue&quot;, sans-serif; font-size: 12px; font-weight: 200;" fill="rgb(50, 49, 63)" stroke="none" stroke-width="1px">0.08</text><text x="0" y="111.9058305472056" dx="0em" dy="0.3em" style="text-anchor: end; visibility: inherit; font-family: &quot;Helvetica Neue&quot;, sans-serif; font-size: 12px; font-weight: 200;" fill="rgb(50, 49, 63)" stroke="none" stroke-width="1px">0.1</text><text x="0" y="99.7881851541368" dx="0em" dy="0.3em" style="text-anchor: end; visibility: hidden; font-family: &quot;Helvetica Neue&quot;, sans-serif; font-size: 12px; font-weight: 200;" fill="rgb(50, 49, 63)" stroke="none" stroke-width="1px">0.12</text><text x="0" y="87.67053976106797" dx="0em" dy="0.3em" style="text-anchor: end; visibility: inherit; font-family: &quot;Helvetica Neue&quot;, sans-serif; font-size: 12px; font-weight: 200;" fill="rgb(50, 49, 63)" stroke="none" stroke-width="1px">0.14</text><text x="0" y="75.55289436799919" dx="0em" dy="0.3em" style="text-anchor: end; visibility: hidden; font-family: &quot;Helvetica Neue&quot;, sans-serif; font-size: 12px; font-weight: 200;" fill="rgb(50, 49, 63)" stroke="none" stroke-width="1px">0.16</text><text x="0" y="63.43524897493036" dx="0em" dy="0.3em" style="text-anchor: end; visibility: inherit; font-family: &quot;Helvetica Neue&quot;, sans-serif; font-size: 12px; font-weight: 200;" fill="rgb(50, 49, 63)" stroke="none" stroke-width="1px">0.18</text><text x="0" y="51.31760358186155" dx="0em" dy="0.3em" style="text-anchor: end; visibility: hidden; font-family: &quot;Helvetica Neue&quot;, sans-serif; font-size: 12px; font-weight: 200;" fill="rgb(50, 49, 63)" stroke="none" stroke-width="1px">0.2</text><text x="0" y="39.19995818879275" dx="0em" dy="0.3em" style="text-anchor: end; visibility: inherit; font-family: &quot;Helvetica Neue&quot;, sans-serif; font-size: 12px; font-weight: 200;" fill="rgb(50, 49, 63)" stroke="none" stroke-width="1px">0.22</text><text x="0" y="27.082312795723936" dx="0em" dy="0.3em" style="text-anchor: end; visibility: hidden; font-family: &quot;Helvetica Neue&quot;, sans-serif; font-size: 12px; font-weight: 200;" fill="rgb(50, 49, 63)" stroke="none" stroke-width="1px">0.24</text><text x="0" y="14.964667402655124" dx="0em" dy="0.3em" style="text-anchor: end; visibility: inherit; font-family: &quot;Helvetica Neue&quot;, sans-serif; font-size: 12px; font-weight: 200;" fill="rgb(50, 49, 63)" stroke="none" stroke-width="1px">0.26</text><text x="0" y="2.8470220095863112" dx="0em" dy="0.3em" style="text-anchor: end; visibility: hidden; font-family: &quot;Helvetica Neue&quot;, sans-serif; font-size: 12px; font-weight: 200;" fill="rgb(50, 49, 63)" stroke="none" stroke-width="1px">0.28</text></g><line x1="46" y1="0" x2="46" y2="177" fill="rgb(0, 0, 0)" stroke="rgb(204, 204, 204)" stroke-width="1px"></line></g></g><g transform="translate(46, 0)" clip-path="url(#clip_0)"><clipPath id="clip_0"><rect width="284" height="177"></rect></clipPath><g><g><g><line x1="26.984243622929085" y1="0" x2="26.984243622929085" y2="177" fill="rgb(0, 0, 0)" stroke="rgb(60, 60, 60)" stroke-width="1px" opacity="0.25"></line><line x1="56.20566446408562" y1="0" x2="56.20566446408562" y2="177" fill="rgb(0, 0, 0)" stroke="rgb(60, 60, 60)" stroke-width="1px" opacity="0.25"></line><line x1="85.42708530524217" y1="0" x2="85.42708530524217" y2="177" fill="rgb(0, 0, 0)" stroke="rgb(60, 60, 60)" stroke-width="1px" opacity="0.25"></line><line x1="114.6485061463987" y1="0" x2="114.6485061463987" y2="177" fill="rgb(0, 0, 0)" stroke="rgb(60, 60, 60)" stroke-width="1px" opacity="0.25"></line><line x1="143.86992698755526" y1="0" x2="143.86992698755526" y2="177" fill="rgb(0, 0, 0)" stroke="rgb(60, 60, 60)" stroke-width="1px" opacity="0.25"></line><line x1="173.0913478287118" y1="0" x2="173.0913478287118" y2="177" fill="rgb(0, 0, 0)" stroke="rgb(60, 60, 60)" stroke-width="1px" opacity="0.25"></line><line x1="202.31276866986832" y1="0" x2="202.31276866986832" y2="177" fill="rgb(0, 0, 0)" stroke="rgb(60, 60, 60)" stroke-width="1px" opacity="0.25"></line><line x1="231.53418951102486" y1="0" x2="231.53418951102486" y2="177" fill="rgb(0, 0, 0)" stroke="rgb(60, 60, 60)" stroke-width="1px" opacity="0.25"></line><line x1="260.7556103521814" y1="0" x2="260.7556103521814" y2="177" fill="rgb(0, 0, 0)" stroke="rgb(60, 60, 60)" stroke-width="1px" opacity="0.25"></line></g><g><line x1="0" y1="172.49405751254966" x2="284" y2="172.49405751254966" fill="rgb(0, 0, 0)" stroke="rgb(60, 60, 60)" stroke-width="1px" opacity="0.25"></line><line x1="0" y1="160.37641211948085" x2="284" y2="160.37641211948085" fill="rgb(0, 0, 0)" stroke="rgb(60, 60, 60)" stroke-width="1px" opacity="0.25"></line><line x1="0" y1="148.25876672641203" x2="284" y2="148.25876672641203" fill="rgb(0, 0, 0)" stroke="rgb(60, 60, 60)" stroke-width="1px" opacity="0.25"></line><line x1="0" y1="136.14112133334322" x2="284" y2="136.14112133334322" fill="rgb(0, 0, 0)" stroke="rgb(60, 60, 60)" stroke-width="1px" opacity="0.25"></line><line x1="0" y1="124.02347594027441" x2="284" y2="124.02347594027441" fill="rgb(0, 0, 0)" stroke="rgb(60, 60, 60)" stroke-width="1px" opacity="0.25"></line><line x1="0" y1="111.9058305472056" x2="284" y2="111.9058305472056" fill="rgb(0, 0, 0)" stroke="rgb(60, 60, 60)" stroke-width="1px" opacity="0.25"></line><line x1="0" y1="99.7881851541368" x2="284" y2="99.7881851541368" fill="rgb(0, 0, 0)" stroke="rgb(60, 60, 60)" stroke-width="1px" opacity="0.25"></line><line x1="0" y1="87.67053976106797" x2="284" y2="87.67053976106797" fill="rgb(0, 0, 0)" stroke="rgb(60, 60, 60)" stroke-width="1px" opacity="0.25"></line><line x1="0" y1="75.55289436799919" x2="284" y2="75.55289436799919" fill="rgb(0, 0, 0)" stroke="rgb(60, 60, 60)" stroke-width="1px" opacity="0.25"></line><line x1="0" y1="63.43524897493036" x2="284" y2="63.43524897493036" fill="rgb(0, 0, 0)" stroke="rgb(60, 60, 60)" stroke-width="1px" opacity="0.25"></line><line x1="0" y1="51.31760358186155" x2="284" y2="51.31760358186155" fill="rgb(0, 0, 0)" stroke="rgb(60, 60, 60)" stroke-width="1px" opacity="0.25"></line><line x1="0" y1="39.19995818879275" x2="284" y2="39.19995818879275" fill="rgb(0, 0, 0)" stroke="rgb(60, 60, 60)" stroke-width="1px" opacity="0.25"></line><line x1="0" y1="27.082312795723936" x2="284" y2="27.082312795723936" fill="rgb(0, 0, 0)" stroke="rgb(60, 60, 60)" stroke-width="1px" opacity="0.25"></line><line x1="0" y1="14.964667402655124" x2="284" y2="14.964667402655124" fill="rgb(0, 0, 0)" stroke="rgb(60, 60, 60)" stroke-width="1px" opacity="0.25"></line><line x1="0" y1="2.8470220095863112" x2="284" y2="2.8470220095863112" fill="rgb(0, 0, 0)" stroke="rgb(60, 60, 60)" stroke-width="1px" opacity="0.25"></line></g></g></g><g><g><line x1="0" y1="172.49405751254966" x2="284" y2="172.49405751254966" fill="rgb(0, 0, 0)" stroke="rgb(153, 153, 153)" stroke-width="1.5px"></line></g></g><g><g><line x1="56.20566446408562" y1="0" x2="56.20566446408562" y2="177" fill="rgb(0, 0, 0)" stroke="rgb(153, 153, 153)" stroke-width="1.5px"></line></g></g><g><g><g><g><g><path stroke="rgb(0, 119, 187)" stroke-width="2px" d="M56.58554293502066,172.49405751254966L74.55671675233194,166.9428608115199L86.74204924309421,168.5510967059856L102.46317365563642,156.31225835992927L105.09310153134052,155.76156071962404L107.7230294070446,156.35232974714756L108.16135071966194,157.61001605633462L110.79127859536604,147.81780151381798L113.42120647107012,132.60393999302192L133.08722269716847,115.91499726188093L135.71715057287255,118.24174749080169L138.34707844857667,124.50196086578298L140.97700632428075,116.16595959372742L143.60693419998483,107.173132973592L146.23686207568892,107.99955424979244L148.866789951393,103.72789208129342L153.1038959733607,121.38663180206845L155.7338238490648,123.41237787464664L157.83776614962807,137.66119907739537L161.2566723880434,116.75812531324998L163.88660026374748,108.43087890507705L166.51652813945157,104.97840016488774L169.14645601515565,114.67184796961547L171.77638389085973,97.25708860247076L174.40631176656385,103.8600282086988L176.1595970170332,114.62152123158697L176.1595970170332,115.10578841761692L179.54928183460737,101.58546704855885L182.17920971031148,102.82370676466624L184.80913758601557,106.57273159628427L187.43906546171965,104.89478353599208L190.06899333742373,99.89487335477921L195.3288490888319,101.51652726330282L206.2284390625833,107.12945560025776L208.8583669382874,98.14877941995616L211.48829481399147,95.28244773259273L214.11822268969556,94.53791572512652L216.74815056539967,93.27330899964721L219.37807844110375,107.37406217096493L222.00800631680784,91.38873001942326L224.63793419251192,101.74930220578347L227.267862068216,97.29112112463314L232.08939650700682,90.93499767233834L234.71932438271094,93.72672476880659L236.414166791498,143.09640138384728L239.04409466720207,109.61610132825393L241.67402254290616,93.33627164817946L244.3039504186103,97.52808614211263L246.93387829431438,102.64112462387617L249.56380617001847,85.02024252616121L251.31709142048786,86.07395269844226L253.0119338292749,83.04361700437336L255.641861704979,78.59839646117538L264.5836164823729,167.65320218098555L264.29140227396135,164.88961201160208L266.92133014966544,158.6097440725776" style="fill: none;" fill="none"></path></g></g></g></g><g opacity="0.2"><g><g><g><path stroke="rgb(0, 119, 187)" stroke-width="2px" d="M56.58554293502066,172.49405751254966L74.55671675233194,166.69305695997355L86.74204924309421,168.62672399892287L102.46317365563642,155.7356117225617L105.09310153134052,155.7356117225617L107.7230294070446,156.38016702603025L108.16135071966194,157.669278761511L110.79127859536604,147.35638826329588L113.42120647107012,131.88705646587604L133.08722269716847,115.12860729025708L135.71715057287255,118.35138493614349L138.34707844857667,124.796944742091L140.97700632428075,115.7731637222693L143.60693419998483,106.74938721662228L146.23686207568892,108.03849556647204L148.866789951393,103.52660957073587L153.1038959733607,122.21871901404214L155.7338238490648,123.50783187806655L157.83776614962807,138.33260950056155L161.2566723880434,115.7731637222693L163.88660026374748,108.03849556647204L166.51652813945157,104.81571792058563L169.14645601515565,115.12860729025708L171.77638389085973,96.43649784695083L174.40631176656385,104.17116148857342L176.1595970170332,115.12860729025708L176.1595970170332,115.12860729025708L179.54928183460737,100.948383842687L182.17920971031148,102.88205313872365L184.80913758601557,106.74938721662228L187.43906546171965,104.81571792058563L190.06899333742373,99.65927549283724L195.3288490888319,101.59294027469922L206.2284390625833,107.39393913445981L208.8583669382874,97.72560619680058L211.48829481399147,95.14738498292638L214.11822268969556,94.50283306508885L216.74815056539967,93.21372020106442L219.37807844110375,108.03849556647204L222.00800631680784,90.63549447301554L224.63793419251192,102.23749670671144L227.267862068216,97.08104976478836L232.08939650700682,90.63549447301554L234.71932438271094,93.85827211890195L236.414166791498,145.4227212243466L239.04409466720207,108.03849556647204L241.67402254290616,92.5691592548775L244.3039504186103,97.72560619680058L246.93387829431438,102.88205313872365L249.56380617001847,84.1899391812427L251.31709142048786,86.12360396310469L253.0119338292749,82.90082631721829L255.641861704979,78.38893580730742L264.5836164823729,171.84950192694518L264.29140227396135,164.75939048529605L266.92133014966544,158.31383406497957" style="fill: none;" fill="none"></path></g></g></g></g></g></g><g transform="translate(46, 177)" clip-path="url(#clip_1)"><clipPath id="clip_1"><rect width="284" height="23"></rect></clipPath><g><g><line x1="26.984243622929085" y1="0" x2="26.984243622929085" y2="5" style="visibility: inherit;" fill="rgb(0, 0, 0)" stroke="rgb(204, 204, 204)" stroke-width="1px"></line><line x1="56.20566446408562" y1="0" x2="56.20566446408562" y2="5" style="visibility: inherit;" fill="rgb(0, 0, 0)" stroke="rgb(204, 204, 204)" stroke-width="1px"></line><line x1="85.42708530524217" y1="0" x2="85.42708530524217" y2="5" style="visibility: inherit;" fill="rgb(0, 0, 0)" stroke="rgb(204, 204, 204)" stroke-width="1px"></line><line x1="114.6485061463987" y1="0" x2="114.6485061463987" y2="5" style="visibility: inherit;" fill="rgb(0, 0, 0)" stroke="rgb(204, 204, 204)" stroke-width="1px"></line><line x1="143.86992698755526" y1="0" x2="143.86992698755526" y2="5" style="visibility: inherit;" fill="rgb(0, 0, 0)" stroke="rgb(204, 204, 204)" stroke-width="1px"></line><line x1="173.0913478287118" y1="0" x2="173.0913478287118" y2="5" style="visibility: inherit;" fill="rgb(0, 0, 0)" stroke="rgb(204, 204, 204)" stroke-width="1px"></line><line x1="202.31276866986832" y1="0" x2="202.31276866986832" y2="5" style="visibility: inherit;" fill="rgb(0, 0, 0)" stroke="rgb(204, 204, 204)" stroke-width="1px"></line><line x1="231.53418951102486" y1="0" x2="231.53418951102486" y2="5" style="visibility: inherit;" fill="rgb(0, 0, 0)" stroke="rgb(204, 204, 204)" stroke-width="1px"></line><line x1="260.7556103521814" y1="0" x2="260.7556103521814" y2="5" style="visibility: inherit;" fill="rgb(0, 0, 0)" stroke="rgb(204, 204, 204)" stroke-width="1px"></line></g><g transform="translate(0, 8)"><text x="26.984243622929085" y="0" dx="0em" dy="0.95em" style="text-anchor: middle; visibility: inherit; font-family: &quot;Helvetica Neue&quot;, sans-serif; font-size: 12px; font-weight: 200;" fill="rgb(50, 49, 63)" stroke="none" stroke-width="1px">-100k</text><text x="56.20566446408562" y="0" dx="0em" dy="0.95em" style="text-anchor: middle; visibility: hidden; font-family: &quot;Helvetica Neue&quot;, sans-serif; font-size: 12px; font-weight: 200;" fill="rgb(50, 49, 63)" stroke="none" stroke-width="1px">0</text><text x="85.42708530524217" y="0" dx="0em" dy="0.95em" style="text-anchor: middle; visibility: inherit; font-family: &quot;Helvetica Neue&quot;, sans-serif; font-size: 12px; font-weight: 200;" fill="rgb(50, 49, 63)" stroke="none" stroke-width="1px">100k</text><text x="114.6485061463987" y="0" dx="0em" dy="0.95em" style="text-anchor: middle; visibility: hidden; font-family: &quot;Helvetica Neue&quot;, sans-serif; font-size: 12px; font-weight: 200;" fill="rgb(50, 49, 63)" stroke="none" stroke-width="1px">200k</text><text x="143.86992698755526" y="0" dx="0em" dy="0.95em" style="text-anchor: middle; visibility: inherit; font-family: &quot;Helvetica Neue&quot;, sans-serif; font-size: 12px; font-weight: 200;" fill="rgb(50, 49, 63)" stroke="none" stroke-width="1px">300k</text><text x="173.0913478287118" y="0" dx="0em" dy="0.95em" style="text-anchor: middle; visibility: hidden; font-family: &quot;Helvetica Neue&quot;, sans-serif; font-size: 12px; font-weight: 200;" fill="rgb(50, 49, 63)" stroke="none" stroke-width="1px">400k</text><text x="202.31276866986832" y="0" dx="0em" dy="0.95em" style="text-anchor: middle; visibility: inherit; font-family: &quot;Helvetica Neue&quot;, sans-serif; font-size: 12px; font-weight: 200;" fill="rgb(50, 49, 63)" stroke="none" stroke-width="1px">500k</text><text x="231.53418951102486" y="0" dx="0em" dy="0.95em" style="text-anchor: middle; visibility: hidden; font-family: &quot;Helvetica Neue&quot;, sans-serif; font-size: 12px; font-weight: 200;" fill="rgb(50, 49, 63)" stroke="none" stroke-width="1px">600k</text><text x="260.7556103521814" y="0" dx="0em" dy="0.95em" style="text-anchor: middle; visibility: inherit; font-family: &quot;Helvetica Neue&quot;, sans-serif; font-size: 12px; font-weight: 200;" fill="rgb(50, 49, 63)" stroke="none" stroke-width="1px">700k</text></g><line x1="0" y1="0" x2="284" y2="0" fill="rgb(0, 0, 0)" stroke="rgb(204, 204, 204)" stroke-width="1px"></line></g></g></g></g></svg>