<svg viewBox="0 0 330 200" xmlns="http://www.w3.org/2000/svg"><g><g><g><g><g><line x1="64" y1="167.03686149472009" x2="59" y2="167.03686149472009" style="visibility: inherit;" fill="rgb(0, 0, 0)" stroke="rgb(204, 204, 204)" stroke-width="1px"></line><line x1="64" y1="152.65183010004907" x2="59" y2="152.65183010004907" style="visibility: inherit;" fill="rgb(0, 0, 0)" stroke="rgb(204, 204, 204)" stroke-width="1px"></line><line x1="64" y1="138.26679870537808" x2="59" y2="138.26679870537808" style="visibility: inherit;" fill="rgb(0, 0, 0)" stroke="rgb(204, 204, 204)" stroke-width="1px"></line><line x1="64" y1="123.88176731070706" x2="59" y2="123.88176731070706" style="visibility: inherit;" fill="rgb(0, 0, 0)" stroke="rgb(204, 204, 204)" stroke-width="1px"></line><line x1="64" y1="109.49673591603607" x2="59" y2="109.49673591603607" style="visibility: inherit;" fill="rgb(0, 0, 0)" stroke="rgb(204, 204, 204)" stroke-width="1px"></line><line x1="64" y1="95.11170452136507" x2="59" y2="95.11170452136507" style="visibility: inherit;" fill="rgb(0, 0, 0)" stroke="rgb(204, 204, 204)" stroke-width="1px"></line><line x1="64" y1="80.72667312669407" x2="59" y2="80.72667312669407" style="visibility: inherit;" fill="rgb(0, 0, 0)" stroke="rgb(204, 204, 204)" stroke-width="1px"></line><line x1="64" y1="66.34164173202305" x2="59" y2="66.34164173202305" style="visibility: inherit;" fill="rgb(0, 0, 0)" stroke="rgb(204, 204, 204)" stroke-width="1px"></line><line x1="64" y1="51.95661033735206" x2="59" y2="51.95661033735206" style="visibility: inherit;" fill="rgb(0, 0, 0)" stroke="rgb(204, 204, 204)" stroke-width="1px"></line><line x1="64" y1="37.57157894268104" x2="59" y2="37.57157894268104" style="visibility: inherit;" fill="rgb(0, 0, 0)" stroke="rgb(204, 204, 204)" stroke-width="1px"></line><line x1="64" y1="23.186547548010026" x2="59" y2="23.186547548010026" style="visibility: inherit;" fill="rgb(0, 0, 0)" stroke="rgb(204, 204, 204)" stroke-width="1px"></line><line x1="64" y1="8.801516153339037" x2="59" y2="8.801516153339037" style="visibility: inherit;" fill="rgb(0, 0, 0)" stroke="rgb(204, 204, 204)" stroke-width="1px"></line></g><g transform="translate(54, 0)"><text x="0" y="167.03686149472009" dx="0em" dy="0.3em" style="text-anchor: end; visibility: inherit; font-family: &quot;Helvetica Neue&quot;, sans-serif; font-size: 12px; font-weight: 200;" fill="rgb(50, 49, 63)" stroke="none" stroke-width="1px">100</text><text x="0" y="152.65183010004907" dx="0em" dy="0.3em" style="text-anchor: end; visibility: hidden; font-family: &quot;Helvetica Neue&quot;, sans-serif; font-size: 12px; font-weight: 200;" fill="rgb(50, 49, 63)" stroke="none" stroke-width="1px">200</text><text x="0" y="138.26679870537808" dx="0em" dy="0.3em" style="text-anchor: end; visibility: inherit; font-family: &quot;Helvetica Neue&quot;, sans-serif; font-size: 12px; font-weight: 200;" fill="rgb(50, 49, 63)" stroke="none" stroke-width="1px">300</text><text x="0" y="123.88176731070706" dx="0em" dy="0.3em" style="text-anchor: end; visibility: hidden; font-family: &quot;Helvetica Neue&quot;, sans-serif; font-size: 12px; font-weight: 200;" fill="rgb(50, 49, 63)" stroke="none" stroke-width="1px">400</text><text x="0" y="109.49673591603607" dx="0em" dy="0.3em" style="text-anchor: end; visibility: inherit; font-family: &quot;Helvetica Neue&quot;, sans-serif; font-size: 12px; font-weight: 200;" fill="rgb(50, 49, 63)" stroke="none" stroke-width="1px">500</text><text x="0" y="95.11170452136507" dx="0em" dy="0.3em" style="text-anchor: end; visibility: hidden; font-family: &quot;Helvetica Neue&quot;, sans-serif; font-size: 12px; font-weight: 200;" fill="rgb(50, 49, 63)" stroke="none" stroke-width="1px">600</text><text x="0" y="80.72667312669407" dx="0em" dy="0.3em" style="text-anchor: end; visibility: inherit; font-family: &quot;Helvetica Neue&quot;, sans-serif; font-size: 12px; font-weight: 200;" fill="rgb(50, 49, 63)" stroke="none" stroke-width="1px">700</text><text x="0" y="66.34164173202305" dx="0em" dy="0.3em" style="text-anchor: end; visibility: hidden; font-family: &quot;Helvetica Neue&quot;, sans-serif; font-size: 12px; font-weight: 200;" fill="rgb(50, 49, 63)" stroke="none" stroke-width="1px">800</text><text x="0" y="51.95661033735206" dx="0em" dy="0.3em" style="text-anchor: end; visibility: inherit; font-family: &quot;Helvetica Neue&quot;, sans-serif; font-size: 12px; font-weight: 200;" fill="rgb(50, 49, 63)" stroke="none" stroke-width="1px">900</text><text x="0" y="37.57157894268104" dx="0em" dy="0.3em" style="text-anchor: end; visibility: hidden; font-family: &quot;Helvetica Neue&quot;, sans-serif; font-size: 12px; font-weight: 200;" fill="rgb(50, 49, 63)" stroke="none" stroke-width="1px">1e+3</text><text x="0" y="23.186547548010026" dx="0em" dy="0.3em" style="text-anchor: end; visibility: inherit; font-family: &quot;Helvetica Neue&quot;, sans-serif; font-size: 12px; font-weight: 200;" fill="rgb(50, 49, 63)" stroke="none" stroke-width="1px">1.1e+3</text><text x="0" y="8.801516153339037" dx="0em" dy="0.3em" style="text-anchor: end; visibility: hidden; font-family: &quot;Helvetica Neue&quot;, sans-serif; font-size: 12px; font-weight: 200;" fill="rgb(50, 49, 63)" stroke="none" stroke-width="1px">1.2e+3</text></g><line x1="64" y1="0" x2="64" y2="177" fill="rgb(0, 0, 0)" stroke="rgb(204, 204, 204)" stroke-width="1px"></line></g></g><g transform="translate(64, 0)" clip-path="url(#clip_0)"><clipPath id="clip_0"><rect width="266" height="177"></rect></clipPath><g><g><g><line x1="8.080901376167862" y1="0" x2="8.080901376167862" y2="177" fill="rgb(0, 0, 0)" stroke="rgb(60, 60, 60)" stroke-width="1px" opacity="0.25"></line><line x1="34.303148446207345" y1="0" x2="34.303148446207345" y2="177" fill="rgb(0, 0, 0)" stroke="rgb(60, 60, 60)" stroke-width="1px" opacity="0.25"></line><line x1="60.52539551624684" y1="0" x2="60.52539551624684" y2="177" fill="rgb(0, 0, 0)" stroke="rgb(60, 60, 60)" stroke-width="1px" opacity="0.25"></line><line x1="86.74764258628632" y1="0" x2="86.74764258628632" y2="177" fill="rgb(0, 0, 0)" stroke="rgb(60, 60, 60)" stroke-width="1px" opacity="0.25"></line><line x1="112.96988965632582" y1="0" x2="112.96988965632582" y2="177" fill="rgb(0, 0, 0)" stroke="rgb(60, 60, 60)" stroke-width="1px" opacity="0.25"></line><line x1="139.1921367263653" y1="0" x2="139.1921367263653" y2="177" fill="rgb(0, 0, 0)" stroke="rgb(60, 60, 60)" stroke-width="1px" opacity="0.25"></line><line x1="165.4143837964048" y1="0" x2="165.4143837964048" y2="177" fill="rgb(0, 0, 0)" stroke="rgb(60, 60, 60)" stroke-width="1px" opacity="0.25"></line><line x1="191.63663086644425" y1="0" x2="191.63663086644425" y2="177" fill="rgb(0, 0, 0)" stroke="rgb(60, 60, 60)" stroke-width="1px" opacity="0.25"></line><line x1="217.85887793648376" y1="0" x2="217.85887793648376" y2="177" fill="rgb(0, 0, 0)" stroke="rgb(60, 60, 60)" stroke-width="1px" opacity="0.25"></line><line x1="244.08112500652325" y1="0" x2="244.08112500652325" y2="177" fill="rgb(0, 0, 0)" stroke="rgb(60, 60, 60)" stroke-width="1px" opacity="0.25"></line></g><g><line x1="0" y1="167.03686149472009" x2="266" y2="167.03686149472009" fill="rgb(0, 0, 0)" stroke="rgb(60, 60, 60)" stroke-width="1px" opacity="0.25"></line><line x1="0" y1="152.65183010004907" x2="266" y2="152.65183010004907" fill="rgb(0, 0, 0)" stroke="rgb(60, 60, 60)" stroke-width="1px" opacity="0.25"></line><line x1="0" y1="138.26679870537808" x2="266" y2="138.26679870537808" fill="rgb(0, 0, 0)" stroke="rgb(60, 60, 60)" stroke-width="1px" opacity="0.25"></line><line x1="0" y1="123.88176731070706" x2="266" y2="123.88176731070706" fill="rgb(0, 0, 0)" stroke="rgb(60, 60, 60)" stroke-width="1px" opacity="0.25"></line><line x1="0" y1="109.49673591603607" x2="266" y2="109.49673591603607" fill="rgb(0, 0, 0)" stroke="rgb(60, 60, 60)" stroke-width="1px" opacity="0.25"></line><line x1="0" y1="95.11170452136507" x2="266" y2="95.11170452136507" fill="rgb(0, 0, 0)" stroke="rgb(60, 60, 60)" stroke-width="1px" opacity="0.25"></line><line x1="0" y1="80.72667312669407" x2="266" y2="80.72667312669407" fill="rgb(0, 0, 0)" stroke="rgb(60, 60, 60)" stroke-width="1px" opacity="0.25"></line><line x1="0" y1="66.34164173202305" x2="266" y2="66.34164173202305" fill="rgb(0, 0, 0)" stroke="rgb(60, 60, 60)" stroke-width="1px" opacity="0.25"></line><line x1="0" y1="51.95661033735206" x2="266" y2="51.95661033735206" fill="rgb(0, 0, 0)" stroke="rgb(60, 60, 60)" stroke-width="1px" opacity="0.25"></line><line x1="0" y1="37.57157894268104" x2="266" y2="37.57157894268104" fill="rgb(0, 0, 0)" stroke="rgb(60, 60, 60)" stroke-width="1px" opacity="0.25"></line><line x1="0" y1="23.186547548010026" x2="266" y2="23.186547548010026" fill="rgb(0, 0, 0)" stroke="rgb(60, 60, 60)" stroke-width="1px" opacity="0.25"></line><line x1="0" y1="8.801516153339037" x2="266" y2="8.801516153339037" fill="rgb(0, 0, 0)" stroke="rgb(60, 60, 60)" stroke-width="1px" opacity="0.25"></line></g></g></g><g><g><line x1="0" y1="181.42189288939107" x2="266" y2="181.42189288939107" fill="rgb(0, 0, 0)" stroke="rgb(153, 153, 153)" stroke-width="1.5px"></line></g></g><g><g><line x1="34.303148446207345" y1="0" x2="34.303148446207345" y2="177" fill="rgb(0, 0, 0)" stroke="rgb(153, 153, 153)" stroke-width="1.5px"></line></g></g><g><g><g><g><g><path stroke="rgb(255, 112, 67)" stroke-width="2px" d="M34.565370916907746,138.52868195972655L34.72270439932798,126.64830940788764L34.95870462295834,102.51018408948336L35.03737136416846,101.01966330390302L35.27337158779881,93.75949136987461L35.666705293849404,96.0046938197606L35.82403877626964,95.08671469852146L35.98137225868988,95.35483042014725L36.217372482320236,93.49053270478453L36.45337270595059,97.48652435475942L36.61070618837082,92.27416560517618L37.16137337684165,96.44011705877362L37.24004011805177,100.35033420147391L37.31870685926189,101.71143330941081L37.47604034168213,104.15320646076391L37.55470708289225,100.74201560390259L37.633373824102364,98.21206625762122L37.86937404773272,100.02882049347284L37.94804078894283,95.85236701133125L38.18404101257319,98.86208144910063L38.34137449499343,99.62050386291538L38.49870797741367,96.26119949871743L38.57737471862379,96.32582558111983L38.73470820104403,99.8904213290496L38.89204168346426,100.07500722780864L38.97070842467438,99.27405713377898L40.072042801616035,100.51680717117969L40.70137673129698,100.96648476829556L40.7800434725071,98.03111613157698L40.858710213717224,98.55881288686571L41.17337717855769,99.83551927178625L41.40937740218805,91.18079066689425L41.48804414339817,89.74252245951222L41.80271110823865,92.47253337307482L42.038711331869,94.63355075350113L42.27471155549935,93.5002847655559L42.58937852033983,93.02020723090462L42.66804526154995,91.65838598776618L42.74671200276006,92.70104448061485L42.825378743970184,93.87654076702674L43.29737919123089,95.46027990904685L43.92671312091184,92.17743287622937L44.24138008575231,94.21403845385412L44.47738030938267,92.9914670658064L44.71338053301302,96.44491769696566L44.792047274223144,99.38629651703548L44.94938075664338,99.35882954638898L45.264047721483855,102.2269868368231L45.34271446269397,105.31507141195151L45.89338165116481,104.10355309435816L46.52271558084575,104.07118226156139L46.837382545686225,106.95719349231973L46.916049286896346,107.1333147031737L46.99471602810646,108.48243464534607L47.38804973415705,105.98086083308063L47.70271669899753,103.22890607611988L48.017383663838004,104.11903162499102L48.09605040504812,102.61491283698003L48.56805085230883,102.71528104986298L48.804051075939185,103.44287480533667L48.8827178171493,102.97836661278727L48.96138455835943,97.02085965160039L49.04005129956954,98.03198600592194L49.19738478198978,95.56352843339506L49.51205174683025,95.5041359244246L49.74805197046061,96.06477582501776L49.90538545288084,98.54285317455867L50.062718935301085,100.0459402212861L50.1413856765112,100.19917008500892L50.45605264135167,100.95171004340934L50.61338612377191,98.79021283345736L50.849386347402266,99.35510585791883L51.242720053452864,100.62990467880792L51.55738701829333,102.75471185196895L51.71472050071357,106.16089404197864L51.79338724192369,106.35311606105375L51.8720539831338,109.25373362648294L51.950720724343924,108.13909616806335L52.18672094797428,107.74858435788164L52.344054430394515,104.89856896722479L52.81605487765523,107.55110777839236L52.89472161886535,106.23778960992082L52.97338836007546,98.64934046448975L53.20938858370582,97.40561451313222L53.288055324915945,96.85624460952427L53.36672206612606,90.54883633589799L53.602722289756414,93.36517280303863L53.76005577217665,95.07962544601276L54.782723407908186,96.66424846381919L54.94005689032843,89.15407642004385L55.09739037274866,92.22563478651426L55.88405778484985,93.98557715797993L56.04139126727008,98.6024563327894L56.12005800848021,97.46139144290268L56.19872474969032,99.58294550492619L56.35605823211056,100.12406090365879L56.43472497332068,101.88010647493205L56.74939193816115,101.77440668296471L56.90672542058139,103.52940880687588L57.221392385421865,104.17649314524888L57.3787258678421,101.50182857439478L57.536059350262335,102.26315573941362L57.614726091472455,106.14162862583167L57.69339283268258,105.43399538267899L57.77205957389269,105.23568147250258L57.850726315102804,106.03366098825877L57.92939305631293,103.69486080229238L58.2440600211534,104.12370616291027L58.79472720962423,105.54748598435508L58.87339395083435,104.74523687873099L58.95206069204447,106.1009592890444L59.03072743325458,104.26881719528828L59.188060915674825,99.42995806582277L59.42406113930518,100.98216669298057L60.05339506898613,101.11743961361466L60.13206181019624,101.91570458740667L60.28939529261648,105.24156504363688L60.3680620338266,103.76035278182493L60.60406225745695,97.98089727697027L60.68272899866708,98.64261869880447L60.91872922229743,100.00058918310353L60.99739596350755,96.93863518854295L61.02361821057759,97.00593400230278L61.1022849517877,98.77856452090404L61.259618434207944,99.31642707276309L61.33828517541806,98.51081669609128L61.41695191662818,99.25393864216629L61.574285399048414,99.22894952597538L61.652952140258535,96.57880757304005L61.81028562267877,95.99916195697094L62.28228606993948,94.26558480304442L62.3609528111496,94.2661412721125L62.51828629356984,95.93430794920803L62.59695303477996,93.79938089297026L62.83295325841031,93.07913902776878L62.91161999962043,95.58861770921453L63.06895348204067,93.22227298781822L63.14762022325078,95.42730736786484L63.2262869644609,92.43197099711979L63.304953705671025,91.89861518455857L63.698287411721616,91.38045146735952L63.93428763535197,93.98687391947338L64.0916211177722,93.63031916206658L64.17028785898232,91.98624426457324L64.32762134140256,92.7927728416372L64.40628808261268,92.46927326057325L64.48495482382279,89.21602352471258L64.56362156503292,88.33533573228942L64.64228830624303,88.08251723975965L65.58628920076445,91.43183442678682L65.7436226831847,94.67729564610742L65.82228942439481,97.96438631807955L65.90095616560494,98.90377748450608L66.05828964802517,98.32229116789019L66.1369563892353,95.7575633730343L66.21562313044541,96.49382974701744L66.45162335407576,100.07206328073775L66.608956836496,99.62356189983802L67.00229054254659,102.01909489490542L67.31695750738706,103.94576746191244L67.63162447222754,105.19297191021353L67.71029121343766,99.9311690590771L68.26095840190848,99.34054641190491L68.3396251431186,101.60608189986021L68.41829188432871,100.58876697365139L68.49695862553885,95.68265685520149L68.57562536674897,94.25122829766627L68.7329588491692,92.12094940013604L68.89029233158942,87.78988411766314L69.12629255521979,91.53167792246632L69.2049592964299,94.04595196065364L69.36229277885015,93.50773380547207L69.5982930024805,94.79284999891235L69.83429322611086,94.39110015040606L70.07029344974121,95.94612792345949L70.14896019095133,97.21632152648547L70.30629367337157,94.94241555596511L70.69962737942215,97.73919384204775L70.93562760305251,96.80155654625533L71.01429434426264,99.61127552636151L71.32896130910311,103.28977284876L71.40762805031322,98.62223693853757L71.48629479152333,100.94088714360798L71.7222950151537,102.90366771850076L71.80096175636382,99.93787725521612L71.95829523878405,99.73993680246585L72.11562872120429,99.71313262066055L72.19429546241442,100.22142271657671L72.27296220362453,98.12433611846231L72.50896242725487,99.1109792908325L72.58762916846501,102.93828610336301L72.98096287451558,95.64252752359477L73.05962961572573,97.64712896853283L73.29562983935607,100.21875568177106L73.4529633217763,98.22402174957121L73.53163006298642,100.7949527592172L73.61029680419655,104.85761591676592L73.84629702782689,102.21862203142169L73.924963769037,101.91866226056896L74.23963073387749,99.85946799664461L74.3182974750876,99.84695477345527L74.63296443992809,100.22531439818896L74.7116311811382,103.3637486179267L74.94763140476856,103.84691874197061L75.02629814597867,103.74178399164693L75.1049648871888,104.21541535629844L75.18363162839891,104.41017272937967L75.26229836960903,104.69440534971906L75.34096511081914,106.11620034660385L75.41963185202927,108.73974249446135L75.49829859323938,104.52486740822727L75.5769653344495,103.44970816547755L75.9702990405001,106.99535088807812L76.04896578171021,107.3325375321093L76.28496600534058,105.2695752187365L76.52096622897092,107.33404138316368L76.67829971139116,107.33641514777086L76.8356331938114,109.02958950328994L77.30763364107212,106.93785737128518L77.38630038228223,108.08098005420592L77.46496712349234,104.27464417972121L77.54363386470246,104.06917656624262L77.62230060591257,97.10374859804004L77.70096734712271,97.939369142359L77.77963408833283,98.89491823016492L78.25163453559354,101.00875657590184L78.48763475922388,101.5217592012728L78.566301500434,100.78353273036394L78.95963520648459,102.56015520985974L79.27430217132508,103.94788358237432L79.35296891253519,104.70109198800239L79.58896913616555,103.69131219956982L79.66763587737566,107.16529160446954L79.8249693597959,107.69043180351908L79.98230284221613,109.9643151947996L80.29696980705661,109.65605857334566L80.37563654826673,111.28925944216535L80.84763699552744,111.3474720516267L81.00497047794768,111.8908680525226L81.31963744278815,112.4289906329532L81.39830418399828,113.59713079005849L81.5556376664185,114.87844403022169L81.79163789004886,114.6740794351418L81.87030463125899,113.92358923467097L81.9489713724691,113.1102838941122L82.3423050785197,112.39257646799142L82.42097181972981,111.44040385399008L82.57830530215004,111.96298697222785L83.12897249062087,112.28209510645428L83.60097293788158,113.37981879473863L83.75830642030182,113.72665769433286L83.83697316151195,113.27599557848896L84.23030686756253,107.56868151227249L84.38764034998277,101.82915057784882L84.85964079724349,100.9527537900199L85.09564102087384,102.1617284518247L85.25297450329407,101.1988587427586L85.41030798571431,102.71932463738403L85.48897472692443,101.2858762736398L85.72497495055478,101.64431718673542L86.03964191539526,101.60823206574096L86.11830865660538,99.51257635871318L86.35430888023573,101.05905902540889L86.43297562144585,103.78780271967442L86.51164236265598,105.53801882476917L86.74764258628632,105.34817462058786L86.82630932749643,104.9046823185988L86.90497606870656,106.78800271344174L86.98364280991669,103.9058543309024L87.14097629233692,104.27597652372269L87.61297673959763,105.62577475526032L87.69164348080774,108.3185449513709L87.92764370443811,105.86635052904896L88.08497718685834,103.24557761827636L88.3209774104887,104.71256942069282L88.47831089290894,100.86564840222582L88.55697763411905,104.315613205186L88.87164459895952,107.37988481305473L88.95031134016965,107.03905530168248L89.02897808137976,104.88197876477139L89.26497830501012,103.37845778659735L89.34364504622023,103.46749454066602L89.6583120110607,98.48331252097657L89.73697875227083,98.23792829155282L90.0516457171113,96.10852315859528L90.13031245832141,97.24780041333351L90.52364616437201,96.16269357484381L90.68097964679225,100.20934046190567L90.99564661163272,99.12388763047916L91.15298009405296,95.4433352057842L91.23164683526308,99.82412472438787L91.31031357647319,97.31253580452776L91.3889803176833,96.09559651593844L91.62498054131368,99.26100842349462L91.93964750615413,99.7819962364637L92.1756477297845,101.95363697412054L92.25431447099461,101.5586141164158L92.5689814358351,102.42920938662188L92.72631491825533,104.69453067239111L92.80498165946544,105.64918725004333L93.04098188309581,107.11915287114317L93.35564884793627,106.15831864673436L93.67031581277675,107.47113357986974L93.74898255398686,108.24922150021322L93.9063160364071,109.94935776763491L94.06364951882735,107.59206527473411L94.22098300124757,109.12077881589182L94.53564996608806,103.7944075638623L94.61431670729817,107.47730517023301L94.92898367213864,108.97533834428349L95.24365063697911,106.44781719955556L95.47965086060947,106.69587265672494L96.18765153150055,104.82879637665032L96.34498501392078,104.68023514177922L96.502318496341,103.57179313867239L96.97431894360172,100.96964798453797L97.05298568481184,101.67216516190709L97.44631939086243,95.61674796064058L97.52498613207254,91.42342481445888L97.91831983812314,91.47738618701787L97.99698657933325,94.04732546590616L98.31165354417374,96.18172179487583L98.62632050901422,100.45111608044768L98.86232073264456,97.53092438706726L98.94098747385468,100.79979249473372L99.0196542150648,97.87959034567909L99.25565443869516,100.72442688827664L99.33432117990527,98.45083282583757L99.49165466232552,98.56263471448013L99.72765488595587,103.726087046555L99.88498836837611,106.76398750664798L99.96365510958623,109.20024594194803L100.51432229805705,109.19127906711559L100.93387825117769,108.26417184105124L101.0125449923878,110.50741917736514L101.09121173359792,107.0066053149885L101.32721195722829,103.3237100865474L101.4058786984384,105.81692120571925L101.56321218085863,105.0017874020902L101.72054566327887,103.3894947736867L101.799212404489,98.10641936603906L102.03521262811934,98.33820278948525L102.11387936932945,99.16958648715783L102.27121285174971,100.51896264513104L102.34987959295982,103.13543997549425L102.50721307538005,102.79248749225599L102.66454655780029,106.30179134423048L102.74321329901042,105.96353234807204L102.90054678143065,106.84720767032721L102.97921352264076,109.24127069425676L103.136547005061,104.33296128830322L103.45121396990147,105.44383063980584L103.68721419353183,96.07428337250188L103.76588093474196,99.39318637938825L103.92321441716219,98.99690405841982L104.15921464079254,99.41802501661596L104.23788138200267,102.47336747738352L104.3952148644229,100.52911491847985L104.70988182926337,98.07809284234328L104.94588205289372,95.20106876441524L105.02454879410385,95.17875173229437L105.10321553531396,96.37237972150972L105.18188227652408,96.40545275724726L105.57521598257468,99.73304839612409L106.04721642983539,99.41985316792959L106.1258831710455,99.3811384018725L106.59788361830621,100.85000588718185L106.75521710072645,101.53483438989888L107.14855080677704,103.93340105705134L107.38455103040741,107.53569689634189L107.46321777161752,109.67331031053013L107.54188451282764,110.87493968647617L107.69921799524786,109.02273946893882L108.01388496008835,108.64400538639002L108.17121844250858,107.65162500649284L108.32855192492883,109.76522815977492L108.64321888976929,112.5802264381094L109.27255281945024,115.97970746613873L109.66588652550084,115.30697402000442L109.82322000792108,109.99485087754753L110.05922023155144,110.8560247886171L110.13788697276155,111.43133315428527L110.3738871963919,110.06922220653179L110.76722090244249,111.35645380224545L110.92455438486273,107.56639247061835L111.00322112607286,109.3998423607764L111.16055460849309,112.79149746261336L111.31788809091331,109.0229776991903L111.47522157333357,109.17890370178092L111.55388831454368,110.71110434757888L111.6325550557538,110.28718762644168L112.0258887618044,109.4491573287971L112.10455550301451,106.9974173370083L112.34055572664485,105.78790944297832L112.419222467855,105.92320383747608L112.96988965632582,105.34828953554232L113.12722313874605,103.24045148197834L113.20588987995616,102.92017104396479L113.28455662116627,102.94162528514576L113.3632233623764,106.61620183613248L113.52055684479664,106.31193331420036L113.67789032721687,109.52849211564649L113.75655706842699,110.71082254430172L114.22855751568771,108.98584988189236L114.70055796294842,111.9349766389079L114.85789144536865,112.25948729865391L115.32989189262936,113.77249004093389L115.40855863383948,114.59628066088467L115.56589211625972,111.16872942977963L115.72322559867996,113.31827784059462L115.80189233989007,111.4718163050163L116.03789256352043,113.92395747323354L116.11655930473056,115.91779571118383L116.3525595283609,116.56198450626405L116.43122626957101,112.26434332346653L116.82455997562161,111.6264958181057L116.90322671683172,109.00480760474726L116.98189345804187,107.57772078513054L117.06056019925198,106.90326130586547L117.21789368167221,110.66214958043415L117.37522716409244,109.61296228937724L117.45389390530255,109.1982102099147L117.6112273877228,109.6864684442147L117.76856087014303,109.1209307258399L117.84722761135315,108.6052643773284L117.92589435256328,109.6315189754105L118.24056131740375,109.76123687890383L118.3454503056839,109.251098003905L118.42411704689403,110.85494842024447L118.50278378810415,111.32630385720253L118.58145052931427,108.28786301770744L118.97478423536485,107.13722644210473L119.39434018848549,106.16981209261508L119.4730069296956,109.0996699161008L119.55167367090573,110.94880169371945L119.63034041211584,107.84062369975594L119.8663406357462,110.94544127182746L120.41700782421702,110.19150899867383L120.65300804784738,112.85198078728419L120.81034153026762,113.39214772028791L121.04634175389796,112.37333341174224L121.20367523631822,109.06762049978651L121.51834220115867,108.01224665952971L121.67567568357893,108.27036081673769L121.91167590720927,111.69401359067426L121.99034264841939,110.67999661259887L122.14767613083964,105.31905621146788L122.22634287204976,107.14338112023147L122.77701006052058,108.91308468253918L122.8556768017307,110.0037316521499L123.01301028415094,108.5816664021852L123.3276772489914,110.59202977771452L123.56367747262176,112.44986546999021L123.64234421383189,113.19732066593775L123.79967769625212,108.98299863958079L124.1143446610926,110.06766302702937L124.19301140230272,108.50816775020118L124.42901162593307,110.21500794231503L124.5863451083533,111.60245191703324L124.66501184956343,108.05800969038893L124.74367859077354,110.04789212685007L124.82234533198366,108.62530472676859L124.9796788144039,103.8338589202006L125.21567903803425,106.14151770998055L125.53034600287472,106.49487507305138L125.76634622650508,105.9658972011311L125.8450129677152,107.10512251154479L125.92367970892532,105.41570278138197L126.00234645013543,107.96624861242674L126.08101319134555,106.74051965257732L126.2383466737658,110.63732665559641L126.31701341497592,109.38664904114708L126.47434689739615,111.26065450511226L126.63168037981637,108.57985888333918L126.94634734465686,109.45010173013621L127.49701453312768,111.72187823105693L127.89034823917828,110.74351242867883L128.0476817215985,111.23954879429535L128.28368194522886,108.56004457647194L128.44101542764912,109.42174216121238L128.51968216885922,107.83175061219478L128.67701565127945,108.02067219658213L128.8343491336997,106.73737708932744L129.07034935733006,110.26388887589293L129.14901609854016,104.27917691705471L129.38501632217054,105.9284887174281L129.46368306338064,107.26101392593286L129.77835002822113,106.74935596717548L130.01435025185148,106.74994251657061L130.25035047548184,109.60807480862746L130.72235092274255,108.50756716277073L130.87968440516278,106.10071587467107L131.19435137000326,109.96065131403206L131.3516848524235,109.77257898009631L131.50901833484372,111.61085151118756L131.66635181726397,113.93477671219298L131.74501855847407,112.9646599452277L132.05968552331456,111.48711662662056L132.13835226452468,110.46635822093542L132.21701900573478,105.52369315723097L132.2956857469449,107.32991485462776L132.37435248815504,110.85835139173724L132.6890194529955,111.42137796511433L132.84635293541575,112.18953296929321L132.92501967662585,116.66505037868416L133.1610199002562,115.15041511727452L133.23968664146634,114.20023355946101L133.4756868650967,111.66823416016473L133.63302034751695,109.4841323528449L133.71168708872705,110.37039392423841L134.0263540535675,108.14370072372141L134.18368753598776,110.3327172634479L134.34102101840801,112.95371223716764L134.57702124203834,115.15689308504011L134.65568798324847,116.4669197982401L134.7343547244586,113.55617730407124L134.89168820687883,112.1502206214581L135.04902168929905,108.17432248848046L135.20635517171928,104.90838638984525L135.99302258382048,103.20531109410409L136.3863562898711,105.36621006992031L136.4650230310812,108.90122229475624L136.77968999592167,110.22577667099115L136.9370234783419,113.18093443496716L137.015690219552,115.6776912281889L137.17302370197228,118.12134128503772L137.25169044318238,118.73439961826162L137.3303571843925,120.39514110830493L137.48769066681274,120.77017379845623L137.56635740802284,122.5359944266772L137.8023576316532,124.15711641676275L137.95969111407342,119.1213394076857L138.03835785528358,118.62220630994558L138.11702459649368,119.51407418318624L138.27435807891393,120.3734424248329L138.43169156133416,120.16275823322403L138.66769178496452,120.40227409389983L138.74635852617462,122.39357365159213L138.982358749805,124.06212979190101L139.0610254910151,126.95653384963393L139.21835897343536,126.38453030555723L139.37569245585559,127.08341848419636L139.76902616190617,128.19403148808175L139.92635964432642,126.56804717429628L140.08369312674665,123.62526345028695L140.24102660916688,121.92643708048902L140.3983600915871,119.17902394342221L140.47702683279724,120.38050591464358L140.94902728005795,118.17383144668409L141.34236098610853,120.88160819243748L141.42102772731866,121.35944483140031L141.5783612097389,121.71332667709208L141.657027950949,121.36590726028669L141.9716949157895,123.3302575993666L142.0503616569996,124.7189582259067L142.20769513941983,123.57913339686723L142.44369536305018,125.34282204506616L142.7583623278907,126.14683586674911L142.8370290691008,127.59680151945653L142.91569581031092,125.63813587948488L143.46636299878173,125.66533156504178L143.54502973999183,120.41637975991208L144.1743636696728,121.49787210507805L144.33169715209303,119.84064039869085L144.41036389330316,118.76769992763204L144.5676973757234,119.40828001593917L144.67258636400356,121.54491292231347L144.90858658763392,118.25281873758965L144.98725332884402,115.85170526939974L145.06592007005415,115.75602454819824L145.14458681126425,118.13436348494479L145.30192029368447,120.05732126795144L145.3805870348946,119.03727842980123L145.53792051731486,120.74264237063598L145.77392074094521,120.17459369908065L146.1672544469958,118.71591067209204L146.5605881530464,118.82057555353246L146.6392548942565,111.67151203095399L146.79658837667674,113.11513766663103L146.953921859097,115.53264069832125L147.26858882393745,118.73583248520582L147.3472555651476,121.7839812812123L147.50458904756783,122.09157221509487L147.58325578877793,124.57901853110903L147.66192252998806,125.94851869748139L148.291256459669,125.52668882867954L148.44858994208926,126.11583702329742L148.60592342450948,126.55902796422468L148.7632569069297,127.6907238300002L148.92059038934994,127.66570317838455L149.07792387177017,126.02709778334L149.15659061298032,126.6784164927018L149.31392409540055,126.16793608967902L149.5499243190309,126.7695170043328L149.70725780145114,125.93751174645925L149.78592454266123,128.3269005189913L150.17925824871185,124.8889819231278L150.25792498992197,124.09557694940331L150.33659173113207,121.32243974649248L150.72992543718266,122.4711909254482L150.8085921783928,120.32465981531308L151.04459240202317,119.84346842051139L151.12325914323327,115.53943066269447L151.7525930729142,116.12926366257173L151.8312598141243,116.7214099795452L152.22459352017492,118.09537125255761L152.46059374380528,120.00181053998688L152.69659396743563,119.43797878726117L152.77526070864573,121.83518008697595L152.932594191066,124.45206146656875L153.16859441469634,119.56790578602053L153.24726115590647,121.72631048301855L153.32592789711657,120.54889274851138L153.48326137953683,117.05094167416127L154.03392856800767,116.34705531528147L154.11259530921777,117.24374774704503L154.269928791638,119.3342030152283L154.42726227405822,119.48215106308379L154.74192923889873,118.33379283545511L154.97792946252906,116.19076035181632L155.13526294494932,114.55093196037214L155.21392968615942,116.99731043781189L155.29259642736955,113.6002570722736L155.37126316857965,116.2421405674464L155.5285966509999,110.44086499528936L155.60726339221,113.64779264764346L155.92193035705048,115.56282149043639L156.07926383947074,116.15512329522971L156.15793058068084,117.90594261384327L156.4725975455213,117.16029555928044L156.62993102794158,116.7084194373302L156.8659312515719,118.49064647352054L157.1805982164124,121.21455565921411L157.6525986636731,121.00172997592504L157.73126540488323,121.21857416201095L157.80993214609333,119.46295983894449L157.96726562851356,110.7395316208521L158.0459323697237,114.79613688197581L158.20326585214391,116.25981340473022L158.28193259335404,118.48339593493361L158.36059933456414,118.2276716505657L158.5179328169844,117.4551846196189L158.83259978182488,119.15607688040376L158.9899332642451,120.84361784400599L159.14726674666534,119.05691124578686L159.38326697029572,117.85491705110108L159.54060045271595,114.89289313788518L159.69793393513618,116.09976588599213L159.8552674175564,115.80724742045966L159.93393415876653,112.65752249279286L160.01260089997663,111.15717926809224L160.24860112360702,110.48242336396775L160.40593460602724,109.47130945803099L160.6419348296576,110.0863665474582L160.72060157086773,109.27502174034863L160.87793505328796,112.49142344521846L160.95660179449806,109.01864872556784L161.03526853570818,111.67469525092665L161.11393527691828,113.38498037124174L161.27126875933857,115.84759813198673L161.34993550054867,116.25221279445086L161.4286022417588,113.42158300700133L161.5072689829689,111.14231494485722L161.58593572417902,112.8414685044594L161.74326920659925,116.01292126063461L161.82193594780938,119.15577487599691L161.9792694302296,119.98760656363251L162.21526965386,122.89495253630113L162.45126987749032,123.38235340168526L162.60860335991055,125.99095828103474L162.7659368423308,127.04127692667726L162.92327032475103,128.64455026814014L163.00193706596113,130.26989485621147L163.0806038071713,127.26284446116722L163.31660403080164,127.07334973113728L163.47393751322187,124.65219809238602L163.70993773685223,122.93304450381257L163.94593796048258,119.15121842907138L164.1032714429028,119.89321870537387L164.18193818411294,119.28782821958575L164.26060492532307,122.14842905127443L164.65393863137362,121.69216533081718L164.73260537258375,122.75006154309514L165.20460581984446,123.20470452892255L165.44060604347482,123.60669596842573L165.51927278468494,123.19601102449359L165.59793952589504,124.32217136923455L165.67660626710517,121.84518438741321L165.99127323194566,123.56293176649069L166.227273455576,122.90600331697087L166.38460693799624,123.63003273210902L166.54194042041647,125.70527729699796L166.77794064404685,126.99033163851746L167.17127435009743,127.003470293334L167.32860783251766,127.36434193423034L167.4072745737278,127.18853890800531L167.4859413149379,127.90513487984833L168.19394198582896,130.46488847351628L168.84949816257998,132.32623129123368L169.0068316450002,129.72289697184723L169.0854983862103,130.33802405420246L169.16416512742043,133.46095021149324L169.95083253952163,132.70417476701587L170.02949928073173,132.5862094926343L170.10816602194186,130.39638598123003L170.3441662455722,131.25446300407503L170.42283298678234,133.35936447773403L170.50149972799247,133.92728872140785L170.58016646920257,132.0892599242771L170.6588332104127,132.59514305332107L170.7374999516228,134.20337434214304L170.81616669283292,134.84065167028874L170.89483343404305,136.53425164602203L170.97350017525315,136.09634270000575L171.05216691646328,135.4805653100019L171.2881671400936,134.560577682796L171.4455006225139,133.3451925652739L171.83883432856445,130.9661912583505L171.91750106977457,131.35793202655677L172.0748345521948,132.35905388140065L172.31083477582519,132.8635115904856L172.3895015170353,132.70095539302181L172.4681682582454,131.17778324711296L172.54683499945554,132.38168475081767L172.70416848187577,133.33742183542222L172.94016870550612,132.8653266443357L173.01883544671622,130.87164811525082L173.2548356703466,133.9638432241935L173.3335024115567,134.88709432433063L173.41216915276684,134.14226892668793L173.49083589397696,135.03001926862333L173.7268361176073,134.64160303855704L173.96283634123765,135.320138495735L174.12016982365787,135.36105279117538L174.19883656486803,135.3141691558742L174.4348367884984,132.99020139767805L174.5135035297085,127.59066364457684L174.59217027091861,127.42162407986169L174.67083701212871,127.78611382718705L174.82817049454894,128.32977861696975L174.9855039769692,129.17344660970855L175.06417071817933,126.54521777851386L175.37883768301978,125.92477742249844L175.69350464786027,126.39314652059576L175.8508381302805,129.8538752510006L176.16550509512098,132.40677583366903L176.3228385775412,129.89231042342533L176.40150531875133,131.20736485833447L176.55883880117156,128.59293938729428L176.7161722835918,128.49037012569815L176.79483902480192,128.43175470874382L177.0308392484323,126.28365252406371L177.18817273085253,127.74555765322984L177.26683947206263,129.06094433922877L177.50283969569298,127.56976477228699L178.05350688416382,126.46722438287307L178.36817384900428,127.68206138969026L178.84017429626502,130.04542490195192L178.91884103747512,128.59866555791803L178.99750777868525,128.23597983629722L179.07617451989537,127.11533054574848L179.15484126110547,124.68525459116124L179.6268417083662,125.60291351073465L179.78417519078644,126.10722505251732L180.17750889683703,128.516385388888L180.25617563804713,128.01113727740983L180.33484237925725,125.91905779681323L180.57084260288764,126.58703495974346L180.64950934409774,128.57754490961534L181.04284305014832,130.5605366416729L181.59351023861916,132.7154595999815L181.7508437210394,131.253163535826L181.90817720345962,134.32887486354682L181.98684394466974,133.72190094723987L182.38017765072033,133.1139388547407L182.45884439193046,130.9203585411703L182.53751113314058,128.97827649649048L182.6161778743507,127.98676126790357L182.85217809798104,127.5879817569234L183.00951158040127,129.40140629157418L183.32417854524175,127.92038877575216L183.40284528645188,126.62688127211013L183.63884551008223,124.25683938307604L183.71751225129236,125.65137153349914L183.79617899250246,126.06846180864827L183.9535124749227,128.17566268405915L184.11084595734295,129.0210372439931L184.18951269855305,129.643007520205L184.50417966339353,130.3603352308457L184.66151314581379,128.37555553570735L184.8975133694441,126.29170737273756L184.97618011065424,127.27768744647928L185.36951381670485,127.5528285639271L185.52684729912508,125.99355023087848L185.92018100517566,127.38206047893631L186.0775144875959,128.64946217743392L186.15618122880605,128.48716199722378L186.23484797001615,127.9196553683939L186.31351471122628,128.95437277506653L186.4708481936465,126.23767448274492L186.5495149348566,127.09161556081372L186.62818167606673,127.51413948616235L186.70684841727686,128.42949704776925L186.78551515848696,129.88527644382916L187.41484908816793,131.20099696201078L187.57218257058815,131.25851800511458L187.65084931179825,133.39098199518338L187.72951605300838,133.49478913280123L187.8868495354286,131.59545322414652L188.51618346510958,131.61292809407178L188.75218368873993,128.43453362179432L188.9095171711602,124.33816883787892L189.38151761842087,127.36416003134278L189.61751784205123,128.79165560336696L189.77485132447146,131.24198776981513L190.08951828931194,131.41008654567833L190.2468517717322,131.47736647429355L190.56151873657265,128.03514482759942L190.64018547778275,127.32494993001764L190.79751896020304,124.11897621244978L191.03351918383336,123.78394108236063L191.42685288988395,125.16280089373547L191.58418637230417,127.17560093191611L191.74151985472443,125.98619831826991L191.82018659593456,125.29982569874726L191.9775200783548,127.00736604586723L192.0561868195649,129.65453428373854L192.4495205256155,130.7317495490338L192.5281872668256,131.42976269591594L192.60685400803573,133.8765835087372L193.15752119650656,133.61275216617958L193.55085490255718,134.73397276318266L193.86552186739763,132.12236464929856L194.101522091028,132.4623181432533L194.33752231465834,128.26999119081816L194.41618905586844,124.81249665561157L194.9144117501992,123.12895015278704L194.99307849140934,124.34308972929769L195.22907871503966,122.98256431442299L195.3077454562498,124.04277315606959L195.46507893867005,122.35982725250653L196.5664133156117,121.65150901393457L196.64508005682183,121.8593802516692L196.72374679803193,120.14132438148634L196.80241353924205,121.07531857674071L196.95974702166228,123.62381272929574L197.19574724529264,122.68608062773404L197.43174746892302,122.44860305353745L197.74641443376348,120.17457834444849L197.82508117497358,115.79547647197643L197.9037479161837,117.65740961885845L198.06108139860393,119.3994348223101L198.2184148810242,122.1984832647149L198.37574836344442,120.05657949049757L198.61174858707477,120.65148030188948L198.92641555191526,120.38153077335124L199.24108251675574,121.77964848177696L199.5557494815962,119.11858298770417L199.63441622280632,116.57276734783404L199.79174970522655,107.18740455173062L200.10641667006703,111.26147631145948L200.26375015248726,111.4754587682966L200.65708385853785,107.83247857914878L201.05041756458846,110.23481397578037L201.12908430579859,112.87282427969181L201.2864177882188,113.83051095945827L201.3650845294289,110.4220422285344L201.60108475305927,110.72550603223348L201.83708497668962,112.63261736301851L202.07308520032,112.56374815557584L202.30908542395034,114.79616740141947L202.46641890637056,113.11557100005605L202.5450856475807,115.35570559811254L202.62375238879082,116.00855834712169L202.70241913000092,118.53728413639323L202.78108587121108,119.94983396374673L203.25308631847176,118.7836719842106L203.410419800892,120.75744556486092L203.48908654210211,120.62613323583727L203.56775328331224,120.76107434451785L203.64642002452234,120.5163777791092L204.03975373057295,122.14743873688619L204.11842047178308,123.48494145260739L204.19708721299318,124.62224302388626L204.3544206954134,125.40964758808022L204.51175417783364,126.48858928741592L204.59042091904377,127.01650822504591L204.66908766025392,128.580678461282L204.74775440146402,126.87437133344172L204.82642114267415,127.70553040463506L204.90508788388425,127.75726658060617L205.29842158993483,130.1405253329202L205.37708833114496,128.99575149118425L205.45575507235506,130.59653140395343L205.9277555196158,127.2340611141508L206.0064222608259,129.23728259603513L206.24242248445626,129.0478704464403L206.39975596687648,127.29605311594786L206.4784227080866,127.38005411258595L206.55708944929674,125.6505069730752L206.7930896729271,126.70491276268399L207.2650901201878,127.26369760563735L207.5797570850283,130.1265256975105L207.73709056744852,131.31928434198136L207.89442404986875,131.16286800958414L208.1304242734991,129.56759138909467L208.3664244971295,132.064025530896L208.4450912383396,134.0796776724028L208.5237579795497,134.1980535167451L208.6024247207598,134.80098027988967L208.75975820318007,135.1836511318652L208.83842494439017,136.40645492606245L209.41531437993106,138.24464405018784L209.49398112114116,138.97323731269353L209.5726478623513,137.3923881656518L209.65131460356142,138.2604788145917L209.72998134477152,138.21386031282248L209.80864808598164,138.93590739375776L209.88731482719174,138.24903450873418L209.96598156840187,134.0270131090794L210.04464830961197,133.5578435599391L210.1233150508221,132.99902228371633L210.20198179203226,132.4460437006507L210.28064853324236,131.63844562226515L210.43798201566258,130.21918460304948L210.5166487568727,126.77933889043013L210.5953154980828,126.98084978262463L210.67398223929294,127.27626390235858L210.75264898050307,126.75380853052891L210.83131572171317,127.70319645885363L210.9886492041334,129.33227303780333L211.06731594534352,131.2052258258475L211.14598268655365,132.21737627932777L211.22464942776378,131.93824973504084L211.3033161689739,130.71503697350397L211.381982910184,129.1516597926403L211.46064965139414,129.1736872434442L211.53931639260423,129.59605884318023L211.61798313381436,129.52214509672132L211.6966498750245,129.52210959547676L211.7753166162346,125.9784431624901L211.85398335744472,127.40480774467869L211.93265009865482,126.67860439008521L212.01131683986495,127.00890211701105L212.08998358107507,127.12243474669694L212.1686503222852,126.9614788415628L212.24731706349533,128.69882402637074L212.32598380470543,129.17186993908575L212.40465054591556,129.17182873032624L212.48331728712566,129.31332493381555L212.5619840283358,130.8421455363783L212.64065076954589,131.21593691527198L212.719317510756,133.4370547397441L212.79798425196614,132.58757653270368L212.87665099317624,134.62291155305712L212.95531773438637,134.9307816871458L213.0339844755965,134.1858993750709L213.11265121680663,134.74231782350273L213.19131795801673,130.6804480797071L213.26998469922685,130.8383636517576L213.34865144043698,133.0886621314887L213.42731818164708,129.53112281898422L213.74198514648756,127.25008129413521L213.82065188769766,127.05038224906306L214.05665211132805,127.59068301870599L214.2926523349584,129.0123003413588L214.44998581737863,128.14672289688608L214.84331952342924,130.3860289759601L215.07931974705957,130.9725078641174L215.62998693553038,130.47234469424973L215.7086536767405,132.8088154366294L216.25932086521135,132.52925985634175L216.4953210888417,131.59632920541694L216.73132131247206,130.78447130667735L216.88865479489232,131.57265183362176L217.20332175973277,131.8169323881582L217.43932198336313,129.27463541033754L217.91132243062384,126.07490710774269L218.1473226542542,126.56570216042448L218.6193231015149,127.09110577119024L218.77665658393514,127.37391829528092L218.85532332514526,128.18377025310656L218.9339900663554,129.08746334839077L219.0126568075655,128.39644947264168L219.40599051361608,126.86921814173786L219.56332399603633,128.836230300833L219.87799096087682,126.54293164516776L219.95665770208691,125.44571352574904L220.03532444329704,121.50432600194787L220.11399118450714,115.85302318509522L220.19265792571727,111.75527017893428L220.27132466692737,112.56441335214478L220.3499914081375,114.52590095928775L220.42865814934765,112.99003928526291L220.50732489055775,115.18384008851204L220.58599163176788,117.02356752171627L220.66465837297798,116.68996692952429L220.7433251141881,115.7214598593551L220.90065859660834,114.80400125421272L221.05799207902857,109.92806017704406" style="fill: none;" fill="none"></path></g></g></g></g><g opacity="0.2"><g><g><g><path stroke="rgb(255, 112, 67)" stroke-width="2px" d="M34.565370916907746,138.52868195972655L34.72270439932798,115.95597411123262L34.95870462295834,61.233989795012135L35.03737136416846,97.38428310787253L35.27337158779881,71.2885332168633L35.666705293849404,104.27958951703604L35.82403877626964,91.21556828690325L35.98137225868988,96.61372164832548L36.217372482320236,83.93452459179403L36.45337270595059,119.51728785287474L36.61070618837082,61.71987092134336L37.16137337684165,122.1678027607319L37.24004011805177,125.60304114940053L37.31870685926189,110.84756710055231L37.47604034168213,121.10177043843774L37.55470708289225,76.36230341794159L37.633373824102364,79.6617646349776L37.86937404773272,113.652757971593L37.94804078894283,63.90605503218947L38.18404101257319,122.29040126285562L38.34137449499343,105.61644744870522L38.49870797741367,69.33560541037644L38.57737471862379,96.8501826258165L38.73470820104403,129.1284318222247L38.89204168346426,101.60376647136447L38.97070842467438,92.58300670218306L40.072042801616035,110.97890162943243L40.70137673129698,104.77824543626232L40.7800434725071,72.9953948063903L40.858710213717224,103.08438691771647L41.17337717855769,110.83878717416395L41.40937740218805,16.259993380830394L41.48804414339817,77.24257883763745L41.80271110823865,116.28333805658542L42.038711331869,113.54177092211788L42.27471155549935,83.55619756372006L42.58937852033983,88.7968478256617L42.66804526154995,79.65049998942135L42.74671200276006,101.91373299257874L42.825378743970184,104.2822586146581L43.29737919123089,109.50325062141623L43.92671312091184,63.024848940296465L44.24138008575231,112.32403903168581L44.47738030938267,82.10688633486892L44.71338053301302,127.22455746446957L44.792047274223144,125.62765567303026L44.94938075664338,99.11356862939536L45.264047721483855,127.85791062438271L45.34271446269397,132.9309959912027L45.89338165116481,93.26232716670239L46.52271558084575,103.78134625435001L46.837382545686225,132.810816358799L46.916049286896346,108.71178854710169L46.99471602810646,120.57889509226919L47.38804973415705,83.5428257358306L47.70271669899753,78.53668730772178L48.017383663838004,112.10821966113382L48.09605040504812,89.11121308999654L48.56805085230883,103.61659093567265L48.804051075939185,109.97814366987244L48.8827178171493,98.80530541390044L48.96138455835943,43.49001318202406L49.04005129956954,107.11887723220589L49.19738478198978,73.37651385105575L49.51205174683025,94.97023356746959L49.74805197046061,101.10518079154929L49.90538545288084,120.82425013519162L50.062718935301085,113.56209645170692L50.1413856765112,101.57717207433416L50.45605264135167,107.71985441356199L50.61338612377191,79.34892707783433L50.849386347402266,104.43627608336251L51.242720053452864,112.09727109292754L51.55738701829333,121.8692413638961L51.71472050071357,136.8039312701833L51.79338724192369,108.0824741533272L51.8720539831338,135.3505988350463L51.950720724343924,98.11036546033623L52.18672094797428,104.23492603149852L52.344054430394515,79.25465700820263L52.81605487765523,131.41874147007348L52.89472161886535,94.42025019857702L52.97338836007546,30.365384120032502L53.20938858370582,86.21386372162054L53.288055324915945,91.91262420272705L53.36672206612606,33.78948517207749L53.602722289756414,118.7092580574654L53.76005577217665,110.5080868567836L54.782723407908186,110.92451437541979L54.94005689032843,21.568249075962314L55.09739037274866,119.86755423621155L55.88405778484985,109.82397255245623L56.04139126727008,140.15180500132465L56.12005800848021,87.19237773767564L56.19872474969032,118.67597774649036L56.35605823211056,104.99388042836017L56.43472497332068,117.68387679434929L56.74939193816115,100.82314321617636L56.90672542058139,119.32390997417137L57.221392385421865,110.00008031595372L57.3787258678421,77.4304868222009L57.536059350262335,109.11493642707552L57.614726091472455,141.04713360481335L57.69339283268258,99.06541951308166L57.77205957389269,103.45088738494533L57.850726315102804,113.21536398874143L57.92939305631293,82.64595625526076L58.2440600211534,107.98326537510205L58.79472720962423,118.36135786429028L58.87339395083435,97.52506922750972L58.95206069204447,118.30234797903418L59.03072743325458,87.7796757937187L59.188060915674825,55.88055259868575L59.42406113930518,114.95195001905617L60.05339506898613,102.33488850157507L60.13206181019624,109.10005006188406L60.28939529261648,135.1741618243092L60.3680620338266,90.42950147735436L60.60406225745695,45.96600510309682L60.68272899866708,104.59809012669979L60.91872922229743,112.22228407480806L60.99739596350755,69.38112932870004L61.02361821057759,97.61162174184606L61.1022849517877,114.73220163144538L61.259618434207944,104.15717978332968L61.33828517541806,91.26033713155743L61.41695191662818,105.94202467903798L61.574285399048414,99.0040478276271L61.652952140258535,72.72756315191371L61.81028562267877,90.78235793897572L62.28228606993948,78.6634079852848L62.3609528111496,94.27114948865008L62.51828629356984,110.94779435023851L62.59695303477996,74.58505315855922L62.83295325841031,86.59696702964975L62.91161999962043,118.17391082586222L63.06895348204067,71.92518323913527L63.14762022325078,115.27260610064826L63.2262869644609,65.47395672676808L63.304953705671025,87.09841496546753L63.698287411721616,86.7169798434521L63.93428763535197,117.44466769989873L64.0916211177722,90.42132736588681L64.17028785898232,77.18957442203099L64.32762134140256,100.0515281654627L64.40628808261268,89.55777770596075L64.48495482382279,59.93678201091274L64.56362156503292,80.40914708885941L64.64228830624303,85.80715119153304L65.58628920076445,121.57568452510165L65.7436226831847,123.88644262150888L65.82228942439481,127.5481987210337L65.90095616560494,107.35829704488978L66.05828964802517,93.08891484060611L66.1369563892353,72.67501529247944L66.21562313044541,103.12022657723371L66.45162335407576,132.27616274138046L66.608956836496,95.58704973603028L67.00229054254659,123.5788905800514L67.31695750738706,121.28581964535351L67.63162447222754,116.41781140914938L67.71029121343766,52.5749454331779L68.26095840190848,94.02494279286799L68.3396251431186,121.99590058197442L68.41829188432871,91.4329329244996L68.49695862553885,51.52766703364925L68.57562536674897,81.36837160663931L68.7329588491692,72.9484397600654L68.89029233158942,48.81029737630803L69.12629255521979,125.20782154295539L69.2049592964299,116.67441792773846L69.36229277885015,88.6637704813935L69.5982930024805,106.3588955839568L69.83429322611086,90.77535155771781L70.07029344974121,109.94137772812122L70.14896019095133,108.64806384137505L70.30629367337157,74.47726200228945L70.69962737942215,122.91019821642514L70.93562760305251,88.36282094458006L71.01429434426264,124.89874618426953L71.32896130910311,136.3962485582299L71.40762805031322,56.614413965929515L71.48629479152333,121.80873889115398L71.7222950151537,120.56869281780592L71.80096175636382,73.24576318728045L71.95829523878405,97.95847273381779L72.11562872120429,99.47189498515667L72.19429546241442,104.79603356712512L72.27296220362453,79.25055678257927L72.50896242725487,107.9907678222009L72.58762916846501,137.3840473464407L72.98096287451558,29.98070042525336L73.05962961572573,115.68854194340672L73.29562983935607,123.36339606677575L73.4529633217763,80.27141638360538L73.53163006298642,123.93333181838585L73.61029680419655,141.42158429538685L73.84629702782689,78.46767708630935L73.924963769037,99.21902432524584L74.23963073387749,81.326719635853L74.3182974750876,99.7343357648308L74.63296443992809,103.63055101863011L74.7116311811382,131.60965657942492L74.94763140476856,108.19544985612927L75.02629814597867,102.79557123917174L75.1049648871888,108.47809763638621L75.18363162839891,106.16298908645356L75.26229836960903,107.25249893191018L75.34096511081914,118.9123553146807L75.41963185202927,132.35162181872514L75.49829859323938,66.59099164145215L75.5769653344495,93.77327498287237L75.9702990405001,138.90613538512486L76.04896578171021,110.36721732784574L76.28496600534058,86.70291440137795L76.52096622897092,125.91423686030917L76.67829971139116,107.35777902923287L76.8356331938114,124.26815870116872L77.30763364107212,88.11226818523575L77.38630038228223,118.36908419951202L77.46496712349234,70.01762131229701L77.54363386470246,102.21996804507796L77.62230060591257,34.41489688857237L77.70096734712271,105.4599540407593L77.77963408833283,107.49486001993417L78.25163453559354,120.0333016865708L78.48763475922388,106.13878282940088L78.566301500434,94.13949449245679L78.95963520648459,118.54975752473146L79.27430217132508,116.43743893459052L79.35296891253519,111.47996763845231L79.58896913616555,94.60329410392131L79.66763587737566,138.43110624780962L79.8249693597959,112.41669359486207L79.98230284221613,130.4292657159225L80.29696980705661,106.88174898030935L80.37563654826673,125.9880672613088L80.84763699552744,111.8713855367713L81.00497047794768,116.78143206052285L81.31963744278815,117.27209385677253L81.39830418399828,124.11039220389648L81.5556376664185,126.41026319158215L81.79163789004886,112.83479807943844L81.87030463125899,107.16917743048475L81.9489713724691,105.7905358291334L82.3423050785197,105.93320963294408L82.42097181972981,102.87085032802544L82.57830530215004,116.66623503634452L83.12897249062087,115.15406831447916L83.60097293788158,123.25933198925784L83.75830642030182,116.84820779066943L83.83697316151195,109.22003653590724L84.23030686756253,56.20285491647566L84.38764034998277,50.173372168172804L84.85964079724349,93.0651826995784L85.09564102087384,113.04250040804442L85.25297450329407,92.53303136118056L85.41030798571431,116.40351768898913L85.48897472692443,88.38484099996204L85.72497495055478,104.87028540459139L86.03964191539526,101.2834659767911L86.11830865660538,80.65167499548478L86.35430888023573,114.977403025656L86.43297562144585,128.34649596804155L86.51164236265598,121.28996377060881L86.74764258628632,103.63957678295733L86.82630932749643,100.91325160069998L86.90497606870656,123.737886267018L86.98364280991669,77.9665188880624L87.14097629233692,107.60707625910365L87.61297673959763,117.77395883909375L87.69164348080774,132.55347671635647L87.92764370443811,83.79660072815945L88.08497718685834,79.65862142133057L88.3209774104887,117.91549564243712L88.47831089290894,66.24335923603188L88.55697763411905,135.36529643182038L88.87164459895952,134.9583292838676L88.95031134016965,103.97158969933275L89.02897808137976,85.46828993257472L89.26497830501012,89.84676898303326L89.34364504622023,104.26882532728392L89.6583120110607,53.62567434377719L89.73697875227083,96.02947022673918L90.0516457171113,76.94387696197944L90.13031245832141,107.50129570597683L90.52364616437201,86.39673202843707L90.68097964679225,136.62916244546003L90.99564661163272,89.35481214764128L91.15298009405296,62.31836338353155L91.23164683526308,139.25123039181892L91.31031357647319,74.70823552578776L91.3889803176833,85.14314291863498L91.62498054131368,127.7497155914991L91.93964750615413,104.47088655318538L92.1756477297845,121.4984036130314L92.25431447099461,98.00340839707336L92.5689814358351,110.26456681847635L92.72631491825533,125.08242224431379L92.80498165946544,114.24109644891308L93.04098188309581,120.34884346104167L93.35564884793627,97.51081062705504L93.67031581277675,119.28646797808824L93.74898255398686,115.2520127833044L93.9063160364071,125.25058417442985L94.06364951882735,86.37643283862721L94.22098300124757,122.8792006863111L94.53564996608806,55.85706629559692L94.61431670729817,140.62338362756927L94.92898367213864,122.4576369107377L95.24365063697911,83.70012689700428L95.47965086060947,108.92837177124949L96.18765153150055,88.0251098559786L96.34498501392078,103.34318402793946L96.502318496341,93.59581511071106L96.97431894360172,77.55034159732826L97.05298568481184,107.99481975822911L97.44631939086243,41.11799314924215L97.52498613207254,53.683516498823636L97.91831983812314,91.96303854004896L97.99698657933325,117.17677897590062L98.31165354417374,115.39128875560277L98.62632050901422,138.8756646505941L98.86232073264456,71.2491991466435L98.94098747385468,130.21960546373194L99.0196542150648,71.59777100418735L99.25565443869516,126.32795577165456L99.33432117990527,77.98848626388603L99.49165466232552,99.56885171226321L99.72765488595587,150.19715803522882L99.88498836837611,134.10509164748467L99.96365510958623,131.12657185964838L100.51432229805705,109.1105771936237L100.93387825117769,99.92020680647215L101.0125449923878,130.69664520419008L101.09121173359792,75.49928055359882L101.32721195722829,70.17765303057745L101.4058786984384,128.2558212782659L101.56321218085863,97.66558316942886L101.72054566327887,88.87886111805527L101.799212404489,50.55874069721024L102.03521262811934,100.42425360050089L102.11387936932945,106.65203976621099L102.27121285174971,112.66334806688997L102.34987959295982,126.68373594876324L102.50721307538005,99.70591514311172L102.66454655780029,137.8855260120008L102.74321329901042,102.91920138264608L102.90054678143065,114.80028557062383L102.97921352264076,130.78783790962268L103.136547005061,60.15817663472134L103.45121396990147,115.44165480332953L103.68721419353183,11.74835796676615L103.76588093474196,129.26331344136574L103.92321441716219,95.4303631697038L104.15921464079254,103.2081136403811L104.23788138200267,129.97144962429164L104.3952148644229,83.03084188834681L104.70988182926337,76.0188941571141L104.94588205289372,69.30785206306288L105.02454879410385,94.97789844320663L105.10321553531396,107.1150316244478L105.18188227652408,96.70311007888526L105.57521598257468,129.6814091460157L106.04721642983539,96.60109611417903L106.1258831710455,99.03270550735867L106.59788361830621,114.06981325496596L106.75521710072645,107.69829091435221L107.14855080677704,125.52050106142366L107.38455103040741,139.95635944995684L107.46321777161752,128.91183103822416L107.54188451282764,121.68960406999048L107.69921799524786,92.35293751110275L108.01388496008835,105.23539864345088L108.17121844250858,98.72020158741817L108.32855192492883,128.78765653931373L108.64321888976929,137.91521094311983L109.27255281945024,146.5750367184026L109.66588652550084,109.25237300479553L109.82322000792108,62.18574259543554L110.05922023155144,118.60658998824326L110.13788697276155,116.60910844529872L110.3738871963919,97.81022367675051L110.76722090244249,122.94153816366835L110.92455438486273,73.45584048597448L111.00322112607286,125.90089137219888L111.16055460849309,143.31639337914604L111.31788809091331,75.10629982838272L111.47522157333357,110.58223772509639L111.55388831454368,124.50091015976066L111.6325550557538,106.47193713620679L112.0258887618044,101.90688464999583L112.10455550301451,84.9317574109091L112.34055572664485,94.90233839670849L112.419222467855,107.14085338795593L112.96988965632582,100.1740608181385L113.12722313874605,84.26990899990257L113.20588987995616,100.03764710184271L113.28455662116627,103.13471345577449L113.3632233623764,139.68739079501296L113.52055684479664,103.5735166168114L113.67789032721687,138.47752132866165L113.75655706842699,121.35179640219874L114.22855751568771,93.46109592020822L114.70055796294842,138.47711745204776L114.85789144536865,115.18008323636784L115.32989189262936,127.38951472145388L115.40855863383948,122.0103962404416L115.56589211625972,80.32076834983428L115.72322559867996,132.66421353792953L115.80189233989007,94.85366248481148L116.03789256352043,135.9932279871887L116.11655930473056,133.8623398527364L116.3525595283609,122.35968366198608L116.43122626957101,73.58557267828873L116.82455997562161,105.88586826985811L116.90322671683172,85.40961368452139L116.98189345804187,94.73393940857996L117.06056019925198,100.8331259924799L117.21789368167221,144.4921440515522L117.37522716409244,100.17027666986512L117.45389390530255,105.46544149475201L117.6112273877228,114.0807925529146L117.76856087014303,104.0310912604666L117.84722761135315,103.96426724072487L117.92589435256328,118.8678103581494L118.24056131740375,110.92869801034385L118.3454503056839,104.65984812891543L118.42411704689403,125.28960216729968L118.50278378810415,115.5685027898252L118.58145052931427,80.94189546225165L118.97478423536485,96.78149726168044L119.39434018848549,97.46308294720798L119.4730069296956,135.46839032747238L119.55167367090573,127.59098769228731L119.63034041211584,79.86702175408442L119.8663406357462,138.88879942047106L120.41700782421702,103.40611854029113L120.65300804784738,136.79622688477752L120.81034153026762,118.2536501173212L121.04634175389796,103.20400463483135L121.20367523631822,79.31620429218495L121.51834220115867,98.51388209721836L121.67567568357893,110.59338823160961L121.91167590720927,142.50688855610346L121.99034264841939,101.55384380992031L122.14767613083964,57.07059260128898L122.22634287204976,123.5623052991038L122.77701006052058,124.84041674330854L122.8556768017307,119.81955437864644L123.01301028415094,95.78307915250295L123.3276772489914,128.68530015747837L123.56367747262176,129.17038670047145L123.64234421383189,119.92441742946568L123.79967769625212,71.05410040236801L124.1143446610926,119.82964251406666L124.19301140230272,94.47271025874741L124.42901162593307,125.57656967133966L124.5863451083533,124.08944768949708L124.66501184956343,76.15802965059027L124.74367859077354,127.95683405500023L124.82234533198366,95.82201812603527L124.9796788144039,60.71084666108874L125.21567903803425,126.910446818L125.53034600287472,109.67509134068898L125.76634622650508,101.2050963538487L125.8450129677152,117.35815030526794L125.92367970892532,90.21092520991641L126.00234645013543,130.92116109182976L126.08101319134555,95.7089590139325L126.2383466737658,145.70858968276838L126.31701341497592,98.13055051110304L126.47434689739615,128.1267036807988L126.63168037981637,84.45269828738161L126.94634734465686,117.2822873513094L127.49701453312768,132.1678667393434L127.89034823917828,101.93822020727585L128.0476817215985,115.70387608484397L128.28368194522886,84.44450661606128L128.44101542764912,117.17702042387629L128.51968216885922,93.52182667103644L128.67701565127945,109.72096645606811L128.8343491336997,95.18772112403538L129.07034935733006,142.00249495498238L129.14901609854016,50.41676928751063L129.38501632217054,120.77229492078855L129.46368306338064,119.25374080247568L129.77835002822113,102.144434338359L130.01435025185148,106.75522146112687L130.25035047548184,135.33126543713914L130.72235092274255,98.60299835006009L130.87968440516278,84.4390542817741L131.19435137000326,144.70007026828108L131.3516848524235,108.07992797467458L131.50901833484372,128.15530429100886L131.66635181726397,134.85010352124164L131.74501855847407,104.23360904254025L132.05968552331456,98.18922675915638L132.13835226452468,101.27953256976913L132.21701900573478,61.039707583890745L132.2956857469449,123.58591013119887L132.37435248815504,142.61428022572255L132.6890194529955,116.48861712550821L132.84635293541575,119.10292800690301L132.92501967662585,156.94470706320283L133.1610199002562,101.51869776458776L133.23968664146634,105.64859953913935L133.4756868650967,88.88023956649825L133.63302034751695,89.82721608696639L133.71168708872705,118.34674806678007L134.0263540535675,88.10346191906822L134.18368753598776,130.0338661209864L134.34102101840801,136.5426670006452L134.57702124203834,134.98552071589233L134.65568798324847,128.2571602170401L134.7343547244586,87.35949485655146L134.89168820687883,99.49661047793987L135.04902168929905,72.39123929168161L135.20635517171928,75.51496150212843L135.99302258382048,87.8776334324335L136.3863562898711,124.8143008522664L136.4650230310812,140.71633231827954L136.77968999592167,122.14676605710542L136.9370234783419,139.77735431075115L137.015690219552,138.14850236718465L137.17302370197228,140.11419179667698L137.25169044318238,124.25192461727667L137.3303571843925,135.34181451869475L137.48769066681274,124.14546800981793L137.56635740802284,138.42838008066605L137.8023576316532,138.74721432753256L137.95969111407342,73.79934632599225L138.03835785528358,114.13000843028449L138.11702459649368,127.54088504235222L138.27435807891393,128.10775659965276L138.43169156133416,118.26660050874402L138.66769178496452,122.55791683998223L138.74635852617462,140.31526967082294L138.982358749805,139.0791350546809L139.0610254910151,153.00617036923006L139.21835897343536,121.23649840886696L139.37569245585559,133.3734120919484L139.76902616190617,138.18954852305018L139.92635964432642,111.93418835022716L140.08369312674665,97.14020993420283L140.24102660916688,106.63699975230774L140.3983600915871,94.45230570982089L140.47702683279724,131.1938436556359L140.94902728005795,98.31376123504872L141.34236098610853,145.251598904218L141.42102772731866,125.65997458206579L141.5783612097389,124.89826328831818L141.657027950949,118.23913250903807L141.9716949157895,141.00941065108583L142.0503616569996,137.21726386476763L142.20769513941983,113.32070993551204L142.44369536305018,141.21601987885646L142.7583623278907,133.38296026189573L142.8370290691008,140.64649239382342L142.91569581031092,108.01014511973997L143.46636299878173,125.91009273505388L143.54502973999183,73.17581351374447L144.1743636696728,131.2313032115718L144.33169715209303,104.92555504120604L144.41036389330316,109.11123568810282L144.5676973757234,125.17350081070333L144.67258636400356,140.7746090796822L144.90858658763392,88.6239710750751L144.98725332884402,94.24168405569078L145.06592007005415,114.8948980573847L145.14458681126425,139.53941391566372L145.30192029368447,137.36394131501137L145.3805870348946,109.85689288644934L145.53792051731486,136.09091783814867L145.77392074094521,115.06215565508273L146.1672544469958,105.5877634291945L146.5605881530464,119.76255948649649L146.6392548942565,47.329940327747664L146.79658837667674,126.10776838772436L146.953921859097,137.29016798353325L147.26858882393745,147.5645585671671L147.3472555651476,149.21732044527067L147.50458904756783,124.8598906200379L147.58325578877793,146.96603537523654L147.66192252998806,138.27402019483247L148.291256459669,121.73022000946298L148.44858994208926,131.41817077485823L148.60592342450948,130.54774643257008L148.7632569069297,137.87598662197988L148.92059038934994,127.4405173138438L149.07792387177017,111.27964922793893L149.15659061298032,132.54028487695797L149.31392409540055,121.573612462474L149.5499243190309,132.1837452362167L149.70725780145114,118.44946442559737L149.78592454266123,149.8313994717798L150.17925824871185,93.94771456035608L150.25792498992197,116.95493218588301L150.33659173113207,96.364204920295L150.72992543718266,132.80995153604974L150.8085921783928,101.00587982409706L151.04459240202317,115.51274586729599L151.12325914323327,76.80309084234226L151.7525930729142,121.43776066146708L151.8312598141243,122.05072683230648L152.22459352017492,130.46102270966918L152.46059374380528,137.15976412685032L152.69659396743563,114.36349301272986L152.77526070864573,143.40999178440904L152.932594191066,148.00399388290398L153.16859441469634,75.61050466108644L153.24726115590647,141.15195275600067L153.32592789711657,109.95213313794694L153.48326137953683,85.56938200501016L154.03392856800767,110.0120780853634L154.11259530921777,125.31397963291693L154.269928791638,138.14830042887772L154.42726227405822,120.81368349378323L154.74192923889873,107.99856878679694L154.97792946252906,96.90346799906739L155.13526294494932,99.79247643737446L155.21392968615942,139.0147167347696L155.29259642736955,83.02677678242901L155.37126316857965,140.01909202400157L155.5285966509999,58.229384845876055L155.60726339221,142.51014151883032L155.92193035705048,132.7980810755727L156.07926383947074,121.48583953836967L156.15793058068084,133.6633164813653L156.4725975455213,110.44947206821497L156.62993102794158,112.6415343397781L156.8659312515719,134.5306897992335L157.1805982164124,145.7297383304563L157.6525986636731,119.08629882632347L157.73126540488323,123.17017183678416L157.80993214609333,103.66243093134621L157.96726562851356,32.2286776580207L158.0459323697237,151.30558423208916L158.20326585214391,129.4329021095199L158.28193259335404,138.495638706764L158.36059933456414,115.9261530912546L158.5179328169844,110.50280134109781L158.83259978182488,134.46410722746745L158.9899332642451,136.03148651642596L159.14726674666534,102.97655186181477L159.38326697029572,107.036969298929L159.54060045271595,88.23467791894211L159.69793393513618,126.9616206189545L159.8552674175564,113.17458123066754L159.93393415876653,84.30999814379176L160.01260089997663,97.6540902457865L160.24860112360702,104.4096202268475L160.40593460602724,100.37128430459998L160.6419348296576,115.62188035230318L160.72060157086773,101.9729184763626L160.87793505328796,141.4390387890469L160.95660179449806,77.76367624871237L161.03526853570818,135.57911397915584L161.11393527691828,128.77754645407754L161.27126875933857,138.0111579786917L161.34993550054867,119.893744756628L161.4286022417588,87.9459149199557L161.5072689829689,90.62890238556015L161.58593572417902,128.13385054087894L161.74326920659925,144.5559960662115L161.82193594780938,147.44145741425766L161.9792694302296,127.47409175235285L162.21526965386,149.06106629031885L162.45126987749032,127.76896119014233L162.60860335991055,149.4684021951799L162.7659368423308,136.49414473745998L162.92327032475103,143.0740103413061L163.00193706596113,144.89799614885365L163.0806038071713,100.19939090576888L163.31660403080164,125.36789716086777L163.47393751322187,102.86183334362461L163.70993773685223,107.46066220665155L163.94593796048258,85.11478375640061L164.1032714429028,126.57122119209654L164.18193818411294,113.83931384749265L164.26060492532307,147.89383653647255L164.65393863137362,117.58579184670185L164.73260537258375,132.27112745359676L165.20460581984446,127.29649140136931L165.44060604347482,127.2246189239543L165.51927278468494,119.4998465291043L165.59793952589504,134.45761447190327L165.67660626710517,99.55230155102117L165.99127323194566,139.02265817818784L166.227273455576,116.99364727129243L166.38460693799624,130.14629746835243L166.54194042041647,144.38247838099855L166.77794064404685,138.55582071219294L167.17127435009743,127.12171818668284L167.32860783251766,130.61218670229738L167.4072745737278,125.6063116719802L167.4859413149379,134.35449862643532L168.19394198582896,153.502670816528L168.84949816257998,149.07831665069034L169.0068316450002,106.29288809736919L169.0854983862103,135.8741677953995L169.16416512742043,161.56728562711024L169.95083253952163,125.8931957667195L170.02949928073173,131.5245220232003L170.10816602194186,110.68797437859129L170.3441662455722,138.97715620968023L170.42283298678234,152.30347774066496L170.50149972799247,139.03860691447227L170.58016646920257,115.54700075010015L170.6588332104127,137.148091214717L170.7374999516228,148.6774559415407L170.81616669283292,140.57614762359995L170.89483343404305,151.77665142762166L170.97350017525315,132.15516218585944L171.05216691646328,129.93856879996727L171.2881671400936,126.28068903794289L171.4455006225139,122.40672650757486L171.83883432856445,109.55517949604011L171.91750106977457,134.8835989404132L172.0748345521948,141.36915057499564L172.31083477582519,137.4036309722499L172.3895015170353,131.23794961584778L172.4681682582454,117.46923393393334L172.54683499945554,143.2167982841598L172.70416848187577,141.93905559686337L172.94016870550612,128.6164699245569L173.01883544671622,112.92854135348685L173.2548356703466,161.79359920467792L173.3335024115567,143.19635422556453L173.41216915276684,127.43884034790362L173.49083589397696,143.01977234604206L173.7268361176073,131.14585696796038L173.96283634123765,141.42695761033653L174.12016982365787,135.72928145013896L174.19883656486803,134.89221643816336L174.4348367884984,112.07449157391298L174.5135035297085,78.99482386666583L174.59217027091861,125.90026799742532L174.67083701212871,131.06652155311528L174.82817049454894,133.22276172501392L174.9855039769692,136.76645854435782L175.06417071817933,102.89115829776169L175.37883768301978,120.34081421835953L175.69350464786027,130.6084684034719L175.8508381302805,161.00043382464406L176.16550509512098,155.38288107768497L176.3228385775412,107.2621217312318L176.40150531875133,143.04285477251702L176.55883880117156,105.0631101479323L176.7161722835918,127.56724677133323L176.79483902480192,127.90421595615487L177.0308392484323,106.95073286194263L177.18817273085253,140.90270381572503L177.26683947206263,140.89942451321897L177.50283969569298,114.1491486698111L178.05350688416382,116.54436087814784L178.36817384900428,138.6155944510448L178.84017429626502,151.31569651230694L178.91884103747512,115.57783146161282L178.99750777868525,124.97180834171019L179.07617451989537,117.02948693080967L179.15484126110547,102.81457099987612L179.6268417083662,133.86184378689546L179.78417519078644,130.64602892856126L180.17750889683703,150.19882841622422L180.25617563804713,123.46390427410637L180.33484237925725,107.09034247144376L180.57084260288764,132.5988294261155L180.64950934409774,146.49213445846223L181.04284305014832,148.40746223019096L181.59351023861916,152.1097662247588L181.7508437210394,118.09249895842626L181.90817720345962,162.01027681303438L181.98684394466974,128.2591357004775L182.38017765072033,127.64228002224806L182.45884439193046,111.17813571903683L182.53751113314058,111.49953809437194L182.6161778743507,119.06312421062142L182.85217809798104,123.99896615810195L183.00951158040127,145.7222271034311L183.32417854524175,114.59123113335404L183.40284528645188,114.9853137393319L183.63884551008223,102.92646238176924L183.71751225129236,138.20216088730706L183.79617899250246,129.82227428499039L183.9535124749227,147.1404705627571L184.11084595734295,136.6294082833989L184.18951269855305,135.24074000611205L184.50417966339353,136.81628462661172L184.66151314581379,110.51253827946249L184.8975133694441,107.53707390600934L184.97618011065424,136.15150811015468L185.36951381670485,130.02909862095754L185.52684729912508,111.96004523344085L185.92018100517566,139.87865271145674L186.0775144875959,140.0560774639125L186.15618122880605,127.02646037533245L186.23484797001615,122.81209570892493L186.31351471122628,138.26682943512043L186.4708481936465,101.7873898518504L186.5495149348566,134.77708526343292L186.62818167606673,131.31685481429986L186.70684841727686,136.66771510223126L186.78551515848696,142.98729100836837L187.41484908816793,143.0424816256455L187.57218257058815,131.7762073930487L187.65084931179825,152.5831579058026L187.72951605300838,134.429053371362L187.8868495354286,114.50143004625401L188.51618346510958,131.77020192339907L188.75218368873993,99.82898337129721L188.9095171711602,87.47088578264045L189.38151761842087,154.5980807725176L189.61751784205123,141.6391157515846L189.77485132447146,153.29497726784842L190.08951828931194,132.92297552844695L190.2468517717322,132.08288583183054L190.56151873657265,97.05515000735251L190.64018547778275,120.93319585178143L190.79751896020304,95.26521275433895L191.03351918383336,120.76862491155822L191.42685288988395,137.57253919610895L191.58418637230417,145.29080127554198L191.74151985472443,115.28157479545396L191.82018659593456,119.12247212304348L191.9775200783548,142.37522916994698L192.0561868195649,153.47904842458016L192.4495205256155,140.42668693669108L192.5281872668256,137.71188101785526L192.60685400803573,155.89797082412863L193.15752119650656,131.23827008316096L193.55085490255718,144.82495813621057L193.86552186739763,108.6178916243415L194.101522091028,135.52189958884617L194.33752231465834,90.53904861890179L194.41618905586844,93.69504583875216L194.9144117501992,107.97703162736632L194.99307849140934,135.27034591789356L195.22907871503966,110.73783558055072L195.3077454562498,133.5846527308889L195.46507893867005,107.21331412043898L196.5664133156117,115.2766448667869L196.64508005682183,123.73022139128096L196.72374679803193,104.67882154984066L196.80241353924205,129.48126633403012L196.95974702166228,146.560260102291L197.19574724529264,114.24649171367872L197.43174746892302,120.31130488576828L197.74641443376348,99.70835596264769L197.82508117497358,76.38355961972778L197.9037479161837,134.4148079407969L198.06108139860393,135.07766165337486L198.2184148810242,147.38991924635806L198.37574836344442,100.77944552254155L198.61174858707477,126.00558760441675L198.92641555191526,117.95198501650711L199.24108251675574,134.36270785760843L199.5557494815962,95.16899354104903L199.63441622280632,93.66042658900291L199.79174970522655,22.719139386799895L200.10641667006703,147.92812214901906L200.26375015248726,113.4013008798307L200.65708385853785,75.04565687681838L201.05041756458846,131.85583254546464L201.12908430579859,136.61491701489493L201.2864177882188,122.44969107735625L201.3650845294289,79.74582365021963L201.60108475305927,113.45668026552521L201.83708497668962,129.79661934008362L202.07308520032,111.94392528859184L202.30908542395034,134.88794061401222L202.46641890637056,97.99020338778529L202.5450856475807,135.51691698062078L202.62375238879082,121.88423308820421L202.70241913000092,141.29581623983694L202.78108587121108,132.66278240992824L203.25308631847176,108.28821416838538L203.410419800892,138.5214077907138L203.48908654210211,119.44432227462437L203.56775328331224,121.97554432264303L203.64642002452234,118.31410869043137L204.03975373057295,136.8269873568791L204.11842047178308,135.52246589409822L204.19708721299318,134.85795716539602L204.3544206954134,132.49628866582597L204.51175417783364,136.19906458143717L204.59042091904377,131.7677786637159L204.66908766025392,142.65821058740664L204.74775440146402,111.51760718287916L204.82642114267415,135.18596204537516L204.90508788388425,128.22289216434638L205.29842158993483,151.58985410374632L205.37708833114496,118.69278691556087L205.45575507235506,145.00355061887598L205.9277555196158,96.97182850592706L206.0064222608259,147.26627593299412L206.24242248445626,127.34316110008658L206.39975596687648,111.52969714151592L206.4784227080866,128.1360630823288L206.55708944929674,110.08458271747838L206.7930896729271,136.19456486916314L207.2650901201878,132.29276119221765L207.5797570850283,155.8919785243686L207.73709056744852,142.05411214221948L207.89442404986875,129.7551210180091L208.1304242734991,115.2101018046896L208.3664244971295,154.53193280710778L208.4450912383396,152.2205469459638L208.5237579795497,135.26343611582595L208.6024247207598,140.22732114819087L208.75975820318007,138.62768879964477L208.83842494439017,147.41168907383798L209.41531437993106,154.78834616731632L209.49398112114116,145.53057667524462L209.5726478623513,123.16474584227616L209.65131460356142,146.07329465505083L209.72998134477152,137.7942937968995L209.80864808598164,145.43433112217554L209.88731482719174,132.06717854352178L209.96598156840187,96.02882051218644L210.04464830961197,129.3353176176766L210.1233150508221,127.96963079771126L210.20198179203226,127.46923645306009L210.28064853324236,124.3700629167951L210.43798201566258,117.44583543010839L210.5166487568727,95.82072747685618L210.5953154980828,128.79444781237513L210.67398223929294,129.93499097996403L210.75264898050307,122.05171018406196L210.83131572171317,136.24768781377585L210.9886492041334,143.9939622483509L211.06731594534352,148.06180091824487L211.14598268655365,141.32673036065034L211.22464942776378,129.42611083645852L211.3033161689739,119.70612211967216L211.381982910184,115.08126516486698L211.46064965139414,129.3719343006792L211.53931639260423,133.39740324080458L211.61798313381436,128.8569213785914L211.6966498750245,129.52179008427552L211.7753166162346,94.0854452656101L211.85398335744472,140.24208898437604L211.93265009865482,120.14277419874392L212.01131683986495,129.9815816593438L212.08998358107507,128.14422841386997L212.1686503222852,125.51287569535538L212.24731706349533,144.33493068964242L212.32598380470543,133.42928315352066L212.40465054591556,129.17145785149083L212.48331728712566,130.58679076521906L212.5619840283358,144.60153095944307L212.64065076954589,134.58005932531518L212.719317510756,153.42711515999306L212.79798425196614,124.94227266933977L212.87665099317624,152.94092673623825L212.95531773438637,137.70161289394406L213.0339844755965,127.4819585663968L213.11265121680663,139.75008385938895L213.19131795801673,94.12362038554666L213.26998469922685,132.25960380021203L213.34865144043698,153.34134844906848L213.42731818164708,97.51326900644378L213.74198514648756,106.72070757049427L213.82065188769766,125.25309084341372L214.05665211132805,132.4533899454925L214.2926523349584,141.806856245234L214.44998581737863,120.35652589663147L214.84331952342924,150.53978368762617L215.07931974705957,136.2508178575333L215.62998693553038,125.97087616544042L215.7086536767405,153.83705211804667L216.25932086521135,130.01325963375297L216.4953210888417,123.19995334709344L216.73132131247206,123.4777502180208L216.88865479489232,138.66627657612156L217.20332175973277,134.015457378986L217.43932198336313,106.39396260995186L217.91132243062384,97.27735238438883L218.1473226542542,130.9828576345607L218.6193231015149,131.81973826808215L218.77665658393514,129.91923101209693L218.85532332514526,135.4724378735374L218.9339900663554,137.22070120594864L219.0126568075655,122.17732459090007L219.40599051361608,113.12413616360328L219.56332399603633,146.53933973268917L219.87799096087682,105.90324374418064L219.95665770208691,115.57075045098063L220.03532444329704,86.03183828773729L220.11399118450714,64.99129783342136L220.19265792571727,74.87549312348581L220.27132466692737,119.84670191103922L220.3499914081375,132.17928942357463L220.42865814934765,99.16728421903929L220.50732489055775,134.92804731775422L220.58599163176788,133.5811144205544L220.66465837297798,113.68756159979642L220.7433251141881,107.00489622783235L220.90065859660834,106.54687380793135L221.05799207902857,66.04459048252605" style="fill: none;" fill="none"></path></g></g></g></g></g></g><g transform="translate(64, 177)" clip-path="url(#clip_1)"><clipPath id="clip_1"><rect width="266" height="23"></rect></clipPath><g><g><line x1="8.080901376167862" y1="0" x2="8.080901376167862" y2="5" style="visibility: inherit;" fill="rgb(0, 0, 0)" stroke="rgb(204, 204, 204)" stroke-width="1px"></line><line x1="34.303148446207345" y1="0" x2="34.303148446207345" y2="5" style="visibility: inherit;" fill="rgb(0, 0, 0)" stroke="rgb(204, 204, 204)" stroke-width="1px"></line><line x1="60.52539551624684" y1="0" x2="60.52539551624684" y2="5" style="visibility: inherit;" fill="rgb(0, 0, 0)" stroke="rgb(204, 204, 204)" stroke-width="1px"></line><line x1="86.74764258628632" y1="0" x2="86.74764258628632" y2="5" style="visibility: inherit;" fill="rgb(0, 0, 0)" stroke="rgb(204, 204, 204)" stroke-width="1px"></line><line x1="112.96988965632582" y1="0" x2="112.96988965632582" y2="5" style="visibility: inherit;" fill="rgb(0, 0, 0)" stroke="rgb(204, 204, 204)" stroke-width="1px"></line><line x1="139.1921367263653" y1="0" x2="139.1921367263653" y2="5" style="visibility: inherit;" fill="rgb(0, 0, 0)" stroke="rgb(204, 204, 204)" stroke-width="1px"></line><line x1="165.4143837964048" y1="0" x2="165.4143837964048" y2="5" style="visibility: inherit;" fill="rgb(0, 0, 0)" stroke="rgb(204, 204, 204)" stroke-width="1px"></line><line x1="191.63663086644425" y1="0" x2="191.63663086644425" y2="5" style="visibility: inherit;" fill="rgb(0, 0, 0)" stroke="rgb(204, 204, 204)" stroke-width="1px"></line><line x1="217.85887793648376" y1="0" x2="217.85887793648376" y2="5" style="visibility: inherit;" fill="rgb(0, 0, 0)" stroke="rgb(204, 204, 204)" stroke-width="1px"></line><line x1="244.08112500652325" y1="0" x2="244.08112500652325" y2="5" style="visibility: inherit;" fill="rgb(0, 0, 0)" stroke="rgb(204, 204, 204)" stroke-width="1px"></line></g><g transform="translate(0, 8)"><text x="8.080901376167862" y="0" dx="0em" dy="0.95em" style="text-anchor: middle; visibility: hidden; font-family: &quot;Helvetica Neue&quot;, sans-serif; font-size: 12px; font-weight: 200;" fill="rgb(50, 49, 63)" stroke="none" stroke-width="1px">-100k</text><text x="34.303148446207345" y="0" dx="0em" dy="0.95em" style="text-anchor: middle; visibility: inherit; font-family: &quot;Helvetica Neue&quot;, sans-serif; font-size: 12px; font-weight: 200;" fill="rgb(50, 49, 63)" stroke="none" stroke-width="1px">0</text><text x="60.52539551624684" y="0" dx="0em" dy="0.95em" style="text-anchor: middle; visibility: hidden; font-family: &quot;Helvetica Neue&quot;, sans-serif; font-size: 12px; font-weight: 200;" fill="rgb(50, 49, 63)" stroke="none" stroke-width="1px">100k</text><text x="86.74764258628632" y="0" dx="0em" dy="0.95em" style="text-anchor: middle; visibility: inherit; font-family: &quot;Helvetica Neue&quot;, sans-serif; font-size: 12px; font-weight: 200;" fill="rgb(50, 49, 63)" stroke="none" stroke-width="1px">200k</text><text x="112.96988965632582" y="0" dx="0em" dy="0.95em" style="text-anchor: middle; visibility: hidden; font-family: &quot;Helvetica Neue&quot;, sans-serif; font-size: 12px; font-weight: 200;" fill="rgb(50, 49, 63)" stroke="none" stroke-width="1px">300k</text><text x="139.1921367263653" y="0" dx="0em" dy="0.95em" style="text-anchor: middle; visibility: inherit; font-family: &quot;Helvetica Neue&quot;, sans-serif; font-size: 12px; font-weight: 200;" fill="rgb(50, 49, 63)" stroke="none" stroke-width="1px">400k</text><text x="165.4143837964048" y="0" dx="0em" dy="0.95em" style="text-anchor: middle; visibility: hidden; font-family: &quot;Helvetica Neue&quot;, sans-serif; font-size: 12px; font-weight: 200;" fill="rgb(50, 49, 63)" stroke="none" stroke-width="1px">500k</text><text x="191.63663086644425" y="0" dx="0em" dy="0.95em" style="text-anchor: middle; visibility: inherit; font-family: &quot;Helvetica Neue&quot;, sans-serif; font-size: 12px; font-weight: 200;" fill="rgb(50, 49, 63)" stroke="none" stroke-width="1px">600k</text><text x="217.85887793648376" y="0" dx="0em" dy="0.95em" style="text-anchor: middle; visibility: hidden; font-family: &quot;Helvetica Neue&quot;, sans-serif; font-size: 12px; font-weight: 200;" fill="rgb(50, 49, 63)" stroke="none" stroke-width="1px">700k</text><text x="244.08112500652325" y="0" dx="0em" dy="0.95em" style="text-anchor: middle; visibility: inherit; font-family: &quot;Helvetica Neue&quot;, sans-serif; font-size: 12px; font-weight: 200;" fill="rgb(50, 49, 63)" stroke="none" stroke-width="1px">800k</text></g><line x1="0" y1="0" x2="266" y2="0" fill="rgb(0, 0, 0)" stroke="rgb(204, 204, 204)" stroke-width="1px"></line></g></g></g></g></svg>