<svg viewBox="0 0 330 200" xmlns="http://www.w3.org/2000/svg"><g><g><g><g><g><line x1="64" y1="172.4698586459641" x2="59" y2="172.4698586459641" style="visibility: inherit;" fill="rgb(0, 0, 0)" stroke="rgb(204, 204, 204)" stroke-width="1px"></line><line x1="64" y1="159.18304474057473" x2="59" y2="159.18304474057473" style="visibility: inherit;" fill="rgb(0, 0, 0)" stroke="rgb(204, 204, 204)" stroke-width="1px"></line><line x1="64" y1="145.89623083518535" x2="59" y2="145.89623083518535" style="visibility: inherit;" fill="rgb(0, 0, 0)" stroke="rgb(204, 204, 204)" stroke-width="1px"></line><line x1="64" y1="132.60941692979597" x2="59" y2="132.60941692979597" style="visibility: inherit;" fill="rgb(0, 0, 0)" stroke="rgb(204, 204, 204)" stroke-width="1px"></line><line x1="64" y1="119.32260302440658" x2="59" y2="119.32260302440658" style="visibility: inherit;" fill="rgb(0, 0, 0)" stroke="rgb(204, 204, 204)" stroke-width="1px"></line><line x1="64" y1="106.0357891190172" x2="59" y2="106.0357891190172" style="visibility: inherit;" fill="rgb(0, 0, 0)" stroke="rgb(204, 204, 204)" stroke-width="1px"></line><line x1="64" y1="92.74897521362782" x2="59" y2="92.74897521362782" style="visibility: inherit;" fill="rgb(0, 0, 0)" stroke="rgb(204, 204, 204)" stroke-width="1px"></line><line x1="64" y1="79.46216130823844" x2="59" y2="79.46216130823844" style="visibility: inherit;" fill="rgb(0, 0, 0)" stroke="rgb(204, 204, 204)" stroke-width="1px"></line><line x1="64" y1="66.17534740284904" x2="59" y2="66.17534740284904" style="visibility: inherit;" fill="rgb(0, 0, 0)" stroke="rgb(204, 204, 204)" stroke-width="1px"></line><line x1="64" y1="52.88853349745966" x2="59" y2="52.88853349745966" style="visibility: inherit;" fill="rgb(0, 0, 0)" stroke="rgb(204, 204, 204)" stroke-width="1px"></line><line x1="64" y1="39.60171959207025" x2="59" y2="39.60171959207025" style="visibility: inherit;" fill="rgb(0, 0, 0)" stroke="rgb(204, 204, 204)" stroke-width="1px"></line><line x1="64" y1="26.314905686680873" x2="59" y2="26.314905686680873" style="visibility: inherit;" fill="rgb(0, 0, 0)" stroke="rgb(204, 204, 204)" stroke-width="1px"></line><line x1="64" y1="13.028091781291522" x2="59" y2="13.028091781291522" style="visibility: inherit;" fill="rgb(0, 0, 0)" stroke="rgb(204, 204, 204)" stroke-width="1px"></line></g><g transform="translate(54, 0)"><text x="0" y="172.4698586459641" dx="0em" dy="0.3em" style="text-anchor: end; visibility: hidden; font-family: &quot;Helvetica Neue&quot;, sans-serif; font-size: 12px; font-weight: 200;" fill="rgb(50, 49, 63)" stroke="none" stroke-width="1px">100</text><text x="0" y="159.18304474057473" dx="0em" dy="0.3em" style="text-anchor: end; visibility: inherit; font-family: &quot;Helvetica Neue&quot;, sans-serif; font-size: 12px; font-weight: 200;" fill="rgb(50, 49, 63)" stroke="none" stroke-width="1px">200</text><text x="0" y="145.89623083518535" dx="0em" dy="0.3em" style="text-anchor: end; visibility: hidden; font-family: &quot;Helvetica Neue&quot;, sans-serif; font-size: 12px; font-weight: 200;" fill="rgb(50, 49, 63)" stroke="none" stroke-width="1px">300</text><text x="0" y="132.60941692979597" dx="0em" dy="0.3em" style="text-anchor: end; visibility: inherit; font-family: &quot;Helvetica Neue&quot;, sans-serif; font-size: 12px; font-weight: 200;" fill="rgb(50, 49, 63)" stroke="none" stroke-width="1px">400</text><text x="0" y="119.32260302440658" dx="0em" dy="0.3em" style="text-anchor: end; visibility: hidden; font-family: &quot;Helvetica Neue&quot;, sans-serif; font-size: 12px; font-weight: 200;" fill="rgb(50, 49, 63)" stroke="none" stroke-width="1px">500</text><text x="0" y="106.0357891190172" dx="0em" dy="0.3em" style="text-anchor: end; visibility: inherit; font-family: &quot;Helvetica Neue&quot;, sans-serif; font-size: 12px; font-weight: 200;" fill="rgb(50, 49, 63)" stroke="none" stroke-width="1px">600</text><text x="0" y="92.74897521362782" dx="0em" dy="0.3em" style="text-anchor: end; visibility: hidden; font-family: &quot;Helvetica Neue&quot;, sans-serif; font-size: 12px; font-weight: 200;" fill="rgb(50, 49, 63)" stroke="none" stroke-width="1px">700</text><text x="0" y="79.46216130823844" dx="0em" dy="0.3em" style="text-anchor: end; visibility: inherit; font-family: &quot;Helvetica Neue&quot;, sans-serif; font-size: 12px; font-weight: 200;" fill="rgb(50, 49, 63)" stroke="none" stroke-width="1px">800</text><text x="0" y="66.17534740284904" dx="0em" dy="0.3em" style="text-anchor: end; visibility: hidden; font-family: &quot;Helvetica Neue&quot;, sans-serif; font-size: 12px; font-weight: 200;" fill="rgb(50, 49, 63)" stroke="none" stroke-width="1px">900</text><text x="0" y="52.88853349745966" dx="0em" dy="0.3em" style="text-anchor: end; visibility: inherit; font-family: &quot;Helvetica Neue&quot;, sans-serif; font-size: 12px; font-weight: 200;" fill="rgb(50, 49, 63)" stroke="none" stroke-width="1px">1e+3</text><text x="0" y="39.60171959207025" dx="0em" dy="0.3em" style="text-anchor: end; visibility: hidden; font-family: &quot;Helvetica Neue&quot;, sans-serif; font-size: 12px; font-weight: 200;" fill="rgb(50, 49, 63)" stroke="none" stroke-width="1px">1.1e+3</text><text x="0" y="26.314905686680873" dx="0em" dy="0.3em" style="text-anchor: end; visibility: inherit; font-family: &quot;Helvetica Neue&quot;, sans-serif; font-size: 12px; font-weight: 200;" fill="rgb(50, 49, 63)" stroke="none" stroke-width="1px">1.2e+3</text><text x="0" y="13.028091781291522" dx="0em" dy="0.3em" style="text-anchor: end; visibility: hidden; font-family: &quot;Helvetica Neue&quot;, sans-serif; font-size: 12px; font-weight: 200;" fill="rgb(50, 49, 63)" stroke="none" stroke-width="1px">1.3e+3</text></g><line x1="64" y1="0" x2="64" y2="177" fill="rgb(0, 0, 0)" stroke="rgb(204, 204, 204)" stroke-width="1px"></line></g></g><g transform="translate(64, 0)" clip-path="url(#clip_0)"><clipPath id="clip_0"><rect width="266" height="177"></rect></clipPath><g><g><g><line x1="14.288572278127885" y1="0" x2="14.288572278127885" y2="177" fill="rgb(0, 0, 0)" stroke="rgb(60, 60, 60)" stroke-width="1px" opacity="0.25"></line><line x1="42.86563382267949" y1="0" x2="42.86563382267949" y2="177" fill="rgb(0, 0, 0)" stroke="rgb(60, 60, 60)" stroke-width="1px" opacity="0.25"></line><line x1="71.4426953672311" y1="0" x2="71.4426953672311" y2="177" fill="rgb(0, 0, 0)" stroke="rgb(60, 60, 60)" stroke-width="1px" opacity="0.25"></line><line x1="100.01975691178272" y1="0" x2="100.01975691178272" y2="177" fill="rgb(0, 0, 0)" stroke="rgb(60, 60, 60)" stroke-width="1px" opacity="0.25"></line><line x1="128.59681845633432" y1="0" x2="128.59681845633432" y2="177" fill="rgb(0, 0, 0)" stroke="rgb(60, 60, 60)" stroke-width="1px" opacity="0.25"></line><line x1="157.17388000088593" y1="0" x2="157.17388000088593" y2="177" fill="rgb(0, 0, 0)" stroke="rgb(60, 60, 60)" stroke-width="1px" opacity="0.25"></line><line x1="185.75094154543757" y1="0" x2="185.75094154543757" y2="177" fill="rgb(0, 0, 0)" stroke="rgb(60, 60, 60)" stroke-width="1px" opacity="0.25"></line><line x1="214.32800308998915" y1="0" x2="214.32800308998915" y2="177" fill="rgb(0, 0, 0)" stroke="rgb(60, 60, 60)" stroke-width="1px" opacity="0.25"></line><line x1="242.90506463454076" y1="0" x2="242.90506463454076" y2="177" fill="rgb(0, 0, 0)" stroke="rgb(60, 60, 60)" stroke-width="1px" opacity="0.25"></line></g><g><line x1="0" y1="172.4698586459641" x2="266" y2="172.4698586459641" fill="rgb(0, 0, 0)" stroke="rgb(60, 60, 60)" stroke-width="1px" opacity="0.25"></line><line x1="0" y1="159.18304474057473" x2="266" y2="159.18304474057473" fill="rgb(0, 0, 0)" stroke="rgb(60, 60, 60)" stroke-width="1px" opacity="0.25"></line><line x1="0" y1="145.89623083518535" x2="266" y2="145.89623083518535" fill="rgb(0, 0, 0)" stroke="rgb(60, 60, 60)" stroke-width="1px" opacity="0.25"></line><line x1="0" y1="132.60941692979597" x2="266" y2="132.60941692979597" fill="rgb(0, 0, 0)" stroke="rgb(60, 60, 60)" stroke-width="1px" opacity="0.25"></line><line x1="0" y1="119.32260302440658" x2="266" y2="119.32260302440658" fill="rgb(0, 0, 0)" stroke="rgb(60, 60, 60)" stroke-width="1px" opacity="0.25"></line><line x1="0" y1="106.0357891190172" x2="266" y2="106.0357891190172" fill="rgb(0, 0, 0)" stroke="rgb(60, 60, 60)" stroke-width="1px" opacity="0.25"></line><line x1="0" y1="92.74897521362782" x2="266" y2="92.74897521362782" fill="rgb(0, 0, 0)" stroke="rgb(60, 60, 60)" stroke-width="1px" opacity="0.25"></line><line x1="0" y1="79.46216130823844" x2="266" y2="79.46216130823844" fill="rgb(0, 0, 0)" stroke="rgb(60, 60, 60)" stroke-width="1px" opacity="0.25"></line><line x1="0" y1="66.17534740284904" x2="266" y2="66.17534740284904" fill="rgb(0, 0, 0)" stroke="rgb(60, 60, 60)" stroke-width="1px" opacity="0.25"></line><line x1="0" y1="52.88853349745966" x2="266" y2="52.88853349745966" fill="rgb(0, 0, 0)" stroke="rgb(60, 60, 60)" stroke-width="1px" opacity="0.25"></line><line x1="0" y1="39.60171959207025" x2="266" y2="39.60171959207025" fill="rgb(0, 0, 0)" stroke="rgb(60, 60, 60)" stroke-width="1px" opacity="0.25"></line><line x1="0" y1="26.314905686680873" x2="266" y2="26.314905686680873" fill="rgb(0, 0, 0)" stroke="rgb(60, 60, 60)" stroke-width="1px" opacity="0.25"></line><line x1="0" y1="13.028091781291522" x2="266" y2="13.028091781291522" fill="rgb(0, 0, 0)" stroke="rgb(60, 60, 60)" stroke-width="1px" opacity="0.25"></line></g></g></g><g><g><line x1="0" y1="185.7566725513535" x2="266" y2="185.7566725513535" fill="rgb(0, 0, 0)" stroke="rgb(153, 153, 153)" stroke-width="1.5px"></line></g></g><g><g><line x1="42.86563382267949" y1="0" x2="42.86563382267949" y2="177" fill="rgb(0, 0, 0)" stroke="rgb(153, 153, 153)" stroke-width="1.5px"></line></g></g><g><g><g><g><g><path stroke="rgb(255, 112, 67)" stroke-width="2px" d="M43.15140443812501,146.1381207532536L43.322866807392316,126.18653548860556L43.580060361293285,77.05486702240903L43.66579154592694,106.73639054257539L43.922985099827905,85.05310626908361L44.351641022996176,113.17847781963687L44.523103392263494,102.92046325009595L44.6945657615308,107.22051530213055L44.951759315431765,96.2298115473301L45.20895286933273,127.12246647076216L45.38041523860004,77.53005242713597L45.980533531035626,128.6189727575907L46.06626471566927,133.94816716970743L46.15199590030293,121.17230949313287L46.32345826957024,129.64253676747165L46.4091894542039,90.55941407540672L46.49492063883755,91.71109872520017L46.75211419273851,121.74607514134101L46.83784537737217,79.2165282296763L47.09503893127314,128.80300720874368L47.26650130054045,116.32645352944984L47.43796366980775,83.7620029880189L47.52369485444141,106.5669646994295L47.69515722370872,136.06554232627698L47.86661959297603,113.11371767986229L47.95235077760968,104.12375421925535L49.15258736248085,119.94605992131383L49.83843683955009,115.18852041801128L49.92416802418374,86.93906342648249L50.0098992088174,112.20906815629893L50.352823947352014,120.18630534314494L50.61001750125298,37.11817459334196L50.69574868588664,87.17230083656587L51.038673424421255,123.86224035499066L51.29586697832222,123.09497583296647L51.553060532223185,96.61044339019577L51.895985270757805,100.0413700614652L51.981716455391464,92.12785030167743L52.067447640025115,111.40994022930747L52.153178824658774,114.36688950139336L52.6675659324607,119.10534247910431L53.35341540952994,78.32039126327591L53.69634014806455,119.97144223617414L53.95353370196552,95.19145993158806L54.21072725586649,133.87425410260076L54.29645844050014,134.20636708093997L54.46792080976745,110.83347359369849L54.81084554830207,135.1368198638668L54.89657673293573,140.70539358488935L55.49669502537131,105.96460212890297L56.18254450244055,113.6799989828478L56.52546924097516,139.6338272685078L56.61120042560882,119.5442130756764L56.69693161024247,129.1080487716558L57.125587533410744,96.86923650288914L57.46851227194537,91.00262010661186L57.811437010479985,120.35177020145763L57.89716819511364,101.3870285504108L58.411555302915566,113.32867898168958L58.668748856816535,119.47752190793639L58.75448004145019,109.89875934107178L58.840211226083845,60.67459146402042L58.925942410717504,114.58595466871589L59.09740477998481,87.24812966160874L59.44032951851943,105.06555418281556L59.697523072420395,111.27892025339109L59.8689854416877,128.95253607922922L60.040447810955015,123.34196810805744L60.12617899558867,112.51769816075162L60.46910373412329,117.44901105599688L60.6405661033906,92.64517938371083L60.897759657291566,113.65833269223529L61.32641558045984,121.36161963391314L61.66934031899446,130.32803494934905L61.84080268826176,143.9052797654409L61.92653387289542,119.18131585098418L62.01226505752907,142.1217058892343L62.09799624216273,110.30474731499866L62.3551897960637,114.27540417282236L62.526652165331,92.41921229036106L63.04103927313293,137.44915508328668L63.12677045776659,106.83946492584846L63.21250164240024,48.9598055380626L63.4696951963012,95.61866422773964L63.55542638093486,102.74513841887187L63.64115756556852,51.79592969766813L63.898351119469474,124.4101859462746L64.0698134887368,120.44364785735257L65.1843188889743,120.6324806256631L65.35578125824162,41.820617259010476L65.52724362750892,124.98301956556398L66.38455547384547,119.86597427316524L66.55601784311278,146.38761645078543L66.64174902774644,100.86605416327588L66.7274802123801,126.58898528316232L66.8989425816474,115.677661753379L66.98467376628105,126.38038426569315L67.32759850481567,111.98930478940567L67.49906087408299,127.6610667728348L67.8419856126176,120.14182947745772L68.01344798188492,91.0741172555692L68.18491035115223,117.71463925714954L68.27064153578588,147.08056771258202L68.35637272041953,111.37034071811752L68.44210390505319,113.63176241211676L68.52783508968683,122.34668369474991L68.61356627432049,95.77385454304657L68.95649101285511,116.92789054177821L69.5566093052907,127.03424454161896L69.64234048992436,109.1095269925987L69.72807167455801,126.63036609094732L69.81380285919165,100.49502824916013L69.98526522845897,71.18100734466493L70.24245878235993,121.96822669138194L70.92830825942919,113.12425466708225L71.01403944406283,118.69376431133863L71.18550181333013,141.94413256394552L71.27123299796379,103.52153522917419L71.52842655186475,62.57166666359447L71.61415773649841,112.4477593373373L71.87135129039937,121.41741666393716L71.95708247503303,84.03125256945472L71.98565953657759,107.25073955109423L72.07139072121124,123.39752655726755L72.24285309047855,114.79599996994926L72.3285842751122,103.03274194735994L72.41431545974586,115.45398034985546L72.58577782901317,109.89300887304681L72.67150901364683,86.46451350475839L72.84297138291414,101.33620389413143L73.35735849071607,91.31541281326996L73.44308967534971,104.63192612365928L73.61455204461703,119.94148820480754L73.70028322925069,88.55517036337743L73.95747678315165,97.73838763965426L74.0432079677853,126.00537155826042L74.21467033705262,86.48179769517775L74.30040152168625,122.93961011312037L74.38613270631991,80.65326933721056L74.47186389095357,97.82512482386159L74.90051981412185,98.26139781791846L75.15771336802281,125.38564819009035L75.32917573729013,102.76919312187867L75.41490692192379,90.07984195035048L75.58636929119109,109.67514566392344L75.67210047582473,101.30049109200874L75.7578316604584,74.79521678661703L75.84356284509205,91.66096921199507L75.92929402972571,97.18145911509109L76.95806824532957,128.98098386925463L77.12953061459687,132.45026149183138L77.21526179923053,135.83638122486778L77.30099298386418,118.17942527912632L77.4724553531315,104.79796809635438L77.55818653776515,86.1888846739157L77.64391772239881,112.20692395491115L77.90111127629977,139.09592572770345L78.07257364556709,107.94279302038763L78.50122956873535,131.23225400403595L78.84415430726997,130.2575824264984L79.1870790458046,125.9196957657314L79.27281023043825,69.40927092590508L79.87292852287382,103.42897301879631L79.95865970750748,129.63279081286032L80.04439089214114,103.85264273750242L80.1301220767748,67.49245864875125L80.21585326140844,92.178468446692L80.38731563067576,85.86219246220456L80.55877799994308,64.28592096373337L80.81597155384404,130.7045601659577L80.9017027384777,126.16616007443712L81.07316510774498,101.25399097946944L81.33035866164596,115.74165464567882L81.58755221554692,102.647494979354L81.8447457694479,118.96443772009599L81.93047695408154,118.5578795541548L82.10193932334886,88.39782636113893L82.53059524651712,129.76288296300083L82.78778880041808,101.15037862003558L82.87351998505174,132.09082815641918L83.21644472358636,143.62499219305406L83.30217590822002,73.76918825757839L83.38790709285368,128.13300684841005L83.64510064675464,129.48554515655397L83.7308318313883,87.80327724478674L83.9022942006556,107.72643481314581L84.0737565699229,109.95795310887003L84.15948775455657,114.7547463622744L84.24521893919022,92.43716591660882L84.50241249309119,116.78435739494012L84.58814367772484,143.8075294675629L85.01679960089312,50.28404240267507L85.10253078552678,121.67760440438423L85.35972433942773,131.6602347373414L85.53118670869505,94.09840399896723L85.6169178933287,130.9219059380291L85.70264907796236,148.0051943116811L85.95984263186332,93.24286491014493L86.04557381649698,109.08313752026555L86.3884985550316,94.01330816574982L86.47422973966526,109.57235906958579L86.81715447819987,113.70933291912388L86.90288566283353,138.57561501862585L87.16007921673449,119.0411357923707L87.24581040136815,113.39889969098411L87.3315415860018,118.15750467660146L87.41727277063546,116.32950539624728L87.50300395526911,117.20829229950456L87.58873513990277,127.53289253386066L87.67446632453643,139.8521560896442L87.76019750917008,82.39966039392291L87.84592869380374,103.79154662501837L88.274584616972,144.565473201422L88.36031580160565,121.2263760347813L88.61750935550663,99.3020471220058L88.87470290940759,132.9034084638721L89.0461652786749,118.04698456791282L89.21762764794221,132.2949398563337L89.73201475574413,101.04331083658366L89.81774594037779,126.3262537859436L89.90347712501145,84.81359411465858L89.9892083096451,111.35092589633034L90.07493949427875,52.734860204554025L90.16067067891241,112.7653454815511L90.24640186354607,117.26168964713435L90.76078897134799,128.52407216362107L91.01798252524895,116.77464881074496L91.10371370988261,105.66146005124932L91.53236963305089,126.69344082164882L91.87529437158551,125.77662265780982L91.96102555621917,121.36242483722785L92.21821911012012,106.2770234533049L92.30395029475378,144.2583007137132L92.47541266402109,123.02037792128398L92.6468750332884,137.95339984127537L92.98979977182302,117.85433233975442L93.07553095645667,133.80338643375046L93.5899180642586,122.06889542750281L93.76138043352591,125.87195136871273L94.10430517206053,126.47589725940057L94.1900363566942,132.53507651405465L94.3614987259615,134.83643516811665L94.61869227986247,122.9652001906716L94.70442346449612,117.43340141554427L94.79015464912976,115.96838306901273L95.21881057229804,116.02830852716774L95.3045417569317,113.32972547370312L95.47600412619902,125.37707445811927L96.0761224186346,124.58533644856692L96.59050952643652,131.69928868913675L96.76197189570384,126.36422133862797L96.84770308033748,119.39540180501746L97.27635900350576,72.31582414084097L97.44782137277308,64.87869044777902L97.962208480575,102.37850112002232L98.21940203447596,121.68780552121545L98.39086440374328,104.46550537167937L98.56232677301058,124.7464439358065L98.64805795764424,100.94406255732828L98.90525151154522,114.41461816786514L99.24817625007982,111.856891896891L99.33390743471348,93.54267628494183L99.59110098861444,122.99695366271521L99.6768321732481,136.115153220084L99.76256335788176,130.48096838697006L100.01975691178272,114.65818188423351L100.10548809641638,111.54128948070861L100.19121928105002,131.5344350153602L100.27695046568367,92.05961358634036L100.44841283495099,116.4289166507788L100.96279994275292,126.49365130046162L101.04853112738657,139.98344463038922L101.30572468128754,97.58248196302316L101.47718705055485,92.02436417955325L101.73438060445581,125.5202947850826L101.90584297372311,81.44808320575575L101.99157415835677,140.43667503859876L102.33449889689139,142.73217959696402L102.42023008152505,115.50235200683497L102.5059612661587,97.95541486108719L102.76315482005967,101.02801982154857L102.84888600469333,113.88785370063586L103.19181074322793,69.79467658875241L103.27754192786159,105.2144919591723L103.62046666639621,89.97315287037144L103.70619785102987,116.24171784061515L104.13485377419815,98.80765677599591L104.30631614346547,142.33270073356834L104.64924088200007,102.59104697005512L104.82070325126739,76.95406338702149L104.90643443590103,143.66219166849686L104.99216562053469,89.73126008145867L105.07789680516835,96.50890645730219L105.33509035906931,134.39677647382817L105.67801509760395,115.56768414655447L105.9352086515049,129.74019519569765L106.02093983613855,109.65323346679692L106.36386457467317,119.5647781523262L106.53532694394049,133.08149514189705L106.62105812857413,124.12671107845387L106.87825168247511,129.11133469951682L107.22117642100972,109.1904186660236L107.56410115954434,127.50208964807969L107.649832344178,124.76735807032199L107.82129471344531,133.46394536975416L107.99275708271261,99.5647512813901L108.16421945197993,130.2380519408875L108.50714419051454,72.498726353314L108.5928753751482,144.67206557448068L108.93580011368282,131.8960234555496L109.27872485221744,97.13344930825794L109.53591840611841,117.82274218854323L110.3074990678213,100.31518036037765L110.4789614370886,113.03927603000321L110.65042380635592,105.01379356574145L111.16481091415785,90.49907846258546L111.25054209879148,116.70071763596754L111.67919802195976,58.88834197358315L111.76492920659342,67.37072060764048L112.1935851297617,101.5184509911235L112.27931631439536,125.29591334017039L112.62224105292997,124.7909342234882L112.96516579146459,145.48356768149156L113.22235934536556,86.76203701066787L113.30809052999922,136.1368350707418L113.39382171463286,86.64890615494515L113.65101526853384,132.69895486444875L113.7367464531675,92.1313942048995L113.9082088224348,109.34170094158752L114.16540237633576,154.77494003915015L114.33686474560307,142.62476824935106L114.42259593023672,139.45068490640656L115.02271422267232,119.8877395606753L115.47994720738514,110.90066366247835L115.5656783920188,137.64386575006904L115.65140957665245,90.15820914509423L115.9086031305534,83.32719465036757L115.99433431518706,134.25003073327193L116.16579668445438,109.55818346015343L116.33725905372168,100.69636155485937L116.42299023835534,66.49574475733654L116.6801837922563,108.94263905625074L116.76591497688996,116.34622366524533L116.93737734615728,121.98190615344808L117.02310853079094,134.60277037023212L117.19457090005822,111.37381529306471L117.36603326932554,144.00640490979364L117.4517644539592,114.631389842897L117.6232268232265,123.78971205300367L117.70895800786016,138.3043131958678L117.88042037712748,76.65567899489149L118.2233451156621,122.6465511172876L118.48053866956306,33.2492124861223L118.5662698541967,132.8852213441608L118.73773222346402,107.5250995071415L118.99492577736498,113.24457801319565L119.08065696199864,137.1096533737706L119.25211933126594,96.77769234633803L119.59504406980058,88.77757784499279L119.85223762370154,82.49782260326879L119.9379688083352,104.85855148338797L120.02369999296883,116.570840693447L120.10943117760249,107.91363102053816L120.53808710077077,136.61391865245463L121.0524742085727,108.72558392463942L121.13820539320636,109.61550971638327L121.65259250100829,122.91965436390475L121.82405487027559,117.8980781157303L122.25271079344387,133.39291903891456L122.50990434734484,146.82392819589685L122.59563553197849,137.68604407315118L122.68136671661213,130.90417760200688L122.85282908587945,104.7213829440991L123.19575382441407,114.90666070125135L123.36721619368139,109.6180012641015L123.53867856294869,135.9022441485397L123.88160330148331,145.13636902000417L124.56745277855255,153.19065934928392L124.99610870172083,120.63111522491526L125.16757107098813,77.64888284981156L125.4247646248891,125.48300625433532L125.51049580952275,125.87358123923464L125.76768936342371,109.30882932821284L126.19634528659199,130.73152278312483L126.36780765585931,88.04465354052157L126.45353884049295,132.3850538172408L126.62500120976027,149.74243007841693L126.79646357902757,90.35599976391183L126.96792594829488,118.97661729557097L127.05365713292854,132.54208130486555L127.1393883175622,117.24933165052272L127.56804424073047,112.53436602838555L127.65377542536413,97.34858496291149L127.91096897926509,105.46018494969846L127.99670016389875,116.62069134561591L128.59681845633432,110.97756884154118L128.76828082560164,96.69471853740733L128.8540120102353,109.96057074851903L128.93974319486895,113.28942857400281L129.02547437950258,145.68201628485235L129.1969367487699,115.28395795908884L129.36839911803722,144.7045550933374L129.45413030267088,130.9220334814697L129.9685174104728,105.69968306042091L130.48290451827472,144.27290646695565L130.65436688754204,125.45859641842597L131.16875399534396,135.3817825626054L131.25448517997762,131.08345373276063L131.42594754924494,94.11598178089665L131.59740991851223,138.62412945993395L131.68314110314589,107.27464786639652L131.94033465704686,142.1527632460162L132.02606584168052,141.8426411109688L132.2832593955815,131.6822956717903L132.36899058021513,88.20187392473761L132.79764650338342,114.73705622355386L132.88337768801708,97.86921875826758L132.9691088726507,105.33507023219381L133.05484005728437,111.05107137541344L133.22630242655168,149.81952000000015L133.397764795819,112.46817816770873L133.48349598045266,115.45818522388339L133.65495834971998,123.19225950207014L133.8264207189873,114.67554139640886L133.91215190362092,114.23334421269328L133.99788308825458,127.35972716299415L134.3408078267892,120.94739454129122L134.4551160729674,115.1291432721346L134.5408472576011,133.06464312568065L134.62657844223472,125.2968459752939L134.71230962686838,94.40347509135127L135.14096555003664,106.98524419990912L135.59819853474946,108.15264443486684L135.68392971938312,141.72931849537213L135.76966090401677,136.29168255811024L135.85539208865043,93.95010627224384L136.11258564255138,144.10731648648485L136.71270393498696,115.06543612502648L136.96989748888794,143.21166684902394L137.14135985815525,128.12200643708255L137.3985534120562,114.16781430807103L137.57001578132352,92.46866105408293L137.91294051985815,108.42629870663639L138.08440288912547,119.79961650986196L138.34159644302642,148.46202844967658L138.42732762766008,113.62752322314472L138.5987899969274,72.82169324007053L138.68452118156102,129.63717478622925L139.28463947399663,133.32128210675415L139.3703706586303,129.0582092395121L139.54183302789758,107.66401156994286L139.88475776643222,135.72402696516747L140.14195132033316,137.41461815035177L140.22768250496685,129.33490811885588L140.39914487423414,85.86325247643016L140.74206961276874,126.93149655999537L140.8278007974024,106.41244484124805L141.08499435130338,132.92552315990258L141.25645672057067,132.80683471112292L141.34218790520436,90.52161942332006L141.42791908983799,134.31004589783052L141.51365027447167,107.93469193916266L141.68511264373896,75.77655131576404L141.94230619763994,132.72350902858702L142.28523093617454,120.08296951632245L142.5424244900755,112.04283856549507L142.62815567470918,125.92949680526596L142.7138868593428,102.60807245333021L142.7996180439765,137.46874259811187L142.88534922861012,107.97710486108546L143.05681159787744,150.75420729679323L143.1425427825111,110.71101493072891L143.31400515177842,135.368409170269L143.4854675210457,97.95354314459202L143.8283922595803,125.2285604794956L144.42851055201592,139.5863724384235L144.8571664751842,113.56717367809958L145.0286288444515,124.53887142052096L145.28582239835245,97.45898814599258L145.45728476761977,125.11345049123506L145.54301595225343,105.49186687691828L145.71447832152074,118.89801164765663L145.88594069078806,106.6816426967874L146.143134244689,147.42679855273738L146.2288654293227,68.47338271404286L146.48605898322364,126.98045766093797L146.57179016785727,128.27377305453243L146.9147149063919,113.24000634283439L147.17190846029288,116.63062084154885L147.42910201419383,141.98987079677494L147.94348912199578,110.73336179306071L148.11495149126307,96.83293075754406L148.4578762297977,149.36311352461095L148.62933859906502,119.42467240877532L148.80080096833234,135.78575209873875L148.9722633375996,142.42742308933916L149.0579945222333,115.71976287851L149.4009192607679,109.1862227244781L149.48665044540155,111.6181444788543L149.5723816300352,76.23239195291788L149.65811281466887,129.81147783916026L149.74384399930253,149.00729143885962L150.08676873783716,126.82588975915183L150.25823110710445,128.13378688350863L150.3439622917381,161.57253643495105L150.60115584563906,114.18649407086072L150.68688703027271,115.69707150908133L150.9440805841737,100.97382743407951L151.11554295344098,101.14660095293885L151.20127413807467,126.31119933866529L151.54419887660927,100.76627458482088L151.71566124587656,136.60318675187352L151.88712361514388,143.95720272575346L152.14431716904485,142.91458866139493L152.2300483536785,136.9326445296618L152.31577953831217,100.58799293974084L152.4872419075795,109.6585245392593L152.6587042768468,86.15729344664338L152.8301666461141,87.85514541561088L153.68747849245062,98.8365508740184L154.11613441561892,131.91221743725782L154.20186560025257,147.4276618803602L154.54479033878718,131.7458088952404L154.7162527080545,146.59190941031932L154.80198389268813,145.82318823127613L154.97344626195544,147.522512808157L155.05917744658913,133.60701868722765L155.14490863122276,142.76311395013352L155.31637100049008,133.29894131920392L155.40210218512374,145.47188229007224L155.65929573902469,146.30090546564188L155.830758108292,89.04827918433595L155.91648929292566,122.0472266146631L156.00222047755932,135.3617933249729L156.17368284682664,136.46098114752812L156.34514521609395,127.82964900473243L156.6023387699949,131.22657073682407L156.68806995462856,147.04303401170162L156.9452635085295,146.6643915919759L157.0309946931632,158.93226572485946L157.20245706243048,131.46057713323026L157.37391943169777,140.930213939701L157.80257535486606,145.60461838134609L157.97403772413338,122.65534866407731L158.1455000934007,108.57299574445697L158.31696246266802,116.31632305473389L158.48842483193533,105.91676336376158L158.57415601656896,137.85816453492947L159.0885431243709,110.29230154416744L159.51719904753915,150.4552836771633L159.60293023217284,134.9810216318248L159.77439260144016,133.61278113375855L159.86012378607379,127.67725072773075L160.20304852460842,147.49561014933496L160.28877970924205,145.04241762698172L160.46024207850937,123.85308789499186L160.71743563241034,147.50577097011893L161.06036037094498,141.66067001750417L161.1460915555786,147.8047370749894L161.23182274021224,119.29299063757394L161.83194103264785,133.79934542632316L161.9176722172815,87.93569627676466L162.60352169435075,137.0820592546063L162.77498406361806,116.08958087039342L162.8607152482517,118.83707073113354L163.032177617519,133.1290878951415L163.14648586369722,147.53382645994242L163.40367941759817,102.180429267172L163.48941060223186,105.09486066973034L163.5751417868655,123.44402506689909L163.66087297149915,146.00844404787546L163.83233534076646,145.10487801680435L163.91806652540012,120.80049663506591L164.0895288946674,142.84759778267605L164.3467224485684,125.29043466500733L164.77537837173668,116.14308584842738L165.20403429490494,128.2349157242901L165.2897654795386,64.88688382443138L165.46122784880592,131.5254385414527L165.63269021807324,144.38806797444914L165.9756149566078,154.0298341572823L166.0613461412415,155.92160007671424L166.2328085105088,134.5212589769709L166.31853969514245,153.05787580854818L166.4042708797761,146.22487487011796L167.09012035684535,131.3242519440933L167.26158272611264,139.19937846256965L167.43304509537995,138.78596564400556L167.60450746464727,145.23153706513716L167.7759698339146,136.31655382138723L167.94743220318188,121.66002266485813L168.03316338781556,139.7542949384743L168.20462575708288,130.8949337334321L168.46181931098383,139.85536551464511L168.63328168025114,128.14369892354694L168.71901286488477,155.29839759731956L169.14766878805307,107.22586138720345L169.2333999726867,125.35705774263235L169.31913115732038,108.01006558450787L169.74778708048865,139.3779174131856L169.8335182651223,112.73538410526847L170.09071181902326,124.33284663768627L170.1764430036569,90.70929265644831L170.86229248072615,128.5680749745288L170.9480236653598,130.8124121449526L171.37667958852808,138.33205394092937L171.63387314242905,144.57933759407905L171.89106669633003,124.75207890086989L171.97679788096366,149.48150852166674L172.14826025023098,154.64666093585382L172.40545380413195,91.02144471691804L172.4911849887656,145.97183399218156L172.57691617339927,120.9235202262943L172.74837854266656,98.28853984210656L173.34849683510217,118.83064889045144L173.4342280197358,133.2527140224636L173.60569038900312,145.2227463108518L173.77715275827043,130.47068751212313L174.12007749680504,118.50274702769892L174.37727105070599,108.17730073143493L174.5487334199733,110.26102410125611L174.63446460460696,144.95237832330642L174.72019578924062,97.12702917556707L174.80592697387428,145.24729899342384L174.9773893431416,75.26674340399481L175.06312052777523,146.460918569182L175.40604526630986,141.09773497068804L175.57750763557718,130.87796482511936L175.6632388202108,141.15971844971946L176.00616355874544,121.14567324029633L176.17762592801276,122.17863969112696L176.43481948191373,141.5333510492867L176.7777442204483,152.28289340786108L177.29213132825026,129.2646835965362L177.37786251288392,131.83121193932027L177.46359369751758,114.73910228357224L177.63505606678487,50.95888375083817L177.72078725141856,153.12544608049114L177.89224962068587,138.42924450029219L177.9779808053195,145.76207416455406L178.06371198995316,126.18371049779785L178.23517435922045,120.51879415615163L178.57809909775509,141.39992611034756L178.7495614670224,143.7221482727747L178.9210238362897,114.66918663795103L179.1782173901907,116.9434611976293L179.34967975945798,100.46047082605135L179.52114212872527,133.8794253577703L179.6926044979926,123.2218544218881L179.77833568262625,97.2810736630828L179.8640668672599,107.88444258704554L180.12126042116088,114.32058664423386L180.2927227904282,111.04803319993913L180.54991634432915,124.35318239814642L180.6356475289628,112.91228715849485L180.80710989823012,147.21015791903852L180.89284108286378,92.58609544263963L180.9785722674974,141.12649213160546L181.06430345213107,137.31120822199355L181.2357658213984,145.28440642354397L181.32149700603205,129.6619925013171L181.4072281906657,100.77808948110383L181.49295937529934,101.8449530446138L181.57869055993302,134.97574056662285L181.75015292920034,150.95245340351622L181.83588411383397,154.21664507779812L182.0073464831013,136.7504993932835L182.26454003700223,155.00619962254603L182.5217335909032,137.04613103635506L182.69319596017053,155.37881039776107L182.86465832943784,144.75930473630217L183.03612069870516,150.0854674642476L183.1218518833388,151.93406632192352L183.20758306797245,112.58901415877445L183.46477662187343,133.01940062775367L183.63623899114071,114.08637081709655L183.8934325450417,117.29097020260608L184.15062609894267,97.72407804989174L184.32208846820998,133.41191984703408L184.4078196528436,123.78717135810643L184.49355083747727,153.39324695539784L184.92220676064554,127.99106574646699L185.00793794527922,139.80177052609392L185.52232505308112,135.94517036044613L185.7795186069821,135.70822528476003L185.86524979161575,128.88361025355056L185.9509809762494,141.77061563323315L186.03671216088307,111.56086715694768L186.37963689941768,145.01787633688338L186.63683045331862,127.09184864525662L186.80829282258594,137.88701226853448L186.97975519185326,150.9304022349804L187.23694874575423,146.37771227027395L187.6656046689225,136.0869218525154L187.83706703818982,138.70274728098852L187.92279822282345,134.40482192191857L188.00852940745713,141.92811259511035L188.78011006916,159.1570917650996L189.4945366077738,156.0297126675698L189.6659989770411,118.14833750926029L189.75173016167477,142.53705735174339L189.83746134630843,166.29821873132093L190.694773192645,135.8996760261987L190.78050437727862,139.49908402934443L190.8662355619123,121.28132544198857L191.12342911581325,145.41516008106228L191.20916030044688,158.25621143649525L191.29489148508057,147.13323506681255L191.3806226697142,125.91096585609708L191.4663538543479,144.01009205907735L191.55208503898152,154.9945020416306L191.63781622361518,148.34270902466605L191.72354740824883,157.92324236945407L191.8092785928825,141.04642655069722L191.89500977751615,138.33173267748805L192.15220333141713,134.98298849574397L192.32366570068444,131.41510737661764L192.7523216238527,119.91831827842684L192.83805280848634,141.7429345765022L193.00951517775366,148.44588928554785L193.26670873165463,145.24957294346495L193.35243991628826,139.6670464382569L193.43817110092195,127.27057203289354L193.52390228555558,149.42442645737017L193.6953646548229,149.29426453268806L193.95255820872384,137.5366738168633L194.03828939335753,123.16940103180903L194.29548294725848,165.62630337555365L194.38121413189214,151.13240084691546L194.4669453165258,136.5806134549398L194.55267650115945,149.66958350702575L194.8098700550604,139.78471281421758L195.06706360896135,148.40876037407293L195.23852597822867,143.77097343392612L195.32425716286232,142.82390547603808L195.5814507167633,122.65397679960356L195.66718190139696,92.56705157294982L195.7529130860306,132.58801185539875L195.83864427066428,138.9460610314356L196.0101066399316,141.13417337652294L196.18156900919888,144.35850163903046L196.26730019383254,114.6224976418484L196.61022493236715,128.6765625718549L196.95314967090178,138.36600123528694L197.1246120401691,165.61050631105147L197.4675367787037,161.8813161039004L197.63899914797102,119.26661196639441L197.72473033260468,148.91081424157818L197.89619270187197,116.7432109717299L198.06765507113928,135.1463660659305L198.15338625577294,136.27174554330136L198.41057980967392,117.83950796012502L198.58204217894124,146.95878658159006L198.66777336357487,148.26626147620337L198.92496691747584,124.72891925155545L199.52508520991142,125.78253407537068L199.86800994844606,145.2987840824615L200.38239705624798,157.37966154717162L200.4681282408816,126.39925054204458L200.55385942551527,133.29147486723062L200.63959061014893,126.59577442159998L200.7253217947826,113.7556179479476L201.2397089025845,140.564331997323L201.41117127185183,138.9340826620101L201.83982719502012,156.10807064467582L201.92555837965375,133.29826310712167L202.0112895642874,117.82884963590566L202.26848311818839,139.63353377432762L202.35421430282202,152.86990442267594L202.7828702259903,155.15503456479965L203.3829885184259,158.52363459605712L203.5544508876932,128.66889499261782L203.72591325696052,166.06490998033274L203.81164444159415,137.97615154525053L204.24030036476245,136.1680345499493L204.32603154939608,121.56379514116927L204.41176273402976,121.1901105227622L204.4974939186634,127.84506624587874L204.75468747256434,132.49840120201185L204.92614984183166,151.86969507868773L205.2690745803663,125.28103074297093L205.35480576499995,124.432157582967L205.6119993189009,113.7569535754458L205.6977305035346,144.392946918438L205.78346168816822,138.37974374456581L205.95492405743553,153.385375338775L206.12638642670285,144.7889149203362L206.21211761133648,143.17714235886845L206.55504234987112,144.49438638386835L206.72650471913843,121.35136343709726L206.9836982730394,117.68529694573485L207.06942945767304,142.76085993260392L207.4980853808413,138.48873772347295L207.66954775010862,122.35794215943551L208.0982036732769,146.25880981866985L208.26966604254423,147.49085364745838L208.35539722717786,136.0529871527635L208.44112841181155,131.8208298559182L208.52685959644518,145.26286489754867L208.6983219657125,113.689569733928L208.78405315034612,141.36868613207355L208.8697843349798,139.56200810017825L208.95551551961344,144.20065349619912L209.0412467042471,149.9838338120068L209.72709618131637,150.29276007511942L209.89855855058366,140.36878222077337L209.98428973521732,158.2758278000549L210.07002091985098,143.0680719319929L210.24148328911826,124.80574496720448L210.9273327661875,139.21656916995818L211.18452632008848,111.68999362024061L211.3559886893558,99.5503305864737L211.87037579715772,158.2163428802106L212.1275693510587,149.42532652215087L212.299031720326,159.31126177380273L212.64195645886062,141.78616869251618L212.81341882812794,140.25650391106137L213.15634356666254,109.29001713137373L213.2420747512962,128.95913547900912L213.41353712056352,107.20274794183631L213.67073067446447,128.72004181393595L214.09938659763276,144.5109022378124L214.27084896690008,152.02970076880433L214.44231133616736,125.89717695674739L214.52804252080102,128.10923449710043L214.69950489006834,148.7198256944588L214.78523607470197,159.44188175432868L215.21389199787026,148.41100317922928L215.2996231825039,145.5199076714806L215.38535436713758,161.4315952144045L215.98547265957316,140.39552012179422L216.41412858274143,151.43359251510165L216.75705332127603,119.99237687767754L217.01424687517698,142.30930649522526L217.27144042907798,103.63459860791781L217.3571716137116,104.6781136176818L217.9001357830581,117.32308346712377L217.98586696769178,141.9672950529386L218.24306052159272,121.43637705746016L218.32879170622638,140.66545841083644L218.5002540754937,118.26884561412282L219.70049066036486,124.37358982888978L219.78622184499852,132.10512741283065L219.87195302963215,115.64797753591887L219.95768421426584,136.78542006480373L220.12914658353316,152.80183232565068L220.3863401374341,125.01888536642208L220.64353369133505,129.11837010163424L220.98645842986969,111.1291703060167L221.07218961450334,89.74506248974623L221.15792079913697,139.97162172639008L221.3293831684043,142.81651421164224L221.5008455376716,153.80506645812648L221.67230790693893,113.18487014411326L221.92950146083987,133.608715172591L222.2724261993745,127.42377752963151L222.6153509379091,141.621206886707L222.95827567644375,107.68766704942243L223.04400686107738,104.82996436759123L223.2154692303447,42.1246940567128L223.55839396887933,149.74867850840678L223.72985633814662,124.13595818441178L224.1585122613149,89.1502159245675L224.58716818448318,137.68760436737205L224.67289936911683,144.06973260854136L224.84436173838415,131.8619095236643L224.9300929230178,93.64385872440944L225.18728647691876,121.66009095396245L225.44448003081973,137.33413522917277L225.7016735847207,122.29176578830197L225.95886713862166,141.85356946581973L226.13032950788897,110.18668728859805L226.21606069252263,141.86365534965344L226.30179187715626,131.263850622219L226.38752306178995,147.90964294775816L226.47325424642358,141.04358182725804L226.98764135422553,119.2340208672791L227.15910372349282,144.92101977908715L227.24483490812648,129.24920855850738L227.33056609276014,130.77674533821673L227.4162972773938,127.61576493462823L227.8449532005621,143.8035651822323L227.93068438519572,143.38130950171802L228.01641556982938,142.7761508016002L228.1878779390967,140.66571204106668L228.359340308364,143.83692774902778L228.44507149299764,140.07083485949008L228.5308026776313,149.50771308312756L228.61653386226496,122.46352541119373L228.70226504689862,142.12418068269182L228.78799623153228,136.86684862843725L229.21665215470054,157.2420564062453L229.3023833393342,129.14073260149516L229.38811452396786,151.08466190516432L229.90250163176978,109.703787091399L229.98823281640344,152.2059290790451L230.24542637030441,136.54452441833L230.41688873957173,121.89084636544537L230.50261992420536,135.87975742904516L230.58835110883902,120.58620936809129L230.84554466274,142.9293809728718L231.35993177054192,140.49307763824567L231.70285650907655,161.20010210899147L231.87431887834384,149.92566028457333L232.04578124761116,138.5694805510417L232.3029748015121,125.22842136231063L232.5601683554131,159.31350843763005L232.64589954004674,158.80848460173155L232.73163072468037,143.8280430295153L232.81736190931406,147.5325216612227L232.98882427858138,146.28820184033958L233.074555463215,153.98049537114434L233.70325081719517,160.83353169518116L233.7889820018288,152.9757228256808L233.87471318646246,132.89342248350212L233.96044437109612,152.1971445774946L234.04617555572977,145.76297960824314L234.13190674036343,152.21265064192514L234.2176379249971,140.7118403405308L234.30336910963072,108.40519122061788L234.38910029426438,136.3307546258608L234.47483147889804,136.3827448740103L234.56056266353167,135.9436910681184L234.64629384816536,133.19018044421722L234.81775621743267,126.95847345262695L234.9034874020663,107.60273270905398L234.98921858669996,135.817547584669L235.07494977133362,138.09327716105508L235.16068095596728,131.24191364911735L235.24641214060094,143.45574693889168L235.41787450986823,150.83828869628292L235.5036056945019,154.75870711153942L235.58933687913554,148.99418055870555L235.67506806376923,138.2373470307054L235.76079924840286,129.17937458198872L235.8465304330365,124.69222094830435L235.93226161767018,137.09597021153746L236.0179928023038,141.2049690056306L236.1037239869375,137.3847555909082L236.18945517157113,137.79932071421015L236.27518635620478,106.55989394827398L236.36091754083844,145.86848152852164L236.4466487254721,129.90794252021726L236.53237991010576,137.86844215390636L236.61811109473942,136.60595180530353L236.70384227937305,134.22804708787237L236.78957346400674,150.72380740941105L236.87530464864037,141.84634266484522L236.96103583327405,137.6910672095522L237.04676701790768,138.75253229354786L237.1324982025413,151.16257495247973L237.218229387175,142.8811765525719L237.30396057180863,159.13333267565915L237.38969175644232,134.73845541133363L237.47542294107595,158.33804777275896L237.5611541257096,145.9575672581067L237.64688531034327,136.38578013756594L237.73261649497692,146.77665309546558L237.81834767961058,106.9975478366145L237.90407886424424,138.84689730877085L237.98981004887787,158.87613606259262L238.07554123351156,110.53200324178968L238.41846597204614,116.47831630837617L238.50419715667982,133.0931496007134L238.76139071058077,140.19213641026388L239.01858426448175,148.7621996172201L239.19004663374906,130.22670829134776L239.61870255691733,156.01699238737845L239.87589611081827,144.57338646566154L240.47601440325388,134.99057975781133L240.56174558788751,159.13985753688317L241.1618638803231,139.2118211869958L241.41905743422407,132.30510313424332L241.67625098812505,132.23934295219664L241.84771335739234,145.6340467302535L242.19063809592697,142.13436246547883L242.44783164982795,117.61220367192112L242.96221875762987,108.46702634609662L243.21941231153085,137.7868174907266L243.73379941933277,139.8444129992343L243.9052617886001,138.26058437829025L243.99099297323372,143.08774609693745L244.07672415786737,144.8470957924754L244.16245534250103,131.65663883009103L244.5911112656693,123.0773318865561L244.76257363493662,152.16651468708477L245.10549837347125,117.63079180804651L245.1912295581049,124.60430530776281L245.27696074273854,98.86210371339565L245.3626919273722,79.14403246482108L245.44842311200586,86.97547934531894L245.5341542966395,126.99659471028454L245.61988548127317,139.6760098262033L245.7056166659068,111.12698955748003L245.7913478505405,141.38653229938137L245.87707903517412,141.5600942848859L245.9628102198078,124.0199799100672L246.04854140444144,117.33595552628776L246.22000377370875,116.63115695705886L246.39146614297607,80.87273986732286" style="fill: none;" fill="none"></path></g></g></g></g><g opacity="0.2"><g><g><g><path stroke="rgb(255, 112, 67)" stroke-width="2px" d="M43.15140443812501,146.1381207532536L43.322866807392316,125.28871415169638L43.580060361293285,74.74445031278614L43.66579154592694,108.13486891494199L43.922985099827905,84.03138502182568L44.351641022996176,114.50375686280799L44.523103392263494,102.4371013110423L44.6945657615308,107.42313555581565L44.951759315431765,95.71192498297648L45.20895286933273,128.57814131008507L45.38041523860004,75.19323710570865L45.980533531035626,131.02630408206238L46.06626471566927,134.19928104252966L46.15199590030293,120.5703057282681L46.32345826957024,130.04165742437766L46.4091894542039,88.71780096426228L46.49492063883755,91.76536658827943L46.75211419273851,123.16133581016439L46.83784537737217,77.21251816577588L47.09503893127314,131.1395428674432L47.26650130054045,115.73855309429987L47.43796366980775,82.22755243894625L47.52369485444141,107.64154404708759L47.69515722370872,137.45552765947923L47.86661959297603,112.03221808919353L47.95235077760968,103.70014337556181L49.15258736248085,120.69161359313857L49.83843683955009,114.96434316392894L49.92416802418374,85.60793718080835L50.0098992088174,113.39980136346304L50.352823947352014,120.5621961006403L50.61001750125298,33.20396947947694L50.69574868588664,89.53087223022563L51.038673424421255,125.59108567261276L51.29586697832222,123.05882200732134L51.553060532223185,95.36248112849454L51.895985270757805,100.20303676325275L51.981716455391464,91.75496193603297L52.067447640025115,112.31852038296543L52.153178824658774,114.50622218960683L52.6675659324607,119.32862036810641L53.35341540952994,76.39858727928399L53.69634014806455,121.93405720348348L53.95353370196552,94.02381678634578L54.21072725586649,135.69700356615633L54.29645844050014,134.22201638358422L54.46792080976745,109.73213306288606L54.81084554830207,136.2820037195292L54.89657673293573,140.96778711101084L55.49669502537131,104.32760148438004L56.18254450244055,114.04355171418553L56.52546924097516,140.8567825280415L56.61120042560882,118.59758204041208L56.69693161024247,129.5587007154454L57.125587533410744,95.35013016561739L57.46851227194537,90.72618268479775L57.811437010479985,121.7347144467645L57.89716819511364,100.49340198046619L58.411555302915566,113.89137455174983L58.668748856816535,119.76725796205272L58.75448004145019,109.44740403687398L58.840211226083845,58.35512805620124L58.925942410717504,117.12628068359683L59.09740477998481,85.95995989687594L59.44032951851943,105.90511868905043L59.697523072420395,111.5716966650936L59.8689854416877,129.7853242595043L60.040447810955015,123.0775957952797L60.12617899558867,112.00765402710893L60.46910373412329,117.68137658509218L60.6405661033906,91.47641244627326L60.897759657291566,114.64848127745373L61.32641558045984,121.72460174111262L61.66934031899446,130.750536194579L61.84080268826176,144.54504522797924L61.92653387289542,118.016312315748L62.01226505752907,143.20266667637696L62.09799624216273,108.80551890050587L62.3551897960637,114.46250318706535L62.526652165331,91.38933937443356L63.04103927313293,139.57098484839835L63.12677045776659,105.39712350481734L63.21250164240024,46.23249174492085L63.4696951963012,97.81724919217469L63.55542638093486,103.08094086766869L63.64115756556852,49.39518164274227L63.898351119469474,127.8318001150571L64.0698134887368,120.25674292122537L65.1843188889743,120.64137850479815L65.35578125824162,38.106969246969214L65.52724362750892,128.90166679466859L66.38455547384547,119.62485695572235L66.55601784311278,147.6373273387361L66.64174902774644,98.7210590816655L66.7274802123801,127.80106057153392L66.8989425816474,115.16351561846774L66.98467376628105,126.8847010332891L67.32759850481567,111.31119109680574L67.49906087408299,128.39952676158276L67.8419856126176,119.78751986668078L68.01344798188492,89.70443448071582L68.18491035115223,118.96995181219783L68.27064153578588,148.46430256126732L68.35637272041953,109.6876598649752L68.44210390505319,113.73832154953034L68.52783508968683,122.7573344358164L68.61356627432049,94.52173170343751L68.95649101285511,117.92467757836766L69.5566093052907,127.5104601751193L69.64234048992436,108.26490679395378L69.72807167455801,127.45595536783284L69.81380285919165,99.26352018331674L69.98526522845897,69.79971840152118L70.24245878235993,124.361341739133L70.92830825942919,112.7075230010158L71.01403944406283,118.9562019385549L71.18550181333013,143.0396996543825L71.27123299796379,101.71104634952526L71.52842655186475,60.64209170500693L71.61415773649841,114.79794171463409L71.87135129039937,121.84007067409107L71.95708247503303,82.2696008581964L71.98565953657759,108.34485150310863L72.07139072121124,124.15836992405059L72.24285309047855,114.39069243442117L72.3285842751122,102.47845230231646L72.41431545974586,116.03927430599398L72.58577782901317,109.63097356785688L72.67150901364683,85.36055299002227L72.84297138291414,102.03696417425896L73.35735849071607,90.8432289403498L73.44308967534971,105.25940580844203L73.61455204461703,120.66288118245328L73.70028322925069,87.07623392058751L73.95747678315165,98.17110468408616L74.0432079677853,127.33732368007956L74.21467033705262,84.61943034037279L74.30040152168625,124.65751750454174L74.38613270631991,78.66071924829335L74.47186389095357,98.63426984679278L74.90051981412185,98.28195518413058L75.15771336802281,126.66375422856966L75.32917573729013,101.70349628620377L75.41490692192379,89.48191440823658L75.58636929119109,110.59848458236407L75.67210047582473,100.9058738608714L75.7578316604584,73.5462771596614L75.84356284509205,92.45569053046839L75.92929402972571,97.44158691157205L76.95806824532957,130.47939079484348L77.12953061459687,132.61373530650775L77.21526179923053,135.9959366049585L77.30099298386418,117.34742211937933L77.4724553531315,104.16742822910335L77.55818653776515,85.31201686866989L77.64391772239881,113.43290486343972L77.90111127629977,140.36294675364655L78.07257364556709,106.47484435878634L78.50122956873535,132.32966316033352L78.84415430726997,130.21165549352543L79.1870790458046,125.71529272936017L79.27281023043825,66.74647603816457L79.87292852287382,105.03199563050322L79.95865970750748,130.86752568273766L80.04439089214114,102.63787136222378L80.1301220767748,65.77915154509282L80.21585326140844,93.34168356806092L80.38731563067576,85.56456689225486L80.55877799994308,63.269238013543614L80.81597155384404,133.83423426449184L80.9017027384777,125.9523087612241L81.07316510774498,100.08011913729818L81.33035866164596,116.42431942576198L81.58755221554692,102.03049269141198L81.8447457694479,119.7332988963613L81.93047695408154,118.5387223630895L82.10193932334886,86.976672022201L82.53059524651712,131.71202175575874L82.78778880041808,99.80214543110003L82.87351998505174,133.5487550979242L83.21644472358636,144.16848683352376L83.30217590822002,70.4775535171633L83.38790709285368,130.69465275059582L83.64510064675464,129.5492773281419L83.7308318313883,85.83919132224273L83.9022942006556,108.66522234254492L84.0737565699229,110.06310318563189L84.15948775455657,114.98077326950286L84.24521893919022,91.38555217833137L84.50241249309119,117.93160725517562L84.58814367772484,145.08087265423097L85.01679960089312,45.877176520036386L85.10253078552678,125.04169894896738L85.35972433942773,132.13062045983676L85.53118670869505,92.32847480187107L85.6169178933287,132.65704477285402L85.70264907796236,148.8101660151516L85.95984263186332,90.66244101164322L86.04557381649698,109.82953780032359L86.3884985550316,93.30321149459462L86.47422973966526,110.3055080650545L86.81715447819987,113.90426885967804L86.90288566283353,139.74732464635107L87.16007921673449,118.12066294924873L87.24581040136815,113.13303516264652L87.3315415860018,118.38173213665672L87.41727277063546,116.24336930450286L87.50300395526911,117.24970110646433L87.58873513990277,128.0193920213434L87.67446632453643,140.43264494829367L87.76019750917008,79.69247473286798L87.84592869380374,104.79954126417992L88.274584616972,146.48675769978658L88.36031580160565,120.12662800075111L88.61750935550663,98.26896356067084L88.87470290940759,134.48671868416946L89.0461652786749,117.34694365134929L89.21762764794221,132.96630947725404L89.73201475574413,99.57072098748547L89.81774594037779,127.51759664743176L89.90347712501145,82.85750020344621L89.9892083096451,112.60137608499551L90.07493949427875,49.9728466379258L90.16067067891241,115.59400709146195L90.24640186354607,117.47355926750215L90.76078897134799,129.0547603450262L91.01798252524895,116.22101106113301L91.10371370988261,105.13780194216315L91.53236963305089,127.68447656475666L91.87529437158551,125.73342180192212L91.96102555621917,121.15442598704337L92.21821911012012,105.56619302160175L92.30395029475378,146.04799440661202L92.47541266402109,122.01963810383965L92.6468750332884,138.65705008881423L92.98979977182302,116.90725586062517L93.07553095645667,134.55491254289166L93.5899180642586,121.51596129631837L93.76138043352591,126.05115295756556L94.10430517206053,126.50435544273141L94.1900363566942,132.82058757841008L94.3614987259615,134.9448761518159L94.61869227986247,122.40582262628936L94.70442346449612,117.1727407402765L94.79015464912976,115.8993507909039L95.21881057229804,116.03113223985568L95.3045417569317,113.20256710992729L95.47600412619902,125.94475058827499L96.0761224186346,124.54802942193879L96.59050952643652,132.03450109837826L96.76197189570384,126.1128307304888L96.84770308033748,119.06702810971643L97.27635900350576,70.09741472211013L97.44782137277308,64.52824959313212L97.962208480575,104.1455079056254L98.21940203447596,122.59766803226644L98.39086440374328,103.65398337510437L98.56232677301058,125.7020902555821L98.64805795764424,99.82248437719056L98.90525151154522,115.04935639035118L99.24817625007982,111.73637076370372L99.33390743471348,92.67970277443114L99.59110098861444,124.384851549626L99.6768321732481,136.73328827776106L99.76256335788176,130.21548323776577L100.01975691178272,113.91260555687941L100.10548809641638,111.39442020514986L100.19121928105002,132.47652040704537L100.27695046568367,90.19954346664834L100.44841283495099,117.57720841821308L100.96279994275292,126.96790581275033L101.04853112738657,140.61908934227063L101.30572468128754,95.58453084257135L101.47718705055485,91.76246334158868L101.73438060445581,127.0986370649243L101.90584297372311,79.37138213657282L101.99157415835677,143.2162421930259L102.33449889689139,142.84034473322208L102.42023008152505,114.21927112562472L102.5059612661587,97.12859583327707L102.76315482005967,101.17280225424048L102.84888600469333,114.4938144593363L103.19181074322793,67.71698761489402L103.27754192786159,106.88348849495125L103.62046666639621,89.25497458870021L103.70619785102987,117.47950362455333L104.13485377419815,97.98615651640652L104.30631614346547,144.38361903523406L104.64924088200007,100.71840359899952L104.82070325126739,75.74603798258535L104.90643443590103,146.8055066136973L104.99216562053469,87.19001199620557L105.07789680516835,96.82827199333671L105.33509035906931,136.1820687782718L105.67801509760395,114.68044942956251L105.9352086515049,130.40800985246358L106.02093983613855,108.70672741674402L106.36386457467317,120.03181428934067L106.53532694394049,133.71840850789778L106.62105812857413,123.70475790268952L106.87825168247511,129.34621225234176L107.22117642100972,108.25173675868623L107.56410115954434,128.364943254564L107.649832344178,124.63849637294074L107.82129471344531,133.87373220585306L107.99275708271261,97.96740705733104L108.16421945197993,131.6833907154188L108.50714419051454,69.77802514761682L108.5928753751482,148.07290354825295L108.93580011368282,131.29401099968374L109.27872485221744,95.49542225419708L109.53591840611841,118.79763033473469L110.3074990678213,99.49021671402429L110.4789614370886,113.63884074742009L110.65042380635592,104.63562947056681L111.16481091415785,89.81513900746293L111.25054209879148,117.93534984832584L111.67919802195976,56.16419861776397L111.76492920659342,67.77041384170599L112.1935851297617,103.12750634950751L112.27931631439536,126.416317325204L112.62224105292997,124.76713939600054L112.96516579146459,146.4586132371043L113.22235934536556,83.99505389005314L113.30809052999922,138.46339623587616L113.39382171463286,84.31701421650448L113.65101526853384,134.86885244761908L113.7367464531675,90.2198337549731L113.9082088224348,110.1526578035257L114.16540237633576,156.91577329505625L114.33686474560307,142.05224706553855L114.42259593023672,139.30112076982803L115.02271422267232,118.96592538208063L115.47994720738514,110.47718888193504L115.5656783920188,138.90401663377747L115.65140957665245,87.92066511658757L115.9086031305534,83.00531438621813L115.99433431518706,136.64953609843496L116.16579668445438,108.39469327450911L116.33725905372168,100.27878879492405L116.42299023835534,64.88419736897156L116.6801837922563,110.94275449441948L116.76591497688996,116.695083672999L116.93737734615728,122.24746187278748L117.02310853079094,135.19747077835285L117.19457090005822,110.2792572004233L117.36603326932554,145.54406620063426L117.4517644539592,113.24722682927359L117.6232268232265,124.22125603149036L117.70895800786016,138.98824728113362L117.88042037712748,73.75076952992403L118.2233451156621,124.81366027488743L118.48053866956306,29.036772445910316L118.5662698541967,137.58011181391132L118.73773222346402,106.3301199441406L118.99492577736498,113.51408223599401L119.08065696199864,138.234185720604L119.25211933126594,94.87723344975743L119.59504406980058,88.4006090988561L119.85223762370154,82.20191790601477L119.9379688083352,105.9121983939695L120.02369999296883,117.12272866669585L120.10943117760249,107.50569967469428L120.53808710077077,137.9662882267334L121.0524742085727,107.41147391128686L121.13820539320636,109.65744339243402L121.65259250100829,123.54655123211256L121.82405487027559,117.6614593396383L122.25271079344387,134.1230424332007L122.50990434734484,147.45680297292745L122.59563553197849,137.2554631459014L122.68136671661213,130.58461321331419L122.85282908587945,103.48763869320291L123.19575382441407,115.3865952552533L123.36721619368139,109.36879741627769L123.53867856294869,137.1407686823614L123.88160330148331,145.57148485164387L124.56745277855255,153.5701808831243L124.99610870172083,119.09689586826961L125.16757107098813,75.62354205726741L125.4247646248891,127.73697018439142L125.51049580952275,125.8919852961147L125.76768936342371,108.5282912800495L126.19634528659199,131.74096907157616L126.36780765585931,86.03323038249313L126.45353884049295,134.4743920501752L126.62500120976027,150.5603169179488L126.79646357902757,87.55768629359483L126.96792594829488,120.32523278135596L127.05365713292854,133.18129165085324L127.1393883175622,116.52873088146993L127.56804424073047,112.31219487341575L127.65377542536413,96.63302459856978L127.91096897926509,105.84240693860465L127.99670016389875,117.1465790815492L128.59681845633432,110.71166254553766L128.76828082560164,96.02170464873086L128.8540120102353,110.5856632610845L128.93974319486895,113.4462857490256L129.02547437950258,147.20836858536356L129.1969367487699,113.85158871860784L129.36839911803722,146.09086595306638L129.45413030267088,130.27259529033455L129.9685174104728,104.51119534424583L130.48290451827472,146.0904929101955L130.65436688754204,124.57205824859997L131.16875399534396,135.84936725002746L131.25448517997762,130.88091467795118L131.42594754924494,92.37405901876694L131.59740991851223,140.72137202072628L131.68314110314589,105.79744716303611L131.94033465704686,143.7962346513386L132.02606584168052,141.82802802607128L132.2832593955815,131.20353593905418L132.36899058021513,86.15305824032151L132.79764650338342,115.98740512768657L132.88337768801708,97.07439919184047L132.9691088726507,105.68686428070342L133.05484005728437,111.32041174341855L133.22630242655168,151.64630553728435L133.397764795819,110.70816729603008L133.48349598045266,115.59907560872931L133.65495834971998,123.55669232146113L133.8264207189873,114.27423007205832L133.91215190362092,114.21250769618312L133.99788308825458,127.97824782557376L134.3408078267892,120.6452427423628L134.4551160729674,114.85498483536804L134.5408472576011,133.90977139103097L134.62657844223472,124.93082412004009L134.71230962686838,92.94776651566809L135.14096555003664,107.5781024301553L135.59819853474946,108.20765282290151L135.68392971938312,143.31146544063154L135.76966090401677,136.0354588752026L135.85539208865043,91.95495346296217L136.11258564255138,146.47074524003548L136.71270393498696,113.69697055825618L136.96989748888794,144.53792902973586L137.14135985815525,127.41097531819526L137.3985534120562,113.51028693026421L137.57001578132352,91.44618786410444L137.91294051985815,109.17822927665199L138.08440288912547,120.33553200844327L138.34159644302642,149.81261330547935L138.42732762766008,111.98610674650186L138.5987899969274,70.89890543982098L138.68452118156102,132.31434407374462L139.28463947399663,133.49487878677888L139.3703706586303,128.8573314604274L139.54183302789758,106.65590801483226L139.88475776643222,137.04622664347647L140.14195132033316,137.49427951509867L140.22768250496685,128.95418879800002L140.39914487423414,83.81484985453577L140.74206961276874,128.86664942257175L140.8278007974024,105.44557852989345L141.08499435130338,134.17483051523186L141.25645672057067,132.801242061704L141.34218790520436,88.52912236787387L141.42791908983799,136.37337489401162L141.51365027447167,106.69187421336156L141.68511264373896,74.26124626021122L141.94230619763994,135.4068735281441L142.28523093617454,119.48734200003773L142.5424244900755,111.66398422749798L142.62815567470918,126.5838419579253L142.7138868593428,101.50915716973115L142.7996180439765,139.1113919766618L142.88534922861012,106.58744653839837L143.05681159787744,152.76988228067475L143.1425427825111,108.8241629344222L143.31400515177842,136.5302759145405L143.4854675210457,96.19053898631405L143.8283922595803,126.51377072040728L144.42851055201592,140.26291855167142L144.8571664751842,112.34113813441937L145.0286288444515,125.05586241361934L145.28582239835245,96.18297270373732L145.45728476761977,126.41654033996377L145.54301595225343,104.56728963854734L145.71447832152074,119.529714804393L145.88594069078806,106.1060022750187L146.143134244689,149.3467273627036L146.2288654293227,64.75306469023002L146.48605898322364,129.7373355380168L146.57179016785727,128.33471461758137L146.9147149063919,112.53160895851353L147.17190846029288,116.79038801688093L147.42910201419383,143.18480927634056L147.94348912199578,109.26054199707418L148.11495149126307,96.17793662498045L148.4578762297977,151.83835773876592L148.62933859906502,118.01396052373593L148.80080096833234,136.55669302653808L148.9722633375996,142.74038140826798L149.0579945222333,114.46128674292117L149.4009192607679,108.8783595758588L149.48665044540155,111.73273765052647L149.5723816300352,74.56500047263815L149.65811281466887,132.33614680762196L149.74384399930253,149.9118062158088L150.08676873783716,125.78069282136457L150.25823110710445,128.19541554381863L150.3439622917381,163.14818431957397L150.60115584563906,111.95364390710778L150.68688703027271,115.76825055067286L150.9440805841737,100.28006200646162L151.11554295344098,101.15474211351336L151.20127413807467,127.49696575474664L151.54419887660927,99.5625870309748L151.71566124587656,138.29183706341004L151.88712361514388,144.3037270386588L152.14431716904485,142.86546024998535L152.2300483536785,136.65077281664819L152.31577953831217,98.87541773393306L152.4872419075795,110.08593178740415L152.6587042768468,85.04990559411172L152.8301666461141,87.93514891153082L153.68747849245062,99.35399929876012L154.11613441561892,133.47075669939997L154.20186560025257,148.15875612113464L154.54479033878718,131.00687341426618L154.7162527080545,147.29146388485182L154.80198389268813,145.78696576734217L154.97344626195544,147.6025856939786L155.05917744658913,132.95131477577024L155.14490863122276,143.19455299393536L155.31637100049008,132.85298554078315L155.40210218512374,146.0454763672336L155.65929573902469,146.33996938490955L155.830758108292,86.35051145380322L155.91648929292566,123.60215083912877L156.00222047755932,135.98918128514455L156.17368284682664,136.51277533811972L156.34514521609395,127.42293701894626L156.6023387699949,131.38663511163466L156.68806995462856,147.7883123859105L156.9452635085295,146.64654980256478L157.0309946931632,159.51033309237752L157.20245706243048,130.16609966032627L157.37391943169777,141.37642719236192L157.80257535486606,145.82487827650215L157.97403772413338,121.57396946274002L158.1455000934007,107.90942937651674L158.31696246266802,116.68119188087259L158.48842483193533,105.42673175528644L158.57415601656896,139.36325673671223L159.0885431243709,108.99338653413153L159.51719904753915,152.34778021746152L159.60293023217284,134.25186792288216L159.77439260144016,133.54830906840465L159.86012378607379,127.39756604891268L160.20304852460842,148.42945954616448L160.28877970924205,144.92682216781327L160.46024207850937,122.85463780290857L160.71743563241034,148.62029530350188L161.06036037094498,141.38524641240716L161.1460915555786,148.0942480881693L161.23182274021224,117.94950520335018L161.83194103264785,134.48289093992912L161.9176722172815,85.77458191893204L162.60352169435075,139.39785646298625L162.77498406361806,115.10040649626819L162.8607152482517,118.96653360415272L163.032177617519,133.80253373009475L163.14648586369722,148.2125837745142L163.40367941759817,100.04335819526135L163.48941060223186,105.23218989812312L163.5751417868655,124.30864537880755L163.66087297149915,147.0716889213246L163.83233534076646,145.0623016069633L163.91806652540012,119.65526400451279L164.0895288946674,143.88646642313932L164.3467224485684,124.46313378511715L164.77537837173668,115.71205894083985L165.20403429490494,128.80468781268152L165.2897654795386,61.90189802810295L165.46122784880592,134.66547515115525L165.63269021807324,144.9941604608207L165.9756149566078,154.48415821825347L166.0613461412415,156.01074087920054L166.2328085105088,133.51286594085732L166.31853969514245,153.93132895768008L166.4042708797761,145.90290100390922L167.09012035684535,130.6221283507204L167.26158272611264,139.57045772260255L167.43304509537995,138.76648545883762L167.60450746464727,145.53525509021665L167.7759698339146,135.89647607691734L167.94743220318188,120.96940077790127L168.03316338781556,140.60690462675987L168.20462575708288,130.47747692272333L168.46181931098383,140.2775848132363L168.63328168025114,127.59184028836428L168.71901286488477,156.5779383725235L169.14766878805307,104.96066334588909L169.2333999726867,126.21140730911853L169.31913115732038,107.19266804826117L169.74778708048865,140.85598372972015L169.8335182651223,111.47997677662316L170.09071181902326,124.87932392978973L170.1764430036569,89.12493670968841L170.86229248072615,130.35199665443835L170.9480236653598,130.91816625245946L171.37667958852808,138.686382611944L171.63387314242905,144.8737122164788L171.89106669633003,123.8178101666349L171.97679788096366,150.64676960327498L172.14826025023098,154.8900450810249L172.40545380413195,88.02339787937655L172.4911849887656,148.56111935070183L172.57691617339927,119.74323319020536L172.74837854266656,97.22197008578357L173.34849683510217,119.79860167283418L173.4342280197358,133.93228777213957L173.60569038900312,145.78677924590673L173.77715275827043,129.77556432265425L174.12007749680504,117.93881265932292L174.37727105070599,107.69076137716071L174.5487334199733,110.35921001920579L174.63446460460696,146.58704946465957L174.72019578924062,94.87347869216576L174.80592697387428,147.5147462623281L174.9773893431416,71.96923031339342L175.06312052777523,149.81561792251546L175.40604526630986,140.84501951316736L175.57750763557718,130.3964049753282L175.6632388202108,141.64419898700427L176.00616355874544,120.20260304718215L176.17762592801276,122.2273135029462L176.43481948191373,142.44535315516856L176.7777442204483,152.78941634622322L177.29213132825026,128.18005590909158L177.37786251288392,131.95214782981793L177.46359369751758,113.93371491759459L177.63505606678487,47.95353313934805L177.72078725141856,157.9395772897418L177.89224962068587,137.7367533263561L177.9779808053195,146.10760016967635L178.06371198995316,125.26116980145855L178.23517435922045,120.25186092539343L178.57809909775509,142.38385379405315L178.7495614670224,143.83157235372676L178.9210238362897,113.30019891693838L179.1782173901907,117.05062596745705L179.34967975945798,99.68378541587228L179.52114212872527,135.45414049277275L179.6926044979926,122.71966521548526L179.77833568262625,96.05873320847941L179.8640668672599,108.3840777719443L180.12126042116088,114.62386044797572L180.2927227904282,110.89382911094096L180.54991634432915,124.9801266012033L180.6356475289628,112.37318738280443L180.80710989823012,148.82628795487565L180.89284108286378,90.01218673956325L180.9785722674974,143.41373595464574L181.06430345213107,137.13143044614796L181.2357658213984,145.66010686236046L181.32149700603205,128.92585781388232L181.4072281906657,99.41706787282153L181.49295937529934,101.89522410258024L181.57869055993302,136.53687715142954L181.75015292920034,151.70528280420754L181.83588411383397,154.37045515669098L182.0073464831013,135.92748729296605L182.26454003700223,155.86641586371547L182.5217335909032,136.19984508203194L182.69319596017053,156.2426539278797L182.86465832943784,144.25890918157373L183.03612069870516,150.3364384828419L183.1218518833388,152.02117307437945L183.20758306797245,110.73505882124385L183.46477662187343,133.9820889954019L183.63623899114071,113.19423852235354L183.8934325450417,117.44197226789186L184.15062609894267,96.80207789609891L184.32208846820998,135.09354590030256L184.4078196528436,123.3336491779999L184.49355083747727,154.7882976379927L184.92220676064554,126.79410432824511L185.00793794527922,140.358295882202L185.52232505308112,135.7634457453109L185.7795186069821,135.6970603335497L185.86524979161575,128.56203153480246L185.9509809762494,142.37785672442237L186.03671216088307,110.13737115544728L186.37963689941768,146.59438462284893L186.63683045331862,126.24716671214333L186.80829282258594,138.39568489999783L186.97975519185326,151.5450122333993L187.23694874575423,146.1631876122511L187.6656046689225,135.6020154977519L187.83706703818982,138.82600607081184L187.92279822282345,134.20230187882103L188.00852940745713,142.28261320274765L188.78011006916,159.96892847991586L189.4945366077738,155.88234925459722L189.6659989770411,116.36335124525618L189.75173016167477,143.68626404589182L189.83746134630843,167.41785460784553L190.694773192645,134.46728396155942L190.78050437727862,139.6686896420581L190.8662355619123,120.42289702687756L191.12342911581325,146.55235647766784L191.20916030044688,158.86128715481408L191.29489148508057,146.60911576143482L191.3806226697142,124.91096364197959L191.4663538543479,144.86293046654762L191.55208503898152,155.5120920408085L191.63781622361518,148.02927375161536L191.72354740824883,158.37468111344933L191.8092785928825,140.251183920494L191.89500977751615,138.20381516513788L192.15220333141713,134.82519426728481L192.32366570068444,131.24698732388393L192.7523216238527,119.37658476071104L192.83805280848634,142.77131963766803L193.00951517775366,148.76173531895836L193.26670873165463,145.09896117865478L193.35243991628826,139.40399545110049L193.43817110092195,126.68644496667224L193.52390228555558,150.46832535695285L193.6953646548229,149.28813124827894L193.95255820872384,136.98265121768833L194.03828939335753,122.4924091204714L194.29548294725848,167.62689039698662L194.38121413189214,150.4494420890215L194.4669453165258,135.89492713804043L194.55267650115945,150.28634125817118L194.8098700550604,139.31893356691248L195.06706360896135,148.8151291072598L195.23852597822867,143.55243897077784L195.32425716286232,142.7792792371847L195.5814507167633,121.7035613122323L195.66718190139696,91.1493430544164L195.7529130860306,134.47381626661362L195.83864427066428,139.24565497166768L196.0101066399316,141.23727814671028L196.18156900919888,144.5104333372638L196.26730019383254,113.2213246786304L196.61022493236715,129.33879599787613L196.95314967090178,138.82257164351148L197.1246120401691,166.89427880153252L197.4675367787037,161.70559509937493L197.63899914797102,117.25858925834439L197.72473033260468,150.30766146920465L197.89619270187197,115.22746003231295L198.06765507113928,136.01353044209702L198.15338625577294,136.3247738956382L198.41057980967392,116.97097320489681L198.58204217894124,148.33089918679L198.66777336357487,148.327870240871L198.92496691747584,123.61982982735738L199.52508520991142,125.83218084717348L199.86800994844606,146.21839795714118L200.38239705624798,157.94891755336215L200.4681282408816,124.93944059939463L200.55385942551527,133.61623936422893L200.63959061014893,126.28027021212L200.7253217947826,113.15058439683308L201.2397089025845,141.8275698321103L201.41117127185183,138.8572646305032L201.83982719502012,156.91731615171244L201.92555837965375,132.223455422106L202.0112895642874,117.09992439380648L202.26848311818839,140.66097962378205L202.35421430282202,153.4936077516557L202.7828702259903,155.26271085421908L203.3829885184259,158.68236444046192L203.5544508876932,127.26212715790078L203.72591325696052,167.82702586980622L203.81164444159415,136.65259748286445L204.24030036476245,136.08283531980422L204.32603154939608,120.87563726326863L204.41176273402976,121.17250234702573L204.4974939186634,128.158650546968L204.75468747256434,132.71766829418567L204.92614984183166,152.78247855978765L205.2690745803663,124.0281617428586L205.35480576499995,124.39215832411864L205.6119993189009,113.25393349132179L205.6977305035346,145.83652775658948L205.78346168816822,138.09639909239382L205.95492405743553,154.09244698457542L206.12638642670285,144.38384610480765L206.21211761133648,143.1011949606841L206.55504234987112,144.55645547405157L206.72650471913843,120.26085450243265L206.9836982730394,117.51255035713662L207.06942945767304,143.9424309633988L207.4980853808413,138.28743353560813L207.66954775010862,121.59785231610391L208.0982036732769,147.3850287136076L208.26966604254423,147.5489080687102L208.35539722717786,135.51403009280406L208.44112841181155,131.62140883145952L208.52685959644518,145.89625921888205L208.6983219657125,112.20182284140138L208.78405315034612,142.67293769010138L208.8697843349798,139.47687667459155L208.95551551961344,144.41922841014775L209.0412467042471,150.2563396907621L209.72709618131637,150.30731681003047L209.89855855058366,139.90116022763667L209.98428973521732,159.11961528808388L210.07002091985098,142.35147610574916L210.24148328911826,123.94521647148144L210.9273327661875,139.89561324233924L211.18452632008848,110.39292985088218L211.3559886893558,98.97830457964697L211.87037579715772,160.98070995164323L212.1275693510587,149.011090149258L212.299031720326,159.77709118356643L212.64195645886062,140.96037896617284L212.81341882812794,140.18442546586192L213.15634356666254,107.8308633040586L213.2420747512962,129.88595257392387L213.41353712056352,106.17757784846167L213.67073067446447,129.7339457136684L214.09938659763276,145.2549741949584L214.27084896690008,152.38398970481964L214.44231133616736,124.66580148916354L214.52804252080102,128.21346757491813L214.69950489006834,149.69100538438664L214.78523607470197,159.94710952678327L215.21389199787026,147.8912235605073L215.2996231825039,145.38367804022542L215.38535436713758,162.18136059600826L215.98547265957316,139.40429145250891L216.41412858274143,151.95371110955068L216.75705332127603,118.51085362774657L217.01424687517698,143.36088956620918L217.27144042907798,101.81223017343734L217.3571716137116,104.72728448201623L217.9001357830581,117.91891974275191L217.98586696769178,143.12854062504505L218.24306052159272,120.46895160217585L218.32879170622638,141.571540778273L218.5002540754937,117.21350783836145L219.70049066036486,124.66124793325054L219.78622184499852,132.4694407021263L219.87195302963215,114.87250974067172L219.95768421426584,137.78142521014385L220.12914658353316,153.5565323798267L220.3863401374341,123.70974126886681L220.64353369133505,129.3115395394191L220.98645842986969,110.28151167690382L221.07218961450334,88.73743437274918L221.15792079913697,142.33831823492304L221.3293831684043,142.9505667371253L221.5008455376716,154.3228516425158L221.67230790693893,111.27082948010218L221.92950146083987,134.5710953048229L222.2724261993745,127.13234067734544L222.6153509379091,142.29019570457967L222.95827567644375,106.08870443928859L223.04400686107738,104.69530822027981L223.2154692303447,39.169995455676656L223.55839396887933,154.8199657338793L223.72985633814662,122.92907607490416L224.1585122613149,87.5016730955696L224.58716818448318,139.9747064405932L224.67289936911683,144.37046116440797L224.84436173838415,131.28667178668059L224.9300929230178,91.843008163188L225.18728647691876,122.98022755116652L225.44448003081973,138.0727027604654L225.7016735847207,121.58296303977926L225.95886713862166,142.77532984853L226.13032950788897,108.6945305367918L226.21606069252263,143.3562873525304L226.30179187715626,130.76438338375348L226.38752306178995,148.69399965419717L226.47325424642358,140.72005015142295L226.98764135422553,118.20634521995026L227.15910372349282,146.13140192676394L227.24483490812648,128.51074624968425L227.33056609276014,130.84872351108262L227.4162972773938,127.46681821404027L227.8449532005621,144.56634111012988L227.93068438519572,143.36141263719117L228.01641556982938,142.74763547018105L228.1878779390967,140.56626728271695L228.359340308364,143.98635676144477L228.44507149299764,139.89337498511395L228.5308026776313,149.9523827376445L228.61653386226496,121.18919196068376L228.70226504689862,143.05059899391426L228.78799623153228,136.6191209400169L229.21665215470054,158.20214473085406L229.3023833393342,127.81658645362735L229.38811452396786,152.11866904512777L229.90250163176978,107.75390293787076L229.98823281640344,154.2086478114473L230.24542637030441,135.80655247096647L230.41688873957173,121.20035891792723L230.50261992420536,136.53892077759176L230.58835110883902,119.86557097778456L230.84554466274,143.98220057728554L231.35993177054192,140.3782780046769L231.70285650907655,162.17582577515228L231.87431887834384,149.39440386352746L232.04578124761116,138.0343726054826L232.3029748015121,124.59978506545943L232.5601683554131,160.91961201709537L232.64589954004674,158.7846876670557L232.73163072468037,143.12215834810198L232.81736190931406,147.70707824596283L232.98882427858138,146.22956896919848L233.074555463215,154.34295946421892L233.70325081719517,161.1564496371515L233.7889820018288,152.60545958052109L233.87471318646246,131.94713607994396L233.96044437109612,153.10674404789216L234.04617555572977,145.45979905995378L234.13190674036343,152.51656184246514L234.2176379249971,140.1699173420358L234.30336910963072,106.88288838250679L234.38910029426438,137.6466188700869L234.47483147889804,136.38519467627916L234.56056266353167,135.92300266888788L234.64629384816536,133.06043387031613L234.81775621743267,126.66483280904416L234.9034874020663,106.69068209810028L234.98921858669996,137.14704147933148L235.07494977133362,138.20051049187956L235.16068095596728,130.9190745307538L235.24641214060094,144.03126787924754L235.41787450986823,151.1861571560553L235.5036056945019,154.94343886932637L235.58933687913554,148.72255365307464L235.67506806376923,137.730480529386L235.76079924840286,128.75255912629L235.8465304330365,124.48078438964907L235.93226161767018,137.68044007210867L236.0179928023038,141.39858674985487L236.1037239869375,137.20474553471712L236.18945517157113,137.81885519645996L236.27518635620478,105.08787907448641L236.36091754083844,147.7207186396328L236.4466487254721,129.15587523710346L236.53237991010576,138.24354423088647L236.61811109473942,136.5464627312856L236.70384227937305,134.115999221606L236.78957346400674,151.50109454498093L236.87530464864037,141.42803280777144L236.96103583327405,137.49526888966926L237.04676701790768,138.80254897289842L237.1324982025413,151.74734136049221L237.218229387175,142.49095359131968L237.30396057180863,159.89914107936482L237.38969175644232,133.58895857688898L237.47542294107595,159.45007044947533L237.5611541257096,145.37419383071472L237.64688531034327,135.93475351932057L237.73261649497692,147.2662753814399L237.81834767961058,105.12313973541208L237.90407886424424,140.3476519959405L237.98981004887787,159.81992218188265L238.07554123351156,108.25400745442201L238.41846597204614,116.75850907067604L238.50419715667982,133.8760475045408L238.76139071058077,140.5266436421275L239.01858426448175,149.16602458508714L239.19004663374906,129.3533081765161L239.61870255691733,157.23224137619667L239.87589611081827,144.03415896149687L240.47601440325388,134.5390338919964L240.56174558788751,160.27778162071377L241.1618638803231,138.27280376736758L241.41905743422407,131.97965568673143L241.67625098812505,132.23624430487507L241.84771335739234,146.26521078262266L242.19063809592697,141.96945587708632L242.44783164982795,116.45670927850742L242.96221875762987,108.03610176006299L243.21941231153085,139.16837833000235L243.73379941933277,139.94136776141528L243.9052617886001,138.18595371028766L243.99099297323372,143.31520397896796L244.07672415786737,144.92999708702953L244.16245534250103,131.03509897322473L244.5911112656693,122.67307134994974L244.76257363493662,153.53720916459656L245.10549837347125,116.003454080762L245.1912295581049,124.93290018471279L245.27696074273854,97.64912039219512L245.3626919273722,78.21490868871024L245.44842311200586,87.34450040251518L245.5341542966395,128.88240642905257L245.61988548127317,140.2734691772152L245.7056166659068,109.78174776471295L245.7913478505405,142.81237462753379L245.87707903517412,141.56827259833898L245.9628102198078,123.19348237408099L246.04854140444144,117.02100149773271L246.22000377370875,116.5979465532732L246.39146614297607,79.18778827670702" style="fill: none;" fill="none"></path></g></g></g></g></g></g><g transform="translate(64, 177)" clip-path="url(#clip_1)"><clipPath id="clip_1"><rect width="266" height="23"></rect></clipPath><g><g><line x1="14.288572278127885" y1="0" x2="14.288572278127885" y2="5" style="visibility: inherit;" fill="rgb(0, 0, 0)" stroke="rgb(204, 204, 204)" stroke-width="1px"></line><line x1="42.86563382267949" y1="0" x2="42.86563382267949" y2="5" style="visibility: inherit;" fill="rgb(0, 0, 0)" stroke="rgb(204, 204, 204)" stroke-width="1px"></line><line x1="71.4426953672311" y1="0" x2="71.4426953672311" y2="5" style="visibility: inherit;" fill="rgb(0, 0, 0)" stroke="rgb(204, 204, 204)" stroke-width="1px"></line><line x1="100.01975691178272" y1="0" x2="100.01975691178272" y2="5" style="visibility: inherit;" fill="rgb(0, 0, 0)" stroke="rgb(204, 204, 204)" stroke-width="1px"></line><line x1="128.59681845633432" y1="0" x2="128.59681845633432" y2="5" style="visibility: inherit;" fill="rgb(0, 0, 0)" stroke="rgb(204, 204, 204)" stroke-width="1px"></line><line x1="157.17388000088593" y1="0" x2="157.17388000088593" y2="5" style="visibility: inherit;" fill="rgb(0, 0, 0)" stroke="rgb(204, 204, 204)" stroke-width="1px"></line><line x1="185.75094154543757" y1="0" x2="185.75094154543757" y2="5" style="visibility: inherit;" fill="rgb(0, 0, 0)" stroke="rgb(204, 204, 204)" stroke-width="1px"></line><line x1="214.32800308998915" y1="0" x2="214.32800308998915" y2="5" style="visibility: inherit;" fill="rgb(0, 0, 0)" stroke="rgb(204, 204, 204)" stroke-width="1px"></line><line x1="242.90506463454076" y1="0" x2="242.90506463454076" y2="5" style="visibility: inherit;" fill="rgb(0, 0, 0)" stroke="rgb(204, 204, 204)" stroke-width="1px"></line></g><g transform="translate(0, 8)"><text x="14.288572278127885" y="0" dx="0em" dy="0.95em" style="text-anchor: middle; visibility: hidden; font-family: &quot;Helvetica Neue&quot;, sans-serif; font-size: 12px; font-weight: 200;" fill="rgb(50, 49, 63)" stroke="none" stroke-width="1px">-100k</text><text x="42.86563382267949" y="0" dx="0em" dy="0.95em" style="text-anchor: middle; visibility: inherit; font-family: &quot;Helvetica Neue&quot;, sans-serif; font-size: 12px; font-weight: 200;" fill="rgb(50, 49, 63)" stroke="none" stroke-width="1px">0</text><text x="71.4426953672311" y="0" dx="0em" dy="0.95em" style="text-anchor: middle; visibility: hidden; font-family: &quot;Helvetica Neue&quot;, sans-serif; font-size: 12px; font-weight: 200;" fill="rgb(50, 49, 63)" stroke="none" stroke-width="1px">100k</text><text x="100.01975691178272" y="0" dx="0em" dy="0.95em" style="text-anchor: middle; visibility: inherit; font-family: &quot;Helvetica Neue&quot;, sans-serif; font-size: 12px; font-weight: 200;" fill="rgb(50, 49, 63)" stroke="none" stroke-width="1px">200k</text><text x="128.59681845633432" y="0" dx="0em" dy="0.95em" style="text-anchor: middle; visibility: hidden; font-family: &quot;Helvetica Neue&quot;, sans-serif; font-size: 12px; font-weight: 200;" fill="rgb(50, 49, 63)" stroke="none" stroke-width="1px">300k</text><text x="157.17388000088593" y="0" dx="0em" dy="0.95em" style="text-anchor: middle; visibility: inherit; font-family: &quot;Helvetica Neue&quot;, sans-serif; font-size: 12px; font-weight: 200;" fill="rgb(50, 49, 63)" stroke="none" stroke-width="1px">400k</text><text x="185.75094154543757" y="0" dx="0em" dy="0.95em" style="text-anchor: middle; visibility: hidden; font-family: &quot;Helvetica Neue&quot;, sans-serif; font-size: 12px; font-weight: 200;" fill="rgb(50, 49, 63)" stroke="none" stroke-width="1px">500k</text><text x="214.32800308998915" y="0" dx="0em" dy="0.95em" style="text-anchor: middle; visibility: inherit; font-family: &quot;Helvetica Neue&quot;, sans-serif; font-size: 12px; font-weight: 200;" fill="rgb(50, 49, 63)" stroke="none" stroke-width="1px">600k</text><text x="242.90506463454076" y="0" dx="0em" dy="0.95em" style="text-anchor: middle; visibility: hidden; font-family: &quot;Helvetica Neue&quot;, sans-serif; font-size: 12px; font-weight: 200;" fill="rgb(50, 49, 63)" stroke="none" stroke-width="1px">700k</text></g><line x1="0" y1="0" x2="266" y2="0" fill="rgb(0, 0, 0)" stroke="rgb(204, 204, 204)" stroke-width="1px"></line></g></g></g></g></svg>