<svg viewBox="0 0 330 200" xmlns="http://www.w3.org/2000/svg"><g><g><g><g><g><line x1="64" y1="172.4698586459641" x2="59" y2="172.4698586459641" style="visibility: inherit;" fill="rgb(0, 0, 0)" stroke="rgb(204, 204, 204)" stroke-width="1px"></line><line x1="64" y1="159.18304474057473" x2="59" y2="159.18304474057473" style="visibility: inherit;" fill="rgb(0, 0, 0)" stroke="rgb(204, 204, 204)" stroke-width="1px"></line><line x1="64" y1="145.89623083518535" x2="59" y2="145.89623083518535" style="visibility: inherit;" fill="rgb(0, 0, 0)" stroke="rgb(204, 204, 204)" stroke-width="1px"></line><line x1="64" y1="132.60941692979597" x2="59" y2="132.60941692979597" style="visibility: inherit;" fill="rgb(0, 0, 0)" stroke="rgb(204, 204, 204)" stroke-width="1px"></line><line x1="64" y1="119.32260302440658" x2="59" y2="119.32260302440658" style="visibility: inherit;" fill="rgb(0, 0, 0)" stroke="rgb(204, 204, 204)" stroke-width="1px"></line><line x1="64" y1="106.0357891190172" x2="59" y2="106.0357891190172" style="visibility: inherit;" fill="rgb(0, 0, 0)" stroke="rgb(204, 204, 204)" stroke-width="1px"></line><line x1="64" y1="92.74897521362782" x2="59" y2="92.74897521362782" style="visibility: inherit;" fill="rgb(0, 0, 0)" stroke="rgb(204, 204, 204)" stroke-width="1px"></line><line x1="64" y1="79.46216130823844" x2="59" y2="79.46216130823844" style="visibility: inherit;" fill="rgb(0, 0, 0)" stroke="rgb(204, 204, 204)" stroke-width="1px"></line><line x1="64" y1="66.17534740284904" x2="59" y2="66.17534740284904" style="visibility: inherit;" fill="rgb(0, 0, 0)" stroke="rgb(204, 204, 204)" stroke-width="1px"></line><line x1="64" y1="52.88853349745966" x2="59" y2="52.88853349745966" style="visibility: inherit;" fill="rgb(0, 0, 0)" stroke="rgb(204, 204, 204)" stroke-width="1px"></line><line x1="64" y1="39.60171959207025" x2="59" y2="39.60171959207025" style="visibility: inherit;" fill="rgb(0, 0, 0)" stroke="rgb(204, 204, 204)" stroke-width="1px"></line><line x1="64" y1="26.314905686680873" x2="59" y2="26.314905686680873" style="visibility: inherit;" fill="rgb(0, 0, 0)" stroke="rgb(204, 204, 204)" stroke-width="1px"></line><line x1="64" y1="13.028091781291522" x2="59" y2="13.028091781291522" style="visibility: inherit;" fill="rgb(0, 0, 0)" stroke="rgb(204, 204, 204)" stroke-width="1px"></line></g><g transform="translate(54, 0)"><text x="0" y="172.4698586459641" dx="0em" dy="0.3em" style="text-anchor: end; visibility: hidden; font-family: &quot;Helvetica Neue&quot;, sans-serif; font-size: 12px; font-weight: 200;" fill="rgb(50, 49, 63)" stroke="none" stroke-width="1px">100</text><text x="0" y="159.18304474057473" dx="0em" dy="0.3em" style="text-anchor: end; visibility: inherit; font-family: &quot;Helvetica Neue&quot;, sans-serif; font-size: 12px; font-weight: 200;" fill="rgb(50, 49, 63)" stroke="none" stroke-width="1px">200</text><text x="0" y="145.89623083518535" dx="0em" dy="0.3em" style="text-anchor: end; visibility: hidden; font-family: &quot;Helvetica Neue&quot;, sans-serif; font-size: 12px; font-weight: 200;" fill="rgb(50, 49, 63)" stroke="none" stroke-width="1px">300</text><text x="0" y="132.60941692979597" dx="0em" dy="0.3em" style="text-anchor: end; visibility: inherit; font-family: &quot;Helvetica Neue&quot;, sans-serif; font-size: 12px; font-weight: 200;" fill="rgb(50, 49, 63)" stroke="none" stroke-width="1px">400</text><text x="0" y="119.32260302440658" dx="0em" dy="0.3em" style="text-anchor: end; visibility: hidden; font-family: &quot;Helvetica Neue&quot;, sans-serif; font-size: 12px; font-weight: 200;" fill="rgb(50, 49, 63)" stroke="none" stroke-width="1px">500</text><text x="0" y="106.0357891190172" dx="0em" dy="0.3em" style="text-anchor: end; visibility: inherit; font-family: &quot;Helvetica Neue&quot;, sans-serif; font-size: 12px; font-weight: 200;" fill="rgb(50, 49, 63)" stroke="none" stroke-width="1px">600</text><text x="0" y="92.74897521362782" dx="0em" dy="0.3em" style="text-anchor: end; visibility: hidden; font-family: &quot;Helvetica Neue&quot;, sans-serif; font-size: 12px; font-weight: 200;" fill="rgb(50, 49, 63)" stroke="none" stroke-width="1px">700</text><text x="0" y="79.46216130823844" dx="0em" dy="0.3em" style="text-anchor: end; visibility: inherit; font-family: &quot;Helvetica Neue&quot;, sans-serif; font-size: 12px; font-weight: 200;" fill="rgb(50, 49, 63)" stroke="none" stroke-width="1px">800</text><text x="0" y="66.17534740284904" dx="0em" dy="0.3em" style="text-anchor: end; visibility: hidden; font-family: &quot;Helvetica Neue&quot;, sans-serif; font-size: 12px; font-weight: 200;" fill="rgb(50, 49, 63)" stroke="none" stroke-width="1px">900</text><text x="0" y="52.88853349745966" dx="0em" dy="0.3em" style="text-anchor: end; visibility: inherit; font-family: &quot;Helvetica Neue&quot;, sans-serif; font-size: 12px; font-weight: 200;" fill="rgb(50, 49, 63)" stroke="none" stroke-width="1px">1e+3</text><text x="0" y="39.60171959207025" dx="0em" dy="0.3em" style="text-anchor: end; visibility: hidden; font-family: &quot;Helvetica Neue&quot;, sans-serif; font-size: 12px; font-weight: 200;" fill="rgb(50, 49, 63)" stroke="none" stroke-width="1px">1.1e+3</text><text x="0" y="26.314905686680873" dx="0em" dy="0.3em" style="text-anchor: end; visibility: inherit; font-family: &quot;Helvetica Neue&quot;, sans-serif; font-size: 12px; font-weight: 200;" fill="rgb(50, 49, 63)" stroke="none" stroke-width="1px">1.2e+3</text><text x="0" y="13.028091781291522" dx="0em" dy="0.3em" style="text-anchor: end; visibility: hidden; font-family: &quot;Helvetica Neue&quot;, sans-serif; font-size: 12px; font-weight: 200;" fill="rgb(50, 49, 63)" stroke="none" stroke-width="1px">1.3e+3</text></g><line x1="64" y1="0" x2="64" y2="177" fill="rgb(0, 0, 0)" stroke="rgb(204, 204, 204)" stroke-width="1px"></line></g></g><g transform="translate(64, 0)" clip-path="url(#clip_0)"><clipPath id="clip_0"><rect width="266" height="177"></rect></clipPath><g><g><g><line x1="14.288572278127885" y1="0" x2="14.288572278127885" y2="177" fill="rgb(0, 0, 0)" stroke="rgb(60, 60, 60)" stroke-width="1px" opacity="0.25"></line><line x1="42.86563382267949" y1="0" x2="42.86563382267949" y2="177" fill="rgb(0, 0, 0)" stroke="rgb(60, 60, 60)" stroke-width="1px" opacity="0.25"></line><line x1="71.4426953672311" y1="0" x2="71.4426953672311" y2="177" fill="rgb(0, 0, 0)" stroke="rgb(60, 60, 60)" stroke-width="1px" opacity="0.25"></line><line x1="100.01975691178272" y1="0" x2="100.01975691178272" y2="177" fill="rgb(0, 0, 0)" stroke="rgb(60, 60, 60)" stroke-width="1px" opacity="0.25"></line><line x1="128.59681845633432" y1="0" x2="128.59681845633432" y2="177" fill="rgb(0, 0, 0)" stroke="rgb(60, 60, 60)" stroke-width="1px" opacity="0.25"></line><line x1="157.17388000088593" y1="0" x2="157.17388000088593" y2="177" fill="rgb(0, 0, 0)" stroke="rgb(60, 60, 60)" stroke-width="1px" opacity="0.25"></line><line x1="185.75094154543757" y1="0" x2="185.75094154543757" y2="177" fill="rgb(0, 0, 0)" stroke="rgb(60, 60, 60)" stroke-width="1px" opacity="0.25"></line><line x1="214.32800308998915" y1="0" x2="214.32800308998915" y2="177" fill="rgb(0, 0, 0)" stroke="rgb(60, 60, 60)" stroke-width="1px" opacity="0.25"></line><line x1="242.90506463454076" y1="0" x2="242.90506463454076" y2="177" fill="rgb(0, 0, 0)" stroke="rgb(60, 60, 60)" stroke-width="1px" opacity="0.25"></line></g><g><line x1="0" y1="172.4698586459641" x2="266" y2="172.4698586459641" fill="rgb(0, 0, 0)" stroke="rgb(60, 60, 60)" stroke-width="1px" opacity="0.25"></line><line x1="0" y1="159.18304474057473" x2="266" y2="159.18304474057473" fill="rgb(0, 0, 0)" stroke="rgb(60, 60, 60)" stroke-width="1px" opacity="0.25"></line><line x1="0" y1="145.89623083518535" x2="266" y2="145.89623083518535" fill="rgb(0, 0, 0)" stroke="rgb(60, 60, 60)" stroke-width="1px" opacity="0.25"></line><line x1="0" y1="132.60941692979597" x2="266" y2="132.60941692979597" fill="rgb(0, 0, 0)" stroke="rgb(60, 60, 60)" stroke-width="1px" opacity="0.25"></line><line x1="0" y1="119.32260302440658" x2="266" y2="119.32260302440658" fill="rgb(0, 0, 0)" stroke="rgb(60, 60, 60)" stroke-width="1px" opacity="0.25"></line><line x1="0" y1="106.0357891190172" x2="266" y2="106.0357891190172" fill="rgb(0, 0, 0)" stroke="rgb(60, 60, 60)" stroke-width="1px" opacity="0.25"></line><line x1="0" y1="92.74897521362782" x2="266" y2="92.74897521362782" fill="rgb(0, 0, 0)" stroke="rgb(60, 60, 60)" stroke-width="1px" opacity="0.25"></line><line x1="0" y1="79.46216130823844" x2="266" y2="79.46216130823844" fill="rgb(0, 0, 0)" stroke="rgb(60, 60, 60)" stroke-width="1px" opacity="0.25"></line><line x1="0" y1="66.17534740284904" x2="266" y2="66.17534740284904" fill="rgb(0, 0, 0)" stroke="rgb(60, 60, 60)" stroke-width="1px" opacity="0.25"></line><line x1="0" y1="52.88853349745966" x2="266" y2="52.88853349745966" fill="rgb(0, 0, 0)" stroke="rgb(60, 60, 60)" stroke-width="1px" opacity="0.25"></line><line x1="0" y1="39.60171959207025" x2="266" y2="39.60171959207025" fill="rgb(0, 0, 0)" stroke="rgb(60, 60, 60)" stroke-width="1px" opacity="0.25"></line><line x1="0" y1="26.314905686680873" x2="266" y2="26.314905686680873" fill="rgb(0, 0, 0)" stroke="rgb(60, 60, 60)" stroke-width="1px" opacity="0.25"></line><line x1="0" y1="13.028091781291522" x2="266" y2="13.028091781291522" fill="rgb(0, 0, 0)" stroke="rgb(60, 60, 60)" stroke-width="1px" opacity="0.25"></line></g></g></g><g><g><line x1="0" y1="185.7566725513535" x2="266" y2="185.7566725513535" fill="rgb(0, 0, 0)" stroke="rgb(153, 153, 153)" stroke-width="1.5px"></line></g></g><g><g><line x1="42.86563382267949" y1="0" x2="42.86563382267949" y2="177" fill="rgb(0, 0, 0)" stroke="rgb(153, 153, 153)" stroke-width="1.5px"></line></g></g><g><g><g><g><g><path stroke="rgb(255, 112, 67)" stroke-width="2px" d="M43.15140443812501,146.1381207532536L43.322866807392316,135.16474885769716L43.580060361293285,112.86943574149382L43.66579154592694,111.49270796407252L43.922985099827905,104.78680995370723L44.351641022996176,106.86060362944512L44.523103392263494,106.01270713076555L44.6945657615308,106.26035370174701L44.951759315431765,104.53838479332714L45.20895286933273,108.22930460879415L45.38041523860004,103.41488058609117L45.980533531035626,107.26278471533352L46.06626471566927,110.87447843217652L46.15199590030293,112.13166516036458L46.32345826957024,114.38702245303085L46.4091894542039,111.23625712848158L46.49492063883755,108.8994554050905L46.75211419273851,110.57751051538595L46.83784537737217,106.71990612932339L47.09503893127314,109.49984553618626L47.26650130054045,110.20036659850147L47.43796366980775,107.09752652022429L47.52369485444141,107.15721875910486L47.69515722370872,110.4496773607754L47.86661959297603,110.62017114831617L47.95235077760968,109.88036915867167L49.15258736248085,111.02824211249616L49.83843683955009,111.44358931518036L49.92416802418374,108.732319819151L50.0098992088174,109.21972984931587L50.352823947352014,110.3989667715617L50.61001750125298,102.40497876973849L50.69574868588664,101.07651437552087L51.038673424421255,103.59810407338041L51.29586697832222,105.59413974353357L51.553060532223185,104.54739233826106L51.895985270757805,104.10396606493136L51.981716455391464,102.84611233256553L52.067447640025115,103.80916962324939L52.153178824658774,104.89492327755264L52.6675659324607,106.35775270609999L53.35341540952994,103.325532865338L53.69634014806455,105.20665488489804L53.95353370196552,104.07742005228853L54.21072725586649,107.26721885138335L54.29645844050014,109.98403968654671L54.46792080976745,109.9586696670096L54.81084554830207,112.60785903085774L54.89657673293573,115.46018544907011L55.49669502537131,114.34115984619265L56.18254450244055,114.3112603472251L56.52546924097516,116.97694060192063L56.61120042560882,117.13961593360432L56.69693161024247,118.38573803899887L57.125587533410744,116.07514553473229L57.46851227194537,113.53328728440312L57.811437010479985,114.35545667672469L57.89716819511364,112.96616902905883L58.411555302915566,113.05887468468127L58.668748856816535,113.73092068600482L58.75448004145019,113.30187512172338L58.840211226083845,107.79919082708392L58.925942410717504,108.73312328340668L59.09740477998481,106.45311877735716L59.44032951851943,106.39826055755813L59.697523072420395,106.91609870630745L59.8689854416877,109.20498857266591L60.040447810955015,110.59332324678188L60.12617899558867,110.73485485892611L60.46910373412329,111.42994255872357L60.6405661033906,109.43346369137194L60.897759657291566,109.95523026153407L61.32641558045984,111.13270525169906L61.66934031899446,113.09529516339614L61.84080268826176,116.24143420507218L61.92653387289542,116.41898113742825L62.01226505752907,119.0981526140257L62.09799624216273,118.06861155320577L62.3551897960637,117.70791315725627L62.526652165331,115.07548065959891L63.04103927313293,117.52551282107635L63.12677045776659,116.31245922221436L63.21250164240024,109.30334614768849L63.4696951963012,108.15457178553362L63.55542638093486,107.64714323190776L63.64115756556852,101.82127065244076L63.898351119469474,104.42259542589395L64.0698134887368,106.00615910342883L65.1843188889743,107.46980492874071L65.35578125824162,100.53299293262182L65.52724362750892,103.3700548266927L66.38455547384547,104.99563534385004L66.55601784311278,109.26004135982065L66.64174902774644,108.20609045558315L66.7274802123801,110.16567561316381L66.8989425816474,110.6654798476519L66.98467376628105,112.28746106373285L67.32759850481567,112.18983086556527L67.49906087408299,113.81084829571209L67.8419856126176,114.40853132810639L68.01344798188492,111.93806258617221L68.18491035115223,112.64126663802226L68.27064153578588,116.22363959676503L68.35637272041953,115.57003023317893L68.44210390505319,115.38685649187309L68.52783508968683,116.12391469044559L68.61356627432049,113.96366894747575L68.95649101285511,114.35977433955924L69.5566093052907,115.6748564558759L69.64234048992436,114.9338546269789L69.72807167455801,116.18607513863333L69.81380285919165,114.49380694817349L69.98526522845897,110.02436791786172L70.24245878235993,111.45807401175497L70.92830825942919,111.58301959397801L71.01403944406283,112.32034145744603L71.18550181333013,115.39229088493181L71.27123299796379,114.02416097703552L71.52842655186475,108.68593489600454L71.61415773649841,109.29713755159123L71.87135129039937,110.55143450923133L71.95708247503303,107.72324374645957L71.98565953657759,107.78540466845878L72.07139072121124,109.42270466297906L72.24285309047855,109.9195043874396L72.3285842751122,109.17539790192617L72.41431545974586,109.86178660248663L72.58577782901317,109.83870526693865L72.67150901364683,107.39088697684014L72.84297138291414,106.85549409374651L73.35735849071607,105.25426595576768L73.44308967534971,105.25477994150388L73.61455204461703,106.79559133034459L73.70028322925069,104.8236541326044L73.95747678315165,104.15839874544217L74.0432079677853,106.4762926259007L74.21467033705262,104.29060522025202L74.30040152168625,106.32729743585043L74.38613270631991,103.56063841021373L74.47186389095357,103.06800136046184L74.90051981412185,102.5893965737181L75.15771336802281,104.99683310478434L75.32917573729013,104.66749932866895L75.41490692192379,103.14894044546703L75.58636929119109,103.89389503185724L75.67210047582473,103.59509285241532L75.7578316604584,100.59021071888374L75.84356284509205,99.7767585625673L75.92929402972571,99.54324136194941L76.95806824532957,102.63685672872839L77.12953061459687,105.6345449558285L77.21526179923053,108.67068445739503L77.30099298386418,109.538358310182L77.4724553531315,109.00126525383538L77.55818653776515,106.63234022383138L77.64391772239881,107.31239673726616L77.90111127629977,110.61745195530192L78.07257364556709,110.20319117123908L78.50122956873535,112.41583848749532L78.84415430726997,114.19542027303973L79.1870790458046,115.34740756815884L79.27281023043825,110.48731422725753L79.87292852287382,109.94178234859979L79.95865970750748,112.03435674754542L80.04439089214114,111.09470818252949L80.1301220767748,106.56315240383718L80.21585326140844,105.24100549007541L80.38731563067576,103.27336158986482L80.55877799994308,99.27294915825705L80.81597155384404,102.72907772640019L80.9017027384777,105.05140086466756L81.07316510774498,104.55427268522898L81.33035866164596,105.74127737368374L81.58755221554692,105.37019890140465L81.8447457694479,106.80650891501553L81.93047695408154,107.97973027019968L82.10193932334886,105.87942442868095L82.53059524651712,108.46268417989567L82.78778880041808,107.59663029943201L82.87351998505174,110.19184279434121L83.21644472358636,113.58950721600439L83.30217590822002,109.27831182585585L83.38790709285368,111.41994592738979L83.64510064675464,113.23287907436745L83.7308318313883,110.49351028976824L83.9022942006556,110.31068149448207L84.0737565699229,110.28592366352834L84.15948775455657,110.75540862529857L84.24521893919022,108.81842297624713L84.50241249309119,109.7297414059839L84.58814367772484,113.26485453724621L85.01679960089312,106.52608672448082L85.10253078552678,108.3776479496606L85.35972433942773,110.75294520383152L85.53118670869505,108.91049816143413L85.6169178933287,111.2851528251296L85.70264907796236,115.03765414776339L85.95984263186332,112.60013283202828L86.04557381649698,112.32307332864063L86.3884985550316,110.42108714389417L86.47422973966526,110.40952923600285L86.81715447819987,110.75900319857007L86.90288566283353,113.6578353448391L87.16007921673449,114.10411810548663L87.24581040136815,114.00700981116216L87.3315415860018,114.44448204387564L87.41727277063546,114.62437076999908L87.50300395526911,114.88690380372535L87.58873513990277,116.2001526258461L87.67446632453643,118.62340185868698L87.76019750917008,114.73030914524314L87.84592869380374,113.73723235693895L88.274584616972,117.012184891811L88.36031580160565,117.32362920275528L88.61750935550663,115.41816263827006L88.87470290940759,117.3250182431093L89.0461652786749,117.32721078393354L89.21762764794221,118.89112065343119L89.73201475574413,116.9590806866525L89.81774594037779,118.014932282821L89.90347712501145,114.49918907461213L89.9892083096451,114.30940777563728L90.07493949427875,107.87575166146384L90.16067067891241,108.64757720450709L90.24640186354607,109.5301754108513L90.76078897134799,111.48263390435778L91.01798252524895,111.95647162005473L91.10371370988261,111.27460465224041L91.53236963305089,112.91559184354658L91.87529437158551,114.19737483942247L91.96102555621917,114.89307995420327L92.21821911012012,113.96039126092052L92.30395029475378,117.16915157555962L92.47541266402109,117.65420022839714L92.6468750332884,119.75448521447595L92.98979977182302,119.46976227908635L93.07553095645667,120.97827730548846L93.5899180642586,121.03204570457214L93.76138043352591,121.53395642987729L94.10430517206053,122.0309963311679L94.1900363566942,123.10995545590222L94.3614987259615,124.2934475255036L94.61869227986247,124.10468503558073L94.70442346449612,123.41149060604556L94.79015464912976,122.66027662452677L95.21881057229804,121.997362186056L95.3045417569317,121.11788267843875L95.47600412619902,121.60056946942453L96.0761224186346,121.89531546467715L96.59050952643652,122.90923402805095L96.76197189570384,123.22959369829579L96.84770308033748,122.81333713943661L97.27635900350576,117.54174489769L97.44782137277308,112.24039536722154L97.962208480575,111.43090662106019L98.21940203447596,112.547582762183L98.39086440374328,111.65822282347358L98.56232677301058,113.06260956668663L98.64805795764424,111.73859704773514L98.90525151154522,112.06967298199717L99.24817625007982,112.0363427601678L99.33390743471348,110.10067876159212L99.59110098861444,111.52909604039684L99.6768321732481,114.04951526413535L99.76256335788176,115.6661120614996L100.01975691178272,115.49076141103747L100.10548809641638,115.08112729044845L100.19121928105002,116.82066660210909L100.27695046568367,114.1585542885617L100.44841283495099,114.50041970152701L100.96279994275292,115.74716831264982L101.04853112738657,118.2343604156128L101.30572468128754,115.96937745830792L101.47718705055485,113.54868604663528L101.73438060445581,114.90368114846454L101.90584297372311,111.35045124727453L101.99157415835677,114.53703034185034L102.33449889689139,117.36736178098803L102.42023008152505,117.05255271545167L102.5059612661587,115.06015702723391L102.76315482005967,113.67142154993437L102.84888600469333,113.75366084087456L103.19181074322793,109.14999351827599L103.27754192786159,108.9233430159435L103.62046666639621,106.95650617321898L103.70619785102987,108.0088059183525L104.13485377419815,107.00654097815784L104.30631614346547,110.74424878386569L104.64924088200007,109.741664265379L104.82070325126739,106.34210163709946L104.90643443590103,110.38844213475943L104.99216562053469,108.06859912090394L105.07789680516835,106.94456640814718L105.33509035906931,109.86831664515975L105.67801509760395,110.34952992360003L105.9352086515049,112.35537791648645L106.02093983613855,111.99051286651218L106.36386457467317,112.79464300879505L106.53532694394049,114.88701955870536L106.62105812857413,115.76879339310379L106.87825168247511,117.1265352790276L107.22117642100972,116.23905542699345L107.56410115954434,117.45164420975053L107.649832344178,118.17032942606956L107.82129471344531,119.74066970404792L107.99275708271261,117.56334343937621L108.16421945197993,118.97534816698047L108.50714419051454,114.05561586504408L108.5928753751482,117.45734463336498L108.93580011368282,118.84101126999687L109.27872485221744,116.50645236841689L109.53591840611841,116.73557016504866L110.3074990678213,115.01103481994622L110.4789614370886,114.8738154126936L110.65042380635592,113.84999681848092L111.16481091415785,111.44651103737911L111.25054209879148,112.09539491847379L111.67919802195976,106.5022752884028L111.76492920659342,102.62908914373311L112.1935851297617,102.67893086431053L112.27931631439536,105.05266951039988L112.62224105292997,107.02411649895996L112.96516579146459,110.96756617277441L113.22235934536556,108.27031494450229L113.30809052999922,111.28962307363967L113.39382171463286,108.59236218792616L113.65101526853384,111.22001121389545L113.7367464531675,109.1199934680032L113.9082088224348,109.22325990155545L114.16540237633576,113.99251124090553L114.33686474560307,116.79848482336885L114.42259593023672,119.04874841801475L115.02271422267232,119.04046611442135L115.47994720738514,118.18413839117271L115.5656783920188,120.2561262154332L115.65140957665245,117.02258010554863L115.9086031305534,113.62085353361559L115.99433431518706,115.92372179009752L116.16579668445438,115.17081893853867L116.33725905372168,113.68161592417721L116.42299023835534,108.80187406865664L116.6801837922563,109.01596211123294L116.76591497688996,109.78387426740954L116.93737734615728,111.03023302794733L117.02310853079094,113.44695680298787L117.19457090005822,113.13018684273142L117.36603326932554,116.37157477852169L117.4517644539592,116.05913998359688L117.6232268232265,116.87535158838622L117.70895800786016,119.08664115766098L117.88042037712748,114.55305399488728L118.2233451156621,115.57911462288729L118.48053866956306,106.9248804051896L118.5662698541967,109.99040354606176L118.73773222346402,109.62437518586965L118.99492577736498,110.0133458908821L119.08065696199864,112.83542987385428L119.25211933126594,111.0396102314446L119.59504406980058,108.77571011818576L119.85223762370154,106.11833089696864L119.9379688083352,106.09771764666873L120.02369999296883,107.20021874867145L120.10943117760249,107.23076684127372L120.53808710077077,110.30431897981968L121.0524742085727,110.01503447296639L121.13820539320636,109.97927536491316L121.65259250100829,111.33600295163309L121.82405487027559,111.96854859043361L122.25271079344387,114.18399797471031L122.50990434734484,117.51127847453203L122.59563553197849,119.48569694166898L122.68136671661213,120.5955885688335L122.85282908587945,118.88479358127043L123.19575382441407,118.53497374866872L123.36721619368139,117.61835611542962L123.53867856294869,119.57059737212279L123.88160330148331,122.17068612007489L124.56745277855255,125.31063559637984L124.99610870172083,124.68926162356881L125.16757107098813,119.78268966693867L125.4247646248891,120.57811771868396L125.51049580952275,121.10950447642702L125.76768936342371,119.85138315678927L126.19634528659199,121.04034174826796L126.36780765585931,117.53963061169048L126.45353884049295,119.23310675553896L126.62500120976027,122.36582777177995L126.79646357902757,118.88501362396143L126.96792594829488,119.02903553970089L127.05365713292854,120.44426115081612L127.1393883175622,120.0527081238815L127.56804424073047,119.27865679883493L127.65377542536413,117.0140935788084L127.91096897926509,115.89692491478803L127.99670016389875,116.02189033146416L128.59681845633432,115.4908675528715L128.76828082560164,113.54395126245743L128.8540120102353,113.24812246232014L128.93974319486895,113.2679387909907L129.02547437950258,116.66198177042799L129.1969367487699,116.38094246524597L129.36839911803722,119.351934814028L129.45413030267088,120.44400086165865L129.9685174104728,118.85072030991738L130.48290451827472,121.57469756994519L130.65436688754204,121.87443363781067L131.16875399534396,123.27192699903236L131.25448517997762,124.03282576692422L131.42594754924494,120.86694909210851L131.59740991851223,122.85239138497028L131.68314110314589,121.14689696277686L131.94033465704686,123.41183073163305L132.02606584168052,125.25345046107687L132.2832593955815,125.84845900887458L132.36899058021513,121.87891893201929L132.79764650338342,121.28976755158604L132.88337768801708,118.86823071561147L132.9691088726507,117.55009407212067L133.05484005728437,116.92712583925045L133.22630242655168,120.39904380905384L133.397764795819,119.42995615775146L133.48349598045266,119.04686810284925L133.65495834971998,119.49785052471043L133.8264207189873,118.97548847944522L133.91215190362092,118.49919040111901L133.99788308825458,119.4470961435645L134.3408078267892,119.56691080344433L134.4551160729674,119.09571820663669L134.5408472576011,120.57712352507613L134.62657844223472,121.01249358457252L134.71230962686838,118.20602087768208L135.14096555003664,117.1432290329294L135.59819853474946,116.24967141192661L135.68392971938312,118.95585081479709L135.76966090401677,120.66381162083765L135.85539208865043,117.7929258050501L136.11258564255138,120.66070774854865L136.71270393498696,119.96433402951939L136.96989748888794,122.42169352954105L137.14135985815525,122.92062170840646L137.3985534120562,121.97958823059224L137.57001578132352,118.92624819394347L137.91294051985815,117.95144630221432L138.08440288912547,118.1898548728372L138.34159644302642,121.35213071610141L138.42732762766008,120.41552831914146L138.5987899969274,115.46386603120942L138.68452118156102,117.14891383546292L139.28463947399663,118.78351033059451L139.3703706586303,119.7908924435778L139.54183302789758,118.47739400070324L139.88475776643222,120.33427726498059L140.14195132033316,122.0502774899924L140.22768250496685,122.74066862079314L140.39914487423414,118.8480867441674L140.74206961276874,119.84994301200784L140.8278007974024,118.40950656379641L141.08499435130338,119.98603895893996L141.25645672057067,121.26755926921635L141.34218790520436,117.9937155790821L141.42791908983799,119.83168151057507L141.51365027447167,118.51770078085372L141.68511264373896,114.09205532878946L141.94230619763994,116.22353714872493L142.28523093617454,116.54991763385621L142.5424244900755,116.06132429322037L142.62815567470918,117.11357605969087L142.7138868593428,115.5531341706949L142.7996180439765,117.90895995129159L142.88534922861012,116.77680861000226L143.05681159787744,120.3761159770695L143.1425427825111,119.2209206728048L143.31400515177842,120.95185619697835L143.4854675210457,118.47572447591192L143.8283922595803,119.27952910036146L144.42851055201592,121.37786804549245L144.8571664751842,120.47419505438515L145.0286288444515,120.93236179030856L145.28582239835245,118.45742288165144L145.45728476761977,119.25333462748267L145.54301595225343,117.78473012858915L145.71447832152074,117.95922859616954L145.88594069078806,116.77390596405445L146.143134244689,120.03118810391936L146.2288654293227,114.50337576255043L146.48605898322364,116.02677174009708L146.57179016785727,117.25756602784551L146.9147149063919,116.78497032091232L147.17190846029288,116.78551209050917L147.42910201419383,119.42544180909232L147.94348912199578,118.40895182789049L148.11495149126307,116.18585030759948L148.4578762297977,119.75110105071613L148.62933859906502,119.57738699801811L148.80080096833234,121.2753176008701L148.9722633375996,123.42182398160989L149.0579945222333,122.52577025774102L149.4009192607679,121.16102918955278L149.48665044540155,120.21820003565017L149.5723816300352,115.65288007934896L149.65811281466887,117.32120675217627L149.74384399930253,120.58026669853952L150.08676873783716,121.10030931082203L150.25823110710445,121.80981993412169L150.3439622917381,125.94365637266692L150.60115584563906,124.544655126111L150.68688703027271,123.66701466856719L150.9440805841737,121.32831940235664L151.11554295344098,119.31096167347232L151.20127413807467,120.12956208159974L151.54419887660927,118.07286457653726L151.71566124587656,120.09476182522452L151.88712361514388,122.51565834656796L152.14431716904485,124.5506385369097L152.2300483536785,125.76065196488355L152.31577953831217,123.07212854178849L152.4872419075795,121.77350886635006L152.6587042768468,118.10114853912623L152.8301666461141,115.0845485763667L153.68747849245062,113.51149364860605L154.11613441561892,115.50741995368544L154.20186560025257,118.77255357043036L154.54479033878718,119.99598555481393L154.7162527080545,122.72553338781773L154.80198389268813,125.03167662577017L154.97344626195544,127.28876753259101L155.05917744658913,127.85502225690894L155.14490863122276,129.38897533061157L155.31637100049008,129.73537635162873L155.40210218512374,131.36638635318923L155.65929573902469,132.86374465636126L155.830758108292,128.21242133610545L155.91648929292566,127.75139428640779L156.00222047755932,128.57517298628147L156.17368284682664,129.36893322146528L156.34514521609395,129.1743336012134L156.6023387699949,129.39556375225553L156.68806995462856,131.23483861562102L156.9452635085295,132.77600973431538L157.0309946931632,135.44944207012162L157.20245706243048,134.92110782914207L157.37391943169777,135.56663976546406L157.80257535486606,136.59246361656787L157.97403772413338,135.09061420118508L158.1455000934007,132.37249571871826L158.31696246266802,130.8033653349337L158.48842483193533,128.26570197696896L158.57415601656896,129.3754574529433L159.0885431243709,127.33725036106212L159.51719904753915,129.83830334670205L159.60293023217284,130.27965980432006L159.77439260144016,130.60652473072852L159.86012378607379,130.28562886254693L160.20304852460842,132.1000119309087L160.28877970924205,133.38269295459915L160.46024207850937,132.32988743943008L160.71743563241034,133.95892822583727L161.06036037094498,134.70156004449427L161.1460915555786,136.04082884886176L161.23182274021224,134.2316964843106L161.83194103264785,134.25681592987246L161.9176722172815,129.40859252877843L162.60352169435075,130.4075189221992L162.77498406361806,128.87680767960612L162.8607152482517,127.88578027206077L163.032177617519,128.47745561786417L163.14648586369722,130.45096843352917L163.40367941759817,127.4102074097024L163.48941060223186,125.19240565854446L163.5751417868655,125.10402963057078L163.66087297149915,127.30079555964613L163.83233534076646,129.07694616437786L163.91806652540012,128.13477794839136L164.0895288946674,129.70994679586616L164.3467224485684,129.18526549479125L164.77537837173668,127.8379448393961L165.20403429490494,127.93461913672465L165.2897654795386,121.33134702586247L165.46122784880592,122.66475983839176L165.63269021807324,124.89769990063465L165.9756149566078,127.85634573239652L166.0613461412415,130.6717852470769L166.2328085105088,130.95589331645496L166.31853969514245,133.25343688057748L166.4042708797761,134.51838329291064L167.09012035684535,134.12875779869165L167.26158272611264,134.6729277910827L167.43304509537995,135.0822835578582L167.60450746464727,136.12758071109405L167.7759698339146,136.10447024767637L167.94743220318188,134.5909633006989L168.03316338781556,135.19255743330498L168.20462575708288,134.7210493822468L168.46181931098383,135.27670292534577L168.63328168025114,134.50821666164762L168.71901286488477,136.7151888327352L169.14766878805307,133.5397362840506L169.2333999726867,132.8069033865574L169.31913115732038,130.24547985272775L169.74778708048865,131.306530240427L169.8335182651223,129.32387489404664L170.09071181902326,128.87941979762093L170.1764430036569,124.9039714888277L170.86229248072615,125.44877400538874L170.9480236653598,125.99571323009582L171.37667958852808,127.26478016828065L171.63387314242905,129.02567337310046L171.89106669633003,128.5048870524539L171.97679788096366,130.719075307536L172.14826025023098,133.13617228488488L172.40545380413195,128.62489484433405L172.4911849887656,130.61851729497084L172.57691617339927,129.5309888844943L172.74837854266656,126.30008700462324L173.34849683510217,125.64993847144432L173.4342280197358,126.47817340151384L173.60569038900312,128.40903398595313L173.77715275827043,128.54568701962324L174.12007749680504,127.48499958359321L174.37727105070599,125.50557576294997L174.5487334199733,123.99093918857554L174.63446460460696,126.25055021618395L174.72019578924062,123.11284306378212L174.80592697387428,125.55303338363673L174.9773893431416,120.19465307661241L175.06312052777523,123.1567495612027L175.40604526630986,124.92557655639916L175.57750763557718,125.47265939829207L175.6632388202108,127.08981335716328L176.00616355874544,126.40109232616517L176.17762592801276,125.98371444384327L176.43481948191373,127.6298783149758L176.7777442204483,130.14583211810054L177.29213132825026,129.94925449719966L177.37786251288392,130.14954383046148L177.46359369751758,128.5279609391748L177.63505606678487,120.47051815919212L177.72078725141856,124.2174240722471L177.89224962068587,125.56935699765799L177.9779808053195,127.62318131485983L178.06371198995316,127.38698016351971L178.23517435922045,126.67346823970709L178.57809909775509,128.2445067951417L178.7495614670224,129.80321335100018L178.9210238362897,128.15291190759402L179.1782173901907,127.04268331358031L179.34967975945798,124.30679352380952L179.52114212872527,125.42152822070584L179.6926044979926,125.1513419201838L179.77833568262625,122.24208104901335L179.8640668672599,120.85628072130643L180.12126042116088,120.23303869397336L180.2927227904282,119.29911773567012L180.54991634432915,119.86721862222345L180.6356475289628,119.11781549828154L180.80710989823012,122.08866274394094L180.89284108286378,118.88101514350319L180.9785722674974,121.33428722461743L181.06430345213107,122.91400154677049L181.2357658213984,125.18861207832947L181.32149700603205,125.56233665188475L181.4072281906657,122.94780977397843L181.49295937529934,120.84255120683864L181.57869055993302,122.41198380129772L181.75015292920034,125.3413137015887L181.83588411383397,128.24422784709895L182.0073464831013,129.01255379168566L182.26454003700223,131.69793999888861L182.5217335909032,132.14813050720295L182.69319596017053,134.55758284927063L182.86465832943784,135.52771548250095L183.03612069870516,137.00858778253505L183.1218518833388,138.50984631171949L183.20758306797245,135.73236756267193L183.46477662187343,135.5573397059449L183.63623899114071,133.32102958758577L183.8934325450417,131.73312385561638L184.15062609894267,128.24001925966465L184.32208846820998,128.92537192372842L184.4078196528436,128.36619964915556L184.49355083747727,131.0084094480393L184.92220676064554,130.58697893605986L185.00793794527922,131.56411063067407L185.52232505308112,131.98404414213775L185.7795186069821,132.35534576127895L185.86524979161575,131.97601433863133L185.9509809762494,133.01619857721042L186.03671216088307,130.7283158350341L186.37963689941768,132.31492271381558L186.63683045331862,131.70814711364835L186.80829282258594,132.37690089228332L186.97975519185326,134.29371202639493L187.23694874575423,135.48065958498051L187.6656046689225,135.49279517625766L187.83706703818982,135.8261162657131L187.92279822282345,135.6637348270239L188.00852940745713,136.32562266459627L188.78011006916,138.68995324612823L189.4945366077738,140.40919284697512L189.6659989770411,138.0046086868032L189.75173016167477,138.5727742227121L189.83746134630843,141.45728226122543L190.694773192645,140.75828243125883L190.78050437727862,140.64932315233875L190.8662355619123,138.62668053979263L191.12342911581325,139.41924813358014L191.20916030044688,141.36345203570355L191.29489148508057,141.88801840827668L191.3806226697142,140.19031293164696L191.4663538543479,140.65757468513704L191.55208503898152,142.1430264207042L191.63781622361518,142.7316511537953L191.72354740824883,144.2959541497607L191.8092785928825,143.89147712683402L191.89500977751615,143.3227109306644L192.15220333141713,142.47295926432645L192.32366570068444,141.3503620702822L192.7523216238527,139.1529843393251L192.83805280848634,139.51481786915937L193.00951517775366,140.4395096141393L193.26670873165463,140.90545477059084L193.35243991628826,140.75530883864178L193.43817110092195,139.34842245144483L193.52390228555558,140.46041274199564L193.6953646548229,141.34318459262397L193.95255820872384,140.90713125513042L194.03828939335753,139.0656590416645L194.29548294725848,141.92178217719672L194.38121413189214,142.7745481683792L194.4669453165258,142.08658606534533L194.55267650115945,142.90656158462792L194.8098700550604,142.54779878285638L195.06706360896135,143.1745318152967L195.23852597822867,143.21232253084483L195.32425716286232,143.16901820147882L195.5814507167633,141.02247251255415L195.66718190139696,136.0351595667404L195.7529130860306,135.8790252367277L195.83864427066428,136.2156882102217L196.0101066399316,136.71784720387058L196.18156900919888,137.4971058172099L196.26730019383254,135.06952770335195L196.61022493236715,134.49645453280436L196.95314967090178,134.92906624387507L197.1246120401691,138.1255874996408L197.4675367787037,140.48358825961424L197.63899914797102,138.16108835948722L197.72473033260468,139.37574567045897L197.89619270187197,136.9609171066444L198.06765507113928,136.86617844018963L198.15338625577294,136.8120379857345L198.41057980967392,134.82793150765073L198.58204217894124,136.17822827556466L198.66777336357487,137.39319247209528L198.92496691747584,136.0158562076215L199.52508520991142,134.9974886715767L199.86800994844606,136.11957960013314L200.38239705624798,138.30251339545606L200.4681282408816,136.9662061158499L200.55385942551527,136.63120944068783L200.63959061014893,135.59611551783104L200.7253217947826,133.35156240573124L201.2397089025845,134.19916314836914L201.41117127185183,134.66497329658253L201.83982719502012,136.8902075820955L201.92555837965375,136.42353236609657L202.0112895642874,134.49117156886757L202.26848311818839,135.108152374359L202.35421430282202,136.94669791208867L202.7828702259903,138.7782992063017L203.3829885184259,140.76870572971774L203.5544508876932,139.41804787253605L203.72591325696052,142.25894567226305L203.81164444159415,141.6983108533232L204.24030036476245,141.1367632999713L204.32603154939608,139.11065069630104L204.41176273402976,137.3168358613735L204.4974939186634,136.40101732993296L204.75468747256434,136.03268242635824L204.92614984183166,137.70766203970118L205.2690745803663,136.3397120100169L205.35480576499995,135.1449566414271L205.6119993189009,132.95585432641656L205.6977305035346,134.24392166943383L205.78346168816822,134.62916941172983L205.95492405743553,136.5754971690144L206.12638642670285,137.3563320625937L206.21211761133648,137.93081835240275L206.55504234987112,138.59338206456763L206.72650471913843,136.76012930835412L206.9836982730394,134.8353714132324L207.06942945767304,135.74607736824902L207.4980853808413,136.00021298498496L207.66954775010862,134.55997691809682L208.0982036732769,135.84248209764792L208.26966604254423,137.01312469475414L208.35539722717786,136.86321523455914L208.44112841181155,136.33903459424917L208.52685959644518,137.29475705671246L208.6983219657125,134.78546363518134L208.78405315034612,135.57421104067336L208.8697843349798,135.96447760406517L208.95551551961344,136.80995268467342L209.0412467042471,138.1545913852823L209.72709618131637,139.3698639277571L209.89855855058366,139.42299355774506L209.98428973521732,141.39265573077893L210.07002091985098,141.48853776827596L210.24148328911826,139.7342056385965L210.9273327661875,139.75034639897078L211.18452632008848,136.81460474416193L211.3559886893558,133.03097472771043L211.87037579715772,135.8259482501037L212.1275693510587,137.14446244001914L212.299031720326,139.40772531437386L212.64195645886062,139.56299067955376L212.81341882812794,139.62513415818458L213.15634356666254,136.445707072772L213.2420747512962,135.7897316228872L213.41353712056352,132.82851624544463L213.67073067446447,132.519059192267L214.09938659763276,133.79265069253614L214.27084896690008,135.6517845937645L214.44231133616736,134.5531862833044L214.52804252080102,133.91921441246578L214.69950489006834,135.49639350965788L214.78523607470197,137.9414651113704L215.21389199787026,138.93644095628412L215.2996231825039,139.58116466467823L215.38535436713758,141.84118425781122L215.98547265957316,141.597494977281L216.41412858274143,142.63311659050797L216.75705332127603,140.22089029423182L217.01424687517698,140.53489022142955L217.27144042907798,136.66262421663035L217.3571716137116,133.46909024316892L217.9001357830581,131.91407319312722L217.98586696769178,133.03551993631902L218.24306052159272,131.7788631029047L218.32879170622638,132.7581308704415L218.5002540754937,131.20366856723354L219.70049066036486,130.5494265038352L219.78622184499852,130.74142792366433L219.87195302963215,129.15453610536505L219.95768421426584,130.01722501584294L220.12914658353316,132.3711557522413L220.3863401374341,131.50501430390386L220.64353369133505,131.28566682745537L220.98645842986969,129.18525131240023L221.07218961450334,125.14046961843513L221.15792079913697,126.86025448008391L221.3293831684043,128.46928570578805L221.5008455376716,131.05464229946082L221.67230790693893,129.07626101752498L221.92950146083987,129.62574444625477L222.2724261993745,129.37640406936384L222.6153509379091,130.66778323288543L222.95827567644375,128.20987535352572L223.04400686107738,125.85841864020114L223.2154692303447,117.18957632174869L223.55839396887933,120.95261526296174L223.72985633814662,121.150261344156L224.1585122613149,117.78540251929735L224.58716818448318,120.00433291142693L224.67289936911683,122.44094573672504L224.84436173838415,123.3255183417206L224.9300929230178,120.17726732386734L225.18728647691876,120.45756334659725L225.44448003081973,122.21907728798408L225.7016735847207,122.15546586316358L225.95886713862166,124.21745226170023L226.13032950788897,122.6651600892094L226.21606069252263,124.73427281554149L226.30179187715626,125.33728387236269L226.38752306178995,127.67295545054614L226.47325424642358,128.97766492063383L226.98764135422553,127.90053295056546L227.15910372349282,129.7236198481853L227.24483490812648,129.6023324883352L227.33056609276014,129.72697159060996L227.4162972773938,129.500956252953L227.8449532005621,131.0074947386707L227.93068438519572,132.24288652852272L228.01641556982938,133.29336142268858L228.1878779390967,134.0206520086914L228.359340308364,135.01722248396672L228.44507149299764,135.50483773408146L228.5308026776313,136.94959223443777L228.61653386226496,135.37355220706237L228.70226504689862,136.14125688574757L228.78799623153228,136.18904329117447L229.21665215470054,138.39035343514243L229.3023833393342,137.33297673699093L229.38811452396786,138.81154596780462L229.90250163176978,135.70578166481124L229.98823281640344,137.55606827947486L230.24542637030441,137.381116698624L230.41688873957173,135.76304092055435L230.50261992420536,135.84062890625808L230.58835110883902,134.24312311341072L230.84554466274,135.2170308597982L231.35993177054192,135.73315557428606L231.70285650907655,138.3774225943727L231.87431887834384,139.47912072128815L232.04578124761116,139.3346459097076L232.3029748015121,137.86115982528278L232.5601683554131,140.16700504446405L232.64589954004674,142.02877330672322L232.73163072468037,142.1381118108611L232.81736190931406,142.69500845437125L232.98882427858138,143.04846450585399L233.074555463215,144.17791400169048L233.70325081719517,145.87576756523657L233.7889820018288,146.54873676676502L233.87471318646246,145.08857669808293L233.96044437109612,145.89039343306385L234.04617555572977,145.84733399575282L234.13190674036343,146.51425678042406L234.2176379249971,145.87982283658525L234.30336910963072,141.9801293911774L234.38910029426438,141.54677833906834L234.47483147889804,141.03061997278942L234.56056266353167,140.51985824239927L234.64629384816536,139.77391580519094L234.81775621743267,138.4630075055763L234.9034874020663,135.28577496482868L234.98921858669996,135.47190161627896L235.07494977133362,135.744762503839L235.16068095596728,135.2621937065305L235.24641214060094,136.1391011238022L235.41787450986823,137.6438067270275L235.5036056945019,139.3737699412574L235.58933687913554,140.30864831243912L235.67506806376923,140.0508315341338L235.76079924840286,138.92100429334943L235.8465304330365,137.4769823029794L235.93226161767018,137.49732807989233L236.0179928023038,137.88745394688857L236.1037239869375,137.8191831056714L236.18945517157113,137.8191503147503L236.27518635620478,134.5460231907239L236.36091754083844,135.86349273561478L236.4466487254721,135.19273098576366L236.53237991010576,135.49781231027592L236.61811109473942,135.6026773523769L236.70384227937305,135.4540095392998L236.78957346400674,137.05871803986793L236.87530464864037,137.49564951665826L236.96103583327405,137.49561145395936L237.04676701790768,137.62630520585327L237.1324982025413,139.03840882131718L237.218229387175,139.38366329831743L237.30396057180863,141.43521107642218L237.38969175644232,140.65058582646884L237.47542294107595,142.5305342887695L237.5611541257096,142.81490024296403L237.64688531034327,142.12688557059965L237.73261649497692,142.6408245516837L237.81834767961058,138.88905607005654L237.90407886424424,139.03491566264492L237.98981004887787,141.1134163145687L238.07554123351156,137.82747542855404L238.41846597204614,135.72057879276625L238.50419715667982,135.5361256639437L238.76139071058077,136.03517746176206L239.01858426448175,137.3482621740946L239.19004663374906,136.54876677433674L239.61870255691733,138.61711423452272L239.87589611081827,139.15881870722015L240.47601440325388,138.69684022569777L240.56174558788751,140.85493436519937L241.1618638803231,140.5967213054162L241.41905743422407,139.7350147435477L241.67625098812505,138.98513769968048L241.84771335739234,139.71314500797467L242.19063809592697,139.93877609488584L242.44783164982795,137.590569413248L242.96221875762987,134.6351226479295L243.21941231153085,135.08844821613678L243.73379941933277,135.57374017066465L243.9052617886001,135.83496152462695L243.99099297323372,136.58298577006104L244.07672415786737,137.4176869017579L244.16245534250103,136.77942810890457L244.5911112656693,135.36879243300908L244.76257363493662,137.18563410616784L245.10549837347125,135.06741610362724L245.1912295581049,134.05396451173578L245.27696074273854,130.41348009978174L245.3626919273722,125.19362295867458L245.44842311200586,121.40871070305865L245.5341542966395,122.15608027565804L245.61988548127317,123.96781916581375L245.7056166659068,122.54921202570367L245.7913478505405,124.57552828588669L245.87707903517412,126.27480271713192L245.9628102198078,125.96667068282682L246.04854140444144,125.07210376431742L246.22000377370875,124.224688043213L246.39146614297607,119.7209980665624" style="fill: none;" fill="none"></path></g></g></g></g><g opacity="0.2"><g><g><g><path stroke="rgb(255, 112, 67)" stroke-width="2px" d="M43.15140443812501,146.1381207532536L43.322866807392316,125.28871415169638L43.580060361293285,74.74445031278614L43.66579154592694,108.13486891494199L43.922985099827905,84.03138502182568L44.351641022996176,114.50375686280799L44.523103392263494,102.4371013110423L44.6945657615308,107.42313555581565L44.951759315431765,95.71192498297648L45.20895286933273,128.57814131008507L45.38041523860004,75.19323710570865L45.980533531035626,131.02630408206238L46.06626471566927,134.19928104252966L46.15199590030293,120.5703057282681L46.32345826957024,130.04165742437766L46.4091894542039,88.71780096426228L46.49492063883755,91.76536658827943L46.75211419273851,123.16133581016439L46.83784537737217,77.21251816577588L47.09503893127314,131.1395428674432L47.26650130054045,115.73855309429987L47.43796366980775,82.22755243894625L47.52369485444141,107.64154404708759L47.69515722370872,137.45552765947923L47.86661959297603,112.03221808919353L47.95235077760968,103.70014337556181L49.15258736248085,120.69161359313857L49.83843683955009,114.96434316392894L49.92416802418374,85.60793718080835L50.0098992088174,113.39980136346304L50.352823947352014,120.5621961006403L50.61001750125298,33.20396947947694L50.69574868588664,89.53087223022563L51.038673424421255,125.59108567261276L51.29586697832222,123.05882200732134L51.553060532223185,95.36248112849454L51.895985270757805,100.20303676325275L51.981716455391464,91.75496193603297L52.067447640025115,112.31852038296543L52.153178824658774,114.50622218960683L52.6675659324607,119.32862036810641L53.35341540952994,76.39858727928399L53.69634014806455,121.93405720348348L53.95353370196552,94.02381678634578L54.21072725586649,135.69700356615633L54.29645844050014,134.22201638358422L54.46792080976745,109.73213306288606L54.81084554830207,136.2820037195292L54.89657673293573,140.96778711101084L55.49669502537131,104.32760148438004L56.18254450244055,114.04355171418553L56.52546924097516,140.8567825280415L56.61120042560882,118.59758204041208L56.69693161024247,129.5587007154454L57.125587533410744,95.35013016561739L57.46851227194537,90.72618268479775L57.811437010479985,121.7347144467645L57.89716819511364,100.49340198046619L58.411555302915566,113.89137455174983L58.668748856816535,119.76725796205272L58.75448004145019,109.44740403687398L58.840211226083845,58.35512805620124L58.925942410717504,117.12628068359683L59.09740477998481,85.95995989687594L59.44032951851943,105.90511868905043L59.697523072420395,111.5716966650936L59.8689854416877,129.7853242595043L60.040447810955015,123.0775957952797L60.12617899558867,112.00765402710893L60.46910373412329,117.68137658509218L60.6405661033906,91.47641244627326L60.897759657291566,114.64848127745373L61.32641558045984,121.72460174111262L61.66934031899446,130.750536194579L61.84080268826176,144.54504522797924L61.92653387289542,118.016312315748L62.01226505752907,143.20266667637696L62.09799624216273,108.80551890050587L62.3551897960637,114.46250318706535L62.526652165331,91.38933937443356L63.04103927313293,139.57098484839835L63.12677045776659,105.39712350481734L63.21250164240024,46.23249174492085L63.4696951963012,97.81724919217469L63.55542638093486,103.08094086766869L63.64115756556852,49.39518164274227L63.898351119469474,127.8318001150571L64.0698134887368,120.25674292122537L65.1843188889743,120.64137850479815L65.35578125824162,38.106969246969214L65.52724362750892,128.90166679466859L66.38455547384547,119.62485695572235L66.55601784311278,147.6373273387361L66.64174902774644,98.7210590816655L66.7274802123801,127.80106057153392L66.8989425816474,115.16351561846774L66.98467376628105,126.8847010332891L67.32759850481567,111.31119109680574L67.49906087408299,128.39952676158276L67.8419856126176,119.78751986668078L68.01344798188492,89.70443448071582L68.18491035115223,118.96995181219783L68.27064153578588,148.46430256126732L68.35637272041953,109.6876598649752L68.44210390505319,113.73832154953034L68.52783508968683,122.7573344358164L68.61356627432049,94.52173170343751L68.95649101285511,117.92467757836766L69.5566093052907,127.5104601751193L69.64234048992436,108.26490679395378L69.72807167455801,127.45595536783284L69.81380285919165,99.26352018331674L69.98526522845897,69.79971840152118L70.24245878235993,124.361341739133L70.92830825942919,112.7075230010158L71.01403944406283,118.9562019385549L71.18550181333013,143.0396996543825L71.27123299796379,101.71104634952526L71.52842655186475,60.64209170500693L71.61415773649841,114.79794171463409L71.87135129039937,121.84007067409107L71.95708247503303,82.2696008581964L71.98565953657759,108.34485150310863L72.07139072121124,124.15836992405059L72.24285309047855,114.39069243442117L72.3285842751122,102.47845230231646L72.41431545974586,116.03927430599398L72.58577782901317,109.63097356785688L72.67150901364683,85.36055299002227L72.84297138291414,102.03696417425896L73.35735849071607,90.8432289403498L73.44308967534971,105.25940580844203L73.61455204461703,120.66288118245328L73.70028322925069,87.07623392058751L73.95747678315165,98.17110468408616L74.0432079677853,127.33732368007956L74.21467033705262,84.61943034037279L74.30040152168625,124.65751750454174L74.38613270631991,78.66071924829335L74.47186389095357,98.63426984679278L74.90051981412185,98.28195518413058L75.15771336802281,126.66375422856966L75.32917573729013,101.70349628620377L75.41490692192379,89.48191440823658L75.58636929119109,110.59848458236407L75.67210047582473,100.9058738608714L75.7578316604584,73.5462771596614L75.84356284509205,92.45569053046839L75.92929402972571,97.44158691157205L76.95806824532957,130.47939079484348L77.12953061459687,132.61373530650775L77.21526179923053,135.9959366049585L77.30099298386418,117.34742211937933L77.4724553531315,104.16742822910335L77.55818653776515,85.31201686866989L77.64391772239881,113.43290486343972L77.90111127629977,140.36294675364655L78.07257364556709,106.47484435878634L78.50122956873535,132.32966316033352L78.84415430726997,130.21165549352543L79.1870790458046,125.71529272936017L79.27281023043825,66.74647603816457L79.87292852287382,105.03199563050322L79.95865970750748,130.86752568273766L80.04439089214114,102.63787136222378L80.1301220767748,65.77915154509282L80.21585326140844,93.34168356806092L80.38731563067576,85.56456689225486L80.55877799994308,63.269238013543614L80.81597155384404,133.83423426449184L80.9017027384777,125.9523087612241L81.07316510774498,100.08011913729818L81.33035866164596,116.42431942576198L81.58755221554692,102.03049269141198L81.8447457694479,119.7332988963613L81.93047695408154,118.5387223630895L82.10193932334886,86.976672022201L82.53059524651712,131.71202175575874L82.78778880041808,99.80214543110003L82.87351998505174,133.5487550979242L83.21644472358636,144.16848683352376L83.30217590822002,70.4775535171633L83.38790709285368,130.69465275059582L83.64510064675464,129.5492773281419L83.7308318313883,85.83919132224273L83.9022942006556,108.66522234254492L84.0737565699229,110.06310318563189L84.15948775455657,114.98077326950286L84.24521893919022,91.38555217833137L84.50241249309119,117.93160725517562L84.58814367772484,145.08087265423097L85.01679960089312,45.877176520036386L85.10253078552678,125.04169894896738L85.35972433942773,132.13062045983676L85.53118670869505,92.32847480187107L85.6169178933287,132.65704477285402L85.70264907796236,148.8101660151516L85.95984263186332,90.66244101164322L86.04557381649698,109.82953780032359L86.3884985550316,93.30321149459462L86.47422973966526,110.3055080650545L86.81715447819987,113.90426885967804L86.90288566283353,139.74732464635107L87.16007921673449,118.12066294924873L87.24581040136815,113.13303516264652L87.3315415860018,118.38173213665672L87.41727277063546,116.24336930450286L87.50300395526911,117.24970110646433L87.58873513990277,128.0193920213434L87.67446632453643,140.43264494829367L87.76019750917008,79.69247473286798L87.84592869380374,104.79954126417992L88.274584616972,146.48675769978658L88.36031580160565,120.12662800075111L88.61750935550663,98.26896356067084L88.87470290940759,134.48671868416946L89.0461652786749,117.34694365134929L89.21762764794221,132.96630947725404L89.73201475574413,99.57072098748547L89.81774594037779,127.51759664743176L89.90347712501145,82.85750020344621L89.9892083096451,112.60137608499551L90.07493949427875,49.9728466379258L90.16067067891241,115.59400709146195L90.24640186354607,117.47355926750215L90.76078897134799,129.0547603450262L91.01798252524895,116.22101106113301L91.10371370988261,105.13780194216315L91.53236963305089,127.68447656475666L91.87529437158551,125.73342180192212L91.96102555621917,121.15442598704337L92.21821911012012,105.56619302160175L92.30395029475378,146.04799440661202L92.47541266402109,122.01963810383965L92.6468750332884,138.65705008881423L92.98979977182302,116.90725586062517L93.07553095645667,134.55491254289166L93.5899180642586,121.51596129631837L93.76138043352591,126.05115295756556L94.10430517206053,126.50435544273141L94.1900363566942,132.82058757841008L94.3614987259615,134.9448761518159L94.61869227986247,122.40582262628936L94.70442346449612,117.1727407402765L94.79015464912976,115.8993507909039L95.21881057229804,116.03113223985568L95.3045417569317,113.20256710992729L95.47600412619902,125.94475058827499L96.0761224186346,124.54802942193879L96.59050952643652,132.03450109837826L96.76197189570384,126.1128307304888L96.84770308033748,119.06702810971643L97.27635900350576,70.09741472211013L97.44782137277308,64.52824959313212L97.962208480575,104.1455079056254L98.21940203447596,122.59766803226644L98.39086440374328,103.65398337510437L98.56232677301058,125.7020902555821L98.64805795764424,99.82248437719056L98.90525151154522,115.04935639035118L99.24817625007982,111.73637076370372L99.33390743471348,92.67970277443114L99.59110098861444,124.384851549626L99.6768321732481,136.73328827776106L99.76256335788176,130.21548323776577L100.01975691178272,113.91260555687941L100.10548809641638,111.39442020514986L100.19121928105002,132.47652040704537L100.27695046568367,90.19954346664834L100.44841283495099,117.57720841821308L100.96279994275292,126.96790581275033L101.04853112738657,140.61908934227063L101.30572468128754,95.58453084257135L101.47718705055485,91.76246334158868L101.73438060445581,127.0986370649243L101.90584297372311,79.37138213657282L101.99157415835677,143.2162421930259L102.33449889689139,142.84034473322208L102.42023008152505,114.21927112562472L102.5059612661587,97.12859583327707L102.76315482005967,101.17280225424048L102.84888600469333,114.4938144593363L103.19181074322793,67.71698761489402L103.27754192786159,106.88348849495125L103.62046666639621,89.25497458870021L103.70619785102987,117.47950362455333L104.13485377419815,97.98615651640652L104.30631614346547,144.38361903523406L104.64924088200007,100.71840359899952L104.82070325126739,75.74603798258535L104.90643443590103,146.8055066136973L104.99216562053469,87.19001199620557L105.07789680516835,96.82827199333671L105.33509035906931,136.1820687782718L105.67801509760395,114.68044942956251L105.9352086515049,130.40800985246358L106.02093983613855,108.70672741674402L106.36386457467317,120.03181428934067L106.53532694394049,133.71840850789778L106.62105812857413,123.70475790268952L106.87825168247511,129.34621225234176L107.22117642100972,108.25173675868623L107.56410115954434,128.364943254564L107.649832344178,124.63849637294074L107.82129471344531,133.87373220585306L107.99275708271261,97.96740705733104L108.16421945197993,131.6833907154188L108.50714419051454,69.77802514761682L108.5928753751482,148.07290354825295L108.93580011368282,131.29401099968374L109.27872485221744,95.49542225419708L109.53591840611841,118.79763033473469L110.3074990678213,99.49021671402429L110.4789614370886,113.63884074742009L110.65042380635592,104.63562947056681L111.16481091415785,89.81513900746293L111.25054209879148,117.93534984832584L111.67919802195976,56.16419861776397L111.76492920659342,67.77041384170599L112.1935851297617,103.12750634950751L112.27931631439536,126.416317325204L112.62224105292997,124.76713939600054L112.96516579146459,146.4586132371043L113.22235934536556,83.99505389005314L113.30809052999922,138.46339623587616L113.39382171463286,84.31701421650448L113.65101526853384,134.86885244761908L113.7367464531675,90.2198337549731L113.9082088224348,110.1526578035257L114.16540237633576,156.91577329505625L114.33686474560307,142.05224706553855L114.42259593023672,139.30112076982803L115.02271422267232,118.96592538208063L115.47994720738514,110.47718888193504L115.5656783920188,138.90401663377747L115.65140957665245,87.92066511658757L115.9086031305534,83.00531438621813L115.99433431518706,136.64953609843496L116.16579668445438,108.39469327450911L116.33725905372168,100.27878879492405L116.42299023835534,64.88419736897156L116.6801837922563,110.94275449441948L116.76591497688996,116.695083672999L116.93737734615728,122.24746187278748L117.02310853079094,135.19747077835285L117.19457090005822,110.2792572004233L117.36603326932554,145.54406620063426L117.4517644539592,113.24722682927359L117.6232268232265,124.22125603149036L117.70895800786016,138.98824728113362L117.88042037712748,73.75076952992403L118.2233451156621,124.81366027488743L118.48053866956306,29.036772445910316L118.5662698541967,137.58011181391132L118.73773222346402,106.3301199441406L118.99492577736498,113.51408223599401L119.08065696199864,138.234185720604L119.25211933126594,94.87723344975743L119.59504406980058,88.4006090988561L119.85223762370154,82.20191790601477L119.9379688083352,105.9121983939695L120.02369999296883,117.12272866669585L120.10943117760249,107.50569967469428L120.53808710077077,137.9662882267334L121.0524742085727,107.41147391128686L121.13820539320636,109.65744339243402L121.65259250100829,123.54655123211256L121.82405487027559,117.6614593396383L122.25271079344387,134.1230424332007L122.50990434734484,147.45680297292745L122.59563553197849,137.2554631459014L122.68136671661213,130.58461321331419L122.85282908587945,103.48763869320291L123.19575382441407,115.3865952552533L123.36721619368139,109.36879741627769L123.53867856294869,137.1407686823614L123.88160330148331,145.57148485164387L124.56745277855255,153.5701808831243L124.99610870172083,119.09689586826961L125.16757107098813,75.62354205726741L125.4247646248891,127.73697018439142L125.51049580952275,125.8919852961147L125.76768936342371,108.5282912800495L126.19634528659199,131.74096907157616L126.36780765585931,86.03323038249313L126.45353884049295,134.4743920501752L126.62500120976027,150.5603169179488L126.79646357902757,87.55768629359483L126.96792594829488,120.32523278135596L127.05365713292854,133.18129165085324L127.1393883175622,116.52873088146993L127.56804424073047,112.31219487341575L127.65377542536413,96.63302459856978L127.91096897926509,105.84240693860465L127.99670016389875,117.1465790815492L128.59681845633432,110.71166254553766L128.76828082560164,96.02170464873086L128.8540120102353,110.5856632610845L128.93974319486895,113.4462857490256L129.02547437950258,147.20836858536356L129.1969367487699,113.85158871860784L129.36839911803722,146.09086595306638L129.45413030267088,130.27259529033455L129.9685174104728,104.51119534424583L130.48290451827472,146.0904929101955L130.65436688754204,124.57205824859997L131.16875399534396,135.84936725002746L131.25448517997762,130.88091467795118L131.42594754924494,92.37405901876694L131.59740991851223,140.72137202072628L131.68314110314589,105.79744716303611L131.94033465704686,143.7962346513386L132.02606584168052,141.82802802607128L132.2832593955815,131.20353593905418L132.36899058021513,86.15305824032151L132.79764650338342,115.98740512768657L132.88337768801708,97.07439919184047L132.9691088726507,105.68686428070342L133.05484005728437,111.32041174341855L133.22630242655168,151.64630553728435L133.397764795819,110.70816729603008L133.48349598045266,115.59907560872931L133.65495834971998,123.55669232146113L133.8264207189873,114.27423007205832L133.91215190362092,114.21250769618312L133.99788308825458,127.97824782557376L134.3408078267892,120.6452427423628L134.4551160729674,114.85498483536804L134.5408472576011,133.90977139103097L134.62657844223472,124.93082412004009L134.71230962686838,92.94776651566809L135.14096555003664,107.5781024301553L135.59819853474946,108.20765282290151L135.68392971938312,143.31146544063154L135.76966090401677,136.0354588752026L135.85539208865043,91.95495346296217L136.11258564255138,146.47074524003548L136.71270393498696,113.69697055825618L136.96989748888794,144.53792902973586L137.14135985815525,127.41097531819526L137.3985534120562,113.51028693026421L137.57001578132352,91.44618786410444L137.91294051985815,109.17822927665199L138.08440288912547,120.33553200844327L138.34159644302642,149.81261330547935L138.42732762766008,111.98610674650186L138.5987899969274,70.89890543982098L138.68452118156102,132.31434407374462L139.28463947399663,133.49487878677888L139.3703706586303,128.8573314604274L139.54183302789758,106.65590801483226L139.88475776643222,137.04622664347647L140.14195132033316,137.49427951509867L140.22768250496685,128.95418879800002L140.39914487423414,83.81484985453577L140.74206961276874,128.86664942257175L140.8278007974024,105.44557852989345L141.08499435130338,134.17483051523186L141.25645672057067,132.801242061704L141.34218790520436,88.52912236787387L141.42791908983799,136.37337489401162L141.51365027447167,106.69187421336156L141.68511264373896,74.26124626021122L141.94230619763994,135.4068735281441L142.28523093617454,119.48734200003773L142.5424244900755,111.66398422749798L142.62815567470918,126.5838419579253L142.7138868593428,101.50915716973115L142.7996180439765,139.1113919766618L142.88534922861012,106.58744653839837L143.05681159787744,152.76988228067475L143.1425427825111,108.8241629344222L143.31400515177842,136.5302759145405L143.4854675210457,96.19053898631405L143.8283922595803,126.51377072040728L144.42851055201592,140.26291855167142L144.8571664751842,112.34113813441937L145.0286288444515,125.05586241361934L145.28582239835245,96.18297270373732L145.45728476761977,126.41654033996377L145.54301595225343,104.56728963854734L145.71447832152074,119.529714804393L145.88594069078806,106.1060022750187L146.143134244689,149.3467273627036L146.2288654293227,64.75306469023002L146.48605898322364,129.7373355380168L146.57179016785727,128.33471461758137L146.9147149063919,112.53160895851353L147.17190846029288,116.79038801688093L147.42910201419383,143.18480927634056L147.94348912199578,109.26054199707418L148.11495149126307,96.17793662498045L148.4578762297977,151.83835773876592L148.62933859906502,118.01396052373593L148.80080096833234,136.55669302653808L148.9722633375996,142.74038140826798L149.0579945222333,114.46128674292117L149.4009192607679,108.8783595758588L149.48665044540155,111.73273765052647L149.5723816300352,74.56500047263815L149.65811281466887,132.33614680762196L149.74384399930253,149.9118062158088L150.08676873783716,125.78069282136457L150.25823110710445,128.19541554381863L150.3439622917381,163.14818431957397L150.60115584563906,111.95364390710778L150.68688703027271,115.76825055067286L150.9440805841737,100.28006200646162L151.11554295344098,101.15474211351336L151.20127413807467,127.49696575474664L151.54419887660927,99.5625870309748L151.71566124587656,138.29183706341004L151.88712361514388,144.3037270386588L152.14431716904485,142.86546024998535L152.2300483536785,136.65077281664819L152.31577953831217,98.87541773393306L152.4872419075795,110.08593178740415L152.6587042768468,85.04990559411172L152.8301666461141,87.93514891153082L153.68747849245062,99.35399929876012L154.11613441561892,133.47075669939997L154.20186560025257,148.15875612113464L154.54479033878718,131.00687341426618L154.7162527080545,147.29146388485182L154.80198389268813,145.78696576734217L154.97344626195544,147.6025856939786L155.05917744658913,132.95131477577024L155.14490863122276,143.19455299393536L155.31637100049008,132.85298554078315L155.40210218512374,146.0454763672336L155.65929573902469,146.33996938490955L155.830758108292,86.35051145380322L155.91648929292566,123.60215083912877L156.00222047755932,135.98918128514455L156.17368284682664,136.51277533811972L156.34514521609395,127.42293701894626L156.6023387699949,131.38663511163466L156.68806995462856,147.7883123859105L156.9452635085295,146.64654980256478L157.0309946931632,159.51033309237752L157.20245706243048,130.16609966032627L157.37391943169777,141.37642719236192L157.80257535486606,145.82487827650215L157.97403772413338,121.57396946274002L158.1455000934007,107.90942937651674L158.31696246266802,116.68119188087259L158.48842483193533,105.42673175528644L158.57415601656896,139.36325673671223L159.0885431243709,108.99338653413153L159.51719904753915,152.34778021746152L159.60293023217284,134.25186792288216L159.77439260144016,133.54830906840465L159.86012378607379,127.39756604891268L160.20304852460842,148.42945954616448L160.28877970924205,144.92682216781327L160.46024207850937,122.85463780290857L160.71743563241034,148.62029530350188L161.06036037094498,141.38524641240716L161.1460915555786,148.0942480881693L161.23182274021224,117.94950520335018L161.83194103264785,134.48289093992912L161.9176722172815,85.77458191893204L162.60352169435075,139.39785646298625L162.77498406361806,115.10040649626819L162.8607152482517,118.96653360415272L163.032177617519,133.80253373009475L163.14648586369722,148.2125837745142L163.40367941759817,100.04335819526135L163.48941060223186,105.23218989812312L163.5751417868655,124.30864537880755L163.66087297149915,147.0716889213246L163.83233534076646,145.0623016069633L163.91806652540012,119.65526400451279L164.0895288946674,143.88646642313932L164.3467224485684,124.46313378511715L164.77537837173668,115.71205894083985L165.20403429490494,128.80468781268152L165.2897654795386,61.90189802810295L165.46122784880592,134.66547515115525L165.63269021807324,144.9941604608207L165.9756149566078,154.48415821825347L166.0613461412415,156.01074087920054L166.2328085105088,133.51286594085732L166.31853969514245,153.93132895768008L166.4042708797761,145.90290100390922L167.09012035684535,130.6221283507204L167.26158272611264,139.57045772260255L167.43304509537995,138.76648545883762L167.60450746464727,145.53525509021665L167.7759698339146,135.89647607691734L167.94743220318188,120.96940077790127L168.03316338781556,140.60690462675987L168.20462575708288,130.47747692272333L168.46181931098383,140.2775848132363L168.63328168025114,127.59184028836428L168.71901286488477,156.5779383725235L169.14766878805307,104.96066334588909L169.2333999726867,126.21140730911853L169.31913115732038,107.19266804826117L169.74778708048865,140.85598372972015L169.8335182651223,111.47997677662316L170.09071181902326,124.87932392978973L170.1764430036569,89.12493670968841L170.86229248072615,130.35199665443835L170.9480236653598,130.91816625245946L171.37667958852808,138.686382611944L171.63387314242905,144.8737122164788L171.89106669633003,123.8178101666349L171.97679788096366,150.64676960327498L172.14826025023098,154.8900450810249L172.40545380413195,88.02339787937655L172.4911849887656,148.56111935070183L172.57691617339927,119.74323319020536L172.74837854266656,97.22197008578357L173.34849683510217,119.79860167283418L173.4342280197358,133.93228777213957L173.60569038900312,145.78677924590673L173.77715275827043,129.77556432265425L174.12007749680504,117.93881265932292L174.37727105070599,107.69076137716071L174.5487334199733,110.35921001920579L174.63446460460696,146.58704946465957L174.72019578924062,94.87347869216576L174.80592697387428,147.5147462623281L174.9773893431416,71.96923031339342L175.06312052777523,149.81561792251546L175.40604526630986,140.84501951316736L175.57750763557718,130.3964049753282L175.6632388202108,141.64419898700427L176.00616355874544,120.20260304718215L176.17762592801276,122.2273135029462L176.43481948191373,142.44535315516856L176.7777442204483,152.78941634622322L177.29213132825026,128.18005590909158L177.37786251288392,131.95214782981793L177.46359369751758,113.93371491759459L177.63505606678487,47.95353313934805L177.72078725141856,157.9395772897418L177.89224962068587,137.7367533263561L177.9779808053195,146.10760016967635L178.06371198995316,125.26116980145855L178.23517435922045,120.25186092539343L178.57809909775509,142.38385379405315L178.7495614670224,143.83157235372676L178.9210238362897,113.30019891693838L179.1782173901907,117.05062596745705L179.34967975945798,99.68378541587228L179.52114212872527,135.45414049277275L179.6926044979926,122.71966521548526L179.77833568262625,96.05873320847941L179.8640668672599,108.3840777719443L180.12126042116088,114.62386044797572L180.2927227904282,110.89382911094096L180.54991634432915,124.9801266012033L180.6356475289628,112.37318738280443L180.80710989823012,148.82628795487565L180.89284108286378,90.01218673956325L180.9785722674974,143.41373595464574L181.06430345213107,137.13143044614796L181.2357658213984,145.66010686236046L181.32149700603205,128.92585781388232L181.4072281906657,99.41706787282153L181.49295937529934,101.89522410258024L181.57869055993302,136.53687715142954L181.75015292920034,151.70528280420754L181.83588411383397,154.37045515669098L182.0073464831013,135.92748729296605L182.26454003700223,155.86641586371547L182.5217335909032,136.19984508203194L182.69319596017053,156.2426539278797L182.86465832943784,144.25890918157373L183.03612069870516,150.3364384828419L183.1218518833388,152.02117307437945L183.20758306797245,110.73505882124385L183.46477662187343,133.9820889954019L183.63623899114071,113.19423852235354L183.8934325450417,117.44197226789186L184.15062609894267,96.80207789609891L184.32208846820998,135.09354590030256L184.4078196528436,123.3336491779999L184.49355083747727,154.7882976379927L184.92220676064554,126.79410432824511L185.00793794527922,140.358295882202L185.52232505308112,135.7634457453109L185.7795186069821,135.6970603335497L185.86524979161575,128.56203153480246L185.9509809762494,142.37785672442237L186.03671216088307,110.13737115544728L186.37963689941768,146.59438462284893L186.63683045331862,126.24716671214333L186.80829282258594,138.39568489999783L186.97975519185326,151.5450122333993L187.23694874575423,146.1631876122511L187.6656046689225,135.6020154977519L187.83706703818982,138.82600607081184L187.92279822282345,134.20230187882103L188.00852940745713,142.28261320274765L188.78011006916,159.96892847991586L189.4945366077738,155.88234925459722L189.6659989770411,116.36335124525618L189.75173016167477,143.68626404589182L189.83746134630843,167.41785460784553L190.694773192645,134.46728396155942L190.78050437727862,139.6686896420581L190.8662355619123,120.42289702687756L191.12342911581325,146.55235647766784L191.20916030044688,158.86128715481408L191.29489148508057,146.60911576143482L191.3806226697142,124.91096364197959L191.4663538543479,144.86293046654762L191.55208503898152,155.5120920408085L191.63781622361518,148.02927375161536L191.72354740824883,158.37468111344933L191.8092785928825,140.251183920494L191.89500977751615,138.20381516513788L192.15220333141713,134.82519426728481L192.32366570068444,131.24698732388393L192.7523216238527,119.37658476071104L192.83805280848634,142.77131963766803L193.00951517775366,148.76173531895836L193.26670873165463,145.09896117865478L193.35243991628826,139.40399545110049L193.43817110092195,126.68644496667224L193.52390228555558,150.46832535695285L193.6953646548229,149.28813124827894L193.95255820872384,136.98265121768833L194.03828939335753,122.4924091204714L194.29548294725848,167.62689039698662L194.38121413189214,150.4494420890215L194.4669453165258,135.89492713804043L194.55267650115945,150.28634125817118L194.8098700550604,139.31893356691248L195.06706360896135,148.8151291072598L195.23852597822867,143.55243897077784L195.32425716286232,142.7792792371847L195.5814507167633,121.7035613122323L195.66718190139696,91.1493430544164L195.7529130860306,134.47381626661362L195.83864427066428,139.24565497166768L196.0101066399316,141.23727814671028L196.18156900919888,144.5104333372638L196.26730019383254,113.2213246786304L196.61022493236715,129.33879599787613L196.95314967090178,138.82257164351148L197.1246120401691,166.89427880153252L197.4675367787037,161.70559509937493L197.63899914797102,117.25858925834439L197.72473033260468,150.30766146920465L197.89619270187197,115.22746003231295L198.06765507113928,136.01353044209702L198.15338625577294,136.3247738956382L198.41057980967392,116.97097320489681L198.58204217894124,148.33089918679L198.66777336357487,148.327870240871L198.92496691747584,123.61982982735738L199.52508520991142,125.83218084717348L199.86800994844606,146.21839795714118L200.38239705624798,157.94891755336215L200.4681282408816,124.93944059939463L200.55385942551527,133.61623936422893L200.63959061014893,126.28027021212L200.7253217947826,113.15058439683308L201.2397089025845,141.8275698321103L201.41117127185183,138.8572646305032L201.83982719502012,156.91731615171244L201.92555837965375,132.223455422106L202.0112895642874,117.09992439380648L202.26848311818839,140.66097962378205L202.35421430282202,153.4936077516557L202.7828702259903,155.26271085421908L203.3829885184259,158.68236444046192L203.5544508876932,127.26212715790078L203.72591325696052,167.82702586980622L203.81164444159415,136.65259748286445L204.24030036476245,136.08283531980422L204.32603154939608,120.87563726326863L204.41176273402976,121.17250234702573L204.4974939186634,128.158650546968L204.75468747256434,132.71766829418567L204.92614984183166,152.78247855978765L205.2690745803663,124.0281617428586L205.35480576499995,124.39215832411864L205.6119993189009,113.25393349132179L205.6977305035346,145.83652775658948L205.78346168816822,138.09639909239382L205.95492405743553,154.09244698457542L206.12638642670285,144.38384610480765L206.21211761133648,143.1011949606841L206.55504234987112,144.55645547405157L206.72650471913843,120.26085450243265L206.9836982730394,117.51255035713662L207.06942945767304,143.9424309633988L207.4980853808413,138.28743353560813L207.66954775010862,121.59785231610391L208.0982036732769,147.3850287136076L208.26966604254423,147.5489080687102L208.35539722717786,135.51403009280406L208.44112841181155,131.62140883145952L208.52685959644518,145.89625921888205L208.6983219657125,112.20182284140138L208.78405315034612,142.67293769010138L208.8697843349798,139.47687667459155L208.95551551961344,144.41922841014775L209.0412467042471,150.2563396907621L209.72709618131637,150.30731681003047L209.89855855058366,139.90116022763667L209.98428973521732,159.11961528808388L210.07002091985098,142.35147610574916L210.24148328911826,123.94521647148144L210.9273327661875,139.89561324233924L211.18452632008848,110.39292985088218L211.3559886893558,98.97830457964697L211.87037579715772,160.98070995164323L212.1275693510587,149.011090149258L212.299031720326,159.77709118356643L212.64195645886062,140.96037896617284L212.81341882812794,140.18442546586192L213.15634356666254,107.8308633040586L213.2420747512962,129.88595257392387L213.41353712056352,106.17757784846167L213.67073067446447,129.7339457136684L214.09938659763276,145.2549741949584L214.27084896690008,152.38398970481964L214.44231133616736,124.66580148916354L214.52804252080102,128.21346757491813L214.69950489006834,149.69100538438664L214.78523607470197,159.94710952678327L215.21389199787026,147.8912235605073L215.2996231825039,145.38367804022542L215.38535436713758,162.18136059600826L215.98547265957316,139.40429145250891L216.41412858274143,151.95371110955068L216.75705332127603,118.51085362774657L217.01424687517698,143.36088956620918L217.27144042907798,101.81223017343734L217.3571716137116,104.72728448201623L217.9001357830581,117.91891974275191L217.98586696769178,143.12854062504505L218.24306052159272,120.46895160217585L218.32879170622638,141.571540778273L218.5002540754937,117.21350783836145L219.70049066036486,124.66124793325054L219.78622184499852,132.4694407021263L219.87195302963215,114.87250974067172L219.95768421426584,137.78142521014385L220.12914658353316,153.5565323798267L220.3863401374341,123.70974126886681L220.64353369133505,129.3115395394191L220.98645842986969,110.28151167690382L221.07218961450334,88.73743437274918L221.15792079913697,142.33831823492304L221.3293831684043,142.9505667371253L221.5008455376716,154.3228516425158L221.67230790693893,111.27082948010218L221.92950146083987,134.5710953048229L222.2724261993745,127.13234067734544L222.6153509379091,142.29019570457967L222.95827567644375,106.08870443928859L223.04400686107738,104.69530822027981L223.2154692303447,39.169995455676656L223.55839396887933,154.8199657338793L223.72985633814662,122.92907607490416L224.1585122613149,87.5016730955696L224.58716818448318,139.9747064405932L224.67289936911683,144.37046116440797L224.84436173838415,131.28667178668059L224.9300929230178,91.843008163188L225.18728647691876,122.98022755116652L225.44448003081973,138.0727027604654L225.7016735847207,121.58296303977926L225.95886713862166,142.77532984853L226.13032950788897,108.6945305367918L226.21606069252263,143.3562873525304L226.30179187715626,130.76438338375348L226.38752306178995,148.69399965419717L226.47325424642358,140.72005015142295L226.98764135422553,118.20634521995026L227.15910372349282,146.13140192676394L227.24483490812648,128.51074624968425L227.33056609276014,130.84872351108262L227.4162972773938,127.46681821404027L227.8449532005621,144.56634111012988L227.93068438519572,143.36141263719117L228.01641556982938,142.74763547018105L228.1878779390967,140.56626728271695L228.359340308364,143.98635676144477L228.44507149299764,139.89337498511395L228.5308026776313,149.9523827376445L228.61653386226496,121.18919196068376L228.70226504689862,143.05059899391426L228.78799623153228,136.6191209400169L229.21665215470054,158.20214473085406L229.3023833393342,127.81658645362735L229.38811452396786,152.11866904512777L229.90250163176978,107.75390293787076L229.98823281640344,154.2086478114473L230.24542637030441,135.80655247096647L230.41688873957173,121.20035891792723L230.50261992420536,136.53892077759176L230.58835110883902,119.86557097778456L230.84554466274,143.98220057728554L231.35993177054192,140.3782780046769L231.70285650907655,162.17582577515228L231.87431887834384,149.39440386352746L232.04578124761116,138.0343726054826L232.3029748015121,124.59978506545943L232.5601683554131,160.91961201709537L232.64589954004674,158.7846876670557L232.73163072468037,143.12215834810198L232.81736190931406,147.70707824596283L232.98882427858138,146.22956896919848L233.074555463215,154.34295946421892L233.70325081719517,161.1564496371515L233.7889820018288,152.60545958052109L233.87471318646246,131.94713607994396L233.96044437109612,153.10674404789216L234.04617555572977,145.45979905995378L234.13190674036343,152.51656184246514L234.2176379249971,140.1699173420358L234.30336910963072,106.88288838250679L234.38910029426438,137.6466188700869L234.47483147889804,136.38519467627916L234.56056266353167,135.92300266888788L234.64629384816536,133.06043387031613L234.81775621743267,126.66483280904416L234.9034874020663,106.69068209810028L234.98921858669996,137.14704147933148L235.07494977133362,138.20051049187956L235.16068095596728,130.9190745307538L235.24641214060094,144.03126787924754L235.41787450986823,151.1861571560553L235.5036056945019,154.94343886932637L235.58933687913554,148.72255365307464L235.67506806376923,137.730480529386L235.76079924840286,128.75255912629L235.8465304330365,124.48078438964907L235.93226161767018,137.68044007210867L236.0179928023038,141.39858674985487L236.1037239869375,137.20474553471712L236.18945517157113,137.81885519645996L236.27518635620478,105.08787907448641L236.36091754083844,147.7207186396328L236.4466487254721,129.15587523710346L236.53237991010576,138.24354423088647L236.61811109473942,136.5464627312856L236.70384227937305,134.115999221606L236.78957346400674,151.50109454498093L236.87530464864037,141.42803280777144L236.96103583327405,137.49526888966926L237.04676701790768,138.80254897289842L237.1324982025413,151.74734136049221L237.218229387175,142.49095359131968L237.30396057180863,159.89914107936482L237.38969175644232,133.58895857688898L237.47542294107595,159.45007044947533L237.5611541257096,145.37419383071472L237.64688531034327,135.93475351932057L237.73261649497692,147.2662753814399L237.81834767961058,105.12313973541208L237.90407886424424,140.3476519959405L237.98981004887787,159.81992218188265L238.07554123351156,108.25400745442201L238.41846597204614,116.75850907067604L238.50419715667982,133.8760475045408L238.76139071058077,140.5266436421275L239.01858426448175,149.16602458508714L239.19004663374906,129.3533081765161L239.61870255691733,157.23224137619667L239.87589611081827,144.03415896149687L240.47601440325388,134.5390338919964L240.56174558788751,160.27778162071377L241.1618638803231,138.27280376736758L241.41905743422407,131.97965568673143L241.67625098812505,132.23624430487507L241.84771335739234,146.26521078262266L242.19063809592697,141.96945587708632L242.44783164982795,116.45670927850742L242.96221875762987,108.03610176006299L243.21941231153085,139.16837833000235L243.73379941933277,139.94136776141528L243.9052617886001,138.18595371028766L243.99099297323372,143.31520397896796L244.07672415786737,144.92999708702953L244.16245534250103,131.03509897322473L244.5911112656693,122.67307134994974L244.76257363493662,153.53720916459656L245.10549837347125,116.003454080762L245.1912295581049,124.93290018471279L245.27696074273854,97.64912039219512L245.3626919273722,78.21490868871024L245.44842311200586,87.34450040251518L245.5341542966395,128.88240642905257L245.61988548127317,140.2734691772152L245.7056166659068,109.78174776471295L245.7913478505405,142.81237462753379L245.87707903517412,141.56827259833898L245.9628102198078,123.19348237408099L246.04854140444144,117.02100149773271L246.22000377370875,116.5979465532732L246.39146614297607,79.18778827670702" style="fill: none;" fill="none"></path></g></g></g></g></g></g><g transform="translate(64, 177)" clip-path="url(#clip_1)"><clipPath id="clip_1"><rect width="266" height="23"></rect></clipPath><g><g><line x1="14.288572278127885" y1="0" x2="14.288572278127885" y2="5" style="visibility: inherit;" fill="rgb(0, 0, 0)" stroke="rgb(204, 204, 204)" stroke-width="1px"></line><line x1="42.86563382267949" y1="0" x2="42.86563382267949" y2="5" style="visibility: inherit;" fill="rgb(0, 0, 0)" stroke="rgb(204, 204, 204)" stroke-width="1px"></line><line x1="71.4426953672311" y1="0" x2="71.4426953672311" y2="5" style="visibility: inherit;" fill="rgb(0, 0, 0)" stroke="rgb(204, 204, 204)" stroke-width="1px"></line><line x1="100.01975691178272" y1="0" x2="100.01975691178272" y2="5" style="visibility: inherit;" fill="rgb(0, 0, 0)" stroke="rgb(204, 204, 204)" stroke-width="1px"></line><line x1="128.59681845633432" y1="0" x2="128.59681845633432" y2="5" style="visibility: inherit;" fill="rgb(0, 0, 0)" stroke="rgb(204, 204, 204)" stroke-width="1px"></line><line x1="157.17388000088593" y1="0" x2="157.17388000088593" y2="5" style="visibility: inherit;" fill="rgb(0, 0, 0)" stroke="rgb(204, 204, 204)" stroke-width="1px"></line><line x1="185.75094154543757" y1="0" x2="185.75094154543757" y2="5" style="visibility: inherit;" fill="rgb(0, 0, 0)" stroke="rgb(204, 204, 204)" stroke-width="1px"></line><line x1="214.32800308998915" y1="0" x2="214.32800308998915" y2="5" style="visibility: inherit;" fill="rgb(0, 0, 0)" stroke="rgb(204, 204, 204)" stroke-width="1px"></line><line x1="242.90506463454076" y1="0" x2="242.90506463454076" y2="5" style="visibility: inherit;" fill="rgb(0, 0, 0)" stroke="rgb(204, 204, 204)" stroke-width="1px"></line></g><g transform="translate(0, 8)"><text x="14.288572278127885" y="0" dx="0em" dy="0.95em" style="text-anchor: middle; visibility: hidden; font-family: &quot;Helvetica Neue&quot;, sans-serif; font-size: 12px; font-weight: 200;" fill="rgb(50, 49, 63)" stroke="none" stroke-width="1px">-100k</text><text x="42.86563382267949" y="0" dx="0em" dy="0.95em" style="text-anchor: middle; visibility: inherit; font-family: &quot;Helvetica Neue&quot;, sans-serif; font-size: 12px; font-weight: 200;" fill="rgb(50, 49, 63)" stroke="none" stroke-width="1px">0</text><text x="71.4426953672311" y="0" dx="0em" dy="0.95em" style="text-anchor: middle; visibility: hidden; font-family: &quot;Helvetica Neue&quot;, sans-serif; font-size: 12px; font-weight: 200;" fill="rgb(50, 49, 63)" stroke="none" stroke-width="1px">100k</text><text x="100.01975691178272" y="0" dx="0em" dy="0.95em" style="text-anchor: middle; visibility: inherit; font-family: &quot;Helvetica Neue&quot;, sans-serif; font-size: 12px; font-weight: 200;" fill="rgb(50, 49, 63)" stroke="none" stroke-width="1px">200k</text><text x="128.59681845633432" y="0" dx="0em" dy="0.95em" style="text-anchor: middle; visibility: hidden; font-family: &quot;Helvetica Neue&quot;, sans-serif; font-size: 12px; font-weight: 200;" fill="rgb(50, 49, 63)" stroke="none" stroke-width="1px">300k</text><text x="157.17388000088593" y="0" dx="0em" dy="0.95em" style="text-anchor: middle; visibility: inherit; font-family: &quot;Helvetica Neue&quot;, sans-serif; font-size: 12px; font-weight: 200;" fill="rgb(50, 49, 63)" stroke="none" stroke-width="1px">400k</text><text x="185.75094154543757" y="0" dx="0em" dy="0.95em" style="text-anchor: middle; visibility: hidden; font-family: &quot;Helvetica Neue&quot;, sans-serif; font-size: 12px; font-weight: 200;" fill="rgb(50, 49, 63)" stroke="none" stroke-width="1px">500k</text><text x="214.32800308998915" y="0" dx="0em" dy="0.95em" style="text-anchor: middle; visibility: inherit; font-family: &quot;Helvetica Neue&quot;, sans-serif; font-size: 12px; font-weight: 200;" fill="rgb(50, 49, 63)" stroke="none" stroke-width="1px">600k</text><text x="242.90506463454076" y="0" dx="0em" dy="0.95em" style="text-anchor: middle; visibility: hidden; font-family: &quot;Helvetica Neue&quot;, sans-serif; font-size: 12px; font-weight: 200;" fill="rgb(50, 49, 63)" stroke="none" stroke-width="1px">700k</text></g><line x1="0" y1="0" x2="266" y2="0" fill="rgb(0, 0, 0)" stroke="rgb(204, 204, 204)" stroke-width="1px"></line></g></g></g></g></svg>