<svg viewBox="0 0 330 200" xmlns="http://www.w3.org/2000/svg"><g><g><g><g><g><line x1="64" y1="167.03686149472009" x2="59" y2="167.03686149472009" style="visibility: inherit;" fill="rgb(0, 0, 0)" stroke="rgb(204, 204, 204)" stroke-width="1px"></line><line x1="64" y1="152.65183010004907" x2="59" y2="152.65183010004907" style="visibility: inherit;" fill="rgb(0, 0, 0)" stroke="rgb(204, 204, 204)" stroke-width="1px"></line><line x1="64" y1="138.26679870537808" x2="59" y2="138.26679870537808" style="visibility: inherit;" fill="rgb(0, 0, 0)" stroke="rgb(204, 204, 204)" stroke-width="1px"></line><line x1="64" y1="123.88176731070706" x2="59" y2="123.88176731070706" style="visibility: inherit;" fill="rgb(0, 0, 0)" stroke="rgb(204, 204, 204)" stroke-width="1px"></line><line x1="64" y1="109.49673591603607" x2="59" y2="109.49673591603607" style="visibility: inherit;" fill="rgb(0, 0, 0)" stroke="rgb(204, 204, 204)" stroke-width="1px"></line><line x1="64" y1="95.11170452136507" x2="59" y2="95.11170452136507" style="visibility: inherit;" fill="rgb(0, 0, 0)" stroke="rgb(204, 204, 204)" stroke-width="1px"></line><line x1="64" y1="80.72667312669407" x2="59" y2="80.72667312669407" style="visibility: inherit;" fill="rgb(0, 0, 0)" stroke="rgb(204, 204, 204)" stroke-width="1px"></line><line x1="64" y1="66.34164173202305" x2="59" y2="66.34164173202305" style="visibility: inherit;" fill="rgb(0, 0, 0)" stroke="rgb(204, 204, 204)" stroke-width="1px"></line><line x1="64" y1="51.95661033735206" x2="59" y2="51.95661033735206" style="visibility: inherit;" fill="rgb(0, 0, 0)" stroke="rgb(204, 204, 204)" stroke-width="1px"></line><line x1="64" y1="37.57157894268104" x2="59" y2="37.57157894268104" style="visibility: inherit;" fill="rgb(0, 0, 0)" stroke="rgb(204, 204, 204)" stroke-width="1px"></line><line x1="64" y1="23.186547548010026" x2="59" y2="23.186547548010026" style="visibility: inherit;" fill="rgb(0, 0, 0)" stroke="rgb(204, 204, 204)" stroke-width="1px"></line><line x1="64" y1="8.801516153339037" x2="59" y2="8.801516153339037" style="visibility: inherit;" fill="rgb(0, 0, 0)" stroke="rgb(204, 204, 204)" stroke-width="1px"></line></g><g transform="translate(54, 0)"><text x="0" y="167.03686149472009" dx="0em" dy="0.3em" style="text-anchor: end; visibility: inherit; font-family: &quot;Helvetica Neue&quot;, sans-serif; font-size: 12px; font-weight: 200;" fill="rgb(50, 49, 63)" stroke="none" stroke-width="1px">100</text><text x="0" y="152.65183010004907" dx="0em" dy="0.3em" style="text-anchor: end; visibility: hidden; font-family: &quot;Helvetica Neue&quot;, sans-serif; font-size: 12px; font-weight: 200;" fill="rgb(50, 49, 63)" stroke="none" stroke-width="1px">200</text><text x="0" y="138.26679870537808" dx="0em" dy="0.3em" style="text-anchor: end; visibility: inherit; font-family: &quot;Helvetica Neue&quot;, sans-serif; font-size: 12px; font-weight: 200;" fill="rgb(50, 49, 63)" stroke="none" stroke-width="1px">300</text><text x="0" y="123.88176731070706" dx="0em" dy="0.3em" style="text-anchor: end; visibility: hidden; font-family: &quot;Helvetica Neue&quot;, sans-serif; font-size: 12px; font-weight: 200;" fill="rgb(50, 49, 63)" stroke="none" stroke-width="1px">400</text><text x="0" y="109.49673591603607" dx="0em" dy="0.3em" style="text-anchor: end; visibility: inherit; font-family: &quot;Helvetica Neue&quot;, sans-serif; font-size: 12px; font-weight: 200;" fill="rgb(50, 49, 63)" stroke="none" stroke-width="1px">500</text><text x="0" y="95.11170452136507" dx="0em" dy="0.3em" style="text-anchor: end; visibility: hidden; font-family: &quot;Helvetica Neue&quot;, sans-serif; font-size: 12px; font-weight: 200;" fill="rgb(50, 49, 63)" stroke="none" stroke-width="1px">600</text><text x="0" y="80.72667312669407" dx="0em" dy="0.3em" style="text-anchor: end; visibility: inherit; font-family: &quot;Helvetica Neue&quot;, sans-serif; font-size: 12px; font-weight: 200;" fill="rgb(50, 49, 63)" stroke="none" stroke-width="1px">700</text><text x="0" y="66.34164173202305" dx="0em" dy="0.3em" style="text-anchor: end; visibility: hidden; font-family: &quot;Helvetica Neue&quot;, sans-serif; font-size: 12px; font-weight: 200;" fill="rgb(50, 49, 63)" stroke="none" stroke-width="1px">800</text><text x="0" y="51.95661033735206" dx="0em" dy="0.3em" style="text-anchor: end; visibility: inherit; font-family: &quot;Helvetica Neue&quot;, sans-serif; font-size: 12px; font-weight: 200;" fill="rgb(50, 49, 63)" stroke="none" stroke-width="1px">900</text><text x="0" y="37.57157894268104" dx="0em" dy="0.3em" style="text-anchor: end; visibility: hidden; font-family: &quot;Helvetica Neue&quot;, sans-serif; font-size: 12px; font-weight: 200;" fill="rgb(50, 49, 63)" stroke="none" stroke-width="1px">1e+3</text><text x="0" y="23.186547548010026" dx="0em" dy="0.3em" style="text-anchor: end; visibility: inherit; font-family: &quot;Helvetica Neue&quot;, sans-serif; font-size: 12px; font-weight: 200;" fill="rgb(50, 49, 63)" stroke="none" stroke-width="1px">1.1e+3</text><text x="0" y="8.801516153339037" dx="0em" dy="0.3em" style="text-anchor: end; visibility: hidden; font-family: &quot;Helvetica Neue&quot;, sans-serif; font-size: 12px; font-weight: 200;" fill="rgb(50, 49, 63)" stroke="none" stroke-width="1px">1.2e+3</text></g><line x1="64" y1="0" x2="64" y2="177" fill="rgb(0, 0, 0)" stroke="rgb(204, 204, 204)" stroke-width="1px"></line></g></g><g transform="translate(64, 0)" clip-path="url(#clip_0)"><clipPath id="clip_0"><rect width="266" height="177"></rect></clipPath><g><g><g><line x1="8.080901376167862" y1="0" x2="8.080901376167862" y2="177" fill="rgb(0, 0, 0)" stroke="rgb(60, 60, 60)" stroke-width="1px" opacity="0.25"></line><line x1="34.303148446207345" y1="0" x2="34.303148446207345" y2="177" fill="rgb(0, 0, 0)" stroke="rgb(60, 60, 60)" stroke-width="1px" opacity="0.25"></line><line x1="60.52539551624684" y1="0" x2="60.52539551624684" y2="177" fill="rgb(0, 0, 0)" stroke="rgb(60, 60, 60)" stroke-width="1px" opacity="0.25"></line><line x1="86.74764258628632" y1="0" x2="86.74764258628632" y2="177" fill="rgb(0, 0, 0)" stroke="rgb(60, 60, 60)" stroke-width="1px" opacity="0.25"></line><line x1="112.96988965632582" y1="0" x2="112.96988965632582" y2="177" fill="rgb(0, 0, 0)" stroke="rgb(60, 60, 60)" stroke-width="1px" opacity="0.25"></line><line x1="139.1921367263653" y1="0" x2="139.1921367263653" y2="177" fill="rgb(0, 0, 0)" stroke="rgb(60, 60, 60)" stroke-width="1px" opacity="0.25"></line><line x1="165.4143837964048" y1="0" x2="165.4143837964048" y2="177" fill="rgb(0, 0, 0)" stroke="rgb(60, 60, 60)" stroke-width="1px" opacity="0.25"></line><line x1="191.63663086644425" y1="0" x2="191.63663086644425" y2="177" fill="rgb(0, 0, 0)" stroke="rgb(60, 60, 60)" stroke-width="1px" opacity="0.25"></line><line x1="217.85887793648376" y1="0" x2="217.85887793648376" y2="177" fill="rgb(0, 0, 0)" stroke="rgb(60, 60, 60)" stroke-width="1px" opacity="0.25"></line><line x1="244.08112500652325" y1="0" x2="244.08112500652325" y2="177" fill="rgb(0, 0, 0)" stroke="rgb(60, 60, 60)" stroke-width="1px" opacity="0.25"></line></g><g><line x1="0" y1="167.03686149472009" x2="266" y2="167.03686149472009" fill="rgb(0, 0, 0)" stroke="rgb(60, 60, 60)" stroke-width="1px" opacity="0.25"></line><line x1="0" y1="152.65183010004907" x2="266" y2="152.65183010004907" fill="rgb(0, 0, 0)" stroke="rgb(60, 60, 60)" stroke-width="1px" opacity="0.25"></line><line x1="0" y1="138.26679870537808" x2="266" y2="138.26679870537808" fill="rgb(0, 0, 0)" stroke="rgb(60, 60, 60)" stroke-width="1px" opacity="0.25"></line><line x1="0" y1="123.88176731070706" x2="266" y2="123.88176731070706" fill="rgb(0, 0, 0)" stroke="rgb(60, 60, 60)" stroke-width="1px" opacity="0.25"></line><line x1="0" y1="109.49673591603607" x2="266" y2="109.49673591603607" fill="rgb(0, 0, 0)" stroke="rgb(60, 60, 60)" stroke-width="1px" opacity="0.25"></line><line x1="0" y1="95.11170452136507" x2="266" y2="95.11170452136507" fill="rgb(0, 0, 0)" stroke="rgb(60, 60, 60)" stroke-width="1px" opacity="0.25"></line><line x1="0" y1="80.72667312669407" x2="266" y2="80.72667312669407" fill="rgb(0, 0, 0)" stroke="rgb(60, 60, 60)" stroke-width="1px" opacity="0.25"></line><line x1="0" y1="66.34164173202305" x2="266" y2="66.34164173202305" fill="rgb(0, 0, 0)" stroke="rgb(60, 60, 60)" stroke-width="1px" opacity="0.25"></line><line x1="0" y1="51.95661033735206" x2="266" y2="51.95661033735206" fill="rgb(0, 0, 0)" stroke="rgb(60, 60, 60)" stroke-width="1px" opacity="0.25"></line><line x1="0" y1="37.57157894268104" x2="266" y2="37.57157894268104" fill="rgb(0, 0, 0)" stroke="rgb(60, 60, 60)" stroke-width="1px" opacity="0.25"></line><line x1="0" y1="23.186547548010026" x2="266" y2="23.186547548010026" fill="rgb(0, 0, 0)" stroke="rgb(60, 60, 60)" stroke-width="1px" opacity="0.25"></line><line x1="0" y1="8.801516153339037" x2="266" y2="8.801516153339037" fill="rgb(0, 0, 0)" stroke="rgb(60, 60, 60)" stroke-width="1px" opacity="0.25"></line></g></g></g><g><g><line x1="0" y1="181.42189288939107" x2="266" y2="181.42189288939107" fill="rgb(0, 0, 0)" stroke="rgb(153, 153, 153)" stroke-width="1.5px"></line></g></g><g><g><line x1="34.303148446207345" y1="0" x2="34.303148446207345" y2="177" fill="rgb(0, 0, 0)" stroke="rgb(153, 153, 153)" stroke-width="1.5px"></line></g></g><g><g><g><g><g><path stroke="rgb(255, 112, 67)" stroke-width="2px" d="M34.565370916907746,138.52868195972655L34.72270439932798,116.92800459274673L34.95870462295834,63.735373282382014L35.03737136416846,95.87021393865643L35.27337158779881,72.39470451745227L35.666705293849404,102.84476994490497L35.82403877626964,91.7388823573634L35.98137225868988,96.39435388031046L36.217372482320236,84.49521690976826L36.45337270595059,117.9412946604361L36.61070618837082,64.24983498960245L37.16137337684165,119.56149421103107L37.24004011805177,125.33117153717392L37.31870685926189,111.49932930020027L37.47604034168213,120.66966058721705L37.55470708289225,78.356134490559L37.633373824102364,79.60301127847876L37.86937404773272,112.12051937040286L37.94804078894283,66.07570592740909L38.18404101257319,119.76073997276052L38.34137449499343,106.2529406122877L38.49870797741367,70.99688549446245L38.57737471862379,95.68678425490556L38.73470820104403,127.62355768169536L38.89204168346426,102.77465707582935L38.97070842467438,93.04163096899715L40.072042801616035,110.17172444971284L40.70137673129698,105.0209519918676L40.7800434725071,74.43654487973677L40.858710213717224,101.7952340260074L41.17337717855769,110.43182728249691L41.40937740218805,20.49772590640538L41.48804414339817,74.68906045573202L41.80271110823865,114.41159556454701L42.038711331869,113.5809130310272L42.27471155549935,84.90730975974887L42.58937852033983,88.62181861269563L42.66804526154995,80.0542093274687L42.74671200276006,100.9300544276488L42.825378743970184,104.13140942624268L43.29737919123089,109.2615177676334L43.92671312091184,65.10549903752661L44.24138008575231,110.19920473194865L44.47738030938267,83.3710406627375L44.71338053301302,125.25114920839164L44.792047274223144,125.61071288212153L44.94938075664338,100.30594012076804L45.264047721483855,126.61807195172005L45.34271446269397,132.646914409426L45.89338165116481,95.03463359262496L46.52271558084575,103.38774418457238L46.837382545686225,131.4867781109588L46.916049286896346,109.73666307747527L46.99471602810646,120.09099465160347L47.38804973415705,85.18749333704038L47.70271669899753,78.83597357904111L48.017383663838004,110.61096858743964L48.09605040504812,90.07870208738147L48.56805085230883,103.00738593749954L48.804051075939185,109.66445957191566L48.8827178171493,99.29396735101112L48.96138455835943,46.00119111962849L49.04005129956954,104.36858135713992L49.19738478198978,74.77115688882954L49.51205174683025,94.0612751169308L49.74805197046061,100.78820503619147L49.90538545288084,119.9226281057366L50.062718935301085,113.84832037613826L50.1413856765112,102.12937374791537L50.45605264135167,107.4682827836079L50.61338612377191,80.61429808459414L50.849386347402266,103.36428707341796L51.242720053452864,111.70428681204962L51.55738701829333,121.41181840906302L51.71472050071357,136.1112861914329L51.79338724192369,109.34377069504195L51.8720539831338,134.1802915687461L51.950720724343924,99.73351213521468L52.18672094797428,104.03236240616573L52.344054430394515,80.36965375111097L52.81605487765523,129.12153252272017L52.89472161886535,95.98180790316344L52.97338836007546,33.31812319027341L53.20938858370582,83.8335553977099L53.288055324915945,91.54906610650129L53.36672206612606,36.388666314126596L53.602722289756414,115.00483142901517L53.76005577217665,110.71044036253403L54.782723407908186,110.91488104483994L54.94005689032843,25.58884751456185L55.09739037274866,115.62501243373731L55.88405778484985,110.08501934711389L56.04139126727008,138.7987996468852L56.12005800848021,89.51466672359007L56.19872474969032,117.36371875045987L56.35605823211056,105.55052315285467L56.43472497332068,117.13787588048204L56.74939193816115,101.55730618607011L56.90672542058139,118.52441280370681L57.221392385421865,110.38367527790261L57.3787258678421,78.91338030270748L57.536059350262335,107.75586640147895L57.614726091472455,139.5490265806633L57.69339283268258,100.88718183112285L57.77205957389269,103.33552063502333L57.850726315102804,112.77077103782412L57.92939305631293,84.00157292047611L58.2440600211534,106.90408921464389L58.79472720962423,117.8457807750562L58.87339395083435,98.43950124714931L58.95206069204447,117.40851987609936L59.03072743325458,89.11297377742584L59.188060915674825,57.37601155172905L59.42406113930518,112.36103278802645L60.05339506898613,102.78606499446538L60.13206181019624,108.81592073385023L60.28939529261648,133.98804097523856L60.3680620338266,92.38963575475917L60.60406225745695,48.05506848242163L60.68272899866708,102.05365415270727L60.91872922229743,111.76469572831353L60.99739596350755,71.28838981668265L61.02361821057759,96.42707630521372L61.1022849517877,113.90847099176494L61.259618434207944,104.59598788770926L61.33828517541806,91.86044141558426L61.41695191662818,105.30835343218257L61.574285399048414,99.28774157983212L61.652952140258535,73.92277118117003L61.81028562267877,90.02367653487447L62.28228606993948,79.17462007001635L62.3609528111496,93.59180566481157L62.51828629356984,110.1667748593943L62.59695303477996,76.1862306350968L62.83295325841031,86.12848389189486L62.91161999962043,116.73186661383369L63.06895348204067,73.94148399099672L63.14762022325078,113.41270560571394L63.2262869644609,67.63120042632063L63.304953705671025,86.22239031120593L63.698287411721616,86.69472331450102L63.93428763535197,116.06092020255583L64.0916211177722,91.57510904353693L64.17028785898232,77.83692347999877L64.32762134140256,99.05187095461682L64.40628808261268,89.98501190215026L64.48495482382279,61.28895235601843L64.56362156503292,79.54873832588157L64.64228830624303,85.52552261257873L65.58628920076445,119.95342723903812L65.7436226831847,123.70945692929769L65.82228942439481,127.37545534040558L65.90095616560494,108.25906916818799L66.05828964802517,93.7715717853473L66.1369563892353,73.62436033465849L66.21562313044541,101.79291259631785L66.45162335407576,130.90441648485267L66.608956836496,97.17633123972729L67.00229054254659,122.3907754097368L67.31695750738706,121.33554265475075L67.63162447222754,116.63910931520144L67.71029121343766,55.45783280786897L68.26095840190848,92.28942284354304L68.3396251431186,120.65910908374502L68.41829188432871,92.74811085166566L68.49695862553885,53.38258700546001L68.57562536674897,80.10901129958626L68.7329588491692,73.27066547934385L68.89029233158942,49.91101394094464L69.12629255521979,121.81946520086493L69.2049592964299,116.90594505502915L69.36229277885015,89.9346683372071L69.5982930024805,105.61980535785307L69.83429322611086,91.44335197872391L70.07029344974121,109.10896656939835L70.14896019095133,108.66880446413612L70.30629367337157,76.01588141307255L70.69962737942215,120.79995396027428L70.93562760305251,89.8224919302863L71.01429434426264,123.3203147428403L71.32896130910311,135.80783153653738L71.40762805031322,60.17811775660688L71.48629479152333,119.03536094009937L71.7222950151537,120.49969288330914L71.80096175636382,75.37219002360173L71.95829523878405,96.94209001185807L72.11562872120429,99.35805376135825L72.19429546241442,104.55132447586563L72.27296220362453,80.38909132877717L72.50896242725487,106.74869237999683L72.58762916846501,136.00545637295073L72.98096287451558,34.75181444289976L73.05962961572573,112.0463892058839L73.29562983935607,122.85413075803562L73.4529633217763,82.18763853045475L73.53163006298642,122.05477562042894L73.61029680419655,140.55007790501375L73.84629702782689,81.26138512315106L73.924963769037,98.41093056115157L74.23963073387749,82.09550912749143L74.3182974750876,98.94058856615054L74.63296443992809,103.41950270826854L74.7116311811382,130.34109965522288L74.94763140476856,109.19200409708849L75.02629814597867,103.08341071777801L75.1049648871888,108.23533672504884L75.18363162839891,106.25624473019035L75.26229836960903,107.20766749283278L75.34096511081914,118.38564436269755L75.41963185202927,131.7231528332039L75.49829859323938,69.52193889508099L75.5769653344495,92.68196485892176L75.9702990405001,136.82604771144574L76.04896578171021,111.55786469510774L76.28496600534058,87.8213871645958L76.52096622897092,124.20005862400208L76.67829971139116,108.11568161099748L76.8356331938114,123.54129723211102L77.30763364107212,89.70657449234514L77.38630038228223,117.07927126268952L77.46496712349234,72.13539556006468L77.54363386470246,100.86616228325236L77.62230060591257,37.40520383133298L77.70096734712271,102.39749028133511L77.77963408833283,107.2654783816972L78.25163453559354,119.4587496378515L78.48763475922388,106.73818133578115L78.566301500434,94.70643540040636L78.95963520648459,117.47680802913683L79.27430217132508,116.48421054384511L79.35296891253519,111.70515856919498L79.58896913616555,95.37287800485863L79.66763587737566,136.49348597687685L79.8249693597959,113.50014925205275L79.98230284221613,129.66745547504837L80.29696980705661,107.90710577257262L80.37563654826673,125.17442399431567L80.84763699552744,112.47002226736079L81.00497047794768,116.58741861983054L81.31963744278815,117.24128347111014L81.39830418399828,123.8012823109211L81.5556376664185,126.29285905195239L81.79163789004886,113.44041082320157L81.87030463125899,107.45138293315699L81.9489713724691,105.86527394881448L82.3423050785197,105.93015252715824L82.42097181972981,103.00851892698643L82.57830530215004,116.0516378114234L83.12897249062087,115.19445894184166L83.60097293788158,122.89641270212411L83.75830642030182,117.1203770116849L83.83697316151195,109.57555185731725L84.23030686756253,58.60462627881354L84.38764034998277,50.55277860315164L84.85964079724349,91.15212451523921L85.09564102087384,112.05743349286818L85.25297450329407,93.4116294571065L85.41030798571431,115.36888271855443L85.48897472692443,89.5991228772987L85.72497495055478,104.18308309086322L86.03964191539526,101.41394874692435L86.11830865660538,81.58597731429956L86.35430888023573,113.47478886864496L86.43297562144585,127.67726914856871L86.51164236265598,121.577392512617L86.74764258628632,104.44677849079203L86.82630932749643,101.07226031075412L86.90497606870656,122.71793309898612L86.98364280991669,79.98033252755395L87.14097629233692,106.36387279118391L87.61297673959763,117.26050496693782L87.69164348080774,131.86529298763264L87.92764370443811,85.95969187983574L88.08497718685834,79.9421695919633L88.3209774104887,116.20669597016581L88.47831089290894,68.4917093890679L88.55697763411905,132.35598501489653L88.87164459895952,134.84122379176392L88.95031134016965,105.36072323349215L89.02897808137976,86.363449431116L89.26497830501012,89.69001960319697L89.34364504622023,103.61277906970003L89.6583120110607,55.875094056443714L89.73697875227083,94.22252329907589L90.0516457171113,77.72141604714878L90.13031245832141,106.16120112132957L90.52364616437201,87.28613313761721L90.68097964679225,134.4087261266071L90.99564661163272,91.38223827669475L91.15298009405296,63.62623775372391L91.23164683526308,135.84810572310465L91.31031357647319,77.459529684667L91.3889803176833,84.79738032310641L91.62498054131368,125.81686050442143L91.93964750615413,105.43145538099101L92.1756477297845,120.77539094258958L92.25431447099461,99.02814761162159L92.5689814358351,109.75892795416789L92.72631491825533,124.39286500125723L92.80498165946544,114.69792603376857L93.04098188309581,120.09455217681437L93.35564884793627,98.5270789967942L93.67031581277675,118.35229547393001L93.74898255398686,115.39152550438254L93.9063160364071,124.80692653427772L94.06364951882735,88.10580505493148L94.22098300124757,121.31439788289899L94.53564996608806,58.802646217025526L94.61431670729817,136.9414504440948L94.92898367213864,123.10940851973876L95.24365063697911,85.47354457002733L95.47965086060947,107.8729045471945L96.18765153150055,88.91826061708332L96.34498501392078,102.69406247445094L96.502318496341,94.00523624207935L96.97431894360172,78.29081185634206L97.05298568481184,106.6581394026442L97.44631939086243,44.06729973064523L97.52498613207254,53.25078674425562L97.91831983812314,90.22098720923826L97.99698657933325,115.9637683464008L98.31165354417374,115.4170503371887L98.62632050901422,137.82002700649088L98.86232073264456,74.24488640033665L98.94098747385468,127.70074310587916L99.0196542150648,74.12240474876347L99.25565443869516,123.97870597562448L99.33432117990527,80.05804615091427L99.49165466232552,98.6908654620025L99.72765488595587,147.87937486943366L99.88498836837611,134.7249343924724L99.96365510958623,131.28849817362547L100.51432229805705,110.10858363772378L100.93387825117769,100.37868376387848L101.0125449923878,129.3323369393761L101.09121173359792,77.92176809095879L101.32721195722829,70.52613820829463L101.4058786984384,125.65798554011718L101.56321218085863,98.92524127610983L101.72054566327887,89.33094822516772L101.799212404489,52.30349003596832L102.03521262811934,98.25881924009691L102.11387936932945,106.27434484253585L102.27121285174971,112.37584292179402L102.34987959295982,126.03988076254964L102.50721307538005,100.89094359598644L102.66454655780029,136.22076980328018L102.74321329901042,104.4177719615746L102.90054678143065,114.33307245821662L102.97921352264076,130.04737346430943L103.136547005061,63.30319049205279L103.45121396990147,113.09542390932208L103.68721419353183,16.308975934181206L103.76588093474196,124.18036825354243L103.92321441716219,96.72411339847653L104.15921464079254,102.91633362949538L104.23788138200267,128.7539694045258L104.3952148644229,85.08838262657488L104.70988182926337,76.42702113823984L104.94588205289372,69.62821467144586L105.02454879410385,93.8371626734774L105.10321553531396,106.51752752165413L105.18188227652408,97.14475886380986L105.57521598257468,128.21725988331644L106.04721642983539,98.02382348379022L106.1258831710455,98.9873058162981L106.59788361830621,113.39110042022592L106.75521710072645,107.95446734211653L107.14855080677704,124.73002954405486L107.38455103040741,139.27117460419123L107.46321777161752,129.37800149869267L107.54188451282764,122.0355819542821L107.69921799524786,93.68865651104583L108.01388496008835,104.71579524749266L108.17121844250858,98.99000330212151L108.32855192492883,127.44676214364009L108.64321888976929,137.44413074714325L109.27255281945024,146.16414594969592L109.66588652550084,110.91340278731606L109.82322000792108,64.37848730407018L110.05922023155144,116.16632536745546L110.13788697276155,116.58918320679578L110.3738871963919,98.65527685560257L110.76722090244249,121.8486564048054L110.92455438486273,75.63351720232187L111.00322112607286,123.63885953455443L111.16055460849309,142.43090435613942L111.31788809091331,78.13590703213178L111.47522157333357,109.12215284391299L111.55388831454368,123.80886608054752L111.6325550557538,107.25209893870212L112.0258887618044,102.1474192929876L112.10455550301451,85.70646219560264L112.34055572664485,94.48852396765872L112.419222467855,106.57149856404256L112.96988965632582,100.46194551670418L113.12722313874605,84.99855064315865L113.20588987995616,99.36088776120192L113.28455662116627,102.96489129951875L113.3632233623764,138.0348783177157L113.52055684479664,105.12427789335209L113.67789032721687,136.9766253740727L113.75655706842699,122.05491370593309L114.22855751568771,94.74781772056585L114.70055796294842,136.5092989641311L114.85789144536865,116.13989794411718L115.32989189262936,126.88328196647373L115.40855863383948,122.22967609811303L115.56589211625972,82.20666919850683L115.72322559867996,130.39362404265552L115.80189233989007,96.45296075491447L116.03789256352043,134.21391596173638L116.11655930473056,133.8781607776414L116.3525595283609,122.87801513219057L116.43122626957101,75.80373258871431L116.82455997562161,104.53217216420663L116.90322671683172,86.27012881610722L116.98189345804187,94.35306793191869L117.06056019925198,100.54152337975466L117.21789368167221,142.51436612132133L117.37522716409244,102.07576069518065L117.45389390530255,105.3129058587713L117.6112273877228,113.68623765167816L117.76856087014303,104.46557284807112L117.84722761135315,103.98682599305546L117.92589435256328,118.19816606172019L118.24056131740375,111.25582407265578L118.3454503056839,104.95666704638376L118.42411704689403,124.37462008685844L118.50278378810415,115.96477806819172L118.58145052931427,82.51792517951897L118.97478423536485,96.13963651798318L119.39434018848549,97.40352785789287L119.4730069296956,133.7554715163413L119.55167367090573,127.86838946436976L119.63034041211584,82.02708330104726L119.8663406357462,136.330022195097L120.41700782421702,104.88769420475741L120.65300804784738,135.36034291417664L120.81034153026762,119.0234512931797L121.04634175389796,103.91587973445702L121.20367523631822,80.4231896870872L121.51834220115867,97.69980093876246L121.67567568357893,110.01317680343149L121.91167590720927,141.04467152723322L121.99034264841939,103.33093105719941L122.14767613083964,59.15230783180493L122.22634287204976,120.66385541307535L122.77701006052058,124.65247148344804L122.8556768017307,120.03703564836252L123.01301028415094,96.87450719481663L123.3276772489914,127.25381447415859L123.56367747262176,129.08414095028738L123.64234421383189,120.33660498790266L123.79967769625212,73.27181310871707L124.1143446610926,117.73454019082592L124.19301140230272,95.51949260569094L124.42901162593307,124.22400120338548L124.5863451083533,124.09550259762207L124.66501184956343,78.3152159332067L124.74367859077354,125.72296123951953L124.82234533198366,97.16756056614206L124.9796788144039,62.35139878681615L125.21567903803425,124.00528965659673L125.53034600287472,110.31995026490483L125.76634622650508,101.61526477984623L125.8450129677152,116.64972045662397L125.92367970892532,91.40067099601825L126.00234645013543,129.14273903751825L126.08101319134555,97.21347911499386L126.2383466737658,143.52630970721853L126.31701341497592,100.17335967492825L126.47434689739615,126.86880320053464L126.63168037981637,86.36142300847348L126.94634734465686,115.8908484558818L127.49701453312768,131.4354009165876L127.89034823917828,103.2655933391949L128.0476817215985,115.14415336128977L128.28368194522886,85.82599071959655L128.44101542764912,115.76622408718372L128.51968216885922,94.52282455476305L128.67701565127945,109.03705007050938L128.8343491336997,95.81094092662673L129.07034935733006,139.9238750237064L129.14901609854016,54.44458904563943L129.38501632217054,117.78754815640684L129.46368306338064,119.18776213340257L129.77835002822113,102.91138408913595L130.01435025185148,106.58224877938729L130.25035047548184,134.0375596875403L130.72235092274255,100.1975536102467L130.87968440516278,85.14818675155537L131.19435137000326,142.02023551002844L131.3516848524235,109.60724181376551L131.50901833484372,127.32064147953292L131.66635181726397,134.51127772936476L131.74501855847407,105.59610413344735L132.05968552331456,98.52253624099946L132.13835226452468,101.15546773497451L132.21701900573478,62.84491679068951L132.2956857469449,120.85256543087596L132.37435248815504,141.63500305995444L132.6890194529955,117.62020449255829L132.84635293541575,119.0362054487575L132.92501967662585,155.23882449055276L133.1610199002562,103.93610346725617L133.23968664146634,105.57153721590461L133.4756868650967,89.63134796072153L133.63302034751695,89.81840202128538L133.71168708872705,117.0629724947328L134.0263540535675,89.40663989497314L134.18368753598776,128.2056409408158L134.34102101840801,136.1675008279529L134.57702124203834,135.03870982093505L134.65568798324847,128.56232994921538L134.7343547244586,89.21362243572135L134.89168820687883,99.03387601604004L135.04902168929905,73.59015794427773L135.20635517171928,75.42834534202515L135.99302258382048,87.31741546836513L136.3863562898711,123.12694100999083L136.4650230310812,139.92480970940653L136.77968999592167,122.94677802145897L136.9370234783419,139.019978377733L137.015690219552,138.18771878765932L137.17302370197228,140.02750051127117L137.25169044318238,124.96182553250642L137.3303571843925,134.87471501431628L137.48769066681274,124.62828412502037L137.56635740802284,137.807375762662L137.8023576316532,138.70492159211338L137.95969111407342,76.72009721296769L138.03835785528358,112.44656242550523L138.11702459649368,126.86164052459411L138.27435807891393,128.05168137627513L138.43169156133416,118.70692914778292L138.66769178496452,122.38462239383327L138.74635852617462,139.50839054335842L138.982358749805,139.0984515516714L139.0610254910151,152.38032302243994L139.21835897343536,122.63797051647774L139.37569245585559,132.89031722105224L139.76902616190617,137.9510831144603L139.92635964432642,113.10494861461765L140.08369312674665,97.8586231748215L140.24102660916688,106.24197280632087L140.3983600915871,94.98284072916339L140.47702683279724,129.56434852394466L140.94902728005795,99.72003766304904L141.34236098610853,143.2026786483654L141.42102772731866,126.44939626504927L141.5783612097389,124.96806427227108L141.657027950949,118.54193443838355L141.9716949157895,139.9983742215142L142.0503616569996,137.34241383082122L142.20769513941983,114.40168661080094L142.44369536305018,140.00937488179395L142.7583623278907,133.68114891979116L142.8370290691008,140.33305193749197L142.91569581031092,109.46467592653882L143.46636299878173,125.1700489786707L143.54502973999183,75.51555410966617L144.1743636696728,128.72409450198606L144.33169715209303,105.99648931694115L144.41036389330316,108.97107210140055L144.5676973757234,124.4443915187847L144.67258636400356,140.03974928944183L144.90858658763392,90.9376810947216L144.98725332884402,94.09300392244718L145.06592007005415,113.9588128213125L145.14458681126425,138.3882868664179L145.30192029368447,137.41003686482466L145.3805870348946,111.09678436547624L145.53792051731486,134.96618183187843L145.77392074094521,115.95783683303853L146.1672544469958,106.05441673236747L146.5605881530464,119.14569306256067L146.6392548942565,50.561649200814244L146.79658837667674,122.7081930243134L146.953921859097,136.6339791103684L147.26858882393745,147.07268249161118L147.3472555651476,149.120811737356L147.50458904756783,125.95163207031722L147.58325578877793,146.0203872265152L147.66192252998806,138.62260671125821L148.291256459669,122.49037741104377L148.44858994208926,131.0164200734866L148.60592342450948,130.56883674641134L148.7632569069297,137.5471648775793L148.92059038934994,127.8953164542119L149.07792387177017,112.02735425312122L149.15659061298032,131.61720299888532L149.31392409540055,122.02557403661251L149.5499243190309,131.72662753223452L149.70725780145114,119.04693676539603L149.78592454266123,148.44609864999254L150.17925824871185,96.40014184438971L150.25792498992197,116.02996662051582L150.33659173113207,97.24916419680493L150.72992543718266,131.2097161057837L150.8085921783928,102.36505245677296L151.04459240202317,114.92109966382245L151.12325914323327,78.51840123930887L151.7525930729142,119.50638948746996L151.8312598141243,121.93623165178883L152.22459352017492,130.07740711206458L152.46059374380528,136.84105806118495L152.69659396743563,115.37498343991035L152.77526070864573,142.1484164089066L152.932594191066,147.7404928965741L153.16859441469634,78.85635413168337L153.24726115590647,138.3486508179064L153.32592789711657,111.22997643354512L153.48326137953683,86.72410875429425L154.03392856800767,108.9641194654653L154.11259530921777,124.57823592538159L154.269928791638,137.53764752622038L154.42726227405822,121.5662618752429L154.74192923889873,108.609114975777L154.97792946252906,97.43022211301931L155.13526294494932,99.68617499277848L155.21392968615942,137.24493235638L155.29259642736955,85.4665937832568L155.37126316857965,137.56422960316806L155.5285966509999,61.799452859954215L155.60726339221,138.87816052918092L155.92193035705048,133.07168465098505L156.07926383947074,122.00720256843738L156.15793058068084,133.13879135528356L156.4725975455213,111.47049143613307L156.62993102794158,112.58883740911408L156.8659312515719,133.54330644167814L157.1805982164124,145.1813488954613L157.6525986636731,120.26057607943468L157.73126540488323,123.03924002770344L157.80993214609333,104.53438734068229L157.96726562851356,35.48243459374049L158.0459323697237,146.09354249836346L158.20326585214391,130.18263092701784L158.28193259335404,138.12155335667543L158.36059933456414,116.92494610319854L158.5179328169844,110.79179785539235L158.83259978182488,133.3988533057241L158.9899332642451,135.91301802194437L159.14726674666534,104.45869283902061L159.38326697029572,106.92094685823312L159.54060045271595,89.07556002121021L159.69793393513618,125.25674789205601L159.8552674175564,113.71827873043003L159.93393415876653,85.63337077019048L160.01260089997663,97.11315786938466L160.24860112360702,104.08127942076166L160.40593460602724,100.53823408482725L160.6419348296576,114.94311627026676L160.72060157086773,102.5565773770883L160.87793505328796,139.68932802550876L160.95660179449806,80.55033057866821L161.03526853570818,133.1028187261339L161.11393527691828,128.9721837063201L161.27126875933857,137.604404136435L161.34993550054867,120.6907244287193L161.4286022417588,89.41943134785005L161.5072689829689,90.5744761888632L161.58593572417902,126.44367869503823L161.74326920659925,143.7409417845087L161.82193594780938,147.27493421091896L161.9792694302296,128.36512966298832L162.21526965386,148.12974914208897L162.45126987749032,128.68519664797995L162.60860335991055,148.5331579455559L162.7659368423308,137.0359003318243L162.92327032475103,142.8022953908794L163.00193706596113,144.80368961474483L163.0806038071713,102.20658434767279L163.31660403080164,124.32563808427399L163.47393751322187,103.82770455695383L163.70993773685223,107.29717911241515L163.94593796048258,86.11299154742127L164.1032714429028,124.75060085808616L164.18193818411294,114.33032176296936L164.26060492532307,146.38347837166492L164.65393863137362,118.88168774032519L164.73260537258375,131.66860266649954L165.20460581984446,127.49323640830018L165.44060604347482,127.23670671074986L165.51927278468494,119.84800523727836L165.59793952589504,133.80018205634514L165.67660626710517,101.09345617376077L165.99127323194566,137.31584408798864L166.227273455576,117.90814612804377L166.38460693799624,129.59558065803853L166.54194042041647,143.71706798346534L166.77794064404685,138.78807683940022L167.17127435009743,127.64670432605513L167.32860783251766,130.47873999536648L167.4072745737278,125.82557094653258L167.4859413149379,133.97069688083968L168.19394198582896,152.62373198942203L168.84949816257998,149.23786034093328L169.0068316450002,108.22541184832957L169.0854983862103,134.62997377778134L169.16416512742043,160.35510659389044L169.95083253952163,127.44398175394218L170.02949928073173,131.3408977110837L170.10816602194186,111.61735592855345L170.3441662455722,137.74596519702953L170.42283298678234,151.64838967620133L170.50149972799247,139.60604713875009L170.58016646920257,116.62965783758939L170.6588332104127,136.22476171274627L170.7374999516228,148.11708470124495L170.81616669283292,140.91548979209398L170.89483343404305,151.2878991540229L170.97350017525315,133.0161353494268L171.05216691646328,130.07705929469296L171.2881671400936,126.45152569949664L171.4455006225139,122.58874247121133L171.83883432856445,110.14168982992283L171.91750106977457,133.77021303044114L172.0748345521948,141.0271983854907L172.31083477582519,137.56669150584574L172.3895015170353,131.5227430008977L172.4681682582454,118.10164184194673L172.54683499945554,142.08661624426023L172.70416848187577,141.94569582599624L172.94016870550612,129.2162850901217L173.01883544671622,113.66148982163543L173.2548356703466,159.627654282441L173.3335024115567,143.935762728124L173.41216915276684,128.18120185501354L173.49083589397696,142.35203667394578L173.7268361176073,131.65013505472973L173.96283634123765,140.98700059533422L174.12016982365787,135.96587881167275L174.19883656486803,134.94053124497128L174.4348367884984,113.1034633591106L174.5135035297085,80.52971264382583L174.59217027091861,123.85859300651333L174.67083701212871,130.7421647685182L174.82817049454894,133.1111348619716L174.9855039769692,136.60196897865046L175.06417071817933,104.40814477840169L175.37883768301978,119.62384409356143L175.69350464786027,130.11416030952594L175.8508381302805,159.61055151646374L176.16550509512098,155.57312624743L176.3228385775412,109.43611693446073L176.40150531875133,141.5305515698045L176.55883880117156,106.70414501191655L176.7161722835918,126.62840719215947L176.79483902480192,127.84680456177507L177.0308392484323,107.89105608843509L177.18817273085253,139.41717966799698L177.26683947206263,140.83272349518398L177.50283969569298,115.34990953695288L178.05350688416382,116.49061056779408L178.36817384900428,137.61997017629855L178.84017429626502,150.69938882718657L178.91884103747512,117.15830154306364L178.99750777868525,124.62020053577109L179.07617451989537,117.37106904303293L179.15484126110547,103.46961341181819L179.6268417083662,132.49419342001698L179.78417519078644,130.72919633067676L180.17750889683703,149.3226949723746L180.25617563804713,124.62754985552846L180.33484237925725,107.87951680372757L180.57084260288764,131.48646035810805L180.64950934409774,145.81687912394628L181.04284305014832,148.29088599040995L181.59351023861916,151.93791661421312L181.7508437210394,119.61554275293665L181.90817720345962,160.10251378032999L181.98684394466974,129.69208771407085L182.38017765072033,127.73452136838009L182.45884439193046,111.92317307325729L182.53751113314058,111.51860166842178L182.6161778743507,118.72362069622244L182.85217809798104,123.76157561231737L183.00951158040127,144.73399778633097L183.32417854524175,115.94765563273802L183.40284528645188,115.02861912453518L183.63884551008223,103.47105943519371L183.71751225129236,136.63926132196195L183.79617899250246,130.1290387016541L183.9535124749227,146.37495612900744L184.11084595734295,137.0679579364513L184.18951269855305,135.32296481297735L184.50417966339353,136.74908523499818L184.66151314581379,111.69318289246159L184.8975133694441,107.72409881039971L184.97618011065424,134.8722746916657L185.36951381670485,130.2470415441394L185.52684729912508,112.78296006742228L185.92018100517566,138.6593465424752L186.0775144875959,139.99322457244782L186.15618122880605,127.60996476420264L186.23484797001615,123.02799981641243L186.31351471122628,137.58108210227857L186.4708481936465,103.39810600311966L186.5495149348566,133.36503119671883L186.62818167606673,131.40902275150873L186.70684841727686,136.43107394644875L186.78551515848696,142.69226124058198L187.41484908816793,143.02672170831767L187.57218257058815,132.2824805372358L187.65084931179825,151.6696274242171L187.72951605300838,135.20487920374046L187.8868495354286,115.4330852583409L188.51618346510958,131.03503167347148L188.75218368873993,101.23325554489504L188.9095171711602,88.09019242194194L189.38151761842087,151.6052257967417L189.61751784205123,142.08759070361668L189.77485132447146,152.790644872458L190.08951828931194,133.81702064892744L190.2468517717322,132.1609218985999L190.56151873657265,98.63490974245863L190.64018547778275,119.92977297686193L190.79751896020304,96.37511796435248L191.03351918383336,119.67091709893396L191.42685288988395,136.7669662017361L191.58418637230417,144.90722869722072L191.74151985472443,116.61472922103346L191.82018659593456,119.00962369245303L191.9775200783548,141.32377692345975L192.0561868195649,152.93206120702973L192.4495205256155,140.98942877885634L192.5281872668256,137.8593706671003L192.60685400803573,155.08623381706235L193.15752119650656,132.31142845118652L193.55085490255718,144.26184930038448L193.86552186739763,110.22186971976343L194.101522091028,134.38339824473744L194.33752231465834,92.51204435206441L194.41618905586844,93.64181077185123L194.9144117501992,107.33194668886814L194.99307849140934,134.01311795258744L195.22907871503966,111.78522328729237L195.3077454562498,132.60367840592707L195.46507893867005,108.35588051328594L196.5664133156117,114.96521047087936L196.64508005682183,123.33579589986289L196.72374679803193,105.51838539559166L196.80241353924205,128.4029366918004L196.95974702166228,145.74318054881894L197.19574724529264,115.66384271126003L197.43174746892302,120.10216908791543L197.74641443376348,100.62607755328474L197.82508117497358,77.47447292673786L197.9037479161837,131.85249286516424L198.06108139860393,134.93252905790538L198.2184148810242,146.82933668787769L198.37574836344442,102.85169062498167L198.61174858707477,124.96366224034219L198.92641555191526,118.2675104915797L199.24108251675574,133.63842397613712L199.5557494815962,96.90011791062801L199.63441622280632,93.80621269847605L199.79174970522655,25.918057685825318L200.10641667006703,142.43766924817533L200.26375015248726,114.70793745640621L200.65708385853785,76.83045950289984L201.05041756458846,129.37969075854923L201.12908430579859,136.28933183335937L201.2864177882188,123.07247491137639L201.3650845294289,81.6955229569717L201.60108475305927,112.0274281866403L201.83708497668962,128.9970057381787L202.07308520032,112.71131390882324L202.30908542395034,133.88999241227873L202.46641890637056,99.60569389388749L202.5450856475807,133.90091194171777L202.62375238879082,122.42498363661232L202.70241913000092,140.44662877269184L202.78108587121108,133.0130554962526L203.25308631847176,109.4008320281394L203.410419800892,137.21098188139797L203.48908654210211,120.2438219569292L203.56775328331224,121.89761681618592L203.64642002452234,118.47536655609034L204.03975373057295,136.00116442084362L204.11842047178308,135.54400732780175L204.19708721299318,134.88882942270428L204.3544206954134,132.60395299988548L204.51175417783364,136.03728456026735L204.59042091904377,131.9599064290607L204.66908766025392,142.1767869002811L204.74775440146402,112.89727027016225L204.82642114267415,134.18297091549059L204.90508788388425,128.49109570814787L205.29842158993483,150.5504099759444L205.37708833114496,120.12637995327813L205.45575507235506,143.88407793892407L205.9277555196158,99.08287973041195L206.0064222608259,145.09802310387792L206.24242248445626,128.1421298902572L206.39975596687648,112.27725661520928L206.4784227080866,127.42241679130842L206.55708944929674,110.86478525080074L206.7930896729271,135.05472478633683L207.2650901201878,132.417049553953L207.5797570850283,154.8356067206999L207.73709056744852,142.62927939825113L207.89442404986875,130.33445814512L208.1304242734991,115.89069784000898L208.3664244971295,152.79307723358832L208.4450912383396,152.2463108089069L208.5237579795497,136.02766547701458L208.6024247207598,140.03833664298793L208.75975820318007,138.6911679525952L208.83842494439017,147.01926562338204L209.41531437993106,154.43873754283928L209.49398112114116,145.93144391428638L209.5726478623513,124.18924725551662L209.65131460356142,145.0885125220718L209.72998134477152,138.12253363953226L209.80864808598164,145.10530023545658L209.88731482719174,132.65389401965885L209.96598156840187,97.67694882002272L210.04464830961197,127.91069102178216L210.1233150508221,127.96697850779445L210.20198179203226,127.49163484552312L210.28064853324236,124.51053365358786L210.43798201566258,117.76374685016496L210.5166487568727,96.80816334865509L210.5953154980828,127.35506501150772L210.67398223929294,129.81889431138347L210.75264898050307,122.40123346979144L210.83131572171317,135.62459736829655L210.9886492041334,143.61734082874847L211.06731594534352,147.86180021421754L211.14598268655365,141.62080850406085L211.22464942776378,129.97487223150063L211.3033161689739,120.16821587470446L211.381982910184,115.31017794680966L211.46064965139414,128.73915526475508L211.53931639260423,133.18778208188235L211.61798313381436,129.0518101102395L211.6966498750245,129.5006409854439L211.7753166162346,95.67912907300264L211.85398335744472,138.23675578836426L211.93265009865482,120.95700337027685L212.01131683986495,129.5754756363358L212.08998358107507,128.20863453888091L212.1686503222852,125.63418484331405L212.24731706349533,143.49339712655768L212.32598380470543,133.88216828230733L212.40465054591556,129.38343982087758L212.48331728712566,130.5326399727237L212.5619840283358,143.9684308650407L212.64065076954589,135.00253604460283L212.719317510756,152.59800909980052L212.79798425196614,126.1867808087105L212.87665099317624,151.7369901694995L212.95531773438637,138.33320487134407L213.0339844755965,127.97026465011943L213.11265121680663,139.21999199497182L213.19131795801673,96.15295710797079L213.26998469922685,130.6348046990612L213.34865144043698,152.31955398031818L213.42731818164708,99.97955183026812L213.74198514648756,106.4173555621841L213.82065188769766,124.40548275575838L214.05665211132805,132.09123412195444L214.2926523349584,141.36965324968642L214.44998581737863,121.30211662751896L214.84331952342924,149.22408866992134L215.07931974705957,136.83461504409075L215.62998693553038,126.45974441497967L215.7086536767405,152.60507327140868L216.25932086521135,131.02989124744747L216.4953210888417,123.55230055260938L216.73132131247206,123.4811049830773L216.88865479489232,137.98294385443458L217.20332175973277,134.1939942703812L217.43932198336313,107.64496403467118L217.91132243062384,97.74389490865154L218.1473226542542,129.48710431189477L218.6193231015149,131.71476974005373L218.77665658393514,130.00003025485498L218.85532332514526,135.2261795306967L218.9339900663554,137.1309477305623L219.0126568075655,122.85023763218487L219.40599051361608,113.56181072968947L219.56332399603633,145.0553509275542L219.87799096087682,107.66508856743245L219.95665770208691,115.21499566622096L220.03532444329704,87.34508036976905L220.11399118450714,65.99721804755701L220.19265792571727,74.475970745069L220.27132466692737,117.80501900857055L220.3499914081375,131.53244725489944L220.42865814934765,100.623716555653L220.50732489055775,133.38435243345967L220.58599163176788,133.57226013113512L220.66465837297798,114.58237303370667L220.7433251141881,107.3458826840967L220.90065859660834,106.5828292073588L221.05799207902857,67.86881122514353" style="fill: none;" fill="none"></path></g></g></g></g><g opacity="0.2"><g><g><g><path stroke="rgb(255, 112, 67)" stroke-width="2px" d="M34.565370916907746,138.52868195972655L34.72270439932798,115.95597411123262L34.95870462295834,61.233989795012135L35.03737136416846,97.38428310787253L35.27337158779881,71.2885332168633L35.666705293849404,104.27958951703604L35.82403877626964,91.21556828690325L35.98137225868988,96.61372164832548L36.217372482320236,83.93452459179403L36.45337270595059,119.51728785287474L36.61070618837082,61.71987092134336L37.16137337684165,122.1678027607319L37.24004011805177,125.60304114940053L37.31870685926189,110.84756710055231L37.47604034168213,121.10177043843774L37.55470708289225,76.36230341794159L37.633373824102364,79.6617646349776L37.86937404773272,113.652757971593L37.94804078894283,63.90605503218947L38.18404101257319,122.29040126285562L38.34137449499343,105.61644744870522L38.49870797741367,69.33560541037644L38.57737471862379,96.8501826258165L38.73470820104403,129.1284318222247L38.89204168346426,101.60376647136447L38.97070842467438,92.58300670218306L40.072042801616035,110.97890162943243L40.70137673129698,104.77824543626232L40.7800434725071,72.9953948063903L40.858710213717224,103.08438691771647L41.17337717855769,110.83878717416395L41.40937740218805,16.259993380830394L41.48804414339817,77.24257883763745L41.80271110823865,116.28333805658542L42.038711331869,113.54177092211788L42.27471155549935,83.55619756372006L42.58937852033983,88.7968478256617L42.66804526154995,79.65049998942135L42.74671200276006,101.91373299257874L42.825378743970184,104.2822586146581L43.29737919123089,109.50325062141623L43.92671312091184,63.024848940296465L44.24138008575231,112.32403903168581L44.47738030938267,82.10688633486892L44.71338053301302,127.22455746446957L44.792047274223144,125.62765567303026L44.94938075664338,99.11356862939536L45.264047721483855,127.85791062438271L45.34271446269397,132.9309959912027L45.89338165116481,93.26232716670239L46.52271558084575,103.78134625435001L46.837382545686225,132.810816358799L46.916049286896346,108.71178854710169L46.99471602810646,120.57889509226919L47.38804973415705,83.5428257358306L47.70271669899753,78.53668730772178L48.017383663838004,112.10821966113382L48.09605040504812,89.11121308999654L48.56805085230883,103.61659093567265L48.804051075939185,109.97814366987244L48.8827178171493,98.80530541390044L48.96138455835943,43.49001318202406L49.04005129956954,107.11887723220589L49.19738478198978,73.37651385105575L49.51205174683025,94.97023356746959L49.74805197046061,101.10518079154929L49.90538545288084,120.82425013519162L50.062718935301085,113.56209645170692L50.1413856765112,101.57717207433416L50.45605264135167,107.71985441356199L50.61338612377191,79.34892707783433L50.849386347402266,104.43627608336251L51.242720053452864,112.09727109292754L51.55738701829333,121.8692413638961L51.71472050071357,136.8039312701833L51.79338724192369,108.0824741533272L51.8720539831338,135.3505988350463L51.950720724343924,98.11036546033623L52.18672094797428,104.23492603149852L52.344054430394515,79.25465700820263L52.81605487765523,131.41874147007348L52.89472161886535,94.42025019857702L52.97338836007546,30.365384120032502L53.20938858370582,86.21386372162054L53.288055324915945,91.91262420272705L53.36672206612606,33.78948517207749L53.602722289756414,118.7092580574654L53.76005577217665,110.5080868567836L54.782723407908186,110.92451437541979L54.94005689032843,21.568249075962314L55.09739037274866,119.86755423621155L55.88405778484985,109.82397255245623L56.04139126727008,140.15180500132465L56.12005800848021,87.19237773767564L56.19872474969032,118.67597774649036L56.35605823211056,104.99388042836017L56.43472497332068,117.68387679434929L56.74939193816115,100.82314321617636L56.90672542058139,119.32390997417137L57.221392385421865,110.00008031595372L57.3787258678421,77.4304868222009L57.536059350262335,109.11493642707552L57.614726091472455,141.04713360481335L57.69339283268258,99.06541951308166L57.77205957389269,103.45088738494533L57.850726315102804,113.21536398874143L57.92939305631293,82.64595625526076L58.2440600211534,107.98326537510205L58.79472720962423,118.36135786429028L58.87339395083435,97.52506922750972L58.95206069204447,118.30234797903418L59.03072743325458,87.7796757937187L59.188060915674825,55.88055259868575L59.42406113930518,114.95195001905617L60.05339506898613,102.33488850157507L60.13206181019624,109.10005006188406L60.28939529261648,135.1741618243092L60.3680620338266,90.42950147735436L60.60406225745695,45.96600510309682L60.68272899866708,104.59809012669979L60.91872922229743,112.22228407480806L60.99739596350755,69.38112932870004L61.02361821057759,97.61162174184606L61.1022849517877,114.73220163144538L61.259618434207944,104.15717978332968L61.33828517541806,91.26033713155743L61.41695191662818,105.94202467903798L61.574285399048414,99.0040478276271L61.652952140258535,72.72756315191371L61.81028562267877,90.78235793897572L62.28228606993948,78.6634079852848L62.3609528111496,94.27114948865008L62.51828629356984,110.94779435023851L62.59695303477996,74.58505315855922L62.83295325841031,86.59696702964975L62.91161999962043,118.17391082586222L63.06895348204067,71.92518323913527L63.14762022325078,115.27260610064826L63.2262869644609,65.47395672676808L63.304953705671025,87.09841496546753L63.698287411721616,86.7169798434521L63.93428763535197,117.44466769989873L64.0916211177722,90.42132736588681L64.17028785898232,77.18957442203099L64.32762134140256,100.0515281654627L64.40628808261268,89.55777770596075L64.48495482382279,59.93678201091274L64.56362156503292,80.40914708885941L64.64228830624303,85.80715119153304L65.58628920076445,121.57568452510165L65.7436226831847,123.88644262150888L65.82228942439481,127.5481987210337L65.90095616560494,107.35829704488978L66.05828964802517,93.08891484060611L66.1369563892353,72.67501529247944L66.21562313044541,103.12022657723371L66.45162335407576,132.27616274138046L66.608956836496,95.58704973603028L67.00229054254659,123.5788905800514L67.31695750738706,121.28581964535351L67.63162447222754,116.41781140914938L67.71029121343766,52.5749454331779L68.26095840190848,94.02494279286799L68.3396251431186,121.99590058197442L68.41829188432871,91.4329329244996L68.49695862553885,51.52766703364925L68.57562536674897,81.36837160663931L68.7329588491692,72.9484397600654L68.89029233158942,48.81029737630803L69.12629255521979,125.20782154295539L69.2049592964299,116.67441792773846L69.36229277885015,88.6637704813935L69.5982930024805,106.3588955839568L69.83429322611086,90.77535155771781L70.07029344974121,109.94137772812122L70.14896019095133,108.64806384137505L70.30629367337157,74.47726200228945L70.69962737942215,122.91019821642514L70.93562760305251,88.36282094458006L71.01429434426264,124.89874618426953L71.32896130910311,136.3962485582299L71.40762805031322,56.614413965929515L71.48629479152333,121.80873889115398L71.7222950151537,120.56869281780592L71.80096175636382,73.24576318728045L71.95829523878405,97.95847273381779L72.11562872120429,99.47189498515667L72.19429546241442,104.79603356712512L72.27296220362453,79.25055678257927L72.50896242725487,107.9907678222009L72.58762916846501,137.3840473464407L72.98096287451558,29.98070042525336L73.05962961572573,115.68854194340672L73.29562983935607,123.36339606677575L73.4529633217763,80.27141638360538L73.53163006298642,123.93333181838585L73.61029680419655,141.42158429538685L73.84629702782689,78.46767708630935L73.924963769037,99.21902432524584L74.23963073387749,81.326719635853L74.3182974750876,99.7343357648308L74.63296443992809,103.63055101863011L74.7116311811382,131.60965657942492L74.94763140476856,108.19544985612927L75.02629814597867,102.79557123917174L75.1049648871888,108.47809763638621L75.18363162839891,106.16298908645356L75.26229836960903,107.25249893191018L75.34096511081914,118.9123553146807L75.41963185202927,132.35162181872514L75.49829859323938,66.59099164145215L75.5769653344495,93.77327498287237L75.9702990405001,138.90613538512486L76.04896578171021,110.36721732784574L76.28496600534058,86.70291440137795L76.52096622897092,125.91423686030917L76.67829971139116,107.35777902923287L76.8356331938114,124.26815870116872L77.30763364107212,88.11226818523575L77.38630038228223,118.36908419951202L77.46496712349234,70.01762131229701L77.54363386470246,102.21996804507796L77.62230060591257,34.41489688857237L77.70096734712271,105.4599540407593L77.77963408833283,107.49486001993417L78.25163453559354,120.0333016865708L78.48763475922388,106.13878282940088L78.566301500434,94.13949449245679L78.95963520648459,118.54975752473146L79.27430217132508,116.43743893459052L79.35296891253519,111.47996763845231L79.58896913616555,94.60329410392131L79.66763587737566,138.43110624780962L79.8249693597959,112.41669359486207L79.98230284221613,130.4292657159225L80.29696980705661,106.88174898030935L80.37563654826673,125.9880672613088L80.84763699552744,111.8713855367713L81.00497047794768,116.78143206052285L81.31963744278815,117.27209385677253L81.39830418399828,124.11039220389648L81.5556376664185,126.41026319158215L81.79163789004886,112.83479807943844L81.87030463125899,107.16917743048475L81.9489713724691,105.7905358291334L82.3423050785197,105.93320963294408L82.42097181972981,102.87085032802544L82.57830530215004,116.66623503634452L83.12897249062087,115.15406831447916L83.60097293788158,123.25933198925784L83.75830642030182,116.84820779066943L83.83697316151195,109.22003653590724L84.23030686756253,56.20285491647566L84.38764034998277,50.173372168172804L84.85964079724349,93.0651826995784L85.09564102087384,113.04250040804442L85.25297450329407,92.53303136118056L85.41030798571431,116.40351768898913L85.48897472692443,88.38484099996204L85.72497495055478,104.87028540459139L86.03964191539526,101.2834659767911L86.11830865660538,80.65167499548478L86.35430888023573,114.977403025656L86.43297562144585,128.34649596804155L86.51164236265598,121.28996377060881L86.74764258628632,103.63957678295733L86.82630932749643,100.91325160069998L86.90497606870656,123.737886267018L86.98364280991669,77.9665188880624L87.14097629233692,107.60707625910365L87.61297673959763,117.77395883909375L87.69164348080774,132.55347671635647L87.92764370443811,83.79660072815945L88.08497718685834,79.65862142133057L88.3209774104887,117.91549564243712L88.47831089290894,66.24335923603188L88.55697763411905,135.36529643182038L88.87164459895952,134.9583292838676L88.95031134016965,103.97158969933275L89.02897808137976,85.46828993257472L89.26497830501012,89.84676898303326L89.34364504622023,104.26882532728392L89.6583120110607,53.62567434377719L89.73697875227083,96.02947022673918L90.0516457171113,76.94387696197944L90.13031245832141,107.50129570597683L90.52364616437201,86.39673202843707L90.68097964679225,136.62916244546003L90.99564661163272,89.35481214764128L91.15298009405296,62.31836338353155L91.23164683526308,139.25123039181892L91.31031357647319,74.70823552578776L91.3889803176833,85.14314291863498L91.62498054131368,127.7497155914991L91.93964750615413,104.47088655318538L92.1756477297845,121.4984036130314L92.25431447099461,98.00340839707336L92.5689814358351,110.26456681847635L92.72631491825533,125.08242224431379L92.80498165946544,114.24109644891308L93.04098188309581,120.34884346104167L93.35564884793627,97.51081062705504L93.67031581277675,119.28646797808824L93.74898255398686,115.2520127833044L93.9063160364071,125.25058417442985L94.06364951882735,86.37643283862721L94.22098300124757,122.8792006863111L94.53564996608806,55.85706629559692L94.61431670729817,140.62338362756927L94.92898367213864,122.4576369107377L95.24365063697911,83.70012689700428L95.47965086060947,108.92837177124949L96.18765153150055,88.0251098559786L96.34498501392078,103.34318402793946L96.502318496341,93.59581511071106L96.97431894360172,77.55034159732826L97.05298568481184,107.99481975822911L97.44631939086243,41.11799314924215L97.52498613207254,53.683516498823636L97.91831983812314,91.96303854004896L97.99698657933325,117.17677897590062L98.31165354417374,115.39128875560277L98.62632050901422,138.8756646505941L98.86232073264456,71.2491991466435L98.94098747385468,130.21960546373194L99.0196542150648,71.59777100418735L99.25565443869516,126.32795577165456L99.33432117990527,77.98848626388603L99.49165466232552,99.56885171226321L99.72765488595587,150.19715803522882L99.88498836837611,134.10509164748467L99.96365510958623,131.12657185964838L100.51432229805705,109.1105771936237L100.93387825117769,99.92020680647215L101.0125449923878,130.69664520419008L101.09121173359792,75.49928055359882L101.32721195722829,70.17765303057745L101.4058786984384,128.2558212782659L101.56321218085863,97.66558316942886L101.72054566327887,88.87886111805527L101.799212404489,50.55874069721024L102.03521262811934,100.42425360050089L102.11387936932945,106.65203976621099L102.27121285174971,112.66334806688997L102.34987959295982,126.68373594876324L102.50721307538005,99.70591514311172L102.66454655780029,137.8855260120008L102.74321329901042,102.91920138264608L102.90054678143065,114.80028557062383L102.97921352264076,130.78783790962268L103.136547005061,60.15817663472134L103.45121396990147,115.44165480332953L103.68721419353183,11.74835796676615L103.76588093474196,129.26331344136574L103.92321441716219,95.4303631697038L104.15921464079254,103.2081136403811L104.23788138200267,129.97144962429164L104.3952148644229,83.03084188834681L104.70988182926337,76.0188941571141L104.94588205289372,69.30785206306288L105.02454879410385,94.97789844320663L105.10321553531396,107.1150316244478L105.18188227652408,96.70311007888526L105.57521598257468,129.6814091460157L106.04721642983539,96.60109611417903L106.1258831710455,99.03270550735867L106.59788361830621,114.06981325496596L106.75521710072645,107.69829091435221L107.14855080677704,125.52050106142366L107.38455103040741,139.95635944995684L107.46321777161752,128.91183103822416L107.54188451282764,121.68960406999048L107.69921799524786,92.35293751110275L108.01388496008835,105.23539864345088L108.17121844250858,98.72020158741817L108.32855192492883,128.78765653931373L108.64321888976929,137.91521094311983L109.27255281945024,146.5750367184026L109.66588652550084,109.25237300479553L109.82322000792108,62.18574259543554L110.05922023155144,118.60658998824326L110.13788697276155,116.60910844529872L110.3738871963919,97.81022367675051L110.76722090244249,122.94153816366835L110.92455438486273,73.45584048597448L111.00322112607286,125.90089137219888L111.16055460849309,143.31639337914604L111.31788809091331,75.10629982838272L111.47522157333357,110.58223772509639L111.55388831454368,124.50091015976066L111.6325550557538,106.47193713620679L112.0258887618044,101.90688464999583L112.10455550301451,84.9317574109091L112.34055572664485,94.90233839670849L112.419222467855,107.14085338795593L112.96988965632582,100.1740608181385L113.12722313874605,84.26990899990257L113.20588987995616,100.03764710184271L113.28455662116627,103.13471345577449L113.3632233623764,139.68739079501296L113.52055684479664,103.5735166168114L113.67789032721687,138.47752132866165L113.75655706842699,121.35179640219874L114.22855751568771,93.46109592020822L114.70055796294842,138.47711745204776L114.85789144536865,115.18008323636784L115.32989189262936,127.38951472145388L115.40855863383948,122.0103962404416L115.56589211625972,80.32076834983428L115.72322559867996,132.66421353792953L115.80189233989007,94.85366248481148L116.03789256352043,135.9932279871887L116.11655930473056,133.8623398527364L116.3525595283609,122.35968366198608L116.43122626957101,73.58557267828873L116.82455997562161,105.88586826985811L116.90322671683172,85.40961368452139L116.98189345804187,94.73393940857996L117.06056019925198,100.8331259924799L117.21789368167221,144.4921440515522L117.37522716409244,100.17027666986512L117.45389390530255,105.46544149475201L117.6112273877228,114.0807925529146L117.76856087014303,104.0310912604666L117.84722761135315,103.96426724072487L117.92589435256328,118.8678103581494L118.24056131740375,110.92869801034385L118.3454503056839,104.65984812891543L118.42411704689403,125.28960216729968L118.50278378810415,115.5685027898252L118.58145052931427,80.94189546225165L118.97478423536485,96.78149726168044L119.39434018848549,97.46308294720798L119.4730069296956,135.46839032747238L119.55167367090573,127.59098769228731L119.63034041211584,79.86702175408442L119.8663406357462,138.88879942047106L120.41700782421702,103.40611854029113L120.65300804784738,136.79622688477752L120.81034153026762,118.2536501173212L121.04634175389796,103.20400463483135L121.20367523631822,79.31620429218495L121.51834220115867,98.51388209721836L121.67567568357893,110.59338823160961L121.91167590720927,142.50688855610346L121.99034264841939,101.55384380992031L122.14767613083964,57.07059260128898L122.22634287204976,123.5623052991038L122.77701006052058,124.84041674330854L122.8556768017307,119.81955437864644L123.01301028415094,95.78307915250295L123.3276772489914,128.68530015747837L123.56367747262176,129.17038670047145L123.64234421383189,119.92441742946568L123.79967769625212,71.05410040236801L124.1143446610926,119.82964251406666L124.19301140230272,94.47271025874741L124.42901162593307,125.57656967133966L124.5863451083533,124.08944768949708L124.66501184956343,76.15802965059027L124.74367859077354,127.95683405500023L124.82234533198366,95.82201812603527L124.9796788144039,60.71084666108874L125.21567903803425,126.910446818L125.53034600287472,109.67509134068898L125.76634622650508,101.2050963538487L125.8450129677152,117.35815030526794L125.92367970892532,90.21092520991641L126.00234645013543,130.92116109182976L126.08101319134555,95.7089590139325L126.2383466737658,145.70858968276838L126.31701341497592,98.13055051110304L126.47434689739615,128.1267036807988L126.63168037981637,84.45269828738161L126.94634734465686,117.2822873513094L127.49701453312768,132.1678667393434L127.89034823917828,101.93822020727585L128.0476817215985,115.70387608484397L128.28368194522886,84.44450661606128L128.44101542764912,117.17702042387629L128.51968216885922,93.52182667103644L128.67701565127945,109.72096645606811L128.8343491336997,95.18772112403538L129.07034935733006,142.00249495498238L129.14901609854016,50.41676928751063L129.38501632217054,120.77229492078855L129.46368306338064,119.25374080247568L129.77835002822113,102.144434338359L130.01435025185148,106.75522146112687L130.25035047548184,135.33126543713914L130.72235092274255,98.60299835006009L130.87968440516278,84.4390542817741L131.19435137000326,144.70007026828108L131.3516848524235,108.07992797467458L131.50901833484372,128.15530429100886L131.66635181726397,134.85010352124164L131.74501855847407,104.23360904254025L132.05968552331456,98.18922675915638L132.13835226452468,101.27953256976913L132.21701900573478,61.039707583890745L132.2956857469449,123.58591013119887L132.37435248815504,142.61428022572255L132.6890194529955,116.48861712550821L132.84635293541575,119.10292800690301L132.92501967662585,156.94470706320283L133.1610199002562,101.51869776458776L133.23968664146634,105.64859953913935L133.4756868650967,88.88023956649825L133.63302034751695,89.82721608696639L133.71168708872705,118.34674806678007L134.0263540535675,88.10346191906822L134.18368753598776,130.0338661209864L134.34102101840801,136.5426670006452L134.57702124203834,134.98552071589233L134.65568798324847,128.2571602170401L134.7343547244586,87.35949485655146L134.89168820687883,99.49661047793987L135.04902168929905,72.39123929168161L135.20635517171928,75.51496150212843L135.99302258382048,87.8776334324335L136.3863562898711,124.8143008522664L136.4650230310812,140.71633231827954L136.77968999592167,122.14676605710542L136.9370234783419,139.77735431075115L137.015690219552,138.14850236718465L137.17302370197228,140.11419179667698L137.25169044318238,124.25192461727667L137.3303571843925,135.34181451869475L137.48769066681274,124.14546800981793L137.56635740802284,138.42838008066605L137.8023576316532,138.74721432753256L137.95969111407342,73.79934632599225L138.03835785528358,114.13000843028449L138.11702459649368,127.54088504235222L138.27435807891393,128.10775659965276L138.43169156133416,118.26660050874402L138.66769178496452,122.55791683998223L138.74635852617462,140.31526967082294L138.982358749805,139.0791350546809L139.0610254910151,153.00617036923006L139.21835897343536,121.23649840886696L139.37569245585559,133.3734120919484L139.76902616190617,138.18954852305018L139.92635964432642,111.93418835022716L140.08369312674665,97.14020993420283L140.24102660916688,106.63699975230774L140.3983600915871,94.45230570982089L140.47702683279724,131.1938436556359L140.94902728005795,98.31376123504872L141.34236098610853,145.251598904218L141.42102772731866,125.65997458206579L141.5783612097389,124.89826328831818L141.657027950949,118.23913250903807L141.9716949157895,141.00941065108583L142.0503616569996,137.21726386476763L142.20769513941983,113.32070993551204L142.44369536305018,141.21601987885646L142.7583623278907,133.38296026189573L142.8370290691008,140.64649239382342L142.91569581031092,108.01014511973997L143.46636299878173,125.91009273505388L143.54502973999183,73.17581351374447L144.1743636696728,131.2313032115718L144.33169715209303,104.92555504120604L144.41036389330316,109.11123568810282L144.5676973757234,125.17350081070333L144.67258636400356,140.7746090796822L144.90858658763392,88.6239710750751L144.98725332884402,94.24168405569078L145.06592007005415,114.8948980573847L145.14458681126425,139.53941391566372L145.30192029368447,137.36394131501137L145.3805870348946,109.85689288644934L145.53792051731486,136.09091783814867L145.77392074094521,115.06215565508273L146.1672544469958,105.5877634291945L146.5605881530464,119.76255948649649L146.6392548942565,47.329940327747664L146.79658837667674,126.10776838772436L146.953921859097,137.29016798353325L147.26858882393745,147.5645585671671L147.3472555651476,149.21732044527067L147.50458904756783,124.8598906200379L147.58325578877793,146.96603537523654L147.66192252998806,138.27402019483247L148.291256459669,121.73022000946298L148.44858994208926,131.41817077485823L148.60592342450948,130.54774643257008L148.7632569069297,137.87598662197988L148.92059038934994,127.4405173138438L149.07792387177017,111.27964922793893L149.15659061298032,132.54028487695797L149.31392409540055,121.573612462474L149.5499243190309,132.1837452362167L149.70725780145114,118.44946442559737L149.78592454266123,149.8313994717798L150.17925824871185,93.94771456035608L150.25792498992197,116.95493218588301L150.33659173113207,96.364204920295L150.72992543718266,132.80995153604974L150.8085921783928,101.00587982409706L151.04459240202317,115.51274586729599L151.12325914323327,76.80309084234226L151.7525930729142,121.43776066146708L151.8312598141243,122.05072683230648L152.22459352017492,130.46102270966918L152.46059374380528,137.15976412685032L152.69659396743563,114.36349301272986L152.77526070864573,143.40999178440904L152.932594191066,148.00399388290398L153.16859441469634,75.61050466108644L153.24726115590647,141.15195275600067L153.32592789711657,109.95213313794694L153.48326137953683,85.56938200501016L154.03392856800767,110.0120780853634L154.11259530921777,125.31397963291693L154.269928791638,138.14830042887772L154.42726227405822,120.81368349378323L154.74192923889873,107.99856878679694L154.97792946252906,96.90346799906739L155.13526294494932,99.79247643737446L155.21392968615942,139.0147167347696L155.29259642736955,83.02677678242901L155.37126316857965,140.01909202400157L155.5285966509999,58.229384845876055L155.60726339221,142.51014151883032L155.92193035705048,132.7980810755727L156.07926383947074,121.48583953836967L156.15793058068084,133.6633164813653L156.4725975455213,110.44947206821497L156.62993102794158,112.6415343397781L156.8659312515719,134.5306897992335L157.1805982164124,145.7297383304563L157.6525986636731,119.08629882632347L157.73126540488323,123.17017183678416L157.80993214609333,103.66243093134621L157.96726562851356,32.2286776580207L158.0459323697237,151.30558423208916L158.20326585214391,129.4329021095199L158.28193259335404,138.495638706764L158.36059933456414,115.9261530912546L158.5179328169844,110.50280134109781L158.83259978182488,134.46410722746745L158.9899332642451,136.03148651642596L159.14726674666534,102.97655186181477L159.38326697029572,107.036969298929L159.54060045271595,88.23467791894211L159.69793393513618,126.9616206189545L159.8552674175564,113.17458123066754L159.93393415876653,84.30999814379176L160.01260089997663,97.6540902457865L160.24860112360702,104.4096202268475L160.40593460602724,100.37128430459998L160.6419348296576,115.62188035230318L160.72060157086773,101.9729184763626L160.87793505328796,141.4390387890469L160.95660179449806,77.76367624871237L161.03526853570818,135.57911397915584L161.11393527691828,128.77754645407754L161.27126875933857,138.0111579786917L161.34993550054867,119.893744756628L161.4286022417588,87.9459149199557L161.5072689829689,90.62890238556015L161.58593572417902,128.13385054087894L161.74326920659925,144.5559960662115L161.82193594780938,147.44145741425766L161.9792694302296,127.47409175235285L162.21526965386,149.06106629031885L162.45126987749032,127.76896119014233L162.60860335991055,149.4684021951799L162.7659368423308,136.49414473745998L162.92327032475103,143.0740103413061L163.00193706596113,144.89799614885365L163.0806038071713,100.19939090576888L163.31660403080164,125.36789716086777L163.47393751322187,102.86183334362461L163.70993773685223,107.46066220665155L163.94593796048258,85.11478375640061L164.1032714429028,126.57122119209654L164.18193818411294,113.83931384749265L164.26060492532307,147.89383653647255L164.65393863137362,117.58579184670185L164.73260537258375,132.27112745359676L165.20460581984446,127.29649140136931L165.44060604347482,127.2246189239543L165.51927278468494,119.4998465291043L165.59793952589504,134.45761447190327L165.67660626710517,99.55230155102117L165.99127323194566,139.02265817818784L166.227273455576,116.99364727129243L166.38460693799624,130.14629746835243L166.54194042041647,144.38247838099855L166.77794064404685,138.55582071219294L167.17127435009743,127.12171818668284L167.32860783251766,130.61218670229738L167.4072745737278,125.6063116719802L167.4859413149379,134.35449862643532L168.19394198582896,153.502670816528L168.84949816257998,149.07831665069034L169.0068316450002,106.29288809736919L169.0854983862103,135.8741677953995L169.16416512742043,161.56728562711024L169.95083253952163,125.8931957667195L170.02949928073173,131.5245220232003L170.10816602194186,110.68797437859129L170.3441662455722,138.97715620968023L170.42283298678234,152.30347774066496L170.50149972799247,139.03860691447227L170.58016646920257,115.54700075010015L170.6588332104127,137.148091214717L170.7374999516228,148.6774559415407L170.81616669283292,140.57614762359995L170.89483343404305,151.77665142762166L170.97350017525315,132.15516218585944L171.05216691646328,129.93856879996727L171.2881671400936,126.28068903794289L171.4455006225139,122.40672650757486L171.83883432856445,109.55517949604011L171.91750106977457,134.8835989404132L172.0748345521948,141.36915057499564L172.31083477582519,137.4036309722499L172.3895015170353,131.23794961584778L172.4681682582454,117.46923393393334L172.54683499945554,143.2167982841598L172.70416848187577,141.93905559686337L172.94016870550612,128.6164699245569L173.01883544671622,112.92854135348685L173.2548356703466,161.79359920467792L173.3335024115567,143.19635422556453L173.41216915276684,127.43884034790362L173.49083589397696,143.01977234604206L173.7268361176073,131.14585696796038L173.96283634123765,141.42695761033653L174.12016982365787,135.72928145013896L174.19883656486803,134.89221643816336L174.4348367884984,112.07449157391298L174.5135035297085,78.99482386666583L174.59217027091861,125.90026799742532L174.67083701212871,131.06652155311528L174.82817049454894,133.22276172501392L174.9855039769692,136.76645854435782L175.06417071817933,102.89115829776169L175.37883768301978,120.34081421835953L175.69350464786027,130.6084684034719L175.8508381302805,161.00043382464406L176.16550509512098,155.38288107768497L176.3228385775412,107.2621217312318L176.40150531875133,143.04285477251702L176.55883880117156,105.0631101479323L176.7161722835918,127.56724677133323L176.79483902480192,127.90421595615487L177.0308392484323,106.95073286194263L177.18817273085253,140.90270381572503L177.26683947206263,140.89942451321897L177.50283969569298,114.1491486698111L178.05350688416382,116.54436087814784L178.36817384900428,138.6155944510448L178.84017429626502,151.31569651230694L178.91884103747512,115.57783146161282L178.99750777868525,124.97180834171019L179.07617451989537,117.02948693080967L179.15484126110547,102.81457099987612L179.6268417083662,133.86184378689546L179.78417519078644,130.64602892856126L180.17750889683703,150.19882841622422L180.25617563804713,123.46390427410637L180.33484237925725,107.09034247144376L180.57084260288764,132.5988294261155L180.64950934409774,146.49213445846223L181.04284305014832,148.40746223019096L181.59351023861916,152.1097662247588L181.7508437210394,118.09249895842626L181.90817720345962,162.01027681303438L181.98684394466974,128.2591357004775L182.38017765072033,127.64228002224806L182.45884439193046,111.17813571903683L182.53751113314058,111.49953809437194L182.6161778743507,119.06312421062142L182.85217809798104,123.99896615810195L183.00951158040127,145.7222271034311L183.32417854524175,114.59123113335404L183.40284528645188,114.9853137393319L183.63884551008223,102.92646238176924L183.71751225129236,138.20216088730706L183.79617899250246,129.82227428499039L183.9535124749227,147.1404705627571L184.11084595734295,136.6294082833989L184.18951269855305,135.24074000611205L184.50417966339353,136.81628462661172L184.66151314581379,110.51253827946249L184.8975133694441,107.53707390600934L184.97618011065424,136.15150811015468L185.36951381670485,130.02909862095754L185.52684729912508,111.96004523344085L185.92018100517566,139.87865271145674L186.0775144875959,140.0560774639125L186.15618122880605,127.02646037533245L186.23484797001615,122.81209570892493L186.31351471122628,138.26682943512043L186.4708481936465,101.7873898518504L186.5495149348566,134.77708526343292L186.62818167606673,131.31685481429986L186.70684841727686,136.66771510223126L186.78551515848696,142.98729100836837L187.41484908816793,143.0424816256455L187.57218257058815,131.7762073930487L187.65084931179825,152.5831579058026L187.72951605300838,134.429053371362L187.8868495354286,114.50143004625401L188.51618346510958,131.77020192339907L188.75218368873993,99.82898337129721L188.9095171711602,87.47088578264045L189.38151761842087,154.5980807725176L189.61751784205123,141.6391157515846L189.77485132447146,153.29497726784842L190.08951828931194,132.92297552844695L190.2468517717322,132.08288583183054L190.56151873657265,97.05515000735251L190.64018547778275,120.93319585178143L190.79751896020304,95.26521275433895L191.03351918383336,120.76862491155822L191.42685288988395,137.57253919610895L191.58418637230417,145.29080127554198L191.74151985472443,115.28157479545396L191.82018659593456,119.12247212304348L191.9775200783548,142.37522916994698L192.0561868195649,153.47904842458016L192.4495205256155,140.42668693669108L192.5281872668256,137.71188101785526L192.60685400803573,155.89797082412863L193.15752119650656,131.23827008316096L193.55085490255718,144.82495813621057L193.86552186739763,108.6178916243415L194.101522091028,135.52189958884617L194.33752231465834,90.53904861890179L194.41618905586844,93.69504583875216L194.9144117501992,107.97703162736632L194.99307849140934,135.27034591789356L195.22907871503966,110.73783558055072L195.3077454562498,133.5846527308889L195.46507893867005,107.21331412043898L196.5664133156117,115.2766448667869L196.64508005682183,123.73022139128096L196.72374679803193,104.67882154984066L196.80241353924205,129.48126633403012L196.95974702166228,146.560260102291L197.19574724529264,114.24649171367872L197.43174746892302,120.31130488576828L197.74641443376348,99.70835596264769L197.82508117497358,76.38355961972778L197.9037479161837,134.4148079407969L198.06108139860393,135.07766165337486L198.2184148810242,147.38991924635806L198.37574836344442,100.77944552254155L198.61174858707477,126.00558760441675L198.92641555191526,117.95198501650711L199.24108251675574,134.36270785760843L199.5557494815962,95.16899354104903L199.63441622280632,93.66042658900291L199.79174970522655,22.719139386799895L200.10641667006703,147.92812214901906L200.26375015248726,113.4013008798307L200.65708385853785,75.04565687681838L201.05041756458846,131.85583254546464L201.12908430579859,136.61491701489493L201.2864177882188,122.44969107735625L201.3650845294289,79.74582365021963L201.60108475305927,113.45668026552521L201.83708497668962,129.79661934008362L202.07308520032,111.94392528859184L202.30908542395034,134.88794061401222L202.46641890637056,97.99020338778529L202.5450856475807,135.51691698062078L202.62375238879082,121.88423308820421L202.70241913000092,141.29581623983694L202.78108587121108,132.66278240992824L203.25308631847176,108.28821416838538L203.410419800892,138.5214077907138L203.48908654210211,119.44432227462437L203.56775328331224,121.97554432264303L203.64642002452234,118.31410869043137L204.03975373057295,136.8269873568791L204.11842047178308,135.52246589409822L204.19708721299318,134.85795716539602L204.3544206954134,132.49628866582597L204.51175417783364,136.19906458143717L204.59042091904377,131.7677786637159L204.66908766025392,142.65821058740664L204.74775440146402,111.51760718287916L204.82642114267415,135.18596204537516L204.90508788388425,128.22289216434638L205.29842158993483,151.58985410374632L205.37708833114496,118.69278691556087L205.45575507235506,145.00355061887598L205.9277555196158,96.97182850592706L206.0064222608259,147.26627593299412L206.24242248445626,127.34316110008658L206.39975596687648,111.52969714151592L206.4784227080866,128.1360630823288L206.55708944929674,110.08458271747838L206.7930896729271,136.19456486916314L207.2650901201878,132.29276119221765L207.5797570850283,155.8919785243686L207.73709056744852,142.05411214221948L207.89442404986875,129.7551210180091L208.1304242734991,115.2101018046896L208.3664244971295,154.53193280710778L208.4450912383396,152.2205469459638L208.5237579795497,135.26343611582595L208.6024247207598,140.22732114819087L208.75975820318007,138.62768879964477L208.83842494439017,147.41168907383798L209.41531437993106,154.78834616731632L209.49398112114116,145.53057667524462L209.5726478623513,123.16474584227616L209.65131460356142,146.07329465505083L209.72998134477152,137.7942937968995L209.80864808598164,145.43433112217554L209.88731482719174,132.06717854352178L209.96598156840187,96.02882051218644L210.04464830961197,129.3353176176766L210.1233150508221,127.96963079771126L210.20198179203226,127.46923645306009L210.28064853324236,124.3700629167951L210.43798201566258,117.44583543010839L210.5166487568727,95.82072747685618L210.5953154980828,128.79444781237513L210.67398223929294,129.93499097996403L210.75264898050307,122.05171018406196L210.83131572171317,136.24768781377585L210.9886492041334,143.9939622483509L211.06731594534352,148.06180091824487L211.14598268655365,141.32673036065034L211.22464942776378,129.42611083645852L211.3033161689739,119.70612211967216L211.381982910184,115.08126516486698L211.46064965139414,129.3719343006792L211.53931639260423,133.39740324080458L211.61798313381436,128.8569213785914L211.6966498750245,129.52179008427552L211.7753166162346,94.0854452656101L211.85398335744472,140.24208898437604L211.93265009865482,120.14277419874392L212.01131683986495,129.9815816593438L212.08998358107507,128.14422841386997L212.1686503222852,125.51287569535538L212.24731706349533,144.33493068964242L212.32598380470543,133.42928315352066L212.40465054591556,129.17145785149083L212.48331728712566,130.58679076521906L212.5619840283358,144.60153095944307L212.64065076954589,134.58005932531518L212.719317510756,153.42711515999306L212.79798425196614,124.94227266933977L212.87665099317624,152.94092673623825L212.95531773438637,137.70161289394406L213.0339844755965,127.4819585663968L213.11265121680663,139.75008385938895L213.19131795801673,94.12362038554666L213.26998469922685,132.25960380021203L213.34865144043698,153.34134844906848L213.42731818164708,97.51326900644378L213.74198514648756,106.72070757049427L213.82065188769766,125.25309084341372L214.05665211132805,132.4533899454925L214.2926523349584,141.806856245234L214.44998581737863,120.35652589663147L214.84331952342924,150.53978368762617L215.07931974705957,136.2508178575333L215.62998693553038,125.97087616544042L215.7086536767405,153.83705211804667L216.25932086521135,130.01325963375297L216.4953210888417,123.19995334709344L216.73132131247206,123.4777502180208L216.88865479489232,138.66627657612156L217.20332175973277,134.015457378986L217.43932198336313,106.39396260995186L217.91132243062384,97.27735238438883L218.1473226542542,130.9828576345607L218.6193231015149,131.81973826808215L218.77665658393514,129.91923101209693L218.85532332514526,135.4724378735374L218.9339900663554,137.22070120594864L219.0126568075655,122.17732459090007L219.40599051361608,113.12413616360328L219.56332399603633,146.53933973268917L219.87799096087682,105.90324374418064L219.95665770208691,115.57075045098063L220.03532444329704,86.03183828773729L220.11399118450714,64.99129783342136L220.19265792571727,74.87549312348581L220.27132466692737,119.84670191103922L220.3499914081375,132.17928942357463L220.42865814934765,99.16728421903929L220.50732489055775,134.92804731775422L220.58599163176788,133.5811144205544L220.66465837297798,113.68756159979642L220.7433251141881,107.00489622783235L220.90065859660834,106.54687380793135L221.05799207902857,66.04459048252605" style="fill: none;" fill="none"></path></g></g></g></g></g></g><g transform="translate(64, 177)" clip-path="url(#clip_1)"><clipPath id="clip_1"><rect width="266" height="23"></rect></clipPath><g><g><line x1="8.080901376167862" y1="0" x2="8.080901376167862" y2="5" style="visibility: inherit;" fill="rgb(0, 0, 0)" stroke="rgb(204, 204, 204)" stroke-width="1px"></line><line x1="34.303148446207345" y1="0" x2="34.303148446207345" y2="5" style="visibility: inherit;" fill="rgb(0, 0, 0)" stroke="rgb(204, 204, 204)" stroke-width="1px"></line><line x1="60.52539551624684" y1="0" x2="60.52539551624684" y2="5" style="visibility: inherit;" fill="rgb(0, 0, 0)" stroke="rgb(204, 204, 204)" stroke-width="1px"></line><line x1="86.74764258628632" y1="0" x2="86.74764258628632" y2="5" style="visibility: inherit;" fill="rgb(0, 0, 0)" stroke="rgb(204, 204, 204)" stroke-width="1px"></line><line x1="112.96988965632582" y1="0" x2="112.96988965632582" y2="5" style="visibility: inherit;" fill="rgb(0, 0, 0)" stroke="rgb(204, 204, 204)" stroke-width="1px"></line><line x1="139.1921367263653" y1="0" x2="139.1921367263653" y2="5" style="visibility: inherit;" fill="rgb(0, 0, 0)" stroke="rgb(204, 204, 204)" stroke-width="1px"></line><line x1="165.4143837964048" y1="0" x2="165.4143837964048" y2="5" style="visibility: inherit;" fill="rgb(0, 0, 0)" stroke="rgb(204, 204, 204)" stroke-width="1px"></line><line x1="191.63663086644425" y1="0" x2="191.63663086644425" y2="5" style="visibility: inherit;" fill="rgb(0, 0, 0)" stroke="rgb(204, 204, 204)" stroke-width="1px"></line><line x1="217.85887793648376" y1="0" x2="217.85887793648376" y2="5" style="visibility: inherit;" fill="rgb(0, 0, 0)" stroke="rgb(204, 204, 204)" stroke-width="1px"></line><line x1="244.08112500652325" y1="0" x2="244.08112500652325" y2="5" style="visibility: inherit;" fill="rgb(0, 0, 0)" stroke="rgb(204, 204, 204)" stroke-width="1px"></line></g><g transform="translate(0, 8)"><text x="8.080901376167862" y="0" dx="0em" dy="0.95em" style="text-anchor: middle; visibility: hidden; font-family: &quot;Helvetica Neue&quot;, sans-serif; font-size: 12px; font-weight: 200;" fill="rgb(50, 49, 63)" stroke="none" stroke-width="1px">-100k</text><text x="34.303148446207345" y="0" dx="0em" dy="0.95em" style="text-anchor: middle; visibility: inherit; font-family: &quot;Helvetica Neue&quot;, sans-serif; font-size: 12px; font-weight: 200;" fill="rgb(50, 49, 63)" stroke="none" stroke-width="1px">0</text><text x="60.52539551624684" y="0" dx="0em" dy="0.95em" style="text-anchor: middle; visibility: hidden; font-family: &quot;Helvetica Neue&quot;, sans-serif; font-size: 12px; font-weight: 200;" fill="rgb(50, 49, 63)" stroke="none" stroke-width="1px">100k</text><text x="86.74764258628632" y="0" dx="0em" dy="0.95em" style="text-anchor: middle; visibility: inherit; font-family: &quot;Helvetica Neue&quot;, sans-serif; font-size: 12px; font-weight: 200;" fill="rgb(50, 49, 63)" stroke="none" stroke-width="1px">200k</text><text x="112.96988965632582" y="0" dx="0em" dy="0.95em" style="text-anchor: middle; visibility: hidden; font-family: &quot;Helvetica Neue&quot;, sans-serif; font-size: 12px; font-weight: 200;" fill="rgb(50, 49, 63)" stroke="none" stroke-width="1px">300k</text><text x="139.1921367263653" y="0" dx="0em" dy="0.95em" style="text-anchor: middle; visibility: inherit; font-family: &quot;Helvetica Neue&quot;, sans-serif; font-size: 12px; font-weight: 200;" fill="rgb(50, 49, 63)" stroke="none" stroke-width="1px">400k</text><text x="165.4143837964048" y="0" dx="0em" dy="0.95em" style="text-anchor: middle; visibility: hidden; font-family: &quot;Helvetica Neue&quot;, sans-serif; font-size: 12px; font-weight: 200;" fill="rgb(50, 49, 63)" stroke="none" stroke-width="1px">500k</text><text x="191.63663086644425" y="0" dx="0em" dy="0.95em" style="text-anchor: middle; visibility: inherit; font-family: &quot;Helvetica Neue&quot;, sans-serif; font-size: 12px; font-weight: 200;" fill="rgb(50, 49, 63)" stroke="none" stroke-width="1px">600k</text><text x="217.85887793648376" y="0" dx="0em" dy="0.95em" style="text-anchor: middle; visibility: hidden; font-family: &quot;Helvetica Neue&quot;, sans-serif; font-size: 12px; font-weight: 200;" fill="rgb(50, 49, 63)" stroke="none" stroke-width="1px">700k</text><text x="244.08112500652325" y="0" dx="0em" dy="0.95em" style="text-anchor: middle; visibility: inherit; font-family: &quot;Helvetica Neue&quot;, sans-serif; font-size: 12px; font-weight: 200;" fill="rgb(50, 49, 63)" stroke="none" stroke-width="1px">800k</text></g><line x1="0" y1="0" x2="266" y2="0" fill="rgb(0, 0, 0)" stroke="rgb(204, 204, 204)" stroke-width="1px"></line></g></g></g></g></svg>