<svg viewBox="0 0 330 200" xmlns="http://www.w3.org/2000/svg"><g><g><g><g><g><line x1="46" y1="162.65638544085104" x2="41" y2="162.65638544085104" style="visibility: inherit;" fill="rgb(0, 0, 0)" stroke="rgb(204, 204, 204)" stroke-width="1px"></line><line x1="46" y1="139.22556190347618" x2="41" y2="139.22556190347618" style="visibility: inherit;" fill="rgb(0, 0, 0)" stroke="rgb(204, 204, 204)" stroke-width="1px"></line><line x1="46" y1="115.7947383661014" x2="41" y2="115.7947383661014" style="visibility: inherit;" fill="rgb(0, 0, 0)" stroke="rgb(204, 204, 204)" stroke-width="1px"></line><line x1="46" y1="92.36391482872655" x2="41" y2="92.36391482872655" style="visibility: inherit;" fill="rgb(0, 0, 0)" stroke="rgb(204, 204, 204)" stroke-width="1px"></line><line x1="46" y1="68.9330912913517" x2="41" y2="68.9330912913517" style="visibility: inherit;" fill="rgb(0, 0, 0)" stroke="rgb(204, 204, 204)" stroke-width="1px"></line><line x1="46" y1="45.50226775397687" x2="41" y2="45.50226775397687" style="visibility: inherit;" fill="rgb(0, 0, 0)" stroke="rgb(204, 204, 204)" stroke-width="1px"></line><line x1="46" y1="22.071444216602004" x2="41" y2="22.071444216602004" style="visibility: inherit;" fill="rgb(0, 0, 0)" stroke="rgb(204, 204, 204)" stroke-width="1px"></line></g><g transform="translate(36, 0)"><text x="0" y="162.65638544085104" dx="0em" dy="0.3em" style="text-anchor: end; visibility: inherit; font-family: &quot;Helvetica Neue&quot;, sans-serif; font-size: 12px; font-weight: 200;" fill="rgb(50, 49, 63)" stroke="none" stroke-width="1px">0.44</text><text x="0" y="139.22556190347618" dx="0em" dy="0.3em" style="text-anchor: end; visibility: hidden; font-family: &quot;Helvetica Neue&quot;, sans-serif; font-size: 12px; font-weight: 200;" fill="rgb(50, 49, 63)" stroke="none" stroke-width="1px">0.46</text><text x="0" y="115.7947383661014" dx="0em" dy="0.3em" style="text-anchor: end; visibility: inherit; font-family: &quot;Helvetica Neue&quot;, sans-serif; font-size: 12px; font-weight: 200;" fill="rgb(50, 49, 63)" stroke="none" stroke-width="1px">0.48</text><text x="0" y="92.36391482872655" dx="0em" dy="0.3em" style="text-anchor: end; visibility: hidden; font-family: &quot;Helvetica Neue&quot;, sans-serif; font-size: 12px; font-weight: 200;" fill="rgb(50, 49, 63)" stroke="none" stroke-width="1px">0.5</text><text x="0" y="68.9330912913517" dx="0em" dy="0.3em" style="text-anchor: end; visibility: inherit; font-family: &quot;Helvetica Neue&quot;, sans-serif; font-size: 12px; font-weight: 200;" fill="rgb(50, 49, 63)" stroke="none" stroke-width="1px">0.52</text><text x="0" y="45.50226775397687" dx="0em" dy="0.3em" style="text-anchor: end; visibility: hidden; font-family: &quot;Helvetica Neue&quot;, sans-serif; font-size: 12px; font-weight: 200;" fill="rgb(50, 49, 63)" stroke="none" stroke-width="1px">0.54</text><text x="0" y="22.071444216602004" dx="0em" dy="0.3em" style="text-anchor: end; visibility: inherit; font-family: &quot;Helvetica Neue&quot;, sans-serif; font-size: 12px; font-weight: 200;" fill="rgb(50, 49, 63)" stroke="none" stroke-width="1px">0.56</text></g><line x1="46" y1="0" x2="46" y2="177" fill="rgb(0, 0, 0)" stroke="rgb(204, 204, 204)" stroke-width="1px"></line></g></g><g transform="translate(46, 0)" clip-path="url(#clip_0)"><clipPath id="clip_0"><rect width="284" height="177"></rect></clipPath><g><g><g><line x1="25.168152771664587" y1="0" x2="25.168152771664587" y2="177" fill="rgb(0, 0, 0)" stroke="rgb(60, 60, 60)" stroke-width="1px" opacity="0.25"></line><line x1="57.14225397075939" y1="0" x2="57.14225397075939" y2="177" fill="rgb(0, 0, 0)" stroke="rgb(60, 60, 60)" stroke-width="1px" opacity="0.25"></line><line x1="89.1163551698542" y1="0" x2="89.1163551698542" y2="177" fill="rgb(0, 0, 0)" stroke="rgb(60, 60, 60)" stroke-width="1px" opacity="0.25"></line><line x1="121.090456368949" y1="0" x2="121.090456368949" y2="177" fill="rgb(0, 0, 0)" stroke="rgb(60, 60, 60)" stroke-width="1px" opacity="0.25"></line><line x1="153.0645575680438" y1="0" x2="153.0645575680438" y2="177" fill="rgb(0, 0, 0)" stroke="rgb(60, 60, 60)" stroke-width="1px" opacity="0.25"></line><line x1="185.0386587671386" y1="0" x2="185.0386587671386" y2="177" fill="rgb(0, 0, 0)" stroke="rgb(60, 60, 60)" stroke-width="1px" opacity="0.25"></line><line x1="217.0127599662334" y1="0" x2="217.0127599662334" y2="177" fill="rgb(0, 0, 0)" stroke="rgb(60, 60, 60)" stroke-width="1px" opacity="0.25"></line><line x1="248.9868611653282" y1="0" x2="248.9868611653282" y2="177" fill="rgb(0, 0, 0)" stroke="rgb(60, 60, 60)" stroke-width="1px" opacity="0.25"></line><line x1="280.96096236442304" y1="0" x2="280.96096236442304" y2="177" fill="rgb(0, 0, 0)" stroke="rgb(60, 60, 60)" stroke-width="1px" opacity="0.25"></line></g><g><line x1="0" y1="162.65638544085104" x2="284" y2="162.65638544085104" fill="rgb(0, 0, 0)" stroke="rgb(60, 60, 60)" stroke-width="1px" opacity="0.25"></line><line x1="0" y1="139.22556190347618" x2="284" y2="139.22556190347618" fill="rgb(0, 0, 0)" stroke="rgb(60, 60, 60)" stroke-width="1px" opacity="0.25"></line><line x1="0" y1="115.7947383661014" x2="284" y2="115.7947383661014" fill="rgb(0, 0, 0)" stroke="rgb(60, 60, 60)" stroke-width="1px" opacity="0.25"></line><line x1="0" y1="92.36391482872655" x2="284" y2="92.36391482872655" fill="rgb(0, 0, 0)" stroke="rgb(60, 60, 60)" stroke-width="1px" opacity="0.25"></line><line x1="0" y1="68.9330912913517" x2="284" y2="68.9330912913517" fill="rgb(0, 0, 0)" stroke="rgb(60, 60, 60)" stroke-width="1px" opacity="0.25"></line><line x1="0" y1="45.50226775397687" x2="284" y2="45.50226775397687" fill="rgb(0, 0, 0)" stroke="rgb(60, 60, 60)" stroke-width="1px" opacity="0.25"></line><line x1="0" y1="22.071444216602004" x2="284" y2="22.071444216602004" fill="rgb(0, 0, 0)" stroke="rgb(60, 60, 60)" stroke-width="1px" opacity="0.25"></line></g></g></g><g><g><line x1="0" y1="678.1345032630973" x2="284" y2="678.1345032630973" fill="rgb(0, 0, 0)" stroke="rgb(153, 153, 153)" stroke-width="1.5px"></line></g></g><g><g><line x1="-70.75415082561983" y1="0" x2="-70.75415082561983" y2="177" fill="rgb(0, 0, 0)" stroke="rgb(153, 153, 153)" stroke-width="1.5px"></line></g></g><g><g><g><g><g><path stroke="rgb(0, 119, 187)" stroke-width="2px" d="M29.164915421551438,96.14307631130723L30.603749975510706,89.18329457543126L32.04258452946997,78.26682361977801L39.71636881725272,98.0609549300491L41.0912551688138,75.58298655961028L42.53008972277306,80.55829622519363L43.96892427673234,56.80703102768635L72.26600383793124,134.21005170145256L73.64089018949231,92.5085289939713L75.07972474345158,64.74312288569317L76.51855929741083,110.71348020417376L77.95739385137011,55.946224081163564L79.39622840532938,78.86953263920016L80.83506295928863,170.64899447121468L82.27389751324792,178.5420281887678L83.71273206720718,141.22510763062306L88.4448990446732,100.02013100476833L91.32256815259174,82.65988863462984L94.20023726051026,105.34598295634913L97.07790636842881,55.484619317859696L99.95557547634733,109.91724889725259L102.83324458426587,97.32765515369847L105.71091369218439,92.79079649667415L108.58858280010294,99.30893384232753L111.46625190802148,120.59444713651428L114.34392101594,84.42927982196004L120.99453406535171,115.86064329568393L123.87220317327026,101.29294066704239L126.74987228118879,72.40688948034925L129.6275413891073,80.28514986352992L132.50521049702584,94.77929463679834L135.38287960494438,61.484255136512104L138.2605487128629,62.075035334566095L141.13821782078145,10.313474681441448L144.01588692869998,126.757452028993L147.37316755460492,60.780159253185886L150.25083666252348,34.381190503993935L153.128505770442,70.10663256140586L154.47141802080398,66.27071338818583L157.34908712872252,45.21583894484016L160.22675623664105,95.2174874928698L163.10442534455956,68.43024691229175L165.98209445247812,59.21823703220443L168.85976356039663,120.60080080592238L187.91632787505714,118.97139410030468L190.7939969829757,115.37711152854286L193.6716660908942,45.9848355898321L196.0697236808263,91.82946760926032L198.94739278874485,71.59303079738005L201.82506189666339,100.94007958726692L204.70273100458192,30.926636462567444L207.58040011250046,59.44708012860693L208.95528646406152,72.26229906912252L211.83295557198008,100.9976366586368L214.7106246798986,37.83989356086269L217.58829378781712,22.04586686921789L220.46596289573563,41.41250214420893L223.3436320036542,70.71132536246434L226.22130111157273,55.96019235986431L229.09897021949124,65.0541195308532L231.9766393274098,86.56111883803074L234.85430843532833,22.781738647975658L237.73197754324684,48.384094307339495L240.60964665116538,36.76928251373002L241.98453300272647,80.67446925947934L244.862202110645,80.99616172453501L247.7398712185635,91.386288061766L250.61754032648204,126.82140678954352" style="fill: none;" fill="none"></path></g></g></g></g><g opacity="0.2"><g><g><g><path stroke="rgb(0, 119, 187)" stroke-width="2px" d="M29.164915421551438,96.14307631130723L30.603749975510706,88.58475334614587L32.04258452946997,77.24726889840383L39.71636881725272,99.92223779388792L41.0912551688138,73.46810741582316L42.53008972277306,81.02643038098451L43.96892427673234,54.57223017362409L72.26600383793124,141.4930490169232L73.64089018949231,88.58475334614587L75.07972474345158,62.13062296808113L76.51855929741083,115.03891863885846L77.95739385137011,50.7930686910434L79.39622840532938,81.02643038098451L80.83506295928863,179.28469875737784L82.27389751324792,179.28469875737784L83.71273206720718,137.71388753434255L88.4448990446732,96.14307631130723L91.32256815259174,81.02643038098451L94.20023726051026,107.48056075904927L97.07790636842881,50.7930686910434L99.95557547634733,115.03891863885846L102.83324458426587,96.14307631130723L105.71091369218439,92.36391482872655L108.58858280010294,99.92223779388792L111.46625190802148,122.59724160401983L114.34392101594,81.02643038098451L120.99453406535171,118.81808012143915L123.87220317327026,99.92223779388792L126.74987228118879,69.6889459332425L129.6275413891073,81.02643038098451L132.50521049702584,96.14307631130723L135.38287960494438,58.35146148550045L138.2605487128629,62.13062296808113L141.13821782078145,5.443130900075261L144.01588692869998,137.71388753434255L147.37316755460492,54.57223017362409L150.25083666252348,31.897261278140007L153.128505770442,73.46810741582316L154.47141802080398,65.9097844506618L157.34908712872252,43.23474572588205L160.22675623664105,99.92223779388792L163.10442534455956,65.9097844506618L165.98209445247812,58.35146148550045L168.85976356039663,126.3764030866005L187.91632787505714,118.81808012143915L190.7939969829757,115.03891863885846L193.6716660908942,39.45558424330136L196.0697236808263,96.14307631130723L198.94739278874485,69.6889459332425L201.82506189666339,103.70139927646859L204.70273100458192,24.338938312978655L207.58040011250046,62.13062296808113L208.95528646406152,73.46810741582316L211.83295557198008,103.70139927646859L214.7106246798986,31.897261278140007L217.58829378781712,20.559776830397965L220.46596289573563,43.23474572588205L223.3436320036542,73.46810741582316L226.22130111157273,54.57223017362409L229.09897021949124,65.9097844506618L231.9766393274098,88.58475334614587L234.85430843532833,16.780615347817303L237.73197754324684,50.7930686910434L240.60964665116538,35.67642276072067L241.98453300272647,84.80559186356518L244.862202110645,81.02643038098451L247.7398712185635,92.36391482872655L250.61754032648204,130.1555645691812" style="fill: none;" fill="none"></path></g></g></g></g></g></g><g transform="translate(46, 177)" clip-path="url(#clip_1)"><clipPath id="clip_1"><rect width="284" height="23"></rect></clipPath><g><g><line x1="25.168152771664587" y1="0" x2="25.168152771664587" y2="5" style="visibility: inherit;" fill="rgb(0, 0, 0)" stroke="rgb(204, 204, 204)" stroke-width="1px"></line><line x1="57.14225397075939" y1="0" x2="57.14225397075939" y2="5" style="visibility: inherit;" fill="rgb(0, 0, 0)" stroke="rgb(204, 204, 204)" stroke-width="1px"></line><line x1="89.1163551698542" y1="0" x2="89.1163551698542" y2="5" style="visibility: inherit;" fill="rgb(0, 0, 0)" stroke="rgb(204, 204, 204)" stroke-width="1px"></line><line x1="121.090456368949" y1="0" x2="121.090456368949" y2="5" style="visibility: inherit;" fill="rgb(0, 0, 0)" stroke="rgb(204, 204, 204)" stroke-width="1px"></line><line x1="153.0645575680438" y1="0" x2="153.0645575680438" y2="5" style="visibility: inherit;" fill="rgb(0, 0, 0)" stroke="rgb(204, 204, 204)" stroke-width="1px"></line><line x1="185.0386587671386" y1="0" x2="185.0386587671386" y2="5" style="visibility: inherit;" fill="rgb(0, 0, 0)" stroke="rgb(204, 204, 204)" stroke-width="1px"></line><line x1="217.0127599662334" y1="0" x2="217.0127599662334" y2="5" style="visibility: inherit;" fill="rgb(0, 0, 0)" stroke="rgb(204, 204, 204)" stroke-width="1px"></line><line x1="248.9868611653282" y1="0" x2="248.9868611653282" y2="5" style="visibility: inherit;" fill="rgb(0, 0, 0)" stroke="rgb(204, 204, 204)" stroke-width="1px"></line><line x1="280.96096236442304" y1="0" x2="280.96096236442304" y2="5" style="visibility: inherit;" fill="rgb(0, 0, 0)" stroke="rgb(204, 204, 204)" stroke-width="1px"></line></g><g transform="translate(0, 8)"><text x="25.168152771664587" y="0" dx="0em" dy="0.95em" style="text-anchor: middle; visibility: inherit; font-family: &quot;Helvetica Neue&quot;, sans-serif; font-size: 12px; font-weight: 200;" fill="rgb(50, 49, 63)" stroke="none" stroke-width="1px">300k</text><text x="57.14225397075939" y="0" dx="0em" dy="0.95em" style="text-anchor: middle; visibility: inherit; font-family: &quot;Helvetica Neue&quot;, sans-serif; font-size: 12px; font-weight: 200;" fill="rgb(50, 49, 63)" stroke="none" stroke-width="1px">400k</text><text x="89.1163551698542" y="0" dx="0em" dy="0.95em" style="text-anchor: middle; visibility: inherit; font-family: &quot;Helvetica Neue&quot;, sans-serif; font-size: 12px; font-weight: 200;" fill="rgb(50, 49, 63)" stroke="none" stroke-width="1px">500k</text><text x="121.090456368949" y="0" dx="0em" dy="0.95em" style="text-anchor: middle; visibility: inherit; font-family: &quot;Helvetica Neue&quot;, sans-serif; font-size: 12px; font-weight: 200;" fill="rgb(50, 49, 63)" stroke="none" stroke-width="1px">600k</text><text x="153.0645575680438" y="0" dx="0em" dy="0.95em" style="text-anchor: middle; visibility: inherit; font-family: &quot;Helvetica Neue&quot;, sans-serif; font-size: 12px; font-weight: 200;" fill="rgb(50, 49, 63)" stroke="none" stroke-width="1px">700k</text><text x="185.0386587671386" y="0" dx="0em" dy="0.95em" style="text-anchor: middle; visibility: inherit; font-family: &quot;Helvetica Neue&quot;, sans-serif; font-size: 12px; font-weight: 200;" fill="rgb(50, 49, 63)" stroke="none" stroke-width="1px">800k</text><text x="217.0127599662334" y="0" dx="0em" dy="0.95em" style="text-anchor: middle; visibility: inherit; font-family: &quot;Helvetica Neue&quot;, sans-serif; font-size: 12px; font-weight: 200;" fill="rgb(50, 49, 63)" stroke="none" stroke-width="1px">900k</text><text x="248.9868611653282" y="0" dx="0em" dy="0.95em" style="text-anchor: middle; visibility: inherit; font-family: &quot;Helvetica Neue&quot;, sans-serif; font-size: 12px; font-weight: 200;" fill="rgb(50, 49, 63)" stroke="none" stroke-width="1px">1M</text><text x="280.96096236442304" y="0" dx="0em" dy="0.95em" style="text-anchor: middle; visibility: hidden; font-family: &quot;Helvetica Neue&quot;, sans-serif; font-size: 12px; font-weight: 200;" fill="rgb(50, 49, 63)" stroke="none" stroke-width="1px">1.1M</text></g><line x1="0" y1="0" x2="284" y2="0" fill="rgb(0, 0, 0)" stroke="rgb(204, 204, 204)" stroke-width="1px"></line></g></g></g></g></svg>