<svg viewBox="0 0 330 200" xmlns="http://www.w3.org/2000/svg"><g><g><g><g><g><line x1="46" y1="159.2024548483958" x2="41" y2="159.2024548483958" style="visibility: inherit;" fill="rgb(0, 0, 0)" stroke="rgb(204, 204, 204)" stroke-width="1px"></line><line x1="46" y1="137.3370788134282" x2="41" y2="137.3370788134282" style="visibility: inherit;" fill="rgb(0, 0, 0)" stroke="rgb(204, 204, 204)" stroke-width="1px"></line><line x1="46" y1="115.47170277846061" x2="41" y2="115.47170277846061" style="visibility: inherit;" fill="rgb(0, 0, 0)" stroke="rgb(204, 204, 204)" stroke-width="1px"></line><line x1="46" y1="93.60632674349297" x2="41" y2="93.60632674349297" style="visibility: inherit;" fill="rgb(0, 0, 0)" stroke="rgb(204, 204, 204)" stroke-width="1px"></line><line x1="46" y1="71.74095070852538" x2="41" y2="71.74095070852538" style="visibility: inherit;" fill="rgb(0, 0, 0)" stroke="rgb(204, 204, 204)" stroke-width="1px"></line><line x1="46" y1="49.87557467355778" x2="41" y2="49.87557467355778" style="visibility: inherit;" fill="rgb(0, 0, 0)" stroke="rgb(204, 204, 204)" stroke-width="1px"></line><line x1="46" y1="28.01019863859014" x2="41" y2="28.01019863859014" style="visibility: inherit;" fill="rgb(0, 0, 0)" stroke="rgb(204, 204, 204)" stroke-width="1px"></line><line x1="46" y1="6.144822603622515" x2="41" y2="6.144822603622515" style="visibility: inherit;" fill="rgb(0, 0, 0)" stroke="rgb(204, 204, 204)" stroke-width="1px"></line></g><g transform="translate(36, 0)"><text x="0" y="159.2024548483958" dx="0em" dy="0.3em" style="text-anchor: end; visibility: inherit; font-family: &quot;Helvetica Neue&quot;, sans-serif; font-size: 12px; font-weight: 200;" fill="rgb(50, 49, 63)" stroke="none" stroke-width="1px">0.14</text><text x="0" y="137.3370788134282" dx="0em" dy="0.3em" style="text-anchor: end; visibility: hidden; font-family: &quot;Helvetica Neue&quot;, sans-serif; font-size: 12px; font-weight: 200;" fill="rgb(50, 49, 63)" stroke="none" stroke-width="1px">0.16</text><text x="0" y="115.47170277846061" dx="0em" dy="0.3em" style="text-anchor: end; visibility: inherit; font-family: &quot;Helvetica Neue&quot;, sans-serif; font-size: 12px; font-weight: 200;" fill="rgb(50, 49, 63)" stroke="none" stroke-width="1px">0.18</text><text x="0" y="93.60632674349297" dx="0em" dy="0.3em" style="text-anchor: end; visibility: hidden; font-family: &quot;Helvetica Neue&quot;, sans-serif; font-size: 12px; font-weight: 200;" fill="rgb(50, 49, 63)" stroke="none" stroke-width="1px">0.2</text><text x="0" y="71.74095070852538" dx="0em" dy="0.3em" style="text-anchor: end; visibility: inherit; font-family: &quot;Helvetica Neue&quot;, sans-serif; font-size: 12px; font-weight: 200;" fill="rgb(50, 49, 63)" stroke="none" stroke-width="1px">0.22</text><text x="0" y="49.87557467355778" dx="0em" dy="0.3em" style="text-anchor: end; visibility: hidden; font-family: &quot;Helvetica Neue&quot;, sans-serif; font-size: 12px; font-weight: 200;" fill="rgb(50, 49, 63)" stroke="none" stroke-width="1px">0.24</text><text x="0" y="28.01019863859014" dx="0em" dy="0.3em" style="text-anchor: end; visibility: inherit; font-family: &quot;Helvetica Neue&quot;, sans-serif; font-size: 12px; font-weight: 200;" fill="rgb(50, 49, 63)" stroke="none" stroke-width="1px">0.26</text><text x="0" y="6.144822603622515" dx="0em" dy="0.3em" style="text-anchor: end; visibility: hidden; font-family: &quot;Helvetica Neue&quot;, sans-serif; font-size: 12px; font-weight: 200;" fill="rgb(50, 49, 63)" stroke="none" stroke-width="1px">0.28</text></g><line x1="46" y1="0" x2="46" y2="177" fill="rgb(0, 0, 0)" stroke="rgb(204, 204, 204)" stroke-width="1px"></line></g></g><g transform="translate(46, 0)" clip-path="url(#clip_0)"><clipPath id="clip_0"><rect width="284" height="177"></rect></clipPath><g><g><g><line x1="26.03565400842447" y1="0" x2="26.03565400842447" y2="177" fill="rgb(0, 0, 0)" stroke="rgb(60, 60, 60)" stroke-width="1px" opacity="0.25"></line><line x1="52.557871904457464" y1="0" x2="52.557871904457464" y2="177" fill="rgb(0, 0, 0)" stroke="rgb(60, 60, 60)" stroke-width="1px" opacity="0.25"></line><line x1="79.08008980049046" y1="0" x2="79.08008980049046" y2="177" fill="rgb(0, 0, 0)" stroke="rgb(60, 60, 60)" stroke-width="1px" opacity="0.25"></line><line x1="105.60230769652345" y1="0" x2="105.60230769652345" y2="177" fill="rgb(0, 0, 0)" stroke="rgb(60, 60, 60)" stroke-width="1px" opacity="0.25"></line><line x1="132.12452559255647" y1="0" x2="132.12452559255647" y2="177" fill="rgb(0, 0, 0)" stroke="rgb(60, 60, 60)" stroke-width="1px" opacity="0.25"></line><line x1="158.64674348858946" y1="0" x2="158.64674348858946" y2="177" fill="rgb(0, 0, 0)" stroke="rgb(60, 60, 60)" stroke-width="1px" opacity="0.25"></line><line x1="185.16896138462246" y1="0" x2="185.16896138462246" y2="177" fill="rgb(0, 0, 0)" stroke="rgb(60, 60, 60)" stroke-width="1px" opacity="0.25"></line><line x1="211.69117928065546" y1="0" x2="211.69117928065546" y2="177" fill="rgb(0, 0, 0)" stroke="rgb(60, 60, 60)" stroke-width="1px" opacity="0.25"></line><line x1="238.21339717668846" y1="0" x2="238.21339717668846" y2="177" fill="rgb(0, 0, 0)" stroke="rgb(60, 60, 60)" stroke-width="1px" opacity="0.25"></line><line x1="264.73561507272143" y1="0" x2="264.73561507272143" y2="177" fill="rgb(0, 0, 0)" stroke="rgb(60, 60, 60)" stroke-width="1px" opacity="0.25"></line></g><g><line x1="0" y1="159.2024548483958" x2="284" y2="159.2024548483958" fill="rgb(0, 0, 0)" stroke="rgb(60, 60, 60)" stroke-width="1px" opacity="0.25"></line><line x1="0" y1="137.3370788134282" x2="284" y2="137.3370788134282" fill="rgb(0, 0, 0)" stroke="rgb(60, 60, 60)" stroke-width="1px" opacity="0.25"></line><line x1="0" y1="115.47170277846061" x2="284" y2="115.47170277846061" fill="rgb(0, 0, 0)" stroke="rgb(60, 60, 60)" stroke-width="1px" opacity="0.25"></line><line x1="0" y1="93.60632674349297" x2="284" y2="93.60632674349297" fill="rgb(0, 0, 0)" stroke="rgb(60, 60, 60)" stroke-width="1px" opacity="0.25"></line><line x1="0" y1="71.74095070852538" x2="284" y2="71.74095070852538" fill="rgb(0, 0, 0)" stroke="rgb(60, 60, 60)" stroke-width="1px" opacity="0.25"></line><line x1="0" y1="49.87557467355778" x2="284" y2="49.87557467355778" fill="rgb(0, 0, 0)" stroke="rgb(60, 60, 60)" stroke-width="1px" opacity="0.25"></line><line x1="0" y1="28.01019863859014" x2="284" y2="28.01019863859014" fill="rgb(0, 0, 0)" stroke="rgb(60, 60, 60)" stroke-width="1px" opacity="0.25"></line><line x1="0" y1="6.144822603622515" x2="284" y2="6.144822603622515" fill="rgb(0, 0, 0)" stroke="rgb(60, 60, 60)" stroke-width="1px" opacity="0.25"></line></g></g></g><g><g><line x1="0" y1="312.2600870931691" x2="284" y2="312.2600870931691" fill="rgb(0, 0, 0)" stroke="rgb(153, 153, 153)" stroke-width="1.5px"></line></g></g><g><g><line x1="-27.008781783641524" y1="0" x2="-27.008781783641524" y2="177" fill="rgb(0, 0, 0)" stroke="rgb(153, 153, 153)" stroke-width="1.5px"></line></g></g><g><g><g><g><g><path stroke="rgb(0, 119, 187)" stroke-width="2px" d="M55.87314914146159,51.73644969886118L57.066648946783076,56.02025598690706L58.260148752104556,70.18536835055946L64.62548104715248,67.14228338310437L65.7659364166819,78.57411493466586L66.95943622200338,62.5487289392733L68.15293602732487,47.35115855882182L91.62509886531407,88.56535605573188L92.76555423484348,72.97523714775704L93.95905404016497,65.25631693035365L95.15255384548645,80.53792966970391L96.34605365080793,66.96973185661915L97.53955345612943,72.18105172980547L98.73305326145092,170.42793357932686L99.9265530667724,152.3014248436651L101.12005287209388,113.53651871075516L105.04534112070675,93.19425864631762L107.43234073134974,89.318777542357L109.8193403419927,105.99394941447291L112.20633995263567,69.1589495546715L114.59333956327863,85.1256793321057L116.98033917392162,95.0030497164933L119.36733878456458,66.08768544222634L121.75433839520755,60.411864227109334L124.14133800585051,99.25583161262209L126.5283376164935,53.69706980502565L132.04495893886835,82.73291941447583L134.43195854951134,87.35606410925833L136.8189581601543,65.43004468000413L139.20595777079726,59.29228375234874L141.59295738144024,60.89049794094015L143.9799569920832,51.46067447847045L146.36695660272616,75.09938116207333L148.75395621336912,38.86324529605986L151.1409558240121,85.70933376344432L153.92578870309558,47.216924364047344L156.31278831373854,48.1586855224879L158.6997879243815,59.93300849317211L159.8137210760149,43.93712213164363L162.20072068665786,43.62451416371249L164.58772029730082,48.912776504419384L166.97471990794384,35.54817392629215L169.3617195185868,39.71396473052218L171.74871912922976,73.0261407545403L187.55596099526542,52.50433976044009L189.94296060590838,51.80248824415695L192.32996021655137,34.73366576670006L194.31912655875385,53.46331016822535L196.7061261693968,48.69587470164723L199.09312578003977,61.04223013178928L201.48012539068273,31.276160312296923L203.86712500132572,35.09444830297906L205.00758037085512,33.2967743317588L207.3945799814981,62.90699249755811L209.78157959214107,21.869259993064475L212.16857920278403,44.915763017373905L214.555578813427,33.078384027987255L216.94257842406998,55.447017567065785L219.32957803471294,45.67738854036824L221.7165776453559,29.954783935434705L224.10357725599889,41.3589948196782L226.49057686664187,16.827062085138436L228.87757647728483,33.851825855443394L231.2645760879278,31.06386206285174L232.40503145745723,28.69802065836828L234.7920310681002,40.18788980864102L237.17903067874315,33.73481030124577L239.56603028938613,49.12528534145672" style="fill: none;" fill="none"></path></g></g></g></g><g opacity="0.2"><g><g><g><path stroke="rgb(0, 119, 187)" stroke-width="2px" d="M55.87314914146159,51.736449698861136L57.066648946783076,56.38866332767901L58.260148752104556,71.50833318487513L64.62548104715248,66.8561358470319L65.7659364166819,79.64969888981908L66.95943622200338,61.04087695649689L68.15293602732487,45.921190808326116L91.62509886531407,92.4432782235809L92.76555423484348,71.50833318487513L93.95905404016497,64.53002903262296L95.15255384548645,81.97580570422802L96.34605365080793,65.69307429434011L97.53955345612943,72.67139473756691L98.73305326145092,179.67216972709352L99.9265530667724,150.5958671289311L101.12005287209388,109.88905489518596L105.04534112070675,91.28021667088912L107.43234073134974,88.95412614745483L109.8193403419927,107.56294808077703L112.20633995263567,65.69307429434011L114.59333956327863,86.62801933304588L116.98033917392162,95.932430299707L119.36733878456458,63.36698377090582L121.75433839520755,59.87781540380509L124.14133800585051,102.91073445195916L126.5283376164935,49.41035917542685L132.04495893886835,85.4649577803541L134.43195854951134,87.79106459476304L136.8189581601543,63.36698377090582L139.20595777079726,58.71477014208794L141.59295738144024,61.04087695649689L143.9799569920832,50.57340443714399L146.36695660272616,77.32359207541015L148.75395621336912,35.45371828897322L151.1409558240121,90.11717140917197L153.92578870309558,43.59510028489183L156.31278831373854,48.24729762273506L158.6997879243815,61.04087695649689L159.8137210760149,42.43203873220003L162.20072068665786,43.59510028489183L164.58772029730082,49.41035917542685L166.97471990794384,34.29067302725608L169.3617195185868,40.10593191779111L171.74871912922976,76.160546813693L187.55596099526542,50.57340443714399L189.94296060590838,51.736449698861136L192.32996021655137,33.12762776553893L194.31912655875385,55.22561806596187L196.7061261693968,48.24729762273506L199.09312578003977,62.20392221821403L201.48012539068273,28.47541413672107L203.86712500132572,35.45371828897322L205.00758037085512,33.12762776553893L207.3945799814981,65.69307429434011L209.78157959214107,18.007941617368175L212.16857920278403,47.08425236101792L214.555578813427,31.964582503821788L216.94257842406998,57.5517248803708L219.32957803471294,44.75814554660897L221.7165776453559,28.47541413672107L224.10357725599889,42.43203873220003L226.49057686664187,14.518805832216742L228.87757647728483,35.45371828897322L231.2645760879278,30.801537242104644L232.40503145745723,28.47541413672107L234.7920310681002,41.26899347048288L237.17903067874315,33.12762776553893L239.56603028938613,50.57340443714399" style="fill: none;" fill="none"></path></g></g></g></g></g></g><g transform="translate(46, 177)" clip-path="url(#clip_1)"><clipPath id="clip_1"><rect width="284" height="23"></rect></clipPath><g><g><line x1="26.03565400842447" y1="0" x2="26.03565400842447" y2="5" style="visibility: inherit;" fill="rgb(0, 0, 0)" stroke="rgb(204, 204, 204)" stroke-width="1px"></line><line x1="52.557871904457464" y1="0" x2="52.557871904457464" y2="5" style="visibility: inherit;" fill="rgb(0, 0, 0)" stroke="rgb(204, 204, 204)" stroke-width="1px"></line><line x1="79.08008980049046" y1="0" x2="79.08008980049046" y2="5" style="visibility: inherit;" fill="rgb(0, 0, 0)" stroke="rgb(204, 204, 204)" stroke-width="1px"></line><line x1="105.60230769652345" y1="0" x2="105.60230769652345" y2="5" style="visibility: inherit;" fill="rgb(0, 0, 0)" stroke="rgb(204, 204, 204)" stroke-width="1px"></line><line x1="132.12452559255647" y1="0" x2="132.12452559255647" y2="5" style="visibility: inherit;" fill="rgb(0, 0, 0)" stroke="rgb(204, 204, 204)" stroke-width="1px"></line><line x1="158.64674348858946" y1="0" x2="158.64674348858946" y2="5" style="visibility: inherit;" fill="rgb(0, 0, 0)" stroke="rgb(204, 204, 204)" stroke-width="1px"></line><line x1="185.16896138462246" y1="0" x2="185.16896138462246" y2="5" style="visibility: inherit;" fill="rgb(0, 0, 0)" stroke="rgb(204, 204, 204)" stroke-width="1px"></line><line x1="211.69117928065546" y1="0" x2="211.69117928065546" y2="5" style="visibility: inherit;" fill="rgb(0, 0, 0)" stroke="rgb(204, 204, 204)" stroke-width="1px"></line><line x1="238.21339717668846" y1="0" x2="238.21339717668846" y2="5" style="visibility: inherit;" fill="rgb(0, 0, 0)" stroke="rgb(204, 204, 204)" stroke-width="1px"></line><line x1="264.73561507272143" y1="0" x2="264.73561507272143" y2="5" style="visibility: inherit;" fill="rgb(0, 0, 0)" stroke="rgb(204, 204, 204)" stroke-width="1px"></line></g><g transform="translate(0, 8)"><text x="26.03565400842447" y="0" dx="0em" dy="0.95em" style="text-anchor: middle; visibility: inherit; font-family: &quot;Helvetica Neue&quot;, sans-serif; font-size: 12px; font-weight: 200;" fill="rgb(50, 49, 63)" stroke="none" stroke-width="1px">200k</text><text x="52.557871904457464" y="0" dx="0em" dy="0.95em" style="text-anchor: middle; visibility: hidden; font-family: &quot;Helvetica Neue&quot;, sans-serif; font-size: 12px; font-weight: 200;" fill="rgb(50, 49, 63)" stroke="none" stroke-width="1px">300k</text><text x="79.08008980049046" y="0" dx="0em" dy="0.95em" style="text-anchor: middle; visibility: inherit; font-family: &quot;Helvetica Neue&quot;, sans-serif; font-size: 12px; font-weight: 200;" fill="rgb(50, 49, 63)" stroke="none" stroke-width="1px">400k</text><text x="105.60230769652345" y="0" dx="0em" dy="0.95em" style="text-anchor: middle; visibility: hidden; font-family: &quot;Helvetica Neue&quot;, sans-serif; font-size: 12px; font-weight: 200;" fill="rgb(50, 49, 63)" stroke="none" stroke-width="1px">500k</text><text x="132.12452559255647" y="0" dx="0em" dy="0.95em" style="text-anchor: middle; visibility: inherit; font-family: &quot;Helvetica Neue&quot;, sans-serif; font-size: 12px; font-weight: 200;" fill="rgb(50, 49, 63)" stroke="none" stroke-width="1px">600k</text><text x="158.64674348858946" y="0" dx="0em" dy="0.95em" style="text-anchor: middle; visibility: hidden; font-family: &quot;Helvetica Neue&quot;, sans-serif; font-size: 12px; font-weight: 200;" fill="rgb(50, 49, 63)" stroke="none" stroke-width="1px">700k</text><text x="185.16896138462246" y="0" dx="0em" dy="0.95em" style="text-anchor: middle; visibility: inherit; font-family: &quot;Helvetica Neue&quot;, sans-serif; font-size: 12px; font-weight: 200;" fill="rgb(50, 49, 63)" stroke="none" stroke-width="1px">800k</text><text x="211.69117928065546" y="0" dx="0em" dy="0.95em" style="text-anchor: middle; visibility: hidden; font-family: &quot;Helvetica Neue&quot;, sans-serif; font-size: 12px; font-weight: 200;" fill="rgb(50, 49, 63)" stroke="none" stroke-width="1px">900k</text><text x="238.21339717668846" y="0" dx="0em" dy="0.95em" style="text-anchor: middle; visibility: inherit; font-family: &quot;Helvetica Neue&quot;, sans-serif; font-size: 12px; font-weight: 200;" fill="rgb(50, 49, 63)" stroke="none" stroke-width="1px">1M</text><text x="264.73561507272143" y="0" dx="0em" dy="0.95em" style="text-anchor: middle; visibility: hidden; font-family: &quot;Helvetica Neue&quot;, sans-serif; font-size: 12px; font-weight: 200;" fill="rgb(50, 49, 63)" stroke="none" stroke-width="1px">1.1M</text></g><line x1="0" y1="0" x2="284" y2="0" fill="rgb(0, 0, 0)" stroke="rgb(204, 204, 204)" stroke-width="1px"></line></g></g></g></g></svg>