<svg viewBox="0 0 330 200" xmlns="http://www.w3.org/2000/svg"><g><g><g><g><g><line x1="46" y1="168.46358229126707" x2="41" y2="168.46358229126707" style="visibility: inherit;" fill="rgb(0, 0, 0)" stroke="rgb(204, 204, 204)" stroke-width="1px"></line><line x1="46" y1="157.02094368186968" x2="41" y2="157.02094368186968" style="visibility: inherit;" fill="rgb(0, 0, 0)" stroke="rgb(204, 204, 204)" stroke-width="1px"></line><line x1="46" y1="145.5783050724723" x2="41" y2="145.5783050724723" style="visibility: inherit;" fill="rgb(0, 0, 0)" stroke="rgb(204, 204, 204)" stroke-width="1px"></line><line x1="46" y1="134.1356664630749" x2="41" y2="134.1356664630749" style="visibility: inherit;" fill="rgb(0, 0, 0)" stroke="rgb(204, 204, 204)" stroke-width="1px"></line><line x1="46" y1="122.69302785367752" x2="41" y2="122.69302785367752" style="visibility: inherit;" fill="rgb(0, 0, 0)" stroke="rgb(204, 204, 204)" stroke-width="1px"></line><line x1="46" y1="111.25038924428013" x2="41" y2="111.25038924428013" style="visibility: inherit;" fill="rgb(0, 0, 0)" stroke="rgb(204, 204, 204)" stroke-width="1px"></line><line x1="46" y1="99.80775063488274" x2="41" y2="99.80775063488274" style="visibility: inherit;" fill="rgb(0, 0, 0)" stroke="rgb(204, 204, 204)" stroke-width="1px"></line><line x1="46" y1="88.36511202548533" x2="41" y2="88.36511202548533" style="visibility: inherit;" fill="rgb(0, 0, 0)" stroke="rgb(204, 204, 204)" stroke-width="1px"></line><line x1="46" y1="76.92247341608797" x2="41" y2="76.92247341608797" style="visibility: inherit;" fill="rgb(0, 0, 0)" stroke="rgb(204, 204, 204)" stroke-width="1px"></line><line x1="46" y1="65.47983480669058" x2="41" y2="65.47983480669058" style="visibility: inherit;" fill="rgb(0, 0, 0)" stroke="rgb(204, 204, 204)" stroke-width="1px"></line><line x1="46" y1="54.037196197293156" x2="41" y2="54.037196197293156" style="visibility: inherit;" fill="rgb(0, 0, 0)" stroke="rgb(204, 204, 204)" stroke-width="1px"></line><line x1="46" y1="42.59455758789579" x2="41" y2="42.59455758789579" style="visibility: inherit;" fill="rgb(0, 0, 0)" stroke="rgb(204, 204, 204)" stroke-width="1px"></line><line x1="46" y1="31.1519189784984" x2="41" y2="31.1519189784984" style="visibility: inherit;" fill="rgb(0, 0, 0)" stroke="rgb(204, 204, 204)" stroke-width="1px"></line><line x1="46" y1="19.70928036910098" x2="41" y2="19.70928036910098" style="visibility: inherit;" fill="rgb(0, 0, 0)" stroke="rgb(204, 204, 204)" stroke-width="1px"></line><line x1="46" y1="8.266641759703617" x2="41" y2="8.266641759703617" style="visibility: inherit;" fill="rgb(0, 0, 0)" stroke="rgb(204, 204, 204)" stroke-width="1px"></line></g><g transform="translate(36, 0)"><text x="0" y="168.46358229126707" dx="0em" dy="0.3em" style="text-anchor: end; visibility: inherit; font-family: &quot;Helvetica Neue&quot;, sans-serif; font-size: 12px; font-weight: 200;" fill="rgb(50, 49, 63)" stroke="none" stroke-width="1px">0.14</text><text x="0" y="157.02094368186968" dx="0em" dy="0.3em" style="text-anchor: end; visibility: hidden; font-family: &quot;Helvetica Neue&quot;, sans-serif; font-size: 12px; font-weight: 200;" fill="rgb(50, 49, 63)" stroke="none" stroke-width="1px">0.16</text><text x="0" y="145.5783050724723" dx="0em" dy="0.3em" style="text-anchor: end; visibility: hidden; font-family: &quot;Helvetica Neue&quot;, sans-serif; font-size: 12px; font-weight: 200;" fill="rgb(50, 49, 63)" stroke="none" stroke-width="1px">0.18</text><text x="0" y="134.1356664630749" dx="0em" dy="0.3em" style="text-anchor: end; visibility: inherit; font-family: &quot;Helvetica Neue&quot;, sans-serif; font-size: 12px; font-weight: 200;" fill="rgb(50, 49, 63)" stroke="none" stroke-width="1px">0.2</text><text x="0" y="122.69302785367752" dx="0em" dy="0.3em" style="text-anchor: end; visibility: hidden; font-family: &quot;Helvetica Neue&quot;, sans-serif; font-size: 12px; font-weight: 200;" fill="rgb(50, 49, 63)" stroke="none" stroke-width="1px">0.22</text><text x="0" y="111.25038924428013" dx="0em" dy="0.3em" style="text-anchor: end; visibility: hidden; font-family: &quot;Helvetica Neue&quot;, sans-serif; font-size: 12px; font-weight: 200;" fill="rgb(50, 49, 63)" stroke="none" stroke-width="1px">0.24</text><text x="0" y="99.80775063488274" dx="0em" dy="0.3em" style="text-anchor: end; visibility: inherit; font-family: &quot;Helvetica Neue&quot;, sans-serif; font-size: 12px; font-weight: 200;" fill="rgb(50, 49, 63)" stroke="none" stroke-width="1px">0.26</text><text x="0" y="88.36511202548533" dx="0em" dy="0.3em" style="text-anchor: end; visibility: hidden; font-family: &quot;Helvetica Neue&quot;, sans-serif; font-size: 12px; font-weight: 200;" fill="rgb(50, 49, 63)" stroke="none" stroke-width="1px">0.28</text><text x="0" y="76.92247341608797" dx="0em" dy="0.3em" style="text-anchor: end; visibility: hidden; font-family: &quot;Helvetica Neue&quot;, sans-serif; font-size: 12px; font-weight: 200;" fill="rgb(50, 49, 63)" stroke="none" stroke-width="1px">0.3</text><text x="0" y="65.47983480669058" dx="0em" dy="0.3em" style="text-anchor: end; visibility: inherit; font-family: &quot;Helvetica Neue&quot;, sans-serif; font-size: 12px; font-weight: 200;" fill="rgb(50, 49, 63)" stroke="none" stroke-width="1px">0.32</text><text x="0" y="54.037196197293156" dx="0em" dy="0.3em" style="text-anchor: end; visibility: hidden; font-family: &quot;Helvetica Neue&quot;, sans-serif; font-size: 12px; font-weight: 200;" fill="rgb(50, 49, 63)" stroke="none" stroke-width="1px">0.34</text><text x="0" y="42.59455758789579" dx="0em" dy="0.3em" style="text-anchor: end; visibility: hidden; font-family: &quot;Helvetica Neue&quot;, sans-serif; font-size: 12px; font-weight: 200;" fill="rgb(50, 49, 63)" stroke="none" stroke-width="1px">0.36</text><text x="0" y="31.1519189784984" dx="0em" dy="0.3em" style="text-anchor: end; visibility: inherit; font-family: &quot;Helvetica Neue&quot;, sans-serif; font-size: 12px; font-weight: 200;" fill="rgb(50, 49, 63)" stroke="none" stroke-width="1px">0.38</text><text x="0" y="19.70928036910098" dx="0em" dy="0.3em" style="text-anchor: end; visibility: hidden; font-family: &quot;Helvetica Neue&quot;, sans-serif; font-size: 12px; font-weight: 200;" fill="rgb(50, 49, 63)" stroke="none" stroke-width="1px">0.4</text><text x="0" y="8.266641759703617" dx="0em" dy="0.3em" style="text-anchor: end; visibility: hidden; font-family: &quot;Helvetica Neue&quot;, sans-serif; font-size: 12px; font-weight: 200;" fill="rgb(50, 49, 63)" stroke="none" stroke-width="1px">0.42</text></g><line x1="46" y1="0" x2="46" y2="177" fill="rgb(0, 0, 0)" stroke="rgb(204, 204, 204)" stroke-width="1px"></line></g></g><g transform="translate(46, 0)" clip-path="url(#clip_0)"><clipPath id="clip_0"><rect width="284" height="177"></rect></clipPath><g><g><g><line x1="3.413631651949395" y1="0" x2="3.413631651949395" y2="177" fill="rgb(0, 0, 0)" stroke="rgb(60, 60, 60)" stroke-width="1px" opacity="0.25"></line><line x1="33.58950707172833" y1="0" x2="33.58950707172833" y2="177" fill="rgb(0, 0, 0)" stroke="rgb(60, 60, 60)" stroke-width="1px" opacity="0.25"></line><line x1="63.76538249150725" y1="0" x2="63.76538249150725" y2="177" fill="rgb(0, 0, 0)" stroke="rgb(60, 60, 60)" stroke-width="1px" opacity="0.25"></line><line x1="93.94125791128617" y1="0" x2="93.94125791128617" y2="177" fill="rgb(0, 0, 0)" stroke="rgb(60, 60, 60)" stroke-width="1px" opacity="0.25"></line><line x1="124.1171333310651" y1="0" x2="124.1171333310651" y2="177" fill="rgb(0, 0, 0)" stroke="rgb(60, 60, 60)" stroke-width="1px" opacity="0.25"></line><line x1="154.29300875084402" y1="0" x2="154.29300875084402" y2="177" fill="rgb(0, 0, 0)" stroke="rgb(60, 60, 60)" stroke-width="1px" opacity="0.25"></line><line x1="184.46888417062297" y1="0" x2="184.46888417062297" y2="177" fill="rgb(0, 0, 0)" stroke="rgb(60, 60, 60)" stroke-width="1px" opacity="0.25"></line><line x1="214.6447595904019" y1="0" x2="214.6447595904019" y2="177" fill="rgb(0, 0, 0)" stroke="rgb(60, 60, 60)" stroke-width="1px" opacity="0.25"></line><line x1="244.82063501018084" y1="0" x2="244.82063501018084" y2="177" fill="rgb(0, 0, 0)" stroke="rgb(60, 60, 60)" stroke-width="1px" opacity="0.25"></line><line x1="274.99651042995976" y1="0" x2="274.99651042995976" y2="177" fill="rgb(0, 0, 0)" stroke="rgb(60, 60, 60)" stroke-width="1px" opacity="0.25"></line></g><g><line x1="0" y1="168.46358229126707" x2="284" y2="168.46358229126707" fill="rgb(0, 0, 0)" stroke="rgb(60, 60, 60)" stroke-width="1px" opacity="0.25"></line><line x1="0" y1="157.02094368186968" x2="284" y2="157.02094368186968" fill="rgb(0, 0, 0)" stroke="rgb(60, 60, 60)" stroke-width="1px" opacity="0.25"></line><line x1="0" y1="145.5783050724723" x2="284" y2="145.5783050724723" fill="rgb(0, 0, 0)" stroke="rgb(60, 60, 60)" stroke-width="1px" opacity="0.25"></line><line x1="0" y1="134.1356664630749" x2="284" y2="134.1356664630749" fill="rgb(0, 0, 0)" stroke="rgb(60, 60, 60)" stroke-width="1px" opacity="0.25"></line><line x1="0" y1="122.69302785367752" x2="284" y2="122.69302785367752" fill="rgb(0, 0, 0)" stroke="rgb(60, 60, 60)" stroke-width="1px" opacity="0.25"></line><line x1="0" y1="111.25038924428013" x2="284" y2="111.25038924428013" fill="rgb(0, 0, 0)" stroke="rgb(60, 60, 60)" stroke-width="1px" opacity="0.25"></line><line x1="0" y1="99.80775063488274" x2="284" y2="99.80775063488274" fill="rgb(0, 0, 0)" stroke="rgb(60, 60, 60)" stroke-width="1px" opacity="0.25"></line><line x1="0" y1="88.36511202548533" x2="284" y2="88.36511202548533" fill="rgb(0, 0, 0)" stroke="rgb(60, 60, 60)" stroke-width="1px" opacity="0.25"></line><line x1="0" y1="76.92247341608797" x2="284" y2="76.92247341608797" fill="rgb(0, 0, 0)" stroke="rgb(60, 60, 60)" stroke-width="1px" opacity="0.25"></line><line x1="0" y1="65.47983480669058" x2="284" y2="65.47983480669058" fill="rgb(0, 0, 0)" stroke="rgb(60, 60, 60)" stroke-width="1px" opacity="0.25"></line><line x1="0" y1="54.037196197293156" x2="284" y2="54.037196197293156" fill="rgb(0, 0, 0)" stroke="rgb(60, 60, 60)" stroke-width="1px" opacity="0.25"></line><line x1="0" y1="42.59455758789579" x2="284" y2="42.59455758789579" fill="rgb(0, 0, 0)" stroke="rgb(60, 60, 60)" stroke-width="1px" opacity="0.25"></line><line x1="0" y1="31.1519189784984" x2="284" y2="31.1519189784984" fill="rgb(0, 0, 0)" stroke="rgb(60, 60, 60)" stroke-width="1px" opacity="0.25"></line><line x1="0" y1="19.70928036910098" x2="284" y2="19.70928036910098" fill="rgb(0, 0, 0)" stroke="rgb(60, 60, 60)" stroke-width="1px" opacity="0.25"></line><line x1="0" y1="8.266641759703617" x2="284" y2="8.266641759703617" fill="rgb(0, 0, 0)" stroke="rgb(60, 60, 60)" stroke-width="1px" opacity="0.25"></line></g></g></g><g><g><line x1="0" y1="248.56205255704882" x2="284" y2="248.56205255704882" fill="rgb(0, 0, 0)" stroke="rgb(153, 153, 153)" stroke-width="1.5px"></line></g></g><g><g><line x1="-56.93811918760846" y1="0" x2="-56.93811918760846" y2="177" fill="rgb(0, 0, 0)" stroke="rgb(153, 153, 153)" stroke-width="1.5px"></line></g></g><g><g><g><g><g><path stroke="rgb(0, 119, 187)" stroke-width="2px" d="M37.36149149920069,74.76534521590129L38.71940589309074,82.38861840283138L40.07732028698079,45.52489111657084L47.31953038772774,73.07293003242351L48.61709303077823,71.77987724964194L49.975007424668284,56.17245874961202L51.33292181855834,61.83306941705733L78.03857156506268,132.6391800656577L79.33613420811318,53.892492049591155L80.69404860200324,54.56841457363015L82.05196299589328,71.71465257350867L83.40987738978333,40.17408711117912L84.76779178367339,71.51413732405581L86.12570617756344,160.69341540280774L87.48362057145349,163.2450984205237L88.84153496534354,114.69360250505434L93.30756452747082,100.93383948261909L96.02339331525093,87.08813594581521L98.73922210303103,94.77038594003989L101.45505089081114,93.79757151225333L104.17087967859123,100.22213119380886L106.88670846637133,77.1902506577588L109.60253725415144,82.45213398449653L112.31836604193154,74.15379548653566L115.03419482971165,61.24195838207588L117.75002361749175,70.666590764572L124.02660570480576,63.524423733673075L126.74243449258589,58.005510191369666L129.458263280366,81.43123616982066L132.17409206814608,51.998973525980006L134.8899208559262,23.631931124521543L137.6057496437063,23.287746409045212L140.3215784314864,61.16223530031952L143.0374072192665,14.690436604930056L145.75323600704658,66.12460680006775L148.9217029261234,21.33431965741235L151.63753171390348,20.09412784640176L154.3533605016836,41.1223879759674L155.6207472693143,35.30394220105765L158.33657605709442,22.31979016007486L161.0524048448745,72.7339893724545L163.7682336326546,29.796502616370248L166.48406242043473,44.87062360212414L169.19989120821484,58.95595470565942L187.18471295840305,82.77721909239307L189.90054174618317,47.417221040009L192.61637053396328,37.24324184652903L194.8795611904467,73.00982242735382L197.59538997822682,63.05820875839757L200.3112187660069,50.49204674709972L203.027047553787,19.090756973628743L205.74287634156713,21.25664214801671L207.04043898461762,67.41985443915995L209.7562677723977,64.06013278068335L212.47209656017782,1.3533656034722128L215.18792534795793,9.469824110934212L217.903754135738,13.691538639308618L220.61958292351812,49.116287170141916L223.33541171129824,37.608931360630606L226.05124049907835,27.039655317671873L228.76706928685843,59.109543239760356L231.48289807463854,15.763251013201398L234.19872686241865,19.958077239030075L236.91455565019874,15.461771306814313L238.21211829324923,32.371250551001594L240.92794708102934,31.920293489749838L243.64377586880946,47.523114584127285L246.35960465658954,60.089449659357555" style="fill: none;" fill="none"></path></g></g></g></g><g opacity="0.2"><g><g><g><path stroke="rgb(0, 119, 187)" stroke-width="2px" d="M37.36149149920069,74.76534521590129L38.71940589309074,83.04421989690738L40.07732028698079,42.08196644294324L47.31953038772774,75.66332877044918L48.61709303077823,71.6582181069181L49.975007424668284,54.70393393916082L51.33292181855834,62.365686835494884L78.03857156506268,139.30146157978797L79.33613420811318,46.483066284691745L80.69404860200324,54.63201341066784L82.05196299589328,73.32797474851625L83.40987738978333,37.20637526243166L84.76779178367339,74.46298231126258L86.12570617756344,169.08446344960484L87.48362057145349,163.48519113335036L88.84153496534354,110.12529982591829L93.30756452747082,99.63915718510334L96.02339331525093,85.78536734169582L98.73922210303103,95.49322346684879L101.45505089081114,93.70603755077668L104.17087967859123,100.82663024480863L106.88670846637133,75.02313717187224L109.60253725415144,82.94723460386136L112.31836604193154,73.37298901955026L115.03419482971165,60.02705904839584L117.75002361749175,71.55337236730138L124.02660570480576,62.85240364105019L126.74243449258589,57.48622510970877L129.458263280366,83.63540732315413L132.17409206814608,49.229635903036566L134.8899208559262,20.962822102064848L137.6057496437063,23.255361413934764L140.3215784314864,64.72591806251822L143.0374072192665,10.317816596392362L145.75323600704658,70.96414578998225L148.9217029261234,17.11991627199839L151.63753171390348,19.977435837925896L154.3533605016836,43.100977003475776L155.6207472693143,34.75647356140533L158.33657605709442,21.098086576350028L161.0524048448745,77.4775573508622L163.7682336326546,25.756432746541776L166.48406242043473,46.28897634257805L169.19989120821484,60.28127032371634L187.18471295840305,85.01860720755617L189.90054174618317,44.09013150772782L192.61637053396328,36.285952775807715L194.8795611904467,76.37516808375528L197.59538997822682,62.12184248320038L200.3112187660069,49.30967264100387L203.027047553787,16.13614983958226L205.74287634156713,21.460434407313613L207.04043898461762,71.76343896546013L209.7562677723977,63.74401017386826L212.47209656017782,-4.546833496352917L215.18792534795793,10.23351714336502L217.903754135738,14.08876779624535L220.61958292351812,52.4494691982072L223.33541171129824,36.526182345731286L226.05124049907835,26.0451720138486L228.76706928685843,62.12706004643388L231.48289807463854,11.684715858404815L234.19872686241865,20.352776424392488L236.91455565019874,15.038705321945002L238.21211829324923,33.96229564399951L240.92794708102934,31.877862081360746L243.64377586880946,48.99121372429846L246.35960465658954,61.27184004936829" style="fill: none;" fill="none"></path></g></g></g></g></g></g><g transform="translate(46, 177)" clip-path="url(#clip_1)"><clipPath id="clip_1"><rect width="284" height="23"></rect></clipPath><g><g><line x1="3.413631651949395" y1="0" x2="3.413631651949395" y2="5" style="visibility: inherit;" fill="rgb(0, 0, 0)" stroke="rgb(204, 204, 204)" stroke-width="1px"></line><line x1="33.58950707172833" y1="0" x2="33.58950707172833" y2="5" style="visibility: inherit;" fill="rgb(0, 0, 0)" stroke="rgb(204, 204, 204)" stroke-width="1px"></line><line x1="63.76538249150725" y1="0" x2="63.76538249150725" y2="5" style="visibility: inherit;" fill="rgb(0, 0, 0)" stroke="rgb(204, 204, 204)" stroke-width="1px"></line><line x1="93.94125791128617" y1="0" x2="93.94125791128617" y2="5" style="visibility: inherit;" fill="rgb(0, 0, 0)" stroke="rgb(204, 204, 204)" stroke-width="1px"></line><line x1="124.1171333310651" y1="0" x2="124.1171333310651" y2="5" style="visibility: inherit;" fill="rgb(0, 0, 0)" stroke="rgb(204, 204, 204)" stroke-width="1px"></line><line x1="154.29300875084402" y1="0" x2="154.29300875084402" y2="5" style="visibility: inherit;" fill="rgb(0, 0, 0)" stroke="rgb(204, 204, 204)" stroke-width="1px"></line><line x1="184.46888417062297" y1="0" x2="184.46888417062297" y2="5" style="visibility: inherit;" fill="rgb(0, 0, 0)" stroke="rgb(204, 204, 204)" stroke-width="1px"></line><line x1="214.6447595904019" y1="0" x2="214.6447595904019" y2="5" style="visibility: inherit;" fill="rgb(0, 0, 0)" stroke="rgb(204, 204, 204)" stroke-width="1px"></line><line x1="244.82063501018084" y1="0" x2="244.82063501018084" y2="5" style="visibility: inherit;" fill="rgb(0, 0, 0)" stroke="rgb(204, 204, 204)" stroke-width="1px"></line><line x1="274.99651042995976" y1="0" x2="274.99651042995976" y2="5" style="visibility: inherit;" fill="rgb(0, 0, 0)" stroke="rgb(204, 204, 204)" stroke-width="1px"></line></g><g transform="translate(0, 8)"><text x="3.413631651949395" y="0" dx="0em" dy="0.95em" style="text-anchor: middle; visibility: hidden; font-family: &quot;Helvetica Neue&quot;, sans-serif; font-size: 12px; font-weight: 200;" fill="rgb(50, 49, 63)" stroke="none" stroke-width="1px">200k</text><text x="33.58950707172833" y="0" dx="0em" dy="0.95em" style="text-anchor: middle; visibility: inherit; font-family: &quot;Helvetica Neue&quot;, sans-serif; font-size: 12px; font-weight: 200;" fill="rgb(50, 49, 63)" stroke="none" stroke-width="1px">300k</text><text x="63.76538249150725" y="0" dx="0em" dy="0.95em" style="text-anchor: middle; visibility: hidden; font-family: &quot;Helvetica Neue&quot;, sans-serif; font-size: 12px; font-weight: 200;" fill="rgb(50, 49, 63)" stroke="none" stroke-width="1px">400k</text><text x="93.94125791128617" y="0" dx="0em" dy="0.95em" style="text-anchor: middle; visibility: inherit; font-family: &quot;Helvetica Neue&quot;, sans-serif; font-size: 12px; font-weight: 200;" fill="rgb(50, 49, 63)" stroke="none" stroke-width="1px">500k</text><text x="124.1171333310651" y="0" dx="0em" dy="0.95em" style="text-anchor: middle; visibility: hidden; font-family: &quot;Helvetica Neue&quot;, sans-serif; font-size: 12px; font-weight: 200;" fill="rgb(50, 49, 63)" stroke="none" stroke-width="1px">600k</text><text x="154.29300875084402" y="0" dx="0em" dy="0.95em" style="text-anchor: middle; visibility: inherit; font-family: &quot;Helvetica Neue&quot;, sans-serif; font-size: 12px; font-weight: 200;" fill="rgb(50, 49, 63)" stroke="none" stroke-width="1px">700k</text><text x="184.46888417062297" y="0" dx="0em" dy="0.95em" style="text-anchor: middle; visibility: hidden; font-family: &quot;Helvetica Neue&quot;, sans-serif; font-size: 12px; font-weight: 200;" fill="rgb(50, 49, 63)" stroke="none" stroke-width="1px">800k</text><text x="214.6447595904019" y="0" dx="0em" dy="0.95em" style="text-anchor: middle; visibility: inherit; font-family: &quot;Helvetica Neue&quot;, sans-serif; font-size: 12px; font-weight: 200;" fill="rgb(50, 49, 63)" stroke="none" stroke-width="1px">900k</text><text x="244.82063501018084" y="0" dx="0em" dy="0.95em" style="text-anchor: middle; visibility: hidden; font-family: &quot;Helvetica Neue&quot;, sans-serif; font-size: 12px; font-weight: 200;" fill="rgb(50, 49, 63)" stroke="none" stroke-width="1px">1M</text><text x="274.99651042995976" y="0" dx="0em" dy="0.95em" style="text-anchor: middle; visibility: hidden; font-family: &quot;Helvetica Neue&quot;, sans-serif; font-size: 12px; font-weight: 200;" fill="rgb(50, 49, 63)" stroke="none" stroke-width="1px">1.1M</text></g><line x1="0" y1="0" x2="284" y2="0" fill="rgb(0, 0, 0)" stroke="rgb(204, 204, 204)" stroke-width="1px"></line></g></g></g></g></svg>