<svg viewBox="0 0 330 200" xmlns="http://www.w3.org/2000/svg"><g><g><g><g><g><line x1="55" y1="168.65940737460988" x2="50" y2="168.65940737460988" style="visibility: inherit;" fill="rgb(0, 0, 0)" stroke="rgb(204, 204, 204)" stroke-width="1px"></line><line x1="55" y1="154.2825399591045" x2="50" y2="154.2825399591045" style="visibility: inherit;" fill="rgb(0, 0, 0)" stroke="rgb(204, 204, 204)" stroke-width="1px"></line><line x1="55" y1="139.90567254359914" x2="50" y2="139.90567254359914" style="visibility: inherit;" fill="rgb(0, 0, 0)" stroke="rgb(204, 204, 204)" stroke-width="1px"></line><line x1="55" y1="125.52880512809377" x2="50" y2="125.52880512809377" style="visibility: inherit;" fill="rgb(0, 0, 0)" stroke="rgb(204, 204, 204)" stroke-width="1px"></line><line x1="55" y1="111.15193771258839" x2="50" y2="111.15193771258839" style="visibility: inherit;" fill="rgb(0, 0, 0)" stroke="rgb(204, 204, 204)" stroke-width="1px"></line><line x1="55" y1="96.77507029708303" x2="50" y2="96.77507029708303" style="visibility: inherit;" fill="rgb(0, 0, 0)" stroke="rgb(204, 204, 204)" stroke-width="1px"></line><line x1="55" y1="82.39820288157766" x2="50" y2="82.39820288157766" style="visibility: inherit;" fill="rgb(0, 0, 0)" stroke="rgb(204, 204, 204)" stroke-width="1px"></line><line x1="55" y1="68.02133546607229" x2="50" y2="68.02133546607229" style="visibility: inherit;" fill="rgb(0, 0, 0)" stroke="rgb(204, 204, 204)" stroke-width="1px"></line><line x1="55" y1="53.644468050566914" x2="50" y2="53.644468050566914" style="visibility: inherit;" fill="rgb(0, 0, 0)" stroke="rgb(204, 204, 204)" stroke-width="1px"></line><line x1="55" y1="39.26760063506154" x2="50" y2="39.26760063506154" style="visibility: inherit;" fill="rgb(0, 0, 0)" stroke="rgb(204, 204, 204)" stroke-width="1px"></line><line x1="55" y1="24.890733219556182" x2="50" y2="24.890733219556182" style="visibility: inherit;" fill="rgb(0, 0, 0)" stroke="rgb(204, 204, 204)" stroke-width="1px"></line><line x1="55" y1="10.513865804050795" x2="50" y2="10.513865804050795" style="visibility: inherit;" fill="rgb(0, 0, 0)" stroke="rgb(204, 204, 204)" stroke-width="1px"></line></g><g transform="translate(45, 0)"><text x="0" y="168.65940737460988" dx="0em" dy="0.3em" style="text-anchor: end; visibility: inherit; font-family: &quot;Helvetica Neue&quot;, sans-serif; font-size: 12px; font-weight: 200;" fill="rgb(50, 49, 63)" stroke="none" stroke-width="1px">-0.02</text><text x="0" y="154.2825399591045" dx="0em" dy="0.3em" style="text-anchor: end; visibility: hidden; font-family: &quot;Helvetica Neue&quot;, sans-serif; font-size: 12px; font-weight: 200;" fill="rgb(50, 49, 63)" stroke="none" stroke-width="1px">-0.01</text><text x="0" y="139.90567254359914" dx="0em" dy="0.3em" style="text-anchor: end; visibility: inherit; font-family: &quot;Helvetica Neue&quot;, sans-serif; font-size: 12px; font-weight: 200;" fill="rgb(50, 49, 63)" stroke="none" stroke-width="1px">0</text><text x="0" y="125.52880512809377" dx="0em" dy="0.3em" style="text-anchor: end; visibility: hidden; font-family: &quot;Helvetica Neue&quot;, sans-serif; font-size: 12px; font-weight: 200;" fill="rgb(50, 49, 63)" stroke="none" stroke-width="1px">0.01</text><text x="0" y="111.15193771258839" dx="0em" dy="0.3em" style="text-anchor: end; visibility: inherit; font-family: &quot;Helvetica Neue&quot;, sans-serif; font-size: 12px; font-weight: 200;" fill="rgb(50, 49, 63)" stroke="none" stroke-width="1px">0.02</text><text x="0" y="96.77507029708303" dx="0em" dy="0.3em" style="text-anchor: end; visibility: hidden; font-family: &quot;Helvetica Neue&quot;, sans-serif; font-size: 12px; font-weight: 200;" fill="rgb(50, 49, 63)" stroke="none" stroke-width="1px">0.03</text><text x="0" y="82.39820288157766" dx="0em" dy="0.3em" style="text-anchor: end; visibility: inherit; font-family: &quot;Helvetica Neue&quot;, sans-serif; font-size: 12px; font-weight: 200;" fill="rgb(50, 49, 63)" stroke="none" stroke-width="1px">0.04</text><text x="0" y="68.02133546607229" dx="0em" dy="0.3em" style="text-anchor: end; visibility: hidden; font-family: &quot;Helvetica Neue&quot;, sans-serif; font-size: 12px; font-weight: 200;" fill="rgb(50, 49, 63)" stroke="none" stroke-width="1px">0.05</text><text x="0" y="53.644468050566914" dx="0em" dy="0.3em" style="text-anchor: end; visibility: inherit; font-family: &quot;Helvetica Neue&quot;, sans-serif; font-size: 12px; font-weight: 200;" fill="rgb(50, 49, 63)" stroke="none" stroke-width="1px">0.06</text><text x="0" y="39.26760063506154" dx="0em" dy="0.3em" style="text-anchor: end; visibility: hidden; font-family: &quot;Helvetica Neue&quot;, sans-serif; font-size: 12px; font-weight: 200;" fill="rgb(50, 49, 63)" stroke="none" stroke-width="1px">0.07</text><text x="0" y="24.890733219556182" dx="0em" dy="0.3em" style="text-anchor: end; visibility: inherit; font-family: &quot;Helvetica Neue&quot;, sans-serif; font-size: 12px; font-weight: 200;" fill="rgb(50, 49, 63)" stroke="none" stroke-width="1px">0.08</text><text x="0" y="10.513865804050795" dx="0em" dy="0.3em" style="text-anchor: end; visibility: hidden; font-family: &quot;Helvetica Neue&quot;, sans-serif; font-size: 12px; font-weight: 200;" fill="rgb(50, 49, 63)" stroke="none" stroke-width="1px">0.09</text></g><line x1="55" y1="0" x2="55" y2="177" fill="rgb(0, 0, 0)" stroke="rgb(204, 204, 204)" stroke-width="1px"></line></g></g><g transform="translate(55, 0)" clip-path="url(#clip_0)"><clipPath id="clip_0"><rect width="275" height="177"></rect></clipPath><g><g><g><line x1="7.098269397443871" y1="0" x2="7.098269397443871" y2="177" fill="rgb(0, 0, 0)" stroke="rgb(60, 60, 60)" stroke-width="1px" opacity="0.25"></line><line x1="31.917092619439956" y1="0" x2="31.917092619439956" y2="177" fill="rgb(0, 0, 0)" stroke="rgb(60, 60, 60)" stroke-width="1px" opacity="0.25"></line><line x1="56.73591584143605" y1="0" x2="56.73591584143605" y2="177" fill="rgb(0, 0, 0)" stroke="rgb(60, 60, 60)" stroke-width="1px" opacity="0.25"></line><line x1="81.55473906343214" y1="0" x2="81.55473906343214" y2="177" fill="rgb(0, 0, 0)" stroke="rgb(60, 60, 60)" stroke-width="1px" opacity="0.25"></line><line x1="106.37356228542822" y1="0" x2="106.37356228542822" y2="177" fill="rgb(0, 0, 0)" stroke="rgb(60, 60, 60)" stroke-width="1px" opacity="0.25"></line><line x1="131.1923855074243" y1="0" x2="131.1923855074243" y2="177" fill="rgb(0, 0, 0)" stroke="rgb(60, 60, 60)" stroke-width="1px" opacity="0.25"></line><line x1="156.0112087294204" y1="0" x2="156.0112087294204" y2="177" fill="rgb(0, 0, 0)" stroke="rgb(60, 60, 60)" stroke-width="1px" opacity="0.25"></line><line x1="180.83003195141646" y1="0" x2="180.83003195141646" y2="177" fill="rgb(0, 0, 0)" stroke="rgb(60, 60, 60)" stroke-width="1px" opacity="0.25"></line><line x1="205.64885517341256" y1="0" x2="205.64885517341256" y2="177" fill="rgb(0, 0, 0)" stroke="rgb(60, 60, 60)" stroke-width="1px" opacity="0.25"></line><line x1="230.46767839540865" y1="0" x2="230.46767839540865" y2="177" fill="rgb(0, 0, 0)" stroke="rgb(60, 60, 60)" stroke-width="1px" opacity="0.25"></line><line x1="255.28650161740472" y1="0" x2="255.28650161740472" y2="177" fill="rgb(0, 0, 0)" stroke="rgb(60, 60, 60)" stroke-width="1px" opacity="0.25"></line></g><g><line x1="0" y1="168.65940737460988" x2="275" y2="168.65940737460988" fill="rgb(0, 0, 0)" stroke="rgb(60, 60, 60)" stroke-width="1px" opacity="0.25"></line><line x1="0" y1="154.2825399591045" x2="275" y2="154.2825399591045" fill="rgb(0, 0, 0)" stroke="rgb(60, 60, 60)" stroke-width="1px" opacity="0.25"></line><line x1="0" y1="139.90567254359914" x2="275" y2="139.90567254359914" fill="rgb(0, 0, 0)" stroke="rgb(60, 60, 60)" stroke-width="1px" opacity="0.25"></line><line x1="0" y1="125.52880512809377" x2="275" y2="125.52880512809377" fill="rgb(0, 0, 0)" stroke="rgb(60, 60, 60)" stroke-width="1px" opacity="0.25"></line><line x1="0" y1="111.15193771258839" x2="275" y2="111.15193771258839" fill="rgb(0, 0, 0)" stroke="rgb(60, 60, 60)" stroke-width="1px" opacity="0.25"></line><line x1="0" y1="96.77507029708303" x2="275" y2="96.77507029708303" fill="rgb(0, 0, 0)" stroke="rgb(60, 60, 60)" stroke-width="1px" opacity="0.25"></line><line x1="0" y1="82.39820288157766" x2="275" y2="82.39820288157766" fill="rgb(0, 0, 0)" stroke="rgb(60, 60, 60)" stroke-width="1px" opacity="0.25"></line><line x1="0" y1="68.02133546607229" x2="275" y2="68.02133546607229" fill="rgb(0, 0, 0)" stroke="rgb(60, 60, 60)" stroke-width="1px" opacity="0.25"></line><line x1="0" y1="53.644468050566914" x2="275" y2="53.644468050566914" fill="rgb(0, 0, 0)" stroke="rgb(60, 60, 60)" stroke-width="1px" opacity="0.25"></line><line x1="0" y1="39.26760063506154" x2="275" y2="39.26760063506154" fill="rgb(0, 0, 0)" stroke="rgb(60, 60, 60)" stroke-width="1px" opacity="0.25"></line><line x1="0" y1="24.890733219556182" x2="275" y2="24.890733219556182" fill="rgb(0, 0, 0)" stroke="rgb(60, 60, 60)" stroke-width="1px" opacity="0.25"></line><line x1="0" y1="10.513865804050795" x2="275" y2="10.513865804050795" fill="rgb(0, 0, 0)" stroke="rgb(60, 60, 60)" stroke-width="1px" opacity="0.25"></line></g></g></g><g><g><line x1="0" y1="139.90567254359914" x2="275" y2="139.90567254359914" fill="rgb(0, 0, 0)" stroke="rgb(153, 153, 153)" stroke-width="1.5px"></line></g></g><g><g><line x1="-17.720553824552216" y1="0" x2="-17.720553824552216" y2="177" fill="rgb(0, 0, 0)" stroke="rgb(153, 153, 153)" stroke-width="1.5px"></line></g></g><g><g><g><g><g><path stroke="rgb(0, 119, 187)" stroke-width="2px" d="M59.838268744185555,59.49780824549103L60.95511578917539,62.38931910836001L62.071962834165205,86.82925753032852L68.02848040744426,88.02239957515614L69.0956898059901,73.13144461980845L70.21253685097993,45.032235124724224L71.32938389596974,39.43635914597229L93.2940424474363,74.03050654181375L94.36125184598211,76.39232246433477L95.47809889097194,59.54253871022087L96.59494593596177,82.47786644518362L97.71179298095159,62.95061333753L98.82864002594141,75.3197639683038L99.94548707093124,124.09674933435119L101.06233411592105,117.19230065376925L102.17918116091089,108.07087367680646L105.8523669977663,96.01318545689317L108.08606108774596,88.18948246365356L110.3197551777256,94.03029719922586L112.55344926770525,65.71742875367669L114.7871433576849,85.78715909321141L117.02083744766455,79.43018428525087L119.2545315376442,50.43989579949414L121.48822562762383,47.0254050909254L123.72191971760348,83.39356868525807L125.95561380758313,59.54138571271268L131.1179290377583,79.396810599822L133.35162312773795,85.20956665510646L135.5853172177176,73.61006233966361L137.81901130769725,49.665224230486984L140.05270539767687,50.20284324663503L142.28639948765655,68.0504498385284L144.5200935776362,89.15790211092596L146.75378766761585,64.7104988507159L148.98748175759548,75.72881222184887L151.59345819590507,48.93655718183982L153.82715228588472,42.97552161308201L156.06084637586437,70.61146656581029L157.10323695118822,40.220304705929664L159.33693104116784,66.22767512613194L161.5706251311475,60.18024248214594L163.80431922112717,70.76137915137322L166.0380133111068,69.16310454170016L168.27170740108645,83.70382689937485L183.0637260413961,54.14702862516694L185.29742013137576,50.72190763867489L187.53111422135544,53.91388606202425L189.3925259630051,31.59023635343803L191.6262200529848,34.71253848068784L193.8599141429644,64.33917157963296L196.09360823294406,67.34148359346074L198.3273023229237,56.48763836403414L199.39451172146954,58.78215747638316L201.6282058114492,74.79350351877795L203.8618999014288,67.94852799178432L206.0955939914085,59.79523648470783L208.32928808138814,56.1624493293001L210.56298217136776,62.728252968324696L212.79667626134741,75.43570448472698L215.0303703513271,40.36099913325353L217.26406444130674,33.02084847166299L219.49775853128637,3.2463944359290906L221.73145262126602,21.73027298688868L223.96514671124567,41.330410283621774L225.0323561097915,49.26241685593695L227.26605019977114,48.97470270299871L229.4997442897508,44.11163010832374L231.73343837973044,38.31583106649521" style="fill: none;" fill="none"></path></g></g></g></g><g opacity="0.2"><g><g><g><path stroke="rgb(0, 119, 187)" stroke-width="2px" d="M59.838268744185555,59.49780824549103L60.95511578917539,62.637989042566744L62.071962834165205,89.1118500191867L68.02848040744426,88.13459317473132L69.0956898059901,71.73040296216665L70.21253685097993,42.388339447965194L71.32938389596974,38.90983273516642L93.2940424474363,77.28553561460421L94.36125184598211,76.61455022005583L95.47809889097194,57.95711047993542L96.59494593596177,84.63589509415863L97.71179298095159,61.11325691821378L98.82864002594141,76.48360089855149L99.94548707093124,128.68626874516082L101.06233411592105,116.54264793327687L102.17918116091089,107.21262124790186L105.8523669977663,94.87865461782037L108.08606108774596,87.45333535488047L110.3197551777256,94.57987057697116L112.55344926770525,63.05341706186351L114.7871433576849,87.67555822800352L117.02083744766455,78.83204442367034L119.2545315376442,47.71214436647983L121.48822562762383,46.70412915992222L123.72191971760348,86.81551843264606L125.95561380758313,57.2970884089502L131.1179290377583,81.26504532661787L133.35162312773795,85.75649993820763L135.5853172177176,72.51864289641625L137.81901130769725,47.41220882852946L140.05270539767687,50.253428843340416L142.28639948765655,69.72976511960373L144.5200935776362,91.14394247791303L146.75378766761585,62.41019613695434L148.98748175759548,76.76554630272136L151.59345819590507,46.41562290017595L153.82715228588472,42.414636428275486L156.06084637586437,73.2117852375112L157.10323695118822,37.36074243027349L159.33693104116784,68.67475811971772L161.5706251311475,59.61122803205535L163.80431922112717,71.75697844410139L166.0380133111068,69.01271984100883L168.27170740108645,85.07199114747118L183.0637260413961,51.36597320768129L185.29742013137576,50.39963148458483L187.53111422135544,54.21422538851006L189.3925259630051,29.489761654380686L191.6262200529848,35.006321831829524L193.8599141429644,67.12679788872407L196.09360823294406,67.62397684640295L198.3273023229237,55.46637940371612L199.39451172146954,58.998053147785825L201.6282058114492,76.30004154902515L203.8618999014288,67.30447121353329L206.0955939914085,59.0280777652236L208.32928808138814,55.82063347003856L210.56298217136776,63.34604193217163L212.79667626134741,76.63137278933374L215.0303703513271,37.060753334318406L217.26406444130674,32.33019972232296L219.49775853128637,0.4448593734858832L221.73145262126602,23.4694563078761L223.96514671124567,43.174624515043064L225.0323561097915,50.00875445464493L227.26605019977114,48.9476311306216L229.4997442897508,43.65405434996262L231.73343837973044,37.7704933010715" style="fill: none;" fill="none"></path></g></g></g></g></g></g><g transform="translate(55, 177)" clip-path="url(#clip_1)"><clipPath id="clip_1"><rect width="275" height="23"></rect></clipPath><g><g><line x1="7.098269397443871" y1="0" x2="7.098269397443871" y2="5" style="visibility: inherit;" fill="rgb(0, 0, 0)" stroke="rgb(204, 204, 204)" stroke-width="1px"></line><line x1="31.917092619439956" y1="0" x2="31.917092619439956" y2="5" style="visibility: inherit;" fill="rgb(0, 0, 0)" stroke="rgb(204, 204, 204)" stroke-width="1px"></line><line x1="56.73591584143605" y1="0" x2="56.73591584143605" y2="5" style="visibility: inherit;" fill="rgb(0, 0, 0)" stroke="rgb(204, 204, 204)" stroke-width="1px"></line><line x1="81.55473906343214" y1="0" x2="81.55473906343214" y2="5" style="visibility: inherit;" fill="rgb(0, 0, 0)" stroke="rgb(204, 204, 204)" stroke-width="1px"></line><line x1="106.37356228542822" y1="0" x2="106.37356228542822" y2="5" style="visibility: inherit;" fill="rgb(0, 0, 0)" stroke="rgb(204, 204, 204)" stroke-width="1px"></line><line x1="131.1923855074243" y1="0" x2="131.1923855074243" y2="5" style="visibility: inherit;" fill="rgb(0, 0, 0)" stroke="rgb(204, 204, 204)" stroke-width="1px"></line><line x1="156.0112087294204" y1="0" x2="156.0112087294204" y2="5" style="visibility: inherit;" fill="rgb(0, 0, 0)" stroke="rgb(204, 204, 204)" stroke-width="1px"></line><line x1="180.83003195141646" y1="0" x2="180.83003195141646" y2="5" style="visibility: inherit;" fill="rgb(0, 0, 0)" stroke="rgb(204, 204, 204)" stroke-width="1px"></line><line x1="205.64885517341256" y1="0" x2="205.64885517341256" y2="5" style="visibility: inherit;" fill="rgb(0, 0, 0)" stroke="rgb(204, 204, 204)" stroke-width="1px"></line><line x1="230.46767839540865" y1="0" x2="230.46767839540865" y2="5" style="visibility: inherit;" fill="rgb(0, 0, 0)" stroke="rgb(204, 204, 204)" stroke-width="1px"></line><line x1="255.28650161740472" y1="0" x2="255.28650161740472" y2="5" style="visibility: inherit;" fill="rgb(0, 0, 0)" stroke="rgb(204, 204, 204)" stroke-width="1px"></line></g><g transform="translate(0, 8)"><text x="7.098269397443871" y="0" dx="0em" dy="0.95em" style="text-anchor: middle; visibility: hidden; font-family: &quot;Helvetica Neue&quot;, sans-serif; font-size: 12px; font-weight: 200;" fill="rgb(50, 49, 63)" stroke="none" stroke-width="1px">100k</text><text x="31.917092619439956" y="0" dx="0em" dy="0.95em" style="text-anchor: middle; visibility: inherit; font-family: &quot;Helvetica Neue&quot;, sans-serif; font-size: 12px; font-weight: 200;" fill="rgb(50, 49, 63)" stroke="none" stroke-width="1px">200k</text><text x="56.73591584143605" y="0" dx="0em" dy="0.95em" style="text-anchor: middle; visibility: hidden; font-family: &quot;Helvetica Neue&quot;, sans-serif; font-size: 12px; font-weight: 200;" fill="rgb(50, 49, 63)" stroke="none" stroke-width="1px">300k</text><text x="81.55473906343214" y="0" dx="0em" dy="0.95em" style="text-anchor: middle; visibility: inherit; font-family: &quot;Helvetica Neue&quot;, sans-serif; font-size: 12px; font-weight: 200;" fill="rgb(50, 49, 63)" stroke="none" stroke-width="1px">400k</text><text x="106.37356228542822" y="0" dx="0em" dy="0.95em" style="text-anchor: middle; visibility: hidden; font-family: &quot;Helvetica Neue&quot;, sans-serif; font-size: 12px; font-weight: 200;" fill="rgb(50, 49, 63)" stroke="none" stroke-width="1px">500k</text><text x="131.1923855074243" y="0" dx="0em" dy="0.95em" style="text-anchor: middle; visibility: inherit; font-family: &quot;Helvetica Neue&quot;, sans-serif; font-size: 12px; font-weight: 200;" fill="rgb(50, 49, 63)" stroke="none" stroke-width="1px">600k</text><text x="156.0112087294204" y="0" dx="0em" dy="0.95em" style="text-anchor: middle; visibility: hidden; font-family: &quot;Helvetica Neue&quot;, sans-serif; font-size: 12px; font-weight: 200;" fill="rgb(50, 49, 63)" stroke="none" stroke-width="1px">700k</text><text x="180.83003195141646" y="0" dx="0em" dy="0.95em" style="text-anchor: middle; visibility: inherit; font-family: &quot;Helvetica Neue&quot;, sans-serif; font-size: 12px; font-weight: 200;" fill="rgb(50, 49, 63)" stroke="none" stroke-width="1px">800k</text><text x="205.64885517341256" y="0" dx="0em" dy="0.95em" style="text-anchor: middle; visibility: hidden; font-family: &quot;Helvetica Neue&quot;, sans-serif; font-size: 12px; font-weight: 200;" fill="rgb(50, 49, 63)" stroke="none" stroke-width="1px">900k</text><text x="230.46767839540865" y="0" dx="0em" dy="0.95em" style="text-anchor: middle; visibility: inherit; font-family: &quot;Helvetica Neue&quot;, sans-serif; font-size: 12px; font-weight: 200;" fill="rgb(50, 49, 63)" stroke="none" stroke-width="1px">1M</text><text x="255.28650161740472" y="0" dx="0em" dy="0.95em" style="text-anchor: middle; visibility: hidden; font-family: &quot;Helvetica Neue&quot;, sans-serif; font-size: 12px; font-weight: 200;" fill="rgb(50, 49, 63)" stroke="none" stroke-width="1px">1.1M</text></g><line x1="0" y1="0" x2="275" y2="0" fill="rgb(0, 0, 0)" stroke="rgb(204, 204, 204)" stroke-width="1px"></line></g></g></g></g></svg>