<svg viewBox="0 0 330 200" xmlns="http://www.w3.org/2000/svg"><g><g><g><g><g><line x1="46" y1="171.94310792812573" x2="41" y2="171.94310792812573" style="visibility: inherit;" fill="rgb(0, 0, 0)" stroke="rgb(204, 204, 204)" stroke-width="1px"></line><line x1="46" y1="149.20962081333315" x2="41" y2="149.20962081333315" style="visibility: inherit;" fill="rgb(0, 0, 0)" stroke="rgb(204, 204, 204)" stroke-width="1px"></line><line x1="46" y1="126.4761336985406" x2="41" y2="126.4761336985406" style="visibility: inherit;" fill="rgb(0, 0, 0)" stroke="rgb(204, 204, 204)" stroke-width="1px"></line><line x1="46" y1="103.74264658374803" x2="41" y2="103.74264658374803" style="visibility: inherit;" fill="rgb(0, 0, 0)" stroke="rgb(204, 204, 204)" stroke-width="1px"></line><line x1="46" y1="81.00915946895546" x2="41" y2="81.00915946895546" style="visibility: inherit;" fill="rgb(0, 0, 0)" stroke="rgb(204, 204, 204)" stroke-width="1px"></line><line x1="46" y1="58.27567235416288" x2="41" y2="58.27567235416288" style="visibility: inherit;" fill="rgb(0, 0, 0)" stroke="rgb(204, 204, 204)" stroke-width="1px"></line><line x1="46" y1="35.542185239370355" x2="41" y2="35.542185239370355" style="visibility: inherit;" fill="rgb(0, 0, 0)" stroke="rgb(204, 204, 204)" stroke-width="1px"></line><line x1="46" y1="12.808698124577774" x2="41" y2="12.808698124577774" style="visibility: inherit;" fill="rgb(0, 0, 0)" stroke="rgb(204, 204, 204)" stroke-width="1px"></line></g><g transform="translate(36, 0)"><text x="0" y="171.94310792812573" dx="0em" dy="0.3em" style="text-anchor: end; visibility: hidden; font-family: &quot;Helvetica Neue&quot;, sans-serif; font-size: 12px; font-weight: 200;" fill="rgb(50, 49, 63)" stroke="none" stroke-width="1px">0.18</text><text x="0" y="149.20962081333315" dx="0em" dy="0.3em" style="text-anchor: end; visibility: inherit; font-family: &quot;Helvetica Neue&quot;, sans-serif; font-size: 12px; font-weight: 200;" fill="rgb(50, 49, 63)" stroke="none" stroke-width="1px">0.2</text><text x="0" y="126.4761336985406" dx="0em" dy="0.3em" style="text-anchor: end; visibility: hidden; font-family: &quot;Helvetica Neue&quot;, sans-serif; font-size: 12px; font-weight: 200;" fill="rgb(50, 49, 63)" stroke="none" stroke-width="1px">0.22</text><text x="0" y="103.74264658374803" dx="0em" dy="0.3em" style="text-anchor: end; visibility: inherit; font-family: &quot;Helvetica Neue&quot;, sans-serif; font-size: 12px; font-weight: 200;" fill="rgb(50, 49, 63)" stroke="none" stroke-width="1px">0.24</text><text x="0" y="81.00915946895546" dx="0em" dy="0.3em" style="text-anchor: end; visibility: hidden; font-family: &quot;Helvetica Neue&quot;, sans-serif; font-size: 12px; font-weight: 200;" fill="rgb(50, 49, 63)" stroke="none" stroke-width="1px">0.26</text><text x="0" y="58.27567235416288" dx="0em" dy="0.3em" style="text-anchor: end; visibility: inherit; font-family: &quot;Helvetica Neue&quot;, sans-serif; font-size: 12px; font-weight: 200;" fill="rgb(50, 49, 63)" stroke="none" stroke-width="1px">0.28</text><text x="0" y="35.542185239370355" dx="0em" dy="0.3em" style="text-anchor: end; visibility: hidden; font-family: &quot;Helvetica Neue&quot;, sans-serif; font-size: 12px; font-weight: 200;" fill="rgb(50, 49, 63)" stroke="none" stroke-width="1px">0.3</text><text x="0" y="12.808698124577774" dx="0em" dy="0.3em" style="text-anchor: end; visibility: inherit; font-family: &quot;Helvetica Neue&quot;, sans-serif; font-size: 12px; font-weight: 200;" fill="rgb(50, 49, 63)" stroke="none" stroke-width="1px">0.32</text></g><line x1="46" y1="0" x2="46" y2="177" fill="rgb(0, 0, 0)" stroke="rgb(204, 204, 204)" stroke-width="1px"></line></g></g><g transform="translate(46, 0)" clip-path="url(#clip_0)"><clipPath id="clip_0"><rect width="284" height="177"></rect></clipPath><g><g><g><line x1="13.771702704848888" y1="0" x2="13.771702704848888" y2="177" fill="rgb(0, 0, 0)" stroke="rgb(60, 60, 60)" stroke-width="1px" opacity="0.25"></line><line x1="47.71785499916787" y1="0" x2="47.71785499916787" y2="177" fill="rgb(0, 0, 0)" stroke="rgb(60, 60, 60)" stroke-width="1px" opacity="0.25"></line><line x1="81.66400729348685" y1="0" x2="81.66400729348685" y2="177" fill="rgb(0, 0, 0)" stroke="rgb(60, 60, 60)" stroke-width="1px" opacity="0.25"></line><line x1="115.61015958780582" y1="0" x2="115.61015958780582" y2="177" fill="rgb(0, 0, 0)" stroke="rgb(60, 60, 60)" stroke-width="1px" opacity="0.25"></line><line x1="149.55631188212482" y1="0" x2="149.55631188212482" y2="177" fill="rgb(0, 0, 0)" stroke="rgb(60, 60, 60)" stroke-width="1px" opacity="0.25"></line><line x1="183.50246417644377" y1="0" x2="183.50246417644377" y2="177" fill="rgb(0, 0, 0)" stroke="rgb(60, 60, 60)" stroke-width="1px" opacity="0.25"></line><line x1="217.44861647076277" y1="0" x2="217.44861647076277" y2="177" fill="rgb(0, 0, 0)" stroke="rgb(60, 60, 60)" stroke-width="1px" opacity="0.25"></line><line x1="251.39476876508175" y1="0" x2="251.39476876508175" y2="177" fill="rgb(0, 0, 0)" stroke="rgb(60, 60, 60)" stroke-width="1px" opacity="0.25"></line></g><g><line x1="0" y1="171.94310792812573" x2="284" y2="171.94310792812573" fill="rgb(0, 0, 0)" stroke="rgb(60, 60, 60)" stroke-width="1px" opacity="0.25"></line><line x1="0" y1="149.20962081333315" x2="284" y2="149.20962081333315" fill="rgb(0, 0, 0)" stroke="rgb(60, 60, 60)" stroke-width="1px" opacity="0.25"></line><line x1="0" y1="126.4761336985406" x2="284" y2="126.4761336985406" fill="rgb(0, 0, 0)" stroke="rgb(60, 60, 60)" stroke-width="1px" opacity="0.25"></line><line x1="0" y1="103.74264658374803" x2="284" y2="103.74264658374803" fill="rgb(0, 0, 0)" stroke="rgb(60, 60, 60)" stroke-width="1px" opacity="0.25"></line><line x1="0" y1="81.00915946895546" x2="284" y2="81.00915946895546" fill="rgb(0, 0, 0)" stroke="rgb(60, 60, 60)" stroke-width="1px" opacity="0.25"></line><line x1="0" y1="58.27567235416288" x2="284" y2="58.27567235416288" fill="rgb(0, 0, 0)" stroke="rgb(60, 60, 60)" stroke-width="1px" opacity="0.25"></line><line x1="0" y1="35.542185239370355" x2="284" y2="35.542185239370355" fill="rgb(0, 0, 0)" stroke="rgb(60, 60, 60)" stroke-width="1px" opacity="0.25"></line><line x1="0" y1="12.808698124577774" x2="284" y2="12.808698124577774" fill="rgb(0, 0, 0)" stroke="rgb(60, 60, 60)" stroke-width="1px" opacity="0.25"></line></g></g></g><g><g><line x1="0" y1="376.54449196125876" x2="284" y2="376.54449196125876" fill="rgb(0, 0, 0)" stroke="rgb(153, 153, 153)" stroke-width="1.5px"></line></g></g><g><g><line x1="-88.06675417810804" y1="0" x2="-88.06675417810804" y2="177" fill="rgb(0, 0, 0)" stroke="rgb(153, 153, 153)" stroke-width="1.5px"></line></g></g><g><g><g><g><g><path stroke="rgb(0, 119, 187)" stroke-width="2px" d="M18.01497174163876,66.98212403019588L19.54254859488312,66.98212403019588L21.070125448127467,80.25336443735095L29.217201998764022,72.54397236760953L30.67688654741974,48.671329091559045L32.204463400664096,58.775969213706546L33.73204025390845,56.32927978343086L63.77438503438074,84.85495014037909L65.23406958303646,79.57153002428082L66.76164643628081,95.69567032096587L68.28922328952517,115.87133249733317L69.81680014276952,65.66042448337713L71.34437699601388,79.02602892168738L72.87195384925823,165.27851471436523L74.39953070250259,147.27584280383127L75.92710755574693,139.096213441992L80.95113809530615,109.65666435828327L84.00629180179484,82.80970555092912L87.06144550828357,115.8683676296206L90.11659921477226,60.133998029777686L93.17175292126099,73.02458477169328L96.22690662774968,89.6064615539021L99.2820603342384,77.76967283986585L102.3372140407271,67.90985322782748L105.39236774721581,103.5346373798651L108.44752145370451,82.28321123078513L115.50832113092287,89.29747532683508L118.56347483741158,82.16404339677355L121.61862854390029,63.86682572328614L124.673782250389,72.24037985078598L127.7289359568777,57.487219183346824L130.78408966336642,60.639390738382446L133.83924336985513,87.43610676448846L136.89439707634384,38.89982200308572L139.94955078283252,95.51360321955292L143.51389677373604,50.64682964818999L146.56905048022472,37.94643133842149L149.62420418671343,63.37982635615431L151.04994258307482,64.46183926289083L154.10509628956356,50.186865115254534L157.16024999605227,67.74818796860885L160.21540370254095,50.46949110394628L163.27055740902966,45.66780790369887L166.3257111155184,88.35900684580358L186.5576178829325,77.66239173496942L189.61277158942121,81.16342620787309L192.6679252959099,49.4127144251855L195.21388671798383,63.26066763682752L198.26904042447254,64.45159161302873L201.32419413096125,64.55401107498199L204.37934783744996,38.03718987633712L207.43450154393867,36.86200231804219L208.89418609259437,46.70802007320904L211.9493397990831,69.65949446233043L215.0044935055718,32.9500899726647L218.0596472120605,43.05591130385966L221.11480091854924,39.50406856590706L224.16995462503792,52.461409245509785L227.22510833152663,49.15482813375979L230.28026203801534,33.39717583574509L233.33541574450402,61.88333131813566L236.39056945099276,10.176654042326419L239.44572315748147,33.36073717152868L242.50087686397018,38.670283590526566L243.96056141262588,54.600190904964506L247.01571511911462,43.81259188148846L250.0708688256033,49.5162579430029L253.126022532092,43.375373646759755" style="fill: none;" fill="none"></path></g></g></g></g><g opacity="0.2"><g><g><g><path stroke="rgb(0, 119, 187)" stroke-width="2px" d="M18.01497174163876,66.98212403019588L19.54254859488312,66.98212403019588L21.070125448127467,81.49284520641763L29.217201998764022,71.81904238078168L30.67688654741974,46.42522950909023L32.204463400664096,59.72672956654942L33.73204025390845,56.09906621026178L63.77438503438074,87.53898467576596L65.23406958303646,79.07440296889254L66.76164643628081,97.21282137693753L68.28922328952517,117.7696989602754L69.81680014276952,60.93598456084756L71.34437699601388,80.28362408765508L72.87195384925823,173.3941753031729L74.39953070250259,145.58193713172415L75.92710755574693,138.32657654361327L80.95113809530615,106.8866411403413L84.00629180179484,80.28362408765508L87.06144550828357,118.97892007903795L90.11659921477226,54.889845091499225L93.17175292126099,74.23748461830677L96.22690662774968,91.16668190758921L99.2820603342384,76.65592685583186L102.3372140407271,66.98212403019588L105.39236774721581,106.8866411403413L108.44752145370451,80.28362408765508L115.50832113092287,89.95746078882665L118.56347483741158,81.49284520641763L121.61862854390029,62.1452056796101L124.673782250389,73.02826349954422L127.7289359568777,56.09906621026178L130.78408966336642,60.93598456084756L133.83924336985513,89.95746078882665L136.89439707634384,34.332950570393564L139.94955078283252,100.84050167099296L143.51389677373604,46.42522950909023L146.56905048022472,36.75142668345424L149.62420418671343,65.77290291143333L151.04994258307482,64.5636479171352L154.10509628956356,48.84370562215091L157.16024999605227,69.40056626772098L160.21540370254095,48.84370562215091L163.27055740902966,45.21600839032766L166.3257111155184,92.37590302635175L186.5576178829325,76.65592685583186L189.61277158942121,81.49284520641763L192.6679252959099,46.42522950909023L195.21388671798383,64.5636479171352L198.26904042447254,64.5636479171352L201.32419413096125,64.5636479171352L204.37934783744996,35.542171689156106L207.43450154393867,36.75142668345424L208.89418609259437,47.63445062785277L211.9493397990831,71.81904238078168L215.0044935055718,29.496032219807773L218.0596472120605,44.006787271565116L221.11480091854924,39.169868920979326L224.16995462503792,53.680590097201076L227.22510833152663,48.84370562215091L230.28026203801534,31.91450833286848L233.33541574450402,64.5636479171352L236.39056945099276,5.311474342414471L239.44572315748147,35.542171689156106L242.50087686397018,39.169868920979326L243.96056141262588,56.09906621026178L247.01571511911462,42.797566152802574L250.0708688256033,50.05292674091345L253.126022532092,42.797566152802574" style="fill: none;" fill="none"></path></g></g></g></g></g></g><g transform="translate(46, 177)" clip-path="url(#clip_1)"><clipPath id="clip_1"><rect width="284" height="23"></rect></clipPath><g><g><line x1="13.771702704848888" y1="0" x2="13.771702704848888" y2="5" style="visibility: inherit;" fill="rgb(0, 0, 0)" stroke="rgb(204, 204, 204)" stroke-width="1px"></line><line x1="47.71785499916787" y1="0" x2="47.71785499916787" y2="5" style="visibility: inherit;" fill="rgb(0, 0, 0)" stroke="rgb(204, 204, 204)" stroke-width="1px"></line><line x1="81.66400729348685" y1="0" x2="81.66400729348685" y2="5" style="visibility: inherit;" fill="rgb(0, 0, 0)" stroke="rgb(204, 204, 204)" stroke-width="1px"></line><line x1="115.61015958780582" y1="0" x2="115.61015958780582" y2="5" style="visibility: inherit;" fill="rgb(0, 0, 0)" stroke="rgb(204, 204, 204)" stroke-width="1px"></line><line x1="149.55631188212482" y1="0" x2="149.55631188212482" y2="5" style="visibility: inherit;" fill="rgb(0, 0, 0)" stroke="rgb(204, 204, 204)" stroke-width="1px"></line><line x1="183.50246417644377" y1="0" x2="183.50246417644377" y2="5" style="visibility: inherit;" fill="rgb(0, 0, 0)" stroke="rgb(204, 204, 204)" stroke-width="1px"></line><line x1="217.44861647076277" y1="0" x2="217.44861647076277" y2="5" style="visibility: inherit;" fill="rgb(0, 0, 0)" stroke="rgb(204, 204, 204)" stroke-width="1px"></line><line x1="251.39476876508175" y1="0" x2="251.39476876508175" y2="5" style="visibility: inherit;" fill="rgb(0, 0, 0)" stroke="rgb(204, 204, 204)" stroke-width="1px"></line></g><g transform="translate(0, 8)"><text x="13.771702704848888" y="0" dx="0em" dy="0.95em" style="text-anchor: middle; visibility: inherit; font-family: &quot;Helvetica Neue&quot;, sans-serif; font-size: 12px; font-weight: 200;" fill="rgb(50, 49, 63)" stroke="none" stroke-width="1px">300k</text><text x="47.71785499916787" y="0" dx="0em" dy="0.95em" style="text-anchor: middle; visibility: inherit; font-family: &quot;Helvetica Neue&quot;, sans-serif; font-size: 12px; font-weight: 200;" fill="rgb(50, 49, 63)" stroke="none" stroke-width="1px">400k</text><text x="81.66400729348685" y="0" dx="0em" dy="0.95em" style="text-anchor: middle; visibility: inherit; font-family: &quot;Helvetica Neue&quot;, sans-serif; font-size: 12px; font-weight: 200;" fill="rgb(50, 49, 63)" stroke="none" stroke-width="1px">500k</text><text x="115.61015958780582" y="0" dx="0em" dy="0.95em" style="text-anchor: middle; visibility: inherit; font-family: &quot;Helvetica Neue&quot;, sans-serif; font-size: 12px; font-weight: 200;" fill="rgb(50, 49, 63)" stroke="none" stroke-width="1px">600k</text><text x="149.55631188212482" y="0" dx="0em" dy="0.95em" style="text-anchor: middle; visibility: inherit; font-family: &quot;Helvetica Neue&quot;, sans-serif; font-size: 12px; font-weight: 200;" fill="rgb(50, 49, 63)" stroke="none" stroke-width="1px">700k</text><text x="183.50246417644377" y="0" dx="0em" dy="0.95em" style="text-anchor: middle; visibility: inherit; font-family: &quot;Helvetica Neue&quot;, sans-serif; font-size: 12px; font-weight: 200;" fill="rgb(50, 49, 63)" stroke="none" stroke-width="1px">800k</text><text x="217.44861647076277" y="0" dx="0em" dy="0.95em" style="text-anchor: middle; visibility: inherit; font-family: &quot;Helvetica Neue&quot;, sans-serif; font-size: 12px; font-weight: 200;" fill="rgb(50, 49, 63)" stroke="none" stroke-width="1px">900k</text><text x="251.39476876508175" y="0" dx="0em" dy="0.95em" style="text-anchor: middle; visibility: inherit; font-family: &quot;Helvetica Neue&quot;, sans-serif; font-size: 12px; font-weight: 200;" fill="rgb(50, 49, 63)" stroke="none" stroke-width="1px">1M</text></g><line x1="0" y1="0" x2="284" y2="0" fill="rgb(0, 0, 0)" stroke="rgb(204, 204, 204)" stroke-width="1px"></line></g></g></g></g></svg>