<svg viewBox="0 0 330 200" xmlns="http://www.w3.org/2000/svg"><g><g><g><g><g><line x1="46" y1="168.11675333703315" x2="41" y2="168.11675333703315" style="visibility: inherit;" fill="rgb(0, 0, 0)" stroke="rgb(204, 204, 204)" stroke-width="1px"></line><line x1="46" y1="155.605983338178" x2="41" y2="155.605983338178" style="visibility: inherit;" fill="rgb(0, 0, 0)" stroke="rgb(204, 204, 204)" stroke-width="1px"></line><line x1="46" y1="143.0952133393228" x2="41" y2="143.0952133393228" style="visibility: inherit;" fill="rgb(0, 0, 0)" stroke="rgb(204, 204, 204)" stroke-width="1px"></line><line x1="46" y1="130.58444334046763" x2="41" y2="130.58444334046763" style="visibility: inherit;" fill="rgb(0, 0, 0)" stroke="rgb(204, 204, 204)" stroke-width="1px"></line><line x1="46" y1="118.07367334161248" x2="41" y2="118.07367334161248" style="visibility: inherit;" fill="rgb(0, 0, 0)" stroke="rgb(204, 204, 204)" stroke-width="1px"></line><line x1="46" y1="105.5629033427573" x2="41" y2="105.5629033427573" style="visibility: inherit;" fill="rgb(0, 0, 0)" stroke="rgb(204, 204, 204)" stroke-width="1px"></line><line x1="46" y1="93.05213334390211" x2="41" y2="93.05213334390211" style="visibility: inherit;" fill="rgb(0, 0, 0)" stroke="rgb(204, 204, 204)" stroke-width="1px"></line><line x1="46" y1="80.54136334504696" x2="41" y2="80.54136334504696" style="visibility: inherit;" fill="rgb(0, 0, 0)" stroke="rgb(204, 204, 204)" stroke-width="1px"></line><line x1="46" y1="68.03059334619178" x2="41" y2="68.03059334619178" style="visibility: inherit;" fill="rgb(0, 0, 0)" stroke="rgb(204, 204, 204)" stroke-width="1px"></line><line x1="46" y1="55.51982334733661" x2="41" y2="55.51982334733661" style="visibility: inherit;" fill="rgb(0, 0, 0)" stroke="rgb(204, 204, 204)" stroke-width="1px"></line><line x1="46" y1="43.009053348481444" x2="41" y2="43.009053348481444" style="visibility: inherit;" fill="rgb(0, 0, 0)" stroke="rgb(204, 204, 204)" stroke-width="1px"></line><line x1="46" y1="30.498283349626263" x2="41" y2="30.498283349626263" style="visibility: inherit;" fill="rgb(0, 0, 0)" stroke="rgb(204, 204, 204)" stroke-width="1px"></line><line x1="46" y1="17.98751335077108" x2="41" y2="17.98751335077108" style="visibility: inherit;" fill="rgb(0, 0, 0)" stroke="rgb(204, 204, 204)" stroke-width="1px"></line><line x1="46" y1="5.476743351915957" x2="41" y2="5.476743351915957" style="visibility: inherit;" fill="rgb(0, 0, 0)" stroke="rgb(204, 204, 204)" stroke-width="1px"></line></g><g transform="translate(36, 0)"><text x="0" y="168.11675333703315" dx="0em" dy="0.3em" style="text-anchor: end; visibility: inherit; font-family: &quot;Helvetica Neue&quot;, sans-serif; font-size: 12px; font-weight: 200;" fill="rgb(50, 49, 63)" stroke="none" stroke-width="1px">0.16</text><text x="0" y="155.605983338178" dx="0em" dy="0.3em" style="text-anchor: end; visibility: hidden; font-family: &quot;Helvetica Neue&quot;, sans-serif; font-size: 12px; font-weight: 200;" fill="rgb(50, 49, 63)" stroke="none" stroke-width="1px">0.18</text><text x="0" y="143.0952133393228" dx="0em" dy="0.3em" style="text-anchor: end; visibility: inherit; font-family: &quot;Helvetica Neue&quot;, sans-serif; font-size: 12px; font-weight: 200;" fill="rgb(50, 49, 63)" stroke="none" stroke-width="1px">0.2</text><text x="0" y="130.58444334046763" dx="0em" dy="0.3em" style="text-anchor: end; visibility: hidden; font-family: &quot;Helvetica Neue&quot;, sans-serif; font-size: 12px; font-weight: 200;" fill="rgb(50, 49, 63)" stroke="none" stroke-width="1px">0.22</text><text x="0" y="118.07367334161248" dx="0em" dy="0.3em" style="text-anchor: end; visibility: inherit; font-family: &quot;Helvetica Neue&quot;, sans-serif; font-size: 12px; font-weight: 200;" fill="rgb(50, 49, 63)" stroke="none" stroke-width="1px">0.24</text><text x="0" y="105.5629033427573" dx="0em" dy="0.3em" style="text-anchor: end; visibility: hidden; font-family: &quot;Helvetica Neue&quot;, sans-serif; font-size: 12px; font-weight: 200;" fill="rgb(50, 49, 63)" stroke="none" stroke-width="1px">0.26</text><text x="0" y="93.05213334390211" dx="0em" dy="0.3em" style="text-anchor: end; visibility: inherit; font-family: &quot;Helvetica Neue&quot;, sans-serif; font-size: 12px; font-weight: 200;" fill="rgb(50, 49, 63)" stroke="none" stroke-width="1px">0.28</text><text x="0" y="80.54136334504696" dx="0em" dy="0.3em" style="text-anchor: end; visibility: hidden; font-family: &quot;Helvetica Neue&quot;, sans-serif; font-size: 12px; font-weight: 200;" fill="rgb(50, 49, 63)" stroke="none" stroke-width="1px">0.3</text><text x="0" y="68.03059334619178" dx="0em" dy="0.3em" style="text-anchor: end; visibility: inherit; font-family: &quot;Helvetica Neue&quot;, sans-serif; font-size: 12px; font-weight: 200;" fill="rgb(50, 49, 63)" stroke="none" stroke-width="1px">0.32</text><text x="0" y="55.51982334733661" dx="0em" dy="0.3em" style="text-anchor: end; visibility: hidden; font-family: &quot;Helvetica Neue&quot;, sans-serif; font-size: 12px; font-weight: 200;" fill="rgb(50, 49, 63)" stroke="none" stroke-width="1px">0.34</text><text x="0" y="43.009053348481444" dx="0em" dy="0.3em" style="text-anchor: end; visibility: inherit; font-family: &quot;Helvetica Neue&quot;, sans-serif; font-size: 12px; font-weight: 200;" fill="rgb(50, 49, 63)" stroke="none" stroke-width="1px">0.36</text><text x="0" y="30.498283349626263" dx="0em" dy="0.3em" style="text-anchor: end; visibility: hidden; font-family: &quot;Helvetica Neue&quot;, sans-serif; font-size: 12px; font-weight: 200;" fill="rgb(50, 49, 63)" stroke="none" stroke-width="1px">0.38</text><text x="0" y="17.98751335077108" dx="0em" dy="0.3em" style="text-anchor: end; visibility: inherit; font-family: &quot;Helvetica Neue&quot;, sans-serif; font-size: 12px; font-weight: 200;" fill="rgb(50, 49, 63)" stroke="none" stroke-width="1px">0.4</text><text x="0" y="5.476743351915957" dx="0em" dy="0.3em" style="text-anchor: end; visibility: hidden; font-family: &quot;Helvetica Neue&quot;, sans-serif; font-size: 12px; font-weight: 200;" fill="rgb(50, 49, 63)" stroke="none" stroke-width="1px">0.42</text></g><line x1="46" y1="0" x2="46" y2="177" fill="rgb(0, 0, 0)" stroke="rgb(204, 204, 204)" stroke-width="1px"></line></g></g><g transform="translate(46, 0)" clip-path="url(#clip_0)"><clipPath id="clip_0"><rect width="284" height="177"></rect></clipPath><g><g><g><line x1="22.701432886125215" y1="0" x2="22.701432886125215" y2="177" fill="rgb(0, 0, 0)" stroke="rgb(60, 60, 60)" stroke-width="1px" opacity="0.25"></line><line x1="55.20843577187159" y1="0" x2="55.20843577187159" y2="177" fill="rgb(0, 0, 0)" stroke="rgb(60, 60, 60)" stroke-width="1px" opacity="0.25"></line><line x1="87.71543865761797" y1="0" x2="87.71543865761797" y2="177" fill="rgb(0, 0, 0)" stroke="rgb(60, 60, 60)" stroke-width="1px" opacity="0.25"></line><line x1="120.22244154336435" y1="0" x2="120.22244154336435" y2="177" fill="rgb(0, 0, 0)" stroke="rgb(60, 60, 60)" stroke-width="1px" opacity="0.25"></line><line x1="152.7294444291107" y1="0" x2="152.7294444291107" y2="177" fill="rgb(0, 0, 0)" stroke="rgb(60, 60, 60)" stroke-width="1px" opacity="0.25"></line><line x1="185.23644731485712" y1="0" x2="185.23644731485712" y2="177" fill="rgb(0, 0, 0)" stroke="rgb(60, 60, 60)" stroke-width="1px" opacity="0.25"></line><line x1="217.74345020060346" y1="0" x2="217.74345020060346" y2="177" fill="rgb(0, 0, 0)" stroke="rgb(60, 60, 60)" stroke-width="1px" opacity="0.25"></line><line x1="250.25045308634984" y1="0" x2="250.25045308634984" y2="177" fill="rgb(0, 0, 0)" stroke="rgb(60, 60, 60)" stroke-width="1px" opacity="0.25"></line><line x1="282.75745597209624" y1="0" x2="282.75745597209624" y2="177" fill="rgb(0, 0, 0)" stroke="rgb(60, 60, 60)" stroke-width="1px" opacity="0.25"></line></g><g><line x1="0" y1="168.11675333703315" x2="284" y2="168.11675333703315" fill="rgb(0, 0, 0)" stroke="rgb(60, 60, 60)" stroke-width="1px" opacity="0.25"></line><line x1="0" y1="155.605983338178" x2="284" y2="155.605983338178" fill="rgb(0, 0, 0)" stroke="rgb(60, 60, 60)" stroke-width="1px" opacity="0.25"></line><line x1="0" y1="143.0952133393228" x2="284" y2="143.0952133393228" fill="rgb(0, 0, 0)" stroke="rgb(60, 60, 60)" stroke-width="1px" opacity="0.25"></line><line x1="0" y1="130.58444334046763" x2="284" y2="130.58444334046763" fill="rgb(0, 0, 0)" stroke="rgb(60, 60, 60)" stroke-width="1px" opacity="0.25"></line><line x1="0" y1="118.07367334161248" x2="284" y2="118.07367334161248" fill="rgb(0, 0, 0)" stroke="rgb(60, 60, 60)" stroke-width="1px" opacity="0.25"></line><line x1="0" y1="105.5629033427573" x2="284" y2="105.5629033427573" fill="rgb(0, 0, 0)" stroke="rgb(60, 60, 60)" stroke-width="1px" opacity="0.25"></line><line x1="0" y1="93.05213334390211" x2="284" y2="93.05213334390211" fill="rgb(0, 0, 0)" stroke="rgb(60, 60, 60)" stroke-width="1px" opacity="0.25"></line><line x1="0" y1="80.54136334504696" x2="284" y2="80.54136334504696" fill="rgb(0, 0, 0)" stroke="rgb(60, 60, 60)" stroke-width="1px" opacity="0.25"></line><line x1="0" y1="68.03059334619178" x2="284" y2="68.03059334619178" fill="rgb(0, 0, 0)" stroke="rgb(60, 60, 60)" stroke-width="1px" opacity="0.25"></line><line x1="0" y1="55.51982334733661" x2="284" y2="55.51982334733661" fill="rgb(0, 0, 0)" stroke="rgb(60, 60, 60)" stroke-width="1px" opacity="0.25"></line><line x1="0" y1="43.009053348481444" x2="284" y2="43.009053348481444" fill="rgb(0, 0, 0)" stroke="rgb(60, 60, 60)" stroke-width="1px" opacity="0.25"></line><line x1="0" y1="30.498283349626263" x2="284" y2="30.498283349626263" fill="rgb(0, 0, 0)" stroke="rgb(60, 60, 60)" stroke-width="1px" opacity="0.25"></line><line x1="0" y1="17.98751335077108" x2="284" y2="17.98751335077108" fill="rgb(0, 0, 0)" stroke="rgb(60, 60, 60)" stroke-width="1px" opacity="0.25"></line><line x1="0" y1="5.476743351915957" x2="284" y2="5.476743351915957" fill="rgb(0, 0, 0)" stroke="rgb(60, 60, 60)" stroke-width="1px" opacity="0.25"></line></g></g></g><g><g><line x1="0" y1="268.2029133278745" x2="284" y2="268.2029133278745" fill="rgb(0, 0, 0)" stroke="rgb(153, 153, 153)" stroke-width="1.5px"></line></g></g><g><g><line x1="-74.8195757711139" y1="0" x2="-74.8195757711139" y2="177" fill="rgb(0, 0, 0)" stroke="rgb(153, 153, 153)" stroke-width="1.5px"></line></g></g><g><g><g><g><g><path stroke="rgb(0, 119, 187)" stroke-width="2px" d="M26.76480824684351,62.45460741556602L28.2276233767021,80.45006164273L29.69043850656068,53.98996076314205L37.49211919913982,83.83692240317072L38.88992032322691,92.22964085328815L40.352735453085494,42.14778938391524L41.81555058294408,51.149290108126195L70.58424813682963,111.48974005703744L71.98204926091672,84.37617117591658L73.44486439077531,77.56833090153218L74.90767952063389,71.6241333484439L76.37049465049247,55.101256032462985L77.83330978035107,63.291751845647696L79.29612491020966,163.7370166399472L80.75894004006824,169.91443348693707L82.22175516992682,124.85510392998728L87.0327915970173,126.53538332432231L89.95842185673447,109.70108903634082L92.88405211645164,110.56992732591526L95.80968237616882,89.34392127572322L98.73531263588599,108.70997229856566L101.66094289560316,75.61736936211709L104.58657315532034,80.83202484559055L107.5122034150375,78.62641833161244L110.43783367475467,79.26373592931343L113.36346393447187,61.71064948040828L120.12492053470712,67.8485868858723L123.05055079442428,72.78816563166939L125.97618105414145,105.39637168529461L128.90181131385864,58.57423405785167L131.8274415735758,36.00375392589038L134.75307183329298,63.75035669536159L137.67870209301014,102.0581556661011L140.6043323527273,31.51469377438528L143.52996261244448,59.5090660970901L146.94319791544785,52.154338575148216L149.86882817516505,52.70863246437965L152.79445843488222,46.54783129919463L154.15975255608356,50.36910993331692L157.08538281580073,41.688222042940794L160.0110130755179,59.88947655870278L162.93664333523506,69.23809007007837L165.86227359495228,60.28439380803219L168.78790385466945,47.91250733655522L188.16207757457428,66.60851158906284L191.08770783429145,53.087972012617044L194.01333809400862,38.81425627934081L196.4513633104396,50.44775144901351L199.37699357015677,43.24332437061835L202.30262382987394,47.44148794080601L205.2282540895911,50.136259086690885L208.15388434930827,42.66708853197403L209.5516854733954,59.695595636989964L212.47731573311256,53.55878891898368L215.40294599282973,31.97734941194082L218.32857625254692,23.686985903211934L221.2542065122641,14.047955010745085L224.17983677198126,36.05344398217366L227.10546703169842,29.83831949913963L230.0310972914156,32.503618619221896L232.95672755113276,35.811348822994034L235.88235781084995,11.637493861758117L238.80798807056712,31.80828626980511L241.7336183302843,32.69278424649775L243.1314194543714,11.567463727967493L246.05704971408858,39.623617935488255L248.98267997380574,31.977840066700395L251.9083102335229,45.55308231447634" style="fill: none;" fill="none"></path></g></g></g></g><g opacity="0.2"><g><g><g><path stroke="rgb(0, 119, 187)" stroke-width="2px" d="M26.76480824684351,62.45460741556602L28.2276233767021,81.99767070626615L29.69043850656068,51.51869318139208L37.49211919913982,86.64349357153577L38.88992032322691,93.0192845131295L40.352735453085494,37.43551480526108L41.81555058294408,51.99625810494774L70.58424813682963,117.16728766650888L71.98204926091672,81.82500387088446L73.44486439077531,76.92776825005906L74.90767952063389,71.064832484599L76.37049465049247,53.54658705087476L77.83330978035107,64.06241118912007L79.29612491020966,173.18810282409342L80.75894004006824,170.4956783981418L82.22175516992682,120.61538583163095L87.0327915970173,126.69348401131663L89.95842185673447,108.11711823900342L92.88405211645164,110.65167797460607L95.80968237616882,87.34672595809027L98.73531263588599,110.53216090684188L101.66094289560316,72.50362335277944L104.58657315532034,81.32268170727406L107.5122034150375,78.41888861585521L110.43783367475467,79.32370235535531L113.36346393447187,60.05904616027061L120.12492053470712,68.4261171012661L123.05055079442428,73.25293999943582L125.97618105414145,108.46453986977139L128.90181131385864,54.168649992249826L131.8274415735758,33.880054482401704L134.75307183329298,66.36108737170132L137.67870209301014,105.6626093985777L140.6043323527273,24.877125150000637L143.52996261244448,62.143109882377445L146.94319791544785,51.462318261267455L149.86882817516505,52.76078703163773L152.79445843488222,45.96814978912255L154.15975255608356,50.728661314645706L157.08538281580073,40.8714207753562L160.0110130755179,61.60206724618146L162.93664333523506,70.1177189125054L165.86227359495228,59.44192348140645L168.78790385466945,46.748412985847324L188.16207757457428,68.36765422113686L191.08770783429145,51.81579870454884L194.01333809400862,37.47121519283999L196.4513633104396,51.54236915644442L199.37699357015677,42.565446111600835L202.30262382987394,47.836501143252576L205.2282540895911,50.3898152338967L208.15388434930827,41.96430005527202L209.5516854733954,61.297840288008985L212.47731573311256,52.98136509212533L215.40294599282973,29.94671068370701L218.32857625254692,22.9069298181455L221.2542065122641,13.141000244057835L224.17983677198126,38.12398233178294L227.10546703169842,29.253526604674732L230.0310972914156,32.754401687413434L232.95672755113276,36.12257945485882L235.88235781084995,9.362929828206376L238.80798807056712,33.706194527017374L241.7336183302843,32.77600834496121L243.1314194543714,9.579742103685646L246.05704971408858,42.26347489593334L248.98267997380574,31.258434271606603L251.9083102335229,46.83040270102856" style="fill: none;" fill="none"></path></g></g></g></g></g></g><g transform="translate(46, 177)" clip-path="url(#clip_1)"><clipPath id="clip_1"><rect width="284" height="23"></rect></clipPath><g><g><line x1="22.701432886125215" y1="0" x2="22.701432886125215" y2="5" style="visibility: inherit;" fill="rgb(0, 0, 0)" stroke="rgb(204, 204, 204)" stroke-width="1px"></line><line x1="55.20843577187159" y1="0" x2="55.20843577187159" y2="5" style="visibility: inherit;" fill="rgb(0, 0, 0)" stroke="rgb(204, 204, 204)" stroke-width="1px"></line><line x1="87.71543865761797" y1="0" x2="87.71543865761797" y2="5" style="visibility: inherit;" fill="rgb(0, 0, 0)" stroke="rgb(204, 204, 204)" stroke-width="1px"></line><line x1="120.22244154336435" y1="0" x2="120.22244154336435" y2="5" style="visibility: inherit;" fill="rgb(0, 0, 0)" stroke="rgb(204, 204, 204)" stroke-width="1px"></line><line x1="152.7294444291107" y1="0" x2="152.7294444291107" y2="5" style="visibility: inherit;" fill="rgb(0, 0, 0)" stroke="rgb(204, 204, 204)" stroke-width="1px"></line><line x1="185.23644731485712" y1="0" x2="185.23644731485712" y2="5" style="visibility: inherit;" fill="rgb(0, 0, 0)" stroke="rgb(204, 204, 204)" stroke-width="1px"></line><line x1="217.74345020060346" y1="0" x2="217.74345020060346" y2="5" style="visibility: inherit;" fill="rgb(0, 0, 0)" stroke="rgb(204, 204, 204)" stroke-width="1px"></line><line x1="250.25045308634984" y1="0" x2="250.25045308634984" y2="5" style="visibility: inherit;" fill="rgb(0, 0, 0)" stroke="rgb(204, 204, 204)" stroke-width="1px"></line><line x1="282.75745597209624" y1="0" x2="282.75745597209624" y2="5" style="visibility: inherit;" fill="rgb(0, 0, 0)" stroke="rgb(204, 204, 204)" stroke-width="1px"></line></g><g transform="translate(0, 8)"><text x="22.701432886125215" y="0" dx="0em" dy="0.95em" style="text-anchor: middle; visibility: inherit; font-family: &quot;Helvetica Neue&quot;, sans-serif; font-size: 12px; font-weight: 200;" fill="rgb(50, 49, 63)" stroke="none" stroke-width="1px">300k</text><text x="55.20843577187159" y="0" dx="0em" dy="0.95em" style="text-anchor: middle; visibility: inherit; font-family: &quot;Helvetica Neue&quot;, sans-serif; font-size: 12px; font-weight: 200;" fill="rgb(50, 49, 63)" stroke="none" stroke-width="1px">400k</text><text x="87.71543865761797" y="0" dx="0em" dy="0.95em" style="text-anchor: middle; visibility: inherit; font-family: &quot;Helvetica Neue&quot;, sans-serif; font-size: 12px; font-weight: 200;" fill="rgb(50, 49, 63)" stroke="none" stroke-width="1px">500k</text><text x="120.22244154336435" y="0" dx="0em" dy="0.95em" style="text-anchor: middle; visibility: inherit; font-family: &quot;Helvetica Neue&quot;, sans-serif; font-size: 12px; font-weight: 200;" fill="rgb(50, 49, 63)" stroke="none" stroke-width="1px">600k</text><text x="152.7294444291107" y="0" dx="0em" dy="0.95em" style="text-anchor: middle; visibility: inherit; font-family: &quot;Helvetica Neue&quot;, sans-serif; font-size: 12px; font-weight: 200;" fill="rgb(50, 49, 63)" stroke="none" stroke-width="1px">700k</text><text x="185.23644731485712" y="0" dx="0em" dy="0.95em" style="text-anchor: middle; visibility: inherit; font-family: &quot;Helvetica Neue&quot;, sans-serif; font-size: 12px; font-weight: 200;" fill="rgb(50, 49, 63)" stroke="none" stroke-width="1px">800k</text><text x="217.74345020060346" y="0" dx="0em" dy="0.95em" style="text-anchor: middle; visibility: inherit; font-family: &quot;Helvetica Neue&quot;, sans-serif; font-size: 12px; font-weight: 200;" fill="rgb(50, 49, 63)" stroke="none" stroke-width="1px">900k</text><text x="250.25045308634984" y="0" dx="0em" dy="0.95em" style="text-anchor: middle; visibility: inherit; font-family: &quot;Helvetica Neue&quot;, sans-serif; font-size: 12px; font-weight: 200;" fill="rgb(50, 49, 63)" stroke="none" stroke-width="1px">1M</text><text x="282.75745597209624" y="0" dx="0em" dy="0.95em" style="text-anchor: middle; visibility: hidden; font-family: &quot;Helvetica Neue&quot;, sans-serif; font-size: 12px; font-weight: 200;" fill="rgb(50, 49, 63)" stroke="none" stroke-width="1px">1.1M</text></g><line x1="0" y1="0" x2="284" y2="0" fill="rgb(0, 0, 0)" stroke="rgb(204, 204, 204)" stroke-width="1px"></line></g></g></g></g></svg>