<svg viewBox="0 0 330 200" xmlns="http://www.w3.org/2000/svg"><g><g><g><g><g><line x1="55" y1="175.06789713633836" x2="50" y2="175.06789713633836" style="visibility: inherit;" fill="rgb(0, 0, 0)" stroke="rgb(204, 204, 204)" stroke-width="1px"></line><line x1="55" y1="163.82178127268145" x2="50" y2="163.82178127268145" style="visibility: inherit;" fill="rgb(0, 0, 0)" stroke="rgb(204, 204, 204)" stroke-width="1px"></line><line x1="55" y1="152.57566540902454" x2="50" y2="152.57566540902454" style="visibility: inherit;" fill="rgb(0, 0, 0)" stroke="rgb(204, 204, 204)" stroke-width="1px"></line><line x1="55" y1="141.32954954536763" x2="50" y2="141.32954954536763" style="visibility: inherit;" fill="rgb(0, 0, 0)" stroke="rgb(204, 204, 204)" stroke-width="1px"></line><line x1="55" y1="130.08343368171072" x2="50" y2="130.08343368171072" style="visibility: inherit;" fill="rgb(0, 0, 0)" stroke="rgb(204, 204, 204)" stroke-width="1px"></line><line x1="55" y1="118.83731781805382" x2="50" y2="118.83731781805382" style="visibility: inherit;" fill="rgb(0, 0, 0)" stroke="rgb(204, 204, 204)" stroke-width="1px"></line><line x1="55" y1="107.59120195439691" x2="50" y2="107.59120195439691" style="visibility: inherit;" fill="rgb(0, 0, 0)" stroke="rgb(204, 204, 204)" stroke-width="1px"></line><line x1="55" y1="96.34508609074" x2="50" y2="96.34508609074" style="visibility: inherit;" fill="rgb(0, 0, 0)" stroke="rgb(204, 204, 204)" stroke-width="1px"></line><line x1="55" y1="85.0989702270831" x2="50" y2="85.0989702270831" style="visibility: inherit;" fill="rgb(0, 0, 0)" stroke="rgb(204, 204, 204)" stroke-width="1px"></line><line x1="55" y1="73.8528543634262" x2="50" y2="73.8528543634262" style="visibility: inherit;" fill="rgb(0, 0, 0)" stroke="rgb(204, 204, 204)" stroke-width="1px"></line><line x1="55" y1="62.60673849976928" x2="50" y2="62.60673849976928" style="visibility: inherit;" fill="rgb(0, 0, 0)" stroke="rgb(204, 204, 204)" stroke-width="1px"></line><line x1="55" y1="51.36062263611238" x2="50" y2="51.36062263611238" style="visibility: inherit;" fill="rgb(0, 0, 0)" stroke="rgb(204, 204, 204)" stroke-width="1px"></line><line x1="55" y1="40.114506772455485" x2="50" y2="40.114506772455485" style="visibility: inherit;" fill="rgb(0, 0, 0)" stroke="rgb(204, 204, 204)" stroke-width="1px"></line><line x1="55" y1="28.868390908798574" x2="50" y2="28.868390908798574" style="visibility: inherit;" fill="rgb(0, 0, 0)" stroke="rgb(204, 204, 204)" stroke-width="1px"></line><line x1="55" y1="17.622275045141663" x2="50" y2="17.622275045141663" style="visibility: inherit;" fill="rgb(0, 0, 0)" stroke="rgb(204, 204, 204)" stroke-width="1px"></line><line x1="55" y1="6.376159181484752" x2="50" y2="6.376159181484752" style="visibility: inherit;" fill="rgb(0, 0, 0)" stroke="rgb(204, 204, 204)" stroke-width="1px"></line></g><g transform="translate(45, 0)"><text x="0" y="175.06789713633836" dx="0em" dy="0.3em" style="text-anchor: end; visibility: hidden; font-family: &quot;Helvetica Neue&quot;, sans-serif; font-size: 12px; font-weight: 200;" fill="rgb(50, 49, 63)" stroke="none" stroke-width="1px">-4e-3</text><text x="0" y="163.82178127268145" dx="0em" dy="0.3em" style="text-anchor: end; visibility: inherit; font-family: &quot;Helvetica Neue&quot;, sans-serif; font-size: 12px; font-weight: 200;" fill="rgb(50, 49, 63)" stroke="none" stroke-width="1px">-2e-3</text><text x="0" y="152.57566540902454" dx="0em" dy="0.3em" style="text-anchor: end; visibility: hidden; font-family: &quot;Helvetica Neue&quot;, sans-serif; font-size: 12px; font-weight: 200;" fill="rgb(50, 49, 63)" stroke="none" stroke-width="1px">0</text><text x="0" y="141.32954954536763" dx="0em" dy="0.3em" style="text-anchor: end; visibility: hidden; font-family: &quot;Helvetica Neue&quot;, sans-serif; font-size: 12px; font-weight: 200;" fill="rgb(50, 49, 63)" stroke="none" stroke-width="1px">2e-3</text><text x="0" y="130.08343368171072" dx="0em" dy="0.3em" style="text-anchor: end; visibility: inherit; font-family: &quot;Helvetica Neue&quot;, sans-serif; font-size: 12px; font-weight: 200;" fill="rgb(50, 49, 63)" stroke="none" stroke-width="1px">4e-3</text><text x="0" y="118.83731781805382" dx="0em" dy="0.3em" style="text-anchor: end; visibility: hidden; font-family: &quot;Helvetica Neue&quot;, sans-serif; font-size: 12px; font-weight: 200;" fill="rgb(50, 49, 63)" stroke="none" stroke-width="1px">6e-3</text><text x="0" y="107.59120195439691" dx="0em" dy="0.3em" style="text-anchor: end; visibility: hidden; font-family: &quot;Helvetica Neue&quot;, sans-serif; font-size: 12px; font-weight: 200;" fill="rgb(50, 49, 63)" stroke="none" stroke-width="1px">8e-3</text><text x="0" y="96.34508609074" dx="0em" dy="0.3em" style="text-anchor: end; visibility: inherit; font-family: &quot;Helvetica Neue&quot;, sans-serif; font-size: 12px; font-weight: 200;" fill="rgb(50, 49, 63)" stroke="none" stroke-width="1px">0.01</text><text x="0" y="85.0989702270831" dx="0em" dy="0.3em" style="text-anchor: end; visibility: hidden; font-family: &quot;Helvetica Neue&quot;, sans-serif; font-size: 12px; font-weight: 200;" fill="rgb(50, 49, 63)" stroke="none" stroke-width="1px">0.012</text><text x="0" y="73.8528543634262" dx="0em" dy="0.3em" style="text-anchor: end; visibility: hidden; font-family: &quot;Helvetica Neue&quot;, sans-serif; font-size: 12px; font-weight: 200;" fill="rgb(50, 49, 63)" stroke="none" stroke-width="1px">0.014</text><text x="0" y="62.60673849976928" dx="0em" dy="0.3em" style="text-anchor: end; visibility: inherit; font-family: &quot;Helvetica Neue&quot;, sans-serif; font-size: 12px; font-weight: 200;" fill="rgb(50, 49, 63)" stroke="none" stroke-width="1px">0.016</text><text x="0" y="51.36062263611238" dx="0em" dy="0.3em" style="text-anchor: end; visibility: hidden; font-family: &quot;Helvetica Neue&quot;, sans-serif; font-size: 12px; font-weight: 200;" fill="rgb(50, 49, 63)" stroke="none" stroke-width="1px">0.018</text><text x="0" y="40.114506772455485" dx="0em" dy="0.3em" style="text-anchor: end; visibility: hidden; font-family: &quot;Helvetica Neue&quot;, sans-serif; font-size: 12px; font-weight: 200;" fill="rgb(50, 49, 63)" stroke="none" stroke-width="1px">0.02</text><text x="0" y="28.868390908798574" dx="0em" dy="0.3em" style="text-anchor: end; visibility: inherit; font-family: &quot;Helvetica Neue&quot;, sans-serif; font-size: 12px; font-weight: 200;" fill="rgb(50, 49, 63)" stroke="none" stroke-width="1px">0.022</text><text x="0" y="17.622275045141663" dx="0em" dy="0.3em" style="text-anchor: end; visibility: hidden; font-family: &quot;Helvetica Neue&quot;, sans-serif; font-size: 12px; font-weight: 200;" fill="rgb(50, 49, 63)" stroke="none" stroke-width="1px">0.024</text><text x="0" y="6.376159181484752" dx="0em" dy="0.3em" style="text-anchor: end; visibility: hidden; font-family: &quot;Helvetica Neue&quot;, sans-serif; font-size: 12px; font-weight: 200;" fill="rgb(50, 49, 63)" stroke="none" stroke-width="1px">0.026</text></g><line x1="55" y1="0" x2="55" y2="177" fill="rgb(0, 0, 0)" stroke="rgb(204, 204, 204)" stroke-width="1px"></line></g></g><g transform="translate(55, 0)" clip-path="url(#clip_0)"><clipPath id="clip_0"><rect width="275" height="177"></rect></clipPath><g><g><g><line x1="5.07335188817429" y1="0" x2="5.07335188817429" y2="177" fill="rgb(0, 0, 0)" stroke="rgb(60, 60, 60)" stroke-width="1px" opacity="0.25"></line><line x1="34.249492397908014" y1="0" x2="34.249492397908014" y2="177" fill="rgb(0, 0, 0)" stroke="rgb(60, 60, 60)" stroke-width="1px" opacity="0.25"></line><line x1="63.425632907641734" y1="0" x2="63.425632907641734" y2="177" fill="rgb(0, 0, 0)" stroke="rgb(60, 60, 60)" stroke-width="1px" opacity="0.25"></line><line x1="92.60177341737545" y1="0" x2="92.60177341737545" y2="177" fill="rgb(0, 0, 0)" stroke="rgb(60, 60, 60)" stroke-width="1px" opacity="0.25"></line><line x1="121.77791392710917" y1="0" x2="121.77791392710917" y2="177" fill="rgb(0, 0, 0)" stroke="rgb(60, 60, 60)" stroke-width="1px" opacity="0.25"></line><line x1="150.9540544368429" y1="0" x2="150.9540544368429" y2="177" fill="rgb(0, 0, 0)" stroke="rgb(60, 60, 60)" stroke-width="1px" opacity="0.25"></line><line x1="180.13019494657664" y1="0" x2="180.13019494657664" y2="177" fill="rgb(0, 0, 0)" stroke="rgb(60, 60, 60)" stroke-width="1px" opacity="0.25"></line><line x1="209.3063354563103" y1="0" x2="209.3063354563103" y2="177" fill="rgb(0, 0, 0)" stroke="rgb(60, 60, 60)" stroke-width="1px" opacity="0.25"></line><line x1="238.48247596604403" y1="0" x2="238.48247596604403" y2="177" fill="rgb(0, 0, 0)" stroke="rgb(60, 60, 60)" stroke-width="1px" opacity="0.25"></line><line x1="267.65861647577776" y1="0" x2="267.65861647577776" y2="177" fill="rgb(0, 0, 0)" stroke="rgb(60, 60, 60)" stroke-width="1px" opacity="0.25"></line></g><g><line x1="0" y1="175.06789713633836" x2="275" y2="175.06789713633836" fill="rgb(0, 0, 0)" stroke="rgb(60, 60, 60)" stroke-width="1px" opacity="0.25"></line><line x1="0" y1="163.82178127268145" x2="275" y2="163.82178127268145" fill="rgb(0, 0, 0)" stroke="rgb(60, 60, 60)" stroke-width="1px" opacity="0.25"></line><line x1="0" y1="152.57566540902454" x2="275" y2="152.57566540902454" fill="rgb(0, 0, 0)" stroke="rgb(60, 60, 60)" stroke-width="1px" opacity="0.25"></line><line x1="0" y1="141.32954954536763" x2="275" y2="141.32954954536763" fill="rgb(0, 0, 0)" stroke="rgb(60, 60, 60)" stroke-width="1px" opacity="0.25"></line><line x1="0" y1="130.08343368171072" x2="275" y2="130.08343368171072" fill="rgb(0, 0, 0)" stroke="rgb(60, 60, 60)" stroke-width="1px" opacity="0.25"></line><line x1="0" y1="118.83731781805382" x2="275" y2="118.83731781805382" fill="rgb(0, 0, 0)" stroke="rgb(60, 60, 60)" stroke-width="1px" opacity="0.25"></line><line x1="0" y1="107.59120195439691" x2="275" y2="107.59120195439691" fill="rgb(0, 0, 0)" stroke="rgb(60, 60, 60)" stroke-width="1px" opacity="0.25"></line><line x1="0" y1="96.34508609074" x2="275" y2="96.34508609074" fill="rgb(0, 0, 0)" stroke="rgb(60, 60, 60)" stroke-width="1px" opacity="0.25"></line><line x1="0" y1="85.0989702270831" x2="275" y2="85.0989702270831" fill="rgb(0, 0, 0)" stroke="rgb(60, 60, 60)" stroke-width="1px" opacity="0.25"></line><line x1="0" y1="73.8528543634262" x2="275" y2="73.8528543634262" fill="rgb(0, 0, 0)" stroke="rgb(60, 60, 60)" stroke-width="1px" opacity="0.25"></line><line x1="0" y1="62.60673849976928" x2="275" y2="62.60673849976928" fill="rgb(0, 0, 0)" stroke="rgb(60, 60, 60)" stroke-width="1px" opacity="0.25"></line><line x1="0" y1="51.36062263611238" x2="275" y2="51.36062263611238" fill="rgb(0, 0, 0)" stroke="rgb(60, 60, 60)" stroke-width="1px" opacity="0.25"></line><line x1="0" y1="40.114506772455485" x2="275" y2="40.114506772455485" fill="rgb(0, 0, 0)" stroke="rgb(60, 60, 60)" stroke-width="1px" opacity="0.25"></line><line x1="0" y1="28.868390908798574" x2="275" y2="28.868390908798574" fill="rgb(0, 0, 0)" stroke="rgb(60, 60, 60)" stroke-width="1px" opacity="0.25"></line><line x1="0" y1="17.622275045141663" x2="275" y2="17.622275045141663" fill="rgb(0, 0, 0)" stroke="rgb(60, 60, 60)" stroke-width="1px" opacity="0.25"></line><line x1="0" y1="6.376159181484752" x2="275" y2="6.376159181484752" fill="rgb(0, 0, 0)" stroke="rgb(60, 60, 60)" stroke-width="1px" opacity="0.25"></line></g></g></g><g><g><line x1="0" y1="152.57566540902454" x2="275" y2="152.57566540902454" fill="rgb(0, 0, 0)" stroke="rgb(153, 153, 153)" stroke-width="1.5px"></line></g></g><g><g><line x1="-53.27892913129315" y1="0" x2="-53.27892913129315" y2="177" fill="rgb(0, 0, 0)" stroke="rgb(153, 153, 153)" stroke-width="1.5px"></line></g></g><g><g><g><g><g><path stroke="rgb(0, 119, 187)" stroke-width="2px" d="M37.89650996162472,152.57566540902454L39.20943628456274,152.57566540902454L40.52236260750076,64.31731983569692L47.52463632983685,144.9898605435239L48.77921037175541,151.9233188074524L50.09213669469342,152.51956384251054L51.40506301763144,86.41918213218143L77.22594736874578,146.8862080281442L78.48052141066432,152.086372075607L79.79344773360235,152.53358618236052L81.10637405654037,152.5720465955315L82.41930037947839,152.57535419106415L83.73222670241641,152.57563864427993L85.04515302535441,152.5756631072565L86.35807934829243,152.57566521107248L87.67100567123045,152.57566539200067L91.98907446667104,152.57566540756048L94.61492711254708,152.57566540889863L97.24077975842312,152.5756654090137L99.86663240429915,152.5756654090236L102.49248505017518,152.57566540902445L105.11833769605123,152.57566540902454L107.74419034192726,152.57566540902454L110.37004298780329,152.57566540902454L112.99589563367932,152.57566540902454L115.62174827955536,152.57566540902454L121.69038550557997,152.57566540902454L124.316238151456,152.57566540902454L126.94209079733204,152.57566540902454L129.56794344320807,152.57566540902454L132.19379608908412,152.57566540902454L134.81964873496014,152.57566540902454L137.4455013808362,152.57566540902454L140.0713540267122,20.272352924411138L142.69720667258824,141.19758053534778L145.7607014261103,85.44549386758162L148.38655407198632,146.80247065646046L151.01240671786238,152.07917066030402L152.23780461927117,152.5329668606346L154.86365726514722,152.571993333863L157.48950991102325,152.57534961056064L160.11536255689927,152.57563825035663L162.74121520277532,20.272350588765676L165.36706784865135,127.96724932534639L182.75604759245266,106.35823746429041L185.38190023832868,148.60096660577742L188.0077528842047,152.2338413119453L190.19596342243474,126.08560651840395L192.82181606831077,150.29752034443118L195.44766871418682,152.3797449334695L198.07352136006287,152.55881624812682L200.6993740059389,152.57421638118734L201.95394804785744,152.57554079263053L204.57980069373346,152.57565469201467L207.2056533396095,152.57566448736168L209.83150598548556,152.57566532976153L212.4573586313616,152.5756654022079L215.0832112772376,152.5756654084383L217.70906392311363,152.57566540897412L220.33491656898968,152.5756654090202L222.9607692148657,152.57566540902417L225.58662186074176,152.5756654090245L228.2124745066178,152.57566540902454L230.8383271524938,152.57566540902454L232.09290119441238,152.57566540902454L234.7187538402884,152.57566540902454L237.34460648616445,152.57566540902454L239.9704591320405,152.57566540902454" style="fill: none;" fill="none"></path></g></g></g></g><g opacity="0.2"><g><g><g><path stroke="rgb(0, 119, 187)" stroke-width="2px" d="M37.89650996162472,152.57566540902454L39.20943628456274,152.57566540902454L40.52236260750076,56.07434339253044L47.52463632983685,152.57566540902454L48.77921037175541,152.57566540902454L50.09213669469342,152.57566540902454L51.40506301763144,80.19967389665398L77.22594736874578,152.57566540902454L78.48052141066432,152.57566540902454L79.79344773360235,152.57566540902454L81.10637405654037,152.57566540902454L82.41930037947839,152.57566540902454L83.73222670241641,152.57566540902454L85.04515302535441,152.57566540902454L86.35807934829243,152.57566540902454L87.67100567123045,152.57566540902454L91.98907446667104,152.57566540902454L94.61492711254708,152.57566540902454L97.24077975842312,152.57566540902454L99.86663240429915,152.57566540902454L102.49248505017518,152.57566540902454L105.11833769605123,152.57566540902454L107.74419034192726,152.57566540902454L110.37004298780329,152.57566540902454L112.99589563367932,152.57566540902454L115.62174827955536,152.57566540902454L121.69038550557997,152.57566540902454L124.316238151456,152.57566540902454L126.94209079733204,152.57566540902454L129.56794344320807,152.57566540902454L132.19379608908412,152.57566540902454L134.81964873496014,152.57566540902454L137.4455013808362,152.57566540902454L140.0713540267122,7.823682384283387L142.69720667258824,152.57566540902454L145.7607014261103,80.19967389665398L148.38655407198632,152.57566540902454L151.01240671786238,152.57566540902454L152.23780461927117,152.57566540902454L154.86365726514722,152.57566540902454L157.48950991102325,152.57566540902454L160.11536255689927,152.57566540902454L162.74121520277532,7.823682384283387L165.36706784865135,138.10046736839445L182.75604759245266,104.32500440077749L185.38190023832868,152.57566540902454L188.0077528842047,152.57566540902454L190.19596342243474,123.62526932776439L192.82181606831077,152.57566540902454L195.44766871418682,152.57566540902454L198.07352136006287,152.57566540902454L200.6993740059389,152.57566540902454L201.95394804785744,152.57566540902454L204.57980069373346,152.57566540902454L207.2056533396095,152.57566540902454L209.83150598548556,152.57566540902454L212.4573586313616,152.57566540902454L215.0832112772376,152.57566540902454L217.70906392311363,152.57566540902454L220.33491656898968,152.57566540902454L222.9607692148657,152.57566540902454L225.58662186074176,152.57566540902454L228.2124745066178,152.57566540902454L230.8383271524938,152.57566540902454L232.09290119441238,152.57566540902454L234.7187538402884,152.57566540902454L237.34460648616445,152.57566540902454L239.9704591320405,152.57566540902454" style="fill: none;" fill="none"></path></g></g></g></g></g></g><g transform="translate(55, 177)" clip-path="url(#clip_1)"><clipPath id="clip_1"><rect width="275" height="23"></rect></clipPath><g><g><line x1="5.07335188817429" y1="0" x2="5.07335188817429" y2="5" style="visibility: inherit;" fill="rgb(0, 0, 0)" stroke="rgb(204, 204, 204)" stroke-width="1px"></line><line x1="34.249492397908014" y1="0" x2="34.249492397908014" y2="5" style="visibility: inherit;" fill="rgb(0, 0, 0)" stroke="rgb(204, 204, 204)" stroke-width="1px"></line><line x1="63.425632907641734" y1="0" x2="63.425632907641734" y2="5" style="visibility: inherit;" fill="rgb(0, 0, 0)" stroke="rgb(204, 204, 204)" stroke-width="1px"></line><line x1="92.60177341737545" y1="0" x2="92.60177341737545" y2="5" style="visibility: inherit;" fill="rgb(0, 0, 0)" stroke="rgb(204, 204, 204)" stroke-width="1px"></line><line x1="121.77791392710917" y1="0" x2="121.77791392710917" y2="5" style="visibility: inherit;" fill="rgb(0, 0, 0)" stroke="rgb(204, 204, 204)" stroke-width="1px"></line><line x1="150.9540544368429" y1="0" x2="150.9540544368429" y2="5" style="visibility: inherit;" fill="rgb(0, 0, 0)" stroke="rgb(204, 204, 204)" stroke-width="1px"></line><line x1="180.13019494657664" y1="0" x2="180.13019494657664" y2="5" style="visibility: inherit;" fill="rgb(0, 0, 0)" stroke="rgb(204, 204, 204)" stroke-width="1px"></line><line x1="209.3063354563103" y1="0" x2="209.3063354563103" y2="5" style="visibility: inherit;" fill="rgb(0, 0, 0)" stroke="rgb(204, 204, 204)" stroke-width="1px"></line><line x1="238.48247596604403" y1="0" x2="238.48247596604403" y2="5" style="visibility: inherit;" fill="rgb(0, 0, 0)" stroke="rgb(204, 204, 204)" stroke-width="1px"></line><line x1="267.65861647577776" y1="0" x2="267.65861647577776" y2="5" style="visibility: inherit;" fill="rgb(0, 0, 0)" stroke="rgb(204, 204, 204)" stroke-width="1px"></line></g><g transform="translate(0, 8)"><text x="5.07335188817429" y="0" dx="0em" dy="0.95em" style="text-anchor: middle; visibility: hidden; font-family: &quot;Helvetica Neue&quot;, sans-serif; font-size: 12px; font-weight: 200;" fill="rgb(50, 49, 63)" stroke="none" stroke-width="1px">200k</text><text x="34.249492397908014" y="0" dx="0em" dy="0.95em" style="text-anchor: middle; visibility: inherit; font-family: &quot;Helvetica Neue&quot;, sans-serif; font-size: 12px; font-weight: 200;" fill="rgb(50, 49, 63)" stroke="none" stroke-width="1px">300k</text><text x="63.425632907641734" y="0" dx="0em" dy="0.95em" style="text-anchor: middle; visibility: hidden; font-family: &quot;Helvetica Neue&quot;, sans-serif; font-size: 12px; font-weight: 200;" fill="rgb(50, 49, 63)" stroke="none" stroke-width="1px">400k</text><text x="92.60177341737545" y="0" dx="0em" dy="0.95em" style="text-anchor: middle; visibility: inherit; font-family: &quot;Helvetica Neue&quot;, sans-serif; font-size: 12px; font-weight: 200;" fill="rgb(50, 49, 63)" stroke="none" stroke-width="1px">500k</text><text x="121.77791392710917" y="0" dx="0em" dy="0.95em" style="text-anchor: middle; visibility: hidden; font-family: &quot;Helvetica Neue&quot;, sans-serif; font-size: 12px; font-weight: 200;" fill="rgb(50, 49, 63)" stroke="none" stroke-width="1px">600k</text><text x="150.9540544368429" y="0" dx="0em" dy="0.95em" style="text-anchor: middle; visibility: inherit; font-family: &quot;Helvetica Neue&quot;, sans-serif; font-size: 12px; font-weight: 200;" fill="rgb(50, 49, 63)" stroke="none" stroke-width="1px">700k</text><text x="180.13019494657664" y="0" dx="0em" dy="0.95em" style="text-anchor: middle; visibility: hidden; font-family: &quot;Helvetica Neue&quot;, sans-serif; font-size: 12px; font-weight: 200;" fill="rgb(50, 49, 63)" stroke="none" stroke-width="1px">800k</text><text x="209.3063354563103" y="0" dx="0em" dy="0.95em" style="text-anchor: middle; visibility: inherit; font-family: &quot;Helvetica Neue&quot;, sans-serif; font-size: 12px; font-weight: 200;" fill="rgb(50, 49, 63)" stroke="none" stroke-width="1px">900k</text><text x="238.48247596604403" y="0" dx="0em" dy="0.95em" style="text-anchor: middle; visibility: hidden; font-family: &quot;Helvetica Neue&quot;, sans-serif; font-size: 12px; font-weight: 200;" fill="rgb(50, 49, 63)" stroke="none" stroke-width="1px">1M</text><text x="267.65861647577776" y="0" dx="0em" dy="0.95em" style="text-anchor: middle; visibility: hidden; font-family: &quot;Helvetica Neue&quot;, sans-serif; font-size: 12px; font-weight: 200;" fill="rgb(50, 49, 63)" stroke="none" stroke-width="1px">1.1M</text></g><line x1="0" y1="0" x2="275" y2="0" fill="rgb(0, 0, 0)" stroke="rgb(204, 204, 204)" stroke-width="1px"></line></g></g></g></g></svg>