<svg viewBox="0 0 330 200" xmlns="http://www.w3.org/2000/svg"><g><g><g><g><g><line x1="46" y1="174.816395813743" x2="41" y2="174.816395813743" style="visibility: inherit;" fill="rgb(0, 0, 0)" stroke="rgb(204, 204, 204)" stroke-width="1px"></line><line x1="46" y1="160.53561376465484" x2="41" y2="160.53561376465484" style="visibility: inherit;" fill="rgb(0, 0, 0)" stroke="rgb(204, 204, 204)" stroke-width="1px"></line><line x1="46" y1="146.25483171556672" x2="41" y2="146.25483171556672" style="visibility: inherit;" fill="rgb(0, 0, 0)" stroke="rgb(204, 204, 204)" stroke-width="1px"></line><line x1="46" y1="131.9740496664786" x2="41" y2="131.9740496664786" style="visibility: inherit;" fill="rgb(0, 0, 0)" stroke="rgb(204, 204, 204)" stroke-width="1px"></line><line x1="46" y1="117.69326761739043" x2="41" y2="117.69326761739043" style="visibility: inherit;" fill="rgb(0, 0, 0)" stroke="rgb(204, 204, 204)" stroke-width="1px"></line><line x1="46" y1="103.4124855683023" x2="41" y2="103.4124855683023" style="visibility: inherit;" fill="rgb(0, 0, 0)" stroke="rgb(204, 204, 204)" stroke-width="1px"></line><line x1="46" y1="89.13170351921418" x2="41" y2="89.13170351921418" style="visibility: inherit;" fill="rgb(0, 0, 0)" stroke="rgb(204, 204, 204)" stroke-width="1px"></line><line x1="46" y1="74.85092147012602" x2="41" y2="74.85092147012602" style="visibility: inherit;" fill="rgb(0, 0, 0)" stroke="rgb(204, 204, 204)" stroke-width="1px"></line><line x1="46" y1="60.570139421037894" x2="41" y2="60.570139421037894" style="visibility: inherit;" fill="rgb(0, 0, 0)" stroke="rgb(204, 204, 204)" stroke-width="1px"></line><line x1="46" y1="46.28935737194979" x2="41" y2="46.28935737194979" style="visibility: inherit;" fill="rgb(0, 0, 0)" stroke="rgb(204, 204, 204)" stroke-width="1px"></line><line x1="46" y1="32.008575322861645" x2="41" y2="32.008575322861645" style="visibility: inherit;" fill="rgb(0, 0, 0)" stroke="rgb(204, 204, 204)" stroke-width="1px"></line><line x1="46" y1="17.72779327377347" x2="41" y2="17.72779327377347" style="visibility: inherit;" fill="rgb(0, 0, 0)" stroke="rgb(204, 204, 204)" stroke-width="1px"></line><line x1="46" y1="3.447011224685383" x2="41" y2="3.447011224685383" style="visibility: inherit;" fill="rgb(0, 0, 0)" stroke="rgb(204, 204, 204)" stroke-width="1px"></line></g><g transform="translate(36, 0)"><text x="0" y="174.816395813743" dx="0em" dy="0.3em" style="text-anchor: end; visibility: hidden; font-family: &quot;Helvetica Neue&quot;, sans-serif; font-size: 12px; font-weight: 200;" fill="rgb(50, 49, 63)" stroke="none" stroke-width="1px">0.06</text><text x="0" y="160.53561376465484" dx="0em" dy="0.3em" style="text-anchor: end; visibility: inherit; font-family: &quot;Helvetica Neue&quot;, sans-serif; font-size: 12px; font-weight: 200;" fill="rgb(50, 49, 63)" stroke="none" stroke-width="1px">0.07</text><text x="0" y="146.25483171556672" dx="0em" dy="0.3em" style="text-anchor: end; visibility: hidden; font-family: &quot;Helvetica Neue&quot;, sans-serif; font-size: 12px; font-weight: 200;" fill="rgb(50, 49, 63)" stroke="none" stroke-width="1px">0.08</text><text x="0" y="131.9740496664786" dx="0em" dy="0.3em" style="text-anchor: end; visibility: inherit; font-family: &quot;Helvetica Neue&quot;, sans-serif; font-size: 12px; font-weight: 200;" fill="rgb(50, 49, 63)" stroke="none" stroke-width="1px">0.09</text><text x="0" y="117.69326761739043" dx="0em" dy="0.3em" style="text-anchor: end; visibility: hidden; font-family: &quot;Helvetica Neue&quot;, sans-serif; font-size: 12px; font-weight: 200;" fill="rgb(50, 49, 63)" stroke="none" stroke-width="1px">0.1</text><text x="0" y="103.4124855683023" dx="0em" dy="0.3em" style="text-anchor: end; visibility: inherit; font-family: &quot;Helvetica Neue&quot;, sans-serif; font-size: 12px; font-weight: 200;" fill="rgb(50, 49, 63)" stroke="none" stroke-width="1px">0.11</text><text x="0" y="89.13170351921418" dx="0em" dy="0.3em" style="text-anchor: end; visibility: hidden; font-family: &quot;Helvetica Neue&quot;, sans-serif; font-size: 12px; font-weight: 200;" fill="rgb(50, 49, 63)" stroke="none" stroke-width="1px">0.12</text><text x="0" y="74.85092147012602" dx="0em" dy="0.3em" style="text-anchor: end; visibility: inherit; font-family: &quot;Helvetica Neue&quot;, sans-serif; font-size: 12px; font-weight: 200;" fill="rgb(50, 49, 63)" stroke="none" stroke-width="1px">0.13</text><text x="0" y="60.570139421037894" dx="0em" dy="0.3em" style="text-anchor: end; visibility: hidden; font-family: &quot;Helvetica Neue&quot;, sans-serif; font-size: 12px; font-weight: 200;" fill="rgb(50, 49, 63)" stroke="none" stroke-width="1px">0.14</text><text x="0" y="46.28935737194979" dx="0em" dy="0.3em" style="text-anchor: end; visibility: inherit; font-family: &quot;Helvetica Neue&quot;, sans-serif; font-size: 12px; font-weight: 200;" fill="rgb(50, 49, 63)" stroke="none" stroke-width="1px">0.15</text><text x="0" y="32.008575322861645" dx="0em" dy="0.3em" style="text-anchor: end; visibility: hidden; font-family: &quot;Helvetica Neue&quot;, sans-serif; font-size: 12px; font-weight: 200;" fill="rgb(50, 49, 63)" stroke="none" stroke-width="1px">0.16</text><text x="0" y="17.72779327377347" dx="0em" dy="0.3em" style="text-anchor: end; visibility: inherit; font-family: &quot;Helvetica Neue&quot;, sans-serif; font-size: 12px; font-weight: 200;" fill="rgb(50, 49, 63)" stroke="none" stroke-width="1px">0.17</text><text x="0" y="3.447011224685383" dx="0em" dy="0.3em" style="text-anchor: end; visibility: hidden; font-family: &quot;Helvetica Neue&quot;, sans-serif; font-size: 12px; font-weight: 200;" fill="rgb(50, 49, 63)" stroke="none" stroke-width="1px">0.18</text></g><line x1="46" y1="0" x2="46" y2="177" fill="rgb(0, 0, 0)" stroke="rgb(204, 204, 204)" stroke-width="1px"></line></g></g><g transform="translate(46, 0)" clip-path="url(#clip_0)"><clipPath id="clip_0"><rect width="284" height="177"></rect></clipPath><g><g><g><line x1="26.3962681749786" y1="0" x2="26.3962681749786" y2="177" fill="rgb(0, 0, 0)" stroke="rgb(60, 60, 60)" stroke-width="1px" opacity="0.25"></line><line x1="54.37012521623489" y1="0" x2="54.37012521623489" y2="177" fill="rgb(0, 0, 0)" stroke="rgb(60, 60, 60)" stroke-width="1px" opacity="0.25"></line><line x1="82.34398225749118" y1="0" x2="82.34398225749118" y2="177" fill="rgb(0, 0, 0)" stroke="rgb(60, 60, 60)" stroke-width="1px" opacity="0.25"></line><line x1="110.31783929874746" y1="0" x2="110.31783929874746" y2="177" fill="rgb(0, 0, 0)" stroke="rgb(60, 60, 60)" stroke-width="1px" opacity="0.25"></line><line x1="138.29169634000377" y1="0" x2="138.29169634000377" y2="177" fill="rgb(0, 0, 0)" stroke="rgb(60, 60, 60)" stroke-width="1px" opacity="0.25"></line><line x1="166.26555338126008" y1="0" x2="166.26555338126008" y2="177" fill="rgb(0, 0, 0)" stroke="rgb(60, 60, 60)" stroke-width="1px" opacity="0.25"></line><line x1="194.23941042251633" y1="0" x2="194.23941042251633" y2="177" fill="rgb(0, 0, 0)" stroke="rgb(60, 60, 60)" stroke-width="1px" opacity="0.25"></line><line x1="222.21326746377264" y1="0" x2="222.21326746377264" y2="177" fill="rgb(0, 0, 0)" stroke="rgb(60, 60, 60)" stroke-width="1px" opacity="0.25"></line><line x1="250.18712450502892" y1="0" x2="250.18712450502892" y2="177" fill="rgb(0, 0, 0)" stroke="rgb(60, 60, 60)" stroke-width="1px" opacity="0.25"></line><line x1="278.1609815462852" y1="0" x2="278.1609815462852" y2="177" fill="rgb(0, 0, 0)" stroke="rgb(60, 60, 60)" stroke-width="1px" opacity="0.25"></line></g><g><line x1="0" y1="174.816395813743" x2="284" y2="174.816395813743" fill="rgb(0, 0, 0)" stroke="rgb(60, 60, 60)" stroke-width="1px" opacity="0.25"></line><line x1="0" y1="160.53561376465484" x2="284" y2="160.53561376465484" fill="rgb(0, 0, 0)" stroke="rgb(60, 60, 60)" stroke-width="1px" opacity="0.25"></line><line x1="0" y1="146.25483171556672" x2="284" y2="146.25483171556672" fill="rgb(0, 0, 0)" stroke="rgb(60, 60, 60)" stroke-width="1px" opacity="0.25"></line><line x1="0" y1="131.9740496664786" x2="284" y2="131.9740496664786" fill="rgb(0, 0, 0)" stroke="rgb(60, 60, 60)" stroke-width="1px" opacity="0.25"></line><line x1="0" y1="117.69326761739043" x2="284" y2="117.69326761739043" fill="rgb(0, 0, 0)" stroke="rgb(60, 60, 60)" stroke-width="1px" opacity="0.25"></line><line x1="0" y1="103.4124855683023" x2="284" y2="103.4124855683023" fill="rgb(0, 0, 0)" stroke="rgb(60, 60, 60)" stroke-width="1px" opacity="0.25"></line><line x1="0" y1="89.13170351921418" x2="284" y2="89.13170351921418" fill="rgb(0, 0, 0)" stroke="rgb(60, 60, 60)" stroke-width="1px" opacity="0.25"></line><line x1="0" y1="74.85092147012602" x2="284" y2="74.85092147012602" fill="rgb(0, 0, 0)" stroke="rgb(60, 60, 60)" stroke-width="1px" opacity="0.25"></line><line x1="0" y1="60.570139421037894" x2="284" y2="60.570139421037894" fill="rgb(0, 0, 0)" stroke="rgb(60, 60, 60)" stroke-width="1px" opacity="0.25"></line><line x1="0" y1="46.28935737194979" x2="284" y2="46.28935737194979" fill="rgb(0, 0, 0)" stroke="rgb(60, 60, 60)" stroke-width="1px" opacity="0.25"></line><line x1="0" y1="32.008575322861645" x2="284" y2="32.008575322861645" fill="rgb(0, 0, 0)" stroke="rgb(60, 60, 60)" stroke-width="1px" opacity="0.25"></line><line x1="0" y1="17.72779327377347" x2="284" y2="17.72779327377347" fill="rgb(0, 0, 0)" stroke="rgb(60, 60, 60)" stroke-width="1px" opacity="0.25"></line><line x1="0" y1="3.447011224685383" x2="284" y2="3.447011224685383" fill="rgb(0, 0, 0)" stroke="rgb(60, 60, 60)" stroke-width="1px" opacity="0.25"></line></g></g></g><g><g><line x1="0" y1="260.5010881082718" x2="284" y2="260.5010881082718" fill="rgb(0, 0, 0)" stroke="rgb(153, 153, 153)" stroke-width="1.5px"></line></g></g><g><g><line x1="-57.52530294879027" y1="0" x2="-57.52530294879027" y2="177" fill="rgb(0, 0, 0)" stroke="rgb(153, 153, 153)" stroke-width="1.5px"></line></g></g><g><g><g><g><g><path stroke="rgb(0, 119, 187)" stroke-width="2px" d="M29.893000305135637,63.00091309748095L31.151823871992168,85.38370624334142L32.4106474388487,71.86012157046464L39.124373128750214,84.5921715385172L40.32724898152423,81.52068681137402L41.58607254838076,60.427874981636066L42.8448961152373,46.11669138453445L67.60175959674912,125.42346039289546L68.80463544952313,87.80934226512791L70.06345901637967,69.30016812726808L71.3222825832362,91.31420910853397L72.58110615009274,75.15590647187447L73.83992971694927,70.98913254729109L75.0987532838058,177.55130990676648L76.35757685066234,149.2240471637862L77.61640041751888,150.953632689669L81.7565312596248,124.71939691536211L84.27417839333786,119.68609274093849L86.79182552705092,108.14459871557582L89.30947266076399,105.76346000544876L91.82711979447706,112.50157209599021L94.34476692819013,99.19526969655205L96.86241406190318,88.33087777275473L99.38006119561626,81.84222999661245L101.89770832932933,81.28420628786418L104.4153554630424,79.84762657502449L110.23391772762369,81.11267039360764L112.75156486133676,102.05013422084288L115.26921199504983,64.97055644020267L117.7868591287629,60.39314252712177L120.30450626247595,58.61091470665093L122.82215339618902,34.85181315742014L125.33980052990209,71.68871064402717L127.85744766361516,26.25645369058887L130.37509479732825,69.5609395059338L133.31234978666015,45.513565207604046L135.82999692037322,17.062501163444125L138.3476440540863,57.66161999726637L139.52254604981906,29.21585401674656L142.0401931835321,33.712408162034166L144.55784031724517,61.87067189697839L147.07548745095824,42.075042295400635L149.5931345846713,80.64137831842251L152.11078171838437,75.62661324787338L168.78320051497312,41.869463577690254L171.3008476486862,47.29782839955422L173.81849478239926,67.2047676091257L175.9165340604935,66.13960448331562L178.43418119420656,60.49368065882952L180.9518283279196,66.95102122953602L183.46947546163267,48.066252683725565L185.98712259534574,47.83075226267326L187.18999844811975,68.63916928529983L189.70764558183282,67.65153325141246L192.2252927155459,38.40646625010288L194.74293984925896,58.10863077077319L197.26058698297203,32.0314568411014L199.77823411668507,56.17180973765319L202.29588125039814,84.63086021628943L204.8135283841112,41.25525859302812L207.33117551782428,55.5764670144315L209.84882265153735,27.647960636276878L212.36646978525042,28.023249535647352L214.88411691896349,30.832684278826463L216.08699277173753,31.074295666739857L218.6046399054506,40.81512416354599L221.12228703916364,47.20715520993781L223.6399341728767,36.64824973853604" style="fill: none;" fill="none"></path></g></g></g></g><g opacity="0.2"><g><g><g><path stroke="rgb(0, 119, 187)" stroke-width="2px" d="M29.893000305135637,63.00091309748095L31.151823871992168,87.30862645388544L32.4106474388487,70.5970728563566L39.124373128750214,85.78939237410795L40.32724898152423,81.23170077478726L41.58607254838076,58.443221498160256L42.8448961152373,44.77012542017462L67.60175959674912,132.88558500713944L68.80463544952313,84.27015829433044L70.06345901637967,67.55860469680164L71.3222825832362,93.3855521329836L72.58110615009274,73.63554101591158L73.83992971694927,70.5970728563566L75.0987532838058,187.57794803905836L76.35757685066234,146.55868108512504L77.61640041751888,151.11637268444574L81.7565312596248,122.25096772872055L84.27417839333786,119.21249956916559L86.79182552705092,107.05863757095746L89.30947266076399,105.53941413119173L91.82711979447706,113.1355738900674L94.34476692819013,97.94325437231606L96.86241406190318,87.30862645388544L99.38006119561626,81.23170077478726L101.89770832932933,81.23170077478726L104.4153554630424,79.712456054998L110.23391772762369,81.23170077478726L112.75156486133676,104.02018005141424L115.26921199504983,61.48166837769169L117.7868591287629,59.96244493792598L120.30450626247595,58.443221498160256L122.82215339618902,32.61627406197826L125.33980052990209,75.15476445567731L127.85744766361516,21.981646143547636L130.37509479732825,73.63554101591158L133.31234978666015,43.25090198040891L135.82999692037322,14.385486384671992L138.3476440540863,61.48166837769169L139.52254604981906,26.539337742868327L142.0401931835321,34.135497501744L144.55784031724517,64.52013653724667L147.07548745095824,40.21243382085393L149.5931345846713,84.27015829433044L152.11078171838437,75.15476445567731L168.78320051497312,38.69318910106469L171.3008476486862,47.8085935797296L173.81849478239926,69.07784941659088L175.9165340604935,66.03938125703591L178.43418119420656,59.96244493792598L180.9518283279196,67.55860469680164L183.46947546163267,46.28934885994036L185.98712259534574,47.8085935797296L187.18999844811975,70.5970728563566L189.70764558183282,67.55860469680164L192.2252927155459,35.65474222153327L194.74293984925896,59.96244493792598L197.26058698297203,29.577805902423307L199.77823411668507,58.443221498160256L202.29588125039814,87.30862645388544L204.8135283841112,37.17396566129898L207.33117551782428,56.923976778371L209.84882265153735,25.020114303102616L212.36646978525042,28.058561182634037L214.88411691896349,31.097029342189018L216.08699277173753,31.097029342189018L218.6046399054506,41.73165726061967L221.12228703916364,47.8085935797296L223.6399341728767,35.65474222153327" style="fill: none;" fill="none"></path></g></g></g></g></g></g><g transform="translate(46, 177)" clip-path="url(#clip_1)"><clipPath id="clip_1"><rect width="284" height="23"></rect></clipPath><g><g><line x1="26.3962681749786" y1="0" x2="26.3962681749786" y2="5" style="visibility: inherit;" fill="rgb(0, 0, 0)" stroke="rgb(204, 204, 204)" stroke-width="1px"></line><line x1="54.37012521623489" y1="0" x2="54.37012521623489" y2="5" style="visibility: inherit;" fill="rgb(0, 0, 0)" stroke="rgb(204, 204, 204)" stroke-width="1px"></line><line x1="82.34398225749118" y1="0" x2="82.34398225749118" y2="5" style="visibility: inherit;" fill="rgb(0, 0, 0)" stroke="rgb(204, 204, 204)" stroke-width="1px"></line><line x1="110.31783929874746" y1="0" x2="110.31783929874746" y2="5" style="visibility: inherit;" fill="rgb(0, 0, 0)" stroke="rgb(204, 204, 204)" stroke-width="1px"></line><line x1="138.29169634000377" y1="0" x2="138.29169634000377" y2="5" style="visibility: inherit;" fill="rgb(0, 0, 0)" stroke="rgb(204, 204, 204)" stroke-width="1px"></line><line x1="166.26555338126008" y1="0" x2="166.26555338126008" y2="5" style="visibility: inherit;" fill="rgb(0, 0, 0)" stroke="rgb(204, 204, 204)" stroke-width="1px"></line><line x1="194.23941042251633" y1="0" x2="194.23941042251633" y2="5" style="visibility: inherit;" fill="rgb(0, 0, 0)" stroke="rgb(204, 204, 204)" stroke-width="1px"></line><line x1="222.21326746377264" y1="0" x2="222.21326746377264" y2="5" style="visibility: inherit;" fill="rgb(0, 0, 0)" stroke="rgb(204, 204, 204)" stroke-width="1px"></line><line x1="250.18712450502892" y1="0" x2="250.18712450502892" y2="5" style="visibility: inherit;" fill="rgb(0, 0, 0)" stroke="rgb(204, 204, 204)" stroke-width="1px"></line><line x1="278.1609815462852" y1="0" x2="278.1609815462852" y2="5" style="visibility: inherit;" fill="rgb(0, 0, 0)" stroke="rgb(204, 204, 204)" stroke-width="1px"></line></g><g transform="translate(0, 8)"><text x="26.3962681749786" y="0" dx="0em" dy="0.95em" style="text-anchor: middle; visibility: inherit; font-family: &quot;Helvetica Neue&quot;, sans-serif; font-size: 12px; font-weight: 200;" fill="rgb(50, 49, 63)" stroke="none" stroke-width="1px">300k</text><text x="54.37012521623489" y="0" dx="0em" dy="0.95em" style="text-anchor: middle; visibility: hidden; font-family: &quot;Helvetica Neue&quot;, sans-serif; font-size: 12px; font-weight: 200;" fill="rgb(50, 49, 63)" stroke="none" stroke-width="1px">400k</text><text x="82.34398225749118" y="0" dx="0em" dy="0.95em" style="text-anchor: middle; visibility: inherit; font-family: &quot;Helvetica Neue&quot;, sans-serif; font-size: 12px; font-weight: 200;" fill="rgb(50, 49, 63)" stroke="none" stroke-width="1px">500k</text><text x="110.31783929874746" y="0" dx="0em" dy="0.95em" style="text-anchor: middle; visibility: hidden; font-family: &quot;Helvetica Neue&quot;, sans-serif; font-size: 12px; font-weight: 200;" fill="rgb(50, 49, 63)" stroke="none" stroke-width="1px">600k</text><text x="138.29169634000377" y="0" dx="0em" dy="0.95em" style="text-anchor: middle; visibility: inherit; font-family: &quot;Helvetica Neue&quot;, sans-serif; font-size: 12px; font-weight: 200;" fill="rgb(50, 49, 63)" stroke="none" stroke-width="1px">700k</text><text x="166.26555338126008" y="0" dx="0em" dy="0.95em" style="text-anchor: middle; visibility: hidden; font-family: &quot;Helvetica Neue&quot;, sans-serif; font-size: 12px; font-weight: 200;" fill="rgb(50, 49, 63)" stroke="none" stroke-width="1px">800k</text><text x="194.23941042251633" y="0" dx="0em" dy="0.95em" style="text-anchor: middle; visibility: inherit; font-family: &quot;Helvetica Neue&quot;, sans-serif; font-size: 12px; font-weight: 200;" fill="rgb(50, 49, 63)" stroke="none" stroke-width="1px">900k</text><text x="222.21326746377264" y="0" dx="0em" dy="0.95em" style="text-anchor: middle; visibility: hidden; font-family: &quot;Helvetica Neue&quot;, sans-serif; font-size: 12px; font-weight: 200;" fill="rgb(50, 49, 63)" stroke="none" stroke-width="1px">1M</text><text x="250.18712450502892" y="0" dx="0em" dy="0.95em" style="text-anchor: middle; visibility: inherit; font-family: &quot;Helvetica Neue&quot;, sans-serif; font-size: 12px; font-weight: 200;" fill="rgb(50, 49, 63)" stroke="none" stroke-width="1px">1.1M</text><text x="278.1609815462852" y="0" dx="0em" dy="0.95em" style="text-anchor: middle; visibility: hidden; font-family: &quot;Helvetica Neue&quot;, sans-serif; font-size: 12px; font-weight: 200;" fill="rgb(50, 49, 63)" stroke="none" stroke-width="1px">1.2M</text></g><line x1="0" y1="0" x2="284" y2="0" fill="rgb(0, 0, 0)" stroke="rgb(204, 204, 204)" stroke-width="1px"></line></g></g></g></g></svg>