<svg viewBox="0 0 330 200" xmlns="http://www.w3.org/2000/svg"><g><g><g><g><g><line x1="46" y1="169.288328901907" x2="41" y2="169.288328901907" style="visibility: inherit;" fill="rgb(0, 0, 0)" stroke="rgb(204, 204, 204)" stroke-width="1px"></line><line x1="46" y1="147.70473659873102" x2="41" y2="147.70473659873102" style="visibility: inherit;" fill="rgb(0, 0, 0)" stroke="rgb(204, 204, 204)" stroke-width="1px"></line><line x1="46" y1="126.12114429555501" x2="41" y2="126.12114429555501" style="visibility: inherit;" fill="rgb(0, 0, 0)" stroke="rgb(204, 204, 204)" stroke-width="1px"></line><line x1="46" y1="104.53755199237902" x2="41" y2="104.53755199237902" style="visibility: inherit;" fill="rgb(0, 0, 0)" stroke="rgb(204, 204, 204)" stroke-width="1px"></line><line x1="46" y1="82.95395968920302" x2="41" y2="82.95395968920302" style="visibility: inherit;" fill="rgb(0, 0, 0)" stroke="rgb(204, 204, 204)" stroke-width="1px"></line><line x1="46" y1="61.37036738602704" x2="41" y2="61.37036738602704" style="visibility: inherit;" fill="rgb(0, 0, 0)" stroke="rgb(204, 204, 204)" stroke-width="1px"></line><line x1="46" y1="39.78677508285102" x2="41" y2="39.78677508285102" style="visibility: inherit;" fill="rgb(0, 0, 0)" stroke="rgb(204, 204, 204)" stroke-width="1px"></line><line x1="46" y1="18.203182779675018" x2="41" y2="18.203182779675018" style="visibility: inherit;" fill="rgb(0, 0, 0)" stroke="rgb(204, 204, 204)" stroke-width="1px"></line></g><g transform="translate(36, 0)"><text x="0" y="169.288328901907" dx="0em" dy="0.3em" style="text-anchor: end; visibility: inherit; font-family: &quot;Helvetica Neue&quot;, sans-serif; font-size: 12px; font-weight: 200;" fill="rgb(50, 49, 63)" stroke="none" stroke-width="1px">0.02</text><text x="0" y="147.70473659873102" dx="0em" dy="0.3em" style="text-anchor: end; visibility: hidden; font-family: &quot;Helvetica Neue&quot;, sans-serif; font-size: 12px; font-weight: 200;" fill="rgb(50, 49, 63)" stroke="none" stroke-width="1px">0.04</text><text x="0" y="126.12114429555501" dx="0em" dy="0.3em" style="text-anchor: end; visibility: inherit; font-family: &quot;Helvetica Neue&quot;, sans-serif; font-size: 12px; font-weight: 200;" fill="rgb(50, 49, 63)" stroke="none" stroke-width="1px">0.06</text><text x="0" y="104.53755199237902" dx="0em" dy="0.3em" style="text-anchor: end; visibility: hidden; font-family: &quot;Helvetica Neue&quot;, sans-serif; font-size: 12px; font-weight: 200;" fill="rgb(50, 49, 63)" stroke="none" stroke-width="1px">0.08</text><text x="0" y="82.95395968920302" dx="0em" dy="0.3em" style="text-anchor: end; visibility: inherit; font-family: &quot;Helvetica Neue&quot;, sans-serif; font-size: 12px; font-weight: 200;" fill="rgb(50, 49, 63)" stroke="none" stroke-width="1px">0.1</text><text x="0" y="61.37036738602704" dx="0em" dy="0.3em" style="text-anchor: end; visibility: hidden; font-family: &quot;Helvetica Neue&quot;, sans-serif; font-size: 12px; font-weight: 200;" fill="rgb(50, 49, 63)" stroke="none" stroke-width="1px">0.12</text><text x="0" y="39.78677508285102" dx="0em" dy="0.3em" style="text-anchor: end; visibility: inherit; font-family: &quot;Helvetica Neue&quot;, sans-serif; font-size: 12px; font-weight: 200;" fill="rgb(50, 49, 63)" stroke="none" stroke-width="1px">0.14</text><text x="0" y="18.203182779675018" dx="0em" dy="0.3em" style="text-anchor: end; visibility: hidden; font-family: &quot;Helvetica Neue&quot;, sans-serif; font-size: 12px; font-weight: 200;" fill="rgb(50, 49, 63)" stroke="none" stroke-width="1px">0.16</text></g><line x1="46" y1="0" x2="46" y2="177" fill="rgb(0, 0, 0)" stroke="rgb(204, 204, 204)" stroke-width="1px"></line></g></g><g transform="translate(46, 0)" clip-path="url(#clip_0)"><clipPath id="clip_0"><rect width="284" height="177"></rect></clipPath><g><g><g><line x1="12.397602048201707" y1="0" x2="12.397602048201707" y2="177" fill="rgb(0, 0, 0)" stroke="rgb(60, 60, 60)" stroke-width="1px" opacity="0.25"></line><line x1="48.35957039027766" y1="0" x2="48.35957039027766" y2="177" fill="rgb(0, 0, 0)" stroke="rgb(60, 60, 60)" stroke-width="1px" opacity="0.25"></line><line x1="84.32153873235362" y1="0" x2="84.32153873235362" y2="177" fill="rgb(0, 0, 0)" stroke="rgb(60, 60, 60)" stroke-width="1px" opacity="0.25"></line><line x1="120.28350707442958" y1="0" x2="120.28350707442958" y2="177" fill="rgb(0, 0, 0)" stroke="rgb(60, 60, 60)" stroke-width="1px" opacity="0.25"></line><line x1="156.24547541650554" y1="0" x2="156.24547541650554" y2="177" fill="rgb(0, 0, 0)" stroke="rgb(60, 60, 60)" stroke-width="1px" opacity="0.25"></line><line x1="192.20744375858146" y1="0" x2="192.20744375858146" y2="177" fill="rgb(0, 0, 0)" stroke="rgb(60, 60, 60)" stroke-width="1px" opacity="0.25"></line><line x1="228.1694121006574" y1="0" x2="228.1694121006574" y2="177" fill="rgb(0, 0, 0)" stroke="rgb(60, 60, 60)" stroke-width="1px" opacity="0.25"></line><line x1="264.13138044273336" y1="0" x2="264.13138044273336" y2="177" fill="rgb(0, 0, 0)" stroke="rgb(60, 60, 60)" stroke-width="1px" opacity="0.25"></line></g><g><line x1="0" y1="169.288328901907" x2="284" y2="169.288328901907" fill="rgb(0, 0, 0)" stroke="rgb(60, 60, 60)" stroke-width="1px" opacity="0.25"></line><line x1="0" y1="147.70473659873102" x2="284" y2="147.70473659873102" fill="rgb(0, 0, 0)" stroke="rgb(60, 60, 60)" stroke-width="1px" opacity="0.25"></line><line x1="0" y1="126.12114429555501" x2="284" y2="126.12114429555501" fill="rgb(0, 0, 0)" stroke="rgb(60, 60, 60)" stroke-width="1px" opacity="0.25"></line><line x1="0" y1="104.53755199237902" x2="284" y2="104.53755199237902" fill="rgb(0, 0, 0)" stroke="rgb(60, 60, 60)" stroke-width="1px" opacity="0.25"></line><line x1="0" y1="82.95395968920302" x2="284" y2="82.95395968920302" fill="rgb(0, 0, 0)" stroke="rgb(60, 60, 60)" stroke-width="1px" opacity="0.25"></line><line x1="0" y1="61.37036738602704" x2="284" y2="61.37036738602704" fill="rgb(0, 0, 0)" stroke="rgb(60, 60, 60)" stroke-width="1px" opacity="0.25"></line><line x1="0" y1="39.78677508285102" x2="284" y2="39.78677508285102" fill="rgb(0, 0, 0)" stroke="rgb(60, 60, 60)" stroke-width="1px" opacity="0.25"></line><line x1="0" y1="18.203182779675018" x2="284" y2="18.203182779675018" fill="rgb(0, 0, 0)" stroke="rgb(60, 60, 60)" stroke-width="1px" opacity="0.25"></line></g></g></g><g><g><line x1="0" y1="190.871921205083" x2="284" y2="190.871921205083" fill="rgb(0, 0, 0)" stroke="rgb(153, 153, 153)" stroke-width="1.5px"></line></g></g><g><g><line x1="-95.48830297802616" y1="0" x2="-95.48830297802616" y2="177" fill="rgb(0, 0, 0)" stroke="rgb(153, 153, 153)" stroke-width="1.5px"></line></g></g><g><g><g><g><g><path stroke="rgb(0, 119, 187)" stroke-width="2px" d="M16.8928480909612,113.10460976912961L18.511136666354616,108.76151760905582L20.129425241748034,99.87547367891295L28.760297643846265,125.69532051827386L30.30666228255553,118.54225835093789L31.92495085794895,94.75612579764615L33.543239433342364,67.78629035575845L65.36958141607958,141.55958092636496L66.91594605478886,62.166395935735636L68.53423463018227,41.26377774583639L70.15252320557569,98.52945036757407L71.77081178096911,87.7355084544759L73.38910035636252,95.66184840353253L75.00738893175594,149.66529688190326L76.62567750714936,172.95466424308174L78.24396608254278,127.07934041867564L83.56633739717002,107.49400297439131L86.80291454795685,91.8833321154287L90.03949169874369,110.77165165225902L93.27606884953053,76.4003711185503L96.51264600031736,125.55191454017827L99.7492231511042,117.43086014169434L102.98580030189103,86.25180189777186L106.22237745267788,66.16761955085447L109.4589546034647,70.88983753730564L112.69553175425155,91.14084383241278L120.17562116940334,127.92231721064024L123.41219832019019,94.11994124279431L126.64877547097701,94.19723118941094L129.88535262176384,58.76855098370318L133.1219297725507,38.883042120537056L136.3585069233375,55.04450309297239L139.59508407412434,83.95638278959792L142.8316612249112,42.55114640237264L146.06823837569803,122.09739836668055L149.844245051616,55.52945115429239L153.08082220240286,46.610263426225714L156.31739935318967,52.82499796960113L157.82780202355687,40.73610904902449L161.06437917434369,35.412053347396295L164.30095632513056,104.77929962805027L167.53753347591737,63.89754761172166L170.7741106267042,86.5094161916563L174.01068777749103,131.90240876373718L195.4440209093683,101.10678884468784L198.68059806015512,111.6482363322525L201.917175210942,39.47834239731847L204.61432283659767,83.67170561310512L207.8508999873845,101.0562680113273L211.08747713817135,114.9877150874731L214.32405428895817,63.11800041259589L217.56063143974504,76.12615160952072L219.1069960784543,100.9738209821324L222.34357322924112,134.77970266097532L225.58015038002796,36.17353925733158L228.8167275308148,29.09620683249102L232.05330468160165,38.75256437385016L235.28988183238846,84.16224445122657L238.5264589831753,105.85069753445248L241.76303613396215,44.22510983704572L244.999613284749,85.75474960241954L248.2361904355358,2.880454636289926L251.47276758632265,13.148155748453519L254.7093447371095,38.25399391011078L256.25570937581875,88.50976636276583L259.4922865266056,59.033931916485756L262.72886367739244,109.07237181167012L265.9654408281792,86.57219094645357" style="fill: none;" fill="none"></path></g></g></g></g><g opacity="0.2"><g><g><g><path stroke="rgb(0, 119, 187)" stroke-width="2px" d="M16.8928480909612,113.10460976912961L18.511136666354616,108.38801168328948L20.129425241748034,99.04555272001335L28.760297643846265,128.12321380218407L30.30666228255553,117.86924993031002L31.92495085794895,92.5180538321175L33.543239433342364,65.24864822266575L65.36958141607958,148.50105003832257L66.91594605478886,54.69614003993249L68.53423463018227,39.297010608124396L70.15252320557569,103.91768652223539L71.77081178096911,86.71988591123227L73.38910035636252,96.40765281887035L75.00738893175594,154.7465841566733L76.62567750714936,175.14600515452742L78.24396608254278,122.76284386626982L83.56633739717002,105.65118128926171L86.80291454795685,90.41449437596394L90.03949169874369,112.54888959554943L93.27606884953053,73.16631189984248L96.51264600031736,130.1766768314912L99.7492231511042,116.666734673128L102.98580030189103,83.31810495140716L106.22237745267788,64.27786059917514L109.4589546034647,71.33416001743126L112.69553175425155,93.04629956696336L120.17562116940334,131.38315606242094L123.41219832019019,90.93941133772347L126.64877547097701,94.20450354762652L129.88535262176384,55.434999016864154L133.1219297725507,37.011976735162534L136.3585069233375,56.56516572276388L139.59508407412434,86.67675659037451L142.8316612249112,38.655248886725616L146.06823837569803,129.58205664778612L149.844245051616,49.26594627435216L153.08082220240286,45.771040073256614L156.31739935318967,53.409754173901234L157.82780202355687,39.598642476628896L161.06437917434369,34.91110281091923L164.30095632513056,111.30619588640502L167.53753347591737,60.05090573709994L170.7741106267042,88.63700995300682L174.01068777749103,136.17352185038814L195.4440209093683,98.20917034026964L198.68059806015512,112.64010119432095L201.917175210942,32.68773968571634L204.61432283659767,87.82994328986405L207.8508999873845,102.69201458271364L211.08747713817135,116.29855146444088L214.32405428895817,58.237480213428015L217.56063143974504,77.35011331951583L219.1069960784543,103.31178549640438L222.34357322924112,137.96056242506774L225.58015038002796,26.895497624165984L228.8167275308148,28.430287151379133L232.05330468160165,39.66114943791678L235.28988183238846,88.4349276970191L238.5264589831753,107.89140537379322L241.76303613396215,38.42664097273831L244.999613284749,89.66235246874574L248.2361904355358,-4.91734554651876L251.47276758632265,14.114263292924079L254.7093447371095,40.616250017225155L256.25570937581875,93.23842766575088L259.4922865266056,56.26049453970229L262.72886367739244,113.78058388058243L265.9654408281792,84.455106094803" style="fill: none;" fill="none"></path></g></g></g></g></g></g><g transform="translate(46, 177)" clip-path="url(#clip_1)"><clipPath id="clip_1"><rect width="284" height="23"></rect></clipPath><g><g><line x1="12.397602048201707" y1="0" x2="12.397602048201707" y2="5" style="visibility: inherit;" fill="rgb(0, 0, 0)" stroke="rgb(204, 204, 204)" stroke-width="1px"></line><line x1="48.35957039027766" y1="0" x2="48.35957039027766" y2="5" style="visibility: inherit;" fill="rgb(0, 0, 0)" stroke="rgb(204, 204, 204)" stroke-width="1px"></line><line x1="84.32153873235362" y1="0" x2="84.32153873235362" y2="5" style="visibility: inherit;" fill="rgb(0, 0, 0)" stroke="rgb(204, 204, 204)" stroke-width="1px"></line><line x1="120.28350707442958" y1="0" x2="120.28350707442958" y2="5" style="visibility: inherit;" fill="rgb(0, 0, 0)" stroke="rgb(204, 204, 204)" stroke-width="1px"></line><line x1="156.24547541650554" y1="0" x2="156.24547541650554" y2="5" style="visibility: inherit;" fill="rgb(0, 0, 0)" stroke="rgb(204, 204, 204)" stroke-width="1px"></line><line x1="192.20744375858146" y1="0" x2="192.20744375858146" y2="5" style="visibility: inherit;" fill="rgb(0, 0, 0)" stroke="rgb(204, 204, 204)" stroke-width="1px"></line><line x1="228.1694121006574" y1="0" x2="228.1694121006574" y2="5" style="visibility: inherit;" fill="rgb(0, 0, 0)" stroke="rgb(204, 204, 204)" stroke-width="1px"></line><line x1="264.13138044273336" y1="0" x2="264.13138044273336" y2="5" style="visibility: inherit;" fill="rgb(0, 0, 0)" stroke="rgb(204, 204, 204)" stroke-width="1px"></line></g><g transform="translate(0, 8)"><text x="12.397602048201707" y="0" dx="0em" dy="0.95em" style="text-anchor: middle; visibility: hidden; font-family: &quot;Helvetica Neue&quot;, sans-serif; font-size: 12px; font-weight: 200;" fill="rgb(50, 49, 63)" stroke="none" stroke-width="1px">300k</text><text x="48.35957039027766" y="0" dx="0em" dy="0.95em" style="text-anchor: middle; visibility: inherit; font-family: &quot;Helvetica Neue&quot;, sans-serif; font-size: 12px; font-weight: 200;" fill="rgb(50, 49, 63)" stroke="none" stroke-width="1px">400k</text><text x="84.32153873235362" y="0" dx="0em" dy="0.95em" style="text-anchor: middle; visibility: inherit; font-family: &quot;Helvetica Neue&quot;, sans-serif; font-size: 12px; font-weight: 200;" fill="rgb(50, 49, 63)" stroke="none" stroke-width="1px">500k</text><text x="120.28350707442958" y="0" dx="0em" dy="0.95em" style="text-anchor: middle; visibility: inherit; font-family: &quot;Helvetica Neue&quot;, sans-serif; font-size: 12px; font-weight: 200;" fill="rgb(50, 49, 63)" stroke="none" stroke-width="1px">600k</text><text x="156.24547541650554" y="0" dx="0em" dy="0.95em" style="text-anchor: middle; visibility: inherit; font-family: &quot;Helvetica Neue&quot;, sans-serif; font-size: 12px; font-weight: 200;" fill="rgb(50, 49, 63)" stroke="none" stroke-width="1px">700k</text><text x="192.20744375858146" y="0" dx="0em" dy="0.95em" style="text-anchor: middle; visibility: inherit; font-family: &quot;Helvetica Neue&quot;, sans-serif; font-size: 12px; font-weight: 200;" fill="rgb(50, 49, 63)" stroke="none" stroke-width="1px">800k</text><text x="228.1694121006574" y="0" dx="0em" dy="0.95em" style="text-anchor: middle; visibility: inherit; font-family: &quot;Helvetica Neue&quot;, sans-serif; font-size: 12px; font-weight: 200;" fill="rgb(50, 49, 63)" stroke="none" stroke-width="1px">900k</text><text x="264.13138044273336" y="0" dx="0em" dy="0.95em" style="text-anchor: middle; visibility: inherit; font-family: &quot;Helvetica Neue&quot;, sans-serif; font-size: 12px; font-weight: 200;" fill="rgb(50, 49, 63)" stroke="none" stroke-width="1px">1M</text></g><line x1="0" y1="0" x2="284" y2="0" fill="rgb(0, 0, 0)" stroke="rgb(204, 204, 204)" stroke-width="1px"></line></g></g></g></g></svg>