<svg viewBox="0 0 330 200" xmlns="http://www.w3.org/2000/svg"><g><g><g><g><g><line x1="46" y1="167.292625188068" x2="41" y2="167.292625188068" style="visibility: inherit;" fill="rgb(0, 0, 0)" stroke="rgb(204, 204, 204)" stroke-width="1px"></line><line x1="46" y1="154.51217598586356" x2="41" y2="154.51217598586356" style="visibility: inherit;" fill="rgb(0, 0, 0)" stroke="rgb(204, 204, 204)" stroke-width="1px"></line><line x1="46" y1="141.73172678365913" x2="41" y2="141.73172678365913" style="visibility: inherit;" fill="rgb(0, 0, 0)" stroke="rgb(204, 204, 204)" stroke-width="1px"></line><line x1="46" y1="128.95127758145472" x2="41" y2="128.95127758145472" style="visibility: inherit;" fill="rgb(0, 0, 0)" stroke="rgb(204, 204, 204)" stroke-width="1px"></line><line x1="46" y1="116.17082837925027" x2="41" y2="116.17082837925027" style="visibility: inherit;" fill="rgb(0, 0, 0)" stroke="rgb(204, 204, 204)" stroke-width="1px"></line><line x1="46" y1="103.39037917704584" x2="41" y2="103.39037917704584" style="visibility: inherit;" fill="rgb(0, 0, 0)" stroke="rgb(204, 204, 204)" stroke-width="1px"></line><line x1="46" y1="90.6099299748414" x2="41" y2="90.6099299748414" style="visibility: inherit;" fill="rgb(0, 0, 0)" stroke="rgb(204, 204, 204)" stroke-width="1px"></line><line x1="46" y1="77.82948077263697" x2="41" y2="77.82948077263697" style="visibility: inherit;" fill="rgb(0, 0, 0)" stroke="rgb(204, 204, 204)" stroke-width="1px"></line><line x1="46" y1="65.0490315704325" x2="41" y2="65.0490315704325" style="visibility: inherit;" fill="rgb(0, 0, 0)" stroke="rgb(204, 204, 204)" stroke-width="1px"></line><line x1="46" y1="52.26858236822811" x2="41" y2="52.26858236822811" style="visibility: inherit;" fill="rgb(0, 0, 0)" stroke="rgb(204, 204, 204)" stroke-width="1px"></line><line x1="46" y1="39.48813316602366" x2="41" y2="39.48813316602366" style="visibility: inherit;" fill="rgb(0, 0, 0)" stroke="rgb(204, 204, 204)" stroke-width="1px"></line><line x1="46" y1="26.70768396381922" x2="41" y2="26.70768396381922" style="visibility: inherit;" fill="rgb(0, 0, 0)" stroke="rgb(204, 204, 204)" stroke-width="1px"></line><line x1="46" y1="13.927234761614812" x2="41" y2="13.927234761614812" style="visibility: inherit;" fill="rgb(0, 0, 0)" stroke="rgb(204, 204, 204)" stroke-width="1px"></line><line x1="46" y1="1.1467855594103753" x2="41" y2="1.1467855594103753" style="visibility: inherit;" fill="rgb(0, 0, 0)" stroke="rgb(204, 204, 204)" stroke-width="1px"></line></g><g transform="translate(36, 0)"><text x="0" y="167.292625188068" dx="0em" dy="0.3em" style="text-anchor: end; visibility: inherit; font-family: &quot;Helvetica Neue&quot;, sans-serif; font-size: 12px; font-weight: 200;" fill="rgb(50, 49, 63)" stroke="none" stroke-width="1px">0.06</text><text x="0" y="154.51217598586356" dx="0em" dy="0.3em" style="text-anchor: end; visibility: hidden; font-family: &quot;Helvetica Neue&quot;, sans-serif; font-size: 12px; font-weight: 200;" fill="rgb(50, 49, 63)" stroke="none" stroke-width="1px">0.07</text><text x="0" y="141.73172678365913" dx="0em" dy="0.3em" style="text-anchor: end; visibility: inherit; font-family: &quot;Helvetica Neue&quot;, sans-serif; font-size: 12px; font-weight: 200;" fill="rgb(50, 49, 63)" stroke="none" stroke-width="1px">0.08</text><text x="0" y="128.95127758145472" dx="0em" dy="0.3em" style="text-anchor: end; visibility: hidden; font-family: &quot;Helvetica Neue&quot;, sans-serif; font-size: 12px; font-weight: 200;" fill="rgb(50, 49, 63)" stroke="none" stroke-width="1px">0.09</text><text x="0" y="116.17082837925027" dx="0em" dy="0.3em" style="text-anchor: end; visibility: inherit; font-family: &quot;Helvetica Neue&quot;, sans-serif; font-size: 12px; font-weight: 200;" fill="rgb(50, 49, 63)" stroke="none" stroke-width="1px">0.1</text><text x="0" y="103.39037917704584" dx="0em" dy="0.3em" style="text-anchor: end; visibility: hidden; font-family: &quot;Helvetica Neue&quot;, sans-serif; font-size: 12px; font-weight: 200;" fill="rgb(50, 49, 63)" stroke="none" stroke-width="1px">0.11</text><text x="0" y="90.6099299748414" dx="0em" dy="0.3em" style="text-anchor: end; visibility: inherit; font-family: &quot;Helvetica Neue&quot;, sans-serif; font-size: 12px; font-weight: 200;" fill="rgb(50, 49, 63)" stroke="none" stroke-width="1px">0.12</text><text x="0" y="77.82948077263697" dx="0em" dy="0.3em" style="text-anchor: end; visibility: hidden; font-family: &quot;Helvetica Neue&quot;, sans-serif; font-size: 12px; font-weight: 200;" fill="rgb(50, 49, 63)" stroke="none" stroke-width="1px">0.13</text><text x="0" y="65.0490315704325" dx="0em" dy="0.3em" style="text-anchor: end; visibility: inherit; font-family: &quot;Helvetica Neue&quot;, sans-serif; font-size: 12px; font-weight: 200;" fill="rgb(50, 49, 63)" stroke="none" stroke-width="1px">0.14</text><text x="0" y="52.26858236822811" dx="0em" dy="0.3em" style="text-anchor: end; visibility: hidden; font-family: &quot;Helvetica Neue&quot;, sans-serif; font-size: 12px; font-weight: 200;" fill="rgb(50, 49, 63)" stroke="none" stroke-width="1px">0.15</text><text x="0" y="39.48813316602366" dx="0em" dy="0.3em" style="text-anchor: end; visibility: inherit; font-family: &quot;Helvetica Neue&quot;, sans-serif; font-size: 12px; font-weight: 200;" fill="rgb(50, 49, 63)" stroke="none" stroke-width="1px">0.16</text><text x="0" y="26.70768396381922" dx="0em" dy="0.3em" style="text-anchor: end; visibility: hidden; font-family: &quot;Helvetica Neue&quot;, sans-serif; font-size: 12px; font-weight: 200;" fill="rgb(50, 49, 63)" stroke="none" stroke-width="1px">0.17</text><text x="0" y="13.927234761614812" dx="0em" dy="0.3em" style="text-anchor: end; visibility: inherit; font-family: &quot;Helvetica Neue&quot;, sans-serif; font-size: 12px; font-weight: 200;" fill="rgb(50, 49, 63)" stroke="none" stroke-width="1px">0.18</text><text x="0" y="1.1467855594103753" dx="0em" dy="0.3em" style="text-anchor: end; visibility: hidden; font-family: &quot;Helvetica Neue&quot;, sans-serif; font-size: 12px; font-weight: 200;" fill="rgb(50, 49, 63)" stroke="none" stroke-width="1px">0.19</text></g><line x1="46" y1="0" x2="46" y2="177" fill="rgb(0, 0, 0)" stroke="rgb(204, 204, 204)" stroke-width="1px"></line></g></g><g transform="translate(46, 0)" clip-path="url(#clip_0)"><clipPath id="clip_0"><rect width="284" height="177"></rect></clipPath><g><g><g><line x1="25.188262439421553" y1="0" x2="25.188262439421553" y2="177" fill="rgb(0, 0, 0)" stroke="rgb(60, 60, 60)" stroke-width="1px" opacity="0.25"></line><line x1="56.147312806799064" y1="0" x2="56.147312806799064" y2="177" fill="rgb(0, 0, 0)" stroke="rgb(60, 60, 60)" stroke-width="1px" opacity="0.25"></line><line x1="87.10636317417656" y1="0" x2="87.10636317417656" y2="177" fill="rgb(0, 0, 0)" stroke="rgb(60, 60, 60)" stroke-width="1px" opacity="0.25"></line><line x1="118.06541354155408" y1="0" x2="118.06541354155408" y2="177" fill="rgb(0, 0, 0)" stroke="rgb(60, 60, 60)" stroke-width="1px" opacity="0.25"></line><line x1="149.02446390893158" y1="0" x2="149.02446390893158" y2="177" fill="rgb(0, 0, 0)" stroke="rgb(60, 60, 60)" stroke-width="1px" opacity="0.25"></line><line x1="179.98351427630908" y1="0" x2="179.98351427630908" y2="177" fill="rgb(0, 0, 0)" stroke="rgb(60, 60, 60)" stroke-width="1px" opacity="0.25"></line><line x1="210.94256464368658" y1="0" x2="210.94256464368658" y2="177" fill="rgb(0, 0, 0)" stroke="rgb(60, 60, 60)" stroke-width="1px" opacity="0.25"></line><line x1="241.90161501106408" y1="0" x2="241.90161501106408" y2="177" fill="rgb(0, 0, 0)" stroke="rgb(60, 60, 60)" stroke-width="1px" opacity="0.25"></line><line x1="272.8606653784416" y1="0" x2="272.8606653784416" y2="177" fill="rgb(0, 0, 0)" stroke="rgb(60, 60, 60)" stroke-width="1px" opacity="0.25"></line></g><g><line x1="0" y1="167.292625188068" x2="284" y2="167.292625188068" fill="rgb(0, 0, 0)" stroke="rgb(60, 60, 60)" stroke-width="1px" opacity="0.25"></line><line x1="0" y1="154.51217598586356" x2="284" y2="154.51217598586356" fill="rgb(0, 0, 0)" stroke="rgb(60, 60, 60)" stroke-width="1px" opacity="0.25"></line><line x1="0" y1="141.73172678365913" x2="284" y2="141.73172678365913" fill="rgb(0, 0, 0)" stroke="rgb(60, 60, 60)" stroke-width="1px" opacity="0.25"></line><line x1="0" y1="128.95127758145472" x2="284" y2="128.95127758145472" fill="rgb(0, 0, 0)" stroke="rgb(60, 60, 60)" stroke-width="1px" opacity="0.25"></line><line x1="0" y1="116.17082837925027" x2="284" y2="116.17082837925027" fill="rgb(0, 0, 0)" stroke="rgb(60, 60, 60)" stroke-width="1px" opacity="0.25"></line><line x1="0" y1="103.39037917704584" x2="284" y2="103.39037917704584" fill="rgb(0, 0, 0)" stroke="rgb(60, 60, 60)" stroke-width="1px" opacity="0.25"></line><line x1="0" y1="90.6099299748414" x2="284" y2="90.6099299748414" fill="rgb(0, 0, 0)" stroke="rgb(60, 60, 60)" stroke-width="1px" opacity="0.25"></line><line x1="0" y1="77.82948077263697" x2="284" y2="77.82948077263697" fill="rgb(0, 0, 0)" stroke="rgb(60, 60, 60)" stroke-width="1px" opacity="0.25"></line><line x1="0" y1="65.0490315704325" x2="284" y2="65.0490315704325" fill="rgb(0, 0, 0)" stroke="rgb(60, 60, 60)" stroke-width="1px" opacity="0.25"></line><line x1="0" y1="52.26858236822811" x2="284" y2="52.26858236822811" fill="rgb(0, 0, 0)" stroke="rgb(60, 60, 60)" stroke-width="1px" opacity="0.25"></line><line x1="0" y1="39.48813316602366" x2="284" y2="39.48813316602366" fill="rgb(0, 0, 0)" stroke="rgb(60, 60, 60)" stroke-width="1px" opacity="0.25"></line><line x1="0" y1="26.70768396381922" x2="284" y2="26.70768396381922" fill="rgb(0, 0, 0)" stroke="rgb(60, 60, 60)" stroke-width="1px" opacity="0.25"></line><line x1="0" y1="13.927234761614812" x2="284" y2="13.927234761614812" fill="rgb(0, 0, 0)" stroke="rgb(60, 60, 60)" stroke-width="1px" opacity="0.25"></line><line x1="0" y1="1.1467855594103753" x2="284" y2="1.1467855594103753" fill="rgb(0, 0, 0)" stroke="rgb(60, 60, 60)" stroke-width="1px" opacity="0.25"></line></g></g></g><g><g><line x1="0" y1="243.9753204012946" x2="284" y2="243.9753204012946" fill="rgb(0, 0, 0)" stroke="rgb(153, 153, 153)" stroke-width="1.5px"></line></g></g><g><g><line x1="-67.68888866271097" y1="0" x2="-67.68888866271097" y2="177" fill="rgb(0, 0, 0)" stroke="rgb(153, 153, 153)" stroke-width="1.5px"></line></g></g><g><g><g><g><g><path stroke="rgb(0, 119, 187)" stroke-width="2px" d="M29.05814373534374,80.89170462247445L30.45130100187573,86.82729120517327L31.84445826840772,62.407273541294444L39.274630356578314,90.01466745746207L40.60586952237555,80.55278207620759L41.999026788907535,55.88426830717026L43.39218405543953,54.33328536419336L70.79094363056862,128.47094843494088L72.12218279636586,66.34188221510112L73.51534006289785,58.091855713356495L74.90849732942982,85.73907628448225L76.3016545959618,49.73221173668239L77.6948118624938,78.98908576049455L79.0879691290258,170.51988479114056L80.48112639555778,166.52725394593327L81.87428366208977,127.91340981978053L86.45622311646164,112.3880766391187L89.2425376495256,97.15282795412993L92.02885218258959,105.2977763212321L94.81516671565356,89.23117562712658L97.60148124871755,108.91827923179206L100.3877957817815,87.4645201442615L103.17411031484548,76.30527526137813L105.96042484790947,66.20303929404854L108.74673938097344,74.2394845623532L111.53305391403742,69.84453260487088L117.97253639045194,77.51980643459608L120.75885092351591,75.53032624665903L123.54516545657988,90.38349359866548L126.33147998964387,54.019573578693226L129.11779452270784,34.98776513261663L131.9041090557718,40.845310524615144L134.69042358883578,80.72116234072229L137.47673812189976,31.041699131190825L140.26305265496373,73.51389908903589L143.51375294353835,29.634768205434824L146.30006747660235,29.34203558185729L149.08638200966632,53.80941010226141L150.3866621250962,34.936340144958905L153.17297665816017,37.49488120727705L155.9592911912241,78.22435320467841L158.7456057242881,55.05605769753012L161.53192025735208,58.62645304365755L164.31823479041606,81.2407700398223L182.76982880937305,74.31989399001976L185.55614334243705,50.64465494880804L188.34245787550103,42.18987092298087L190.66438665305432,55.94886417930162L193.4507011861183,54.15781265777356L196.2370157191823,62.7282006614988L199.02333025224624,39.34363784943915L201.8096447853102,35.89440238404325L203.14088395110747,71.43511647259147L205.92719848417144,73.14489136990689L208.71351301723539,17.5805633535019L211.49982755029936,23.09427395108426L214.28614208336336,24.85098426101996L217.07245661642733,50.14042828292111L219.8587711494913,63.07781833286619L222.64508568255528,29.556103667074723L225.43140021561925,47.96761269900125L228.21771474868325,7.606430683928636L231.00402928174722,12.134683270942759L233.79034381481117,20.265880082996688L235.12158298060842,36.26336976746066L237.9078975136724,34.87532621463117L240.69421204673637,44.3672534712056L243.4805265798003,49.289674727824405" style="fill: none;" fill="none"></path></g></g></g></g><g opacity="0.2"><g><g><g><path stroke="rgb(0, 119, 187)" stroke-width="2px" d="M29.05814373534374,80.89170462247445L30.45130100187573,87.33775165128536L31.84445826840772,60.12654157155882L39.274630356578314,92.61064746820122L40.60586952237555,79.66254396732064L41.999026788907535,53.56317180381707L43.39218405543953,54.18735048549206L70.79094363056862,135.44670204790708L72.12218279636586,60.49604011562772L73.51534006289785,57.31559501426743L74.90849732942982,88.3404559005262L76.3016545959618,46.34425730440131L77.6948118624938,81.74192073428826L79.0879691290258,179.13219192093862L80.48112639555778,166.15157970885687L81.87428366208977,124.28015971600685L86.45622311646164,110.9272684842643L89.2425376495256,95.71931440171306L92.02885218258959,106.06415001879316L94.81516671565356,87.71943858151052L97.60148124871755,110.7706762886862L100.3877957817815,85.4458951097674L103.17411031484548,75.25528066627095L105.96042484790947,65.25250068005475L108.74673938097344,74.99564899678887L111.53305391403742,69.43100320843384L117.97253639045194,78.24198756080656L120.75885092351591,75.343132268363L123.54516545657988,91.78105639108624L126.33147998964387,50.5980231172954L129.11779452270784,33.197026044692564L131.9041090557718,41.3964581216741L134.69042358883578,84.47315715055296L137.47673812189976,26.367263862022696L140.26305265496373,77.51018923824232L143.51375294353835,25.506097247021586L146.30006747660235,29.31449181202396L149.08638200966632,56.1115919499143L150.3866621250962,33.16053706363721L153.17297665816017,37.73561920657616L155.9592911912241,82.05666676242075L158.7456057242881,52.87610866731707L161.53192025735208,58.96239833880742L164.31823479041606,83.36859417731704L182.76982880937305,73.66869558708431L185.55614334243705,48.41700663639645L188.34245787550103,41.39434419845011L190.66438665305432,57.24347404805833L193.4507011861183,53.989289210452554L196.2370157191823,63.5346047843876L199.02333025224624,37.143339816794565L201.8096447853102,35.56985725272594L203.14088395110747,74.77920992074812L205.92719848417144,73.3057673449278L208.71351301723539,12.352409951520684L211.49982755029936,23.613069477771433L214.28614208336336,25.016276478366194L217.07245661642733,52.519960214959966L219.8587711494913,64.29512199183254L222.64508568255528,26.4019817182147L225.43140021561925,49.699986634171566L228.21771474868325,3.8087702317445746L231.00402928174722,12.560755177379576L233.79034381481117,21.030959870564118L235.12158298060842,37.76860402661157L237.9078975136724,34.74472255429933L240.69421204673637,45.26036697674763L243.4805265798003,49.752834714771055" style="fill: none;" fill="none"></path></g></g></g></g></g></g><g transform="translate(46, 177)" clip-path="url(#clip_1)"><clipPath id="clip_1"><rect width="284" height="23"></rect></clipPath><g><g><line x1="25.188262439421553" y1="0" x2="25.188262439421553" y2="5" style="visibility: inherit;" fill="rgb(0, 0, 0)" stroke="rgb(204, 204, 204)" stroke-width="1px"></line><line x1="56.147312806799064" y1="0" x2="56.147312806799064" y2="5" style="visibility: inherit;" fill="rgb(0, 0, 0)" stroke="rgb(204, 204, 204)" stroke-width="1px"></line><line x1="87.10636317417656" y1="0" x2="87.10636317417656" y2="5" style="visibility: inherit;" fill="rgb(0, 0, 0)" stroke="rgb(204, 204, 204)" stroke-width="1px"></line><line x1="118.06541354155408" y1="0" x2="118.06541354155408" y2="5" style="visibility: inherit;" fill="rgb(0, 0, 0)" stroke="rgb(204, 204, 204)" stroke-width="1px"></line><line x1="149.02446390893158" y1="0" x2="149.02446390893158" y2="5" style="visibility: inherit;" fill="rgb(0, 0, 0)" stroke="rgb(204, 204, 204)" stroke-width="1px"></line><line x1="179.98351427630908" y1="0" x2="179.98351427630908" y2="5" style="visibility: inherit;" fill="rgb(0, 0, 0)" stroke="rgb(204, 204, 204)" stroke-width="1px"></line><line x1="210.94256464368658" y1="0" x2="210.94256464368658" y2="5" style="visibility: inherit;" fill="rgb(0, 0, 0)" stroke="rgb(204, 204, 204)" stroke-width="1px"></line><line x1="241.90161501106408" y1="0" x2="241.90161501106408" y2="5" style="visibility: inherit;" fill="rgb(0, 0, 0)" stroke="rgb(204, 204, 204)" stroke-width="1px"></line><line x1="272.8606653784416" y1="0" x2="272.8606653784416" y2="5" style="visibility: inherit;" fill="rgb(0, 0, 0)" stroke="rgb(204, 204, 204)" stroke-width="1px"></line></g><g transform="translate(0, 8)"><text x="25.188262439421553" y="0" dx="0em" dy="0.95em" style="text-anchor: middle; visibility: inherit; font-family: &quot;Helvetica Neue&quot;, sans-serif; font-size: 12px; font-weight: 200;" fill="rgb(50, 49, 63)" stroke="none" stroke-width="1px">300k</text><text x="56.147312806799064" y="0" dx="0em" dy="0.95em" style="text-anchor: middle; visibility: hidden; font-family: &quot;Helvetica Neue&quot;, sans-serif; font-size: 12px; font-weight: 200;" fill="rgb(50, 49, 63)" stroke="none" stroke-width="1px">400k</text><text x="87.10636317417656" y="0" dx="0em" dy="0.95em" style="text-anchor: middle; visibility: inherit; font-family: &quot;Helvetica Neue&quot;, sans-serif; font-size: 12px; font-weight: 200;" fill="rgb(50, 49, 63)" stroke="none" stroke-width="1px">500k</text><text x="118.06541354155408" y="0" dx="0em" dy="0.95em" style="text-anchor: middle; visibility: hidden; font-family: &quot;Helvetica Neue&quot;, sans-serif; font-size: 12px; font-weight: 200;" fill="rgb(50, 49, 63)" stroke="none" stroke-width="1px">600k</text><text x="149.02446390893158" y="0" dx="0em" dy="0.95em" style="text-anchor: middle; visibility: inherit; font-family: &quot;Helvetica Neue&quot;, sans-serif; font-size: 12px; font-weight: 200;" fill="rgb(50, 49, 63)" stroke="none" stroke-width="1px">700k</text><text x="179.98351427630908" y="0" dx="0em" dy="0.95em" style="text-anchor: middle; visibility: hidden; font-family: &quot;Helvetica Neue&quot;, sans-serif; font-size: 12px; font-weight: 200;" fill="rgb(50, 49, 63)" stroke="none" stroke-width="1px">800k</text><text x="210.94256464368658" y="0" dx="0em" dy="0.95em" style="text-anchor: middle; visibility: inherit; font-family: &quot;Helvetica Neue&quot;, sans-serif; font-size: 12px; font-weight: 200;" fill="rgb(50, 49, 63)" stroke="none" stroke-width="1px">900k</text><text x="241.90161501106408" y="0" dx="0em" dy="0.95em" style="text-anchor: middle; visibility: hidden; font-family: &quot;Helvetica Neue&quot;, sans-serif; font-size: 12px; font-weight: 200;" fill="rgb(50, 49, 63)" stroke="none" stroke-width="1px">1M</text><text x="272.8606653784416" y="0" dx="0em" dy="0.95em" style="text-anchor: middle; visibility: hidden; font-family: &quot;Helvetica Neue&quot;, sans-serif; font-size: 12px; font-weight: 200;" fill="rgb(50, 49, 63)" stroke="none" stroke-width="1px">1.1M</text></g><line x1="0" y1="0" x2="284" y2="0" fill="rgb(0, 0, 0)" stroke="rgb(204, 204, 204)" stroke-width="1px"></line></g></g></g></g></svg>