<svg viewBox="0 0 330 200" xmlns="http://www.w3.org/2000/svg"><g><g><g><g><g><line x1="46" y1="175.61403505897687" x2="41" y2="175.61403505897687" style="visibility: inherit;" fill="rgb(0, 0, 0)" stroke="rgb(204, 204, 204)" stroke-width="1px"></line><line x1="46" y1="159.3798216080815" x2="41" y2="159.3798216080815" style="visibility: inherit;" fill="rgb(0, 0, 0)" stroke="rgb(204, 204, 204)" stroke-width="1px"></line><line x1="46" y1="143.14560815718608" x2="41" y2="143.14560815718608" style="visibility: inherit;" fill="rgb(0, 0, 0)" stroke="rgb(204, 204, 204)" stroke-width="1px"></line><line x1="46" y1="126.9113947062907" x2="41" y2="126.9113947062907" style="visibility: inherit;" fill="rgb(0, 0, 0)" stroke="rgb(204, 204, 204)" stroke-width="1px"></line><line x1="46" y1="110.6771812553953" x2="41" y2="110.6771812553953" style="visibility: inherit;" fill="rgb(0, 0, 0)" stroke="rgb(204, 204, 204)" stroke-width="1px"></line><line x1="46" y1="94.4429678044999" x2="41" y2="94.4429678044999" style="visibility: inherit;" fill="rgb(0, 0, 0)" stroke="rgb(204, 204, 204)" stroke-width="1px"></line><line x1="46" y1="78.2087543536045" x2="41" y2="78.2087543536045" style="visibility: inherit;" fill="rgb(0, 0, 0)" stroke="rgb(204, 204, 204)" stroke-width="1px"></line><line x1="46" y1="61.97454090270911" x2="41" y2="61.97454090270911" style="visibility: inherit;" fill="rgb(0, 0, 0)" stroke="rgb(204, 204, 204)" stroke-width="1px"></line><line x1="46" y1="45.74032745181373" x2="41" y2="45.74032745181373" style="visibility: inherit;" fill="rgb(0, 0, 0)" stroke="rgb(204, 204, 204)" stroke-width="1px"></line><line x1="46" y1="29.50611400091833" x2="41" y2="29.50611400091833" style="visibility: inherit;" fill="rgb(0, 0, 0)" stroke="rgb(204, 204, 204)" stroke-width="1px"></line><line x1="46" y1="13.271900550022934" x2="41" y2="13.271900550022934" style="visibility: inherit;" fill="rgb(0, 0, 0)" stroke="rgb(204, 204, 204)" stroke-width="1px"></line></g><g transform="translate(36, 0)"><text x="0" y="175.61403505897687" dx="0em" dy="0.3em" style="text-anchor: end; visibility: hidden; font-family: &quot;Helvetica Neue&quot;, sans-serif; font-size: 12px; font-weight: 200;" fill="rgb(50, 49, 63)" stroke="none" stroke-width="1px">0</text><text x="0" y="159.3798216080815" dx="0em" dy="0.3em" style="text-anchor: end; visibility: inherit; font-family: &quot;Helvetica Neue&quot;, sans-serif; font-size: 12px; font-weight: 200;" fill="rgb(50, 49, 63)" stroke="none" stroke-width="1px">100</text><text x="0" y="143.14560815718608" dx="0em" dy="0.3em" style="text-anchor: end; visibility: hidden; font-family: &quot;Helvetica Neue&quot;, sans-serif; font-size: 12px; font-weight: 200;" fill="rgb(50, 49, 63)" stroke="none" stroke-width="1px">200</text><text x="0" y="126.9113947062907" dx="0em" dy="0.3em" style="text-anchor: end; visibility: inherit; font-family: &quot;Helvetica Neue&quot;, sans-serif; font-size: 12px; font-weight: 200;" fill="rgb(50, 49, 63)" stroke="none" stroke-width="1px">300</text><text x="0" y="110.6771812553953" dx="0em" dy="0.3em" style="text-anchor: end; visibility: hidden; font-family: &quot;Helvetica Neue&quot;, sans-serif; font-size: 12px; font-weight: 200;" fill="rgb(50, 49, 63)" stroke="none" stroke-width="1px">400</text><text x="0" y="94.4429678044999" dx="0em" dy="0.3em" style="text-anchor: end; visibility: inherit; font-family: &quot;Helvetica Neue&quot;, sans-serif; font-size: 12px; font-weight: 200;" fill="rgb(50, 49, 63)" stroke="none" stroke-width="1px">500</text><text x="0" y="78.2087543536045" dx="0em" dy="0.3em" style="text-anchor: end; visibility: hidden; font-family: &quot;Helvetica Neue&quot;, sans-serif; font-size: 12px; font-weight: 200;" fill="rgb(50, 49, 63)" stroke="none" stroke-width="1px">600</text><text x="0" y="61.97454090270911" dx="0em" dy="0.3em" style="text-anchor: end; visibility: inherit; font-family: &quot;Helvetica Neue&quot;, sans-serif; font-size: 12px; font-weight: 200;" fill="rgb(50, 49, 63)" stroke="none" stroke-width="1px">700</text><text x="0" y="45.74032745181373" dx="0em" dy="0.3em" style="text-anchor: end; visibility: hidden; font-family: &quot;Helvetica Neue&quot;, sans-serif; font-size: 12px; font-weight: 200;" fill="rgb(50, 49, 63)" stroke="none" stroke-width="1px">800</text><text x="0" y="29.50611400091833" dx="0em" dy="0.3em" style="text-anchor: end; visibility: inherit; font-family: &quot;Helvetica Neue&quot;, sans-serif; font-size: 12px; font-weight: 200;" fill="rgb(50, 49, 63)" stroke="none" stroke-width="1px">900</text><text x="0" y="13.271900550022934" dx="0em" dy="0.3em" style="text-anchor: end; visibility: hidden; font-family: &quot;Helvetica Neue&quot;, sans-serif; font-size: 12px; font-weight: 200;" fill="rgb(50, 49, 63)" stroke="none" stroke-width="1px">1e+3</text></g><line x1="46" y1="0" x2="46" y2="177" fill="rgb(0, 0, 0)" stroke="rgb(204, 204, 204)" stroke-width="1px"></line></g></g><g transform="translate(46, 0)" clip-path="url(#clip_0)"><clipPath id="clip_0"><rect width="284" height="177"></rect></clipPath><g><g><g><line x1="24.671576188063437" y1="0" x2="24.671576188063437" y2="177" fill="rgb(0, 0, 0)" stroke="rgb(60, 60, 60)" stroke-width="1px" opacity="0.25"></line><line x1="58.92411355975218" y1="0" x2="58.92411355975218" y2="177" fill="rgb(0, 0, 0)" stroke="rgb(60, 60, 60)" stroke-width="1px" opacity="0.25"></line><line x1="93.17665093144093" y1="0" x2="93.17665093144093" y2="177" fill="rgb(0, 0, 0)" stroke="rgb(60, 60, 60)" stroke-width="1px" opacity="0.25"></line><line x1="127.42918830312968" y1="0" x2="127.42918830312968" y2="177" fill="rgb(0, 0, 0)" stroke="rgb(60, 60, 60)" stroke-width="1px" opacity="0.25"></line><line x1="161.6817256748184" y1="0" x2="161.6817256748184" y2="177" fill="rgb(0, 0, 0)" stroke="rgb(60, 60, 60)" stroke-width="1px" opacity="0.25"></line><line x1="195.93426304650717" y1="0" x2="195.93426304650717" y2="177" fill="rgb(0, 0, 0)" stroke="rgb(60, 60, 60)" stroke-width="1px" opacity="0.25"></line><line x1="230.1868004181959" y1="0" x2="230.1868004181959" y2="177" fill="rgb(0, 0, 0)" stroke="rgb(60, 60, 60)" stroke-width="1px" opacity="0.25"></line><line x1="264.43933778988463" y1="0" x2="264.43933778988463" y2="177" fill="rgb(0, 0, 0)" stroke="rgb(60, 60, 60)" stroke-width="1px" opacity="0.25"></line></g><g><line x1="0" y1="175.61403505897687" x2="284" y2="175.61403505897687" fill="rgb(0, 0, 0)" stroke="rgb(60, 60, 60)" stroke-width="1px" opacity="0.25"></line><line x1="0" y1="159.3798216080815" x2="284" y2="159.3798216080815" fill="rgb(0, 0, 0)" stroke="rgb(60, 60, 60)" stroke-width="1px" opacity="0.25"></line><line x1="0" y1="143.14560815718608" x2="284" y2="143.14560815718608" fill="rgb(0, 0, 0)" stroke="rgb(60, 60, 60)" stroke-width="1px" opacity="0.25"></line><line x1="0" y1="126.9113947062907" x2="284" y2="126.9113947062907" fill="rgb(0, 0, 0)" stroke="rgb(60, 60, 60)" stroke-width="1px" opacity="0.25"></line><line x1="0" y1="110.6771812553953" x2="284" y2="110.6771812553953" fill="rgb(0, 0, 0)" stroke="rgb(60, 60, 60)" stroke-width="1px" opacity="0.25"></line><line x1="0" y1="94.4429678044999" x2="284" y2="94.4429678044999" fill="rgb(0, 0, 0)" stroke="rgb(60, 60, 60)" stroke-width="1px" opacity="0.25"></line><line x1="0" y1="78.2087543536045" x2="284" y2="78.2087543536045" fill="rgb(0, 0, 0)" stroke="rgb(60, 60, 60)" stroke-width="1px" opacity="0.25"></line><line x1="0" y1="61.97454090270911" x2="284" y2="61.97454090270911" fill="rgb(0, 0, 0)" stroke="rgb(60, 60, 60)" stroke-width="1px" opacity="0.25"></line><line x1="0" y1="45.74032745181373" x2="284" y2="45.74032745181373" fill="rgb(0, 0, 0)" stroke="rgb(60, 60, 60)" stroke-width="1px" opacity="0.25"></line><line x1="0" y1="29.50611400091833" x2="284" y2="29.50611400091833" fill="rgb(0, 0, 0)" stroke="rgb(60, 60, 60)" stroke-width="1px" opacity="0.25"></line><line x1="0" y1="13.271900550022934" x2="284" y2="13.271900550022934" fill="rgb(0, 0, 0)" stroke="rgb(60, 60, 60)" stroke-width="1px" opacity="0.25"></line></g></g></g><g><g><line x1="0" y1="175.61403505897687" x2="284" y2="175.61403505897687" fill="rgb(0, 0, 0)" stroke="rgb(153, 153, 153)" stroke-width="1.5px"></line></g></g><g><g><line x1="-78.08603592700278" y1="0" x2="-78.08603592700278" y2="177" fill="rgb(0, 0, 0)" stroke="rgb(153, 153, 153)" stroke-width="1.5px"></line></g></g><g><g><g><g><g><path stroke="rgb(255, 112, 67)" stroke-width="2px" d="M28.85038574740946,91.38145514873584L29.055900971639595,127.0797197603575L29.364173807984795,108.47129672684488L29.466931420099858,128.26581058194907L29.77520425644506,89.5709816254904L30.288992317020387,97.54576252254401L30.49450754125052,102.17999915919289L30.700022765480657,142.4098777251605L31.008295601825854,111.6679408279144L31.316568438171053,133.9348253345386L31.522083662401187,140.8555343582821L32.035871722976516,142.80423649965567L32.13862933509158,120.4442544580454L32.24138694720665,134.175766661608L32.34414455932171,143.6245542549445L32.44690217143678,111.71865757493782L32.652417395666916,114.03788902016996L32.75517500778198,130.07777172770056L32.85793261989705,78.39678830406966L33.166205456242245,120.22826776918171L33.26896306835731,127.15071558556338L33.577235904702505,99.51204686729412L33.782751128932645,119.43613361922317L33.98826635316278,131.1427978153252L34.09102396527784,116.62655223775073L34.296539189507975,122.33144060337537L34.39929680162304,124.0177012517916L34.5020544137381,135.47277989204468L34.60481202585317,96.3117760206908L35.7351457591189,132.63208162938125L36.45444904392436,134.05347682921752L36.86547949238463,63.147856566123664L36.9682371044997,136.234617933749L37.070994716614756,118.22002785511279L37.48202516507502,124.09899188544432L37.790298001420226,144.49142893223936L37.89305561353529,146.0939857827408L38.30408606199555,130.0392036193748L38.61235889834076,121.83208759070301L38.920631734685955,36.22543925508833L39.331662183146214,81.48217033427109L39.434419795261284,88.04261148305599L39.537177407376355,81.05206312323875L39.63993501949141,125.3168413714638L40.25648069218181,145.45119606146375L40.393490841668566,108.98196717757027L41.010036514358966,116.81293954323783L41.42106696281923,114.48012700602757L41.72933979916443,32.78904327863822L42.03761263550963,137.12663471177638L42.14037024762469,133.4778476935743L42.34588547185483,140.86473151668616L42.654158308200024,92.11798324277831L42.756915920315095,69.99142179339061L42.85967353243016,125.16793169756099L43.06518875666029,130.2044255226161L43.57897681723562,105.30867596010685L44.401037714156146,124.92256401952119L44.81206816261641,84.6688358919989L44.91482577473148,138.9219089044433L45.017583386846546,146.91108775577632L45.53137144742188,132.19394081685533L45.63412905953694,116.99411835009128L45.94240189588215,128.3864713382041L46.35343234434241,104.91353169357645L46.45618995645748,117.1337196902495L46.9699780170328,76.23433881760475L47.07273562914787,127.69176924484968L47.381008465493075,135.1413252296463L47.48376607760814,120.41624248079977L47.5865236897232,118.60036776199551L47.68928130183827,109.01176191681283L47.8947965260684,112.98320596187355L48.305826974528664,139.44123147509706L48.61409981087387,69.2512553584127L48.81961503510399,118.19338056570012L49.025130259334134,107.17021861707062L49.127887871449204,118.62614409928511L49.53891831990946,139.23600910417937L49.744433544139596,120.08897117445349L50.05270638048479,132.5508147383619L50.56649444106012,133.611289714751L50.97752488952039,118.09418284174163L51.08028250163545,132.32834310854147L51.28579772586559,119.91348696527365L51.38855533798065,130.557384559269L51.49131295009572,105.28711892388529L51.799585786440915,102.32136513850492L52.005101010671055,110.64504109912299L52.416131459131314,136.429148092866L52.621646683361455,147.11684536419446L52.72440429547651,123.13852771680484L52.82716190759158,134.1588205486044L52.92991951970665,94.9025816162305L53.23819235605185,109.11346754754484L53.34094996816691,133.9825501321758L53.64922280451211,124.78623070768492L53.85473802874225,125.77606067151092L54.265768477202506,77.65287358140542L54.47128370143264,107.56265349784606L55.19058698623811,141.94831128761774L55.396102210468236,140.06450961677263L55.60161743469837,142.2925718721915L56.629193555849035,132.38889924399047L56.7319511679641,76.45657718749264L56.93746639219423,109.60687277395687L57.0402240043093,142.16939860885714L57.24573922853943,78.40942340994545L57.3484968406545,88.90030324525915L57.75952728911476,110.25133525851669L57.96504251334489,121.88885606830333L58.067800125459954,116.66405061920875L58.58158818603529,129.9981026259747L58.78710341026542,122.88394059809136L58.88986102238049,120.6898086577418L58.99261863449556,123.25828303627866L59.09537624661062,114.06950815975743L59.19813385872569,142.2029840425507L59.30089147084075,112.60955552212735L59.506406695070886,112.60229813876283L59.71192191930102,122.03480744080957L60.32846759199141,117.74412123128002L60.53398281622155,77.6843235310796L60.63674042833661,111.74551650634427L60.73949804045168,113.7704664112008L60.94501326468182,120.49547468238973L61.253286101027015,83.09590740718623L61.869831773717415,69.21940848423682L62.17810461006261,125.27178603799743L62.38361983429274,130.76219536530635L62.48637744640781,133.81821135417007L62.794650282753004,107.87086985388862L62.89740789486807,106.79397683543561L63.20568073121327,118.09133149348075L63.30843834332833,120.48963741938098L63.411195955443404,112.24920836447104L63.51395356755847,94.91907528753448L63.7194687917886,116.89601160126969L63.82222640390366,54.387667520792505L63.92498401601873,94.98928088473998L64.13049924024887,130.5812085196955L64.23325685236394,113.62096568096243L64.43877207659406,110.60550127405381L65.05531774928446,115.03376650240187L65.15807536139953,114.72164834308784L65.36359058562967,69.88036738889643L65.46634819774472,120.5183366890053L65.67186342197486,121.16808570506518L65.87737864620499,137.39234925272493L66.08289387043513,127.67767094008197L66.1856514825502,113.49557919930425L66.28840909466525,136.28803268051695L66.39116670678033,132.78250448054536L66.90495476735565,108.12549095608074L67.00771237947072,134.3932815896356L67.41874282793098,97.16151078795932L67.52150044004605,69.39935127387304L67.72701566427618,121.00761328481352L67.82977327639125,134.62683314009217L67.93253088850632,68.86645128952456L68.03528850062139,126.77251344482082L68.13804611273645,127.57422361192357L69.37113745811725,105.61319050078662L69.57665268234737,123.25839946455798L69.67941029446244,146.66690334337082L69.78216790657751,133.2970081620148L69.98768313080764,124.36771985048304L70.09044074292271,140.2816863289834L70.19319835503778,110.29005950883074L70.50147119138298,128.58048946477163L70.7069864156131,95.1791031549315L71.11801686407337,131.1337288142767L71.22077447618844,120.86064509800237L71.42628970041856,115.0335572886237L72.04283537310897,130.5202727403521L72.14559298522403,115.67423587505152L72.24835059733911,104.75365425032615L72.55662343368431,113.60793265633353L72.76213865791442,127.37265961543237L72.96765388214456,87.18304959590658L73.07041149425963,136.53874058899578L73.1731691063747,144.55599607908186L73.27592671848976,84.47478511769411L73.4814419427199,126.73126877762763L73.68695716695002,120.20438120110819L73.99523000329522,98.78646820377513L74.09798761541029,123.11345485467922L74.30350283964042,109.36790006113884L74.4062604517555,110.65946286505833L74.61177567598561,130.0249722097863L74.92004851233081,85.81974180743312L75.15981627393263,118.43186772001766L75.2625738860477,121.94074384153838L75.36533149816277,95.52723669908778L75.67360433450797,144.0660091415994L76.18739239508331,136.596899946532L76.29015000719836,112.68390976631851L76.39290761931345,86.21524723410327L76.8039380677737,115.49311385359772L76.90669567988877,137.12156793025267L77.00945329200384,108.51622443433646L77.31772612834904,123.45014444983127L77.42048374046409,120.16750271120027L77.62599896469423,126.69129574609659L77.83151418892436,118.88339906246256L77.93427180103943,101.2218576100309L78.0370294131545,134.55997045502954L78.3453022494997,134.8440564142227L78.44805986161475,109.73395097500503L78.75633269795995,97.76820050619315L79.06460553430516,131.50174025417763L79.37287837065035,122.75125515670148L79.5783935948805,117.85687292261096L79.68115120699555,126.13483409626528L79.78390881911062,133.4777576218102L80.09218165545582,112.22592205453398L80.19493926757089,100.27111765809465L80.60596971603114,108.03248767853422L80.70872732814622,136.24039992390652L81.01700016449142,134.69021799324543L81.11975777660648,131.02929222504403L81.22251538872155,130.7181566928883L81.53078822506674,123.82740552079201L81.63354583718181,98.02945631310683L81.73630344929688,117.81685405505968L81.83906106141194,118.99862646288179L81.94181867352701,92.73481150417356L82.04457628564208,72.83725772731287L82.14733389775714,108.11363721918292L82.2500915098722,96.18584114720556L82.35284912198728,114.84036471381205L82.86663718256261,94.55767926890672L82.96939479467767,131.39220146998474L83.27766763102287,81.22205187620453L83.483182855253,111.22988164198001L83.7914556915982,97.1577318441092L83.99697091582834,134.01264035115167L84.20248614005847,70.93081805474995L84.7162742006338,119.95615895314663L84.81903181274886,67.17105134730829L84.92178942486393,61.435457135119606L85.024547036979,76.98430269572806L85.12730464909406,111.38336848079223L85.23006226120914,98.81807171483663L85.84660793389953,54.61606902501896L86.15488077024473,94.03604894500005L86.25763838235979,67.4249712898242L86.565911218705,116.97329333594467L87.18245689139539,104.85577336569357L87.28521450351045,78.99676633234206L87.59348733985564,92.65867065339748L87.69624495197073,47.656306334100265L87.90176017620087,88.71191336451584L88.00451778831592,107.66567230447195L88.10727540043098,136.73368128492655L88.51830584889126,110.42634195463616L88.62106346100632,82.87056021084368L88.82657868523646,84.5181182022588L89.13485152158165,75.54465541301808L89.23760913369672,55.31851836419341L89.44312435792685,97.4174289216651L89.85415480638711,110.6635361268851L89.95691241850218,65.92858210872126L90.16242764273233,117.1789449855209L90.47070047907752,76.51612505061712L90.57345809119258,107.50848629754515L90.67621570330766,97.23148849142994L90.88173092753777,114.0262131618359L91.19000376388297,70.0385031889435L91.29276137599805,129.14885816093053L91.49827660022818,102.07661212888111L92.14907481029027,122.21659311195047L92.25183242240533,87.49239010272531L92.76562048298067,84.19455805573081L92.86837809509572,113.36217453180612L93.07389331932586,103.06859179594811L93.5876813799012,113.27487427503684L93.79319660413132,85.31954542457113L94.40974227682172,131.74600382011877L94.71801511316691,113.04015266492408L94.820772725282,98.11156372664306L95.02628794951211,116.98382181677381L95.23180317374225,114.46268157642896L95.54007601008745,87.27505199107473L95.64283362220252,94.1419945429932L95.84834884643264,110.6411618133112L96.05386407066278,94.57114934208695L96.15662168277785,59.72989831845625L96.36213690700798,104.06277269145917L96.46489451912305,100.41013121490725L96.5676521312381,94.70994906796457L96.8759249675833,97.17793345289928L96.97868257969839,101.50995913817138L97.08144019181344,96.60612279761351L97.1841978039285,35.13388564413739L97.28695541604358,93.79899740699364L97.80074347661892,131.58318415507406L98.10901631296412,126.58254031182673L98.41728914930931,120.47678690120902L98.62280437353944,128.33625735131844L98.93107720988463,111.55092554669947L99.13659243411477,123.81917207322448L99.23935004622983,118.79369773081538L99.34210765834491,123.22608758100242L99.75313810680517,86.13931419461446L99.85589571892022,109.35505231200516L100.06141094315036,117.81774084620479L100.2669261673805,112.18063894542448L100.67795661584076,86.52677008855903L100.78071422795583,109.32349318360714L100.98622945218597,110.34093258787247L101.08898706430102,123.53380728065213L101.29450228853116,107.27886618828703L101.70553273699142,122.03463231292216L102.01380557333661,55.615878068536645L102.42483602179689,109.43235167423572L102.63035124602702,130.22930673775963L102.73310885814209,113.35974479797827L102.83586647025716,99.90583327988746L102.93862408237221,72.4762595202466L103.04138169448728,125.74559700427855L103.24689691871741,90.44141542851136L103.45241214294755,121.02743375858378L103.65792736717769,124.69541859521296L103.76068497929275,114.16120050835981L104.06895781563794,98.08356099837124L104.47998826409822,122.82965038655337L104.68550348832834,77.35734268215239L104.78826110044342,68.69266383997602L104.99377632467355,92.95144895645387L105.50756438524888,90.35257718899517L105.81583722159408,117.19701153113682L106.0213524458242,134.57829520491762L106.22686767005433,105.0052199197713L106.43238289428447,120.05508875538243L106.63789811851461,109.47182940752674L106.84341334274473,133.4742552350392L107.15168617908994,128.10970622093836L107.254443791205,98.90147600036568L107.5627166275502,110.71878057993818L107.97374707601047,126.28447943148723L108.1792623002406,107.59831758745104L109.00132319716113,126.35997452337494L109.4123536456214,97.37459228546213L109.51511125773645,113.45151788106921L109.82338409408166,116.81691873137434L110.337172154657,121.50591188622158L110.8509602152323,124.99483473837591L110.95371782734739,51.28903801089885L111.46750588792273,48.116887469492866L111.57026350003778,108.34639891715858L111.98129394849805,120.48444871108548L112.39232439695832,120.10824405136427L112.49508200907339,82.95316755344703L112.70059723330351,131.8213861250976L112.80335484541858,129.58892032396372L112.90611245753364,107.82863179981692L113.21438529387883,104.25896073994657L113.31714290599392,126.33676241579806L113.41990051810897,82.46239040647357L113.52265813022403,97.97484690551782L113.72817335445417,117.88603555430186L113.93368857868431,104.92450182606518L114.13920380291444,79.76675069945829L114.24196141502951,132.8821965337532L114.75574947560483,132.62620991102506L114.96126469983497,117.20820651696286L115.37229514829522,128.0085278293477L115.57781037252536,105.1740315511483L115.68056798464042,140.61143027652597L115.98884082098564,108.26111132371038L116.0915984331007,121.00262748655896L116.19435604521576,89.28732374277996L116.29711365733084,119.34771085317422L116.50262888156097,102.49317444119829L116.60538649367604,88.39499397120203L116.91365933002123,136.79419450244364L117.01641694213629,10.294399809373658L117.22193216636643,115.34967559904864L117.3246897784815,134.32200419100351L117.42744739059656,106.46766523497728L117.6329626148267,97.83192463918193L117.73572022694175,73.38535539535044L117.83847783905682,100.77934040994337L118.04399306328695,114.51166025765454L118.14675067540203,108.06752945632228L118.35226589963214,122.14816973425124L118.45502351174723,129.50355510983388L118.55778112386228,110.78318094022329L118.76329634809242,113.15352050282233L119.07156918443762,107.52584203236758L119.17432679655268,103.75369930386604L119.37984202078282,94.60080121591231L119.58535724501294,86.8655241375621L119.79087246924308,116.38310408240716L119.89363008135814,118.3619913683579L120.40741814193348,107.53314302925865L120.71569097827867,68.56320707153675L120.81844859039374,22.089318638441995L120.92120620250881,82.1022133807029L121.02396381462387,123.159685532684L121.22947903885401,119.87097947928012L122.15429754788961,102.03325637881315L122.25705516000467,135.1256202658282L122.87360083269506,104.98484203902728L122.97635844481015,135.14147829785446L123.0791160569252,138.26541639723624L123.59290411750054,115.89245916475699L123.79841934173066,147.60158900390215L123.90117695384573,99.52869803725399L124.00393456596079,144.6001502458464L124.10669217807586,123.74692078306458L124.312207402306,143.14350447455212L124.51772262653613,75.84314635985086L124.9287530749964,120.34564468979393L125.13426829922653,131.52202013135891L125.44254113557173,93.26353743308238L125.54529874768679,122.83129441337631L126.05908680826212,141.91609837553725L126.91540024255434,40.360762489380335L127.12091546678448,99.06886686340043L127.22367307889954,98.33610092468945L127.32643069101461,104.8414200340738L127.53194591524473,122.47193155693806L127.73746113947487,127.90175566583731L128.04573397582007,114.21741286560038L128.45676442428032,123.3855404707898L128.66227964851046,146.07332463635154L128.76503726062552,139.9563385763521L128.8677948727406,131.62586807027623L128.97055248485566,133.90642506776786L129.27882532120086,125.95720679314486L129.3815829333159,106.58372206807489L129.484340545431,97.08410792013865L129.7926133817762,127.17087466051073L130.1008862181214,130.41114289938088L130.20364383023644,35.969728444271965L130.51191666658164,90.64448242772245L130.61467427869673,97.20045507747507L131.43673517561726,118.70743537166841L131.5394927877323,115.5196898580254L131.6422503998474,125.11513871606984L131.74500801196245,112.53796193986983L131.9505232361926,130.87594008762014L132.15603846042274,113.35946797558665L132.2587960725378,113.87567590205266L132.36155368465285,125.65742869037433L133.49188741791858,128.47464791498555L133.69740264214872,142.0526927104504L133.80016025426377,110.44739690998844L134.41670592695417,124.5773354364408L134.51946353906922,122.48998425602872L134.82773637541445,128.1636853726365L134.9304939875295,117.04862157581117L135.2387668238747,109.97733789316801L135.34152443598975,138.33719948141234L135.5470396602199,141.94764562237236L135.75255488445003,100.20078209490268L136.16358533291032,129.9794890770742L136.36910055714043,119.19746916048098L136.4718581692555,123.1510388162072L136.57461578137057,143.64721914817179L136.67737339348562,112.65554379821494L136.7801310056007,133.46482357193196L136.98564622983085,132.00027524060638L137.0884038419459,139.7825137976863L137.29391906617604,82.5945594089704L137.49943429040616,113.55600865013537L137.60219190252124,86.92322949041937L137.7049495146363,120.06870352951543L137.80770712675135,133.8583612338835L138.21873757521163,100.93121216844952L138.3214951873267,133.34635343898552L138.42425279944175,130.68112785624223L138.52701041155683,93.78357526044296L138.6297680236719,117.06851220046423L138.83528324790203,137.65656571269756L139.65734414482256,113.08425504892168L139.96561698116776,124.72809000828329L140.0683745932828,131.39774515884767L140.17113220539787,110.36546839571811L140.376647429628,98.1083322468857L141.19870832654854,130.51637824749167L141.30146593866363,118.95905659066885L141.71249638712388,133.07001885395022L142.02076922346907,116.47944758796896L142.22628444769921,133.58732605114835L142.32904205981427,116.6167282899055L142.8428301203896,114.64708045485989L142.94558773250466,99.16860326537606L143.25386056884986,137.30382527667481L143.45937579308,64.2028804228139L143.56213340519506,108.89562827519356L143.87040624154025,110.1731619722509L144.38419430211562,136.24072916340643L144.58970952634573,98.48043519134046L145.000739974806,126.27623452806009L145.10349758692104,127.70514199286023L145.41177042326623,121.0381977046531L145.6172856474964,104.5517065932958L145.8228008717265,127.80111100466522L146.02831609595665,125.06568094410409L146.1310737080717,127.34297113035113L146.33658893230185,136.71747461928678L146.64486176864705,141.18395530103484L146.7476193807621,97.73064258108192L146.8503769928772,92.97303313881223L146.95313460499224,140.47597768650178L147.05589221710733,124.43209331317308L147.15864982922238,131.83387354248805L147.26140744133744,126.35236679632933L147.36416505345252,131.55426888435056L147.56968027768264,38.85161558306697L148.18622595037303,121.42762419168622L148.2889835624881,131.12304304645602L148.3917411746032,109.20722605696963L148.49449878671822,128.91228036227034L148.5972563988333,132.27659198574915L148.80277162306342,132.0147569109073L148.9055292351785,143.39186524523157L149.11104445940862,113.29336764868529L149.2138020715237,83.60173451833846L149.3165596836388,138.93285179917103L149.72759013209907,140.50373274189195L149.93310535632918,123.5169225136006L150.1386205805593,108.6988313934213L150.96068147747985,121.82042936929957L151.16619670170996,65.50282905333606L151.26895431382505,121.35380117645798L151.6799847622853,124.13703190070922L151.78274237440036,113.72058258397402L151.88549998651544,126.72368169341104L152.09101521074555,133.39667938948688L152.39928804709078,146.29178024863114L152.6048032713209,149.5167077994387L152.70756088343597,136.31548115446287L152.9130761076661,97.10408133998497L153.01583371978117,126.45130127707115L153.22134894401128,100.15315096108277L153.42686416824142,135.44759037152286L153.73513700458665,127.2384613150188L153.94065222881676,118.45531823969442L154.04340984093184,100.04388142437907L154.14616745304687,130.790077309557L154.86547073785235,79.39855786531304L155.0709859620825,116.62002643251327L155.48201641054274,110.39370824447792L155.68753163477288,137.34454896277782L155.89304685900302,129.365909865601L155.99580447111808,130.41585737118288L156.09856208323313,98.81488940076316L156.50959253169341,118.67712959589255L156.61235014380847,125.24418450850514L156.71510775592355,142.19769086602037L156.8178653680386,105.92599559449373L157.22889581649886,127.051588769514L157.33165342861395,148.09582521477398L157.53716865284406,141.01949828827793L157.63992626495914,133.9338000702649L157.94819910130434,110.46835308998757L158.05095671341942,131.96866280564143L158.25647193764954,126.72641550970906L158.46198716187965,116.18413166237961L158.56474477399473,129.38294111357553L158.77025999822484,144.57076931603183L159.07853283457004,136.7013067082133L159.18129044668513,97.47771202545547L159.38680567091527,122.46970539881099L159.48956328303032,96.8243137993246L159.79783611937552,124.45111250280087L159.9005937314906,104.48097631053227L160.1061089557207,143.73787401804475L160.31162417995085,133.87360381640457L160.4143817920659,99.84812303258029L161.44195791321658,93.58321172951685L161.54471552533164,92.75881641305935L162.058503585907,142.93785582180092L162.16126119802203,143.2841144754754L162.4010289596239,118.22972327835785L162.70930179596908,130.12164275115265L162.9148170201992,81.12867787836872L163.12033224442933,84.040726778443L163.2230898565444,130.18759049718864L163.32584746865948,121.70884830456538L163.42860508077453,139.71655399351238L163.63412030500467,143.9716069497796L163.73687791711976,146.49119460425675L164.14790836557998,145.37726624186564L164.25066597769506,118.79883521313344L164.35342358981015,142.26967081341743L164.55893881404026,112.17270689586353L164.76445403827037,121.7892520295785L165.07272687461557,146.51697822274338L165.17548448673065,98.72342231984155L165.48375732307585,120.4214309627739L165.58651493519093,142.16654900549815L165.68927254730602,133.58013612695981L165.79203015942105,120.84682584486364L165.99754538365121,110.91053852105395L166.3058182199964,124.23612496361675L166.71684866845666,125.58656999967553L166.9223638926868,135.9235278321857L167.02512150480186,112.57050642913975L167.230636729032,132.91116024563493L167.4361519532621,148.01912415245016L167.64166717749225,97.31052609799734L168.05269762595253,125.79743447321806L168.66924329864293,125.86827240225537L168.87475852287304,115.17962819832142L168.97751613498812,120.23095334994991L169.18303135921823,110.2888154775697L169.49130419556343,113.31644588341896L169.6968194197936,144.1962853282343L169.79957703190863,115.60847694196619L170.2106074803689,140.29202365693124L170.5188803167141,130.64319151982875L170.6216379288292,139.94175884896492L171.23818360151958,125.98591625873905L171.4436988257497,149.4497323503296L171.95748688632503,83.82181530439159L172.3685173347853,112.16031642918686L172.57403255901542,107.13681386338577L172.77954778324556,139.25314171979542L173.08782061959076,134.43962187964658L173.1905782317058,146.31748729094545L173.498851068051,118.83100227435679L173.6016086801661,128.52402561198875L173.70436629228118,118.71442502431275L173.9098815165113,117.87148766320325L174.01263912862638,85.62867309408598L174.1153967407414,125.23192377162705L174.2181543528565,127.40543468900276L174.52642718920168,144.53681073431676L174.62918480131677,134.08949310666148L174.93745763766196,142.99428034080344L175.14297286189208,128.12563385181664L175.55400331035236,99.92174960139836L175.75951853458247,117.81165318499765L176.06779137092767,131.4033690276558L176.2733065951578,149.69864098900877L176.581579431503,141.1288986954291L176.6843370436181,125.22219652043495L176.8898522678482,123.11405088691592L176.99260987996328,70.87455888847886L177.8146707768838,139.07245160578188L178.02018600111396,113.17867078729905L178.22570122534407,93.03235785445527L178.43121644957418,143.4655003191721L178.63673167380435,88.45079449060972L178.84224689803446,114.39601462883982L178.94500451014954,135.7164245149177L179.15051973437966,133.36594756013687L179.45879257072485,98.62217806616704L179.56155018283994,118.1715811192901L179.66430779495502,137.23661631492095L179.76706540707005,126.73686223828892L180.28085346764541,127.49620651174158L180.38361107976047,134.18622343760498L180.48636869187553,98.42490475159312L181.00015675245086,120.60491240263886L181.10291436456592,101.18593523762911L181.41118720091112,130.97433917276578L181.5139448130262,143.10906149770176L182.23324809783165,136.25597995970554L182.4387633220618,137.521129310326L182.54152093417684,108.41080056352465L183.26082421898232,96.5103955573509L183.56909705532752,145.3576280153971L183.6718546674426,96.44362482555134L183.8773698916727,119.23976961113465L184.1856427280179,103.94517070960123L184.288400340133,131.24187287610397L184.39115795224805,112.92800015821484L184.5966731764782,145.28998916429165L185.00770362493844,141.26854374040497L185.4187340733987,126.49224511402642L185.62424929762884,131.21811906038974L185.72700690974392,107.84620473139675L186.24079497031923,72.48491574200956L186.3435525824343,133.6296825460122L186.54906780666443,141.31065997078633L186.75458303089457,115.81122424625073L186.85734064300962,129.38795719708386L186.9600982551247,136.92864995188543L187.06285586723976,127.79507599154982L187.16561347935482,121.84189800109077L187.2683710914699,136.51876302500727L187.371128703585,135.51074355862204L187.5766439278151,86.02448901366613L187.98767437627538,143.69479344814474L188.0904319883904,121.31082654962754L188.29594721262058,119.44810917448737L188.70697766108083,121.31506370004465L188.80973527319588,135.64375179991595L189.32352333377122,145.03698298347965L190.0428266185767,148.54786515473918L190.14558423069175,126.94774757743919L190.2483418428068,123.31832651185803L190.45385706703695,151.12809944612127L190.556614679152,111.738488497729L190.76212990338215,114.29302536482191L190.8648875154972,108.82053477471771L190.9676451276123,144.2506516332357L191.1731603518424,141.27791213315058L191.27591796395748,149.9028724250467L191.37867557607257,153.23939544801613L191.68694841241776,132.16274720149704L191.99522124876296,125.60491604513845L192.30349408510816,134.600252587181L192.50900930933827,139.42196468510946L192.71452453356844,118.22135065020123L192.92003975779855,116.00297442781506L193.02279736991363,132.03639404392905L193.12555498202866,134.14336967124856L193.43382781837386,122.56894382932097L193.53658543048894,147.69252410966948L193.63934304260403,91.1365799062366L193.94761587894922,128.3909513864361L194.05037349106428,127.10934473512117L194.25588871529442,141.11029383106649L194.35864632740947,134.2034211073426L194.46140393952453,129.12746588138236L194.56416155163961,132.30961088529534L194.76967677586973,130.7340771229514L194.8724343879848,106.15840163303434L194.97519200009987,120.52731978234735L195.07794961221492,133.98826700955618L195.18070722433,132.98770450981993L195.38622244856015,95.44746300995126L195.4889800606752,113.12477937524586L195.69449528490534,118.45040424406659L196.00276812125054,116.2361559658829L196.1055257333656,113.4482440364596L196.51655618182585,116.00241342539596L196.55080871919756,115.99725945756322L196.85908155554276,137.67367449049183L196.9618391676578,122.08051456613205L197.06459677977287,111.11681808899999L197.16735439188795,128.76986780745693L197.3728696161181,132.27982196178462L197.5783848403482,97.07662999732608L197.6811424524633,89.38918699088454L198.09217290092354,134.2063246149093L198.40044573726874,146.21708404803113L198.5032033493838,142.03078985062047L198.60596096149888,121.05253338144766L199.1197490220742,116.77985328212503L199.22250663418927,120.72401080300105L199.83905230687967,141.02714743443403L200.14732514322486,125.42985859928493L200.25008275533995,116.73786855923211L200.352840367455,144.1166778402407L200.45559797957006,135.02802026553007L200.76387081591525,132.97808206334122L201.17490126437553,134.9949016508442L201.38041648860568,127.50222800326202L201.5859317128358,133.27593965568778L201.79144693706593,103.26705658292249L202.20247738552618,95.06678980800169L202.30523499764126,124.78196728266917L202.61350783398646,134.93133134382117L202.71626544610154,118.00137355212897L202.81902305821657,108.69586829366138L203.53832634302205,123.58656521738732L204.66866007628778,81.71814225859826L204.87417530051792,130.4794182003339L204.97693291263298,95.55168723886253L205.07969052474803,80.79142985317043L205.18244813686312,137.88664128973267L205.4907209732083,114.44146036379024L206.21002425801376,103.54564795215094L206.31278187012884,139.70067719705824L206.62105470647404,129.37573887343225L206.7238123185891,79.55716723535342L206.82656993070415,132.0050626203589L206.92932754281924,129.94420167955727L207.03208515493432,141.42568947784383L207.13484276704935,122.10346497732225L207.23760037916443,128.67826876281424L207.34035799127952,102.59718336278978L207.44311560339455,69.40153546019894L207.54587321550963,141.0367541272406L207.85414605185483,115.76666645963155L208.05966127608494,145.73821265938662L208.5734493366603,132.68989294644572L208.6762069487754,123.90931755703059L208.8817221730055,137.65730673881652L209.1899950093507,91.3023990081051L209.29275262146578,68.6785568693168L209.3955102335808,118.37403980656978L209.4982678456959,140.36606502756572L209.70378306992603,117.91448841559222L209.90929829415617,89.66138201829412L210.01205590627123,142.12540030860083L210.42308635473148,132.09158119489126L210.52584396684657,99.82585690528796L210.62860157896162,144.59573135661515L210.73135919107668,143.30300797207224L211.0396320274219,112.61481127246181L211.14238963953696,141.55246622257187L211.3479048637671,85.13869882268688L211.45066247588215,71.26664712870613L211.6561777001123,107.92054915385208L211.75893531222735,113.36032823539112L211.9644505364575,128.42768276060735L212.06720814857255,151.00010227646356L212.1699657606876,123.46802298640073L212.2727233728027,150.30111533451876L212.4782385970328,120.9502096813921L212.68375382126297,135.9352862463384L212.786511433378,100.6771789455071L213.19754188183828,121.10615109687113L213.4030571060684,136.6255415628107L213.60857233029856,130.4798592337465L213.81408755452867,134.19379038029558L214.22511800298895,111.46289843632299L214.43063322721906,109.12136344394236L214.53339083933415,138.2609706317645L214.73890606356426,115.53444254641227L214.9444212877944,125.3664874498086L215.04717889990948,130.45201940971305L215.35545173625468,85.9061696086706L215.5609669604848,145.23780647462297L215.66372457259988,139.76059870925897L215.76648218471493,113.41045812580967L216.07475502106013,134.62952856520184L216.69130069375055,147.28863972211226L217.10233114221077,96.9483121193217L217.51336159067105,116.98920819514979L217.71887681490117,129.61293855964652L217.82163442701625,140.08019977799017L217.92439203913133,131.42229004833183L218.0271496512464,144.02449996927942L218.12990726336145,138.30749913594013L218.74645293605184,146.78360081000068L218.95196816028198,100.67379773556151L219.46575622085732,124.72740382938235L219.56851383297237,118.46956841293766L219.67127144508746,113.51494015325214L219.97954428143265,133.53856185021746L220.0823018935477,141.60021669951178L220.59608995412304,140.5700717156697L220.69884756623813,137.2485203962858L221.00712040258333,123.03024742703113L221.10987801469835,129.3715186858215L221.3496457763002,128.86909225897313L221.55516100053032,121.6608449519892L221.6579186126454,138.15654971134953L221.86343383687552,122.96890499978369L222.1717066732207,113.69381592177179L222.2744642853358,151.3451514959992L222.37722189745088,152.00829597236554L222.4799795095659,129.52221512073675L222.7882523459111,135.1864007024111L222.8910099580262,132.4176376982235L222.99376757014127,123.93582723050422L223.4047980186015,141.85655363597277L223.50755563071658,149.54423770215593L223.81582846706178,112.99763377710325L223.91858607917686,97.45112955420635L224.02134369129195,107.40490699091885L224.22685891552206,141.18332095089562L224.43237413975217,145.295014788045L224.53513175186725,150.18612324730415L224.94616220032754,104.77667627588853L225.15167742455765,79.67403311227162L225.45995026090284,99.93297368479224L225.56270787301793,123.44413465432908L225.97373832147818,152.69131953141235L226.07649593359324,146.10029996541834L226.28201115782338,115.29208145603666L226.7957992183987,130.13710787232532L226.89855683051377,141.97930365401533L227.00131444262885,119.53508691230522L227.1040720547439,136.5856426594726L227.20682966685897,144.10410356853606L227.30958727897405,105.1744361079862L227.51510250320416,144.0734544913414L227.61786011531925,143.96268997640217L227.7206177274343,144.70152049623553L227.82337533954936,135.708690231569L227.92613295166444,135.36498961876157L228.54267862435483,145.70611236433027L228.95370907281512,145.51756503097448L229.05646668493014,129.14521350883177L229.15922429704523,76.37458872514911L229.36473952127537,115.95283283179847L229.77576996973562,131.0487426812906L230.1868004181959,146.61317048534627L230.4950732545411,135.39426909790723L230.70058847877124,129.29182938554806L231.31713415146163,137.73290410473845L231.62540698780683,126.5172866022614L231.83092221203694,119.03718292031681L232.24195266049722,143.1358477513792L232.44746788472733,133.16008455211482L232.8584983331876,116.39918275528854L232.9612559453027,121.65274554899165L233.06401355741772,75.88672270523377L233.475044005878,128.55046044235598L233.98883206645334,122.27804378042991L234.19434729068348,140.4758376097322L234.3998625149136,125.21097132173358L234.50262012702868,116.73695336321903L234.70813535125882,139.80253230053924L234.81089296337387,143.66517280135378L235.3246810239492,149.55433705417752L235.42743863606427,118.51116180259379L235.53019624817932,101.45639887235554L236.2494995329848,144.59019230185618L236.7632875935601,136.56920667568423L237.1743180420204,139.66255080567123L237.48259087836558,112.54925351442365L237.79086371471078,122.38435240229853L237.89362132682587,146.7389024440142L238.71568222374637,124.68626470688915L238.92119744797654,133.178244197554L239.22947028432174,113.28795100652789L239.3322278964368,132.2528576603164L239.53774312066693,142.33474556217215L240.05153118124224,130.29371435276448L240.56531924181758,65.99118270402415L241.0791073023929,126.01476505637311L241.18186491450797,131.22722845234892L241.28462252662305,122.09529028378782L241.49013775085317,141.48266079440864L241.79841058719836,133.55905539755273L242.00392581142853,106.74673521223087L242.10668342354356,63.826193332522365L242.31219864777373,103.97631936105813L242.51771387200384,134.6079458862281L242.62047148411892,141.85452946783985L242.72322909623395,137.80353949131396L242.92874432046412,107.31675788912523L243.13425954469423,89.9655868919188L243.23701715680932,135.10340570650732L243.33977476892437,140.15301133104387L243.44253238103943,117.10300279328285L244.05907805372982,140.9478980536196L244.4701085021901,139.06103407803116L244.7783813385353,139.65212372728058L244.98389656276544,127.83903251908245L245.0866541748805,131.07771345201073L245.60044223545583,117.2388668188586L245.80595745968594,112.12829280658757L246.3197455202613,113.93320923865537L246.52526074449142,88.96212299573298L246.83353358083662,105.93895782004248L246.9362911929517,144.0601723359935L247.1418064171818,102.4718570515865L247.2445640292969,105.8527813080659L247.5528368656421,133.63812925497137L247.8611097019873,133.1418776297583L248.16938253833248,123.91410885653913L248.47765537467768,115.3636618746994L248.68317059890782,123.17320577638249L248.78592821102288,126.14615396079618L248.88868582313793,127.44130756083297L248.99144343525302,143.09263369089507L249.09420104736807,151.05001865637843L249.71074672005847,130.86920834663385L249.9162619442886,131.27166676034685L250.0190195564037,125.80397021348865L250.12177716851872,139.47797158396747L250.2245347806338,142.1879494498074L250.7383228412091,127.98092623075635L250.8410804533242,139.2957912035384L250.94383806543928,128.88237301414836L251.1493532896694,91.62012775359331L251.35486851389956,114.87452978869428L251.4576261260146,126.6020617537419L251.56038373812967,135.918722167839L251.66314135024476,140.75939431347214L251.76589896235978,144.15567290547204L251.86865657447487,141.96049674484476L252.17692941082007,142.2313666727569L252.38244463505018,133.3369798533482L252.48520224716526,115.99965608703742L252.58795985928035,95.36364931901483L253.20450553197074,122.60152504720998L253.3072631440858,120.21448304518267L253.51277836831594,129.6338700451984L253.615535980431,125.08826670302713L253.71829359254605,124.17630971660941L253.82105120466113,130.31270026530083L253.9238088167762,115.56616891636456L254.02656642889127,115.63030990104866L254.33483926523647,111.61394711263176L254.84862732581178,148.35018732694797L254.95138493792686,100.3501324716557L255.36241538638714,134.7721614246323L255.56793061061725,146.40223109083033L256.0132135964492,101.97192528756476L256.3214864327944,147.93155847235593L256.6297592691396,109.99314164161154L256.73251688125464,140.63825132524966L256.83527449336975,130.0810834711571L256.9380321054848,141.49748513131476L257.1435473297149,109.75879725962199L257.24630494183,112.6622625005159" style="fill: none;" fill="none"></path></g></g></g></g><g opacity="0.2"><g><g><g><path stroke="rgb(255, 112, 67)" stroke-width="2px" d="M28.85038574740946,91.38145514873584L29.055900971639595,130.14977051695695L29.364173807984795,106.73334444920694L29.466931420099858,130.127129417265L29.77520425644506,85.93031066342738L30.288992317020387,98.29612130898991L30.49450754125052,102.61604313021456L30.700022765480657,146.19518345415196L31.008295601825854,108.77537346987019L31.316568438171053,136.02995888713917L31.522083662401187,141.50671704540332L32.035871722976516,142.98759359392022L32.13862933509158,118.34036118060759L32.24138694720665,135.4677907857944L32.34414455932171,144.51360866744665L32.44690217143678,108.71657101642516L32.652417395666916,114.25610992201894L32.75517500778198,131.58699482709625L32.85793261989705,73.53402618762297L33.166205456242245,124.16427130747454L33.26896306835731,127.80206187900848L33.577235904702505,96.91147191130817L33.782751128932645,121.31082887159289L33.98826635316278,132.2443001357462L34.09102396527784,115.260691056491L34.296539189507975,122.86822441020658L34.39929680162304,124.17636472636909L34.5020544137381,136.55061004856742L34.60481202585317,92.62704261485227L35.7351457591189,136.04952832779196L36.45444904392436,134.18721860950845L36.86547949238463,56.476211771127964L36.9682371044997,143.11149044755183L37.070994716614756,116.52500077988006L37.48202516507502,124.6521548029591L37.790298001420226,146.41019215546078L37.89305561353529,146.24477340762388L38.30408606199555,128.5285786018152L38.61235889834076,121.05986441951507L38.920631734685955,28.17054674210928L39.331662183146214,85.7404623176515L39.434419795261284,88.65989587998762L39.537177407376355,80.39430912001741L39.63993501949141,129.48179862457908L40.25648069218181,147.3456758244178L40.393490841668566,105.5505080046875L41.010036514358966,117.5497706411015L41.42106696281923,114.26062823337978L41.72933979916443,25.102573693785416L42.03761263550963,146.94395731927077L42.14037024762469,133.13452637676318L42.34588547185483,141.55977747816058L42.654158308200024,87.53130889753096L42.756915920315095,67.90949150384209L42.85967353243016,130.35959455506497L43.06518875666029,130.67831881468913L43.57897681723562,102.96618748923618L44.401037714156146,126.76807208638074L44.81206816261641,80.88128598065654L44.91482577473148,144.02668382683962L45.017583386846546,147.6628048030571L45.53137144742188,130.80917644404659L45.63412905953694,115.56393811798876L45.94240189588215,129.45839951870488L46.35343234434241,102.70491811651083L46.45618995645748,118.2835404426717L46.9699780170328,72.38603821033183L47.07273562914787,132.5334968342841L47.381008465493075,135.8422681341239L47.48376607760814,119.03073141252756L47.5865236897232,118.42950865278637L47.68928130183827,108.10955173881973L47.8947965260684,113.35688669259044L48.305826974528664,141.93071746430627L48.61409981087387,62.64694688353872L48.81961503510399,122.79843829855211L49.025130259334134,106.13302832431117L49.127887871449204,119.70405393678014L49.53891831990946,141.17523053790026L49.744433544139596,118.28738992504822L50.05270638048479,133.72337332314976L50.56649444106012,133.71107182412678L50.97752488952039,116.63414871583484L51.08028250163545,133.667662345899L51.28579772586559,118.74534951634473L51.38855533798065,131.55888914688785L51.49131295009572,102.90939152274414L51.799585786440915,102.04231171887395L52.005101010671055,111.42823161620521L52.416131459131314,138.8552238056252L52.621646683361455,148.12247114683586L52.72440429547651,120.88236216136119L52.82716190759158,135.1957408806993L52.92991951970665,91.2088873621997L53.23819235605185,110.45059685836871L53.34094996816691,136.32252945633144L53.64922280451211,123.92093150581816L53.85473802874225,125.86919565716633L54.265768477202506,73.12487129502787L54.47128370143264,110.37692163002758L55.19058698623811,145.18372328971878L55.396102210468236,139.88725913133206L55.60161743469837,142.50221449141034L56.629193555849035,131.45704383258422L56.7319511679641,71.1937985257215L56.93746639219423,112.7260471945651L57.0402240043093,145.23326865459174L57.24573922853943,72.41012596234545L57.3484968406545,89.88741010066066L57.75952728911476,112.26029450702889L57.96504251334489,122.98385255587625L58.067800125459954,116.17243872793728L58.58158818603529,131.25272896359164L58.78710341026542,122.21455554951591L58.88986102238049,120.48335860646165L58.99261863449556,123.499955680211L59.09537624661062,113.20491883877183L59.19813385872569,144.85011634662095L59.30089147084075,109.82505349504156L59.506406695070886,112.60161527774603L59.71192191930102,122.92233019789492L60.32846759199141,117.3404023975606L60.53398281622155,73.91502090283318L60.63674042833661,114.95039899635825L60.73949804045168,113.96099780268621L60.94501326468182,121.12824351315803L61.253286101027015,79.5769109239614L61.869831773717415,67.91374228360921L62.17810461006261,130.54586095005806L62.38361983429274,131.2787984311144L62.48637744640781,134.10575771636076L62.794650282753004,105.42943509565644L62.89740789486807,106.69264992122669L63.20568073121327,119.15432110025523L63.30843834332833,120.7152985896517L63.411195955443404,111.47385070722568L63.51395356755847,93.28845007460612L63.7194687917886,118.96386337696032L63.82222640390366,48.5061384278811L63.92498401601873,98.80956398025364L64.13049924024887,133.93012074792983L64.23325685236394,112.02514414471403L64.43877207659406,110.32177048740814L65.05531774928446,115.45043040791384L65.15807536139953,114.69228055129243L65.36359058562967,65.6611658986771L65.46634819774472,125.28295962096303L65.67186342197486,121.22922182692639L65.87737864620499,138.91892109637783L66.08289387043513,126.76359836361885L66.1856514825502,112.16115918868402L66.28840909466525,138.43261801901178L66.39116670678033,132.4526626586662L66.90495476735565,105.80546561351623L67.00771237947072,136.86486801686283L67.41874282793098,93.65830259436616L67.52150044004605,66.78715683381678L67.72701566427618,125.86353290509896L67.82977327639125,135.90829146345538L67.93253088850632,62.67893177185627L68.03528850062139,132.2210050699362L68.13804611273645,127.64965804777788L69.37113745811725,103.5468350877037L69.57665268234737,124.9186707674949L69.67941029446244,148.86945403656327L69.78216790657751,132.03900927186532L69.98768313080764,123.52754611438705L70.09044074292271,141.77906173068038L70.19319835503778,107.4680902456654L70.50147119138298,130.30147083918183L70.7069864156131,92.03630313015442L71.11801686407337,134.5167679901013L71.22077447618844,119.89403109406408L71.42628970041856,114.48527550349617L72.04283537310897,131.97744727957382L72.14559298522403,114.2773440036994L72.24835059733911,103.72611593552705L72.55662343368431,114.4410485676209L72.76213865791442,128.66780897919878L72.96765388214456,83.40153267940853L73.07041149425963,141.18271151394728L73.1731691063747,145.310354910753L73.27592671848976,78.82162960053948L73.4814419427199,130.70726176970015L73.68695716695002,119.59025392366763L73.99523000329522,96.77121599614861L74.09798761541029,125.40242734043167L74.30350283964042,108.07455464292826L74.4062604517555,110.78098846805295L74.61177567598561,131.84710985053752L74.92004851233081,81.66038752449838L75.15981627393263,121.50040473148621L75.2625738860477,122.27090067572959L75.36533149816277,93.04193952813512L75.67360433450797,148.63311464494294L76.18739239508331,135.89411724327624L76.29015000719836,110.43389099662664L76.39290761931345,83.72476038752721L76.8039380677737,118.24792406068363L76.90669567988877,139.15663034884386L77.00945329200384,105.82469320824369L77.31772612834904,124.85530541409008L77.42048374046409,119.85863270078202L77.62599896469423,127.30513185222466L77.83151418892436,118.14873919945106L77.93427180103943,99.56004955214345L78.0370294131545,137.69681695904472L78.3453022494997,134.87078660294327L78.44805986161475,107.37129335162132L78.75633269795995,96.64232026514522L79.06460553430516,134.67579322827683L79.37287837065035,121.92790535540722L79.5783935948805,117.39635118067247L79.68115120699555,126.91372322201394L79.78390881911062,134.1686672751985L80.09218165545582,110.22629638846642L80.19493926757089,99.14626735383449L80.60596971603114,108.76276975923206L80.70872732814622,138.8945360870378L81.01700016449142,134.54435842427733L81.11975777660648,130.68482875013666L81.22251538872155,130.68888135835286L81.53078822506674,123.17904162494924L81.63354583718181,95.60207816008614L81.73630344929688,119.67868797826311L81.83906106141194,119.10982167849744L81.94181867352701,90.26359915576118L82.04457628564208,70.96505901307873L82.14733389775714,111.43285892191906L82.2500915098722,95.06353210761033L82.35284912198728,116.59560434918203L82.86663718256261,92.64924278284343L82.96939479467767,134.85803178649758L83.27766763102287,76.50144699101297L83.483182855253,114.05337547114488L83.7914556915982,95.83365648019574L83.99697091582834,137.4803888540025L84.20248614005847,64.9953293047603L84.7162742006338,124.56904660879445L84.81903181274886,62.20440008461455L84.92178942486393,60.895784156729846L85.024547036979,78.44732317517264L85.12730464909406,114.6200420666954L85.23006226120914,97.63577902132222L85.84660793389953,50.45701844370133L86.15488077024473,97.74514990027178L86.25763838235979,64.92108433321029L86.565911218705,121.63538928339148L87.18245689139539,103.7156128433286L87.28521450351045,76.56364313226742L87.59348733985564,93.94414523940488L87.69624495197073,43.42194820340055L87.90176017620087,92.57491358838428L88.00451778831592,109.44906756578072L88.10727540043098,139.46874558724502L88.51830584889126,107.95103431524342L88.62106346100632,80.27778424807983L88.82657868523646,84.67314007016L89.13485152158165,74.70032521621863L89.23760913369672,53.41540262436965L89.44312435792685,101.37859556055193L89.85415480638711,111.90988757070231L89.95691241850218,61.71938512232947L90.16242764273233,122.00118919493531L90.47070047907752,72.69008291232203L90.57345809119258,110.42461656804386L90.67621570330766,96.26450620332719L90.88173092753777,115.60646077852618L91.19000376388297,65.89961581731467L91.29276137599805,134.71066398980457L91.49827660022818,99.52933296175173L92.14907481029027,124.1116022635303L92.25183242240533,84.2251237364306L92.76562048298067,83.88425876028055L92.86837809509572,116.10661109301233L93.07389331932586,102.10004900023281L93.5876813799012,114.23520282339749L93.79319660413132,82.68917531391462L94.40974227682172,136.11435767352916L94.71801511316691,111.2800835190305L94.820772725282,96.70690437358816L95.02628794951211,118.75954850796774L95.23180317374225,114.22546269167005L95.54007601008745,84.71691616575694L95.64283362220252,94.78811824043848L95.84834884643264,112.19359987156868L96.05386407066278,93.05909127586673L96.15662168277785,56.45161868165951L96.36213690700798,108.23413723859075L96.46489451912305,100.06644722477218L96.5676521312381,94.17360807820849L96.8759249675833,97.4101508020288L96.97868257969839,101.9175676818622L97.08144019181344,96.14471150079953L97.1841978039285,29.349845824444884L97.28695541604358,99.31890945470221L97.80074347661892,135.13837021670963L98.10901631296412,126.11202021279033L98.41728914930931,119.90228493915967L98.62280437353944,129.07576988819963L98.93107720988463,109.97156172263247L99.13659243411477,124.97351474421042L99.23935004622983,118.32084128284254L99.34210765834491,123.64313958003532L99.75313810680517,82.64974908386023L99.85589571892022,111.53946530773338L100.06141094315036,118.6140113209763L100.2669261673805,111.65023329611691L100.67795661584076,84.1129487300356L100.78071422795583,111.4684802581959L100.98622945218597,110.43666539833944L101.08898706430102,124.77514997603403L101.29450228853116,105.74940783605136L101.70553273699142,123.42303043843486L102.01380557333661,49.366411038977404L102.42483602179689,114.49604612728837L102.63035124602702,132.18613183126408L102.73310885814209,111.77245560014326L102.83586647025716,98.63992913267103L102.93862408237221,69.89535870697625L103.04138169448728,130.7578103780496L103.24689691871741,87.11957777477396L103.45241214294755,123.90533045047243L103.65792736717769,125.04054627130716L103.76068497929275,113.17001587436707L104.06895781563794,96.57078528955394L104.47998826409822,125.15805704671054L104.68550348832834,73.07876668370767L104.78826110044342,67.87738771259399L104.99377632467355,95.23400422999555L105.50756438524888,90.10804439687105L105.81583722159408,119.72285546267312L106.0213524458242,136.2137332748795L106.22686767005433,102.22263296733959L106.43238289428447,121.47115956486005L106.63789811851461,108.47603038792545L106.84341334274473,135.73268917504586L107.15168617908994,127.60494559160284L107.254443791205,96.15321801462252L107.5627166275502,111.8306932646682L107.97374707601047,127.74908566916032L108.1792623002406,105.84010104632728L109.00132319716113,128.12529454141594L109.4123536456214,94.64730249064759L109.51511125773645,114.96422641632329L109.82338409408166,117.13357570416017L110.337172154657,121.94710817869081L110.8509602152323,125.32311413146702L110.95371782734739,44.35391928161761L111.46750588792273,47.81841378616582L111.57026350003778,114.01350830938972L111.98129394849805,121.62654092364315L112.39232439695832,120.07284623874278L112.49508200907339,79.45717567289901L112.70059723330351,136.419489841905L112.80335484541858,129.37886336674543L112.90611245753364,105.78116482708538L113.21438529387883,103.9230835942695L113.31714290599392,128.4141048054296L113.41990051810897,78.33416721960059L113.52265813022403,99.43444346888523L113.72817335445417,119.75951719959227L113.93368857868431,103.70492644244555L114.13920380291444,77.39961000264408L114.24196141502951,137.87992994923388L114.75574947560483,132.6021236423657L114.96126469983497,115.75749722605548L115.37229514829522,129.02475062241678L115.57781037252536,103.02549032584726L115.68056798464042,143.94580258547836L115.98884082098564,105.2172082274936L116.0915984331007,122.20150099859944L116.19435604521576,86.30317043647253L116.29711365733084,122.17614990294874L116.50262888156097,100.90729902387889L116.60538649367604,87.06846933179318L116.91365933002123,141.34816741894997L117.01641694213629,-1.6082066934754096L117.22193216636643,125.23452649391959L117.3246897784815,136.10714670622028L117.42744739059656,103.84679745574505L117.6329626148267,97.01937136649221L117.73572022694175,71.08513115577767L117.83847783905682,103.35689261044116L118.04399306328695,115.80376037461642L118.14675067540203,107.4611889214048L118.35226589963214,123.47304398359685L118.45502351174723,130.19563732241608L118.55778112386228,109.02174529625556L118.76329634809242,113.3765502647299L119.07156918443762,106.99632305155892L119.17432679655268,103.39877121343812L119.37984202078282,93.7395876102624L119.58535724501294,86.13769719145914L119.79087246924308,119.16046937262234L119.89363008135814,118.54818864034013L120.40741814193348,106.5142360739386L120.71569097827867,64.89645160943164L120.81844859039374,17.71650200250528L120.92120620250881,87.74894089474499L121.02396381462387,127.02286124939118L121.22947903885401,119.56153886594015L122.15429754788961,100.35487105426155L122.25705516000467,138.2393437825495L122.87360083269506,102.1488388360679L122.97635844481015,137.97897361323643L123.0791160569252,138.55935368011023L123.59290411750054,113.78734502690882L123.79841934173066,150.5851613957692L123.90117695384573,95.00542820888228L124.00393456596079,148.84100898757393L124.10669217807586,121.78480072420328L124.312207402306,144.9685659597468L124.51772262653613,69.51072754380677L124.9287530749964,124.5329694779505L125.13426829922653,132.57362657334426L125.44254113557173,89.66372396256621L125.54529874768679,125.6133809563799L126.05908680826212,143.71182391245827L126.91540024255434,30.805227602936696L127.12091546678448,104.59282416773931L127.22367307889954,98.26715358253502L127.32643069101461,105.4535178933813L127.53194591524473,124.13081994968022L127.73746113947487,128.4126581531079L128.04573397582007,112.92982700037022L128.45676442428032,124.24818705070918L128.66227964851046,148.20806143967573L128.76503726062552,139.38077971293856L128.8677948727406,130.84203824147693L128.97055248485566,134.12100701720362L129.27882532120086,125.20924971260047L129.3815829333159,104.7608340086044L129.484340545431,96.19027114035471L129.7926133817762,130.0017958198893L130.1008862181214,130.71602590653936L130.20364383023644,27.08355596818953L130.51191666658164,95.78893411544318L130.61467427869673,97.81731902482599L131.43673517561726,120.7310680908157L131.5394927877323,115.21974881407212L131.6422503998474,126.0179927661703L131.74500801196245,111.3545514335753L131.9505232361926,132.6013953619161L132.15603846042274,111.71130976810868L132.2587960725378,113.92424688856916L132.36155368465285,126.76599623938492L133.49188741791858,128.73972543502558L133.69740264214872,143.33027679404992L133.80016025426377,107.47359446049202L134.41670592695417,125.90684825184005L134.51946353906922,122.29358140973174L134.82773637541445,128.6975347118359L134.9304939875295,116.00278406319958L135.2387668238747,109.31198734972457L135.34152443598975,141.00563284748347L135.5470396602199,142.2873593730535L135.75255488445003,96.27274023126768L136.16358533291032,132.78142430734417L136.36910055714043,118.18296838058271L136.4718581692555,123.52303771160375L136.57461578137057,145.57574377459298L136.67737339348562,109.73947806506803L136.7801310056007,135.42280832088124L136.98564622983085,131.86247310002216L137.0884038419459,140.51475943872447L137.29391906617604,77.2136359106886L137.49943429040616,116.46923035116401L137.60219190252124,84.4173005979297L137.7049495146363,123.18742428155292L137.80770712675135,135.15585637893344L138.21873757521163,97.83303402881349L138.3214951873267,136.39635579048013L138.42425279944175,130.4303517073189L138.52701041155683,90.31181429409862L138.6297680236719,119.25943624514892L138.83528324790203,139.593734861551L139.65734414482256,110.77219955976992L139.96561698116776,125.8236806062101L140.0683745932828,132.0253057091196L140.17113220539787,108.38650143551116L140.376647429628,96.9550349724879L141.19870832654854,133.56571299153117L141.30146593866363,117.87160619407501L141.71249638712388,134.3977461566222L142.02076922346907,114.91840915375191L142.22628444769921,135.1970389043578L142.32904205981427,115.01993243928527L142.8428301203896,114.46175254040264L142.94558773250466,97.71220387993229L143.25386056884986,140.89204091449943L143.45937579308,57.32467335778978L143.56213340519506,113.100854003098L143.87040624154025,110.29336754987335L144.38419430211562,138.693476185769L144.58970952634573,94.92749724648525L145.000739974806,128.8915942030687L145.10349758692104,127.83959061646286L145.41177042326623,120.41089222458109L145.6172856474964,103.0004612589668L145.8228008717265,129.98869172608508L146.02831609595665,124.80829912221321L146.1310737080717,127.5572456992978L146.33658893230185,137.5995394989897L146.64486176864705,141.60421497130875L146.7476193807621,93.64203766432486L146.8503769928772,92.52538060923325L146.95313460499224,144.94562017129533L147.05589221710733,122.92249368942444L147.15864982922238,132.5303211351807L147.26140744133744,125.83660139132971L147.36416505345252,132.04372575477709L147.56968027768264,30.129046454062177L148.18622595037303,129.19735804326308L148.2889835624881,132.03530346386322L148.3917411746032,107.14512511485167L148.49449878671822,130.76636643476033L148.5972563988333,132.59314647110932L148.80277162306342,131.99012035025478L148.9055292351785,144.46235902723583L149.11104445940862,110.46134271071705L149.2138020715237,80.8079922325509L149.3165596836388,144.13906195907433L149.72759013209907,140.6515399203099L149.93310535632918,121.9186012010918L150.1386205805593,107.30456899042849L150.96068147747985,123.05506550269729L151.16619670170996,60.203798826669924L151.26895431382505,126.60892546813028L151.6799847622853,124.39891137804577L151.78274237440036,112.74047903776044L151.88549998651544,127.94716804287665L152.09101521074555,134.02455444622925L152.39928804709078,147.50510483712833L152.6048032713209,149.820147372053L152.70756088343597,135.07335260799906L152.9130761076661,93.41460608391813L153.01583371978117,129.21263706983856L153.22134894401128,97.67870793353902L153.42686416824142,138.76851136637828L153.73513700458665,126.46604873420988L153.94065222881676,117.62889558709279L154.04340984093184,98.31151428420716L154.14616745304687,133.68304541253872L154.86547073785235,74.56303196574524L155.0709859620825,120.12226526925203L155.48201641054274,109.80786211299976L155.68753163477288,139.8804048728148L155.89304685900302,128.61518452385351L155.99580447111808,130.51464893078906L156.09856208323313,95.8414941650344L156.50959253169341,120.54600558799442L156.61235014380847,125.86209120706606L156.71510775592355,143.79287855392658L156.8178653680386,102.51312273524725L157.22889581649886,129.03933604856405L157.33165342861395,150.07591748424045L157.53716865284406,140.35367321641945L157.63992626495914,133.26709323574727L157.94819910130434,108.2604445119746L158.05095671341942,133.99166787735504L158.25647193764954,126.23316248186421L158.46198716187965,115.19218810562872L158.56474477399473,130.62484222167492L158.77025999822484,145.99982098497193L159.07853283457004,135.96085399019097L159.18129044668513,93.78708933101656L159.38680567091527,124.82124963306546L159.48956328303032,94.41129008208627L159.79783611937552,127.05057058649777L159.9005937314906,102.60194817865579L160.1061089557207,147.43163025748248L160.31162417995085,132.94545585432465L160.4143817920659,96.64660077064495L161.44195791321658,92.99373429837522L161.54471552533164,92.68124748831609L162.058503585907,147.65929716660594L162.16126119802203,143.31669461137915L162.4010289596239,115.87230791407765L162.70930179596908,131.24057609323182L162.9148170201992,76.51883654460569L163.12033224442933,84.31472700317649L163.2230898565444,134.5296367551888L163.32584746865948,120.9110673105111L163.42860508077453,141.4109333034133L163.63412030500467,144.37197298286384L163.73687791711976,146.7282674032557L164.14790836557998,145.27245460164065L164.25066597769506,116.29802003975163L164.35342358981015,144.47808641694525L164.55893881404026,109.34082626467136L164.76445403827037,122.69409106841822L165.07272687461557,148.843657054923L165.17548448673065,94.22643565939345L165.48375732307585,122.46303790291851L165.58651493519093,144.2125885587523L165.68927254730602,132.77222419309297L165.79203015942105,119.64872443976489L165.99754538365121,109.97561433084867L166.3058182199964,125.48995476018173L166.71684866845666,125.71363594398741L166.9223638926868,136.89615187331904L167.02512150480186,110.37317618771529L167.230636729032,134.82505108613665L167.4361519532621,149.44066123777412L167.64166717749225,92.53925757208603L168.05269762595253,128.4778219133373L168.66924329864293,125.87493767785408L168.87475852287304,114.17391331698848L168.97751613498812,120.70624214977491L169.18303135921823,109.35334079811162L169.49130419556343,113.60132139206561L169.6968194197936,147.1018282081622L169.79957703190863,112.91859562772215L170.2106074803689,142.6145455579017L170.5188803167141,129.7353145353749L170.6216379288292,140.8166787508311L171.23818360151958,124.67278446140926L171.4436988257497,151.65748747492128L171.95748688632503,77.6467596523668L172.3685173347853,114.82673994858774L172.57403255901542,106.66414294362768L172.77954778324556,142.27502814829785L173.08782061959076,133.9867086342934L173.1905782317058,147.4350982596235L173.498851068051,116.24474657257711L173.6016086801661,129.43606063062805L173.70436629228118,117.79142103028634L173.9098815165113,117.79217408217983L174.01263912862638,82.59488528998962L174.1153967407414,128.9582690213738L174.2181543528565,127.60994446897465L174.52642718920168,146.14873451976206L174.62918480131677,133.1064851023088L174.93745763766196,143.83214872388464L175.14297286189208,126.72661459792947L175.55400331035236,97.26799243998046L175.75951853458247,119.4949482705442L176.06779137092767,132.68223944611157L176.2733065951578,151.42007795692604L176.581579431503,140.32255532863712L176.6843370436181,123.72550463088407L176.8898522678482,122.9156914509393L176.99260987996328,65.95924563698478L177.8146707768838,145.48932116123927L178.02018600111396,110.74227565558186L178.22570122534407,91.13675291766691L178.43121644957418,148.21085070425485L178.63673167380435,83.2743560866093L178.84224689803446,116.8372497840781L178.94500451014954,137.7225024691876L179.15051973437966,133.14478670881175L179.45879257072485,95.3530706520736L179.56155018283994,120.01102166914632L179.66430779495502,139.030481770965L179.76706540707005,125.74892038862771L180.28085346764541,127.56765466000955L180.38361107976047,134.8156998660779L180.48636869187553,95.06005419689178L181.00015675245086,122.69187154704798L181.10291436456592,99.35876670787985L181.41118720091112,133.77718680780055L181.5139448130262,144.2508406223675L182.23324809783165,135.6111604714477L182.4387633220618,137.64016962121588L182.54152093417684,105.67175431382562L183.26082421898232,95.39066379528202L183.56909705532752,149.95375710882377L183.6718546674426,91.84121314685689L183.8773698916727,121.38470227148494L184.1856427280179,102.50607278232347L184.288400340133,133.81027154822567L184.39115795224805,111.2048130097045L184.5966731764782,148.33499031803632L185.00770362493844,140.89015828476573L185.4187340733987,125.10191504633653L185.62424929762884,131.6627855367434L185.72700690974392,105.64709681860312L186.24079497031923,69.15770474300814L186.3435525824343,139.3829100571109L186.54906780666443,142.03337775911302L186.75458303089457,113.41193379514564L186.85734064300962,130.6654178467246L186.9600982551247,137.63816808855165L187.06285586723976,126.93568062985523L187.16561347935482,121.281752150785L187.2683710914699,137.89973719574778L187.371128703585,135.41589708804312L187.5766439278151,81.36823311556303L187.98767437627538,149.12110218049173L188.0904319883904,119.20467649134255L188.29594721262058,119.27284255056827L188.70697766108083,121.49072900551283L188.80973527319588,136.9919653410417L189.32352333377122,145.92080998762242L190.0428266185767,148.8782107419693L190.14558423069175,124.9153513940171L190.2483418428068,122.97682737439635L190.45385706703695,153.74477392352458L190.556614679152,108.03224501680808L190.76212990338215,114.53338660176938L190.8648875154972,108.3056177170055L190.9676451276123,147.5843387774726L191.1731603518424,140.99820141432417L191.27591796395748,150.71441135841985L191.37867557607257,153.55333525105266L191.68694841241776,130.1796052439471L191.99522124876296,124.98787722736293L192.30349408510816,135.44664092702308L192.50900930933827,139.87564875559286L192.71452453356844,116.22654451562565L192.92003975779855,115.79424318588374L193.02279736991363,133.5450090187494L193.12555498202866,134.34161901911452L193.43382781837386,121.47988406738907L193.53658543048894,150.05644960650753L193.63934304260403,85.81512344945847L193.94761587894922,131.8962861208969L194.05037349106428,126.98875592547884L194.25588871529442,142.42766978538955L194.35864632740947,133.55354030401625L194.46140393952453,128.64985959097473L194.56416155163961,132.6090249666263L194.76967677586973,130.58583215187747L194.8724343879848,103.84602954098526L194.97519200009987,121.87931864541181L195.07794961221492,135.25483316003755L195.18070722433,132.893559679429L195.38622244856015,91.91523022112337L195.4889800606752,114.7880717247156L195.69449528490534,118.95150242647205L196.00276812125054,116.02781313008006L196.1055257333656,113.18592409561671L196.51655618182585,116.24274008562412L196.55080871919756,115.99677451091812L196.85908155554276,139.71324964676302L196.9618391676578,120.61332446384L197.06459677977287,110.08522301565934L197.16735439188795,130.43087686192882L197.3728696161181,132.61008023013494L197.5783848403482,93.76429464837264L197.6811424524633,88.66586084367013L198.09217290092354,138.4232544132311L198.40044573726874,147.34719926821546L198.5032033493838,141.6368934600545L198.60596096149888,119.07864929353863L199.1197490220742,116.37782867759358L199.22250663418927,121.0951240927115L199.83905230687967,142.93750821157104L200.14732514322486,123.9622799999164L200.25008275533995,115.92002266924902L200.352840367455,146.6928021270752L200.45559797957006,134.17285117206717L200.76387081591525,132.78519947538908L201.17490126437553,135.18466804529197L201.38041648860568,126.797228075809L201.5859317128358,133.81919917659437L201.79144693706593,100.44346364609777L202.20247738552618,94.29521109613825L202.30523499764126,127.57792490063568L202.61350783398646,135.88630432988143L202.71626544610154,116.40840159361088L202.81902305821657,107.8202955888165L203.53832634302205,124.98765923865693L204.66866007628778,77.77866263665531L204.87417530051792,135.06745948150376L204.97693291263298,92.26527054008075L205.07969052474803,79.40260913635477L205.18244813686312,143.25883842708973L205.4907209732083,112.23545865741055L206.21002425801376,102.52044021976475L206.31278187012884,143.10257272776067L206.62105470647404,128.4042457707716L206.7238123185891,74.86964298931976L206.82656993070415,136.93998494323688L206.92932754281924,129.75029135033526L207.03208515493432,142.50600452232158L207.13484276704935,120.28540008996464L207.23760037916443,129.29690456757606L207.34035799127952,100.14316438641987L207.44311560339455,66.27809375382824L207.54587321550963,147.7770482250148L207.85414605185483,113.38895580381713L208.05966127608494,148.55829249875086L208.5734493366603,131.46215170430904L208.6762069487754,123.0831365028843L208.8817221730055,138.9508812132515L209.1899950093507,86.94077749296159L209.29275262146578,66.54983649301943L209.3955102335808,123.04998240241635L209.4982678456959,142.43533654726554L209.70378306992603,115.80197683065819L209.90929829415617,87.00299345137111L210.01205590627123,147.0618396663321L210.42308635473148,131.14748005290107L210.52584396684657,96.78991348197738L210.62860157896162,148.808214073042L210.73135919107668,143.18137316783734L211.0396320274219,109.72730042326434L211.14238963953696,144.2752652660177L211.3479048637671,79.83062005201938L211.45066247588215,69.96139937631843L211.6561777001123,111.36938457416123L211.75893531222735,113.87216740498889L211.9644505364575,129.84539883190774L212.06720814857255,153.123984200275L212.1699657606876,120.87747723263114L212.2727233728027,152.8258920762454L212.4782385970328,118.18852709258587L212.68375382126297,137.34526062772284L212.786511433378,97.35967650801093L213.19754188183828,123.02835197763405L213.4030571060684,138.08579055632362L213.60857233029856,129.90160028374703L213.81408755452867,134.54324123215906L214.22511800298895,109.32410554006297L214.43063322721906,108.90104395888247L214.53339083933415,141.00277174571715L214.73890606356426,113.3960602539174L214.9444212877944,126.29160327222883L215.04717889990948,130.93052679324893L215.35545173625468,81.71476579806925L215.5609669604848,150.820433138159L215.66372457259988,139.2452378035464L215.76648218471493,110.9311232350256L216.07475502106013,136.62607129801117L216.69130069375055,148.47975959026795L217.10233114221077,92.21169486129108L217.51336159067105,118.87489425917737L217.71887681490117,130.80072938168888L217.82163442701625,141.06508431275773L217.92439203913133,130.60765083963312L218.0271496512464,145.21026589181938L218.12990726336145,137.7695756439629L218.74645293605184,147.58113335263658L218.95196816028198,96.33523858413726L219.46575622085732,126.99065341807884L219.56851383297237,117.88075676543849L219.67127144508746,113.04874974807386L219.97954428143265,135.42262253505226L220.0823018935477,142.35875315141473L220.59608995412304,140.4731434130325L220.69884756623813,136.93598930934158L221.00712040258333,121.69242305574458L221.10987801469835,129.96818097056547L221.3496457763002,128.8218179999918L221.55516100053032,120.98260724039115L221.6579186126454,139.70866197535935L221.86343383687552,121.5398705958508L222.1717066732207,112.82110513324989L222.2744642853358,154.88783733777552L222.37722189745088,152.07069249858822L222.4799795095659,127.40645696620712L222.7882523459111,135.7193547068137L222.8910099580262,132.15711951621023L222.99376757014127,123.13775753660505L223.4047980186015,143.54274889950702L223.50755563071658,150.26758653114032L223.81582846706178,109.5588942392974L223.91858607917686,95.98832937568432L224.02134369129195,108.34147685914344L224.22685891552206,144.36159622502907L224.43237413975217,145.68189188869582L224.53513175186725,150.64633695353643L224.94616220032754,100.50401496347962L225.15167742455765,77.31207762860525L225.45995026090284,101.83917597060929L225.56270787301793,125.65634454861811L225.97373832147818,155.44324283494535L226.07649593359324,145.4801383869988L226.28201115782338,112.39327752626988L226.7957992183987,131.5339046686063L226.89855683051377,143.09355839933846L227.00131444262885,117.4232678315754L227.1040720547439,138.18996190920606L227.20682966685897,144.81152986851356L227.30958727897405,101.51146958543994L227.51510250320416,147.73353718386718L227.61786011531925,143.95226793232695L227.7206177274343,144.77103846637303L227.82337533954936,134.8625377121365L227.92613295166444,135.3326501737928L228.54267862435483,146.6791282900621L228.95370907281512,145.49982425343774L229.05646668493014,127.60470778574174L229.15922429704523,71.4093001787632L229.36473952127537,119.67682516568452L229.77576996973562,132.46914557741349L230.1868004181959,148.077657127741L230.4950732545411,134.33866130871712L230.70058847877124,128.71763921567617L231.31713415146163,138.5271408945091L231.62540698780683,125.46198780005895L231.83092221203694,118.33336572486031L232.24195266049722,145.40333700244196L232.44746788472733,132.221446001637L232.8584983331876,114.82211759716267L232.9612559453027,122.14706327356329L233.06401355741772,71.58051049017558L233.475044005878,133.505691783048L233.98883206645334,121.68786015578479L234.19434729068348,142.1881026746337L234.3998625149136,123.77467099266589L234.50262012702868,115.93961688134567L234.70813535125882,141.97281653315363L234.81089296337387,144.02861599946104L235.3246810239492,150.10845973004496L235.42743863606427,115.59025034566139L235.53019624817932,99.85168376075764L236.2494995329848,148.64873304029936L236.7632875935601,135.81449686840764L237.1743180420204,139.95360944372254L237.48259087836558,109.99811175616621L237.79086371471078,123.3097555799323L237.89362132682587,149.0304684216811L238.71568222374637,122.61129004015746L238.92119744797654,133.97727071418112L239.22947028432174,111.41643545463705L239.3322278964368,134.03730183124182L239.53774312066693,143.28336958794853L240.05153118124224,129.16075080352044L240.56531924181758,59.94083508718427L241.0791073023929,131.66249818799457L241.18186491450797,131.71767905634664L241.28462252662305,121.23604883685539L241.49013775085317,143.30685539387625L241.79841058719836,132.81350828143718L242.00392581142853,104.2239129628461L242.10668342354356,59.78771783837037L242.31219864777373,107.75412115367746L242.51771387200384,137.49013394001872L242.62047148411892,142.5363743124992L242.72322909623395,137.42237413247236L242.92874432046412,104.44819856988208L243.13425954469423,88.3329821810219L243.23701715680932,139.35050900853642L243.33977476892437,140.6281383372913L243.44253238103943,114.93418360920468L244.05907805372982,143.1915096426666L244.4701085021901,138.8834954545075L244.7783813385353,139.7077404776476L244.98389656276544,126.72751627848612L245.0866541748805,131.38244710653134L245.60044223545583,115.93674339385743L245.80595745968594,111.64742916867148L246.3197455202613,114.10303726180399L246.52526074449142,86.61254595318232L246.83353358083662,107.53634052780025L246.9362911929517,147.6470699819145L247.1418064171818,98.5587332939727L247.2445640292969,106.17089890769088L247.5528368656421,136.25250553881588L247.8611097019873,133.09518436961793L248.16938253833248,123.04585052557977L248.47765537467768,114.55913404052191L248.68317059890782,123.90802062927608L248.78592821102288,126.42588431512833L248.88868582313793,127.56317102867011L248.99144343525302,144.56529676221385L249.09420104736807,151.79874415641297L249.71074672005847,128.97035748597958L249.9162619442886,131.3095348386612L250.0190195564037,125.28950423643197L250.12177716851872,140.76458440438452L250.2245347806338,142.4429364262431L250.7383228412091,126.64416036988283L250.8410804533242,140.36042838916123L250.94383806543928,127.9025546724771L251.1493532896694,88.11405216014941L251.35486851389956,117.06258074604514L251.4576261260146,127.70552756226937L251.56038373812967,136.79534448251334L251.66314135024476,141.21486237093873L251.76589896235978,144.4752352237565L251.86865657447487,141.75394844089078L252.17692941082007,142.25685333993465L252.38244463505018,132.50009006508873L252.48520224716526,114.36835428845676L252.58795985928035,93.4219681570346L253.20450553197074,125.16438862776226L253.3072631440858,119.98988171895253L253.51277836831594,130.52015809990448L253.615535980431,124.66056223100664L253.71829359254605,124.09050194764671L253.82105120466113,130.8900849339961L253.9238088167762,114.17863970847779L254.02656642889127,115.63634504840405L254.33483926523647,111.23603989183981L254.84862732581178,151.806770104225L254.95138493792686,95.83371593166102L255.36241538638714,138.0109956587198L255.56793061061725,147.4965264861181L256.0132135964492,97.79139323167763L256.3214864327944,152.2559878529818L256.6297592691396,106.42344377788723L256.73251688125464,143.5217080350887L256.83527449336975,129.08773944987485L256.9380321054848,142.57167609715017L257.1435473297149,106.77244369620232L257.24630494183,112.93545507241619" style="fill: none;" fill="none"></path></g></g></g></g></g></g><g transform="translate(46, 177)" clip-path="url(#clip_1)"><clipPath id="clip_1"><rect width="284" height="23"></rect></clipPath><g><g><line x1="24.671576188063437" y1="0" x2="24.671576188063437" y2="5" style="visibility: inherit;" fill="rgb(0, 0, 0)" stroke="rgb(204, 204, 204)" stroke-width="1px"></line><line x1="58.92411355975218" y1="0" x2="58.92411355975218" y2="5" style="visibility: inherit;" fill="rgb(0, 0, 0)" stroke="rgb(204, 204, 204)" stroke-width="1px"></line><line x1="93.17665093144093" y1="0" x2="93.17665093144093" y2="5" style="visibility: inherit;" fill="rgb(0, 0, 0)" stroke="rgb(204, 204, 204)" stroke-width="1px"></line><line x1="127.42918830312968" y1="0" x2="127.42918830312968" y2="5" style="visibility: inherit;" fill="rgb(0, 0, 0)" stroke="rgb(204, 204, 204)" stroke-width="1px"></line><line x1="161.6817256748184" y1="0" x2="161.6817256748184" y2="5" style="visibility: inherit;" fill="rgb(0, 0, 0)" stroke="rgb(204, 204, 204)" stroke-width="1px"></line><line x1="195.93426304650717" y1="0" x2="195.93426304650717" y2="5" style="visibility: inherit;" fill="rgb(0, 0, 0)" stroke="rgb(204, 204, 204)" stroke-width="1px"></line><line x1="230.1868004181959" y1="0" x2="230.1868004181959" y2="5" style="visibility: inherit;" fill="rgb(0, 0, 0)" stroke="rgb(204, 204, 204)" stroke-width="1px"></line><line x1="264.43933778988463" y1="0" x2="264.43933778988463" y2="5" style="visibility: inherit;" fill="rgb(0, 0, 0)" stroke="rgb(204, 204, 204)" stroke-width="1px"></line></g><g transform="translate(0, 8)"><text x="24.671576188063437" y="0" dx="0em" dy="0.95em" style="text-anchor: middle; visibility: inherit; font-family: &quot;Helvetica Neue&quot;, sans-serif; font-size: 12px; font-weight: 200;" fill="rgb(50, 49, 63)" stroke="none" stroke-width="1px">300k</text><text x="58.92411355975218" y="0" dx="0em" dy="0.95em" style="text-anchor: middle; visibility: inherit; font-family: &quot;Helvetica Neue&quot;, sans-serif; font-size: 12px; font-weight: 200;" fill="rgb(50, 49, 63)" stroke="none" stroke-width="1px">400k</text><text x="93.17665093144093" y="0" dx="0em" dy="0.95em" style="text-anchor: middle; visibility: inherit; font-family: &quot;Helvetica Neue&quot;, sans-serif; font-size: 12px; font-weight: 200;" fill="rgb(50, 49, 63)" stroke="none" stroke-width="1px">500k</text><text x="127.42918830312968" y="0" dx="0em" dy="0.95em" style="text-anchor: middle; visibility: inherit; font-family: &quot;Helvetica Neue&quot;, sans-serif; font-size: 12px; font-weight: 200;" fill="rgb(50, 49, 63)" stroke="none" stroke-width="1px">600k</text><text x="161.6817256748184" y="0" dx="0em" dy="0.95em" style="text-anchor: middle; visibility: inherit; font-family: &quot;Helvetica Neue&quot;, sans-serif; font-size: 12px; font-weight: 200;" fill="rgb(50, 49, 63)" stroke="none" stroke-width="1px">700k</text><text x="195.93426304650717" y="0" dx="0em" dy="0.95em" style="text-anchor: middle; visibility: inherit; font-family: &quot;Helvetica Neue&quot;, sans-serif; font-size: 12px; font-weight: 200;" fill="rgb(50, 49, 63)" stroke="none" stroke-width="1px">800k</text><text x="230.1868004181959" y="0" dx="0em" dy="0.95em" style="text-anchor: middle; visibility: inherit; font-family: &quot;Helvetica Neue&quot;, sans-serif; font-size: 12px; font-weight: 200;" fill="rgb(50, 49, 63)" stroke="none" stroke-width="1px">900k</text><text x="264.43933778988463" y="0" dx="0em" dy="0.95em" style="text-anchor: middle; visibility: inherit; font-family: &quot;Helvetica Neue&quot;, sans-serif; font-size: 12px; font-weight: 200;" fill="rgb(50, 49, 63)" stroke="none" stroke-width="1px">1M</text></g><line x1="0" y1="0" x2="284" y2="0" fill="rgb(0, 0, 0)" stroke="rgb(204, 204, 204)" stroke-width="1px"></line></g></g></g></g></svg>