<svg viewBox="0 0 330 200" xmlns="http://www.w3.org/2000/svg"><g><g><g><g><g><line x1="46" y1="175.61403505897687" x2="41" y2="175.61403505897687" style="visibility: inherit;" fill="rgb(0, 0, 0)" stroke="rgb(204, 204, 204)" stroke-width="1px"></line><line x1="46" y1="159.3798216080815" x2="41" y2="159.3798216080815" style="visibility: inherit;" fill="rgb(0, 0, 0)" stroke="rgb(204, 204, 204)" stroke-width="1px"></line><line x1="46" y1="143.14560815718608" x2="41" y2="143.14560815718608" style="visibility: inherit;" fill="rgb(0, 0, 0)" stroke="rgb(204, 204, 204)" stroke-width="1px"></line><line x1="46" y1="126.9113947062907" x2="41" y2="126.9113947062907" style="visibility: inherit;" fill="rgb(0, 0, 0)" stroke="rgb(204, 204, 204)" stroke-width="1px"></line><line x1="46" y1="110.6771812553953" x2="41" y2="110.6771812553953" style="visibility: inherit;" fill="rgb(0, 0, 0)" stroke="rgb(204, 204, 204)" stroke-width="1px"></line><line x1="46" y1="94.4429678044999" x2="41" y2="94.4429678044999" style="visibility: inherit;" fill="rgb(0, 0, 0)" stroke="rgb(204, 204, 204)" stroke-width="1px"></line><line x1="46" y1="78.2087543536045" x2="41" y2="78.2087543536045" style="visibility: inherit;" fill="rgb(0, 0, 0)" stroke="rgb(204, 204, 204)" stroke-width="1px"></line><line x1="46" y1="61.97454090270911" x2="41" y2="61.97454090270911" style="visibility: inherit;" fill="rgb(0, 0, 0)" stroke="rgb(204, 204, 204)" stroke-width="1px"></line><line x1="46" y1="45.74032745181373" x2="41" y2="45.74032745181373" style="visibility: inherit;" fill="rgb(0, 0, 0)" stroke="rgb(204, 204, 204)" stroke-width="1px"></line><line x1="46" y1="29.50611400091833" x2="41" y2="29.50611400091833" style="visibility: inherit;" fill="rgb(0, 0, 0)" stroke="rgb(204, 204, 204)" stroke-width="1px"></line><line x1="46" y1="13.271900550022934" x2="41" y2="13.271900550022934" style="visibility: inherit;" fill="rgb(0, 0, 0)" stroke="rgb(204, 204, 204)" stroke-width="1px"></line></g><g transform="translate(36, 0)"><text x="0" y="175.61403505897687" dx="0em" dy="0.3em" style="text-anchor: end; visibility: hidden; font-family: &quot;Helvetica Neue&quot;, sans-serif; font-size: 12px; font-weight: 200;" fill="rgb(50, 49, 63)" stroke="none" stroke-width="1px">0</text><text x="0" y="159.3798216080815" dx="0em" dy="0.3em" style="text-anchor: end; visibility: inherit; font-family: &quot;Helvetica Neue&quot;, sans-serif; font-size: 12px; font-weight: 200;" fill="rgb(50, 49, 63)" stroke="none" stroke-width="1px">100</text><text x="0" y="143.14560815718608" dx="0em" dy="0.3em" style="text-anchor: end; visibility: hidden; font-family: &quot;Helvetica Neue&quot;, sans-serif; font-size: 12px; font-weight: 200;" fill="rgb(50, 49, 63)" stroke="none" stroke-width="1px">200</text><text x="0" y="126.9113947062907" dx="0em" dy="0.3em" style="text-anchor: end; visibility: inherit; font-family: &quot;Helvetica Neue&quot;, sans-serif; font-size: 12px; font-weight: 200;" fill="rgb(50, 49, 63)" stroke="none" stroke-width="1px">300</text><text x="0" y="110.6771812553953" dx="0em" dy="0.3em" style="text-anchor: end; visibility: hidden; font-family: &quot;Helvetica Neue&quot;, sans-serif; font-size: 12px; font-weight: 200;" fill="rgb(50, 49, 63)" stroke="none" stroke-width="1px">400</text><text x="0" y="94.4429678044999" dx="0em" dy="0.3em" style="text-anchor: end; visibility: inherit; font-family: &quot;Helvetica Neue&quot;, sans-serif; font-size: 12px; font-weight: 200;" fill="rgb(50, 49, 63)" stroke="none" stroke-width="1px">500</text><text x="0" y="78.2087543536045" dx="0em" dy="0.3em" style="text-anchor: end; visibility: hidden; font-family: &quot;Helvetica Neue&quot;, sans-serif; font-size: 12px; font-weight: 200;" fill="rgb(50, 49, 63)" stroke="none" stroke-width="1px">600</text><text x="0" y="61.97454090270911" dx="0em" dy="0.3em" style="text-anchor: end; visibility: inherit; font-family: &quot;Helvetica Neue&quot;, sans-serif; font-size: 12px; font-weight: 200;" fill="rgb(50, 49, 63)" stroke="none" stroke-width="1px">700</text><text x="0" y="45.74032745181373" dx="0em" dy="0.3em" style="text-anchor: end; visibility: hidden; font-family: &quot;Helvetica Neue&quot;, sans-serif; font-size: 12px; font-weight: 200;" fill="rgb(50, 49, 63)" stroke="none" stroke-width="1px">800</text><text x="0" y="29.50611400091833" dx="0em" dy="0.3em" style="text-anchor: end; visibility: inherit; font-family: &quot;Helvetica Neue&quot;, sans-serif; font-size: 12px; font-weight: 200;" fill="rgb(50, 49, 63)" stroke="none" stroke-width="1px">900</text><text x="0" y="13.271900550022934" dx="0em" dy="0.3em" style="text-anchor: end; visibility: hidden; font-family: &quot;Helvetica Neue&quot;, sans-serif; font-size: 12px; font-weight: 200;" fill="rgb(50, 49, 63)" stroke="none" stroke-width="1px">1e+3</text></g><line x1="46" y1="0" x2="46" y2="177" fill="rgb(0, 0, 0)" stroke="rgb(204, 204, 204)" stroke-width="1px"></line></g></g><g transform="translate(46, 0)" clip-path="url(#clip_0)"><clipPath id="clip_0"><rect width="284" height="177"></rect></clipPath><g><g><g><line x1="24.671576188063437" y1="0" x2="24.671576188063437" y2="177" fill="rgb(0, 0, 0)" stroke="rgb(60, 60, 60)" stroke-width="1px" opacity="0.25"></line><line x1="58.92411355975218" y1="0" x2="58.92411355975218" y2="177" fill="rgb(0, 0, 0)" stroke="rgb(60, 60, 60)" stroke-width="1px" opacity="0.25"></line><line x1="93.17665093144093" y1="0" x2="93.17665093144093" y2="177" fill="rgb(0, 0, 0)" stroke="rgb(60, 60, 60)" stroke-width="1px" opacity="0.25"></line><line x1="127.42918830312968" y1="0" x2="127.42918830312968" y2="177" fill="rgb(0, 0, 0)" stroke="rgb(60, 60, 60)" stroke-width="1px" opacity="0.25"></line><line x1="161.6817256748184" y1="0" x2="161.6817256748184" y2="177" fill="rgb(0, 0, 0)" stroke="rgb(60, 60, 60)" stroke-width="1px" opacity="0.25"></line><line x1="195.93426304650717" y1="0" x2="195.93426304650717" y2="177" fill="rgb(0, 0, 0)" stroke="rgb(60, 60, 60)" stroke-width="1px" opacity="0.25"></line><line x1="230.1868004181959" y1="0" x2="230.1868004181959" y2="177" fill="rgb(0, 0, 0)" stroke="rgb(60, 60, 60)" stroke-width="1px" opacity="0.25"></line><line x1="264.43933778988463" y1="0" x2="264.43933778988463" y2="177" fill="rgb(0, 0, 0)" stroke="rgb(60, 60, 60)" stroke-width="1px" opacity="0.25"></line></g><g><line x1="0" y1="175.61403505897687" x2="284" y2="175.61403505897687" fill="rgb(0, 0, 0)" stroke="rgb(60, 60, 60)" stroke-width="1px" opacity="0.25"></line><line x1="0" y1="159.3798216080815" x2="284" y2="159.3798216080815" fill="rgb(0, 0, 0)" stroke="rgb(60, 60, 60)" stroke-width="1px" opacity="0.25"></line><line x1="0" y1="143.14560815718608" x2="284" y2="143.14560815718608" fill="rgb(0, 0, 0)" stroke="rgb(60, 60, 60)" stroke-width="1px" opacity="0.25"></line><line x1="0" y1="126.9113947062907" x2="284" y2="126.9113947062907" fill="rgb(0, 0, 0)" stroke="rgb(60, 60, 60)" stroke-width="1px" opacity="0.25"></line><line x1="0" y1="110.6771812553953" x2="284" y2="110.6771812553953" fill="rgb(0, 0, 0)" stroke="rgb(60, 60, 60)" stroke-width="1px" opacity="0.25"></line><line x1="0" y1="94.4429678044999" x2="284" y2="94.4429678044999" fill="rgb(0, 0, 0)" stroke="rgb(60, 60, 60)" stroke-width="1px" opacity="0.25"></line><line x1="0" y1="78.2087543536045" x2="284" y2="78.2087543536045" fill="rgb(0, 0, 0)" stroke="rgb(60, 60, 60)" stroke-width="1px" opacity="0.25"></line><line x1="0" y1="61.97454090270911" x2="284" y2="61.97454090270911" fill="rgb(0, 0, 0)" stroke="rgb(60, 60, 60)" stroke-width="1px" opacity="0.25"></line><line x1="0" y1="45.74032745181373" x2="284" y2="45.74032745181373" fill="rgb(0, 0, 0)" stroke="rgb(60, 60, 60)" stroke-width="1px" opacity="0.25"></line><line x1="0" y1="29.50611400091833" x2="284" y2="29.50611400091833" fill="rgb(0, 0, 0)" stroke="rgb(60, 60, 60)" stroke-width="1px" opacity="0.25"></line><line x1="0" y1="13.271900550022934" x2="284" y2="13.271900550022934" fill="rgb(0, 0, 0)" stroke="rgb(60, 60, 60)" stroke-width="1px" opacity="0.25"></line></g></g></g><g><g><line x1="0" y1="175.61403505897687" x2="284" y2="175.61403505897687" fill="rgb(0, 0, 0)" stroke="rgb(153, 153, 153)" stroke-width="1.5px"></line></g></g><g><g><line x1="-78.08603592700278" y1="0" x2="-78.08603592700278" y2="177" fill="rgb(0, 0, 0)" stroke="rgb(153, 153, 153)" stroke-width="1.5px"></line></g></g><g><g><g><g><g><path stroke="rgb(255, 112, 67)" stroke-width="2px" d="M28.85038574740946,91.38145514873584L29.055900971639595,110.86302066040477L29.364173807984795,109.47260410500344L29.466931420099858,114.71433858728844L29.77520425644506,108.84123978487588L30.288992317020387,107.03926688714158L30.49450754125052,106.3881670992349L30.700022765480657,111.54082503776019L31.008295601825854,111.22105589450048L31.316568438171053,113.81564294446241L31.522083662401187,116.46141135820463L32.035871722976516,118.79615169044621L32.13862933509158,118.75893791539694L32.24138694720665,120.03195275956246L32.34414455932171,121.7813716580705L32.44690217143678,120.90183721605065L32.652417395666916,120.47869558741196L32.75517500778198,121.14994773121691L32.85793261989705,118.41074594876324L33.166205456242245,118.72671215213151L33.26896306835731,119.20367899126015L33.577235904702505,118.07990657956871L33.782751128932645,118.23645434600644L33.98826635316278,118.89004357122587L34.09102396527784,118.72669067173385L34.296539189507975,118.90679114114467L34.39929680162304,119.12852108183415L34.5020544137381,119.838812925335L34.60481202585317,118.76251676892211L35.7351457591189,119.42663649064019L36.45444904392436,119.97802864301103L36.86547949238463,117.66903677171882L36.9682371044997,118.5703901455013L37.070994716614756,118.49972467059047L37.48202516507502,118.7071899314779L37.790298001420226,119.61971326487213L37.89305561353529,120.47706254098881L38.30408606199555,120.73069721121155L38.61235889834076,120.7408482039955L38.920631734685955,117.94440095641613L39.331662183146214,116.99082600492126L39.434419795261284,116.16806751049688L39.537177407376355,115.14857402657196L39.63993501949141,115.54962858462743L40.25648069218181,116.42359171753787L40.393490841668566,116.12986460177969L41.010036514358966,116.16758045352782L41.42106696281923,116.11775283150513L41.72933979916443,113.77732562849954L42.03761263550963,114.61700008755813L42.14037024762469,115.07873312901415L42.34588547185483,115.72931940415123L42.654158308200024,115.04649804686629L42.756915920315095,113.9210628350799L42.85967353243016,114.3081749414579L43.06518875666029,114.68852321304811L43.57897681723562,114.4197207538771L44.401037714156146,114.699263537668L44.81206816261641,113.94324457055089L44.91482577473148,114.60756786801764L45.017583386846546,115.32880200641654L45.53137144742188,115.66262373870015L45.63412905953694,115.66051999137956L45.94240189588215,115.95136690048776L46.35343234434241,115.67520330090312L46.45618995645748,115.72899865698216L46.9699780170328,114.8444741739714L47.07273562914787,115.20174580610036L47.381008465493075,115.61442174498214L47.48376607760814,115.6820498351452L47.5865236897232,115.7359099886032L47.68928130183827,115.58782784376916L47.8947965260684,115.54491345524215L48.305826974528664,116.04782593421106L48.61409981087387,115.03914569972257L48.81961503510399,115.18441836990769L49.025130259334134,115.01641987148673L49.127887871449204,115.10268630791674L49.53891831990946,115.57850056287816L49.744433544139596,115.62753229470212L50.05270638048479,115.95244073261897L50.56649444106012,116.268778187897L50.97752488952039,116.27523613697126L51.08028250163545,116.58030702003617L51.28579772586559,116.6179986159586L51.38855533798065,116.87619412540386L51.49131295009572,116.63657664517814L51.799585786440915,116.38797334476789L52.005101010671055,116.30407769214276L52.416131459131314,116.68291789652847L52.621646683361455,117.20750905550918L52.72440429547651,117.2684193476378L52.82716190759158,117.56362183558326L52.92991951970665,117.1324366090698L53.23819235605185,117.02380716416752L53.34094996816691,117.33560347139311L53.64922280451211,117.44134713793824L53.85473802874225,117.57586219041346L54.265768477202506,116.87059356998161L54.47128370143264,116.76816449729048L55.19058698623811,117.21380928686014L55.396102210468236,117.5673904120643L55.60161743469837,117.95407324164361L56.629193555849035,118.16232682462957L56.7319511679641,117.44184772948489L56.93746639219423,117.3698933779529L57.0402240043093,117.79281292791825L57.24573922853943,117.10752808756335L57.3484968406545,116.69858620703141L57.75952728911476,116.63224074774908L57.96504251334489,116.72671980201423L58.067800125459954,116.71851497030073L58.58158818603529,116.93263160261529L58.78710341026542,117.010077925932L58.88986102238049,117.06076863200369L58.99261863449556,117.15431538455059L59.09537624661062,117.09719823994689L59.19813385872569,117.49678471709848L59.30089147084075,117.38681080650724L59.506406695070886,117.31851132602705L59.71192191930102,117.39815476049704L60.32846759199141,117.39733740668882L60.53398281622155,116.78448876145694L60.63674042833661,116.7587441296768L60.73949804045168,116.71963079637815L60.94501326468182,116.78102017709304L61.253286101027015,116.2649829901217L61.869831773717415,115.59691594873999L62.17810461006261,115.80267949683224L62.38361983429274,116.01490039954092L62.48637744640781,116.26205903295283L62.794650282753004,116.11460291711859L62.89740789486807,115.98681078567893L63.20568073121327,116.02961992307573L63.30843834332833,116.09272539818451L63.411195955443404,116.0307345889199L63.51395356755847,115.72654668184312L63.7194687917886,115.76970152870658L63.82222640390366,114.87602515873519L63.92498401601873,114.66326230784318L64.13049924024887,114.91758228912963L64.23325685236394,114.87952426908751L64.43877207659406,114.81974319257384L65.05531774928446,114.82798980513701L65.15807536139953,114.82622076632586L65.36359058562967,114.18726893415337L65.46634819774472,114.33103841602168L65.67186342197486,114.42015626336256L65.87737864620499,114.73573538750821L66.08289387043513,114.890226307646L66.1856514825502,114.8552724476334L66.28840909466525,115.15640523891588L66.39116670678033,115.37670449384672L66.90495476735565,115.25513010840587L67.00771237947072,115.52887846631499L67.41874282793098,115.25256301997214L67.52150044004605,114.64185401688871L67.72701566427618,114.7828907374923L67.82977327639125,115.04771963863821L67.93253088850632,114.392883031144L68.03528850062139,114.61525486072927L68.13804611273645,114.77743310588247L69.37113745811725,114.6380388317081L69.57665268234737,114.76533507953422L69.67941029446244,115.18661358898146L69.78216790657751,115.39429783134048L69.98768313080764,115.49429735244685L70.09044074292271,115.8167324792374L70.19319835503778,115.7145513539894L70.50147119138298,115.89268543155949L70.7069864156131,115.60199652932849L71.11801686407337,115.83196965413923L71.22077447618844,115.88125140289509L71.42628970041856,115.86435117639033L72.04283537310897,116.05901254448796L72.14559298522403,116.03753300909239L72.24835059733911,115.88941287847246L72.55662343368431,115.8720227557175L72.76213865791442,116.02535064919488L72.96765388214456,115.63520320951649L73.07041149425963,115.94012789531905L73.1731691063747,116.29000178568924L73.27592671848976,115.84451046666743L73.4814419427199,116.02089222888696L73.68695716695002,116.06317221082017L73.99523000329522,115.83507506103496L74.09798761541029,115.94798811934166L74.30350283964042,115.85523367863473L74.4062604517555,115.79556185025527L74.61177567598561,115.98399236766741L74.92004851233081,115.58176409643173L75.15981627393263,115.65100390941433L75.2625738860477,115.72831611524595L75.36533149816277,115.46381133918761L75.67360433450797,115.84989795900889L76.18739239508331,116.08282823451239L76.29015000719836,116.0172891755883L76.39290761931345,115.64322999600452L76.8039380677737,115.6733536630285L76.90669567988877,115.94451677553354L77.00945329200384,115.82784293600734L77.31772612834904,115.9317637666322L77.42048374046409,115.97690020903747L77.62599896469423,116.1069155433411L77.83151418892436,116.13031520946342L77.93427180103943,115.9406938677246L78.0370294131545,116.1893005582655L78.3453022494997,116.4024692593334L78.44805986161475,116.29956245399583L78.75633269795995,116.07588761684033L79.06460553430516,116.28723988395495L79.37287837065035,116.35124798428751L79.5783935948805,116.36309145259989L79.68115120699555,116.48249574739859L79.78390881911062,116.68239152029487L80.09218165545582,116.60951721093954L80.19493926757089,116.4126512061951L80.60596971603114,116.32652252642436L80.70872732814622,116.58029239943329L81.01700016449142,116.78204128921855L81.11975777660648,116.9379872894903L81.22251538872155,117.09204205141475L81.53078822506674,117.16015429868955L81.63354583718181,116.91921062515824L81.73630344929688,116.9500156608581L81.83906106141194,116.97409833351L81.94181867352701,116.67660816308253L82.04457628564208,116.16807088488724L82.14733389775714,116.11545122855732L82.2500915098722,115.88177344357646L82.35284912198728,115.88968830999502L82.86663718256261,115.63228122794295L82.96939479467767,115.84499341464985L83.27766763102287,115.41016214851935L83.483182855253,115.39518248280311L83.7914556915982,115.179437048297L83.99697091582834,115.42514295252235L84.20248614005847,114.87008569415048L84.7162742006338,114.9767302577711L84.81903181274886,114.39705111520036L84.92178942486393,113.80994297049742L85.024547036979,113.42226083147926L85.12730464909406,113.43537953208275L85.23006226120914,113.26249905494558L85.84660793389953,112.57592333232691L86.15488077024473,112.41394749975743L86.25763838235979,111.89572685556504L86.565911218705,112.00190486088648L87.18245689139539,111.91165230620337L87.28521450351045,111.5269922402946L87.59348733985564,111.33582281982223L87.69624495197073,110.59807322376469L87.90176017620087,110.40245614945201L88.00451778831592,110.3921172288656L88.10727540043098,110.70716958900908L88.51830584889126,110.6773311134926L88.62106346100632,110.34849118513652L88.82657868523646,110.07098092927166L89.13485152158165,109.68898845902541L89.23760913369672,109.0817362340972L89.44312435792685,108.99867680684181L89.85415480638711,109.03004251023499L89.95691241850218,108.52070659127386L90.16242764273233,108.66572339108367L90.47070047907752,108.27900703460602L90.57345809119258,108.30205376709964L90.67621570330766,108.17285009881557L90.88173092753777,108.25257945375475L91.19000376388297,107.79865114517398L91.29276137599805,108.08688038904809L91.49827660022818,107.99529358371392L92.14907481029027,108.16765664764725L92.25183242240533,107.91177035927603L92.76562048298067,107.65515228945634L92.86837809509572,107.74535400984041L93.07389331932586,107.68514265392687L93.5876813799012,107.75495741472838L93.79319660413132,107.48796601418516L94.40974227682172,107.79268514151202L94.71801511316691,107.82978350671043L94.820772725282,107.71153558690851L95.02628794951211,107.82891352830157L95.23180317374225,107.89683029316134L95.54007601008745,107.65086440457861L95.64283362220252,107.51445905155053L95.84834884643264,107.56404987261337L96.05386407066278,107.41041424923579L96.15662168277785,106.87098115270813L96.36213690700798,106.88540262969283L96.46489451912305,106.81330343493953L96.5676521312381,106.6797361063974L96.8759249675833,106.58183724575765L96.97868257969839,106.53260413545227L97.08144019181344,106.42301690415078L97.1841978039285,105.61037887087168L97.28695541604358,105.54407941938923L97.80074347661892,105.85577611526146L98.10901631296412,106.06900795751046L98.41728914930931,106.21455035277019L98.62280437353944,106.45495206292682L98.93107720988463,106.4919126121178L99.13659243411477,106.68606034015826L99.23935004622983,106.80822108693077L99.34210765834491,106.9848930193225L99.75313810680517,106.72963710730988L99.85589571892022,106.78006363389919L100.06141094315036,106.90407142219912L100.2669261673805,106.95378258149451L100.67795661584076,106.7146616985465L100.78071422795583,106.76440613472883L100.98622945218597,106.80281519983515L101.08898706430102,106.99070599249237L101.29450228853116,106.97773480338597L101.70553273699142,107.14950590814442L102.01380557333661,106.54622996836524L102.42483602179689,106.62919232697071L102.63035124602702,106.89578219745486L102.73310885814209,106.9466298885435L102.83586647025716,106.8600552174584L102.93862408237221,106.47496181418285L103.04138169448728,106.72783170729464L103.24689691871741,106.5237251937479L103.45241214294755,106.70458003612227L103.65792736717769,106.8952877344553L103.76068497929275,106.96052343524188L104.06895781563794,106.85254853227013L104.47998826409822,107.0427131040676L104.68550348832834,106.69001971379461L104.78826110044342,106.2871307410675L104.99377632467355,106.1724389667375L105.50756438524888,106.0058109400458L105.81583722159408,106.14803808419126L106.0213524458242,106.45966367962156L106.22686767005433,106.415763623889L106.43238289428447,106.57169692411738L106.63789811851461,106.59141363830979L106.84341334274473,106.89302420887631L107.15168617908994,107.10731644551068L107.254443791205,106.99402103755882L107.5627166275502,107.04402834833168L107.97374707601047,107.25802944240557L108.1792623002406,107.24337908931578L109.00132319716113,107.459064051182L109.4123536456214,107.32677752525682L109.51511125773645,107.40561156567455L109.82338409408166,107.50599165842567L110.337172154657,107.65495795110095L110.8509602152323,107.83715506791064L110.95371782734739,107.18270913844016L111.46750588792273,106.5709142057401L111.57026350003778,106.64759244254873L111.98129394849805,106.80186820556065L112.39232439695832,106.93851179195285L112.49508200907339,106.65563621645889L112.70059723330351,106.96191673672037L112.80335484541858,107.19252804208699L112.90611245753364,107.17801300508415L113.21438529387883,107.14454749661682L113.31714290599392,107.36316859606666L113.41990051810897,107.06487444001765L113.52265813022403,106.98648781143248L113.72817335445417,107.11766802331213L113.93368857868431,107.08262831065413L114.13920380291444,106.77794468730139L114.24196141502951,107.09710896255098L114.75574947560483,107.35876938017222L114.96126469983497,107.44491107596356L115.37229514829522,107.6661883079486L115.57781037252536,107.61861519432857L115.68056798464042,107.99092195947833L115.98884082098564,107.96250204342374L116.0915984331007,108.10836120718932L116.19435604521576,107.88505111355447L116.29711365733084,108.031373026283L116.50262888156097,107.95844935451734L116.60538649367604,107.74466518247122L116.91365933002123,108.08847678937268L117.01641694213629,106.96638342241583L117.22193216636643,107.153206463016L117.3246897784815,107.44924296025277L117.42744739059656,107.41241840072718L117.6329626148267,107.30620322122073L117.73572022694175,106.93611136015146L117.83847783905682,106.89954834601392L118.04399306328695,106.99048850752615L118.14675067540203,106.99529482266557L118.35226589963214,107.16351339007477L118.45502351174723,107.39859537363532L118.55778112386228,107.41515895455272L118.76329634809242,107.47598007057638L119.07156918443762,107.47108735892705L119.17432679655268,107.42955627526537L119.37984202078282,107.28996827732995L119.58535724501294,107.07433422049371L119.79087246924308,107.19752079847886L119.89363008135814,107.3131889551749L120.40741814193348,107.30504883393695L120.71569097827867,106.87305080825374L120.81844859039374,105.96502104068303L120.92120620250881,105.77953058287882L121.02396381462387,105.99580735437577L121.22947903885401,106.1338940757524L122.15429754788961,106.07507944740071L122.25705516000467,106.40236556042692L122.87360083269506,106.35909157168206L122.97635844481015,106.6807260434828L123.0791160569252,107.00493671738629L123.59290411750054,107.073903145065L123.79841934173066,107.51626971655084L123.90117695384573,107.38909675545169L124.00393456596079,107.81038677386638L124.10669217807586,107.95239034624866L124.312207402306,108.32847620222634L124.51772262653613,107.93414939892871L124.9287530749964,108.10274039575407L125.13426829922653,108.35124747402854L125.44254113557173,108.16150113069507L125.54529874768679,108.33867397528188L126.05908680826212,108.69773034667048L126.91540024255434,107.90719882872403L127.12091546678448,107.87356623016734L127.22367307889954,107.77609958670304L127.32643069101461,107.7525381174261L127.53194591524473,107.91866386654917L127.73746113947487,108.12650576529393L128.04573397582007,108.17521223255467L128.45676442428032,108.33817199934771L128.66227964851046,108.74234649984307L128.76503726062552,109.05289596880586L128.8677948727406,109.27371949312518L128.97055248485566,109.52550211402718L129.27882532120086,109.68440755332391L129.3815829333159,109.63452920215072L129.484340545431,109.49834967570028L129.7926133817762,109.70600627418433L130.1008862181214,109.9187661826711L130.20364383023644,109.0800339364993L130.51191666658164,108.94547428210169L130.61467427869673,108.8328263426582L131.43673517561726,108.95325491621108L131.5394927877323,109.01667379974576L131.6422503998474,109.1887117811018L131.74500801196245,109.21062551095712L131.9505232361926,109.44726287680724L132.15603846042274,109.47016488392677L132.2587960725378,109.51521502658927L132.36155368465285,109.68967550962411L133.49188741791858,109.88231053977215L133.69740264214872,110.22050010551794L133.80016025426377,110.19272945441924L134.41670592695417,110.35157852271827L134.51946353906922,110.47228334284159L134.82773637541445,110.65647682017027L134.9304939875295,110.71050351303609L135.2387668238747,110.69637240623503L135.34152443598975,111.00259604220813L135.5470396602199,111.3186428307409L135.75255488445003,111.16666076417911L136.16358533291032,111.38497428239269L136.36910055714043,111.45362852921602L136.4718581692555,111.57550771904792L136.57461578137057,111.91881486103959L136.67737339348562,111.8968118028743L136.7801310056007,112.1343125274816L136.98564622983085,112.33345419610295L137.0884038419459,112.61789749464994L137.29391906617604,112.26058384157318L137.49943429040616,112.30305522400299L137.60219190252124,112.0216730177568L137.7049495146363,112.13433123136605L137.80770712675135,112.36658891075825L138.21873757521163,112.21997697847918L138.3214951873267,112.46384259675952L138.42425279944175,112.64505389441841L138.52701041155683,112.4198188727382L138.6297680236719,112.48879185493692L138.83528324790203,112.7621040887791L139.65734414482256,112.74204059511766L139.96561698116776,112.87392718016923L140.0683745932828,113.06699191028756L140.17113220539787,113.01981178405302L140.376647429628,112.85788912976614L141.19870832654854,113.06659415993076L141.30146593866363,113.11501795437684L141.71249638712388,113.32948366395523L142.02076922346907,113.34549400800556L142.22628444769921,113.56565794558705L142.32904205981427,113.58030929622568L142.8428301203896,113.58918889201018L142.94558773250466,113.4292571114608L143.25386056884986,113.70587452332671L143.45937579308,113.13801904786756L143.56213340519506,113.13764475891472L143.87040624154025,113.1090020929111L144.38419430211562,113.36662678799433L144.58970952634573,113.18096556861445L145.000739974806,113.33914297008334L145.10349758692104,113.48512610146933L145.41177042326623,113.55484648654678L145.6172856474964,113.44860457358347L145.8228008717265,113.61508838538012L146.02831609595665,113.7277459772711L146.1310737080717,113.86692830821633L146.33658893230185,114.10576183699854L146.64486176864705,114.3824754030967L146.7476193807621,114.1737800405042L146.8503769928772,113.95596210309989L146.95313460499224,114.26774900987412L147.05589221710733,114.35481907291927L147.15864982922238,114.53766057929381L147.26140744133744,114.65131861545679L147.36416505345252,114.82626155043917L147.56968027768264,113.97437766101359L148.18622595037303,114.12748139313084L148.2889835624881,114.30757733580029L148.3917411746032,114.23554985666215L148.49449878671822,114.40177868813328L148.5972563988333,114.58469532688898L148.80277162306342,114.75969955729997L148.9055292351785,115.05833101046804L149.11104445940862,115.01211524558748L149.2138020715237,114.66826291075733L149.3165596836388,114.96451569038307L149.72759013209907,115.22271885095955L149.93310535632918,115.29002163625167L150.1386205805593,115.20976102679091L150.96068147747985,115.2886090179742L151.16619670170996,114.7350157187031L151.26895431382505,114.85434061571578L151.6799847622853,114.95025247307015L151.78274237440036,114.92804789948227L151.88549998651544,115.05886223119214L152.09101521074555,115.24941778212553L152.39928804709078,115.57348763042427L152.6048032713209,115.91754445544129L152.70756088343597,116.1099830921461L152.9130761076661,115.8819965398981L153.01583371978117,116.01590347944256L153.22134894401128,115.83171374620181L153.42686416824142,116.06209435289493L153.73513700458665,116.16658860479527L153.94065222881676,116.18127494333217L154.04340984093184,116.00181194178899L154.14616745304687,116.17937399116822L154.86547073785235,115.7614636866389L155.0709859620825,115.8052529130336L155.48201641054274,115.74503228938639L155.68753163477288,115.98736890695156L155.89304685900302,116.11415615645933L155.99580447111808,116.25873581467265L156.09856208323313,116.05375671722868L156.50959253169341,116.0988549119295L156.61235014380847,116.1968653122879L156.71510775592355,116.47388324990692L156.8178653680386,116.33374587522684L157.22889581649886,116.46127907698747L157.33165342861395,116.79867555871473L157.53716865284406,117.03509273197028L157.63992626495914,117.19800433377765L157.94819910130434,117.10830626351256L158.05095671341942,117.27774292720537L158.25647193764954,117.3676137864343L158.46198716187965,117.34578337848615L158.56474477399473,117.47903413813061L158.77025999822484,117.76522044569782L159.07853283457004,117.94779474030193L159.18129044668513,117.70537537462364L159.38680567091527,117.77677096094014L159.48956328303032,117.5423462614153L159.79783611937552,117.63773865672945L159.9005937314906,117.48689521470453L160.1061089557207,117.7872998428036L160.31162417995085,117.93936111995095L160.4143817920659,117.72576641455086L161.44195791321658,117.47767901171711L161.54471552533164,117.22895333182237L162.058503585907,117.53418174997051L162.16126119802203,117.79278271940498L162.4010289596239,117.77352076053823L162.70930179596908,117.90858847286722L162.9148170201992,117.49348256399085L163.12033224442933,117.1607360566208L163.2230898565444,117.33492203528904L163.32584746865948,117.37078478519263L163.42860508077453,117.61186039799136L163.63412030500467,117.88020439915134L163.73687791711976,118.16947783675704L164.14790836557998,118.44124498444938L164.25066597769506,118.41975500979242L164.35342358981015,118.68103313675368L164.55893881404026,118.58738452009544L164.76445403827037,118.62855890103583L165.07272687461557,118.93149154001213L165.17548448673065,118.68380827476537L165.48375732307585,118.72169638831134L165.58651493519093,118.97724511807561L165.68927254730602,119.1155376845137L165.79203015942105,119.12088266780387L165.99754538365121,119.02920727719575L166.3058182199964,119.09397050819791L166.71684866845666,119.16032515025115L166.9223638926868,119.33810246520983L167.02512150480186,119.24824350954292L167.230636729032,119.40437228060456L167.4361519532621,119.70542371693003L167.64166717749225,119.43314554459084L168.05269762595253,119.52379551158506L168.66924329864293,119.58744819188462L168.87475852287304,119.53319364494834L168.97751613498812,119.54494969997225L169.18303135921823,119.44281368179045L169.49130419556343,119.38427396604325L169.6968194197936,119.6620357096846L169.79957703190863,119.59446012036483L170.2106074803689,119.82513812026478L170.5188803167141,119.92444323784585L170.6216379288292,120.1337899987777L171.23818360151958,120.17927122483188L171.4436988257497,120.49468008683155L171.95748688632503,120.06535637106062L172.3685173347853,120.01286799080427L172.57403255901542,119.87912288927049L172.77954778324556,120.10351021867552L173.08782061959076,120.24260503127488L173.1905782317058,120.51503959807461L173.498851068051,120.47225743692911L173.6016086801661,120.56206011680925L173.70436629228118,120.53430334443499L173.9098815165113,120.50683268825671L174.01263912862638,120.12703756396218L174.1153967407414,120.21550568827908L174.2181543528565,120.28957922956033L174.52642718920168,120.54861792173807L174.62918480131677,120.67441156067234L174.93745763766196,120.90638137843445L175.14297286189208,120.96468135611117L175.55400331035236,120.72732089209772L175.75951853458247,120.71497690260446L176.06779137092767,120.83484432874614L176.2733065951578,121.14118953871878L176.581579431503,121.33330920375647L176.6843370436181,121.35726893933256L176.8898522678482,121.37287753098752L176.99260987996328,120.81788347602055L177.8146707768838,121.0649759122083L178.02018600111396,120.96159231122593L178.22570122534407,120.66289599696668L178.43121644957418,120.93878512587435L178.63673167380435,120.56158645050508L178.84224689803446,120.52428881409351L178.94500451014954,120.69651904739314L179.15051973437966,120.82117950101032L179.45879257072485,120.56613833803257L179.56155018283994,120.56057940155912L179.66430779495502,120.74553435361995L179.76706540707005,120.79563684918753L180.28085346764541,120.86344899393814L180.38361107976047,121.00315908234904L180.48636869187553,120.7433827364641L181.00015675245086,120.76289329884693L181.10291436456592,120.5485728253028L181.41118720091112,120.68102979886879L181.5139448130262,120.91702923892103L182.23324809783165,121.06415652962204L182.4387633220618,121.23012435662534L182.54152093417684,121.07434766296332L183.26082421898232,120.81719542180184L183.56909705532752,121.1089152610194L183.6718546674426,120.8158859856641L183.8773698916727,120.82158092602285L184.1856427280179,120.63820979843635L184.288400340133,120.77008423543168L184.39115795224805,120.67432094102116L184.5966731764782,120.95124421270498L185.00770362493844,121.1508592708108L185.4187340733987,121.19041414773271L185.62424929762884,121.2952541546789L185.72700690974392,121.138600552057L186.24079497031923,120.61822585863828L186.3435525824343,120.80607488205489L186.54906780666443,121.01857433632784L186.75458303089457,120.94242760531583L186.85734064300962,121.03975915402273L186.9600982551247,121.20591502977987L187.06285586723976,121.2632713927828L187.16561347935482,121.26345638782064L187.2683710914699,121.42998625526435L187.371128703585,121.56998440244347L187.5766439278151,121.16757123037732L187.98767437627538,121.44737890023069L188.0904319883904,121.4249302434867L188.29594721262058,121.40338881573794L188.70697766108083,121.40426304332064L188.80973527319588,121.56028595223223L189.32352333377122,121.80411690168927L190.0428266185767,122.07510618059094L190.14558423069175,122.10353442446669L190.2483418428068,122.11227520480433L190.45385706703695,122.42888171952194L190.556614679152,122.2847885056274L190.76212990338215,122.20720687357041L190.8648875154972,122.06807093649371L190.9676451276123,122.32345175227313L191.1731603518424,122.51035730060053L191.27591796395748,122.79263415409463L191.37867557607257,123.10049631984266L191.68694841241776,123.17134554140476L191.99522124876296,123.18952562599202L192.30349408510816,123.31219542753556L192.50900930933827,123.47796193377337L192.71452453356844,123.40539056055718L192.92003975779855,123.32921965106765L193.02279736991363,123.43145652186517L193.12555498202866,123.54064164798113L193.43382781837386,123.52001845796649L193.53658543048894,123.78558182188618L193.63934304260403,123.40559526825874L193.94761587894922,123.49056459795634L194.05037349106428,123.52557197158602L194.25588871529442,123.7147291452768L194.35864632740947,123.81318743916646L194.46140393952453,123.8615883164272L194.56416155163961,123.94912383765399L194.76967677586973,124.01553685477857L194.8724343879848,123.81370358138479L194.97519200009987,123.79434661036817L195.07794961221492,123.90902843870404L195.18070722433,123.99893348292832L195.38622244856015,123.6778852827992L195.4889800606752,123.58892922201073L195.69449528490534,123.5425250393742L196.00276812125054,123.4673299301387L196.1055257333656,123.36445087010657L196.51655618182585,123.29318918751267L196.55080871919756,123.22017982949211L196.85908155554276,123.38521170216126L196.9618391676578,123.35747599615324L197.06459677977287,123.2246736706843L197.16735439188795,123.2967785943431L197.3728696161181,123.3899664893617L197.5783848403482,123.09353694829454L197.6811424524633,122.74906136140181L198.09217290092354,122.90589290739481L198.40044573726874,123.15044431328795L198.5032033493838,123.33541239450122L198.60596096149888,123.2928211491681L199.1197490220742,123.22363324746377L199.22250663418927,123.20233658315098L199.83905230687967,123.39979452654435L200.14732514322486,123.4054223786361L200.25008275533995,123.3305288926284L200.352840367455,123.56427363855991L200.45559797957006,123.67041426472164L200.76387081591525,123.76160877260362L201.17490126437553,123.87589725144156L201.38041648860568,123.90512521535527L201.5859317128358,124.00431519406779L201.79144693706593,123.76859083233985L202.20247738552618,123.47371356732629L202.30523499764126,123.51477545886308L202.61350783398646,123.63854976953021L202.71626544610154,123.56621413935588L202.81902305821657,123.40868132898763L203.53832634302205,123.42447841721483L204.66866007628778,122.96781107764595L204.87417530051792,123.08886245618042L204.97693291263298,122.78048809353504L205.07969052474803,122.34651642234925L205.18244813686312,122.55573169965571L205.4907209732083,122.45248399329286L206.21002425801376,122.25307756035986L206.31278187012884,122.46166156558286L206.62105470647404,122.52111253600785L206.7238123185891,122.04439836085108L206.82656993070415,122.19341595910493L206.92932754281924,122.26901571799456L207.03208515493432,122.4714678054026L207.13484276704935,122.4495983376261L207.23760037916443,122.51809865888043L207.34035799127952,122.29426113319377L207.44311560339455,121.73388089984982L207.54587321550963,121.99441316979323L207.85414605185483,121.90832568844542L208.05966127608494,122.17492624782588L208.5734493366603,122.26783331018369L208.6762069487754,122.27598936723489L208.8817221730055,122.44279953775157L209.1899950093507,122.08765021192451L209.29275262146578,121.53207212831072L209.3955102335808,121.54725664114308L209.4982678456959,121.75621114413696L209.70378306992603,121.69664800155826L209.90929829415617,121.34959147587041L210.01205590627123,121.60680198828649L210.42308635473148,121.70224110640888L210.52584396684657,121.45303423620234L210.62860157896162,121.72667690737191L210.73135919107668,121.94129442865916L211.0396320274219,121.81911472190438L211.14238963953696,122.04374860940754L211.3479048637671,121.62148262092452L211.45066247588215,121.10471858915837L211.6561777001123,121.00733480176895L211.75893531222735,120.9359610357994L211.9644505364575,121.02508272334245L212.06720814857255,121.34616914480175L212.1699657606876,121.34148081762396L212.2727233728027,121.6564185703296L212.4782385970328,121.62172944461076L212.68375382126297,121.77901059007536L212.786511433378,121.534746779632L213.19754188183828,121.54968709876182L213.4030571060684,121.71509490353515L213.60857233029856,121.79698288018356L213.81408755452867,121.92448079720558L214.22511800298895,121.79844246491675L214.43063322721906,121.6694334390508L214.53339083933415,121.86281882325312L214.73890606356426,121.77812869219946L214.9444212877944,121.82327533630328L215.04717889990948,121.91437161902496L215.35545173625468,121.51227169707754L215.5609669604848,121.80542827756818L215.66372457259988,121.9798705351649L215.76648218471493,121.86935536358732L216.07475502106013,122.01695914713835L216.69130069375055,122.28165217178878L217.10233114221077,121.98087945453908L217.51336159067105,121.94981212295271L217.71887681490117,122.0383423965539L217.82163442701625,122.22865472267304L217.92439203913133,122.31246426215979L218.0271496512464,122.54149524618367L218.12990726336145,122.69381092377104L218.74645293605184,122.94274057209137L218.95196816028198,122.67660583159929L219.46575622085732,122.7197558935055L219.56851383297237,122.67135525726215L219.67127144508746,122.5751082458262L219.97954428143265,122.70361108849062L220.0823018935477,122.90020446255562L220.59608995412304,123.07597098591337L220.69884756623813,123.21460016418649L221.00712040258333,123.1993752405711L221.10987801469835,123.26707717630686L221.3496457763002,123.32263585980398L221.55516100053032,123.29923087122404L221.6579186126454,123.46335782788647L221.86343383687552,123.44411916717291L222.1717066732207,123.3378683136033L222.2744642853358,123.6534289060989L222.37722189745088,123.93765584842704L222.4799795095659,123.9723504223048L222.7882523459111,124.08984246727599L222.8910099580262,124.17053019663832L222.99376757014127,124.1602005741572L223.4047980186015,124.35406128245641L223.50755563071658,124.61324315809117L223.81582846706178,124.46267285429316L223.91858607917686,124.17787920864835L224.02134369129195,124.01948753898897L224.22685891552206,124.22294378260295L224.43237413975217,124.43756997968983L224.53513175186725,124.69970204383739L224.94616220032754,124.45770459844675L225.15167742455765,123.98617005934358L225.45995026090284,123.76466371858237L225.56270787301793,123.78358360487434L225.97373832147818,124.10023119601456L226.07649593359324,124.31406436321282L226.28201115782338,124.19483767448119L226.7957992183987,124.26823981534682L226.89855683051377,124.45652213077955L227.00131444262885,124.38617881363987L227.1040720547439,124.52423757893479L227.20682966685897,124.72714096111903L227.30958727897405,124.49494974002425L227.51510250320416,124.72736981039785L227.61786011531925,124.91964679840885L227.7206177274343,125.11818934531834L227.82337533954936,125.21564674200131L227.92613295166444,125.31683107694087L228.54267862435483,125.5304839431769L228.95370907281512,125.7302050116127L229.05646668493014,125.74895261029948L229.15922429704523,125.205482302657L229.36473952127537,125.15018829945942L229.77576996973562,125.22338761225802L230.1868004181959,125.45196041753765L230.4950732545411,125.54083901743584L230.70058847877124,125.57261112150049L231.31713415146163,125.70217297962778L231.62540698780683,125.69977082386262L231.83092221203694,125.62609754346178L232.24195266049722,125.82389446924643L232.44746788472733,125.88787784057041L232.8584983331876,125.77720678561766L232.9612559453027,125.74090098150954L233.06401355741772,125.1992325448417L233.475044005878,125.28230693533354L233.98883206645334,125.24635827001487L234.19434729068348,125.41579530042674L234.3998625149136,125.3993821790191L234.50262012702868,125.30477380725924L234.70813535125882,125.47147293205643L234.81089296337387,125.65706497119565L235.3246810239492,125.90160580148395L235.42743863606427,125.79848102364772L235.53019624817932,125.5389850919668L236.2494995329848,125.77010722438447L236.7632875935601,125.87056172878032L237.1743180420204,126.0114069303949L237.48259087836558,125.85125740346977L237.79086371471078,125.82583978086377L237.89362132682587,126.05790960810002L238.71568222374637,126.02343995083388L238.92119744797654,126.10298616694645L239.22947028432174,125.95610620305582L239.3322278964368,126.03692603454101L239.53774312066693,126.20940710881673L240.05153118124224,126.23892336463663L240.56531924181758,125.57587979284108L241.0791073023929,125.63675167451575L241.18186491450797,125.69756658380052L241.28462252662305,125.65294731299437L241.49013775085317,125.82950242886002L241.79841058719836,125.89934876752163L242.00392581142853,125.682575113484L242.10668342354356,125.0235684662199L242.31219864777373,124.85085892538265L242.51771387200384,124.97726259309552L242.62047148411892,125.1528687258326L242.72322909623395,125.27557416714413L242.92874432046412,125.0672829552532L243.13425954469423,124.6999094675251L243.23701715680932,124.84642749757829L243.33977476892437,125.00425744011436L243.44253238103943,124.90354859443234L244.05907805372982,125.08644278122578L244.4701085021901,125.22442419484051L244.7783813385353,125.3692686717697L244.98389656276544,125.38285219826378L245.0866541748805,125.44285274084605L245.60044223545583,125.34778444195413L245.80595745968594,125.2107706085065L246.3197455202613,125.0996850231805L246.52526074449142,124.71478532658803L246.83353358083662,124.54298837082857L246.9362911929517,124.77404584098262L247.1418064171818,124.51187400779091L247.2445640292969,124.32845129923183L247.5528368656421,124.44770018150328L247.8611097019873,124.53418101108811L248.16938253833248,124.51929668598729L248.47765537467768,124.41968830015449L248.68317059890782,124.41457127967948L248.78592821102288,124.43468574782963L248.88868582313793,124.46597266069456L248.99144343525302,124.66697900442742L249.09420104736807,124.93831416621919L249.71074672005847,124.97863717558934L249.9162619442886,125.04195015673542L250.0190195564037,125.04442585255309L250.12177716851872,125.20163718373547L250.2245347806338,125.37406075795764L250.7383228412091,125.38676252580115L250.8410804533242,125.53650819158561L250.94383806543928,125.56017006541565L251.1493532896694,125.18568680957083L251.35486851389956,125.10445100775789L251.4576261260146,125.13046327627947L251.56038373812967,125.24711876123712L251.66314135024476,125.40680524033327L251.76589896235978,125.59750023117965L251.86865657447487,125.75907368105231L252.17692941082007,125.9240605432983L252.38244463505018,125.98982441595737L252.48520224716526,125.8736034556849L252.58795985928035,125.54906979994361L253.20450553197074,125.54522278516639L253.3072631440858,125.48966647142211L253.51277836831594,125.53997399022644L253.615535980431,125.53117942222137L253.71829359254605,125.51677191697553L253.82105120466113,125.57050774445423L253.9238088167762,125.45658340276538L254.02656642889127,125.35837618773868L254.33483926523647,125.21714594618115L254.84862732581178,125.48305500931353L254.95138493792686,125.18654746456279L255.36241538638714,125.31479800740352L255.56793061061725,125.53662567055099L256.0132135964492,125.25916049457649L256.3214864327944,125.52914114803026L256.6297592691396,125.33807550069199L256.73251688125464,125.51991999851816L256.83527449336975,125.5555997805225L256.9380321054848,125.72576803922594L257.1435473297149,125.53622653039837L257.24630494183,125.41021337567346" style="fill: none;" fill="none"></path></g></g></g></g><g opacity="0.2"><g><g><g><path stroke="rgb(255, 112, 67)" stroke-width="2px" d="M28.85038574740946,91.38145514873584L29.055900971639595,130.14977051695695L29.364173807984795,106.73334444920694L29.466931420099858,130.127129417265L29.77520425644506,85.93031066342738L30.288992317020387,98.29612130898991L30.49450754125052,102.61604313021456L30.700022765480657,146.19518345415196L31.008295601825854,108.77537346987019L31.316568438171053,136.02995888713917L31.522083662401187,141.50671704540332L32.035871722976516,142.98759359392022L32.13862933509158,118.34036118060759L32.24138694720665,135.4677907857944L32.34414455932171,144.51360866744665L32.44690217143678,108.71657101642516L32.652417395666916,114.25610992201894L32.75517500778198,131.58699482709625L32.85793261989705,73.53402618762297L33.166205456242245,124.16427130747454L33.26896306835731,127.80206187900848L33.577235904702505,96.91147191130817L33.782751128932645,121.31082887159289L33.98826635316278,132.2443001357462L34.09102396527784,115.260691056491L34.296539189507975,122.86822441020658L34.39929680162304,124.17636472636909L34.5020544137381,136.55061004856742L34.60481202585317,92.62704261485227L35.7351457591189,136.04952832779196L36.45444904392436,134.18721860950845L36.86547949238463,56.476211771127964L36.9682371044997,143.11149044755183L37.070994716614756,116.52500077988006L37.48202516507502,124.6521548029591L37.790298001420226,146.41019215546078L37.89305561353529,146.24477340762388L38.30408606199555,128.5285786018152L38.61235889834076,121.05986441951507L38.920631734685955,28.17054674210928L39.331662183146214,85.7404623176515L39.434419795261284,88.65989587998762L39.537177407376355,80.39430912001741L39.63993501949141,129.48179862457908L40.25648069218181,147.3456758244178L40.393490841668566,105.5505080046875L41.010036514358966,117.5497706411015L41.42106696281923,114.26062823337978L41.72933979916443,25.102573693785416L42.03761263550963,146.94395731927077L42.14037024762469,133.13452637676318L42.34588547185483,141.55977747816058L42.654158308200024,87.53130889753096L42.756915920315095,67.90949150384209L42.85967353243016,130.35959455506497L43.06518875666029,130.67831881468913L43.57897681723562,102.96618748923618L44.401037714156146,126.76807208638074L44.81206816261641,80.88128598065654L44.91482577473148,144.02668382683962L45.017583386846546,147.6628048030571L45.53137144742188,130.80917644404659L45.63412905953694,115.56393811798876L45.94240189588215,129.45839951870488L46.35343234434241,102.70491811651083L46.45618995645748,118.2835404426717L46.9699780170328,72.38603821033183L47.07273562914787,132.5334968342841L47.381008465493075,135.8422681341239L47.48376607760814,119.03073141252756L47.5865236897232,118.42950865278637L47.68928130183827,108.10955173881973L47.8947965260684,113.35688669259044L48.305826974528664,141.93071746430627L48.61409981087387,62.64694688353872L48.81961503510399,122.79843829855211L49.025130259334134,106.13302832431117L49.127887871449204,119.70405393678014L49.53891831990946,141.17523053790026L49.744433544139596,118.28738992504822L50.05270638048479,133.72337332314976L50.56649444106012,133.71107182412678L50.97752488952039,116.63414871583484L51.08028250163545,133.667662345899L51.28579772586559,118.74534951634473L51.38855533798065,131.55888914688785L51.49131295009572,102.90939152274414L51.799585786440915,102.04231171887395L52.005101010671055,111.42823161620521L52.416131459131314,138.8552238056252L52.621646683361455,148.12247114683586L52.72440429547651,120.88236216136119L52.82716190759158,135.1957408806993L52.92991951970665,91.2088873621997L53.23819235605185,110.45059685836871L53.34094996816691,136.32252945633144L53.64922280451211,123.92093150581816L53.85473802874225,125.86919565716633L54.265768477202506,73.12487129502787L54.47128370143264,110.37692163002758L55.19058698623811,145.18372328971878L55.396102210468236,139.88725913133206L55.60161743469837,142.50221449141034L56.629193555849035,131.45704383258422L56.7319511679641,71.1937985257215L56.93746639219423,112.7260471945651L57.0402240043093,145.23326865459174L57.24573922853943,72.41012596234545L57.3484968406545,89.88741010066066L57.75952728911476,112.26029450702889L57.96504251334489,122.98385255587625L58.067800125459954,116.17243872793728L58.58158818603529,131.25272896359164L58.78710341026542,122.21455554951591L58.88986102238049,120.48335860646165L58.99261863449556,123.499955680211L59.09537624661062,113.20491883877183L59.19813385872569,144.85011634662095L59.30089147084075,109.82505349504156L59.506406695070886,112.60161527774603L59.71192191930102,122.92233019789492L60.32846759199141,117.3404023975606L60.53398281622155,73.91502090283318L60.63674042833661,114.95039899635825L60.73949804045168,113.96099780268621L60.94501326468182,121.12824351315803L61.253286101027015,79.5769109239614L61.869831773717415,67.91374228360921L62.17810461006261,130.54586095005806L62.38361983429274,131.2787984311144L62.48637744640781,134.10575771636076L62.794650282753004,105.42943509565644L62.89740789486807,106.69264992122669L63.20568073121327,119.15432110025523L63.30843834332833,120.7152985896517L63.411195955443404,111.47385070722568L63.51395356755847,93.28845007460612L63.7194687917886,118.96386337696032L63.82222640390366,48.5061384278811L63.92498401601873,98.80956398025364L64.13049924024887,133.93012074792983L64.23325685236394,112.02514414471403L64.43877207659406,110.32177048740814L65.05531774928446,115.45043040791384L65.15807536139953,114.69228055129243L65.36359058562967,65.6611658986771L65.46634819774472,125.28295962096303L65.67186342197486,121.22922182692639L65.87737864620499,138.91892109637783L66.08289387043513,126.76359836361885L66.1856514825502,112.16115918868402L66.28840909466525,138.43261801901178L66.39116670678033,132.4526626586662L66.90495476735565,105.80546561351623L67.00771237947072,136.86486801686283L67.41874282793098,93.65830259436616L67.52150044004605,66.78715683381678L67.72701566427618,125.86353290509896L67.82977327639125,135.90829146345538L67.93253088850632,62.67893177185627L68.03528850062139,132.2210050699362L68.13804611273645,127.64965804777788L69.37113745811725,103.5468350877037L69.57665268234737,124.9186707674949L69.67941029446244,148.86945403656327L69.78216790657751,132.03900927186532L69.98768313080764,123.52754611438705L70.09044074292271,141.77906173068038L70.19319835503778,107.4680902456654L70.50147119138298,130.30147083918183L70.7069864156131,92.03630313015442L71.11801686407337,134.5167679901013L71.22077447618844,119.89403109406408L71.42628970041856,114.48527550349617L72.04283537310897,131.97744727957382L72.14559298522403,114.2773440036994L72.24835059733911,103.72611593552705L72.55662343368431,114.4410485676209L72.76213865791442,128.66780897919878L72.96765388214456,83.40153267940853L73.07041149425963,141.18271151394728L73.1731691063747,145.310354910753L73.27592671848976,78.82162960053948L73.4814419427199,130.70726176970015L73.68695716695002,119.59025392366763L73.99523000329522,96.77121599614861L74.09798761541029,125.40242734043167L74.30350283964042,108.07455464292826L74.4062604517555,110.78098846805295L74.61177567598561,131.84710985053752L74.92004851233081,81.66038752449838L75.15981627393263,121.50040473148621L75.2625738860477,122.27090067572959L75.36533149816277,93.04193952813512L75.67360433450797,148.63311464494294L76.18739239508331,135.89411724327624L76.29015000719836,110.43389099662664L76.39290761931345,83.72476038752721L76.8039380677737,118.24792406068363L76.90669567988877,139.15663034884386L77.00945329200384,105.82469320824369L77.31772612834904,124.85530541409008L77.42048374046409,119.85863270078202L77.62599896469423,127.30513185222466L77.83151418892436,118.14873919945106L77.93427180103943,99.56004955214345L78.0370294131545,137.69681695904472L78.3453022494997,134.87078660294327L78.44805986161475,107.37129335162132L78.75633269795995,96.64232026514522L79.06460553430516,134.67579322827683L79.37287837065035,121.92790535540722L79.5783935948805,117.39635118067247L79.68115120699555,126.91372322201394L79.78390881911062,134.1686672751985L80.09218165545582,110.22629638846642L80.19493926757089,99.14626735383449L80.60596971603114,108.76276975923206L80.70872732814622,138.8945360870378L81.01700016449142,134.54435842427733L81.11975777660648,130.68482875013666L81.22251538872155,130.68888135835286L81.53078822506674,123.17904162494924L81.63354583718181,95.60207816008614L81.73630344929688,119.67868797826311L81.83906106141194,119.10982167849744L81.94181867352701,90.26359915576118L82.04457628564208,70.96505901307873L82.14733389775714,111.43285892191906L82.2500915098722,95.06353210761033L82.35284912198728,116.59560434918203L82.86663718256261,92.64924278284343L82.96939479467767,134.85803178649758L83.27766763102287,76.50144699101297L83.483182855253,114.05337547114488L83.7914556915982,95.83365648019574L83.99697091582834,137.4803888540025L84.20248614005847,64.9953293047603L84.7162742006338,124.56904660879445L84.81903181274886,62.20440008461455L84.92178942486393,60.895784156729846L85.024547036979,78.44732317517264L85.12730464909406,114.6200420666954L85.23006226120914,97.63577902132222L85.84660793389953,50.45701844370133L86.15488077024473,97.74514990027178L86.25763838235979,64.92108433321029L86.565911218705,121.63538928339148L87.18245689139539,103.7156128433286L87.28521450351045,76.56364313226742L87.59348733985564,93.94414523940488L87.69624495197073,43.42194820340055L87.90176017620087,92.57491358838428L88.00451778831592,109.44906756578072L88.10727540043098,139.46874558724502L88.51830584889126,107.95103431524342L88.62106346100632,80.27778424807983L88.82657868523646,84.67314007016L89.13485152158165,74.70032521621863L89.23760913369672,53.41540262436965L89.44312435792685,101.37859556055193L89.85415480638711,111.90988757070231L89.95691241850218,61.71938512232947L90.16242764273233,122.00118919493531L90.47070047907752,72.69008291232203L90.57345809119258,110.42461656804386L90.67621570330766,96.26450620332719L90.88173092753777,115.60646077852618L91.19000376388297,65.89961581731467L91.29276137599805,134.71066398980457L91.49827660022818,99.52933296175173L92.14907481029027,124.1116022635303L92.25183242240533,84.2251237364306L92.76562048298067,83.88425876028055L92.86837809509572,116.10661109301233L93.07389331932586,102.10004900023281L93.5876813799012,114.23520282339749L93.79319660413132,82.68917531391462L94.40974227682172,136.11435767352916L94.71801511316691,111.2800835190305L94.820772725282,96.70690437358816L95.02628794951211,118.75954850796774L95.23180317374225,114.22546269167005L95.54007601008745,84.71691616575694L95.64283362220252,94.78811824043848L95.84834884643264,112.19359987156868L96.05386407066278,93.05909127586673L96.15662168277785,56.45161868165951L96.36213690700798,108.23413723859075L96.46489451912305,100.06644722477218L96.5676521312381,94.17360807820849L96.8759249675833,97.4101508020288L96.97868257969839,101.9175676818622L97.08144019181344,96.14471150079953L97.1841978039285,29.349845824444884L97.28695541604358,99.31890945470221L97.80074347661892,135.13837021670963L98.10901631296412,126.11202021279033L98.41728914930931,119.90228493915967L98.62280437353944,129.07576988819963L98.93107720988463,109.97156172263247L99.13659243411477,124.97351474421042L99.23935004622983,118.32084128284254L99.34210765834491,123.64313958003532L99.75313810680517,82.64974908386023L99.85589571892022,111.53946530773338L100.06141094315036,118.6140113209763L100.2669261673805,111.65023329611691L100.67795661584076,84.1129487300356L100.78071422795583,111.4684802581959L100.98622945218597,110.43666539833944L101.08898706430102,124.77514997603403L101.29450228853116,105.74940783605136L101.70553273699142,123.42303043843486L102.01380557333661,49.366411038977404L102.42483602179689,114.49604612728837L102.63035124602702,132.18613183126408L102.73310885814209,111.77245560014326L102.83586647025716,98.63992913267103L102.93862408237221,69.89535870697625L103.04138169448728,130.7578103780496L103.24689691871741,87.11957777477396L103.45241214294755,123.90533045047243L103.65792736717769,125.04054627130716L103.76068497929275,113.17001587436707L104.06895781563794,96.57078528955394L104.47998826409822,125.15805704671054L104.68550348832834,73.07876668370767L104.78826110044342,67.87738771259399L104.99377632467355,95.23400422999555L105.50756438524888,90.10804439687105L105.81583722159408,119.72285546267312L106.0213524458242,136.2137332748795L106.22686767005433,102.22263296733959L106.43238289428447,121.47115956486005L106.63789811851461,108.47603038792545L106.84341334274473,135.73268917504586L107.15168617908994,127.60494559160284L107.254443791205,96.15321801462252L107.5627166275502,111.8306932646682L107.97374707601047,127.74908566916032L108.1792623002406,105.84010104632728L109.00132319716113,128.12529454141594L109.4123536456214,94.64730249064759L109.51511125773645,114.96422641632329L109.82338409408166,117.13357570416017L110.337172154657,121.94710817869081L110.8509602152323,125.32311413146702L110.95371782734739,44.35391928161761L111.46750588792273,47.81841378616582L111.57026350003778,114.01350830938972L111.98129394849805,121.62654092364315L112.39232439695832,120.07284623874278L112.49508200907339,79.45717567289901L112.70059723330351,136.419489841905L112.80335484541858,129.37886336674543L112.90611245753364,105.78116482708538L113.21438529387883,103.9230835942695L113.31714290599392,128.4141048054296L113.41990051810897,78.33416721960059L113.52265813022403,99.43444346888523L113.72817335445417,119.75951719959227L113.93368857868431,103.70492644244555L114.13920380291444,77.39961000264408L114.24196141502951,137.87992994923388L114.75574947560483,132.6021236423657L114.96126469983497,115.75749722605548L115.37229514829522,129.02475062241678L115.57781037252536,103.02549032584726L115.68056798464042,143.94580258547836L115.98884082098564,105.2172082274936L116.0915984331007,122.20150099859944L116.19435604521576,86.30317043647253L116.29711365733084,122.17614990294874L116.50262888156097,100.90729902387889L116.60538649367604,87.06846933179318L116.91365933002123,141.34816741894997L117.01641694213629,-1.6082066934754096L117.22193216636643,125.23452649391959L117.3246897784815,136.10714670622028L117.42744739059656,103.84679745574505L117.6329626148267,97.01937136649221L117.73572022694175,71.08513115577767L117.83847783905682,103.35689261044116L118.04399306328695,115.80376037461642L118.14675067540203,107.4611889214048L118.35226589963214,123.47304398359685L118.45502351174723,130.19563732241608L118.55778112386228,109.02174529625556L118.76329634809242,113.3765502647299L119.07156918443762,106.99632305155892L119.17432679655268,103.39877121343812L119.37984202078282,93.7395876102624L119.58535724501294,86.13769719145914L119.79087246924308,119.16046937262234L119.89363008135814,118.54818864034013L120.40741814193348,106.5142360739386L120.71569097827867,64.89645160943164L120.81844859039374,17.71650200250528L120.92120620250881,87.74894089474499L121.02396381462387,127.02286124939118L121.22947903885401,119.56153886594015L122.15429754788961,100.35487105426155L122.25705516000467,138.2393437825495L122.87360083269506,102.1488388360679L122.97635844481015,137.97897361323643L123.0791160569252,138.55935368011023L123.59290411750054,113.78734502690882L123.79841934173066,150.5851613957692L123.90117695384573,95.00542820888228L124.00393456596079,148.84100898757393L124.10669217807586,121.78480072420328L124.312207402306,144.9685659597468L124.51772262653613,69.51072754380677L124.9287530749964,124.5329694779505L125.13426829922653,132.57362657334426L125.44254113557173,89.66372396256621L125.54529874768679,125.6133809563799L126.05908680826212,143.71182391245827L126.91540024255434,30.805227602936696L127.12091546678448,104.59282416773931L127.22367307889954,98.26715358253502L127.32643069101461,105.4535178933813L127.53194591524473,124.13081994968022L127.73746113947487,128.4126581531079L128.04573397582007,112.92982700037022L128.45676442428032,124.24818705070918L128.66227964851046,148.20806143967573L128.76503726062552,139.38077971293856L128.8677948727406,130.84203824147693L128.97055248485566,134.12100701720362L129.27882532120086,125.20924971260047L129.3815829333159,104.7608340086044L129.484340545431,96.19027114035471L129.7926133817762,130.0017958198893L130.1008862181214,130.71602590653936L130.20364383023644,27.08355596818953L130.51191666658164,95.78893411544318L130.61467427869673,97.81731902482599L131.43673517561726,120.7310680908157L131.5394927877323,115.21974881407212L131.6422503998474,126.0179927661703L131.74500801196245,111.3545514335753L131.9505232361926,132.6013953619161L132.15603846042274,111.71130976810868L132.2587960725378,113.92424688856916L132.36155368465285,126.76599623938492L133.49188741791858,128.73972543502558L133.69740264214872,143.33027679404992L133.80016025426377,107.47359446049202L134.41670592695417,125.90684825184005L134.51946353906922,122.29358140973174L134.82773637541445,128.6975347118359L134.9304939875295,116.00278406319958L135.2387668238747,109.31198734972457L135.34152443598975,141.00563284748347L135.5470396602199,142.2873593730535L135.75255488445003,96.27274023126768L136.16358533291032,132.78142430734417L136.36910055714043,118.18296838058271L136.4718581692555,123.52303771160375L136.57461578137057,145.57574377459298L136.67737339348562,109.73947806506803L136.7801310056007,135.42280832088124L136.98564622983085,131.86247310002216L137.0884038419459,140.51475943872447L137.29391906617604,77.2136359106886L137.49943429040616,116.46923035116401L137.60219190252124,84.4173005979297L137.7049495146363,123.18742428155292L137.80770712675135,135.15585637893344L138.21873757521163,97.83303402881349L138.3214951873267,136.39635579048013L138.42425279944175,130.4303517073189L138.52701041155683,90.31181429409862L138.6297680236719,119.25943624514892L138.83528324790203,139.593734861551L139.65734414482256,110.77219955976992L139.96561698116776,125.8236806062101L140.0683745932828,132.0253057091196L140.17113220539787,108.38650143551116L140.376647429628,96.9550349724879L141.19870832654854,133.56571299153117L141.30146593866363,117.87160619407501L141.71249638712388,134.3977461566222L142.02076922346907,114.91840915375191L142.22628444769921,135.1970389043578L142.32904205981427,115.01993243928527L142.8428301203896,114.46175254040264L142.94558773250466,97.71220387993229L143.25386056884986,140.89204091449943L143.45937579308,57.32467335778978L143.56213340519506,113.100854003098L143.87040624154025,110.29336754987335L144.38419430211562,138.693476185769L144.58970952634573,94.92749724648525L145.000739974806,128.8915942030687L145.10349758692104,127.83959061646286L145.41177042326623,120.41089222458109L145.6172856474964,103.0004612589668L145.8228008717265,129.98869172608508L146.02831609595665,124.80829912221321L146.1310737080717,127.5572456992978L146.33658893230185,137.5995394989897L146.64486176864705,141.60421497130875L146.7476193807621,93.64203766432486L146.8503769928772,92.52538060923325L146.95313460499224,144.94562017129533L147.05589221710733,122.92249368942444L147.15864982922238,132.5303211351807L147.26140744133744,125.83660139132971L147.36416505345252,132.04372575477709L147.56968027768264,30.129046454062177L148.18622595037303,129.19735804326308L148.2889835624881,132.03530346386322L148.3917411746032,107.14512511485167L148.49449878671822,130.76636643476033L148.5972563988333,132.59314647110932L148.80277162306342,131.99012035025478L148.9055292351785,144.46235902723583L149.11104445940862,110.46134271071705L149.2138020715237,80.8079922325509L149.3165596836388,144.13906195907433L149.72759013209907,140.6515399203099L149.93310535632918,121.9186012010918L150.1386205805593,107.30456899042849L150.96068147747985,123.05506550269729L151.16619670170996,60.203798826669924L151.26895431382505,126.60892546813028L151.6799847622853,124.39891137804577L151.78274237440036,112.74047903776044L151.88549998651544,127.94716804287665L152.09101521074555,134.02455444622925L152.39928804709078,147.50510483712833L152.6048032713209,149.820147372053L152.70756088343597,135.07335260799906L152.9130761076661,93.41460608391813L153.01583371978117,129.21263706983856L153.22134894401128,97.67870793353902L153.42686416824142,138.76851136637828L153.73513700458665,126.46604873420988L153.94065222881676,117.62889558709279L154.04340984093184,98.31151428420716L154.14616745304687,133.68304541253872L154.86547073785235,74.56303196574524L155.0709859620825,120.12226526925203L155.48201641054274,109.80786211299976L155.68753163477288,139.8804048728148L155.89304685900302,128.61518452385351L155.99580447111808,130.51464893078906L156.09856208323313,95.8414941650344L156.50959253169341,120.54600558799442L156.61235014380847,125.86209120706606L156.71510775592355,143.79287855392658L156.8178653680386,102.51312273524725L157.22889581649886,129.03933604856405L157.33165342861395,150.07591748424045L157.53716865284406,140.35367321641945L157.63992626495914,133.26709323574727L157.94819910130434,108.2604445119746L158.05095671341942,133.99166787735504L158.25647193764954,126.23316248186421L158.46198716187965,115.19218810562872L158.56474477399473,130.62484222167492L158.77025999822484,145.99982098497193L159.07853283457004,135.96085399019097L159.18129044668513,93.78708933101656L159.38680567091527,124.82124963306546L159.48956328303032,94.41129008208627L159.79783611937552,127.05057058649777L159.9005937314906,102.60194817865579L160.1061089557207,147.43163025748248L160.31162417995085,132.94545585432465L160.4143817920659,96.64660077064495L161.44195791321658,92.99373429837522L161.54471552533164,92.68124748831609L162.058503585907,147.65929716660594L162.16126119802203,143.31669461137915L162.4010289596239,115.87230791407765L162.70930179596908,131.24057609323182L162.9148170201992,76.51883654460569L163.12033224442933,84.31472700317649L163.2230898565444,134.5296367551888L163.32584746865948,120.9110673105111L163.42860508077453,141.4109333034133L163.63412030500467,144.37197298286384L163.73687791711976,146.7282674032557L164.14790836557998,145.27245460164065L164.25066597769506,116.29802003975163L164.35342358981015,144.47808641694525L164.55893881404026,109.34082626467136L164.76445403827037,122.69409106841822L165.07272687461557,148.843657054923L165.17548448673065,94.22643565939345L165.48375732307585,122.46303790291851L165.58651493519093,144.2125885587523L165.68927254730602,132.77222419309297L165.79203015942105,119.64872443976489L165.99754538365121,109.97561433084867L166.3058182199964,125.48995476018173L166.71684866845666,125.71363594398741L166.9223638926868,136.89615187331904L167.02512150480186,110.37317618771529L167.230636729032,134.82505108613665L167.4361519532621,149.44066123777412L167.64166717749225,92.53925757208603L168.05269762595253,128.4778219133373L168.66924329864293,125.87493767785408L168.87475852287304,114.17391331698848L168.97751613498812,120.70624214977491L169.18303135921823,109.35334079811162L169.49130419556343,113.60132139206561L169.6968194197936,147.1018282081622L169.79957703190863,112.91859562772215L170.2106074803689,142.6145455579017L170.5188803167141,129.7353145353749L170.6216379288292,140.8166787508311L171.23818360151958,124.67278446140926L171.4436988257497,151.65748747492128L171.95748688632503,77.6467596523668L172.3685173347853,114.82673994858774L172.57403255901542,106.66414294362768L172.77954778324556,142.27502814829785L173.08782061959076,133.9867086342934L173.1905782317058,147.4350982596235L173.498851068051,116.24474657257711L173.6016086801661,129.43606063062805L173.70436629228118,117.79142103028634L173.9098815165113,117.79217408217983L174.01263912862638,82.59488528998962L174.1153967407414,128.9582690213738L174.2181543528565,127.60994446897465L174.52642718920168,146.14873451976206L174.62918480131677,133.1064851023088L174.93745763766196,143.83214872388464L175.14297286189208,126.72661459792947L175.55400331035236,97.26799243998046L175.75951853458247,119.4949482705442L176.06779137092767,132.68223944611157L176.2733065951578,151.42007795692604L176.581579431503,140.32255532863712L176.6843370436181,123.72550463088407L176.8898522678482,122.9156914509393L176.99260987996328,65.95924563698478L177.8146707768838,145.48932116123927L178.02018600111396,110.74227565558186L178.22570122534407,91.13675291766691L178.43121644957418,148.21085070425485L178.63673167380435,83.2743560866093L178.84224689803446,116.8372497840781L178.94500451014954,137.7225024691876L179.15051973437966,133.14478670881175L179.45879257072485,95.3530706520736L179.56155018283994,120.01102166914632L179.66430779495502,139.030481770965L179.76706540707005,125.74892038862771L180.28085346764541,127.56765466000955L180.38361107976047,134.8156998660779L180.48636869187553,95.06005419689178L181.00015675245086,122.69187154704798L181.10291436456592,99.35876670787985L181.41118720091112,133.77718680780055L181.5139448130262,144.2508406223675L182.23324809783165,135.6111604714477L182.4387633220618,137.64016962121588L182.54152093417684,105.67175431382562L183.26082421898232,95.39066379528202L183.56909705532752,149.95375710882377L183.6718546674426,91.84121314685689L183.8773698916727,121.38470227148494L184.1856427280179,102.50607278232347L184.288400340133,133.81027154822567L184.39115795224805,111.2048130097045L184.5966731764782,148.33499031803632L185.00770362493844,140.89015828476573L185.4187340733987,125.10191504633653L185.62424929762884,131.6627855367434L185.72700690974392,105.64709681860312L186.24079497031923,69.15770474300814L186.3435525824343,139.3829100571109L186.54906780666443,142.03337775911302L186.75458303089457,113.41193379514564L186.85734064300962,130.6654178467246L186.9600982551247,137.63816808855165L187.06285586723976,126.93568062985523L187.16561347935482,121.281752150785L187.2683710914699,137.89973719574778L187.371128703585,135.41589708804312L187.5766439278151,81.36823311556303L187.98767437627538,149.12110218049173L188.0904319883904,119.20467649134255L188.29594721262058,119.27284255056827L188.70697766108083,121.49072900551283L188.80973527319588,136.9919653410417L189.32352333377122,145.92080998762242L190.0428266185767,148.8782107419693L190.14558423069175,124.9153513940171L190.2483418428068,122.97682737439635L190.45385706703695,153.74477392352458L190.556614679152,108.03224501680808L190.76212990338215,114.53338660176938L190.8648875154972,108.3056177170055L190.9676451276123,147.5843387774726L191.1731603518424,140.99820141432417L191.27591796395748,150.71441135841985L191.37867557607257,153.55333525105266L191.68694841241776,130.1796052439471L191.99522124876296,124.98787722736293L192.30349408510816,135.44664092702308L192.50900930933827,139.87564875559286L192.71452453356844,116.22654451562565L192.92003975779855,115.79424318588374L193.02279736991363,133.5450090187494L193.12555498202866,134.34161901911452L193.43382781837386,121.47988406738907L193.53658543048894,150.05644960650753L193.63934304260403,85.81512344945847L193.94761587894922,131.8962861208969L194.05037349106428,126.98875592547884L194.25588871529442,142.42766978538955L194.35864632740947,133.55354030401625L194.46140393952453,128.64985959097473L194.56416155163961,132.6090249666263L194.76967677586973,130.58583215187747L194.8724343879848,103.84602954098526L194.97519200009987,121.87931864541181L195.07794961221492,135.25483316003755L195.18070722433,132.893559679429L195.38622244856015,91.91523022112337L195.4889800606752,114.7880717247156L195.69449528490534,118.95150242647205L196.00276812125054,116.02781313008006L196.1055257333656,113.18592409561671L196.51655618182585,116.24274008562412L196.55080871919756,115.99677451091812L196.85908155554276,139.71324964676302L196.9618391676578,120.61332446384L197.06459677977287,110.08522301565934L197.16735439188795,130.43087686192882L197.3728696161181,132.61008023013494L197.5783848403482,93.76429464837264L197.6811424524633,88.66586084367013L198.09217290092354,138.4232544132311L198.40044573726874,147.34719926821546L198.5032033493838,141.6368934600545L198.60596096149888,119.07864929353863L199.1197490220742,116.37782867759358L199.22250663418927,121.0951240927115L199.83905230687967,142.93750821157104L200.14732514322486,123.9622799999164L200.25008275533995,115.92002266924902L200.352840367455,146.6928021270752L200.45559797957006,134.17285117206717L200.76387081591525,132.78519947538908L201.17490126437553,135.18466804529197L201.38041648860568,126.797228075809L201.5859317128358,133.81919917659437L201.79144693706593,100.44346364609777L202.20247738552618,94.29521109613825L202.30523499764126,127.57792490063568L202.61350783398646,135.88630432988143L202.71626544610154,116.40840159361088L202.81902305821657,107.8202955888165L203.53832634302205,124.98765923865693L204.66866007628778,77.77866263665531L204.87417530051792,135.06745948150376L204.97693291263298,92.26527054008075L205.07969052474803,79.40260913635477L205.18244813686312,143.25883842708973L205.4907209732083,112.23545865741055L206.21002425801376,102.52044021976475L206.31278187012884,143.10257272776067L206.62105470647404,128.4042457707716L206.7238123185891,74.86964298931976L206.82656993070415,136.93998494323688L206.92932754281924,129.75029135033526L207.03208515493432,142.50600452232158L207.13484276704935,120.28540008996464L207.23760037916443,129.29690456757606L207.34035799127952,100.14316438641987L207.44311560339455,66.27809375382824L207.54587321550963,147.7770482250148L207.85414605185483,113.38895580381713L208.05966127608494,148.55829249875086L208.5734493366603,131.46215170430904L208.6762069487754,123.0831365028843L208.8817221730055,138.9508812132515L209.1899950093507,86.94077749296159L209.29275262146578,66.54983649301943L209.3955102335808,123.04998240241635L209.4982678456959,142.43533654726554L209.70378306992603,115.80197683065819L209.90929829415617,87.00299345137111L210.01205590627123,147.0618396663321L210.42308635473148,131.14748005290107L210.52584396684657,96.78991348197738L210.62860157896162,148.808214073042L210.73135919107668,143.18137316783734L211.0396320274219,109.72730042326434L211.14238963953696,144.2752652660177L211.3479048637671,79.83062005201938L211.45066247588215,69.96139937631843L211.6561777001123,111.36938457416123L211.75893531222735,113.87216740498889L211.9644505364575,129.84539883190774L212.06720814857255,153.123984200275L212.1699657606876,120.87747723263114L212.2727233728027,152.8258920762454L212.4782385970328,118.18852709258587L212.68375382126297,137.34526062772284L212.786511433378,97.35967650801093L213.19754188183828,123.02835197763405L213.4030571060684,138.08579055632362L213.60857233029856,129.90160028374703L213.81408755452867,134.54324123215906L214.22511800298895,109.32410554006297L214.43063322721906,108.90104395888247L214.53339083933415,141.00277174571715L214.73890606356426,113.3960602539174L214.9444212877944,126.29160327222883L215.04717889990948,130.93052679324893L215.35545173625468,81.71476579806925L215.5609669604848,150.820433138159L215.66372457259988,139.2452378035464L215.76648218471493,110.9311232350256L216.07475502106013,136.62607129801117L216.69130069375055,148.47975959026795L217.10233114221077,92.21169486129108L217.51336159067105,118.87489425917737L217.71887681490117,130.80072938168888L217.82163442701625,141.06508431275773L217.92439203913133,130.60765083963312L218.0271496512464,145.21026589181938L218.12990726336145,137.7695756439629L218.74645293605184,147.58113335263658L218.95196816028198,96.33523858413726L219.46575622085732,126.99065341807884L219.56851383297237,117.88075676543849L219.67127144508746,113.04874974807386L219.97954428143265,135.42262253505226L220.0823018935477,142.35875315141473L220.59608995412304,140.4731434130325L220.69884756623813,136.93598930934158L221.00712040258333,121.69242305574458L221.10987801469835,129.96818097056547L221.3496457763002,128.8218179999918L221.55516100053032,120.98260724039115L221.6579186126454,139.70866197535935L221.86343383687552,121.5398705958508L222.1717066732207,112.82110513324989L222.2744642853358,154.88783733777552L222.37722189745088,152.07069249858822L222.4799795095659,127.40645696620712L222.7882523459111,135.7193547068137L222.8910099580262,132.15711951621023L222.99376757014127,123.13775753660505L223.4047980186015,143.54274889950702L223.50755563071658,150.26758653114032L223.81582846706178,109.5588942392974L223.91858607917686,95.98832937568432L224.02134369129195,108.34147685914344L224.22685891552206,144.36159622502907L224.43237413975217,145.68189188869582L224.53513175186725,150.64633695353643L224.94616220032754,100.50401496347962L225.15167742455765,77.31207762860525L225.45995026090284,101.83917597060929L225.56270787301793,125.65634454861811L225.97373832147818,155.44324283494535L226.07649593359324,145.4801383869988L226.28201115782338,112.39327752626988L226.7957992183987,131.5339046686063L226.89855683051377,143.09355839933846L227.00131444262885,117.4232678315754L227.1040720547439,138.18996190920606L227.20682966685897,144.81152986851356L227.30958727897405,101.51146958543994L227.51510250320416,147.73353718386718L227.61786011531925,143.95226793232695L227.7206177274343,144.77103846637303L227.82337533954936,134.8625377121365L227.92613295166444,135.3326501737928L228.54267862435483,146.6791282900621L228.95370907281512,145.49982425343774L229.05646668493014,127.60470778574174L229.15922429704523,71.4093001787632L229.36473952127537,119.67682516568452L229.77576996973562,132.46914557741349L230.1868004181959,148.077657127741L230.4950732545411,134.33866130871712L230.70058847877124,128.71763921567617L231.31713415146163,138.5271408945091L231.62540698780683,125.46198780005895L231.83092221203694,118.33336572486031L232.24195266049722,145.40333700244196L232.44746788472733,132.221446001637L232.8584983331876,114.82211759716267L232.9612559453027,122.14706327356329L233.06401355741772,71.58051049017558L233.475044005878,133.505691783048L233.98883206645334,121.68786015578479L234.19434729068348,142.1881026746337L234.3998625149136,123.77467099266589L234.50262012702868,115.93961688134567L234.70813535125882,141.97281653315363L234.81089296337387,144.02861599946104L235.3246810239492,150.10845973004496L235.42743863606427,115.59025034566139L235.53019624817932,99.85168376075764L236.2494995329848,148.64873304029936L236.7632875935601,135.81449686840764L237.1743180420204,139.95360944372254L237.48259087836558,109.99811175616621L237.79086371471078,123.3097555799323L237.89362132682587,149.0304684216811L238.71568222374637,122.61129004015746L238.92119744797654,133.97727071418112L239.22947028432174,111.41643545463705L239.3322278964368,134.03730183124182L239.53774312066693,143.28336958794853L240.05153118124224,129.16075080352044L240.56531924181758,59.94083508718427L241.0791073023929,131.66249818799457L241.18186491450797,131.71767905634664L241.28462252662305,121.23604883685539L241.49013775085317,143.30685539387625L241.79841058719836,132.81350828143718L242.00392581142853,104.2239129628461L242.10668342354356,59.78771783837037L242.31219864777373,107.75412115367746L242.51771387200384,137.49013394001872L242.62047148411892,142.5363743124992L242.72322909623395,137.42237413247236L242.92874432046412,104.44819856988208L243.13425954469423,88.3329821810219L243.23701715680932,139.35050900853642L243.33977476892437,140.6281383372913L243.44253238103943,114.93418360920468L244.05907805372982,143.1915096426666L244.4701085021901,138.8834954545075L244.7783813385353,139.7077404776476L244.98389656276544,126.72751627848612L245.0866541748805,131.38244710653134L245.60044223545583,115.93674339385743L245.80595745968594,111.64742916867148L246.3197455202613,114.10303726180399L246.52526074449142,86.61254595318232L246.83353358083662,107.53634052780025L246.9362911929517,147.6470699819145L247.1418064171818,98.5587332939727L247.2445640292969,106.17089890769088L247.5528368656421,136.25250553881588L247.8611097019873,133.09518436961793L248.16938253833248,123.04585052557977L248.47765537467768,114.55913404052191L248.68317059890782,123.90802062927608L248.78592821102288,126.42588431512833L248.88868582313793,127.56317102867011L248.99144343525302,144.56529676221385L249.09420104736807,151.79874415641297L249.71074672005847,128.97035748597958L249.9162619442886,131.3095348386612L250.0190195564037,125.28950423643197L250.12177716851872,140.76458440438452L250.2245347806338,142.4429364262431L250.7383228412091,126.64416036988283L250.8410804533242,140.36042838916123L250.94383806543928,127.9025546724771L251.1493532896694,88.11405216014941L251.35486851389956,117.06258074604514L251.4576261260146,127.70552756226937L251.56038373812967,136.79534448251334L251.66314135024476,141.21486237093873L251.76589896235978,144.4752352237565L251.86865657447487,141.75394844089078L252.17692941082007,142.25685333993465L252.38244463505018,132.50009006508873L252.48520224716526,114.36835428845676L252.58795985928035,93.4219681570346L253.20450553197074,125.16438862776226L253.3072631440858,119.98988171895253L253.51277836831594,130.52015809990448L253.615535980431,124.66056223100664L253.71829359254605,124.09050194764671L253.82105120466113,130.8900849339961L253.9238088167762,114.17863970847779L254.02656642889127,115.63634504840405L254.33483926523647,111.23603989183981L254.84862732581178,151.806770104225L254.95138493792686,95.83371593166102L255.36241538638714,138.0109956587198L255.56793061061725,147.4965264861181L256.0132135964492,97.79139323167763L256.3214864327944,152.2559878529818L256.6297592691396,106.42344377788723L256.73251688125464,143.5217080350887L256.83527449336975,129.08773944987485L256.9380321054848,142.57167609715017L257.1435473297149,106.77244369620232L257.24630494183,112.93545507241619" style="fill: none;" fill="none"></path></g></g></g></g></g></g><g transform="translate(46, 177)" clip-path="url(#clip_1)"><clipPath id="clip_1"><rect width="284" height="23"></rect></clipPath><g><g><line x1="24.671576188063437" y1="0" x2="24.671576188063437" y2="5" style="visibility: inherit;" fill="rgb(0, 0, 0)" stroke="rgb(204, 204, 204)" stroke-width="1px"></line><line x1="58.92411355975218" y1="0" x2="58.92411355975218" y2="5" style="visibility: inherit;" fill="rgb(0, 0, 0)" stroke="rgb(204, 204, 204)" stroke-width="1px"></line><line x1="93.17665093144093" y1="0" x2="93.17665093144093" y2="5" style="visibility: inherit;" fill="rgb(0, 0, 0)" stroke="rgb(204, 204, 204)" stroke-width="1px"></line><line x1="127.42918830312968" y1="0" x2="127.42918830312968" y2="5" style="visibility: inherit;" fill="rgb(0, 0, 0)" stroke="rgb(204, 204, 204)" stroke-width="1px"></line><line x1="161.6817256748184" y1="0" x2="161.6817256748184" y2="5" style="visibility: inherit;" fill="rgb(0, 0, 0)" stroke="rgb(204, 204, 204)" stroke-width="1px"></line><line x1="195.93426304650717" y1="0" x2="195.93426304650717" y2="5" style="visibility: inherit;" fill="rgb(0, 0, 0)" stroke="rgb(204, 204, 204)" stroke-width="1px"></line><line x1="230.1868004181959" y1="0" x2="230.1868004181959" y2="5" style="visibility: inherit;" fill="rgb(0, 0, 0)" stroke="rgb(204, 204, 204)" stroke-width="1px"></line><line x1="264.43933778988463" y1="0" x2="264.43933778988463" y2="5" style="visibility: inherit;" fill="rgb(0, 0, 0)" stroke="rgb(204, 204, 204)" stroke-width="1px"></line></g><g transform="translate(0, 8)"><text x="24.671576188063437" y="0" dx="0em" dy="0.95em" style="text-anchor: middle; visibility: inherit; font-family: &quot;Helvetica Neue&quot;, sans-serif; font-size: 12px; font-weight: 200;" fill="rgb(50, 49, 63)" stroke="none" stroke-width="1px">300k</text><text x="58.92411355975218" y="0" dx="0em" dy="0.95em" style="text-anchor: middle; visibility: inherit; font-family: &quot;Helvetica Neue&quot;, sans-serif; font-size: 12px; font-weight: 200;" fill="rgb(50, 49, 63)" stroke="none" stroke-width="1px">400k</text><text x="93.17665093144093" y="0" dx="0em" dy="0.95em" style="text-anchor: middle; visibility: inherit; font-family: &quot;Helvetica Neue&quot;, sans-serif; font-size: 12px; font-weight: 200;" fill="rgb(50, 49, 63)" stroke="none" stroke-width="1px">500k</text><text x="127.42918830312968" y="0" dx="0em" dy="0.95em" style="text-anchor: middle; visibility: inherit; font-family: &quot;Helvetica Neue&quot;, sans-serif; font-size: 12px; font-weight: 200;" fill="rgb(50, 49, 63)" stroke="none" stroke-width="1px">600k</text><text x="161.6817256748184" y="0" dx="0em" dy="0.95em" style="text-anchor: middle; visibility: inherit; font-family: &quot;Helvetica Neue&quot;, sans-serif; font-size: 12px; font-weight: 200;" fill="rgb(50, 49, 63)" stroke="none" stroke-width="1px">700k</text><text x="195.93426304650717" y="0" dx="0em" dy="0.95em" style="text-anchor: middle; visibility: inherit; font-family: &quot;Helvetica Neue&quot;, sans-serif; font-size: 12px; font-weight: 200;" fill="rgb(50, 49, 63)" stroke="none" stroke-width="1px">800k</text><text x="230.1868004181959" y="0" dx="0em" dy="0.95em" style="text-anchor: middle; visibility: inherit; font-family: &quot;Helvetica Neue&quot;, sans-serif; font-size: 12px; font-weight: 200;" fill="rgb(50, 49, 63)" stroke="none" stroke-width="1px">900k</text><text x="264.43933778988463" y="0" dx="0em" dy="0.95em" style="text-anchor: middle; visibility: inherit; font-family: &quot;Helvetica Neue&quot;, sans-serif; font-size: 12px; font-weight: 200;" fill="rgb(50, 49, 63)" stroke="none" stroke-width="1px">1M</text></g><line x1="0" y1="0" x2="284" y2="0" fill="rgb(0, 0, 0)" stroke="rgb(204, 204, 204)" stroke-width="1px"></line></g></g></g></g></svg>