<svg viewBox="0 0 330 200" xmlns="http://www.w3.org/2000/svg"><g><g><g><g><g><line x1="64" y1="157.45594468554643" x2="59" y2="157.45594468554643" style="visibility: inherit;" fill="rgb(0, 0, 0)" stroke="rgb(204, 204, 204)" stroke-width="1px"></line><line x1="64" y1="132.4645760996422" x2="59" y2="132.4645760996422" style="visibility: inherit;" fill="rgb(0, 0, 0)" stroke="rgb(204, 204, 204)" stroke-width="1px"></line><line x1="64" y1="107.47320751373795" x2="59" y2="107.47320751373795" style="visibility: inherit;" fill="rgb(0, 0, 0)" stroke="rgb(204, 204, 204)" stroke-width="1px"></line><line x1="64" y1="82.4818389278337" x2="59" y2="82.4818389278337" style="visibility: inherit;" fill="rgb(0, 0, 0)" stroke="rgb(204, 204, 204)" stroke-width="1px"></line><line x1="64" y1="57.49047034192945" x2="59" y2="57.49047034192945" style="visibility: inherit;" fill="rgb(0, 0, 0)" stroke="rgb(204, 204, 204)" stroke-width="1px"></line><line x1="64" y1="32.499101756025226" x2="59" y2="32.499101756025226" style="visibility: inherit;" fill="rgb(0, 0, 0)" stroke="rgb(204, 204, 204)" stroke-width="1px"></line><line x1="64" y1="7.507733170120986" x2="59" y2="7.507733170120986" style="visibility: inherit;" fill="rgb(0, 0, 0)" stroke="rgb(204, 204, 204)" stroke-width="1px"></line></g><g transform="translate(54, 0)"><text x="0" y="157.45594468554643" dx="0em" dy="0.3em" style="text-anchor: end; visibility: inherit; font-family: &quot;Helvetica Neue&quot;, sans-serif; font-size: 12px; font-weight: 200;" fill="rgb(50, 49, 63)" stroke="none" stroke-width="1px">0</text><text x="0" y="132.4645760996422" dx="0em" dy="0.3em" style="text-anchor: end; visibility: inherit; font-family: &quot;Helvetica Neue&quot;, sans-serif; font-size: 12px; font-weight: 200;" fill="rgb(50, 49, 63)" stroke="none" stroke-width="1px">200</text><text x="0" y="107.47320751373795" dx="0em" dy="0.3em" style="text-anchor: end; visibility: inherit; font-family: &quot;Helvetica Neue&quot;, sans-serif; font-size: 12px; font-weight: 200;" fill="rgb(50, 49, 63)" stroke="none" stroke-width="1px">400</text><text x="0" y="82.4818389278337" dx="0em" dy="0.3em" style="text-anchor: end; visibility: inherit; font-family: &quot;Helvetica Neue&quot;, sans-serif; font-size: 12px; font-weight: 200;" fill="rgb(50, 49, 63)" stroke="none" stroke-width="1px">600</text><text x="0" y="57.49047034192945" dx="0em" dy="0.3em" style="text-anchor: end; visibility: inherit; font-family: &quot;Helvetica Neue&quot;, sans-serif; font-size: 12px; font-weight: 200;" fill="rgb(50, 49, 63)" stroke="none" stroke-width="1px">800</text><text x="0" y="32.499101756025226" dx="0em" dy="0.3em" style="text-anchor: end; visibility: inherit; font-family: &quot;Helvetica Neue&quot;, sans-serif; font-size: 12px; font-weight: 200;" fill="rgb(50, 49, 63)" stroke="none" stroke-width="1px">1e+3</text><text x="0" y="7.507733170120986" dx="0em" dy="0.3em" style="text-anchor: end; visibility: inherit; font-family: &quot;Helvetica Neue&quot;, sans-serif; font-size: 12px; font-weight: 200;" fill="rgb(50, 49, 63)" stroke="none" stroke-width="1px">1.2e+3</text></g><line x1="64" y1="0" x2="64" y2="177" fill="rgb(0, 0, 0)" stroke="rgb(204, 204, 204)" stroke-width="1px"></line></g></g><g transform="translate(64, 0)" clip-path="url(#clip_0)"><clipPath id="clip_0"><rect width="266" height="177"></rect></clipPath><g><g><g><line x1="1.430623352877634" y1="0" x2="1.430623352877634" y2="177" fill="rgb(0, 0, 0)" stroke="rgb(60, 60, 60)" stroke-width="1px" opacity="0.25"></line><line x1="27.536779251915956" y1="0" x2="27.536779251915956" y2="177" fill="rgb(0, 0, 0)" stroke="rgb(60, 60, 60)" stroke-width="1px" opacity="0.25"></line><line x1="53.64293515095428" y1="0" x2="53.64293515095428" y2="177" fill="rgb(0, 0, 0)" stroke="rgb(60, 60, 60)" stroke-width="1px" opacity="0.25"></line><line x1="79.7490910499926" y1="0" x2="79.7490910499926" y2="177" fill="rgb(0, 0, 0)" stroke="rgb(60, 60, 60)" stroke-width="1px" opacity="0.25"></line><line x1="105.85524694903091" y1="0" x2="105.85524694903091" y2="177" fill="rgb(0, 0, 0)" stroke="rgb(60, 60, 60)" stroke-width="1px" opacity="0.25"></line><line x1="131.96140284806924" y1="0" x2="131.96140284806924" y2="177" fill="rgb(0, 0, 0)" stroke="rgb(60, 60, 60)" stroke-width="1px" opacity="0.25"></line><line x1="158.06755874710757" y1="0" x2="158.06755874710757" y2="177" fill="rgb(0, 0, 0)" stroke="rgb(60, 60, 60)" stroke-width="1px" opacity="0.25"></line><line x1="184.17371464614587" y1="0" x2="184.17371464614587" y2="177" fill="rgb(0, 0, 0)" stroke="rgb(60, 60, 60)" stroke-width="1px" opacity="0.25"></line><line x1="210.27987054518422" y1="0" x2="210.27987054518422" y2="177" fill="rgb(0, 0, 0)" stroke="rgb(60, 60, 60)" stroke-width="1px" opacity="0.25"></line><line x1="236.38602644422252" y1="0" x2="236.38602644422252" y2="177" fill="rgb(0, 0, 0)" stroke="rgb(60, 60, 60)" stroke-width="1px" opacity="0.25"></line><line x1="262.4921823432608" y1="0" x2="262.4921823432608" y2="177" fill="rgb(0, 0, 0)" stroke="rgb(60, 60, 60)" stroke-width="1px" opacity="0.25"></line></g><g><line x1="0" y1="157.45594468554643" x2="266" y2="157.45594468554643" fill="rgb(0, 0, 0)" stroke="rgb(60, 60, 60)" stroke-width="1px" opacity="0.25"></line><line x1="0" y1="132.4645760996422" x2="266" y2="132.4645760996422" fill="rgb(0, 0, 0)" stroke="rgb(60, 60, 60)" stroke-width="1px" opacity="0.25"></line><line x1="0" y1="107.47320751373795" x2="266" y2="107.47320751373795" fill="rgb(0, 0, 0)" stroke="rgb(60, 60, 60)" stroke-width="1px" opacity="0.25"></line><line x1="0" y1="82.4818389278337" x2="266" y2="82.4818389278337" fill="rgb(0, 0, 0)" stroke="rgb(60, 60, 60)" stroke-width="1px" opacity="0.25"></line><line x1="0" y1="57.49047034192945" x2="266" y2="57.49047034192945" fill="rgb(0, 0, 0)" stroke="rgb(60, 60, 60)" stroke-width="1px" opacity="0.25"></line><line x1="0" y1="32.499101756025226" x2="266" y2="32.499101756025226" fill="rgb(0, 0, 0)" stroke="rgb(60, 60, 60)" stroke-width="1px" opacity="0.25"></line><line x1="0" y1="7.507733170120986" x2="266" y2="7.507733170120986" fill="rgb(0, 0, 0)" stroke="rgb(60, 60, 60)" stroke-width="1px" opacity="0.25"></line></g></g></g><g><g><line x1="0" y1="157.45594468554643" x2="266" y2="157.45594468554643" fill="rgb(0, 0, 0)" stroke="rgb(153, 153, 153)" stroke-width="1.5px"></line></g></g><g><g><line x1="-50.78168844519901" y1="0" x2="-50.78168844519901" y2="177" fill="rgb(0, 0, 0)" stroke="rgb(153, 153, 153)" stroke-width="1.5px"></line></g></g><g><g><g><g><g><path stroke="rgb(255, 112, 67)" stroke-width="2px" d="M30.72173027159863,92.62103728932881L30.878367206992863,120.09845378026982L31.113322610084207,105.77530963042821L31.19164107778132,121.01140324309452L31.426596480872668,91.2274923765646L31.81818881935824,97.36578449009788L31.97482575475247,100.93281643319476L32.1314626901467,131.8982748599106L32.366418093238046,108.23580798501216L32.60137349632939,125.3749173002871L32.75801043172362,130.7018766448628L33.14960277020919,132.20181791477756L33.22792123790631,114.99105022140157L33.306239705603424,125.56037295942886L33.38455817330054,132.8332271124574L33.462876640997656,108.27484532187403L33.61951357639188,110.05998779456398L33.697832044089,122.40609319816332L33.77615051178611,82.62657109416106L34.01110591487746,114.82480247039814L34.08942438257458,120.15310018618123L34.32437978566592,98.87925900960511L34.48101672106015,114.21508655866103L34.637653656454376,123.22585756771343L34.71597212415149,112.05251539102002L34.872609059545724,116.44364183265549L34.95092752724284,117.7415784873615L35.029245994939956,126.55870083655955L35.10756446263707,96.4159691020249L35.969067607305334,124.37217860256601L36.51729688118514,125.46624489203516L36.830570751973596,70.8892708930453L36.90888921967072,127.14509744150088L36.98720768736783,113.27903420594757L37.300481558156285,117.80414894063111L37.53543696124763,133.50047177582195L37.61375542894475,134.73398053348023L37.92702929973321,122.37640682580701L38.161984702824554,116.05928335320331L38.396940105915895,50.16673769860516L38.71021397670435,85.00142959218202L38.78853244440147,90.05108608867133L38.86685091209859,84.67037050284338L38.94516937979571,118.7415434586756L39.41508018597839,134.23921696220359L39.51950480957455,106.16837928848744L39.98941561575723,112.19598011338711L40.302689486545695,110.4003840983543L40.53764488963704,47.521699221245285L40.772600292728384,127.83169430533795L40.8509187604255,125.02317569311283L41.007555695819725,130.70895581677075L41.24251109891108,93.18795249984286L41.32082956660819,76.15685165861892L41.399148034305306,118.62692575459744L41.55578496969954,122.5035802640169L41.947377308185104,103.34099947681169L42.57392504976203,118.43806307580158L42.88719892055049,87.45424733275415L42.9655173882476,129.21354009655573L43.04383585594472,135.36291450192186L43.435428194430294,124.03493594613911L43.51374666212741,112.3354357869165L43.74870206521875,121.10427738949355L44.061975936007215,103.0368518185547L44.14029440370433,112.44288874598757L44.531886742189904,80.96210572513937L44.61020520988702,120.5695561932701L44.84516061297836,126.30357589125283L44.92347908067548,114.96948903981789L45.00179754837259,113.57178675689764L45.08011601606971,106.19131268506328L45.23675295146394,109.24818458860884L45.5500268222524,129.61326940335104L45.78498222534374,75.58713596997781L45.94161916073798,113.25852344225885L46.098256096132204,104.77385296303954L46.17657456382932,113.5916271374602L46.48984843461778,129.45530708724652L46.64648537001201,114.71758407783037L46.88144077310335,124.3096264243087L47.27303311158893,125.12588774461327L47.58630698237739,113.18216966972076L47.6646254500745,124.13838713028419L47.82126238546873,114.58251160986373L47.89958085316585,122.77525740462491L47.97789932086297,103.32440674691252L48.21285472395431,101.04162765787098L48.36949165934853,107.44846881930599L48.682765530137,127.2948298237402L48.83940246553123,135.52128879726072L48.917720933228345,117.06486723398643L48.99603940092546,125.54732931683256L49.07435786862257,95.33129392273192L49.30931327171392,106.26959682591719L49.38763173941103,125.41165169496676L49.622587142502375,118.33312556044417L49.7792240778966,119.0950104998708L50.092497948685065,82.05397029995514L50.2491348840793,105.07591517199995L50.7973641579591,131.5430011965944L50.954001093353334,130.09301465917346L51.11063802874756,131.80798302600994L51.89382270571871,124.18499797181713L51.97214117341583,81.13316547597354L52.12877810881005,106.64937721727317L52.20709657650717,131.71317497038012L52.3637335119014,82.6362964987524L52.44205197959851,90.71126254338989L52.75532585038698,107.14542833610743L52.911962785781206,116.10297878544773L52.99028125347832,112.08137838075547L53.381873591963895,122.3447708590133L53.53851052735812,116.8689082323312L53.616828995055236,115.1800564683316L53.69514746275236,117.15704445397142L53.773465930449476,110.08432545570753L53.851784398146584,131.73902611355663L53.9301028658437,108.96058100712865L54.08673980123793,108.95499490518473L54.24337673663216,116.21531944663698L54.713287542814854,112.91272271556791L54.86992447820908,82.07817773343176L54.948242945906195,108.29551898914569L55.02656141360331,109.85414914986562L55.183198348997536,115.03047509127632L55.418153752088884,86.24354391179311L55.88806455827157,75.56262301857286L56.12301996136292,118.70686378513227L56.279656896757146,122.9329029339121L56.35797536445426,125.28515800968535L56.59293076754561,105.31315329201614L56.671249235242726,104.48425479215499L56.90620463833407,113.17997495004524L56.98452310603118,115.02598207435791L57.0628415737283,108.6832171341233L57.141160041425415,95.34398931509384L57.29779697681964,112.25992175206717L57.376115444516756,64.14643995835667L57.45443391221387,95.39802747228153L57.611070847608104,122.79359501543667L57.68938931530522,109.73907650207305L57.84602625069945,107.41803450399053L58.315937056882134,110.82652758721059L58.39425552457925,110.58628619869597L58.55089245997348,76.07137164555277L58.6292109276706,115.04807227378447L58.78584786306483,115.5481925043641L58.942484798459056,128.03621822796487L59.09912173385329,120.55870454554622L59.177440201550404,109.64256490364274L59.25575866924751,127.18621146369969L59.33407713694463,124.48796101877471L59.72566947543021,105.50913845119494L59.803987943127325,125.72779701590429L60.11726181391578,97.07002095471549L60.1955802816129,75.70112731364624L60.35221721700712,115.42467480470738L60.43053568470424,125.90756466830473L60.50885415240136,75.29094729573042L60.58717262009847,119.86199310150894L60.66549108779559,120.47907979763178L61.605312700160965,103.5753882616122L61.7619496355552,117.15713407032555L61.84026810325231,135.1749625980056L61.91858657094942,124.88398116417012L62.075223506343654,118.01099233479789L62.15354197404077,130.26017838655548L62.231860441737886,107.17523489297385L62.466815844829235,121.25361565364975L62.62345278022346,95.54413613145736L62.93672665101192,123.21887704018141L63.01504511870903,115.31155148838198L63.171682054103265,110.82636655265664L63.641592860285954,122.74669195708256L63.71991132798307,111.31950515610497L63.798229795680186,102.91379208039967L64.03318519877153,109.72904481426521L64.18982213416575,120.3239333796918L64.34645906956,89.38947017456736L64.42477753725711,127.37918458700952L64.50309600495422,133.55016994475886L64.58141447265133,87.30488393921185L64.73805140804556,119.83024654713644L64.8946883434398,114.80641666966983L65.12964374653113,98.32077171753767L65.20796221422825,117.04556832736615L65.36459914962249,106.46543682601019L65.44291761731961,107.45956943927872L65.59955455271383,122.36545272557913L65.83450995580517,88.3401145177371L66.01725304709845,113.44209009285703L66.09557151479555,116.1429174763471L66.17388998249267,95.81209902801046L66.40884538558402,133.17302065465182L66.80043772406958,127.42395059754966L66.8787561917667,109.01781243161767L66.95707465946381,88.64454016562993L67.27034853025229,111.18009319103295L67.34866699794941,127.82779433799473L67.42698546564651,105.80989106860623L67.66194086873786,117.30472266819503L67.74025933643497,114.77803081848684L67.8968962718292,119.79947878719813L68.05353320722344,113.78963961354249L68.13185167492054,100.19532247683507L68.21017014261766,125.85609959387725L68.445125545709,126.0747642349993L68.52344401340612,106.74719095402224L68.75839941649745,97.53699788622872L68.9933548195888,123.5021402104672L69.22831022268016,116.7667785300888L69.3849471580744,112.9995091522887L69.4632656257715,119.37116305028489L69.54158409346861,125.02310636370977L69.77653949655996,108.66529335985476L69.85485796425708,99.46352562569557L70.16813183504553,105.43755262426552L70.24645030274264,127.14954791419004L70.48140570583399,125.95635281048077L70.55972417353111,123.13849084520922L70.63804264122822,122.89900579754138L70.87299804431956,117.59510539927132L70.95131651201667,97.73808986353754L71.0296349797138,112.96870611177215L71.10795344741092,113.8783316356039L71.18627191510804,93.6627331993008L71.26459038280515,78.34732842470268L71.34290885050227,105.50001447642309L71.42122731819939,96.31903539930477L71.49954578589649,110.67766372637612L71.89113812438207,95.06581812021815L71.96945659207918,123.41782678997116L72.20441199517052,84.80121304700718L72.36104893056475,107.89862815762964L72.5960043336561,97.06711225270446L72.75264126905033,125.43481252611919L72.90927820444456,76.87991712424383L73.30087054293014,114.61535679144436L73.37918901062726,73.98597600825143L73.45750747832437,69.5712148789378L73.53582594602148,81.53936263262631L73.61414441371859,108.01676896480345L73.69246288141571,98.34509734920242L74.16237368759839,64.32224355349122L74.39732909068974,94.66431250586339L74.47564755838685,74.18142147574886L74.7106029614782,112.3194065038866L75.1805137676609,102.99239448573125L75.25883223535801,83.08838195100836L75.49378763844936,93.60412660059048L75.57210610614646,58.96522409562583L75.7287430415407,90.56625641291885L75.80706150923781,105.15521008134235L75.88537997693493,127.52923296474998L76.19865384772338,107.28013325608869L76.2769723154205,86.07009125698383L76.43360925081473,87.33823797547595L76.66856465390607,80.43124747864215L76.74688312160319,64.8629279051333L76.90352005699742,97.26700445584424L77.21679392778589,107.4627046816472L77.295112395483,73.02963134788034L77.45174933087723,112.47769924133287L77.68670473396857,81.17900023724327L77.76502320166568,105.0342219765741L77.8433416693628,97.12388369914468L77.99997860475703,110.05100073522583L78.23493400784837,76.19309081838357L78.31325247554548,121.69109639829318L78.46988941093971,100.85323809731361L78.96590637302145,116.35524223146608L79.04422484071857,89.62757356799142L79.43581717920414,87.08918954125248L79.51413564690125,109.53988160375235L79.67077258229548,101.61677769115904L80.06236492078106,109.47268546575759L80.2190018561753,87.95510688533004L80.68891266235798,123.69015303988475L80.92386806544933,109.29201720328993L81.00218653314644,97.80128900285912L81.15882346854067,112.32751041190305L81.31546040393489,110.3869561253097L81.55041580702624,89.4602856093708L81.62873427472336,94.74586020441713L81.78537121011759,107.44548288278784L81.94200814551182,95.07618620995484L82.02032661320894,68.2584241742603L82.17696354860317,102.3820115990393L82.25528201630028,99.57052616031496L82.3336004839974,95.18302215613485L82.56855588708873,97.08266169255963L82.64687435478585,100.41707795336924L82.72519282248297,96.64253162740991L82.80351129018008,49.32655475087371L82.8818297578772,94.48185086772818L83.27342209636276,123.56482863551881L83.50837749945411,119.71576832128062L83.74333290254546,115.01609086413308L83.8999698379397,121.06562703361944L84.13492524103104,108.1457398079529L84.29156217642527,117.58876800807232L84.36988064412239,113.72059533712522L84.4481991118195,117.13226319518014L84.76147298260796,88.58609352195813L84.83979145030507,106.45554774714998L84.9964283856993,112.96938868639867L85.15306532109354,108.63043836444967L85.46633919188199,88.88432334028714L85.5446576595791,106.43125627739596L85.70129459497333,107.2143925606144L85.77961306267045,117.36911903234008L85.93624999806468,104.85748040536824L86.24952386885315,116.2151846484345L86.4844792719445,65.09180951976516L86.79775314273294,106.51504606712717L86.95439007812718,122.52273165747363L87.03270854582429,109.53801140616498L87.11102701352141,99.18236151010534L87.18934548121852,78.06946343053676L87.26766394891563,119.07156222075997L87.42430088430986,91.89747654508393L87.58093781970409,115.43993088000286L87.73757475509832,118.26322630164374L87.81589322279545,110.15490224365479L88.05084862588679,97.77973494033036L88.36412249667525,116.8271203535634L88.52075943206948,81.82649634028053L88.5990778997666,75.15718084562154L88.75571483516082,93.82948185133205L89.1473071736464,91.82909660185516L89.38226257673773,112.4916052954182L89.53889951213196,125.87020439113408L89.69553644752621,103.10742543343153L89.85217338292044,114.69150434116347L90.00881031831466,106.54543258959704L90.16544725370889,125.0204105312634L90.40040265680024,120.89124769519299L90.47872112449735,98.40929470768872L90.71367652758869,107.5052270524646L91.02695039837715,119.48634700240567L91.18358733377138,105.10336628354578L91.81013507534831,119.5444565521384L92.12340894613676,97.23403254231215L92.20172741383388,109.60865033649344L92.43668281692523,112.19904294601812L92.8282751554108,115.80822169015698L93.21986749389637,118.49369078386178L93.29818596159349,61.761384703688904L93.68977830007907,59.31973935911941L93.76809676777619,105.67917416914197L94.08137063856464,115.02198825839972L94.3946445093531,114.73241866073285L94.47296297705022,86.13367519818144L94.62959991244445,123.74817577607334L94.70791838014156,122.0298179430831L94.78623684783867,105.28064211490089L95.02119225093001,102.53302008019325L95.09951071862713,119.52658989238722L95.17782918632425,85.75591767359761L95.25614765402136,97.69605629543634L95.41278458941558,113.02195600749752L95.56942152480983,103.04529567157202L95.72605846020406,83.68104888809748L95.80437692790117,124.56469528293657L96.19596926638674,124.3676590649205L96.35260620178097,112.50022222096061L96.66588007256944,120.81336937713283L96.82251700796365,103.23736193186711L96.90083547566077,130.51398657248745L97.13579087875212,105.61352720416532L97.21410934644923,115.42083717123498L97.29242781414635,91.00915723145404L97.37074628184347,114.1470264107395L97.5273832172377,101.17387150273248L97.60570168493481,90.32231945242847L97.84065708802616,127.57581077179506L97.91897555572328,30.2072808834142L98.07561249111751,111.06968690927505L98.15393095881461,125.67293387928095L98.23224942651173,104.23308852821565L98.38888636190596,97.58604717648713L98.46720482960308,78.76920629653287L98.54552329730019,99.85471125823675L98.70216023269442,110.42465565042255L98.78047870039153,105.46452473434819L98.93711563578576,116.30257587170844L99.01543410348287,121.96411123246278L99.09375257117999,107.55479684362876L99.25038950657422,109.37927789600141L99.48534490966557,105.04758091038812L99.56366337736269,102.14411381074183L99.72030031275692,95.0990096411692L99.87693724815115,89.14506671797558L100.03357418354538,111.86513019369733L100.1118926512425,113.38830536022894L100.50348498972807,105.05320058222813L100.73844039281941,75.05753629475397L100.81675886051652,39.28598262617746L100.89507732821363,85.47868475330749L100.97339579591075,117.081152678819L101.13003273130498,114.54979304750967L101.83489894057902,100.81986661511816L101.91321740827614,126.29148757725494L102.38312821445882,103.09174031477106L102.46144668215594,126.30369370983456L102.53976514985305,128.7082293135257L102.93135748833862,111.4874744477357L103.08799442373285,135.89440225318054L103.16631289142997,98.89207563072175L103.24463135912708,133.58415597862353L103.32294982682421,117.53315525453009L103.47958676221845,132.46295686788045L103.63622369761266,80.66099982526549L103.94949756840113,114.91514900598398L104.10613450379536,123.5177498945165L104.3410899068867,94.06970039269926L104.41940837458381,116.8283857822958L104.81100071306939,131.51820650107484L105.46365461054535,53.349749536001724L105.62029154593958,98.53813762233523L105.6986100136367,97.97411819149202L105.7769284813338,102.9813465405373L105.93356541672803,116.55177953868267L106.09020235212226,120.73118546039814L106.32515775521361,110.1981696228577L106.63843162600207,117.25499614903768L106.7950685613963,134.71807738158492L106.87338702909342,130.00975400876845L106.95170549679054,123.59768299771913L107.03002396448765,125.35305724722838L107.26497936757899,119.23444101516353L107.3432978352761,104.32241897534902L107.42161630297322,97.01044296514539L107.65657170606457,120.16861688718693L107.8915271091559,122.6626933054792L107.96984557685302,49.9699137765888L108.20480097994437,92.05377984367824L108.28311944764148,97.09999687860451L108.90966718921841,113.654198082369L108.98798565691553,111.20054908574573L109.06630412461264,118.58629031318279L109.14462259230976,108.90547449987483L109.30125952770398,123.02045371943808L109.45789646309821,109.53779833238588L109.53621493079532,109.93513025722162L109.61453339849244,119.00369792794889L110.47603654316072,121.17214804234823L110.63267347855493,131.62334492927423L110.71099194625205,107.29633952784188L111.18090275243475,118.1723361654019L111.25922122013185,116.5656749349182L111.4941766232232,120.93279614717444L111.57249509092031,112.37738762545818L111.80745049401166,106.93452901629415L111.88576896170876,128.7634816828599L112.042405897103,131.542488825436L112.19904283249723,99.4093874320053L112.5123167032857,122.33044376941726L112.66895363867992,114.03138343455146L112.74727210637704,117.07449718918954L112.82559057407416,132.85067257423833L112.90390904177127,108.99597877868719L112.98222750946839,125.01315085804903L113.13886444486262,123.88586904452792L113.21718291255974,129.87595882595474L113.37381984795395,85.85764986613715L113.53045678334819,109.689078234385L113.6087752510453,89.18948327523592L113.68709371874242,114.70198380909707L113.76541218643953,125.31606189195942L114.07868605722798,99.971608917187L114.1570045249251,124.92196286277469L114.23532299262222,122.87050422252733L114.31364146031935,94.46998024184295L114.39195992801646,112.39269769679647L114.5485968634107,128.23958905826754L115.17514460498761,109.3259633792884L115.41010000807894,118.28837391131185L115.48841847577606,123.42209383906837L115.56673694347317,107.23327808960161L115.7233738788674,97.79880169104884L116.34992162044433,122.74369431550218L116.42824008814145,113.84787419261284L116.7415139589299,124.70926455470641L116.97646936202125,111.93928703737922L117.13310629741548,125.10744260245798L117.2114247651126,112.04495377116355L117.60301710359816,110.52889032962558L117.68133557129528,98.61490602231791L117.91629097438663,127.96808017739502L118.07292790978084,71.70133641593684L118.15124637747797,106.10192311741623L118.38620178056932,107.08525734548479L118.77779411905489,127.14980133409613L118.93443105444912,98.08521414536632L119.24770492523758,119.48000079348319L119.32602339293469,120.5798493705635L119.56097879602603,115.44821602866347L119.71761573142027,102.75835035397508L119.8742526668145,120.65371796155182L120.03088960220872,118.54822202572394L120.10920806990585,120.3010817683197L120.26584500530008,127.51675848436395L120.50080040839143,130.9546664968778L120.57911887608854,97.50808906497244L120.65743734378566,93.84609547596422L120.73575581148276,130.40972696011232L120.81407427917988,118.06054142253485L120.892392746877,123.75778750292523L120.97071121457411,119.53860078612689L121.04902968227123,123.54257217724944L121.20566661766546,52.18813962185236L121.67557742384814,115.74796263800786L121.75389589154526,123.21065206633104L121.83221435924237,106.34176396460202L121.91053282693949,121.50899940346673L121.9888512946366,124.09855362099994L122.14548823003084,123.89701577366648L122.22380669772795,132.65412336883549L122.38044363312218,109.48692005490611L122.4587621008193,86.63288558867157L122.53708056851642,129.22196298431572L122.85035443930487,130.43109038561724L123.0069913746991,117.35612260851738L123.16362831009333,105.95044600939977L123.79017605167024,116.050309869239L123.94681298706449,72.70192370852071L124.0251314547616,115.69114010732991L124.33840532555006,117.83342883292075L124.41672379324717,109.81575292215582L124.49504226094429,119.82440667017772L124.65167919633852,124.96069939849355L124.88663459942985,134.88622549490907L125.04327153482409,137.3684939869691L125.1215900025212,127.20733890949737L125.27822693791543,97.02581676501596L125.35654540561255,119.61475193695267L125.51318234100677,99.37272513157855L125.669819276401,126.53931213646125L125.90477467949236,120.22063921027046L126.0614116148866,113.46014026148839L126.1397300825837,99.28861895436111L126.21804855028081,122.95436402741586L126.76627782416062,83.39764609631314L126.92291475955484,112.04749239423295L127.2361886303433,107.25501466684021L127.39282556573754,127.99942572587679L127.54946250113176,121.85816390575286L127.62778096882887,122.66632209546793L127.70609943652599,98.34264788085564L128.01937330731445,113.63087133435664L128.09769177501158,118.68561853049883L128.17601024270868,131.7349518870454L128.25432871040582,103.81615839242357L128.56760258119425,120.07680099237888L128.64592104889138,136.27482226403478L128.8025579842856,130.8280818047775L128.88087645198272,125.37412814110054L129.11583185507408,107.3124697709268L129.19415032277118,123.86153654401915L129.3507872581654,119.82651092397964L129.50742419355964,111.711978545717L129.58574266125675,121.87127307783862L129.74237959665098,133.5615410965224L129.97733499974234,127.50431383386939L130.05565346743944,97.31340514137436L130.21229040283367,116.55006603594808L130.2906088705308,96.81047606655329L130.52556427362214,118.0751807390509L130.60388274131924,102.70390833951976L130.76051967671347,132.92045080137436L130.9171566121077,125.32779430508613L130.99547507980483,99.13794118552354L131.778659756776,94.31575783779196L131.8569782244731,93.68121008848458L132.24857056295866,132.30466643712919L132.3268890306558,132.57118620620247L132.50963212194904,113.28649689875516L132.7445875250404,122.43986129295425L132.9012244604346,84.72934187187101L133.05786139582887,86.97078361532425L133.13617986352597,122.49062212696631L133.2144983312231,115.96442447896695L133.2928167989202,129.82518871063775L133.4494537343144,133.1003580652932L133.52777220201153,135.0397173064414L133.8410460728,134.18231222281923L133.9193645404971,113.7245497237853L133.99768300819423,131.79035578454977L134.15431994358846,108.62433296319884L134.3109568789827,116.02631226717304L134.54591228207406,135.05956329143555L134.62423074977116,98.27224448435898L134.8591861528625,114.97348268157359L134.9375046205596,131.7109815937782L135.01582308825672,125.10190842471528L135.09414155595383,115.30091463031009L135.25077849134806,107.65282562261382L135.48573389443942,117.90970204649278L135.79900776522788,118.94915707624318L135.95564470062212,126.90564736234826L136.03396316831925,108.93052441465035L136.19060010371345,124.58698902699267L136.34723703910768,136.21578446324253L136.50387397450191,97.18471996829464L136.81714784529038,119.1114621917917L137.28705865147307,119.16598706297776L137.4436955868673,110.93879922316992L137.52201405456438,114.82686959668818L137.6786509899586,107.17427734600457L137.91360639304997,109.50468367099644L138.0702433284442,133.27329592231436L138.14856179614134,111.26888965386577L138.4618356669298,130.26813516172416L138.69679107002113,122.84130413319204L138.77510953771827,129.99853180382095L139.24502034390093,119.25653906256011L139.40165727929516,137.31694211659502L139.79324961778076,86.80228461929187L140.10652348856922,108.61479586056666L140.26316042396343,104.7481408916052L140.41979735935766,129.46849428331845L140.654752762449,125.76346573713755L140.73307123014612,134.90601253823192L140.96802663323746,113.74930912730645L141.0463451009346,121.21015469507157L141.1246635686317,113.65957810851104L141.28130050402592,113.01075830735351L141.35961897172305,88.19304645512551L141.43793743942015,118.67618128257233L141.51625590711728,120.34916077818896L141.75121131020862,133.53540273648227L141.82952977790572,125.49396708712078L142.06448518099708,132.34809711998736L142.2211221163913,120.90350739891016L142.53439598717978,99.19461250885603L142.691032922574,112.96470293474479L142.92598832566532,123.42642260370752L143.08262526105955,137.50853031864318L143.3175806641509,130.91228871467283L143.395899131848,118.6686940913818L143.55253606724224,117.04602710109614L143.63085453493937,76.83661371552404L144.2574022765163,129.3294147629955L144.4140392119105,109.3986363956078L144.57067614730474,93.89175847772816L144.72731308269897,132.7108012386708L144.8839500180932,90.36526983471896L145.04058695348743,110.33564171254993L145.11890542118456,126.7462372574835L145.2755423565788,124.93704471152861L145.51049775967013,98.19431547140009L145.58881622736726,113.2417441260989L145.66713469506436,127.91634856931474L145.74545316276146,119.83455190623128L146.13704550124706,120.41902902546013L146.21536396894416,125.56842167530755L146.2936824366413,98.04247164688738L146.68527477512686,115.1147107215463L146.763593242824,100.16767256167633L146.9985486459153,123.09619276934123L147.07686711361242,132.43644566263276L147.62509638749225,127.1615400694741L147.78173332288648,128.1353419057383L147.86005179058358,105.7287449502193L148.40828106446338,96.56884913110818L148.64323646755471,134.1671964256316L148.72155493525185,96.51745483429791L148.87819187064608,114.06394263912375L149.1131472737374,102.29149183089855L149.19146574143454,123.30211692481387L149.26978420913164,109.20569196673068L149.42642114452588,134.11513392615126L149.73969501531434,131.01977531390793L150.0529688861028,119.64626693839594L150.20960582149704,123.28383330529539L150.28792428919414,105.29416822787135L150.67951662767973,78.076126236508L150.75783509537683,125.14004494498448L150.91447203077107,131.05219272175137L151.07110896616527,111.42494687913572L151.1494274338624,121.875134022263L151.2277459015595,127.67930287215296L151.30606436925663,120.64907273381587L151.38438283695373,116.06683455310349L151.46270130465086,127.36380759733905L151.541019772348,126.58792196227583L151.69765670774223,88.49771109343139L152.0109305785307,132.8872911289172L152.0892490462278,115.65806198062518L152.24588598162202,114.22430429860677L152.55915985241046,115.66132337016364L152.6374783201076,126.69030012778393L153.02907065859316,133.92039179286866L153.57729993247298,136.62276325881692L153.6556184001701,119.99687308230824L153.73393686786721,117.20326069456485L153.89057380326142,138.6088030016405L153.96889227095855,108.29010943991621L154.12552920635278,110.25636954253544L154.20384767404988,106.04412267779303L154.282166141747,133.31514237120618L154.43880307714124,131.02698628710573L154.51712154483835,137.66572989934016L154.59544001253548,140.23389487125587L154.8303954156268,124.01092581650443L155.06535081871817,118.96327826497969L155.3003062218095,125.8871052725653L155.45694315720374,129.59843950563211L155.61358009259797,113.28005237845466L155.7702170279922,111.5725394766577L155.8485354956893,123.91367015510986L155.92685396338643,125.53543657647458L156.16180936647777,116.62645114084592L156.2401278341749,135.96439618151294L156.318446301872,92.43255364454454L156.55340170496333,121.10772574062517L156.63172017266044,120.12125650692812L156.78835710805467,130.89796830967805L156.8666755757518,125.58165894437917L156.9449940434489,121.67463048373878L157.02331251114603,124.12396869550773L157.17994944654026,122.91125995869787L157.2582679142374,103.99504432947023L157.3365863819345,115.0549866770425L157.41490484963163,125.41605204950832L157.49322331732873,124.64590613822725L157.64986025272296,95.75069618657629L157.7281787204201,109.3571554779671L157.8848156558143,113.45635789542749L158.11977105890563,111.75202232573162L158.19808952660276,109.60613041590784L158.51136339739122,111.57210766583188L158.53746955329026,111.5681405900577L158.7724249563816,128.25275790605943L158.8507434240787,116.25050081281132L158.92906189177583,107.8116016769596L159.00738035947293,121.39938261607611L159.16401729486716,124.10103977537602L159.3206542302614,97.00468711113277L159.39897269795853,91.08756269244047L159.712246568747,125.58389381174776L159.94720197183833,134.8287308621445L160.02552043953546,131.606486014466L160.10383890723253,115.45925038470989L160.49543124571812,112.17051318980931L160.57374971341525,115.20638230238532L161.04366051959795,130.8339694516146L161.27861592268928,118.82853428227102L161.3569343903864,112.1381970049825L161.4352528580835,133.21202100805186L161.51357132578062,126.21636359330547L161.74852672887195,124.63849961658161L162.06180059966042,126.19087176676356L162.21843753505465,120.4236638454494L162.37507447044888,124.86776446205623L162.53171140584314,101.76953860740554L162.84498527663158,95.45768709409778L162.92330374432868,118.32984394700694L163.15825914742004,126.14194087834272L163.23657761511714,113.11073315781576L163.31489608281427,105.94816527314849L163.86312535669407,117.4097274993523L164.72462850136233,85.18306023768953L164.88126543675656,122.71524568864795L164.9595839044537,95.83091892505948L165.0379023721508,84.46975770020505L165.11622083984793,128.41668120891873L165.35117624293926,110.37062188317044L165.89940551681906,101.98397399148803L165.97772398451616,129.812968134835L166.21267938760752,121.8657294203461L166.29099785530465,83.51972978209957L166.36931632300175,123.8895539527102L166.44763479069888,122.303282602649L166.525953258396,131.1407324227299L166.60427172609312,116.26816604146521L166.68259019379022,121.3288776453947L166.76090866148735,101.25392851638385L166.83922712918445,75.70280851014203L166.91754559688155,130.84136384745483L167.1525009999729,111.39065017384289L167.30913793536712,134.46013735390162L167.7007302738527,124.41667672184862L167.77904874154981,117.65815415415716L167.93568567694405,128.24015943566607L168.1706410800354,92.5601867542703L168.2489595477325,75.14632252764876L168.3272780154296,113.3975791991232L168.40559648312674,130.32512576338556L168.56223341852098,113.04385654323895L168.7188703539152,91.29707472940547L168.7971888216123,131.67930890898504L169.11046269240077,123.95614841976598L169.1887811600979,99.12080265904594L169.267099627795,133.58075470236665L169.34541809549214,132.5857287751651L169.58037349858344,108.96462642621228L169.65869196628057,131.23831412464614L169.8153289016748,87.81590691426683L169.8936473693719,77.13840911076623L170.05028430476614,105.35139209244315L170.12860277246327,109.53846048549597L170.2852397078575,121.13599835492079L170.36355817555463,138.51028192285392L170.44187664325173,117.31848400928295L170.52019511094886,137.97226262319043L170.6768320463431,115.38049050789488L170.83346898173733,126.91469796596897L170.91178744943443,99.77607625627854L171.22506132022286,115.50052063451088L171.3816982556171,127.4459964204496L171.53833519101133,122.71558515777613L171.69497212640556,125.57424604907291L172.00824599719402,108.07798420132544L172.16488293258828,106.27567439961004L172.2432014002854,128.70480735027857L172.3998383356796,111.21190442101418L172.55647527107382,118.77975668799257L172.63479373877095,122.69415648474892L172.8697491418623,88.4066391154125L173.02638607725652,134.07496823425436L173.10470454495365,129.8590904986367L173.18302301265075,109.57704611123047L173.4179784157421,125.90963937191188L173.88788922192478,135.65352113893496L174.20116309271324,96.90591917897922L174.5144369635017,112.33165637708157L174.67107389889594,122.04830509007508L174.74939236659307,130.10509157941806L174.82771083429017,123.44098635831033L174.9060293019873,133.14107050725843L174.98434776968438,128.74062094239133L175.45425857586707,135.26478614906364L175.6108955112613,99.77347369520368L176.0024878497469,118.28784575052717L176.08080631744403,113.47110880434427L176.15912478514113,109.6574672805811L176.39408018823246,125.06990816560497L176.47239865592957,131.27506828501762L176.86399099441516,130.48215235268776L176.94230946211226,127.92551129487472L177.17726486520363,116.98152249293975L177.25558333290073,121.8624810872993L177.438326424194,121.47575696116145L177.59496335958823,115.92747567694403L177.67328182728534,128.6244332157982L177.82991876267957,116.93430643242866L178.06487416577093,109.79515027568533L178.14319263346803,138.77587077481084L178.22151110116516,139.2863016646321L178.29982956886226,121.97847408446361L178.53478497195363,126.3382710662749L178.6131034396507,124.2071183321444L178.69142190734783,117.67855899307577L179.0046957781363,131.47237414404972L179.0830142458334,137.38968410954635L179.31796964892476,109.25928986480177L179.3962881166219,97.29294426906537L179.474606584319,104.95449564312405L179.63124351971322,130.9541782293621L179.78788045510746,134.1190022138257L179.86619892280459,137.88375172474946L180.17947279359302,102.93151243156308L180.33610972898725,83.60968296073713L180.5710651320786,99.20325183117316L180.64938359977572,117.30009685078247L180.96265747056418,139.8120337417859L181.04097593826128,134.73884064164287L181.19761287365554,111.0253559516726L181.58920521214108,122.45176499696248L181.6675236798382,131.56685642229826L181.7458421475353,114.29125218958863L181.82416061523244,127.41528571794123L181.90247908292955,133.20234242830975L181.98079755062668,103.23767332450342L182.1374344860209,133.17875143675028L182.215752953718,133.09349455542804L182.29407142141514,133.66218197288504L182.37238988911224,126.7402840794469L182.45070835680937,126.47573326755037L182.92061916299204,134.43542934116368L183.2338930337805,134.29030201737814L183.31221150147763,121.688291062382L183.39052996917474,81.07005789492516L183.54716690456897,111.53394484097281L183.86044077535743,123.15346211322574L184.17371464614587,135.13360372145368L184.40867004923723,126.49827006175803L184.56530698463146,121.80114320106568L185.03521779081416,128.29834770704718L185.27017319390552,119.66554169612635L185.42681012929972,113.90800904011874L185.7400840000882,132.45706338891537L185.89672093548242,124.77858928874993L186.20999480627088,111.87750615639999L186.288313273968,115.92124146158615L186.36663174166512,80.69454110253108L186.67990561245358,121.23050192628213L187.07149795093915,116.40254160665494L187.22813488633338,130.40961914120908L187.3847718217276,118.66005391059805L187.4630902894247,112.13749256676132L187.61972722481894,129.8913673267992L187.69804569251608,132.86449173355552L188.0896380310016,137.3974577115633L188.16795649869874,113.50312377491174L188.24627496639584,100.37585192327509L188.79450424027567,133.57649122019927L189.18609657876127,127.40263472840702L189.4993704495497,129.7836217577258L189.73432585264104,108.91416577101167L189.9692812557324,116.48436872938603L190.0475997234295,135.2303812380116L190.67414746500643,118.2561804352768L190.83078440040066,124.79256700297466L191.065739803492,109.48275079530315L191.14405827118912,124.08028500340347L191.30069520658336,131.84044466125093L191.69228754506892,122.5723070326895L192.08387988355452,73.0778158366344L192.47547222204005,119.27874435563186L192.55379068973718,123.29084492223433L192.6321091574343,116.26187387400623L192.78874609282855,131.18458398275166L193.02370149591988,125.08568231433838L193.1803384313141,104.44789230309208L193.25865689901124,71.4113954852135L193.41529383440547,102.31546735123614L193.57193076979968,125.89302690445432L193.65024923749678,131.470816115629L193.7285677051939,128.35271667867787L193.88520464058814,104.88664613812327L194.04184157598237,91.53122515946413L194.12016004367948,126.27438874331261L194.1984785113766,130.1611355745639L194.2767969790737,112.41924555267147L194.74670778525643,130.77297017708466L195.05998165604487,129.32062654405217L195.2949370591362,129.77559590047923L195.45157399453043,120.6829066422047L195.52989246222756,123.17576129056114L195.92148480071313,112.52382185231785L196.07812173610736,108.59014686361168L196.46971407459293,109.97941441134354L196.62635100998716,90.7588460057687L196.86130641307852,103.82613558526269L196.93962488077563,133.16852798980233L197.09626181616986,101.15746323193176L197.174580283867,103.75980440818508L197.40953568695832,125.14654648623794L197.64449109004966,124.76457518486978L197.879446493141,117.6618420794264L198.11440189623235,111.08045232673705L198.27103883162658,117.09155938545317L198.34935729932369,119.37987609658337L198.42767576702082,120.37677259211685L198.50599423471792,132.4238009670272L198.58431270241505,138.5487032067892L199.05422350859772,123.01527221123872L199.21086044399195,123.32504966328536L199.28917891168908,119.11649283570242L199.36749737938618,129.64154874085773L199.4458158470833,131.72745379285493L199.83740818556888,120.79212406931289L199.915726653266,129.50132214317887L199.9940451209631,121.48597933037838L200.15068205635734,92.80474668360877L200.30731899175154,110.7039610268807L200.38563745944867,119.7307942278854L200.46395592714578,126.9019483802771L200.5422743948429,130.627876407556L200.62059286254004,133.2420360146666L200.69891133023714,131.55238050079873L200.9338667333285,131.76087259152322L201.09050366872273,124.91474789254093L201.16882213641983,111.56998530679545L201.24714060411696,95.68618370344697L201.71705141029963,116.65152932611511L201.79536987799673,114.81419218985215L201.95200681339097,122.06441632552422L202.0303252810881,118.56560657680632L202.1086437487852,117.86366147638635L202.18696221648233,122.5869207353974L202.26528068417943,111.23632461875796L202.34359915187656,111.28569476516363L202.57855455496792,108.19424832325113L202.9701468934535,136.47060807524323L203.0484653611506,99.52434435077343L203.36173923193905,126.01942573061874L203.5183761673333,134.97124093826187L203.8577561940208,100.77265928007232L204.09271159711213,136.1483840254779L204.32766700020346,106.94669336609728L204.4059854679006,130.53463108096767L204.4843039355977,122.40864228998208L204.56262240329482,131.1959944668131L204.71925933868906,106.76631546100039L204.79757780638616,109.00115025084166" style="fill: none;" fill="none"></path></g></g></g></g><g opacity="0.2"><g><g><g><path stroke="rgb(255, 112, 67)" stroke-width="2px" d="M30.72173027159863,92.62103728932881L30.878367206992863,122.46151159849074L31.113322610084207,104.43758525940962L31.19164107778132,122.444084450902L31.426596480872668,88.42522079783596L31.81818881935824,97.943345363634L31.97482575475247,101.26844512356604L32.1314626901467,134.8118736914679L32.366418093238046,106.00936143670553L32.60137349632939,126.98756872341002L32.75801043172362,131.20310039062142L33.14960277020919,132.34295024433166L33.22792123790631,113.37165632465091L33.306239705603424,126.55486065688001L33.38455817330054,133.5175438051931L33.462876640997656,105.96410042691761L33.61951357639188,110.22795524823064L33.697832044089,123.56776175911469L33.77615051178611,78.88364013032717L34.01110591487746,117.85439535700252L34.08942438257458,120.65444986184572L34.32437978566592,96.877562793866L34.48101672106015,115.65806376787197L34.637653656454376,124.07369816593936L34.71597212415149,111.00119435470094L34.872609059545724,116.85681127902382L34.95092752724284,117.86370381811064L35.029245994939956,127.38832066372699L35.10756446263707,93.57978208980391L35.969067607305334,127.00263157526463L36.51729688118514,125.5691876720071L36.830570751973596,65.75401951020818L36.90888921967072,132.43831525678226L36.98720768736783,111.97434991901368L37.300481558156285,118.22992560056849L37.53543696124763,134.97736867278738L37.61375542894475,134.8500437207435L37.92702929973321,121.2136591902929L38.161984702824554,115.46489317963228L38.396940105915895,43.966782637012784L38.71021397670435,88.27909206794526L38.78853244440147,90.52621788155764L38.86685091209859,84.16408872999742L38.94516937979571,121.94736498406024L39.41508018597839,135.69742256538018L39.51950480957455,103.52714073275486L39.98941561575723,112.76312854986563L40.302689486545695,110.23143305098796L40.53764488963704,41.60532405775365L40.772600292728384,135.38821463053705L40.8509187604255,124.75891683025577L41.007555695819725,131.2439416927386L41.24251109891108,89.65752986827196L41.32082956660819,74.55436295802235L41.399148034305306,122.6230158774138L41.55578496969954,122.86834206687257L41.947377308185104,101.53795577035693L42.57392504976203,119.85857453041113L42.88719892055049,84.53892112498382L42.9655173882476,133.142751450699L43.04383585594472,135.94152084640928L43.435428194430294,122.96906487852716L43.51374666212741,111.23460754436383L43.74870206521875,121.9293543892984L44.061975936007215,101.33685335126724L44.14029440370433,113.32792066694954L44.531886742189904,78.00001892011424L44.61020520988702,124.29629660930865L44.84516061297836,126.84310072060353L44.92347908067548,113.90304323103956L45.00179754837259,113.44027428826399L45.08011601606971,105.49686982928893L45.23675295146394,109.53581148544134L45.5500268222524,131.5294590029876L45.78498222534374,70.50371422460572L45.94161916073798,116.80309600529624L46.098256096132204,103.97551416521367L46.17657456382932,114.42130829610372L46.48984843461778,130.9479509337253L46.64648537001201,113.33088366337765L46.88144077310335,125.21215994925086L47.27303311158893,125.20269132617365L47.58630698237739,112.05836249856019L47.6646254500745,125.16927848871795L47.82126238546873,113.68338109043685L47.89958085316585,123.5461284531473L47.97789932086297,101.49423917955664L48.21285472395431,100.82683662761106L48.36949165934853,108.0513007010165L48.682765530137,129.16221171256004L48.83940246553123,136.29533198295303L48.917720933228345,115.32826739324072L48.99603940092546,126.34546032243952L49.07435786862257,92.48820962963273L49.30931327171392,107.29880256954296L49.38763173941103,127.21276407870666L49.622587142502375,117.6670935609158L49.7792240778966,119.16669770423698L50.092497948685065,78.56870831177928L50.2491348840793,107.24209379234553L50.7973641579591,134.03333970656718L50.954001093353334,129.9565826654993L51.11063802874756,131.96934766446503L51.89382270571871,123.46773679603969L51.97214117341583,77.08233659780885L52.12877810881005,109.05024615573242L52.20709657650717,134.07147541542082L52.3637335119014,78.01855957472617L52.44205197959851,91.47105147100349L52.75532585038698,108.69175028159289L52.911962785781206,116.94581175989333L52.99028125347832,111.7029783426772L53.381873591963895,123.31047299591721L53.53851052735812,116.35367389327794L53.616828995055236,115.02114919075615L53.69514746275236,117.34306301717169L53.773465930449476,109.41883986068487L53.851784398146584,133.77655812293847L53.9301028658437,106.81731374328531L54.08673980123793,108.95446929821846L54.24337673663216,116.89845720436662L54.713287542814854,112.60197510192246L54.86992447820908,79.1768966957253L54.948242945906195,110.76235853837042L55.02656141360331,110.00080362888303L55.183198348997536,115.51752545337843L55.418153752088884,83.53492675486144L55.88806455827157,74.55763483824798L56.12301996136292,122.7663875334081L56.279656896757146,123.33053900261567L56.35797536445426,125.5064861677997L56.59293076754561,103.43394934702758L56.671249235242726,104.40626215431247L56.90620463833407,113.99817181391674L56.98452310603118,115.19967639896501L57.0628415737283,108.0864143060487L57.141160041425415,94.08887597544775L57.29779697681964,113.8515740382594L57.376115444516756,59.61935086179311L57.45443391221387,98.33854883573616L57.611070847608104,125.37129611905956L57.68938931530522,108.51075200300382L57.84602625069945,107.19964324377707L58.315937056882134,111.14723919022693L58.39425552457925,110.56368142909832L58.55089245997348,72.82379762851741L58.6292109276706,118.7154642366159L58.78584786306483,115.59524976894816L58.942484798459056,129.2112403420017L59.09912173385329,119.85513104807576L59.177440201550404,108.61544454346364L59.25575866924751,128.83692656672474L59.33407713694463,124.23407749769862L59.72566947543021,103.72338490544892L59.803987943127325,127.63020909092072L60.11726181391578,94.37355624873929L60.1955802816129,73.69048743056972L60.35221721700712,119.16233901064967L60.43053568470424,126.89391973205679L60.50885415240136,70.52833340728252L60.58717262009847,124.05576765216207L60.66549108779559,120.5371426596302L61.605312700160965,101.98488774509397L61.7619496355552,118.43506638930731L61.84026810325231,136.87029438507395L61.91858657094942,123.91568312991426L62.075223506343654,117.36429973159656L62.15354197404077,131.41272762118479L62.231860441737886,105.00312861239615L62.466815844829235,122.57827730071554L62.62345278022346,93.12508225956618L62.93672665101192,125.8228460972386L63.01504511870903,114.56753617388006L63.171682054103265,110.40434696351836L63.641592860285954,123.86829806734585L63.71991132798307,110.24429939583794L63.798229795680186,102.1228825349832L64.03318519877153,110.37030491832697L64.18982213416575,121.32082661451312L64.34645906956,86.47878764104361L64.42477753725711,130.953709137852L64.50309600495422,134.13080970489722L64.58141447265133,82.95357694087812L64.73805140804556,122.89061983409653L64.8946883434398,114.33371495253404L65.12964374653113,96.76960599994099L65.20796221422825,118.80742008715309L65.36459914962249,105.4699321114406L65.44291761731961,107.55310926941124L65.59955455271383,123.76797566061397L65.83450995580517,85.13860567104739L66.01725304709845,115.80398276185079L66.09557151479555,116.39704346647855L66.17388998249267,93.89913361602257L66.40884538558402,136.68838089523297L66.80043772406958,126.8830096512578L66.8787561917667,107.2859438514534L66.95707465946381,86.72758019311905L67.27034853025229,113.30050627657417L67.34866699794941,129.39420823147253L67.42698546564651,103.73818463406859L67.66194086873786,118.38629325634014L67.74025933643497,114.5402895722342L67.8968962718292,120.27195638600466L68.05353320722344,113.22416240464273L68.13185167492054,98.91620729767006L68.21017014261766,128.27057096375214L68.445125545709,126.09533880735869L68.52344401340612,104.928622789729L68.75839941649745,96.67039328685209L68.9933548195888,125.94524988211327L69.22831022268016,116.13303552733986L69.3849471580744,112.64503960470576L69.4632656257715,119.97068409539176L69.54158409346861,125.55490846978697L69.77653949655996,107.1261555936277L69.85485796425708,98.59771378200008L70.16813183504553,105.99966019743512L70.24645030274264,129.19247088457684L70.48140570583399,125.84408281166348L70.55972417353111,122.87335284847686L70.63804264122822,122.87647219349384L70.87299804431956,117.09605131365728L70.95131651201667,95.86970546958446L71.0296349797138,114.40178378939598L71.10795344741092,113.96392003281343L71.18627191510804,91.76060905759176L71.26459038280515,76.90627283321973L71.34290885050227,108.05486239813858L71.42122731819939,95.45517959992601L71.49954578589649,112.02869440047694L71.89113812438207,93.59686984655342L71.96945659207918,126.08552125999168L72.20441199517052,81.16770234471517L72.36104893056475,110.07190791639718L72.5960043336561,96.04795430103755L72.75264126905033,128.10398344900065L72.90927820444456,72.31129458096015L73.30087054293014,118.16595614743915L73.37918901062726,70.16308022339959L73.45750747832437,69.155821599812L73.53582594602148,82.66546843877207L73.61414441371859,110.50807853216365L73.69246288141571,97.43507135473668L74.16237368759839,61.120968469868515L74.39732909068974,97.51925553639293L74.47564755838685,72.25414726503787L74.7106029614782,115.9078821192256L75.1805137676609,102.11479816892452L75.25883223535801,81.21557551995129L75.49378763844936,94.59357303370211L75.57210610614646,55.70598381616526L75.7287430415407,93.53965770316744L75.80706150923781,106.52791250528591L75.88537997693493,129.63444737172267L76.19865384772338,105.37485691588644L76.2769723154205,84.07439802730875L76.43360925081473,87.45756031441502L76.66856465390607,79.78135559381974L76.74688312160319,63.3980750787419L76.90352005699742,100.3159657067864L77.21679392778589,108.42203752565054L77.295112395483,69.78975792697885L77.45174933087723,116.18944304750019L77.68670473396857,78.23404606399195L77.76502320166568,107.27880520368838L77.8433416693628,96.37958491155285L77.99997860475703,111.2673377867608L78.23493400784837,73.00733561833057L78.31325247554548,125.9720903587661L78.46988941093971,98.89256434032865L78.96590637302145,117.81385531192244L79.04422484071857,87.11271634145005L79.43581717920414,86.85034815580438L79.51413564690125,111.6523099597425L79.67077258229548,100.87127776065246L80.06236492078106,110.21186278371763L80.2190018561753,85.93047695325481L80.68891266235798,127.05253156208573L80.92386806544933,107.93726919240684L81.00218653314644,96.7201045113525L81.15882346854067,113.69431023813692L81.31546040393489,110.20436567821227L81.55041580702624,87.49125534200675L81.62873427472336,95.24318998031863L81.78537121011759,108.64041455712032L81.94200814551182,93.91233553833159L82.02032661320894,65.73508989081421L82.17696354860317,105.59276490158962L82.25528201630028,99.30598814310456L82.3336004839974,94.77019355180282L82.56855588708873,97.26140239292343L82.64687435478585,100.73081952714345L82.72519282248297,96.28737737792139L82.80351129018008,44.874504410193055L82.8818297578772,98.7305986423994L83.27342209636276,126.30130137953412L83.50837749945411,119.3536029087812L83.74333290254546,114.5738892653205L83.8999698379397,121.63483940842886L84.13492524103104,106.93008302304337L84.29156217642527,118.47728050830237L84.36988064412239,113.35663160659847L84.4481991118195,117.45327351880456L84.76147298260796,85.90013007349305L84.83979145030507,108.1369187136341L84.9964283856993,113.58228838090128L85.15306532109354,108.22217826851137L85.46633919188199,87.02637378659132L85.5446576595791,108.08228060189417L85.70129459497333,107.28807934437457L85.77961306267045,118.32459657781973L85.93624999806468,103.68023650830087L86.24952386885315,117.28385266255233L86.4844792719445,60.281513829321426L86.79775314273294,110.41263725210872L86.95439007812718,124.02892526881914L87.03270854582429,108.31625435844884L87.11102701352141,98.20797869712817L87.18934548121852,76.08291065718566L87.26766394891563,122.92952775244399L87.42430088430986,89.34061509201157L87.58093781970409,117.65508522661449L87.73757475509832,118.52887554262965L87.81589322279545,109.39197459706065L88.05084862588679,96.61533188990815L88.36412249667525,118.61932510798138L88.52075943206948,78.53322099548588L88.5990778997666,74.52965225422037L88.75571483516082,95.58639419979058L89.1473071736464,91.64087654555864L89.38226257673773,114.43578007402478L89.53889951213196,127.1290222491555L89.69553644752621,100.96563222734574L89.85217338292044,115.78147237843365L90.00881031831466,105.77895319065314L90.16544725370889,126.75875637697818L90.40040265680024,120.5027269031776L90.47872112449735,96.29392495175287L90.71367652758869,108.3610806428921L91.02695039837715,120.61367338719224L91.18358733377138,103.75004424654145L91.81013507534831,120.90324622730137L92.12340894613676,95.13480227442918L92.20172741383388,110.77300168255427L92.43668281692523,112.44277791803029L92.8282751554108,116.14781618905843L93.21986749389637,118.74637168326946L93.29818596159349,56.423334022184676L93.68977830007907,59.09000030044001L93.76809676777619,110.04122164579617L94.08137063856464,115.90107142215919L94.3946445093531,114.70517250602896L94.47296297705022,83.44276498179258L94.62959991244445,127.28739574292095L94.70791838014156,121.86813438330503L94.78623684783867,103.70468027548769L95.02119225093001,102.27449109224483L95.09951071862713,121.12554722701378L95.17782918632425,82.57837083463052L95.25614765402136,98.8195266690448L95.41278458941558,114.46399908762581L95.56942152480983,102.10657270779785L95.72605846020406,81.85903004413818L95.80437692790117,128.41151540323872L96.19596926638674,124.34911955206562L96.35260620178097,111.3835924960366L96.66588007256944,121.59556921896083L96.82251700796365,101.58360193154671L96.90083547566077,133.08049611197688L97.13579087875212,103.27059557869957L97.21410934644923,116.34362563640784L97.29242781414635,88.71221579291885L97.37074628184347,116.32411256984076L97.5273832172377,99.95320266018476L97.60570168493481,89.30127626169966L97.84065708802616,131.0810626902475L97.91897555572328,21.04569054380724L98.07561249111751,118.67818463162082L98.15393095881461,127.04698118718083L98.23224942651173,102.21577266367339L98.38888636190596,96.96061440159801L98.46720482960308,76.99869391614331L98.54552329730019,101.83868656097913L98.70216023269442,111.41920184049692L98.78047870039153,104.99781657375476L98.93711563578576,117.32234873583644L99.01543410348287,122.49681587253376L99.09375257117999,106.19899702148464L99.25038950657422,109.55094679152006L99.48534490966557,104.64000329467396L99.56366337736269,101.87092106394797L99.72030031275692,94.43612237794903L99.87693724815115,88.5848488936926L100.03357418354538,114.00290421876524L100.1118926512425,113.53162381134679L100.50348498972807,104.2689347059611L100.73844039281941,72.23518713860214L100.81675886051652,35.92016904248206L100.89507732821363,89.82504403441601L100.97339579591075,120.05468904817783L101.13003273130498,114.31161260080005L101.83489894057902,99.5279916991601L101.91321740827614,128.6881608844144L102.38312821445882,100.90883192902312L102.46144668215594,128.487750593834L102.53976514985305,128.93447664603931L102.93135748833862,109.86714083891957L103.08799442373285,138.1908965543493L103.16631289142997,95.41045627674862L103.24463135912708,136.84839986256176L103.32294982682421,116.02288603979045L103.47958676221845,133.86773032384122L103.63622369761266,75.78685507070873L103.94949756840113,118.13818711270365L104.10613450379536,124.32718498906112L104.3410899068867,91.29887735423506L104.41940837458381,118.96979381676549L104.81100071306939,132.90039969780898L105.46365461054535,45.994730609309954L105.62029154593958,102.78999908341257L105.6986100136367,97.92104852950897L105.7769284813338,103.45248618825927L105.93356541672803,117.82864741378168L106.09020235212226,121.12443371999062L106.32515775521361,109.20709811079153L106.63843162600207,117.91898639110713L106.7950685613963,136.36121193957078L106.87338702909342,129.56673889929118L106.95170549679054,122.99435902950225L107.03002396448765,125.51822375210563L107.26497936757899,118.65872876575698L107.3432978352761,102.9193184333096L107.42161630297322,96.322445222391L107.65657170606457,122.34761355818864L107.8915271091559,122.89736570369925L107.96984557685302,43.13011176402364L108.20480097994437,96.0135309178245L108.28311944764148,97.57480504600458L108.90966718921841,115.21181438819367L108.98798565691553,110.96968058059299L109.06630412461264,119.28122876565499L109.14462259230976,107.99458811043887L109.30125952770398,124.34855898517381L109.45789646309821,108.26918961981859L109.53621493079532,109.97251597443811L109.61453339849244,119.85697672410049L110.47603654316072,121.37618164173372L110.63267347855493,132.60671794051672L110.71099194625205,105.00736527781652L111.18090275243475,119.19567939388128L111.25922122013185,116.41450112110901L111.4941766232232,121.34370689581124L111.57249509092031,111.57239295054833L111.80745049401166,106.4224000880796L111.88576896170876,130.81740939546893L112.042405897103,131.80397089793223L112.19904283249723,96.38592274947244L112.5123167032857,124.48712959547572L112.66895363867992,113.25050904855752L112.74727210637704,117.36082955559968L112.82559057407416,134.3350829496368L112.90390904177127,106.75144522680822L112.98222750946839,126.5202370712056L113.13886444486262,123.77980095266489L113.21718291255974,130.43957777694237L113.37381984795395,81.71588337757663L113.53045678334819,111.93142269791817L113.6087752510453,87.26063736004245L113.68709371874242,117.10250355298335L113.76541218643953,126.31476070500774L114.07868605722798,97.58690108805087L114.1570045249251,127.26958916400068L114.23532299262222,122.67747857366379L114.31364146031935,91.79772087385733L114.39195992801646,114.07908030196714L114.5485968634107,129.730653234511L115.17514460498761,107.54634433290742L115.41010000807894,119.13166418018932L115.48841847577606,123.90513532023583L115.56673694347317,105.71004159676339L115.7233738788674,96.91109384610841L116.34992162044433,125.09080675062579L116.42824008814145,113.01084954210026L116.7415139589299,125.73123345092088L116.97646936202125,110.73773554231342L117.13310629741548,126.34645942805619L117.2114247651126,110.81587932970696L117.60301710359816,110.38624103425111L117.68133557129528,97.49389655795417L117.91629097438663,130.72997621386835L118.07292790978084,66.40709137930071L118.15124637747797,109.33873980924034L118.38620178056932,107.1777811349967L118.77779411905489,129.03771247525648L118.93443105444912,95.35047180594535L119.24770492523758,121.49307699888587L119.32602339293469,120.68333621698461L119.56097879602603,114.96537087833151L119.71761573142027,101.56433673469368L119.8742526668145,122.33752716751638L120.03088960220872,118.35011190484737L120.10920806990585,120.46601167845454L120.26584500530008,128.195695243204L120.50080040839143,131.27814580658918L120.57911887608854,94.361036921489L120.65743734378566,93.50153152776431L120.73575581148276,133.85006865336916L120.81407427917988,116.89858304591377L120.892392746877,124.29385223258997L120.97071121457411,119.14160947579357L121.04902968227123,123.91931346788023L121.20566661766546,45.474265223860954L121.67557742384814,121.72842738569865L121.75389589154526,123.91283072151242L121.83221435924237,104.75453816947217L121.91053282693949,122.93611346007764L121.9888512946366,124.34220970711357L122.14548823003084,123.87805269393928L122.22380669772795,133.47809629354504L122.38044363312218,107.30707379123221L122.4587621008193,84.48250597806306L122.53708056851642,133.22925035414656L122.85035443930487,130.5448594846456L123.0069913746991,116.12587399929353L123.16362831009333,104.87726418497513L123.79017605167024,117.00062528712321L123.94681298706449,68.62319153147283L124.0251314547616,119.73607731772117L124.33840532555006,118.0350008574293L124.41672379324717,109.06135453230267L124.49504226094429,120.76613995500254L124.65167919633852,125.44398295936352L124.88663459942985,135.82013714074247L125.04327153482409,137.60205535493097L125.1215900025212,126.25125648426479L125.27822693791543,94.18597988927701L125.35654540561255,121.74018785028589L125.51318234100677,97.4681142943114L125.669819276401,129.09546802532327L125.90477467949236,119.6261032456617L126.0614116148866,112.82403204530104L126.1397300825837,97.95519353596622L126.21804855028081,125.18111903428974L126.76627782416062,79.6756792012641L126.92291475955484,114.7432109736871L127.2361886303433,106.80408131393456L127.39282556573754,129.95130685396995L127.54946250113176,121.280320889855L127.62778096882887,122.74236323804507L127.70609943652599,96.05398706853981L128.01937330731445,115.06936938359195L128.09769177501158,119.16122931700673L128.17601024270868,132.96278850483864L128.25432871040582,101.1892259629515L128.56760258119425,121.60679581031779L128.64592104889138,137.79892492198053L128.8025579842856,130.3155876258977L128.88087645198272,124.860955258085L129.11583185507408,105.61301395053844L129.19415032277118,125.41866974148735L129.3507872581654,119.4468476818315L129.50742419355964,110.94846674644941L129.58574266125675,122.82718044081724L129.74237959665098,134.66150066939636L129.97733499974234,126.93437778946219L130.05565346743944,94.47268506746344L130.21229040283367,118.36008008073291L130.2906088705308,94.95314046768246L130.52556427362214,120.07601728372791L130.60388274131924,101.25759605685052L130.76051967671347,135.76358280544383L130.9171566121077,124.61338680105902L130.99547507980483,96.67368804735902L131.778659756776,93.86202942651744L131.8569782244731,93.62150428275106L132.24857056295866,135.9388209732161L132.3268890306558,132.5962635586536L132.50963212194904,111.47196376917042L132.7445875250404,123.30111877424649L132.9012244604346,81.18108730927457L133.05786139582887,87.18168513604304L133.13617986352597,125.83275135235058L133.2144983312231,115.35036211821429L133.2928167989202,131.1293744042085L133.4494537343144,133.40852498487783L133.52777220201153,135.2221953094378L133.8410460728,134.10163734624211L133.9193645404971,111.79963990440137L133.99768300819423,133.49020186904184L134.15431994358846,106.44459777431899L134.3109568789827,116.72277859117938L134.54591228207406,136.85043811428739L134.62423074977116,94.81085562504981L134.8591861528625,116.54493397802923L134.9375046205596,133.28584472993748L135.01582308825672,124.48004814841394L135.09414155595383,114.37872046584746L135.25077849134806,106.93320236806035L135.48573389443942,118.87479107543544L135.79900776522788,119.04696137882365L135.95564470062212,127.65428868029689L136.03396316831925,107.23921087690196L136.19060010371345,126.0601355878914L136.34723703910768,137.30995996380872L136.50387397450191,93.51221280575032L136.81714784529038,121.17459110997632L137.28705865147307,119.17111741190773L137.4436955868673,110.1646874570611L137.52201405456438,115.19270553992952L137.6786509899586,106.4542303727455L137.91360639304997,109.72395603855587L138.0702433284442,135.5097298978213L138.14856179614134,109.19845317784106L138.4618356669298,132.05581034080055L138.69679107002113,122.14249946311133L138.77510953771827,130.67196898070728L139.24502034390093,118.2458045157894L139.40165727929516,139.01627982189808L139.79324961778076,82.04926432961125L140.10652348856922,110.6671765681702L140.26316042396343,104.38431996454757L140.41979735935766,131.79447939457373L140.654752762449,125.41485254789077L140.73307123014612,135.76625217159528L140.96802663323746,111.75863462693489L141.0463451009346,121.91215985790285L141.1246635686317,112.94912998329856L141.28130050402592,112.94970961709144L141.35961897172305,85.85790070097713L141.43793743942015,121.54439746983758L141.51625590711728,120.50657460381592L141.75121131020862,134.77612134524946L141.82952977790572,124.7373330982312L142.06448518099708,132.9930152631236L142.2211221163913,119.82666416476067L142.53439598717978,97.15198126099536L142.691032922574,114.26035695731201L142.92598832566532,124.41078572354428L143.08262526105955,138.83354264193034L143.3175806641509,130.29163578475877L143.395899131848,117.51667096490146L143.55253606724224,116.89334727487672L143.63085453493937,73.05323346261461L144.2574022765163,134.2685623451427L144.4140392119105,107.52331151640063L144.57067614730474,92.4326868136826L144.72731308269897,136.36335887263257L144.8839500180932,86.38089817088978L145.04058695348743,112.21469202052967L145.11890542118456,128.29034143348383L145.2755423565788,124.76681434068384L145.51049775967013,95.67804116653024L145.58881622736726,114.65758533430906L145.66713469506436,129.2971100377136L145.74545316276146,119.07412027272453L146.13704550124706,120.47402359028911L146.21536396894416,126.05293783273304L146.2936824366413,95.45250260701414L146.68527477512686,116.72107019684245L146.763593242824,98.76127728623997L146.9985486459153,125.25358088516091L147.07686711361242,133.31528783858795L147.62509638749225,126.66521416027099L147.78173332288648,128.22696877435834L147.86005179058358,103.6204655867897L148.40828106446338,95.70697709561195L148.64323646755471,137.70489649929573L148.72155493525185,92.97491897340656L148.87819187064608,115.71492508027804L149.1131472737374,101.18379952290361L149.19146574143454,125.27904663824573L149.26978420913164,107.87933250677975L149.42642114452588,136.4589107407138L149.73969501531434,130.72852712938612L150.0529688861028,118.57611188336963L150.20960582149704,123.62609884966449L150.28792428919414,103.60148639345292L150.67951662767973,75.51512885001212L150.75783509537683,129.56837865278425L150.91447203077107,131.6084779611408L151.07110896616527,109.57818195302526L151.1494274338624,122.85841202478919L151.2277459015595,128.2254281687509L151.30606436925663,119.98758499651063L151.38438283695373,115.63568303938217L151.46270130465086,128.42676129734372L151.541019772348,126.5149174058038L151.69765670774223,84.91373063968892L152.0109305785307,137.0639912197835L152.0892490462278,114.03693101043578L152.24588598162202,114.08939930883261L152.55915985241046,115.79653523028824L152.6374783201076,127.72803754699109L153.02907065859316,134.60068488170594L153.57729993247298,136.87703453460637L153.6556184001701,118.43251142456236L153.73393686786721,116.94040438674654L153.89057380326142,140.62289122747038L153.96889227095855,105.43736584439293L154.12552920635278,110.44137869879938L154.20384767404988,105.64778435135118L154.282166141747,135.88112453054265L154.43880307714124,130.8116893251444L154.51712154483835,138.2903819241237L154.59544001253548,140.47553840253022L154.8303954156268,122.48447577415362L155.06535081871817,118.48833549754957L155.3003062218095,126.53858133673637L155.45694315720374,129.94764600896224L155.61358009259797,111.74462426802002L155.7702170279922,111.4118763371013L155.8485354956893,125.07487063470165L155.92685396338643,125.6880316664498L156.16180936647777,115.78818774099466L156.2401278341749,137.78394024442036L156.318446301872,88.33655970780572L156.55340170496333,123.80582727264151L156.63172017266044,120.02843773876845L156.78835710805467,131.91196963903963L156.8666755757518,125.08143727543421L156.9449940434489,121.30701073798926L157.02331251114603,124.35443159070698L157.17994944654026,122.79715388499366L157.2582679142374,102.21518158973986L157.3365863819345,116.09563770755807L157.41490484963163,126.39094441497008L157.49322331732873,124.57344164329268L157.64986025272296,93.03189087383889L157.7281787204201,110.63741313558155L157.8848156558143,113.8420596546196L158.11977105890563,111.59165814740136L158.19808952660276,109.40421936093536L158.51136339739122,111.75709020794727L158.53746955329026,111.5677673203459L158.7724249563816,129.82264531216023L158.8507434240787,115.12118559397177L158.92906189177583,107.01756959196697L159.00738035947293,122.67788279196672L159.16401729486716,124.35524384069308L159.3206542302614,94.455139705088L159.39897269795853,90.53080919133814L159.712246568747,128.82971927811582L159.94720197183833,135.6985951797967L160.02552043953546,131.30329886249623L160.10383890723253,113.93992624449214L160.49543124571812,111.86106964630663L160.57374971341525,115.49203300663208L161.04366051959795,132.3043988770344L161.27861592268928,117.6989200322015L161.3569343903864,111.50869043403414L161.4352528580835,135.19489722715903L161.51357132578062,125.55812886937967L161.74852672887195,124.49003539120058L162.06180059966042,126.33693741765596L162.21843753505465,119.88101627298438L162.37507447044888,125.2859183493956L162.53171140584314,99.59618256418896L162.84498527663158,94.86379296921325L162.92330374432868,120.48192872747761L163.15825914742004,126.87699595065659L163.23657761511714,111.88460201562175L163.31489608281427,105.27422562535703L163.86312535669407,118.48816770882007L164.72462850136233,82.15079176449149L164.88126543675656,126.24672046849743L164.9595839044537,93.30132143964525L165.0379023721508,83.40076441208964L165.11622083984793,132.551730904487L165.35117624293926,108.67263380656831L165.89940551681906,101.19485832553104L165.97772398451616,132.43145117239283L166.21267938760752,121.11795860038325L166.29099785530465,79.91168167609389L166.36931632300175,127.68802756176109L166.44763479069888,122.15402731150539L166.525953258396,131.97226490033054L166.60427172609312,114.86877795745124L166.68259019379022,121.80504963438587L166.76090866148735,99.36503833575482L166.83922712918445,73.2986549865788L166.91754559688155,136.02945548750833L167.1525009999729,109.5604954955818L167.30913793536712,136.63078932051545L167.7007302738527,123.47166839104275L167.77904874154981,117.02223189942909L167.93568567694405,129.23584045777744L168.1706410800354,89.20299020000331L168.2489595477325,73.50781889144588L168.3272780154296,116.99671275902124L168.40559648312674,131.91787084492447L168.56223341852098,111.41782902361903L168.7188703539152,89.2508786287603L168.7971888216123,135.47895019940498L169.11046269240077,123.22946154660096L169.1887811600979,96.78399769687752L169.267099627795,136.82315719221958L169.34541809549214,132.49210489142405L169.58037349858344,106.7420719382364L169.65869196628057,133.3340878030546L169.8153289016748,83.73020995574097L169.8936473693719,76.13374301546968L170.05028430476614,108.00600537080663L170.12860277246327,109.93242972160378L170.2852397078575,122.22723277151874L170.36355817555463,140.14506133953034L170.44187664325173,115.3245074003474L170.52019511094886,139.9156159719826L170.6768320463431,113.25478766116028L170.83346898173733,127.99997350359958L170.91178744943443,97.22255167527922L171.22506132022286,116.98006354099662L171.3816982556171,128.5699689779887L171.53833519101133,122.27049175669308L171.69497212640556,125.8432228944247L172.00824599719402,106.43172761608879L172.16488293258828,106.10609163927359L172.2432014002854,130.81520716839398L172.3998383356796,109.56596388281207L172.55647527107382,119.49183031486362L172.63479373877095,123.06246981354656L172.8697491418623,85.18046133230209L173.02638607725652,138.3719882607537L173.10470454495365,129.46241053664204L173.18302301265075,107.66866994348766L173.4179784157421,127.4464041644924L173.88788922192478,136.5703415240159L174.20116309271324,93.26008354598558L174.5144369635017,113.7830933563341L174.67107389889594,122.96256306525828L174.74939236659307,130.8631699580652L174.82771083429017,122.8139480114665L174.9060293019873,134.0537698910763L174.98434776968438,128.3265742656095L175.45425857586707,135.87865727354267L175.6108955112613,96.43402854090176L176.0024878497469,120.02989826339132L176.08080631744403,113.01789285535986L176.15912478514113,109.29863448950492L176.39408018823246,126.5200940694475L176.47239865592957,131.85892361354001L176.86399099441516,130.40754538312498L176.94230946211226,127.68495207061659L177.17726486520363,115.95178175227628L177.25558333290073,122.32173977342069L177.438326424194,121.43936935191873L177.59496335958823,115.40542732853845L177.67328182728534,129.8191141220799L177.82991876267957,115.83436014865427L178.06487416577093,109.12341348194363L178.14319263346803,141.50272193774825L178.22151110116516,139.33432907877284L178.29982956886226,120.34994763818955L178.53478497195363,126.74849266412585L178.6131034396507,124.00659411427216L178.69142190734783,117.06427441631439L179.0046957781363,132.77026047116541L179.0830142458334,137.94645506910075L179.31796964892476,106.61244751792208L179.3962881166219,96.16700803139214L179.474606584319,105.67538559735716L179.63124351971322,133.40053786001468L179.78788045510746,134.41678652746234L179.86619892280459,138.23798417326088L180.17947279359302,99.64278969719325L180.33610972898725,81.79165524247561L180.5710651320786,100.67048041198007L180.64938359977572,119.00286345000171L180.96265747056418,141.93022474028294L181.04097593826128,134.26149424491172L181.19761287365554,108.79410903336029L181.58920521214108,123.52689757671621L181.6675236798382,132.42451272708917L181.7458421475353,112.66575769942122L181.82416061523244,128.65015101710787L181.90247908292955,133.7468576111234L181.98079755062668,100.41824056418905L182.1374344860209,135.99596447575817L182.215752953718,133.08547257315922L182.29407142141514,133.71569085461513L182.37238988911224,126.08898952929846L182.45070835680937,126.45084117802838L182.92061916299204,135.18437229776188L183.2338930337805,134.27664671120138L183.31221150147763,120.50254386092723L183.39052996917474,77.24821101045985L183.54716690456897,114.40034995843462L183.86044077535743,124.24676461367844L184.17371464614587,136.260838052206L184.40867004923723,125.68575507846064L184.56530698463146,121.35918159272921L185.03521779081416,128.9096820478726L185.27017319390552,118.8532645441141L185.42681012929972,113.36627183178541L185.7400840000882,134.20237922479777L185.89672093548242,124.05610704300132L186.20999480627088,110.66361868442834L186.288313273968,116.30172421459054L186.36663174166512,77.37999380397666L186.67990561245358,125.04460764930465L187.07149795093915,115.94826962909701L187.22813488633338,131.7275717319877L187.3847718217276,117.55451495016857L187.4630902894247,111.5237723527898L187.61972722481894,131.56186320137607L187.69804569251608,133.14423866898335L188.0896380310016,137.82397310993164L188.16795649869874,111.25486040669288L188.24627496639584,99.14068192410579L188.79450424027567,136.700402576365L189.18609657876127,126.82172481780074L189.4993704495497,130.00765336004682L189.73432585264104,106.95051892762281L189.9692812557324,117.19666353728559L190.0475997234295,136.9942292421055L190.67414746500643,116.65904556762342L190.83078440040066,125.40758805857863L191.065739803492,108.04222104272137L191.14405827118912,125.4537947866602L191.30069520658336,132.57061285662826L191.69228754506892,121.70025031928L192.08387988355452,68.42078493634915L192.47547222204005,123.62587767361194L192.55379068973718,123.66835110246168L192.6321091574343,115.60050460688632L192.78874609282855,132.5886901855439L193.02370149591988,124.51182504575684L193.1803384313141,102.50604335236211L193.25865689901124,68.30292860738248L193.41529383440547,105.22329030580718L193.57193076979968,128.11148436788622L193.65024923749678,131.9956409210568L193.7285677051939,128.05932876666714L193.88520464058814,102.67867888813673L194.04184157598237,90.27458817460123L194.12016004367948,129.54343914616928L194.1984785113766,130.52684698319365L194.2767969790737,110.7498773449223L194.74670778525643,132.49990706734673L195.05998165604487,129.18397276676467L195.2949370591362,129.81840483335964L195.45157399453043,119.82735819996006L195.52989246222756,123.41031873012204L195.92148480071313,111.52156059226432L196.07812173610736,108.22001989530892L196.46971407459293,110.11013323968594L196.62635100998716,88.95034613390936L196.86130641307852,105.05566173825665L196.93962488077563,135.92940955084214L197.09626181616986,98.14548120876232L197.174580283867,104.00466364358748L197.40953568695832,127.1588657627287L197.64449109004966,124.7286347779577L197.879446493141,116.9935323999208L198.11440189623235,110.46119683578378L198.27103883162658,117.65715589207198L198.34935729932369,119.5951881722477L198.42767576702082,120.4705724811933L198.50599423471792,133.55732880099035L198.58431270241505,139.12500691862678L199.05422350859772,121.55370211756548L199.21086044399195,123.35419721347793L199.28917891168908,118.72050171188171L199.36749737938618,130.63187128773228L199.4458158470833,131.92372057017633L199.83740818556888,119.76319807781988L199.915726653266,130.3207871698227L199.9940451209631,120.73180046615427L200.15068205635734,90.1060749028405L200.30731899175154,112.38813217952992L200.38563745944867,120.58014614833004L200.46395592714578,127.5766959263446L200.5422743948429,130.97845606876604L200.62059286254004,133.48800726872733L200.69891133023714,131.39339759686806L200.9338667333285,131.78049000925006L201.09050366872273,124.27058298650978L201.16882213641983,110.31435119041238L201.24714060411696,94.19164657227851L201.71705141029963,118.62419860789788L201.79536987799673,114.64131364092589L201.95200681339097,122.74660371684566L202.0303252810881,118.23639690679565L202.1086437487852,117.79761412558098L202.18696221648233,123.03134119084045L202.26528068417943,110.1683254217875L202.34359915187656,111.29034009622586L202.57855455496792,107.90336824228343L202.9701468934535,139.13118459457726L203.0484653611506,96.04800006160013L203.36173923193905,128.5123983768624L203.5183761673333,135.81353427289787L203.8577561940208,97.55484962733239L204.09271159711213,139.47695331224472L204.32766700020346,104.19905070011617L204.4059854679006,132.75406504538657L204.4843039355977,121.64405253503158L204.56262240329482,132.02281316178843L204.71925933868906,104.46768045607709L204.79757780638616,109.21143011071732" style="fill: none;" fill="none"></path></g></g></g></g></g></g><g transform="translate(64, 177)" clip-path="url(#clip_1)"><clipPath id="clip_1"><rect width="266" height="23"></rect></clipPath><g><g><line x1="1.430623352877634" y1="0" x2="1.430623352877634" y2="5" style="visibility: inherit;" fill="rgb(0, 0, 0)" stroke="rgb(204, 204, 204)" stroke-width="1px"></line><line x1="27.536779251915956" y1="0" x2="27.536779251915956" y2="5" style="visibility: inherit;" fill="rgb(0, 0, 0)" stroke="rgb(204, 204, 204)" stroke-width="1px"></line><line x1="53.64293515095428" y1="0" x2="53.64293515095428" y2="5" style="visibility: inherit;" fill="rgb(0, 0, 0)" stroke="rgb(204, 204, 204)" stroke-width="1px"></line><line x1="79.7490910499926" y1="0" x2="79.7490910499926" y2="5" style="visibility: inherit;" fill="rgb(0, 0, 0)" stroke="rgb(204, 204, 204)" stroke-width="1px"></line><line x1="105.85524694903091" y1="0" x2="105.85524694903091" y2="5" style="visibility: inherit;" fill="rgb(0, 0, 0)" stroke="rgb(204, 204, 204)" stroke-width="1px"></line><line x1="131.96140284806924" y1="0" x2="131.96140284806924" y2="5" style="visibility: inherit;" fill="rgb(0, 0, 0)" stroke="rgb(204, 204, 204)" stroke-width="1px"></line><line x1="158.06755874710757" y1="0" x2="158.06755874710757" y2="5" style="visibility: inherit;" fill="rgb(0, 0, 0)" stroke="rgb(204, 204, 204)" stroke-width="1px"></line><line x1="184.17371464614587" y1="0" x2="184.17371464614587" y2="5" style="visibility: inherit;" fill="rgb(0, 0, 0)" stroke="rgb(204, 204, 204)" stroke-width="1px"></line><line x1="210.27987054518422" y1="0" x2="210.27987054518422" y2="5" style="visibility: inherit;" fill="rgb(0, 0, 0)" stroke="rgb(204, 204, 204)" stroke-width="1px"></line><line x1="236.38602644422252" y1="0" x2="236.38602644422252" y2="5" style="visibility: inherit;" fill="rgb(0, 0, 0)" stroke="rgb(204, 204, 204)" stroke-width="1px"></line><line x1="262.4921823432608" y1="0" x2="262.4921823432608" y2="5" style="visibility: inherit;" fill="rgb(0, 0, 0)" stroke="rgb(204, 204, 204)" stroke-width="1px"></line></g><g transform="translate(0, 8)"><text x="1.430623352877634" y="0" dx="0em" dy="0.95em" style="text-anchor: middle; visibility: hidden; font-family: &quot;Helvetica Neue&quot;, sans-serif; font-size: 12px; font-weight: 200;" fill="rgb(50, 49, 63)" stroke="none" stroke-width="1px">200k</text><text x="27.536779251915956" y="0" dx="0em" dy="0.95em" style="text-anchor: middle; visibility: inherit; font-family: &quot;Helvetica Neue&quot;, sans-serif; font-size: 12px; font-weight: 200;" fill="rgb(50, 49, 63)" stroke="none" stroke-width="1px">300k</text><text x="53.64293515095428" y="0" dx="0em" dy="0.95em" style="text-anchor: middle; visibility: hidden; font-family: &quot;Helvetica Neue&quot;, sans-serif; font-size: 12px; font-weight: 200;" fill="rgb(50, 49, 63)" stroke="none" stroke-width="1px">400k</text><text x="79.7490910499926" y="0" dx="0em" dy="0.95em" style="text-anchor: middle; visibility: inherit; font-family: &quot;Helvetica Neue&quot;, sans-serif; font-size: 12px; font-weight: 200;" fill="rgb(50, 49, 63)" stroke="none" stroke-width="1px">500k</text><text x="105.85524694903091" y="0" dx="0em" dy="0.95em" style="text-anchor: middle; visibility: hidden; font-family: &quot;Helvetica Neue&quot;, sans-serif; font-size: 12px; font-weight: 200;" fill="rgb(50, 49, 63)" stroke="none" stroke-width="1px">600k</text><text x="131.96140284806924" y="0" dx="0em" dy="0.95em" style="text-anchor: middle; visibility: inherit; font-family: &quot;Helvetica Neue&quot;, sans-serif; font-size: 12px; font-weight: 200;" fill="rgb(50, 49, 63)" stroke="none" stroke-width="1px">700k</text><text x="158.06755874710757" y="0" dx="0em" dy="0.95em" style="text-anchor: middle; visibility: hidden; font-family: &quot;Helvetica Neue&quot;, sans-serif; font-size: 12px; font-weight: 200;" fill="rgb(50, 49, 63)" stroke="none" stroke-width="1px">800k</text><text x="184.17371464614587" y="0" dx="0em" dy="0.95em" style="text-anchor: middle; visibility: inherit; font-family: &quot;Helvetica Neue&quot;, sans-serif; font-size: 12px; font-weight: 200;" fill="rgb(50, 49, 63)" stroke="none" stroke-width="1px">900k</text><text x="210.27987054518422" y="0" dx="0em" dy="0.95em" style="text-anchor: middle; visibility: hidden; font-family: &quot;Helvetica Neue&quot;, sans-serif; font-size: 12px; font-weight: 200;" fill="rgb(50, 49, 63)" stroke="none" stroke-width="1px">1M</text><text x="236.38602644422252" y="0" dx="0em" dy="0.95em" style="text-anchor: middle; visibility: inherit; font-family: &quot;Helvetica Neue&quot;, sans-serif; font-size: 12px; font-weight: 200;" fill="rgb(50, 49, 63)" stroke="none" stroke-width="1px">1.1M</text><text x="262.4921823432608" y="0" dx="0em" dy="0.95em" style="text-anchor: middle; visibility: hidden; font-family: &quot;Helvetica Neue&quot;, sans-serif; font-size: 12px; font-weight: 200;" fill="rgb(50, 49, 63)" stroke="none" stroke-width="1px">1.2M</text></g><line x1="0" y1="0" x2="266" y2="0" fill="rgb(0, 0, 0)" stroke="rgb(204, 204, 204)" stroke-width="1px"></line></g></g></g></g></svg>