<svg viewBox="0 0 330 200" xmlns="http://www.w3.org/2000/svg"><g><g><g><g><g><line x1="64" y1="157.45594468554643" x2="59" y2="157.45594468554643" style="visibility: inherit;" fill="rgb(0, 0, 0)" stroke="rgb(204, 204, 204)" stroke-width="1px"></line><line x1="64" y1="132.4645760996422" x2="59" y2="132.4645760996422" style="visibility: inherit;" fill="rgb(0, 0, 0)" stroke="rgb(204, 204, 204)" stroke-width="1px"></line><line x1="64" y1="107.47320751373795" x2="59" y2="107.47320751373795" style="visibility: inherit;" fill="rgb(0, 0, 0)" stroke="rgb(204, 204, 204)" stroke-width="1px"></line><line x1="64" y1="82.4818389278337" x2="59" y2="82.4818389278337" style="visibility: inherit;" fill="rgb(0, 0, 0)" stroke="rgb(204, 204, 204)" stroke-width="1px"></line><line x1="64" y1="57.49047034192945" x2="59" y2="57.49047034192945" style="visibility: inherit;" fill="rgb(0, 0, 0)" stroke="rgb(204, 204, 204)" stroke-width="1px"></line><line x1="64" y1="32.499101756025226" x2="59" y2="32.499101756025226" style="visibility: inherit;" fill="rgb(0, 0, 0)" stroke="rgb(204, 204, 204)" stroke-width="1px"></line><line x1="64" y1="7.507733170120986" x2="59" y2="7.507733170120986" style="visibility: inherit;" fill="rgb(0, 0, 0)" stroke="rgb(204, 204, 204)" stroke-width="1px"></line></g><g transform="translate(54, 0)"><text x="0" y="157.45594468554643" dx="0em" dy="0.3em" style="text-anchor: end; visibility: inherit; font-family: &quot;Helvetica Neue&quot;, sans-serif; font-size: 12px; font-weight: 200;" fill="rgb(50, 49, 63)" stroke="none" stroke-width="1px">0</text><text x="0" y="132.4645760996422" dx="0em" dy="0.3em" style="text-anchor: end; visibility: inherit; font-family: &quot;Helvetica Neue&quot;, sans-serif; font-size: 12px; font-weight: 200;" fill="rgb(50, 49, 63)" stroke="none" stroke-width="1px">200</text><text x="0" y="107.47320751373795" dx="0em" dy="0.3em" style="text-anchor: end; visibility: inherit; font-family: &quot;Helvetica Neue&quot;, sans-serif; font-size: 12px; font-weight: 200;" fill="rgb(50, 49, 63)" stroke="none" stroke-width="1px">400</text><text x="0" y="82.4818389278337" dx="0em" dy="0.3em" style="text-anchor: end; visibility: inherit; font-family: &quot;Helvetica Neue&quot;, sans-serif; font-size: 12px; font-weight: 200;" fill="rgb(50, 49, 63)" stroke="none" stroke-width="1px">600</text><text x="0" y="57.49047034192945" dx="0em" dy="0.3em" style="text-anchor: end; visibility: inherit; font-family: &quot;Helvetica Neue&quot;, sans-serif; font-size: 12px; font-weight: 200;" fill="rgb(50, 49, 63)" stroke="none" stroke-width="1px">800</text><text x="0" y="32.499101756025226" dx="0em" dy="0.3em" style="text-anchor: end; visibility: inherit; font-family: &quot;Helvetica Neue&quot;, sans-serif; font-size: 12px; font-weight: 200;" fill="rgb(50, 49, 63)" stroke="none" stroke-width="1px">1e+3</text><text x="0" y="7.507733170120986" dx="0em" dy="0.3em" style="text-anchor: end; visibility: inherit; font-family: &quot;Helvetica Neue&quot;, sans-serif; font-size: 12px; font-weight: 200;" fill="rgb(50, 49, 63)" stroke="none" stroke-width="1px">1.2e+3</text></g><line x1="64" y1="0" x2="64" y2="177" fill="rgb(0, 0, 0)" stroke="rgb(204, 204, 204)" stroke-width="1px"></line></g></g><g transform="translate(64, 0)" clip-path="url(#clip_0)"><clipPath id="clip_0"><rect width="266" height="177"></rect></clipPath><g><g><g><line x1="1.430623352877634" y1="0" x2="1.430623352877634" y2="177" fill="rgb(0, 0, 0)" stroke="rgb(60, 60, 60)" stroke-width="1px" opacity="0.25"></line><line x1="27.536779251915956" y1="0" x2="27.536779251915956" y2="177" fill="rgb(0, 0, 0)" stroke="rgb(60, 60, 60)" stroke-width="1px" opacity="0.25"></line><line x1="53.64293515095428" y1="0" x2="53.64293515095428" y2="177" fill="rgb(0, 0, 0)" stroke="rgb(60, 60, 60)" stroke-width="1px" opacity="0.25"></line><line x1="79.7490910499926" y1="0" x2="79.7490910499926" y2="177" fill="rgb(0, 0, 0)" stroke="rgb(60, 60, 60)" stroke-width="1px" opacity="0.25"></line><line x1="105.85524694903091" y1="0" x2="105.85524694903091" y2="177" fill="rgb(0, 0, 0)" stroke="rgb(60, 60, 60)" stroke-width="1px" opacity="0.25"></line><line x1="131.96140284806924" y1="0" x2="131.96140284806924" y2="177" fill="rgb(0, 0, 0)" stroke="rgb(60, 60, 60)" stroke-width="1px" opacity="0.25"></line><line x1="158.06755874710757" y1="0" x2="158.06755874710757" y2="177" fill="rgb(0, 0, 0)" stroke="rgb(60, 60, 60)" stroke-width="1px" opacity="0.25"></line><line x1="184.17371464614587" y1="0" x2="184.17371464614587" y2="177" fill="rgb(0, 0, 0)" stroke="rgb(60, 60, 60)" stroke-width="1px" opacity="0.25"></line><line x1="210.27987054518422" y1="0" x2="210.27987054518422" y2="177" fill="rgb(0, 0, 0)" stroke="rgb(60, 60, 60)" stroke-width="1px" opacity="0.25"></line><line x1="236.38602644422252" y1="0" x2="236.38602644422252" y2="177" fill="rgb(0, 0, 0)" stroke="rgb(60, 60, 60)" stroke-width="1px" opacity="0.25"></line><line x1="262.4921823432608" y1="0" x2="262.4921823432608" y2="177" fill="rgb(0, 0, 0)" stroke="rgb(60, 60, 60)" stroke-width="1px" opacity="0.25"></line></g><g><line x1="0" y1="157.45594468554643" x2="266" y2="157.45594468554643" fill="rgb(0, 0, 0)" stroke="rgb(60, 60, 60)" stroke-width="1px" opacity="0.25"></line><line x1="0" y1="132.4645760996422" x2="266" y2="132.4645760996422" fill="rgb(0, 0, 0)" stroke="rgb(60, 60, 60)" stroke-width="1px" opacity="0.25"></line><line x1="0" y1="107.47320751373795" x2="266" y2="107.47320751373795" fill="rgb(0, 0, 0)" stroke="rgb(60, 60, 60)" stroke-width="1px" opacity="0.25"></line><line x1="0" y1="82.4818389278337" x2="266" y2="82.4818389278337" fill="rgb(0, 0, 0)" stroke="rgb(60, 60, 60)" stroke-width="1px" opacity="0.25"></line><line x1="0" y1="57.49047034192945" x2="266" y2="57.49047034192945" fill="rgb(0, 0, 0)" stroke="rgb(60, 60, 60)" stroke-width="1px" opacity="0.25"></line><line x1="0" y1="32.499101756025226" x2="266" y2="32.499101756025226" fill="rgb(0, 0, 0)" stroke="rgb(60, 60, 60)" stroke-width="1px" opacity="0.25"></line><line x1="0" y1="7.507733170120986" x2="266" y2="7.507733170120986" fill="rgb(0, 0, 0)" stroke="rgb(60, 60, 60)" stroke-width="1px" opacity="0.25"></line></g></g></g><g><g><line x1="0" y1="157.45594468554643" x2="266" y2="157.45594468554643" fill="rgb(0, 0, 0)" stroke="rgb(153, 153, 153)" stroke-width="1.5px"></line></g></g><g><g><line x1="-50.78168844519901" y1="0" x2="-50.78168844519901" y2="177" fill="rgb(0, 0, 0)" stroke="rgb(153, 153, 153)" stroke-width="1.5px"></line></g></g><g><g><g><g><g><path stroke="rgb(255, 112, 67)" stroke-width="2px" d="M30.72173027159863,92.62103728932881L30.878367206992863,107.61625051001322L31.113322610084207,106.54602888427559L31.19164107778132,110.58065978501082L31.426596480872668,106.06005959219921L31.81818881935824,104.6730577209566L31.97482575475247,104.17189778379678L32.1314626901467,108.13796531544146L32.366418093238046,107.8918348655193L32.60137349632939,109.88892211246062L32.75801043172362,111.92540431779739L33.14960277020919,113.72248418162681L33.22792123790631,113.69384025712927L33.306239705603424,114.6736962656171L33.38455817330054,116.02024664318867L33.462876640997656,115.34325759499725L33.61951357639188,115.01756000461705L33.697832044089,115.53423147104348L33.77615051178611,113.42583239203881L34.01110591487746,113.66903566988627L34.08942438257458,114.03616322170677L34.32437978566592,113.17118104587792L34.48101672106015,113.29167788867781L34.637653656454376,113.79475397797039L34.71597212415149,113.66901913614606L34.872609059545724,113.80764479938358L34.95092752724284,113.97831320568066L35.029245994939956,114.52503403444715L35.10756446263707,113.69659494702641L35.969067607305334,114.20777649582232L36.51729688118514,114.63219017490067L36.830570751973596,112.85492923485378L36.90888921967072,113.54871259733333L36.98720768736783,113.49432046632137L37.300481558156285,113.65400916387642L37.53543696124763,114.35639018889725L37.61375542894475,115.01630302764055L37.92702929973321,115.21152891736023L38.161984702824554,115.21934226794059L38.396940105915895,113.06688061321722L38.71021397670435,112.33290162621L38.78853244440147,111.699613760015L38.86685091209859,110.91489642508647L38.94516937979571,111.22359331125648L39.41508018597839,111.89629405068933L39.51950480957455,111.67020848652601L39.98941561575723,111.69923886595954L40.302689486545695,111.66088590012308L40.53764488963704,109.85942877823327L40.772600292728384,110.50573708143429L40.8509187604255,110.86113898193972L41.007555695819725,111.36190366167186L41.24251109891108,110.83632722183225L41.32082956660819,109.97006516724045L41.399148034305306,110.26803036782815L41.55578496969954,110.56078935720186L41.947377308185104,110.35388862393688L42.57392504976203,110.56905632412698L42.88719892055049,109.98713873624048L42.9655173882476,110.49847697992607L43.04383585594472,111.05362023475587L43.435428194430294,111.31056714440196L43.51374666212741,111.30894786285009L43.74870206521875,111.53281649466214L44.061975936007215,111.32024979630913L44.14029440370433,111.3616567784228L44.531886742189904,110.68082683106988L44.61020520988702,110.95582343225507L44.84516061297836,111.27346544572013L44.92347908067548,111.32551966236385L45.00179754837259,111.36697651985908L45.08011601606971,111.25299577562002L45.23675295146394,111.21996401511737L45.5500268222524,111.6070622618658L45.78498222534374,110.8306680250379L45.94161916073798,110.9424862802628L46.098256096132204,110.81317566079187L46.17657456382932,110.87957605388564L46.48984843461778,111.24581644674902L46.64648537001201,111.28355680559439L46.88144077310335,111.53364303715746L47.27303311158893,111.7771320724068L47.58630698237739,111.78210283942646L47.6646254500745,112.0169198481643L47.82126238546873,112.04593155757475L47.89958085316585,112.24466798429754L47.97789932086297,112.06023130721243L48.21285472395431,111.86887812798334L48.36949165934853,111.80430255788099L48.682765530137,112.09590076840101L48.83940246553123,112.49968537584903L48.917720933228345,112.5465688163639L48.99603940092546,112.77378999360282L49.07435786862257,112.44190114179028L49.30931327171392,112.35828765152029L49.38763173941103,112.59828130631509L49.622587142502375,112.67967357561868L49.7792240778966,112.78321155320313L50.092497948685065,112.24035716427329L50.2491348840793,112.16151618077635L50.7973641579591,112.50453474549495L50.954001093353334,112.77669071571562L51.11063802874756,113.0743254963931L51.89382270571871,113.23462097567455L51.97214117341583,112.68005888741376L52.12877810881005,112.62467469137816L52.20709657650717,112.95020134492806L52.3637335119014,112.42272873027245L52.44205197959851,112.10796086986765L52.75532585038698,112.05689391082029L52.911962785781206,112.12961566219833L52.99028125347832,112.1233002969927L53.381873591963895,112.28810864125684L53.53851052735812,112.34772007908491L53.616828995055236,112.38673737188907L53.69514746275236,112.45874151856316L53.773465930449476,112.4147777128117L53.851784398146584,112.72234459810134L53.9301028658437,112.6376962551825L54.08673980123793,112.58512526071856L54.24337673663216,112.6464278434494L54.713287542814854,112.64579871564014L54.86992447820908,112.17408117827105L54.948242945906195,112.15426520184964L55.02656141360331,112.12415916277214L55.183198348997536,112.1714113639751L55.418153752088884,111.7742108595391L55.88806455827157,111.2599910076884L56.12301996136292,111.41836987487129L56.279656896757146,111.581719051512L56.35797536445426,111.77196025184698L56.59293076754561,111.6584613702348L56.671249235242726,111.56009811201947L56.90620463833407,111.59304885936439L56.98452310603118,111.64162196064221L57.0628415737283,111.5939068320973L57.141160041425415,111.35976946141022L57.29779697681964,111.39298630580785L57.376115444516756,110.70511203256319L57.45443391221387,110.54134571138866L57.611070847608104,110.73709909390746L57.68938931530522,110.70780534310765L57.84602625069945,110.66179107447265L58.315937056882134,110.66813859893924L58.39425552457925,110.66677694686089L58.55089245997348,110.17496744852079L58.6292109276706,110.28562868023502L58.78584786306483,110.3542238412268L58.942484798459056,110.59712917918468L59.09912173385329,110.7160428407556L59.177440201550404,110.68913840212302L59.25575866924751,110.92092421062574L59.33407713694463,111.09049139956993L59.72566947543021,110.99691402095694L59.803987943127325,111.20762167651989L60.11726181391578,110.99493809975098L60.1955802816129,110.52486747264749L60.35221721700712,110.63342526263258L60.43053568470424,110.83726749683622L60.50885415240136,110.3332312812557L60.58717262009847,110.504393757747L60.66549108779559,110.62922445291737L61.605312700160965,110.52193087521515L61.7619496355552,110.61991244539249L61.84026810325231,110.94417596880746L61.91858657094942,111.10403321923654L62.075223506343654,111.18100414542101L62.15354197404077,111.42918663738587L62.231860441737886,111.3505365022463L62.466815844829235,111.48764860822328L62.62345278022346,111.26390159635045L62.93672665101192,111.44091488819801L63.01504511870903,111.47884768831305L63.171682054103265,111.46583936514904L63.641592860285954,111.61567274063961L63.71991132798307,111.59913966412965L63.798229795680186,111.48512968173932L64.03318519877153,111.4717442790884L64.18982213416575,111.58976274397996L64.34645906956,111.28946120804963L64.42477753725711,111.52416568686169L64.50309600495422,111.79346815042958L64.58141447265133,111.4505677139788L64.73805140804556,111.58633104014154L64.8946883434398,111.61887448967467L65.12964374653113,111.4433051600943L65.20796221422825,111.5302158030657L65.36459914962249,111.45882150907364L65.44291761731961,111.41289133014206L65.59955455271383,111.55792873918327L65.83450995580517,111.24832843078129L66.01725304709845,111.30162321134767L66.09557151479555,111.36113141721093L66.17388998249267,111.15753866628397L66.40884538558402,111.45471453659098L66.80043772406958,111.63400398561579L66.8787561917667,111.58355772336542L66.95707465946381,111.2956395295399L67.27034853025229,111.318826106088L67.34866699794941,111.5275438647898L67.42698546564651,111.43773849981935L67.66194086873786,111.51772770871311L67.74025933643497,111.55246981285688L67.8968962718292,111.65254429910256L68.05353320722344,111.67055532509463L68.13185167492054,111.52460132315045L68.21017014261766,111.71595711180697L68.445125545709,111.8800358211168L68.52344401340612,111.80082712061622L68.75839941649745,111.62866170232685L68.9933548195888,111.79134227890371L69.22831022268016,111.84061014250344L69.3849471580744,111.84972621341211L69.4632656257715,111.94163324515962L69.54158409346861,112.09549560979852L69.77653949655996,112.03940331031475L69.85485796425708,111.8878729974516L70.16813183504553,111.82157863744214L70.24645030274264,112.01690859449697L70.48140570583399,112.1721973271994L70.55972417353111,112.29223098278969L70.63804264122822,112.41080892773645L70.87299804431956,112.46323580637788L70.95131651201667,112.27777834113401L71.0296349797138,112.30148937597427L71.10795344741092,112.3200261209357L71.18627191510804,112.09104408486957L71.26459038280515,111.69961635732697L71.34290885050227,111.6591143265331L71.42122731819939,111.47924950978486L71.49954578589649,111.48534168494854L71.89113812438207,111.28721212099882L71.96945659207918,111.45093944529404L72.20441199517052,111.11624418957953L72.36104893056475,111.10471414692175L72.5960043336561,110.93865209252112L72.75264126905033,111.12777510839136L72.90927820444456,110.70054034976842L73.30087054293014,110.78262605121577L73.37918901062726,110.33643950952202L73.45750747832437,109.88453476869678L73.53582594602148,109.58613080660521L73.61414441371859,109.59622844032002L73.69246288141571,109.46316009861962L74.16237368759839,108.9346938751713L74.39732909068974,108.81001897958745L74.47564755838685,108.41113783985715L74.7106029614782,108.49286442534064L75.1805137676609,108.42339586541542L75.25883223535801,108.12731803212581L75.49378763844936,107.98017245393595L75.57210610614646,107.41231703750495L75.7287430415407,107.26174804256621L75.80706150923781,107.25379004152303L75.88537997693493,107.49628992240795L76.19865384772338,107.47332286145578L76.2769723154205,107.2202105107969L76.43360925081473,107.00660727366854L76.66856465390607,106.71258272330029L76.74688312160319,106.24517282310109L76.90352005699742,106.18124090649322L77.21679392778589,106.20538349451652L77.295112395483,105.8133410428357L77.45174933087723,105.9249623513197L77.68670473396857,105.62730176455449L77.76502320166568,105.64504113296277L77.8433416693628,105.54559139656178L77.99997860475703,105.60696011339023L78.23493400784837,105.25756561683417L78.31325247554548,105.47941939782218L78.46988941093971,105.40892384789501L78.96590637302145,105.54159392995298L79.04422484071857,105.34463494059055L79.43581717920414,105.14711268957218L79.51413564690125,105.21654212167925L79.67077258229548,105.17019666141893L80.06236492078106,105.22393398676594L80.2190018561753,105.01842724877629L80.68891266235798,105.25297350656807L80.92386806544933,105.28152859860909L81.00218653314644,105.19051164366931L81.15882346854067,105.28085896496334L81.31546040393489,105.33313537825886L81.55041580702624,105.14381224906249L81.62873427472336,105.03881928266695L81.78537121011759,105.07698997973854L81.94200814551182,104.95873465115832L82.02032661320894,104.54352601220775L82.17696354860317,104.55462640977146L82.25528201630028,104.49913072603302L82.3336004839974,104.39632222383094L82.56855588708873,104.32096820320689L82.64687435478585,104.28307284073692L82.72519282248297,104.19872212987408L82.80351129018008,103.57322411366185L82.8818297578772,103.52219256741377L83.27342209636276,103.76210955006013L83.50837749945411,103.9262368599546L83.74333290254546,104.03826272606177L83.8999698379397,104.22330303507887L84.13492524103104,104.25175204835453L84.29156217642527,104.40119006844253L84.36988064412239,104.49521877696466L84.4481991118195,104.63120545086609L84.76147298260796,104.43473167034897L84.83979145030507,104.47354562078493L84.9964283856993,104.56899602108615L85.15306532109354,104.60725934405346L85.46633919188199,104.42320490432292L85.5446576595791,104.46149384094099L85.70129459497333,104.49105779567202L85.77961306267045,104.63567977158102L85.93624999806468,104.62569567937551L86.24952386885315,104.75791012279191L86.4844792719445,104.29356082075665L86.79775314273294,104.35741802236782L86.95439007812718,104.56261569747203L87.03270854582429,104.60175382367635L87.11102701352141,104.53511617837756L87.18934548121852,104.23870479970591L87.26766394891563,104.433342030581L87.42430088430986,104.27623860434298L87.58093781970409,104.41544491821813L87.73757475509832,104.56223510289898L87.81589322279545,104.61244786646306L88.05084862588679,104.52933818559197L88.36412249667525,104.67571031874601L88.52075943206948,104.4042376495962L88.5990778997666,104.09412879070153L88.75571483516082,104.00584904697627L89.1473071736464,103.87759329734017L89.38226257673773,103.987067371739L89.53889951213196,104.2269296274546L89.69553644752621,104.1931391861415L89.85217338292044,104.31316306634398L90.00881031831466,104.32833927654892L90.16544725370889,104.56049283795282L90.40040265680024,104.72543634713564L90.47872112449735,104.63823140469171L90.71367652758869,104.67672267928579L91.02695039837715,104.8414420922701L91.18358733377138,104.83016552580484L91.81013507534831,104.99618103363156L92.12340894613676,104.89435838178753L92.20172741383388,104.95503796343631L92.43668281692523,105.03230182054337L92.8282751554108,105.14696310482377L93.21986749389637,105.28720258471151L93.29818596159349,104.78346707906434L93.68977830007907,104.3125605978744L93.76809676777619,104.37158082957201L94.08137063856464,104.49032888191728L94.3946445093531,104.5955052196178L94.47296297705022,104.37777222650107L94.62959991244445,104.61352030865146L94.70791838014156,104.79102481633599L94.78623684783867,104.77985240441491L95.02119225093001,104.75409356923785L95.09951071862713,104.92236906017963L95.17782918632425,104.69276818597065L95.25614765402136,104.63243298300242L95.41278458941558,104.73340409060113L95.56942152480983,104.70643357007579L95.72605846020406,104.4719146401526L95.80437692790117,104.71757951533556L96.19596926638674,104.91898292674485L96.35260620178097,104.98528730535389L96.66588007256944,105.15560725589953L96.82251700796365,105.11898961437183L96.90083547566077,105.40555895211732L97.13579087875212,105.38368377475041L97.21410934644923,105.49595346167806L97.29242781414635,105.3240687911992L97.37074628184347,105.43669466199529L97.5273832172377,105.38056436762514L97.60570168493481,105.21601192233427L97.84065708802616,105.48064816782214L97.91897555572328,104.61695837446567L98.07561249111751,104.76075848779118L98.15393095881461,104.98862161278032L98.23224942651173,104.9602772725109L98.38888636190596,104.87852207357587L98.46720482960308,104.59365757617961L98.54552329730019,104.56551455078183L98.70216023269442,104.63551237058655L98.78047870039153,104.63921185358129L98.93711563578576,104.76869186300189L99.01543410348287,104.94963750957842L99.09375257117999,104.96238671227499L99.25038950657422,105.0092015127872L99.48534490966557,105.00543552928013L99.56366337736269,104.9734685164433L99.72030031275692,104.86602582705386L99.87693724815115,104.70004950148785L100.03357418354538,104.79486780557677L100.1118926512425,104.88389908345131L100.50348498972807,104.87763352673659L100.73844039281941,104.54511905287902L100.81675886051652,103.84619678365502L100.89507732821363,103.7034223765618L100.97339579591075,103.869893407924L101.13003273130498,103.97618054530767L101.83489894057902,103.93091016433648L101.91321740827614,104.18282652321724L102.38312821445882,104.14951797377086L102.46144668215594,104.39708419122321L102.53976514985305,104.64663334479059L102.93135748833862,104.69971769714883L103.08799442373285,105.0402129749621L103.16631289142997,104.94232630017483L103.24463135912708,105.26659868219109L103.32294982682421,105.375900670509L103.47958676221845,105.66537882339621L103.63622369761266,105.36186037717394L103.94949756840113,105.49162705033835L104.10613450379536,105.68290616614365L104.3410899068867,105.53685594885356L104.41940837458381,105.67322818135732L104.81100071306939,105.94959851945937L105.46365461054535,105.34111617433274L105.62029154593958,105.31522872775042L105.6986100136367,105.24020739028265L105.7769284813338,105.22207182230743L105.93356541672803,105.3499409623955L106.09020235212226,105.50991956298603L106.32515775521361,105.54740956148555L106.63843162600207,105.67284180398121L106.7950685613963,105.98394015024407L106.87338702909342,106.22297409748398L106.95170549679054,106.39294482336473L107.03002396448765,106.58674516674196L107.26497936757899,106.70905674086849L107.3432978352761,106.67066472814804L107.42161630297322,106.56584558339333L107.65657170606457,106.72568155597394L107.8915271091559,106.88944561234105L107.96984557685302,106.2438625425987L108.20480097994437,106.14029023433706L108.28311944764148,106.05358365678742L108.90966718921841,106.14627908915433L108.98798565691553,106.19509342495556L109.06630412461264,106.32751328674463L109.14462259230976,106.34438056835218L109.30125952770398,106.52652341281599L109.45789646309821,106.54415138422995L109.53621493079532,106.57882706234432L109.61453339849244,106.713111555042L110.47603654316072,106.86138523197586L110.63267347855493,107.12169411959225L110.71099194625205,107.10031868986857L111.18090275243475,107.22258687450827L111.25922122013185,107.31549493743725L111.4941766232232,107.45727104186524L111.57249509092031,107.49885608689901L111.80745049401166,107.48797919102535L111.88576896170876,107.72368348860243L112.042405897103,107.9669487938944L112.19904283249723,107.84996622940547L112.5123167032857,108.01800497108717L112.66895363867992,108.0708490337989L112.74727210637704,108.16466102429827L112.82559057407416,108.42890897661327L112.90390904177127,108.41197293784892L112.98222750946839,108.59478032072687L113.13886444486262,108.74806224154126L113.21718291255974,108.96700193139073L113.37381984795395,108.69197298613793L113.53045678334819,108.72466375911152L113.6087752510453,108.50808023164086L113.68709371874242,108.59479471734892L113.76541218643953,108.7735664604381L114.07868605722798,108.6607173578388L114.1570045249251,108.84842388178923L114.23532299262222,108.98790456391225L114.31364146031935,108.814538251393L114.39195992801646,108.86762764885015L114.5485968634107,109.07799961407184L115.17514460498761,109.06255648321948L115.41010000807894,109.1640712953947L115.48841847577606,109.31267571795944L115.56673694347317,109.27636056391076L115.7233738788674,109.15172660033957L116.34992162044433,109.31236956435974L116.42824008814145,109.34964198593381L116.7415139589299,109.51471901948777L116.97646936202125,109.52704238860446L117.13310629741548,109.69650542203276L117.2114247651126,109.70778275632426L117.60301710359816,109.71461749617218L117.68133557129528,109.5915159338945L117.91629097438663,109.80443193743633L118.07292790978084,109.36734622541064L118.15124637747797,109.36705813035736L118.38620178056932,109.34501149947056L118.77779411905489,109.543308562988L118.93443105444912,109.40040271849897L119.24770492523758,109.5221539124828L119.32602339293469,109.634519018893L119.56097879602603,109.68818370202322L119.71761573142027,109.6064079260003L119.8742526668145,109.73455267156439L120.03088960220872,109.82126667872784L120.10920806990585,109.92839712098238L120.26584500530008,110.11223038049083L120.50080040839143,110.32522039519024L120.57911887608854,110.1645848724255L120.65743734378566,109.99692758570946L120.73575581148276,110.23691400485512L120.81407427917988,110.30393295975986L120.892392746877,110.4446684346392L120.97071121457411,110.5321524967125L121.04902968227123,110.66680833892097L121.20566661766546,110.01110227907938L121.67557742384814,110.1289482040696L121.75389589154526,110.26757038301571L121.83221435924237,110.21212989971481L121.91053282693949,110.34007838362089L121.9888512946366,110.48087168886678L122.14548823003084,110.6155747109603L122.22380669772795,110.84543520712916L122.38044363312218,110.80986233450113L122.4587621008193,110.54519474019924L122.53708056851642,110.77322434054359L122.85035443930487,110.97196665644115L123.0069913746991,111.02377048171364L123.16362831009333,110.96199285140128L123.79017605167024,111.02268317113496L123.94681298706449,110.59657524078717L124.0251314547616,110.68842115903074L124.33840532555006,110.76224575749839L124.41672379324717,110.74515460970407L124.49504226094429,110.84584409459872L124.65167919633852,110.99251716945606L124.88663459942985,111.24195792773206L125.04327153482409,111.50678292077852L125.1215900025212,111.65490543113623L125.27822693791543,111.47942122991226L125.35654540561255,111.5824911351001L125.51318234100677,111.44071791254508L125.669819276401,111.61804484847356L125.90477467949236,111.69847542714767L126.0614116148866,111.70977969207753L126.1397300825837,111.57164469611162L126.21804855028081,111.70831650458351L126.76627782416062,111.38664553210519L126.92291475955484,111.42035066664195L127.2361886303433,111.37399807288702L127.39282556573754,111.56052770518956L127.54946250113176,111.65811749277074L127.62778096882887,111.76940232770785L127.70609943652599,111.61162726234595L128.01937330731445,111.64633992673636L128.09769177501158,111.72177980092609L128.17601024270868,111.93500409432609L128.25432871040582,111.827138542543L128.56760258119425,111.92530249923178L128.64592104889138,112.18500093981031L128.8025579842856,112.36697429918304L128.88087645198272,112.49236946846558L129.11583185507408,112.42332770237634L129.19415032277118,112.55374529627831L129.3507872581654,112.62292006027029L129.50742419355964,112.60611691261352L129.58574266125675,112.70868174763616L129.74237959665098,112.9289630540969L129.97733499974234,113.06949285261666L130.05565346743944,112.88289952802006L130.21229040283367,112.93785363523442L130.2906088705308,112.75741390869064L130.52556427362214,112.8308386705L130.60388274131924,112.71473252005995L130.76051967671347,112.94595785193216L130.9171566121077,113.06300138583441L130.99547507980483,112.89859477547422L131.778659756776,112.70763868928958L131.8569782244731,112.51619131298672L132.24857056295866,112.75112957851792L132.3268890306558,112.95017809304426L132.50963212194904,112.93535191390163L132.7445875250404,113.03931528093135L132.9012244604346,112.7198028880983L133.05786139582887,112.46368359299015L133.13617986352597,112.59775679612258L133.2144983312231,112.6253608190725L133.2928167989202,112.81091983967887L133.4494537343144,113.01746769187665L133.52777220201153,113.24012520229999L133.8410460728,113.44930789470646L133.9193645404971,113.43276678296189L133.99768300819423,113.63387594030031L134.15431994358846,113.56179338750077L134.3109568789827,113.59348584163445L134.54591228207406,113.82665701621144L134.62423074977116,113.63601199996023L134.8591861528625,113.66517497153002L134.9375046205596,113.86187413766197L135.01582308825672,113.96831971665472L135.09414155595383,113.97243381949974L135.25077849134806,113.90187008434022L135.48573389443942,113.95171918179372L135.79900776522788,114.00279320893874L135.95564470062212,114.13963071011437L136.03396316831925,114.07046510844822L136.19060010371345,114.19063944508201L136.34723703910768,114.42236263362093L136.50387397450191,114.21278659892707L136.81714784529038,114.28256105225384L137.28705865147307,114.33155534445217L137.4436955868673,114.28979491719011L137.52201405456438,114.29884370495884L137.6786509899586,114.22022828931216L137.91360639304997,114.17516951213219L138.0702433284442,114.38896632265835L138.14856179614134,114.3369525165935L138.4618356669298,114.5145083599239L138.69679107002113,114.59094479472382L138.77510953771827,114.75208170722465L139.24502034390093,114.78708919580723L139.40165727929516,115.02986348078682L139.79324961778076,114.69940745789556L140.10652348856922,114.65900647199527L140.26316042396343,114.55606113561973L140.41979735935766,114.7287749684189L140.654752762449,114.83583804666942L140.73307123014612,115.04553446020455L140.96802663323746,115.01260447682954L141.0463451009346,115.08172676229395L141.1246635686317,115.06036201520419L141.28130050402592,115.03921749545503L141.35961897172305,114.74688427071695L141.43793743942015,114.81497933148458L141.51625590711728,114.87199469530934L141.75121131020862,115.07138013069881L141.82952977790572,115.16820512335636L142.06448518099708,115.34675529562166L142.2211221163913,115.39162954330467L142.53439598717978,115.2089301208219L142.691032922574,115.19942879227958L142.92598832566532,115.29169230221837L143.08262526105955,115.52749017687702L143.3175806641509,115.67536717061253L143.395899131848,115.69380928931491L143.55253606724224,115.70582342441102L143.63085453493937,115.2786373142672L144.2574022765163,115.46882756174162L144.4140392119105,115.38925186545971L144.57067614730474,115.15934144486917L144.72731308269897,115.37169687958828L144.8839500180932,115.08136217520664L145.04058695348743,115.05265370153269L145.11890542118456,115.18522154213201L145.2755423565788,115.28117430737859L145.51049775967013,115.08486582197418L145.58881622736726,115.08058703659373L145.66713469506436,115.22294925798256L145.74545316276146,115.2615137975456L146.13704550124706,115.31370968338844L146.21536396894416,115.42124634739767L146.2936824366413,115.22129313039868L146.68527477512686,115.23631066288654L146.763593242824,115.07134541938868L146.9985486459153,115.1732992669888L147.07686711361242,115.35495109170617L147.62509638749225,115.46819687235566L147.78173332288648,115.59594445774334L147.86005179058358,115.47604111964273L148.40828106446338,115.27810771002616L148.64323646755471,115.50264824744605L148.72155493525185,115.27709982007643L148.87819187064608,115.28148328940837L149.1131472737374,115.14034015822467L149.19146574143454,115.24184561988372L149.26978420913164,115.16813537223751L149.42642114452588,115.38128680004147L149.73969501531434,115.53493309487146L150.0529688861028,115.56537899579286L150.20960582149704,115.6460757066026L150.28792428919414,115.52549740032137L150.67951662767973,115.12495826101105L150.75783509537683,115.26954808659472L150.91447203077107,115.43311166798111L151.07110896616527,115.37450054317704L151.1494274338624,115.44941789646084L151.2277459015595,115.57731022540924L151.30606436925663,115.62145816065996L151.38438283695373,115.6216005537359L151.46270130465086,115.74978074892786L151.541019772348,115.85753913550073L151.69765670774223,115.54779650653545L152.0109305785307,115.76316809295756L152.0892490462278,115.74588907119758L152.24588598162202,115.72930835534203L152.55915985241046,115.72998125963188L152.6374783201076,115.8500741127981L153.02907065859316,116.03775395170634L153.57729993247298,116.2463379084328L153.6556184001701,116.26821949583147L153.73393686786721,116.27494738763255L153.89057380326142,116.5186435214163L153.96889227095855,116.40773310896981L154.12552920635278,116.34801752225239L154.20384767404988,116.24092278995917L154.282166141747,116.43749271052286L154.43880307714124,116.5813563311143L154.51712154483835,116.79862848015553L154.59544001253548,117.035593975316L154.8303954156268,117.09012753850459L155.06535081871817,117.10412098500623L155.3003062218095,117.19854151957685L155.45694315720374,117.32613414576468L155.61358009259797,117.2702750201496L155.7702170279922,117.21164528485832L155.8485354956893,117.29033832806915L155.92685396338643,117.37437953336425L156.16180936647777,117.35850559698193L156.2401278341749,117.5629131566923L156.318446301872,117.27043258631804L156.55340170496333,117.33583457956499L156.63172017266044,117.36278020832151L156.78835710805467,117.50837693410908L156.8666755757518,117.58416155774911L156.9449940434489,117.62141633966888L157.02331251114603,117.68879356376277L157.17994944654026,117.73991252295605L157.2582679142374,117.58455883909755L157.3365863819345,117.56965952787294L157.41490484963163,117.65793161603774L157.49322331732873,117.72713269266325L157.64986025272296,117.48001773610756L157.7281787204201,117.41154710431996L157.8848156558143,117.37582920410556L158.11977105890563,117.31795055490443L158.19808952660276,117.23876321032466L158.51136339739122,117.18391217053937L158.53746955329026,117.12771592234937L158.7724249563816,117.2547430915674L158.8507434240787,117.23339455953246L158.92906189177583,117.13117489010104L159.00738035947293,117.18667498345222L159.16401729486716,117.25840291284032L159.3206542302614,117.0302372569258L159.39897269795853,116.7650899374415L159.712246568747,116.88580520903946L159.94720197183833,117.074039592595L160.02552043953546,117.21641191966248L160.10383890723253,117.18362888666022L160.49543124571812,117.13037406287685L160.57374971341525,117.11398174460713L161.04366051959795,117.26596768031276L161.27861592268928,117.27029951093694L161.3569343903864,117.21265302503961L161.4352528580835,117.39256938249858L161.51357132578062,117.47426719675889L161.74852672887195,117.54446079025766L162.06180059966042,117.63243011222082L162.21843753505465,117.65492725448745L162.37507447044888,117.73127506540943L162.53171140584314,117.54983497204L162.84498527663158,117.3228641231027L162.92330374432868,117.35446999268595L163.15825914742004,117.44974068223013L163.23657761511714,117.39406301108676L163.31489608281427,117.27280796721922L163.86312535669407,117.28496719056763L164.72462850136233,116.93346442639519L164.88126543675656,117.02663923982047L164.9595839044537,116.78927950007623L165.0379023721508,116.45524588572067L165.11622083984793,116.61628159357258L165.35117624293926,116.53681049713884L165.89940551681906,116.38332478380562L165.97772398451616,116.54387459336122L166.21267938760752,116.58963477506558L166.29099785530465,116.2227017019757L166.36931632300175,116.33740247682422L166.44763479069888,116.39559259010355L166.525953258396,116.55142258312118L166.60427172609312,116.53458937060883L166.68259019379022,116.58731495481706L166.76090866148735,116.41502431305877L166.83922712918445,115.9836923916782L166.91754559688155,116.18422745321269L167.1525009999729,116.1179648041628L167.30913793536712,116.32317070664888L167.7007302738527,116.39468247550175L167.77904874154981,116.40096029821828L167.93568567694405,116.52935624631488L168.1706410800354,116.25599321176976L168.2489595477325,115.82835756721451L168.3272780154296,115.8400452833499L168.40559648312674,116.00088026983693L168.56223341852098,115.95503374777344L168.7188703539152,115.68789984628069L168.7971888216123,115.88587810803641L169.11046269240077,115.95933883299622L169.1887811600979,115.76752107827994L169.267099627795,115.97814738539103L169.34541809549214,116.14334127038293L169.58037349858344,116.04929796811695L169.65869196628057,116.22220157987667L169.8153289016748,115.89717798106201L169.8936473693719,115.49941801477632L170.05028430476614,115.42446045270219L170.12860277246327,115.3695231408914L170.2852397078575,115.43812125773653L170.36355817555463,115.68526563374496L170.44187664325173,115.68165696761199L170.52019511094886,115.92406863366807L170.6768320463431,115.89736796444919L170.83346898173733,116.01842929858182L170.91178744943443,115.83041628096775L171.22506132022286,115.84191603804848L171.3816982556171,115.96923256707464L171.53833519101133,116.03226280298243L171.69497212640556,116.13039960055103L172.00824599719402,116.03338626425018L172.16488293258828,115.93408634663865L172.2432014002854,116.08293758080364L172.3998383356796,116.01775049036797L172.55647527107382,116.0525004468912L172.63479373877095,116.12261843521227L172.8697491418623,115.81311691891932L173.02638607725652,116.03876333469995L173.10470454495365,116.17303379904195L173.18302301265075,116.08796884053365L173.4179784157421,116.20158138389942L173.88788922192478,116.40531903220514L174.20116309271324,116.17381037734768L174.5144369635017,116.14989744996737L174.67107389889594,116.21804034784384L174.74939236659307,116.36452620941238L174.82771083429017,116.42903549711713L174.9060293019873,116.60532361100223L174.98434776968438,116.72256296021715L175.45425857586707,116.91416733365814L175.6108955112613,116.70931997800184L176.0024878497469,116.74253313935596L176.08080631744403,116.70527854295038L176.15912478514113,116.63119597204656L176.39408018823246,116.73010627389385L176.47239865592957,116.88142673939302L176.86399099441516,117.0167165082378L176.94230946211226,117.12342118171841L177.17726486520363,117.11170236088009L177.25558333290073,117.16381341741723L177.438326424194,117.20657765547605L177.59496335958823,117.18856253271944L177.67328182728534,117.31489317637028L177.82991876267957,117.30008493011782L178.06487416577093,117.21830227239445L178.14319263346803,117.46119334630137L178.22151110116516,117.67996650396783L178.29982956886226,117.70667136670518L178.53478497195363,117.79710651500072L178.6131034396507,117.85921290503165L178.69142190734783,117.8512620608605L179.0046957781363,118.00047915813732L179.0830142458334,118.1999748036876L179.31796964892476,118.08407889127737L179.3962881166219,117.86486953473042L179.474606584319,117.74295341574606L179.63124351971322,117.89955632079717L179.78788045510746,118.06475688366439L179.86619892280459,118.26652332751186L180.17947279359302,118.08025476042366L180.33610972898725,117.71730852026991L180.5710651320786,117.54681222173278L180.64938359977572,117.56137510318547L180.96265747056418,117.80510285402354L181.04097593826128,117.96969301151739L181.19761287365554,117.87792268545935L181.58920521214108,117.93442126369092L181.6675236798382,118.07934459974967L181.7458421475353,118.02520043774545L181.82416061523244,118.13146605697106L181.90247908292955,118.2876434174213L181.98079755062668,118.1089228281441L182.1374344860209,118.28781956567433L182.215752953718,118.43581765293939L182.29407142141514,118.58863842201475L182.37238988911224,118.66365264211522L182.45070835680937,118.741535534848L182.92061916299204,118.9059869123567L183.2338930337805,119.0597148047103L183.31221150147763,119.07414507416249L183.39052996917474,118.65582894154326L183.54716690456897,118.61326843133803L183.86044077535743,118.66961089018022L184.17371464614587,118.84554633795341L184.40867004923723,118.91395734709079L184.56530698463146,118.93841274697299L185.03521779081416,119.03813818673413L185.27017319390552,119.0362892163387L185.42681012929972,118.97958193849615L185.7400840000882,119.13182879333748L185.89672093548242,119.18107762269909L186.20999480627088,119.09589267873858L186.288313273968,119.0679476312308L186.36663174166512,118.65101842203126L186.67990561245358,118.71496185603596L187.07149795093915,118.68729170287861L187.22813488633338,118.81770957904897L187.3847718217276,118.80507618698522L187.4630902894247,118.7322548982571L187.61972722481894,118.8605653730256L187.69804569251608,119.00341796858766L188.0896380310016,119.1916442119632L188.16795649869874,119.1122677352081L188.24627496639584,118.91253035665271L188.79450424027567,119.09042805453262L189.18609657876127,119.16774918724607L189.4993704495497,119.27615956258558L189.73432585264104,119.15289039810311L189.9692812557324,119.13332612487713L190.0475997234295,119.31195327572959L190.67414746500643,119.2854215342204L190.83078440040066,119.34664928672277L191.065739803492,119.23359387672159L191.14405827118912,119.29580194746696L191.30069520658336,119.42856286361345L191.69228754506892,119.45128190789305L192.08387988355452,118.94092868562643L192.47547222204005,118.98778256111756L192.55379068973718,119.03459258422251L192.6321091574343,119.00024855375487L192.78874609282855,119.13614531246364L193.02370149591988,119.18990694369845L193.1803384313141,119.02305345541106L193.25865689901124,118.5158075062262L193.41529383440547,118.3828707364091L193.57193076979968,118.4801652761162L193.65024923749678,118.6153315902235L193.7285677051939,118.70977955718502L193.88520464058814,118.5494551144482L194.04184157598237,118.26668298421001L194.12016004367948,118.37945980905019L194.1984785113766,118.50094355939454L194.2767969790737,118.42342665689992L194.74670778525643,118.56420268057977L195.05998165604487,118.67040876121558L195.2949370591362,118.78189743054716L195.45157399453043,118.79235284676847L195.52989246222756,118.83853604127813L195.92148480071313,118.76536074068136L196.07812173610736,118.65989941902832L196.46971407459293,118.5743954056722L196.62635100998716,118.27813312554264L196.86130641307852,118.14589878427603L196.93962488077563,118.32374671077437L197.09626181616986,118.12194965617871L197.174580283867,117.98076682245255L197.40953568695832,118.07255423116557L197.64449109004966,118.13911964544653L197.879446493141,118.12766298769492L198.11440189623235,118.05099312339493L198.27103883162658,118.04705448648039L198.34935729932369,118.06253685305671L198.42767576702082,118.08661879499027L198.50599423471792,118.2413359803817L198.58431270241505,118.45018616764716L199.05422350859772,118.4812233100597L199.21086044399195,118.52995613142122L199.28917891168908,118.53186170654726L199.36749737938618,118.65286930372292L199.4458158470833,118.78558596133371L199.83740818556888,118.79536267650471L199.915726653266,118.91062385435853L199.9940451209631,118.9288367050183L200.15068205635734,118.64059209420374L200.30731899175154,118.57806384571116L200.38563745944867,118.59808582559779L200.46395592714578,118.68787706281918L200.5422743948429,118.81078981339218L200.62059286254004,118.957570216956L200.69891133023714,119.08193539336808L200.9338667333285,119.2089279174806L201.09050366872273,119.25954722177369L201.16882213641983,119.17009044382867L201.24714060411696,118.92029268695879L201.71705141029963,118.91733158987378L201.79536987799673,118.87456917584441L201.95200681339097,118.91329152444737L202.0303252810881,118.90652223158224L202.1086437487852,118.89543258824685L202.18696221648233,118.93679375042606L202.26528068417943,118.84910470954136L202.34359915187656,118.77351334455312L202.57855455496792,118.66480659898406L202.9701468934535,118.86948024785455L203.0484653611506,118.64125455149478L203.36173923193905,118.73997065490101L203.5183761673333,118.9107142794393L203.8577561940208,118.69714574088627L204.09271159711213,118.90495334554586L204.32766700020346,118.75788764288099L204.4059854679006,118.8978557073714L204.4843039355977,118.9253188975602L204.56262240329482,119.05629960961451L204.71925933868906,118.91040705609578L204.79757780638616,118.81341309929189" style="fill: none;" fill="none"></path></g></g></g></g><g opacity="0.2"><g><g><g><path stroke="rgb(255, 112, 67)" stroke-width="2px" d="M30.72173027159863,92.62103728932881L30.878367206992863,122.46151159849074L31.113322610084207,104.43758525940962L31.19164107778132,122.444084450902L31.426596480872668,88.42522079783596L31.81818881935824,97.943345363634L31.97482575475247,101.26844512356604L32.1314626901467,134.8118736914679L32.366418093238046,106.00936143670553L32.60137349632939,126.98756872341002L32.75801043172362,131.20310039062142L33.14960277020919,132.34295024433166L33.22792123790631,113.37165632465091L33.306239705603424,126.55486065688001L33.38455817330054,133.5175438051931L33.462876640997656,105.96410042691761L33.61951357639188,110.22795524823064L33.697832044089,123.56776175911469L33.77615051178611,78.88364013032717L34.01110591487746,117.85439535700252L34.08942438257458,120.65444986184572L34.32437978566592,96.877562793866L34.48101672106015,115.65806376787197L34.637653656454376,124.07369816593936L34.71597212415149,111.00119435470094L34.872609059545724,116.85681127902382L34.95092752724284,117.86370381811064L35.029245994939956,127.38832066372699L35.10756446263707,93.57978208980391L35.969067607305334,127.00263157526463L36.51729688118514,125.5691876720071L36.830570751973596,65.75401951020818L36.90888921967072,132.43831525678226L36.98720768736783,111.97434991901368L37.300481558156285,118.22992560056849L37.53543696124763,134.97736867278738L37.61375542894475,134.8500437207435L37.92702929973321,121.2136591902929L38.161984702824554,115.46489317963228L38.396940105915895,43.966782637012784L38.71021397670435,88.27909206794526L38.78853244440147,90.52621788155764L38.86685091209859,84.16408872999742L38.94516937979571,121.94736498406024L39.41508018597839,135.69742256538018L39.51950480957455,103.52714073275486L39.98941561575723,112.76312854986563L40.302689486545695,110.23143305098796L40.53764488963704,41.60532405775365L40.772600292728384,135.38821463053705L40.8509187604255,124.75891683025577L41.007555695819725,131.2439416927386L41.24251109891108,89.65752986827196L41.32082956660819,74.55436295802235L41.399148034305306,122.6230158774138L41.55578496969954,122.86834206687257L41.947377308185104,101.53795577035693L42.57392504976203,119.85857453041113L42.88719892055049,84.53892112498382L42.9655173882476,133.142751450699L43.04383585594472,135.94152084640928L43.435428194430294,122.96906487852716L43.51374666212741,111.23460754436383L43.74870206521875,121.9293543892984L44.061975936007215,101.33685335126724L44.14029440370433,113.32792066694954L44.531886742189904,78.00001892011424L44.61020520988702,124.29629660930865L44.84516061297836,126.84310072060353L44.92347908067548,113.90304323103956L45.00179754837259,113.44027428826399L45.08011601606971,105.49686982928893L45.23675295146394,109.53581148544134L45.5500268222524,131.5294590029876L45.78498222534374,70.50371422460572L45.94161916073798,116.80309600529624L46.098256096132204,103.97551416521367L46.17657456382932,114.42130829610372L46.48984843461778,130.9479509337253L46.64648537001201,113.33088366337765L46.88144077310335,125.21215994925086L47.27303311158893,125.20269132617365L47.58630698237739,112.05836249856019L47.6646254500745,125.16927848871795L47.82126238546873,113.68338109043685L47.89958085316585,123.5461284531473L47.97789932086297,101.49423917955664L48.21285472395431,100.82683662761106L48.36949165934853,108.0513007010165L48.682765530137,129.16221171256004L48.83940246553123,136.29533198295303L48.917720933228345,115.32826739324072L48.99603940092546,126.34546032243952L49.07435786862257,92.48820962963273L49.30931327171392,107.29880256954296L49.38763173941103,127.21276407870666L49.622587142502375,117.6670935609158L49.7792240778966,119.16669770423698L50.092497948685065,78.56870831177928L50.2491348840793,107.24209379234553L50.7973641579591,134.03333970656718L50.954001093353334,129.9565826654993L51.11063802874756,131.96934766446503L51.89382270571871,123.46773679603969L51.97214117341583,77.08233659780885L52.12877810881005,109.05024615573242L52.20709657650717,134.07147541542082L52.3637335119014,78.01855957472617L52.44205197959851,91.47105147100349L52.75532585038698,108.69175028159289L52.911962785781206,116.94581175989333L52.99028125347832,111.7029783426772L53.381873591963895,123.31047299591721L53.53851052735812,116.35367389327794L53.616828995055236,115.02114919075615L53.69514746275236,117.34306301717169L53.773465930449476,109.41883986068487L53.851784398146584,133.77655812293847L53.9301028658437,106.81731374328531L54.08673980123793,108.95446929821846L54.24337673663216,116.89845720436662L54.713287542814854,112.60197510192246L54.86992447820908,79.1768966957253L54.948242945906195,110.76235853837042L55.02656141360331,110.00080362888303L55.183198348997536,115.51752545337843L55.418153752088884,83.53492675486144L55.88806455827157,74.55763483824798L56.12301996136292,122.7663875334081L56.279656896757146,123.33053900261567L56.35797536445426,125.5064861677997L56.59293076754561,103.43394934702758L56.671249235242726,104.40626215431247L56.90620463833407,113.99817181391674L56.98452310603118,115.19967639896501L57.0628415737283,108.0864143060487L57.141160041425415,94.08887597544775L57.29779697681964,113.8515740382594L57.376115444516756,59.61935086179311L57.45443391221387,98.33854883573616L57.611070847608104,125.37129611905956L57.68938931530522,108.51075200300382L57.84602625069945,107.19964324377707L58.315937056882134,111.14723919022693L58.39425552457925,110.56368142909832L58.55089245997348,72.82379762851741L58.6292109276706,118.7154642366159L58.78584786306483,115.59524976894816L58.942484798459056,129.2112403420017L59.09912173385329,119.85513104807576L59.177440201550404,108.61544454346364L59.25575866924751,128.83692656672474L59.33407713694463,124.23407749769862L59.72566947543021,103.72338490544892L59.803987943127325,127.63020909092072L60.11726181391578,94.37355624873929L60.1955802816129,73.69048743056972L60.35221721700712,119.16233901064967L60.43053568470424,126.89391973205679L60.50885415240136,70.52833340728252L60.58717262009847,124.05576765216207L60.66549108779559,120.5371426596302L61.605312700160965,101.98488774509397L61.7619496355552,118.43506638930731L61.84026810325231,136.87029438507395L61.91858657094942,123.91568312991426L62.075223506343654,117.36429973159656L62.15354197404077,131.41272762118479L62.231860441737886,105.00312861239615L62.466815844829235,122.57827730071554L62.62345278022346,93.12508225956618L62.93672665101192,125.8228460972386L63.01504511870903,114.56753617388006L63.171682054103265,110.40434696351836L63.641592860285954,123.86829806734585L63.71991132798307,110.24429939583794L63.798229795680186,102.1228825349832L64.03318519877153,110.37030491832697L64.18982213416575,121.32082661451312L64.34645906956,86.47878764104361L64.42477753725711,130.953709137852L64.50309600495422,134.13080970489722L64.58141447265133,82.95357694087812L64.73805140804556,122.89061983409653L64.8946883434398,114.33371495253404L65.12964374653113,96.76960599994099L65.20796221422825,118.80742008715309L65.36459914962249,105.4699321114406L65.44291761731961,107.55310926941124L65.59955455271383,123.76797566061397L65.83450995580517,85.13860567104739L66.01725304709845,115.80398276185079L66.09557151479555,116.39704346647855L66.17388998249267,93.89913361602257L66.40884538558402,136.68838089523297L66.80043772406958,126.8830096512578L66.8787561917667,107.2859438514534L66.95707465946381,86.72758019311905L67.27034853025229,113.30050627657417L67.34866699794941,129.39420823147253L67.42698546564651,103.73818463406859L67.66194086873786,118.38629325634014L67.74025933643497,114.5402895722342L67.8968962718292,120.27195638600466L68.05353320722344,113.22416240464273L68.13185167492054,98.91620729767006L68.21017014261766,128.27057096375214L68.445125545709,126.09533880735869L68.52344401340612,104.928622789729L68.75839941649745,96.67039328685209L68.9933548195888,125.94524988211327L69.22831022268016,116.13303552733986L69.3849471580744,112.64503960470576L69.4632656257715,119.97068409539176L69.54158409346861,125.55490846978697L69.77653949655996,107.1261555936277L69.85485796425708,98.59771378200008L70.16813183504553,105.99966019743512L70.24645030274264,129.19247088457684L70.48140570583399,125.84408281166348L70.55972417353111,122.87335284847686L70.63804264122822,122.87647219349384L70.87299804431956,117.09605131365728L70.95131651201667,95.86970546958446L71.0296349797138,114.40178378939598L71.10795344741092,113.96392003281343L71.18627191510804,91.76060905759176L71.26459038280515,76.90627283321973L71.34290885050227,108.05486239813858L71.42122731819939,95.45517959992601L71.49954578589649,112.02869440047694L71.89113812438207,93.59686984655342L71.96945659207918,126.08552125999168L72.20441199517052,81.16770234471517L72.36104893056475,110.07190791639718L72.5960043336561,96.04795430103755L72.75264126905033,128.10398344900065L72.90927820444456,72.31129458096015L73.30087054293014,118.16595614743915L73.37918901062726,70.16308022339959L73.45750747832437,69.155821599812L73.53582594602148,82.66546843877207L73.61414441371859,110.50807853216365L73.69246288141571,97.43507135473668L74.16237368759839,61.120968469868515L74.39732909068974,97.51925553639293L74.47564755838685,72.25414726503787L74.7106029614782,115.9078821192256L75.1805137676609,102.11479816892452L75.25883223535801,81.21557551995129L75.49378763844936,94.59357303370211L75.57210610614646,55.70598381616526L75.7287430415407,93.53965770316744L75.80706150923781,106.52791250528591L75.88537997693493,129.63444737172267L76.19865384772338,105.37485691588644L76.2769723154205,84.07439802730875L76.43360925081473,87.45756031441502L76.66856465390607,79.78135559381974L76.74688312160319,63.3980750787419L76.90352005699742,100.3159657067864L77.21679392778589,108.42203752565054L77.295112395483,69.78975792697885L77.45174933087723,116.18944304750019L77.68670473396857,78.23404606399195L77.76502320166568,107.27880520368838L77.8433416693628,96.37958491155285L77.99997860475703,111.2673377867608L78.23493400784837,73.00733561833057L78.31325247554548,125.9720903587661L78.46988941093971,98.89256434032865L78.96590637302145,117.81385531192244L79.04422484071857,87.11271634145005L79.43581717920414,86.85034815580438L79.51413564690125,111.6523099597425L79.67077258229548,100.87127776065246L80.06236492078106,110.21186278371763L80.2190018561753,85.93047695325481L80.68891266235798,127.05253156208573L80.92386806544933,107.93726919240684L81.00218653314644,96.7201045113525L81.15882346854067,113.69431023813692L81.31546040393489,110.20436567821227L81.55041580702624,87.49125534200675L81.62873427472336,95.24318998031863L81.78537121011759,108.64041455712032L81.94200814551182,93.91233553833159L82.02032661320894,65.73508989081421L82.17696354860317,105.59276490158962L82.25528201630028,99.30598814310456L82.3336004839974,94.77019355180282L82.56855588708873,97.26140239292343L82.64687435478585,100.73081952714345L82.72519282248297,96.28737737792139L82.80351129018008,44.874504410193055L82.8818297578772,98.7305986423994L83.27342209636276,126.30130137953412L83.50837749945411,119.3536029087812L83.74333290254546,114.5738892653205L83.8999698379397,121.63483940842886L84.13492524103104,106.93008302304337L84.29156217642527,118.47728050830237L84.36988064412239,113.35663160659847L84.4481991118195,117.45327351880456L84.76147298260796,85.90013007349305L84.83979145030507,108.1369187136341L84.9964283856993,113.58228838090128L85.15306532109354,108.22217826851137L85.46633919188199,87.02637378659132L85.5446576595791,108.08228060189417L85.70129459497333,107.28807934437457L85.77961306267045,118.32459657781973L85.93624999806468,103.68023650830087L86.24952386885315,117.28385266255233L86.4844792719445,60.281513829321426L86.79775314273294,110.41263725210872L86.95439007812718,124.02892526881914L87.03270854582429,108.31625435844884L87.11102701352141,98.20797869712817L87.18934548121852,76.08291065718566L87.26766394891563,122.92952775244399L87.42430088430986,89.34061509201157L87.58093781970409,117.65508522661449L87.73757475509832,118.52887554262965L87.81589322279545,109.39197459706065L88.05084862588679,96.61533188990815L88.36412249667525,118.61932510798138L88.52075943206948,78.53322099548588L88.5990778997666,74.52965225422037L88.75571483516082,95.58639419979058L89.1473071736464,91.64087654555864L89.38226257673773,114.43578007402478L89.53889951213196,127.1290222491555L89.69553644752621,100.96563222734574L89.85217338292044,115.78147237843365L90.00881031831466,105.77895319065314L90.16544725370889,126.75875637697818L90.40040265680024,120.5027269031776L90.47872112449735,96.29392495175287L90.71367652758869,108.3610806428921L91.02695039837715,120.61367338719224L91.18358733377138,103.75004424654145L91.81013507534831,120.90324622730137L92.12340894613676,95.13480227442918L92.20172741383388,110.77300168255427L92.43668281692523,112.44277791803029L92.8282751554108,116.14781618905843L93.21986749389637,118.74637168326946L93.29818596159349,56.423334022184676L93.68977830007907,59.09000030044001L93.76809676777619,110.04122164579617L94.08137063856464,115.90107142215919L94.3946445093531,114.70517250602896L94.47296297705022,83.44276498179258L94.62959991244445,127.28739574292095L94.70791838014156,121.86813438330503L94.78623684783867,103.70468027548769L95.02119225093001,102.27449109224483L95.09951071862713,121.12554722701378L95.17782918632425,82.57837083463052L95.25614765402136,98.8195266690448L95.41278458941558,114.46399908762581L95.56942152480983,102.10657270779785L95.72605846020406,81.85903004413818L95.80437692790117,128.41151540323872L96.19596926638674,124.34911955206562L96.35260620178097,111.3835924960366L96.66588007256944,121.59556921896083L96.82251700796365,101.58360193154671L96.90083547566077,133.08049611197688L97.13579087875212,103.27059557869957L97.21410934644923,116.34362563640784L97.29242781414635,88.71221579291885L97.37074628184347,116.32411256984076L97.5273832172377,99.95320266018476L97.60570168493481,89.30127626169966L97.84065708802616,131.0810626902475L97.91897555572328,21.04569054380724L98.07561249111751,118.67818463162082L98.15393095881461,127.04698118718083L98.23224942651173,102.21577266367339L98.38888636190596,96.96061440159801L98.46720482960308,76.99869391614331L98.54552329730019,101.83868656097913L98.70216023269442,111.41920184049692L98.78047870039153,104.99781657375476L98.93711563578576,117.32234873583644L99.01543410348287,122.49681587253376L99.09375257117999,106.19899702148464L99.25038950657422,109.55094679152006L99.48534490966557,104.64000329467396L99.56366337736269,101.87092106394797L99.72030031275692,94.43612237794903L99.87693724815115,88.5848488936926L100.03357418354538,114.00290421876524L100.1118926512425,113.53162381134679L100.50348498972807,104.2689347059611L100.73844039281941,72.23518713860214L100.81675886051652,35.92016904248206L100.89507732821363,89.82504403441601L100.97339579591075,120.05468904817783L101.13003273130498,114.31161260080005L101.83489894057902,99.5279916991601L101.91321740827614,128.6881608844144L102.38312821445882,100.90883192902312L102.46144668215594,128.487750593834L102.53976514985305,128.93447664603931L102.93135748833862,109.86714083891957L103.08799442373285,138.1908965543493L103.16631289142997,95.41045627674862L103.24463135912708,136.84839986256176L103.32294982682421,116.02288603979045L103.47958676221845,133.86773032384122L103.63622369761266,75.78685507070873L103.94949756840113,118.13818711270365L104.10613450379536,124.32718498906112L104.3410899068867,91.29887735423506L104.41940837458381,118.96979381676549L104.81100071306939,132.90039969780898L105.46365461054535,45.994730609309954L105.62029154593958,102.78999908341257L105.6986100136367,97.92104852950897L105.7769284813338,103.45248618825927L105.93356541672803,117.82864741378168L106.09020235212226,121.12443371999062L106.32515775521361,109.20709811079153L106.63843162600207,117.91898639110713L106.7950685613963,136.36121193957078L106.87338702909342,129.56673889929118L106.95170549679054,122.99435902950225L107.03002396448765,125.51822375210563L107.26497936757899,118.65872876575698L107.3432978352761,102.9193184333096L107.42161630297322,96.322445222391L107.65657170606457,122.34761355818864L107.8915271091559,122.89736570369925L107.96984557685302,43.13011176402364L108.20480097994437,96.0135309178245L108.28311944764148,97.57480504600458L108.90966718921841,115.21181438819367L108.98798565691553,110.96968058059299L109.06630412461264,119.28122876565499L109.14462259230976,107.99458811043887L109.30125952770398,124.34855898517381L109.45789646309821,108.26918961981859L109.53621493079532,109.97251597443811L109.61453339849244,119.85697672410049L110.47603654316072,121.37618164173372L110.63267347855493,132.60671794051672L110.71099194625205,105.00736527781652L111.18090275243475,119.19567939388128L111.25922122013185,116.41450112110901L111.4941766232232,121.34370689581124L111.57249509092031,111.57239295054833L111.80745049401166,106.4224000880796L111.88576896170876,130.81740939546893L112.042405897103,131.80397089793223L112.19904283249723,96.38592274947244L112.5123167032857,124.48712959547572L112.66895363867992,113.25050904855752L112.74727210637704,117.36082955559968L112.82559057407416,134.3350829496368L112.90390904177127,106.75144522680822L112.98222750946839,126.5202370712056L113.13886444486262,123.77980095266489L113.21718291255974,130.43957777694237L113.37381984795395,81.71588337757663L113.53045678334819,111.93142269791817L113.6087752510453,87.26063736004245L113.68709371874242,117.10250355298335L113.76541218643953,126.31476070500774L114.07868605722798,97.58690108805087L114.1570045249251,127.26958916400068L114.23532299262222,122.67747857366379L114.31364146031935,91.79772087385733L114.39195992801646,114.07908030196714L114.5485968634107,129.730653234511L115.17514460498761,107.54634433290742L115.41010000807894,119.13166418018932L115.48841847577606,123.90513532023583L115.56673694347317,105.71004159676339L115.7233738788674,96.91109384610841L116.34992162044433,125.09080675062579L116.42824008814145,113.01084954210026L116.7415139589299,125.73123345092088L116.97646936202125,110.73773554231342L117.13310629741548,126.34645942805619L117.2114247651126,110.81587932970696L117.60301710359816,110.38624103425111L117.68133557129528,97.49389655795417L117.91629097438663,130.72997621386835L118.07292790978084,66.40709137930071L118.15124637747797,109.33873980924034L118.38620178056932,107.1777811349967L118.77779411905489,129.03771247525648L118.93443105444912,95.35047180594535L119.24770492523758,121.49307699888587L119.32602339293469,120.68333621698461L119.56097879602603,114.96537087833151L119.71761573142027,101.56433673469368L119.8742526668145,122.33752716751638L120.03088960220872,118.35011190484737L120.10920806990585,120.46601167845454L120.26584500530008,128.195695243204L120.50080040839143,131.27814580658918L120.57911887608854,94.361036921489L120.65743734378566,93.50153152776431L120.73575581148276,133.85006865336916L120.81407427917988,116.89858304591377L120.892392746877,124.29385223258997L120.97071121457411,119.14160947579357L121.04902968227123,123.91931346788023L121.20566661766546,45.474265223860954L121.67557742384814,121.72842738569865L121.75389589154526,123.91283072151242L121.83221435924237,104.75453816947217L121.91053282693949,122.93611346007764L121.9888512946366,124.34220970711357L122.14548823003084,123.87805269393928L122.22380669772795,133.47809629354504L122.38044363312218,107.30707379123221L122.4587621008193,84.48250597806306L122.53708056851642,133.22925035414656L122.85035443930487,130.5448594846456L123.0069913746991,116.12587399929353L123.16362831009333,104.87726418497513L123.79017605167024,117.00062528712321L123.94681298706449,68.62319153147283L124.0251314547616,119.73607731772117L124.33840532555006,118.0350008574293L124.41672379324717,109.06135453230267L124.49504226094429,120.76613995500254L124.65167919633852,125.44398295936352L124.88663459942985,135.82013714074247L125.04327153482409,137.60205535493097L125.1215900025212,126.25125648426479L125.27822693791543,94.18597988927701L125.35654540561255,121.74018785028589L125.51318234100677,97.4681142943114L125.669819276401,129.09546802532327L125.90477467949236,119.6261032456617L126.0614116148866,112.82403204530104L126.1397300825837,97.95519353596622L126.21804855028081,125.18111903428974L126.76627782416062,79.6756792012641L126.92291475955484,114.7432109736871L127.2361886303433,106.80408131393456L127.39282556573754,129.95130685396995L127.54946250113176,121.280320889855L127.62778096882887,122.74236323804507L127.70609943652599,96.05398706853981L128.01937330731445,115.06936938359195L128.09769177501158,119.16122931700673L128.17601024270868,132.96278850483864L128.25432871040582,101.1892259629515L128.56760258119425,121.60679581031779L128.64592104889138,137.79892492198053L128.8025579842856,130.3155876258977L128.88087645198272,124.860955258085L129.11583185507408,105.61301395053844L129.19415032277118,125.41866974148735L129.3507872581654,119.4468476818315L129.50742419355964,110.94846674644941L129.58574266125675,122.82718044081724L129.74237959665098,134.66150066939636L129.97733499974234,126.93437778946219L130.05565346743944,94.47268506746344L130.21229040283367,118.36008008073291L130.2906088705308,94.95314046768246L130.52556427362214,120.07601728372791L130.60388274131924,101.25759605685052L130.76051967671347,135.76358280544383L130.9171566121077,124.61338680105902L130.99547507980483,96.67368804735902L131.778659756776,93.86202942651744L131.8569782244731,93.62150428275106L132.24857056295866,135.9388209732161L132.3268890306558,132.5962635586536L132.50963212194904,111.47196376917042L132.7445875250404,123.30111877424649L132.9012244604346,81.18108730927457L133.05786139582887,87.18168513604304L133.13617986352597,125.83275135235058L133.2144983312231,115.35036211821429L133.2928167989202,131.1293744042085L133.4494537343144,133.40852498487783L133.52777220201153,135.2221953094378L133.8410460728,134.10163734624211L133.9193645404971,111.79963990440137L133.99768300819423,133.49020186904184L134.15431994358846,106.44459777431899L134.3109568789827,116.72277859117938L134.54591228207406,136.85043811428739L134.62423074977116,94.81085562504981L134.8591861528625,116.54493397802923L134.9375046205596,133.28584472993748L135.01582308825672,124.48004814841394L135.09414155595383,114.37872046584746L135.25077849134806,106.93320236806035L135.48573389443942,118.87479107543544L135.79900776522788,119.04696137882365L135.95564470062212,127.65428868029689L136.03396316831925,107.23921087690196L136.19060010371345,126.0601355878914L136.34723703910768,137.30995996380872L136.50387397450191,93.51221280575032L136.81714784529038,121.17459110997632L137.28705865147307,119.17111741190773L137.4436955868673,110.1646874570611L137.52201405456438,115.19270553992952L137.6786509899586,106.4542303727455L137.91360639304997,109.72395603855587L138.0702433284442,135.5097298978213L138.14856179614134,109.19845317784106L138.4618356669298,132.05581034080055L138.69679107002113,122.14249946311133L138.77510953771827,130.67196898070728L139.24502034390093,118.2458045157894L139.40165727929516,139.01627982189808L139.79324961778076,82.04926432961125L140.10652348856922,110.6671765681702L140.26316042396343,104.38431996454757L140.41979735935766,131.79447939457373L140.654752762449,125.41485254789077L140.73307123014612,135.76625217159528L140.96802663323746,111.75863462693489L141.0463451009346,121.91215985790285L141.1246635686317,112.94912998329856L141.28130050402592,112.94970961709144L141.35961897172305,85.85790070097713L141.43793743942015,121.54439746983758L141.51625590711728,120.50657460381592L141.75121131020862,134.77612134524946L141.82952977790572,124.7373330982312L142.06448518099708,132.9930152631236L142.2211221163913,119.82666416476067L142.53439598717978,97.15198126099536L142.691032922574,114.26035695731201L142.92598832566532,124.41078572354428L143.08262526105955,138.83354264193034L143.3175806641509,130.29163578475877L143.395899131848,117.51667096490146L143.55253606724224,116.89334727487672L143.63085453493937,73.05323346261461L144.2574022765163,134.2685623451427L144.4140392119105,107.52331151640063L144.57067614730474,92.4326868136826L144.72731308269897,136.36335887263257L144.8839500180932,86.38089817088978L145.04058695348743,112.21469202052967L145.11890542118456,128.29034143348383L145.2755423565788,124.76681434068384L145.51049775967013,95.67804116653024L145.58881622736726,114.65758533430906L145.66713469506436,129.2971100377136L145.74545316276146,119.07412027272453L146.13704550124706,120.47402359028911L146.21536396894416,126.05293783273304L146.2936824366413,95.45250260701414L146.68527477512686,116.72107019684245L146.763593242824,98.76127728623997L146.9985486459153,125.25358088516091L147.07686711361242,133.31528783858795L147.62509638749225,126.66521416027099L147.78173332288648,128.22696877435834L147.86005179058358,103.6204655867897L148.40828106446338,95.70697709561195L148.64323646755471,137.70489649929573L148.72155493525185,92.97491897340656L148.87819187064608,115.71492508027804L149.1131472737374,101.18379952290361L149.19146574143454,125.27904663824573L149.26978420913164,107.87933250677975L149.42642114452588,136.4589107407138L149.73969501531434,130.72852712938612L150.0529688861028,118.57611188336963L150.20960582149704,123.62609884966449L150.28792428919414,103.60148639345292L150.67951662767973,75.51512885001212L150.75783509537683,129.56837865278425L150.91447203077107,131.6084779611408L151.07110896616527,109.57818195302526L151.1494274338624,122.85841202478919L151.2277459015595,128.2254281687509L151.30606436925663,119.98758499651063L151.38438283695373,115.63568303938217L151.46270130465086,128.42676129734372L151.541019772348,126.5149174058038L151.69765670774223,84.91373063968892L152.0109305785307,137.0639912197835L152.0892490462278,114.03693101043578L152.24588598162202,114.08939930883261L152.55915985241046,115.79653523028824L152.6374783201076,127.72803754699109L153.02907065859316,134.60068488170594L153.57729993247298,136.87703453460637L153.6556184001701,118.43251142456236L153.73393686786721,116.94040438674654L153.89057380326142,140.62289122747038L153.96889227095855,105.43736584439293L154.12552920635278,110.44137869879938L154.20384767404988,105.64778435135118L154.282166141747,135.88112453054265L154.43880307714124,130.8116893251444L154.51712154483835,138.2903819241237L154.59544001253548,140.47553840253022L154.8303954156268,122.48447577415362L155.06535081871817,118.48833549754957L155.3003062218095,126.53858133673637L155.45694315720374,129.94764600896224L155.61358009259797,111.74462426802002L155.7702170279922,111.4118763371013L155.8485354956893,125.07487063470165L155.92685396338643,125.6880316664498L156.16180936647777,115.78818774099466L156.2401278341749,137.78394024442036L156.318446301872,88.33655970780572L156.55340170496333,123.80582727264151L156.63172017266044,120.02843773876845L156.78835710805467,131.91196963903963L156.8666755757518,125.08143727543421L156.9449940434489,121.30701073798926L157.02331251114603,124.35443159070698L157.17994944654026,122.79715388499366L157.2582679142374,102.21518158973986L157.3365863819345,116.09563770755807L157.41490484963163,126.39094441497008L157.49322331732873,124.57344164329268L157.64986025272296,93.03189087383889L157.7281787204201,110.63741313558155L157.8848156558143,113.8420596546196L158.11977105890563,111.59165814740136L158.19808952660276,109.40421936093536L158.51136339739122,111.75709020794727L158.53746955329026,111.5677673203459L158.7724249563816,129.82264531216023L158.8507434240787,115.12118559397177L158.92906189177583,107.01756959196697L159.00738035947293,122.67788279196672L159.16401729486716,124.35524384069308L159.3206542302614,94.455139705088L159.39897269795853,90.53080919133814L159.712246568747,128.82971927811582L159.94720197183833,135.6985951797967L160.02552043953546,131.30329886249623L160.10383890723253,113.93992624449214L160.49543124571812,111.86106964630663L160.57374971341525,115.49203300663208L161.04366051959795,132.3043988770344L161.27861592268928,117.6989200322015L161.3569343903864,111.50869043403414L161.4352528580835,135.19489722715903L161.51357132578062,125.55812886937967L161.74852672887195,124.49003539120058L162.06180059966042,126.33693741765596L162.21843753505465,119.88101627298438L162.37507447044888,125.2859183493956L162.53171140584314,99.59618256418896L162.84498527663158,94.86379296921325L162.92330374432868,120.48192872747761L163.15825914742004,126.87699595065659L163.23657761511714,111.88460201562175L163.31489608281427,105.27422562535703L163.86312535669407,118.48816770882007L164.72462850136233,82.15079176449149L164.88126543675656,126.24672046849743L164.9595839044537,93.30132143964525L165.0379023721508,83.40076441208964L165.11622083984793,132.551730904487L165.35117624293926,108.67263380656831L165.89940551681906,101.19485832553104L165.97772398451616,132.43145117239283L166.21267938760752,121.11795860038325L166.29099785530465,79.91168167609389L166.36931632300175,127.68802756176109L166.44763479069888,122.15402731150539L166.525953258396,131.97226490033054L166.60427172609312,114.86877795745124L166.68259019379022,121.80504963438587L166.76090866148735,99.36503833575482L166.83922712918445,73.2986549865788L166.91754559688155,136.02945548750833L167.1525009999729,109.5604954955818L167.30913793536712,136.63078932051545L167.7007302738527,123.47166839104275L167.77904874154981,117.02223189942909L167.93568567694405,129.23584045777744L168.1706410800354,89.20299020000331L168.2489595477325,73.50781889144588L168.3272780154296,116.99671275902124L168.40559648312674,131.91787084492447L168.56223341852098,111.41782902361903L168.7188703539152,89.2508786287603L168.7971888216123,135.47895019940498L169.11046269240077,123.22946154660096L169.1887811600979,96.78399769687752L169.267099627795,136.82315719221958L169.34541809549214,132.49210489142405L169.58037349858344,106.7420719382364L169.65869196628057,133.3340878030546L169.8153289016748,83.73020995574097L169.8936473693719,76.13374301546968L170.05028430476614,108.00600537080663L170.12860277246327,109.93242972160378L170.2852397078575,122.22723277151874L170.36355817555463,140.14506133953034L170.44187664325173,115.3245074003474L170.52019511094886,139.9156159719826L170.6768320463431,113.25478766116028L170.83346898173733,127.99997350359958L170.91178744943443,97.22255167527922L171.22506132022286,116.98006354099662L171.3816982556171,128.5699689779887L171.53833519101133,122.27049175669308L171.69497212640556,125.8432228944247L172.00824599719402,106.43172761608879L172.16488293258828,106.10609163927359L172.2432014002854,130.81520716839398L172.3998383356796,109.56596388281207L172.55647527107382,119.49183031486362L172.63479373877095,123.06246981354656L172.8697491418623,85.18046133230209L173.02638607725652,138.3719882607537L173.10470454495365,129.46241053664204L173.18302301265075,107.66866994348766L173.4179784157421,127.4464041644924L173.88788922192478,136.5703415240159L174.20116309271324,93.26008354598558L174.5144369635017,113.7830933563341L174.67107389889594,122.96256306525828L174.74939236659307,130.8631699580652L174.82771083429017,122.8139480114665L174.9060293019873,134.0537698910763L174.98434776968438,128.3265742656095L175.45425857586707,135.87865727354267L175.6108955112613,96.43402854090176L176.0024878497469,120.02989826339132L176.08080631744403,113.01789285535986L176.15912478514113,109.29863448950492L176.39408018823246,126.5200940694475L176.47239865592957,131.85892361354001L176.86399099441516,130.40754538312498L176.94230946211226,127.68495207061659L177.17726486520363,115.95178175227628L177.25558333290073,122.32173977342069L177.438326424194,121.43936935191873L177.59496335958823,115.40542732853845L177.67328182728534,129.8191141220799L177.82991876267957,115.83436014865427L178.06487416577093,109.12341348194363L178.14319263346803,141.50272193774825L178.22151110116516,139.33432907877284L178.29982956886226,120.34994763818955L178.53478497195363,126.74849266412585L178.6131034396507,124.00659411427216L178.69142190734783,117.06427441631439L179.0046957781363,132.77026047116541L179.0830142458334,137.94645506910075L179.31796964892476,106.61244751792208L179.3962881166219,96.16700803139214L179.474606584319,105.67538559735716L179.63124351971322,133.40053786001468L179.78788045510746,134.41678652746234L179.86619892280459,138.23798417326088L180.17947279359302,99.64278969719325L180.33610972898725,81.79165524247561L180.5710651320786,100.67048041198007L180.64938359977572,119.00286345000171L180.96265747056418,141.93022474028294L181.04097593826128,134.26149424491172L181.19761287365554,108.79410903336029L181.58920521214108,123.52689757671621L181.6675236798382,132.42451272708917L181.7458421475353,112.66575769942122L181.82416061523244,128.65015101710787L181.90247908292955,133.7468576111234L181.98079755062668,100.41824056418905L182.1374344860209,135.99596447575817L182.215752953718,133.08547257315922L182.29407142141514,133.71569085461513L182.37238988911224,126.08898952929846L182.45070835680937,126.45084117802838L182.92061916299204,135.18437229776188L183.2338930337805,134.27664671120138L183.31221150147763,120.50254386092723L183.39052996917474,77.24821101045985L183.54716690456897,114.40034995843462L183.86044077535743,124.24676461367844L184.17371464614587,136.260838052206L184.40867004923723,125.68575507846064L184.56530698463146,121.35918159272921L185.03521779081416,128.9096820478726L185.27017319390552,118.8532645441141L185.42681012929972,113.36627183178541L185.7400840000882,134.20237922479777L185.89672093548242,124.05610704300132L186.20999480627088,110.66361868442834L186.288313273968,116.30172421459054L186.36663174166512,77.37999380397666L186.67990561245358,125.04460764930465L187.07149795093915,115.94826962909701L187.22813488633338,131.7275717319877L187.3847718217276,117.55451495016857L187.4630902894247,111.5237723527898L187.61972722481894,131.56186320137607L187.69804569251608,133.14423866898335L188.0896380310016,137.82397310993164L188.16795649869874,111.25486040669288L188.24627496639584,99.14068192410579L188.79450424027567,136.700402576365L189.18609657876127,126.82172481780074L189.4993704495497,130.00765336004682L189.73432585264104,106.95051892762281L189.9692812557324,117.19666353728559L190.0475997234295,136.9942292421055L190.67414746500643,116.65904556762342L190.83078440040066,125.40758805857863L191.065739803492,108.04222104272137L191.14405827118912,125.4537947866602L191.30069520658336,132.57061285662826L191.69228754506892,121.70025031928L192.08387988355452,68.42078493634915L192.47547222204005,123.62587767361194L192.55379068973718,123.66835110246168L192.6321091574343,115.60050460688632L192.78874609282855,132.5886901855439L193.02370149591988,124.51182504575684L193.1803384313141,102.50604335236211L193.25865689901124,68.30292860738248L193.41529383440547,105.22329030580718L193.57193076979968,128.11148436788622L193.65024923749678,131.9956409210568L193.7285677051939,128.05932876666714L193.88520464058814,102.67867888813673L194.04184157598237,90.27458817460123L194.12016004367948,129.54343914616928L194.1984785113766,130.52684698319365L194.2767969790737,110.7498773449223L194.74670778525643,132.49990706734673L195.05998165604487,129.18397276676467L195.2949370591362,129.81840483335964L195.45157399453043,119.82735819996006L195.52989246222756,123.41031873012204L195.92148480071313,111.52156059226432L196.07812173610736,108.22001989530892L196.46971407459293,110.11013323968594L196.62635100998716,88.95034613390936L196.86130641307852,105.05566173825665L196.93962488077563,135.92940955084214L197.09626181616986,98.14548120876232L197.174580283867,104.00466364358748L197.40953568695832,127.1588657627287L197.64449109004966,124.7286347779577L197.879446493141,116.9935323999208L198.11440189623235,110.46119683578378L198.27103883162658,117.65715589207198L198.34935729932369,119.5951881722477L198.42767576702082,120.4705724811933L198.50599423471792,133.55732880099035L198.58431270241505,139.12500691862678L199.05422350859772,121.55370211756548L199.21086044399195,123.35419721347793L199.28917891168908,118.72050171188171L199.36749737938618,130.63187128773228L199.4458158470833,131.92372057017633L199.83740818556888,119.76319807781988L199.915726653266,130.3207871698227L199.9940451209631,120.73180046615427L200.15068205635734,90.1060749028405L200.30731899175154,112.38813217952992L200.38563745944867,120.58014614833004L200.46395592714578,127.5766959263446L200.5422743948429,130.97845606876604L200.62059286254004,133.48800726872733L200.69891133023714,131.39339759686806L200.9338667333285,131.78049000925006L201.09050366872273,124.27058298650978L201.16882213641983,110.31435119041238L201.24714060411696,94.19164657227851L201.71705141029963,118.62419860789788L201.79536987799673,114.64131364092589L201.95200681339097,122.74660371684566L202.0303252810881,118.23639690679565L202.1086437487852,117.79761412558098L202.18696221648233,123.03134119084045L202.26528068417943,110.1683254217875L202.34359915187656,111.29034009622586L202.57855455496792,107.90336824228343L202.9701468934535,139.13118459457726L203.0484653611506,96.04800006160013L203.36173923193905,128.5123983768624L203.5183761673333,135.81353427289787L203.8577561940208,97.55484962733239L204.09271159711213,139.47695331224472L204.32766700020346,104.19905070011617L204.4059854679006,132.75406504538657L204.4843039355977,121.64405253503158L204.56262240329482,132.02281316178843L204.71925933868906,104.46768045607709L204.79757780638616,109.21143011071732" style="fill: none;" fill="none"></path></g></g></g></g></g></g><g transform="translate(64, 177)" clip-path="url(#clip_1)"><clipPath id="clip_1"><rect width="266" height="23"></rect></clipPath><g><g><line x1="1.430623352877634" y1="0" x2="1.430623352877634" y2="5" style="visibility: inherit;" fill="rgb(0, 0, 0)" stroke="rgb(204, 204, 204)" stroke-width="1px"></line><line x1="27.536779251915956" y1="0" x2="27.536779251915956" y2="5" style="visibility: inherit;" fill="rgb(0, 0, 0)" stroke="rgb(204, 204, 204)" stroke-width="1px"></line><line x1="53.64293515095428" y1="0" x2="53.64293515095428" y2="5" style="visibility: inherit;" fill="rgb(0, 0, 0)" stroke="rgb(204, 204, 204)" stroke-width="1px"></line><line x1="79.7490910499926" y1="0" x2="79.7490910499926" y2="5" style="visibility: inherit;" fill="rgb(0, 0, 0)" stroke="rgb(204, 204, 204)" stroke-width="1px"></line><line x1="105.85524694903091" y1="0" x2="105.85524694903091" y2="5" style="visibility: inherit;" fill="rgb(0, 0, 0)" stroke="rgb(204, 204, 204)" stroke-width="1px"></line><line x1="131.96140284806924" y1="0" x2="131.96140284806924" y2="5" style="visibility: inherit;" fill="rgb(0, 0, 0)" stroke="rgb(204, 204, 204)" stroke-width="1px"></line><line x1="158.06755874710757" y1="0" x2="158.06755874710757" y2="5" style="visibility: inherit;" fill="rgb(0, 0, 0)" stroke="rgb(204, 204, 204)" stroke-width="1px"></line><line x1="184.17371464614587" y1="0" x2="184.17371464614587" y2="5" style="visibility: inherit;" fill="rgb(0, 0, 0)" stroke="rgb(204, 204, 204)" stroke-width="1px"></line><line x1="210.27987054518422" y1="0" x2="210.27987054518422" y2="5" style="visibility: inherit;" fill="rgb(0, 0, 0)" stroke="rgb(204, 204, 204)" stroke-width="1px"></line><line x1="236.38602644422252" y1="0" x2="236.38602644422252" y2="5" style="visibility: inherit;" fill="rgb(0, 0, 0)" stroke="rgb(204, 204, 204)" stroke-width="1px"></line><line x1="262.4921823432608" y1="0" x2="262.4921823432608" y2="5" style="visibility: inherit;" fill="rgb(0, 0, 0)" stroke="rgb(204, 204, 204)" stroke-width="1px"></line></g><g transform="translate(0, 8)"><text x="1.430623352877634" y="0" dx="0em" dy="0.95em" style="text-anchor: middle; visibility: hidden; font-family: &quot;Helvetica Neue&quot;, sans-serif; font-size: 12px; font-weight: 200;" fill="rgb(50, 49, 63)" stroke="none" stroke-width="1px">200k</text><text x="27.536779251915956" y="0" dx="0em" dy="0.95em" style="text-anchor: middle; visibility: inherit; font-family: &quot;Helvetica Neue&quot;, sans-serif; font-size: 12px; font-weight: 200;" fill="rgb(50, 49, 63)" stroke="none" stroke-width="1px">300k</text><text x="53.64293515095428" y="0" dx="0em" dy="0.95em" style="text-anchor: middle; visibility: hidden; font-family: &quot;Helvetica Neue&quot;, sans-serif; font-size: 12px; font-weight: 200;" fill="rgb(50, 49, 63)" stroke="none" stroke-width="1px">400k</text><text x="79.7490910499926" y="0" dx="0em" dy="0.95em" style="text-anchor: middle; visibility: inherit; font-family: &quot;Helvetica Neue&quot;, sans-serif; font-size: 12px; font-weight: 200;" fill="rgb(50, 49, 63)" stroke="none" stroke-width="1px">500k</text><text x="105.85524694903091" y="0" dx="0em" dy="0.95em" style="text-anchor: middle; visibility: hidden; font-family: &quot;Helvetica Neue&quot;, sans-serif; font-size: 12px; font-weight: 200;" fill="rgb(50, 49, 63)" stroke="none" stroke-width="1px">600k</text><text x="131.96140284806924" y="0" dx="0em" dy="0.95em" style="text-anchor: middle; visibility: inherit; font-family: &quot;Helvetica Neue&quot;, sans-serif; font-size: 12px; font-weight: 200;" fill="rgb(50, 49, 63)" stroke="none" stroke-width="1px">700k</text><text x="158.06755874710757" y="0" dx="0em" dy="0.95em" style="text-anchor: middle; visibility: hidden; font-family: &quot;Helvetica Neue&quot;, sans-serif; font-size: 12px; font-weight: 200;" fill="rgb(50, 49, 63)" stroke="none" stroke-width="1px">800k</text><text x="184.17371464614587" y="0" dx="0em" dy="0.95em" style="text-anchor: middle; visibility: inherit; font-family: &quot;Helvetica Neue&quot;, sans-serif; font-size: 12px; font-weight: 200;" fill="rgb(50, 49, 63)" stroke="none" stroke-width="1px">900k</text><text x="210.27987054518422" y="0" dx="0em" dy="0.95em" style="text-anchor: middle; visibility: hidden; font-family: &quot;Helvetica Neue&quot;, sans-serif; font-size: 12px; font-weight: 200;" fill="rgb(50, 49, 63)" stroke="none" stroke-width="1px">1M</text><text x="236.38602644422252" y="0" dx="0em" dy="0.95em" style="text-anchor: middle; visibility: inherit; font-family: &quot;Helvetica Neue&quot;, sans-serif; font-size: 12px; font-weight: 200;" fill="rgb(50, 49, 63)" stroke="none" stroke-width="1px">1.1M</text><text x="262.4921823432608" y="0" dx="0em" dy="0.95em" style="text-anchor: middle; visibility: hidden; font-family: &quot;Helvetica Neue&quot;, sans-serif; font-size: 12px; font-weight: 200;" fill="rgb(50, 49, 63)" stroke="none" stroke-width="1px">1.2M</text></g><line x1="0" y1="0" x2="266" y2="0" fill="rgb(0, 0, 0)" stroke="rgb(204, 204, 204)" stroke-width="1px"></line></g></g></g></g></svg>