<svg viewBox="0 0 330 200" xmlns="http://www.w3.org/2000/svg"><g><g><g><g><g><line x1="37" y1="170.57804354297912" x2="32" y2="170.57804354297912" style="visibility: inherit;" fill="rgb(0, 0, 0)" stroke="rgb(204, 204, 204)" stroke-width="1px"></line><line x1="37" y1="156.25075269191356" x2="32" y2="156.25075269191356" style="visibility: inherit;" fill="rgb(0, 0, 0)" stroke="rgb(204, 204, 204)" stroke-width="1px"></line><line x1="37" y1="141.923461840848" x2="32" y2="141.923461840848" style="visibility: inherit;" fill="rgb(0, 0, 0)" stroke="rgb(204, 204, 204)" stroke-width="1px"></line><line x1="37" y1="127.59617098978246" x2="32" y2="127.59617098978246" style="visibility: inherit;" fill="rgb(0, 0, 0)" stroke="rgb(204, 204, 204)" stroke-width="1px"></line><line x1="37" y1="113.26888013871692" x2="32" y2="113.26888013871692" style="visibility: inherit;" fill="rgb(0, 0, 0)" stroke="rgb(204, 204, 204)" stroke-width="1px"></line><line x1="37" y1="98.94158928765138" x2="32" y2="98.94158928765138" style="visibility: inherit;" fill="rgb(0, 0, 0)" stroke="rgb(204, 204, 204)" stroke-width="1px"></line><line x1="37" y1="84.61429843658583" x2="32" y2="84.61429843658583" style="visibility: inherit;" fill="rgb(0, 0, 0)" stroke="rgb(204, 204, 204)" stroke-width="1px"></line><line x1="37" y1="70.28700758552027" x2="32" y2="70.28700758552027" style="visibility: inherit;" fill="rgb(0, 0, 0)" stroke="rgb(204, 204, 204)" stroke-width="1px"></line><line x1="37" y1="55.95971673445473" x2="32" y2="55.95971673445473" style="visibility: inherit;" fill="rgb(0, 0, 0)" stroke="rgb(204, 204, 204)" stroke-width="1px"></line><line x1="37" y1="41.632425883389175" x2="32" y2="41.632425883389175" style="visibility: inherit;" fill="rgb(0, 0, 0)" stroke="rgb(204, 204, 204)" stroke-width="1px"></line><line x1="37" y1="27.305135032323648" x2="32" y2="27.305135032323648" style="visibility: inherit;" fill="rgb(0, 0, 0)" stroke="rgb(204, 204, 204)" stroke-width="1px"></line><line x1="37" y1="12.977844181258092" x2="32" y2="12.977844181258092" style="visibility: inherit;" fill="rgb(0, 0, 0)" stroke="rgb(204, 204, 204)" stroke-width="1px"></line></g><g transform="translate(27, 0)"><text x="0" y="170.57804354297912" dx="0em" dy="0.3em" style="text-anchor: end; visibility: inherit; font-family: &quot;Helvetica Neue&quot;, sans-serif; font-size: 12px; font-weight: 200;" fill="rgb(50, 49, 63)" stroke="none" stroke-width="1px">20</text><text x="0" y="156.25075269191356" dx="0em" dy="0.3em" style="text-anchor: end; visibility: hidden; font-family: &quot;Helvetica Neue&quot;, sans-serif; font-size: 12px; font-weight: 200;" fill="rgb(50, 49, 63)" stroke="none" stroke-width="1px">40</text><text x="0" y="141.923461840848" dx="0em" dy="0.3em" style="text-anchor: end; visibility: inherit; font-family: &quot;Helvetica Neue&quot;, sans-serif; font-size: 12px; font-weight: 200;" fill="rgb(50, 49, 63)" stroke="none" stroke-width="1px">60</text><text x="0" y="127.59617098978246" dx="0em" dy="0.3em" style="text-anchor: end; visibility: hidden; font-family: &quot;Helvetica Neue&quot;, sans-serif; font-size: 12px; font-weight: 200;" fill="rgb(50, 49, 63)" stroke="none" stroke-width="1px">80</text><text x="0" y="113.26888013871692" dx="0em" dy="0.3em" style="text-anchor: end; visibility: inherit; font-family: &quot;Helvetica Neue&quot;, sans-serif; font-size: 12px; font-weight: 200;" fill="rgb(50, 49, 63)" stroke="none" stroke-width="1px">100</text><text x="0" y="98.94158928765138" dx="0em" dy="0.3em" style="text-anchor: end; visibility: hidden; font-family: &quot;Helvetica Neue&quot;, sans-serif; font-size: 12px; font-weight: 200;" fill="rgb(50, 49, 63)" stroke="none" stroke-width="1px">120</text><text x="0" y="84.61429843658583" dx="0em" dy="0.3em" style="text-anchor: end; visibility: inherit; font-family: &quot;Helvetica Neue&quot;, sans-serif; font-size: 12px; font-weight: 200;" fill="rgb(50, 49, 63)" stroke="none" stroke-width="1px">140</text><text x="0" y="70.28700758552027" dx="0em" dy="0.3em" style="text-anchor: end; visibility: hidden; font-family: &quot;Helvetica Neue&quot;, sans-serif; font-size: 12px; font-weight: 200;" fill="rgb(50, 49, 63)" stroke="none" stroke-width="1px">160</text><text x="0" y="55.95971673445473" dx="0em" dy="0.3em" style="text-anchor: end; visibility: inherit; font-family: &quot;Helvetica Neue&quot;, sans-serif; font-size: 12px; font-weight: 200;" fill="rgb(50, 49, 63)" stroke="none" stroke-width="1px">180</text><text x="0" y="41.632425883389175" dx="0em" dy="0.3em" style="text-anchor: end; visibility: hidden; font-family: &quot;Helvetica Neue&quot;, sans-serif; font-size: 12px; font-weight: 200;" fill="rgb(50, 49, 63)" stroke="none" stroke-width="1px">200</text><text x="0" y="27.305135032323648" dx="0em" dy="0.3em" style="text-anchor: end; visibility: inherit; font-family: &quot;Helvetica Neue&quot;, sans-serif; font-size: 12px; font-weight: 200;" fill="rgb(50, 49, 63)" stroke="none" stroke-width="1px">220</text><text x="0" y="12.977844181258092" dx="0em" dy="0.3em" style="text-anchor: end; visibility: hidden; font-family: &quot;Helvetica Neue&quot;, sans-serif; font-size: 12px; font-weight: 200;" fill="rgb(50, 49, 63)" stroke="none" stroke-width="1px">240</text></g><line x1="37" y1="0" x2="37" y2="177" fill="rgb(0, 0, 0)" stroke="rgb(204, 204, 204)" stroke-width="1px"></line></g></g><g transform="translate(37, 0)" clip-path="url(#clip_0)"><clipPath id="clip_0"><rect width="293" height="177"></rect></clipPath><g><g><g><line x1="1.9006912451262026" y1="0" x2="1.9006912451262026" y2="177" fill="rgb(0, 0, 0)" stroke="rgb(60, 60, 60)" stroke-width="1px" opacity="0.25"></line><line x1="26.44300113649272" y1="0" x2="26.44300113649272" y2="177" fill="rgb(0, 0, 0)" stroke="rgb(60, 60, 60)" stroke-width="1px" opacity="0.25"></line><line x1="50.98531102785924" y1="0" x2="50.98531102785924" y2="177" fill="rgb(0, 0, 0)" stroke="rgb(60, 60, 60)" stroke-width="1px" opacity="0.25"></line><line x1="75.52762091922577" y1="0" x2="75.52762091922577" y2="177" fill="rgb(0, 0, 0)" stroke="rgb(60, 60, 60)" stroke-width="1px" opacity="0.25"></line><line x1="100.06993081059228" y1="0" x2="100.06993081059228" y2="177" fill="rgb(0, 0, 0)" stroke="rgb(60, 60, 60)" stroke-width="1px" opacity="0.25"></line><line x1="124.6122407019588" y1="0" x2="124.6122407019588" y2="177" fill="rgb(0, 0, 0)" stroke="rgb(60, 60, 60)" stroke-width="1px" opacity="0.25"></line><line x1="149.15455059332533" y1="0" x2="149.15455059332533" y2="177" fill="rgb(0, 0, 0)" stroke="rgb(60, 60, 60)" stroke-width="1px" opacity="0.25"></line><line x1="173.69686048469183" y1="0" x2="173.69686048469183" y2="177" fill="rgb(0, 0, 0)" stroke="rgb(60, 60, 60)" stroke-width="1px" opacity="0.25"></line><line x1="198.23917037605835" y1="0" x2="198.23917037605835" y2="177" fill="rgb(0, 0, 0)" stroke="rgb(60, 60, 60)" stroke-width="1px" opacity="0.25"></line><line x1="222.78148026742488" y1="0" x2="222.78148026742488" y2="177" fill="rgb(0, 0, 0)" stroke="rgb(60, 60, 60)" stroke-width="1px" opacity="0.25"></line><line x1="247.3237901587914" y1="0" x2="247.3237901587914" y2="177" fill="rgb(0, 0, 0)" stroke="rgb(60, 60, 60)" stroke-width="1px" opacity="0.25"></line><line x1="271.8661000501579" y1="0" x2="271.8661000501579" y2="177" fill="rgb(0, 0, 0)" stroke="rgb(60, 60, 60)" stroke-width="1px" opacity="0.25"></line></g><g><line x1="0" y1="170.57804354297912" x2="293" y2="170.57804354297912" fill="rgb(0, 0, 0)" stroke="rgb(60, 60, 60)" stroke-width="1px" opacity="0.25"></line><line x1="0" y1="156.25075269191356" x2="293" y2="156.25075269191356" fill="rgb(0, 0, 0)" stroke="rgb(60, 60, 60)" stroke-width="1px" opacity="0.25"></line><line x1="0" y1="141.923461840848" x2="293" y2="141.923461840848" fill="rgb(0, 0, 0)" stroke="rgb(60, 60, 60)" stroke-width="1px" opacity="0.25"></line><line x1="0" y1="127.59617098978246" x2="293" y2="127.59617098978246" fill="rgb(0, 0, 0)" stroke="rgb(60, 60, 60)" stroke-width="1px" opacity="0.25"></line><line x1="0" y1="113.26888013871692" x2="293" y2="113.26888013871692" fill="rgb(0, 0, 0)" stroke="rgb(60, 60, 60)" stroke-width="1px" opacity="0.25"></line><line x1="0" y1="98.94158928765138" x2="293" y2="98.94158928765138" fill="rgb(0, 0, 0)" stroke="rgb(60, 60, 60)" stroke-width="1px" opacity="0.25"></line><line x1="0" y1="84.61429843658583" x2="293" y2="84.61429843658583" fill="rgb(0, 0, 0)" stroke="rgb(60, 60, 60)" stroke-width="1px" opacity="0.25"></line><line x1="0" y1="70.28700758552027" x2="293" y2="70.28700758552027" fill="rgb(0, 0, 0)" stroke="rgb(60, 60, 60)" stroke-width="1px" opacity="0.25"></line><line x1="0" y1="55.95971673445473" x2="293" y2="55.95971673445473" fill="rgb(0, 0, 0)" stroke="rgb(60, 60, 60)" stroke-width="1px" opacity="0.25"></line><line x1="0" y1="41.632425883389175" x2="293" y2="41.632425883389175" fill="rgb(0, 0, 0)" stroke="rgb(60, 60, 60)" stroke-width="1px" opacity="0.25"></line><line x1="0" y1="27.305135032323648" x2="293" y2="27.305135032323648" fill="rgb(0, 0, 0)" stroke="rgb(60, 60, 60)" stroke-width="1px" opacity="0.25"></line><line x1="0" y1="12.977844181258092" x2="293" y2="12.977844181258092" fill="rgb(0, 0, 0)" stroke="rgb(60, 60, 60)" stroke-width="1px" opacity="0.25"></line></g></g></g><g><g><line x1="0" y1="184.90533439404464" x2="293" y2="184.90533439404464" fill="rgb(0, 0, 0)" stroke="rgb(153, 153, 153)" stroke-width="1.5px"></line></g></g><g><g><line x1="26.44300113649272" y1="0" x2="26.44300113649272" y2="177" fill="rgb(0, 0, 0)" stroke="rgb(153, 153, 153)" stroke-width="1.5px"></line></g></g><g><g><g><g><g><path stroke="rgb(255, 112, 67)" stroke-width="2px" d="M26.516873489265734,154.25635526324893L26.56595810904847,150.53233729205948L26.63958503872257,150.44807191919674L26.860465827744864,146.6079919450882L26.95716252871685,74.38418249012594L27.030789458390952,103.47198602368654L27.10441638806505,163.8590110515858L27.153501007847783,95.94133859736857L27.374381796870082,29.04402162275744L27.435982994697408,94.5600951455153L27.50960992437151,132.91957411033187L27.80411764306791,122.38290089654596L28.172252291438408,121.45422379973863L28.319506150786605,125.09579125725918L28.393133080460707,104.40561148168513L28.540386939808904,123.59526587735292L28.614013869483006,73.94794191477486L28.761267728831204,98.68174078316498L29.5711639552463,109.72797543965635L30.381060181661393,106.95828393385668L30.454687111335492,96.41980114437848L30.528314041009594,141.01933253543223L30.82282175970599,18.881288532048643L31.04370254872829,112.22252541861093L31.11732947840239,144.65687098231876L31.632717986121087,94.80932475852111L32.148106493839784,114.37799492056689L32.22173342351388,106.55446771159288L32.29536035318799,117.64927644034938L32.81074886090668,104.54209525663505L33.694272016995875,134.05515313777235L33.91515280601818,84.40226703199797L34.13603359504047,118.04398702764647L34.35691438406277,132.46786720522087L34.72504903243327,101.211032698022L35.240437540151966,129.70808410045788L36.12396069624116,96.73694521588604L36.19758762591526,99.0172043093331L36.63934920395986,99.7602808408011L36.93385692265626,114.72119214786989L37.22836464135265,115.5898317512549L37.74375314907135,38.126893970984156L37.96463393809365,68.08203141824586L38.111887797441845,109.10965692028049L38.33276858646414,98.99430253803676L38.62727630516054,68.60891399182078L38.848157094182845,125.15499354282309L39.14266481287925,-0.758637090710323L39.21629174255334,101.77817539780652L39.608968700815204,85.00701515365519L39.82984948983751,128.97850375871144L40.19798413820801,49.536283987996626L40.4924918569044,65.7764637821586L40.5661187865785,82.61413106862355L40.7869995756008,112.73040869485365L40.860626505274894,103.90711590838768L41.0815072942972,13.886388473468116L41.228761153645394,86.44743240488619L41.67052273168999,105.69241570608727L41.74414966136409,115.94138456393154L41.817776591038196,115.7946383224586L41.89140352071229,111.60908087012061L42.18591123940869,111.8629668908782L42.40679202843099,124.94279539512603L42.55404588777919,103.80509065506006L43.511195973542485,128.0510183215569L43.805703692238886,76.40812013435085L44.54197298897988,117.91934662301591L44.61559991865397,118.58759223345658L44.762853778002174,118.75770600158236L44.83648070767627,129.5242224687065L44.98373456702447,106.80611749455535L45.057361496698576,96.34666854765804L45.49912307474317,115.98402721836605L45.57275000441727,102.43294259846094L45.94088465278777,134.76301313299177L46.23539237148417,116.1140031321732L46.382646230832364,116.99571198488971L46.45627316050646,136.62013041376844L46.60352701985466,129.7316886912713L47.33979631659565,117.88137172743265L47.41342324626976,145.4525316130331L47.48705017594386,130.5056938740056L48.296946402358955,109.07835605588045L48.51782719138125,66.44333092611487L48.665081050729455,124.59515753034226L48.73870798040355,122.36171410179259L49.03321569909995,156.50941000636806L49.25409648812225,146.01251749357388L49.32772341779634,141.50835498547093L49.40135034747045,138.7761996101826L49.474977277144546,122.38195477678178L49.69585806616684,94.03673168493621L49.76948499584095,77.69449690261312L49.916738855189145,131.8111505675146L49.99036578486324,119.38094753009658L50.13761964421144,141.25491686825112L50.57938122225604,112.69593321658256L50.65300815193014,116.84784955298102L50.80026201127834,91.49452588843646L50.87388894095244,116.08535603905966L51.02114280030064,119.00830470118561L51.16839665964884,100.51368970439955L51.31565051899703,135.69348669401822L51.38927744867114,106.95637805600143L51.46290437834523,119.56970217702508L51.536531308019335,123.70533646769955L51.68378516736754,135.00445498760578L51.97829288606393,137.02529141155728L52.272800604760334,106.76281668129849L52.346427534434426,131.02389702222027L52.49368139378263,132.0599096794528L52.56730832345672,126.19559756464429L52.64093525313083,92.86638395622458L52.714562182804926,97.72797293667668L53.59808533889412,129.88437287428303L53.966219987264616,120.08109903000738L54.11347384661282,108.14782030775864L54.18710077628691,129.1337937793849L54.48160849498331,135.2114230661724L54.62886235433152,134.3305999074903L54.92337007302792,127.14842947813628L55.144250862050214,141.3676380824825L55.586012440094805,104.41709088928532L55.73326629944301,107.31571603219234L55.954147088465305,124.44527486333325L56.10140094781351,100.91561582119206L56.24865480716171,112.54033419472768L56.322281736835805,138.49923373918892L56.616789455532206,105.15390300168986L56.764043314880404,123.97280335676209L56.9849241039027,131.83354815820567L57.0585510335768,149.39493981253656L57.205804892924995,123.80694794177481L57.4266856819473,131.81929708241762L57.6475664709696,106.9675284232233L57.942074189665995,120.68151385274595L58.67834348640699,118.808473866069L58.75197041608109,123.35789428514599L59.12010506445159,136.29075295515835L59.193731994125685,120.49508707740279L59.488239712822086,96.40732475635016L59.78274743151849,138.35926804038726L59.930001290866684,112.95622589680634L60.15088207988899,129.16462133119634L60.22450900956308,111.83999955200677L60.44538979858538,120.87121823694957L60.66627058760768,111.08208035862687L61.108032165652276,143.8756686937235L61.181659095326374,133.40787651391352L61.40253988434868,123.77376479728224L61.62342067337097,133.56875947955245L61.844301462393275,105.47491247766527L62.06518225141557,125.7166184286945L62.21243611076377,139.31050614863102L62.433316899786064,139.39379108719726L62.50694382946017,142.9340406108709L62.654197688808374,149.9542983682697L62.87507847783067,133.14127841518226L62.94870540750477,126.86882705091038L63.02233233717887,128.15264260080815L63.39046698554937,95.16553420506276L63.464093915223465,126.67720156934487L63.68497470424576,123.83376953174167L63.83222856359396,129.4668854010788L64.05310935261626,125.5461136735887L64.20036321196446,115.91763400484427L64.34761707131265,122.4721303977361L64.71575171968315,135.6808940990656L64.78937864935725,122.50934512896286L64.93663250870546,98.1566959608662L65.01025943837956,149.26502403589683L65.52564794609825,126.46655806726648L65.74652873512055,106.18531678544831L65.82015566479465,134.06402868106608L66.04103645381694,119.42896204256668L66.40917110218744,109.03334595518376L66.55642496153564,100.83867661864876L66.77730575055794,121.34153889073781L66.85093268023205,128.0891399171797L66.99818653958025,140.04418229505714L67.51357504729894,147.4991786843885L67.88170969566944,151.00918918950336L67.95533662534353,67.21129339879928L68.32347127371403,106.15364629710845L68.69160592208453,127.6338872580006L69.05974057045503,119.2630043802758L69.57512907817373,112.03106702347121L69.64875600784782,119.6369816591905L70.16414451556652,148.96889563497388L70.53227916393702,108.46002243706175L70.75315995295932,140.76758098998275L71.26854846067802,130.88793807406108L71.71031003872261,97.5991923872746L71.78393696839672,123.4568162720105L72.1520716167672,144.05276377488423L72.5202062651377,116.89396987012555L72.59383319481181,132.86255678285525L72.74108705416,134.26637870646687L72.8883409135082,153.2372622604229L73.1092217025305,149.57669152555079L73.18284863220461,124.37290034643848L73.2564755618787,143.77798596638593L73.40372942122691,139.42311841548872L73.6246102102492,141.74874161783583L74.36087950699019,135.5152532545684L74.5817602960125,137.55731415038235L74.72901415536069,113.81199972223722L75.09714880373119,120.7218466077262L75.1707757334053,125.9419801265762L75.53891038177579,114.95760045757756L75.68616424112399,107.50282572568297L76.20155274884269,133.7766125134284L76.42243353786499,114.9086988180254L76.93782204558367,133.67837489310554L77.15870283460598,121.48438403426277L77.45321055330238,99.69174690482357L77.60046441265057,139.1649412766491L77.67409134232469,119.95877393669723L77.74771827199878,131.332710858716L78.04222599069519,145.88475977865951L78.41036063906569,110.21212036775266L78.63124142808798,145.71583576315115L78.85212221711028,134.64048625756777L78.99937607645846,127.61970309484555L79.14662993580667,132.68953085602706L79.22025686548078,145.0984883568787L79.66201844352537,127.87792513469157L79.88289923254767,91.6087932541496L80.03015309189587,124.66858172448761L80.17740695124405,136.77423701473288L80.32466081059226,118.68907039149262L80.61916852928867,121.84594114580969L80.91367624798507,143.16064947540036L81.06093010733326,149.65944736106593L81.42906475570376,134.18619460977027L81.57631861505195,145.67388081661858L82.16533405244475,154.78771095429244L82.45984177114116,130.1466373682064L82.75434948983755,123.4331865922595L83.12248413820805,111.97331829088134L83.19611106788214,111.85461525629641L83.93238036462314,119.95328665459593L84.00600729429723,152.5950397828855L84.30051501299364,121.16271408721508L84.59502273169004,109.44502010343577L84.66864966136414,138.55802225755505L84.81590352071233,131.36807530680514L85.18403816908283,115.81461485616798L85.33129202843104,119.94617446736817L85.40491895810513,53.29623952807658L85.55217281745333,116.58317220847444L85.69942667680154,128.1350019254115L85.84668053614972,145.62889495910724L85.92030746582383,73.62327099928146L86.43569597354252,134.72993911762754L86.87745755158713,145.89038260161712L87.17196527028352,137.62479663930188L87.31921912963172,144.65988829281932L87.39284605930582,103.5053090993883L87.54009991865402,125.43846665124036L87.68735377800222,119.2957544382277L88.0554884263727,130.07930173593024L88.12911535604682,148.5633529398805L88.20274228572092,124.48009207783696L88.34999614506911,138.76183852252967L88.49725000441732,128.2996421989516L88.71813079343961,123.35110373040368L88.86538465278781,129.04619436128533L88.93901158246192,103.07930414087693L89.4544000901806,143.3715468600763L89.60165394952881,107.56309571774374L89.74890780887701,114.67736997927139L89.89616166822519,139.11677194120705L90.5588040352921,133.6046007111842L90.6324309649662,138.47902737050046L90.7796848243144,102.02111773477846L90.9269386836626,129.07259108211198L91.66320798040358,126.86846575343728L91.88408876942589,103.87317260008872L92.25222341779639,104.75908942211902L92.62035806616689,107.63391536701553L92.76761192551508,127.78890105542794L92.84123885518919,93.92028423775598L92.9148657848633,127.60046205970502L92.98849271453739,135.41504116410877L93.13574657388558,147.28159617935302L93.28300043323378,154.47980450061291L93.57750815193019,104.52923425897077L93.72476201127839,116.68946996445528L93.94564280030069,142.6602320123793L94.38740437834528,130.58221350569625L95.12367367508627,125.1843662859339L95.27092753443446,112.35511408093625L95.41818139378267,111.62467265052948L95.78631604215317,142.9441155554844L96.08082376084957,130.7127863415793L96.22807762019777,141.92777434427643L96.37533147954596,119.33470170347815L96.44895840922007,118.89678840831579L96.66983919824236,131.79412674845423L96.81709305759057,131.88725347824823L97.25885463563516,124.93212095022778L97.62698928400566,82.32708436417973L98.21600472139846,132.7168557857059L98.28963165107255,128.24955424287265L98.36325858074666,124.05442256483289L98.43688551042075,124.0587251682829L98.58413936976896,123.94146654669981L98.73139322911715,149.09934185747844L98.80502015879125,124.18841449427424L99.61491638520634,135.83030483373966L99.83579717422865,76.15515921386739L99.90942410390274,119.16886550501428L100.3021010621646,92.83786974780305L100.37572799183872,136.8131232921467L100.6702357105351,136.11167013198346L100.8911164995574,114.0943377999427L100.9647434292315,120.15735325956945L101.11199728857972,133.51707278944596L101.2592511479279,148.25140206613565L101.332878077602,132.01020777401808L101.7746396556466,117.78316508331744L101.8482665853207,135.2559967317248L101.9218935149948,135.79125716642642L101.9955204446689,133.0044818599992L102.14277430401711,139.99637216520273L102.2164012336912,138.12573215493825L102.3636550930394,91.61011622833803L102.51090895238761,133.41326247316596L102.5845358820617,109.75523802231554L102.65816281173579,130.15271766531055L103.09992438978038,94.86198920584555L103.17355131945449,129.46164689689172L103.2471782491286,88.33543174111219L103.3208051788027,120.30820492425808L104.27795526456597,120.69343754568733L104.42520912391419,135.64232679604223L104.57246298326238,130.83541614671265L105.01422456130699,135.0303439209696L105.52961306902569,130.9026446375869L105.89774771739617,137.5266497042355L105.97137464707028,141.5914564647171L106.63401701413717,129.17757518266657L106.70764394381126,124.17443329520825L107.44391324055226,96.04168543356172L107.59116709990047,141.35113526806663L107.73842095924866,95.04284408198686L107.95930174827097,132.59868238856117L108.18018253729326,136.50187162790084L108.32743639664146,123.13269604181902L108.47469025598966,128.2943523465028L108.69557104501196,138.98261153092062L108.84282490436016,103.60237368811194L109.06370569338246,103.51043624696443L109.28458648240475,137.77660269269217L109.35821341207887,150.6518028449577L109.57909420110116,147.4145001042003L109.72634806044935,143.8616786715313L110.31536349784214,127.80680888429316L110.38899042751625,141.66586615965244L110.53624428686445,102.17884382251349L110.68349814621264,124.26982404188506L110.83075200556085,138.25964142372845L111.27251358360544,149.95121186536656L111.41976744295364,145.9133239353052L112.22966366936875,143.12670512288628L112.37691752871693,117.46032506732178L112.67142524741334,144.289138731931L112.74505217708743,145.41601178700822L112.81867910676154,146.56668436485546L112.96593296610973,131.14808613820887L113.03955989578384,155.7316898667666L113.33406761448023,125.97426704904738L113.55494840350252,136.31919229287158L114.21759077056943,141.6010884351623L114.43847155959173,128.37487873727943L115.10111392665863,125.65936438490586L115.395621645355,132.16862256050135L115.54287550470322,136.1935696759228L115.69012936405142,107.50569630960646L115.7637562937255,128.6777315487406L115.83738322339963,142.97446860019073L116.131890942096,134.53223903071364L116.20551787177013,142.725723027536L116.27914480144422,124.57289040120989L116.35277173111831,114.32058110460144L116.64727944981472,144.0559977028861L116.868160238837,152.7268101500814L116.94178716851111,139.0060470044502L117.1626679575334,129.06739968231284L117.2362948872075,140.97456719837524L117.60442953557799,137.18665965361936L117.7516833949262,148.3821469523478L118.04619111362261,144.95334554543967L118.1934449729708,144.1387797601703L118.2670719026449,136.73083047757333L118.5615796213413,132.952518846223L118.8560873400377,121.62595485607923L119.07696812906,132.94263428821716L119.73961049612689,130.73609014540884L120.32862593351969,150.3457141297377L120.54950672254199,113.19897462400738L120.69676058189019,147.48083346485188L120.77038751156428,133.3535953407997L120.91764137091249,119.87944312107635L120.99126830058658,149.8449931306331L121.06489523026069,134.398096780404L121.21214908960889,150.735274133944L121.28577601928299,134.5506235140482L121.58028373797939,133.42659578835784L121.72753759732758,135.06719291620078L121.87479145667578,123.67144495428877L122.02204531602398,136.5033602532153L122.09567224569808,118.11776386129046L122.53743382374267,145.83648702139848L122.61106075341677,141.26334549299258L122.75831461276498,136.88335911868245L123.56821083918007,132.1691598355619L123.64183776885416,140.71071344178114L123.78909162820237,129.63677968616088L123.93634548755057,145.0305214757583L124.08359934689878,91.2899015778515L124.37810706559516,143.87392143405484L124.81986864363977,138.5162423898753L125.04074943266205,141.91497468093905L125.18800329201026,156.37723583232267L125.55613794038076,128.24473251917573L126.07152644809945,126.90510506269732L126.21878030744764,123.51832910306439L126.66054188549225,129.5759505574435L126.95504960418864,158.60622075543807L127.47043811190734,143.25173499026786L127.61769197125554,124.44533376505652L127.76494583060375,114.29143029631891L128.03491123940876,146.85568570539704L128.25579202843107,139.42719400301624L128.32941895810518,146.70461068762262L128.69755360647568,138.03704855539775L128.77118053614979,141.17395403809954L128.99206132517207,135.64265060327656L129.06568825484615,102.72558166301035L129.72833062191307,143.06694633104073L129.87558448126128,152.77491444266406L129.94921141093536,131.94815066152637L130.46459991865405,151.1798413161441L130.53822684832815,146.9701475008973L130.61185377800226,149.1921642934497L130.75910763735047,154.918239433309L131.64263079343965,152.16655873662916L131.78988465278786,143.80719458232227L131.93713851213604,124.47993550503674L132.15801930115836,147.52873513053822L132.30527316050654,129.8276571746043L132.52615394952886,146.02300110796665L132.59978087920294,140.03042826123516L132.74703473855115,144.01498527615118L133.11516938692165,118.12770434315931L133.18879631659576,77.3744625091077L133.92506561333676,144.07009512233952L133.99869254301083,130.88285288555534L134.14594640235904,115.06828158261595L134.58770798040365,160.11399591677818L134.73496183975183,95.13233123841329L135.02946955844823,123.8595168384563L135.47123113649283,145.36139122983656L135.76573885518923,124.99809600737045L136.06024657388562,146.52538889822L136.20750043323383,137.59635963912783L136.35475429258204,106.86656861855447L136.79651587062662,120.49045138091L136.94376972997483,150.22412451433624L137.0173966596489,143.37510423264132L137.09102358932302,146.282503651944L137.60641209704173,140.37069362285217L137.82729288606401,141.5877108539969L137.90091981573812,151.9861569310886L137.97454674541223,136.0070817095989L138.12180060476044,141.59229318262035L138.19542753443451,146.9339769323412L138.34268139378273,112.09255911901893L138.8580699015014,135.56922557897423L139.1525776201978,147.93077351171235L139.2262045498719,130.63954654181035L139.29983147954601,140.22118682259406L139.8888469169388,113.4094069940838L140.1833546356352,132.67215003584266L140.2569815653093,145.34905983642955L140.40423542465751,133.5527875835953L140.77237007302801,146.11979418746765L141.2877585807467,151.17868368818827L141.50863936976899,117.09702465995505L141.7295201587913,147.9017526882366L141.87677401813949,154.70008159940542L142.1712817368359,160.99162775266393L142.3185355961841,151.78729733706888L142.3921625258582,121.22750515799828L142.61304331488049,148.03621748915683L142.98117796325099,161.96402069331523L143.12843182259917,155.83490127831504L143.2020587522733,149.09304074531966L143.27568568194738,125.6810123333978L143.34931261162149,150.59002831895992L143.49656647096967,152.59094640444596L143.5701934006438,143.25649957473487L143.64382033031788,143.42191203721148L143.71744725999199,145.02273289513707L143.7910741896661,137.79166860776755L143.93832804901427,153.69373818165684L144.15920883803656,148.6939257676018L144.38008962705888,141.92013895435935L144.45371655673299,147.9743429361167L144.82185120510348,144.1914862274397L144.89547813477756,130.50161666262767L145.18998585347398,129.594596346911L145.26361278314806,141.76722456568012L145.41086664249627,155.5031179995438L145.63174743151856,156.1501342915417L145.99988207988906,137.4847544971695L146.22076286891138,114.85358492185364L146.29438979858546,144.16206759385048L146.66252444695596,151.93627548471278L146.73615137663006,135.30831517925247L147.17791295467467,142.2308795780093L147.32516681402285,137.5824122241678L147.54604760304514,134.6371224369847L147.61967453271924,153.56697360613708L147.69330146239338,146.63903549061473L148.65045154815667,124.38722911230306L149.31309391522356,156.01542352942715L149.75485549326814,160.9655771201862L149.97573628229046,144.29644515661124L150.78563250870553,138.41628546246042L150.85925943837964,138.9493404583913L150.93288636805374,157.97939042684808L151.00651329772782,159.7821665612705L151.81640952414293,150.13316303883275L152.18454417251343,145.27059941124202L152.25817110218753,141.97343886708185L152.33179803186164,143.45351676082106L152.40542496153572,133.85757901159957L152.47905189120982,152.58073846965272L152.55267882088393,146.83716253288472L152.626305750558,161.3227742010925L152.69993268023214,134.77318640787175L152.92081346925443,157.0668648829006L153.50982890664724,115.00050195312483L153.65708276599543,149.50493501179454L153.87796355501771,151.7178994195263L153.95159048469182,148.13988435356868L154.0252174143659,137.68516610571487L154.09884434404,157.8807436941132L154.24609820338824,139.00597485337673L154.39335206273643,128.67259578260155L154.46697899241053,142.26141742610838L154.7614867111069,133.53583538270982L154.835113640781,144.40663709548647L154.90874057045514,150.36958326608428L154.98236750012921,142.84251802114892L155.2768752188256,161.1966069917605L155.4977560078479,133.27637116933172L155.71863679687021,152.94649323592688L155.9395175858925,136.68218944413076L156.0131445155666,150.95685261609643L156.2340253045889,156.74162984820782L156.3812791639371,132.8567460580522L156.4549060936112,147.92543906905405L156.7494138123076,133.58495263786995L156.8966676716558,149.82410918658056L157.4856831090486,146.03011108420776L157.6329369683968,147.7982087733624L157.7065638980709,151.5150915179837L157.8538177574191,155.34730933293153L158.0010716167673,146.96594075531797L158.0746985464414,150.9401926636299L158.29557933546369,136.269438520612L158.4428331948119,132.95613894635557L158.516460124486,125.76677153149336L158.8109678431824,150.256509558633L159.252729421227,114.66319487270991L160.06262564764208,134.1347615962667L160.13625257731618,143.06180137456937L160.2098795069903,137.78812864380424L160.28350643666437,151.8952131294984L160.50438722568666,140.0655057924393L161.2161142125363,146.24964389918068L161.2897411422104,157.4657935941302L161.51062193123272,159.94455165375487L161.58424886090683,140.79664643543157L161.8051296499291,148.5625015655371L162.0260104389514,144.3859947303577L162.467772016996,131.3230482067338L162.76227973569243,153.92656320309345L162.8359066653665,143.99750600254515L162.98316052471472,148.13755623049366L163.1304143840629,145.85153850049144L163.27766824341109,146.1522907926295L163.3512951730852,148.568886767032L163.7930567511298,157.29279676927015L164.16119139950027,169.20955732347792L164.5293260478708,156.19860557335835L164.67657990721898,153.03485148512092L164.8238337665672,147.98199778230133L164.89746069624127,148.9045281605504L165.11834148526358,142.7752536304762L165.33922227428587,143.09660076621986L165.56010306330816,150.3126552052121L165.63372999298227,156.51439308666343L166.3699992897233,153.71917523537732L166.59088007874558,151.1441862678186L166.81176086776787,164.7574246339452L166.88538779744198,155.22115267003687L167.03264165679016,151.72913798559273L167.1062685864643,157.7216386531742L167.17989551613837,147.96861140604736L167.91616481287937,138.30212584010383L168.65243410962037,155.50524016964118L168.94694182831677,142.20163966517495L169.31507647668727,152.39215285780085L169.75683805473184,150.12655809645383L169.97771884375416,155.96101300959413L170.12497270310237,139.0912904983647L170.41948042179874,148.77458260900627L170.86124199984337,163.48342290659073L170.93486892951745,110.77460368945734L171.00849585919156,144.1212041064415L171.08212278886566,113.36205636635769L171.67113822625845,111.01019544130591L171.96564594495484,146.66864050316676L172.18652673397716,149.9652657062903L172.26015366365127,134.62127138089627L172.62828831202174,144.30219014043678L172.70191524169584,154.99770122233775L172.77554217136992,155.24915292057068L173.95357304615553,156.6665845982342L174.17445383517781,152.0901778283045L174.39533462420013,138.4309010588151L174.46896155387424,151.03907189478636L175.05797699126705,150.92696687162962L175.20523085061524,154.83184143910287L175.42611163963753,153.02474139121426L175.49973856931163,166.35337660808113L175.64699242865981,153.07940466539347L176.01512707703031,158.771876038498L176.3832617254008,148.13212982203677L176.82502330344542,158.0872589422637L176.89865023311953,157.9585176770167L177.26678488149003,160.0815658379457L177.4140387408382,146.13170997421693L177.4876656705123,156.6817696743077L177.92942724855692,155.87338586717217L178.07668110790513,157.20740435732296L178.3711888266015,168.79309733349308L178.5920696156238,160.31982414331202L179.1810850530166,160.73605574569325L179.40196584203892,157.9351576301115L179.6228466310612,144.90078775785614L179.6964735607353,136.60398341936906L180.5063697871504,148.90953481896153L180.65362364649857,132.5891879754866L180.8745044355209,160.95611950314262L181.09538522454318,156.38454643780094L181.38989294323957,136.89523929049113L181.6107737322619,129.89532902509032L181.83165452128418,154.33750765897088L182.05253531030647,154.79309071431265L182.1997891696547,128.2105445998096L182.27341609932878,161.16366953089272L182.49429688835107,139.02509956073033L182.9360584663957,159.0623242440706L183.0833123257439,157.58564482033688L183.156939255418,160.34607383153175L183.23056618509207,151.20016742534793L183.30419311476618,140.62635103860123L183.67232776313668,154.96750107069042L183.74595469281078,160.32502496407898L183.8195816224849,162.85886715116658L183.96683548183307,165.78285403908177L184.11408934118126,143.72100087444574L184.18771627085536,159.37256608924633L184.26134320052947,153.277286405752L184.33497013020354,144.73378219890293L184.48222398955178,113.85244063301221L184.85035863792226,134.64553305703652L184.92398556759636,149.69041527897537L184.99761249727047,147.19337914507724L185.43937407531507,150.8339368447284L185.51300100498915,160.57098063770619L185.73388179401144,155.20485377393356L185.80750872368557,159.23519912321544L185.88113565335968,163.30114150113218L186.02838951270786,160.82959089656708L186.24927030173015,135.23413196458003L186.61740495010068,144.1624576106505L186.98553959847115,144.67599869946653L187.13279345781933,159.34390483054858L187.28004731716757,157.10715501645987L187.50092810618986,151.62540375706308L187.72180889521215,144.6944552594335L187.86906275456033,136.53311119635316L187.94268968423447,147.04319715028487L188.38445126227904,126.99532536034779L189.26797441836823,153.35382620141183L189.56248213706465,153.29742550982783L189.70973599641283,144.00462088954828L189.93061678543512,130.60743118207506L190.37237836347975,148.73224365912563L190.88776687119844,137.24680238427928L190.96139380087254,145.0005394195672L191.18227458989483,127.25318179700747L191.25590151956894,149.42329142941693L191.47678230859123,151.53186779618892L191.77129002728765,129.39201641957607L191.84491695696173,139.31339753667203L191.99217081630994,160.4468717651129L192.065797745984,140.28450412125645L192.21305160533223,155.45192584451712L192.58118625370273,140.0127811535712L192.65481318337683,147.3227931581499L192.87569397239912,160.32931095368025L192.9493209020732,164.46657339048545L193.3910824801178,145.24237539402364L193.538336339466,154.47502134738335L193.6119632691401,163.56924847513062L193.75921712848833,138.025058881363L194.05372484718472,119.45185298943008L194.1518940867502,155.456276503319L194.37277487577248,150.45758855984016L194.5936556647948,120.05483605458207L194.96179031316527,125.42198968488775L195.10904417251345,154.76915222789128L195.2562980318617,146.64245378354562L195.9925673286027,164.31862498558468L196.13982118795087,165.55510688461945L196.21344811762498,153.80936414035656L196.72883662534366,142.92520675626514L197.02334434404005,151.00005354331591L197.61235978143287,157.65834261673936L197.83324057045516,165.9083801668797L197.98049442980334,155.2094146926472L198.34862907817384,158.6069965013277L198.56950986719613,152.86782925443407L200.11567539035224,155.5148884238094L200.26292924970045,112.4203086533146L200.55743696839684,150.2791442367296L200.77831775741913,160.43056932418915L201.22007933546374,148.8127251477049L201.88272170253063,162.80261168483878L202.10360249155292,142.37238710787895L202.17722942122703,133.0213479111236L202.25085635090113,149.47605358337077L202.7662448586198,115.35419369386787L203.42888722568674,153.44047230672797L203.57614108503492,152.44567958326977L203.79702187405724,161.23063209869312L203.94427573340542,160.64541033444024L204.01790266307952,157.34659820531982L204.2387834521018,162.043711438482L204.31241038177592,160.8080846585979L204.4596642411241,156.76837011995818L204.60691810047234,172.7075528695912L204.82779888949463,147.42982120193798L204.9750527488428,151.27520499447598L205.7113220455838,156.80045509202893L205.7849489752579,161.13705879585603L206.00582976428024,166.5679162734359L206.0794566939543,162.0574301616312L206.3739644126507,149.6681872117269L206.66847213134713,159.93653674729222L206.7420990610212,146.89313759151057L206.88935292036942,151.70518772297373L207.5519952874363,157.5902623127405L207.8465030061327,159.58498562825218L208.5091453731996,143.7387276357527L208.65639923254778,150.21184912139103L208.7300261622219,153.71567778324467L209.0981608105924,151.6117995714227L209.1717877402665,160.48855462587392L209.8344301073334,150.6285224247625L210.05531089635568,150.05875514493246L210.20256475570386,156.06994275512125L210.49707247440028,151.6521795044943L210.64432633374847,133.49447521056223L210.71795326342257,159.63627629737965L210.93883405244486,129.11558390297276L211.012460982119,145.90890063398606L211.0860879117931,149.23836625451878L211.23334177114128,147.74176446967775L211.3069687008154,152.51433360138054L211.52784948983768,150.3660057601081L211.67510334918586,151.673926207725L211.74873027886,156.90779675002264L211.96961106788228,163.5084347462078L212.04323799755636,156.79223949270255L212.11686492723047,142.18082888573684L212.26411878657865,148.71417781299317L212.484999575601,142.3534607446888L213.22126887234197,153.3924721515042L213.44214966136425,152.45809323755614L213.73665738006065,128.50645623988166L213.95753816908297,152.66601936751042L214.10479202843118,148.47711875846807L214.17841895810525,156.55402243787574L214.32567281745347,163.2652098827774L214.62018053614986,151.09081611733154L214.76743439549807,163.50809913297846L214.91468825484625,144.86146662891673L215.13556904386854,160.27109149847232L215.35644983289086,147.79878812441416L215.50370369223907,132.1182304432419L215.87183834060954,138.87812443029472L216.01909219995775,148.50288736250678L216.09271912963186,164.1663805718167L216.53448070767644,165.95631223925994L216.60810763735054,152.7062702097465L216.90261535604697,144.08158723931916L216.97624228572104,147.36633042884608L217.49163079343975,161.06952084362715L218.15427316050662,158.55076016479543L218.8169155275735,126.0768718670881L219.33230403529222,147.43864253893727L219.40593096496633,154.25944007588137L219.62681175398865,162.92605623918428L220.2158271913814,141.43826168416655L220.36308105072965,155.52855505948264L220.51033491007783,158.57768426791824L221.6147388551893,151.6589687565302L221.6883657848634,163.26969458586822L222.0565004332339,157.87177684775537L222.2773812222562,153.4821437456074L222.64551587062672,164.82536093907785L222.866396659649,153.2961563442272L223.30815823769362,155.18025833369754L223.6762928860641,126.58089506933166L223.7499198157382,157.39798443729387L224.04442753443462,157.54527829716392L224.2653083234569,147.4571246857174L224.4861891124792,137.62226885786225L224.55981604215327,150.28221430987907L224.78069683117562,145.70648909829023L225.0015776201979,145.81556016770247L225.1488314795461,124.86153508184L225.5905930575907,132.58106753249476L225.73784691693888,156.4987711760342L225.81147384661298,157.88532916334418L225.95872770596117,133.04227182049436L226.1796084949835,143.04165432600666L226.4004892840058,154.9209043591329L226.54774314335398,161.8311641801399L226.69499700270217,144.3163854020311L226.8422508620504,155.74757058069537L226.91587779172448,138.91756789659493L227.21038551042088,161.56749102466563L227.28401244009498,142.91740303390878L227.35763936976906,155.21870470593288L227.43126629944317,147.96172886122565L227.50489322911727,135.5773452235812L227.5785201587914,69.24752318381654L227.65214708846548,149.3746859531447L227.7257740181396,149.25163554587564L227.7994009478137,147.48463867076165L227.87302787748777,156.36645242089782L227.94665480716188,140.85321128720142L228.02028173683598,132.1729788522289L228.09390866651006,135.3377121794172L228.16753559618417,148.41034400433927L228.2411625258583,156.95278908322248L228.31478945553238,162.92722669593743L228.38841638520648,143.99594894715585L228.4620433148806,150.87513880131831L228.53567024455467,156.00262283300498L228.60929717422877,158.8304165998931L228.68292410390288,165.19123687260284L228.75655103357695,169.00520622798052L228.83017796325106,156.54571672605692L228.90380489292517,147.2357179369018L228.9774318225993,142.45352373386874L229.05105875227338,161.50007722094514L229.12468568194748,156.88825136310697L229.34556647096977,161.47330186650464L229.56644725999206,162.97368941669345L229.64007418966617,144.5768608835733L229.71370111934027,156.68959517711244L230.00820883803667,163.2199936648329L230.30271655673306,136.7730113213457L230.37634348640714,141.882975867682L230.44997041608127,148.45195573036406L230.67085120510356,143.24761456542112L230.81810506445177,144.3163236017181L231.18623971282227,152.38285039682262L231.48074743151867,153.1175826383792L231.55437436119274,154.01008345284598L232.21701672825967,162.20794216288206L232.29064365793374,152.7382336267713L232.43789751728195,147.18752062328807L232.65877830630427,115.80864769734104L232.73240523597835,150.48037523647315L232.80603216565245,154.17031785242492L232.95328602500064,159.0554487360777L233.32142067337116,146.27583912196758L233.46867453271935,128.4262330823119L233.76318225141574,142.61220274441195L233.83680918108985,160.97751720074393L233.91043611076392,148.28263054202375L233.98406304043803,147.94787226630172L234.20494382946035,161.1863217572761L234.57307847783082,158.3496526857934L234.86758619652724,154.49122070286487L235.30934777457182,150.218712332626L235.60385549326824,128.96536769977126L235.9719901416387,126.10038683383536L236.8555132977279,131.50118791356238L236.92914022740203,144.88840519420177L237.66540952414303,145.86111257373148L237.95991724283942,156.1967891605102L238.32805189120992,155.63806340925623L238.40167882088403,150.56070498047842L238.47530575055814,153.35086462397007L238.9170673286027,146.1457996612919L239.2115750472991,157.18140800266647L239.35882890664732,162.7985491726174L239.65333662534368,163.79390587443913L240.38960592208468,142.8915532179173L240.610486711107,140.90829732406368L240.7577405704552,160.7477583345775L240.8313675001293,139.49142803307734L240.9049944298034,160.68297874090283L241.4940098671962,126.64169606704954L241.6412637265444,131.3970345533167L242.0093983749149,147.3900649584369L242.45115995295947,164.4401448290354L242.67204074198182,166.68505335926434L242.8929215310041,160.02510180243823L243.0401753903523,145.24117159643862L243.18742924970047,143.49051402750456L243.33468310904868,159.25598034273145L243.62919082774508,153.95780246766543L244.0709524057897,134.19166108806567L244.5127139838343,161.2631853186539L244.65996784318247,119.1640140877665L245.02810249155297,136.8373380392097L245.10172942122708,140.12111380071542L245.17535635090118,141.12325932984035L245.32261021024937,162.81380413086328L245.39623713992347,132.92038923495062L245.6907448586199,145.6676597531611L245.83799871796808,161.86715565099396L246.13250643666447,131.0905158838271L246.3533872256868,147.6493378175385L247.01602959275368,140.58996611054454L247.38416424112415,159.4721248616274L247.45779117079826,167.1408517515528L247.75229888949468,170.5602705037458L247.82592581916876,163.7021727706546L247.97317967851697,151.97614199714135L248.12043353786515,158.37185967121943L248.26768739721334,152.62228434071096L248.34131432688744,153.84653493426097L248.41494125656158,154.7358415780377L248.78307590493205,163.88668063933176L249.00395669395434,152.70298020780356L249.07758362362844,148.6799994695144L249.22483748297665,127.17939652578269L249.37209134232486,158.56645355094238L249.66659906102123,156.39349254808477L249.74022599069534,149.62261849736495L250.10836063906584,155.9848709336627L250.18198756873994,157.51367648171095L250.47649528743634,143.9171627760842L250.55012221711047,149.3455260461493L250.62374914678455,162.90644448968624L251.80178002157012,170.53248477681342L252.16991466994065,164.81959358871507L252.24354159961473,146.78860897653666L252.31716852928884,160.50794816125816L252.6853031776593,151.55971275201955L252.75893010733344,151.92756046683L252.97981089635573,146.00456428289425L253.05343782602984,135.60831301187014L253.3479455447262,158.81757995760185L253.49519940407444,149.63829082905977L254.01058791179312,158.44587074420372L254.0842148414672,156.9792285092261L254.37872256016362,145.79869395005784L254.5259764195118,160.96928792033657L255.11499185690462,157.96480854625682L255.85126115364562,164.24288552762846L255.9248880833197,125.2636780229065L256.66115738006073,146.28214892807713L257.0292920284312,150.18910101196568L257.5446805361499,159.53245109251483L257.6919343954981,162.46838299146975L258.1336959735427,165.0238976452837L258.354576762565,161.24432061381233L258.5018306219132,148.59869204173918L259.2380999186542,160.6215377308685L259.3117268483283,153.94252927480275L259.6798614966988,152.84747697895955L259.9743692153952,156.8841216025224L260.26887693409157,156.8849286646714" style="fill: none;" fill="none"></path></g></g></g></g><g opacity="0.2"><g><g><g><path stroke="rgb(255, 112, 67)" stroke-width="2px" d="M26.516873489265734,154.25635526324893L26.56595810904847,150.07055906363198L26.63958503872257,150.4363273485886L26.860465827744864,146.0654553699763L26.95716252871685,64.16313792264155L27.030789458390952,107.58931695717918L27.10441638806505,172.40691502761473L27.153501007847783,86.32742582561048L27.374381796870082,19.574538927338182L27.435982994697408,103.83405982646813L27.50960992437151,138.349454689726L27.80411764306791,120.89140834132883L28.172252291438408,121.32276722439323L28.319506150786605,125.6112642763594L28.393133080460707,101.47686457281449L28.540386939808904,126.31160965025558L28.614013869483006,66.92023852281177L28.761267728831204,102.18287212983206L29.5711639552463,111.29159769696793L30.381060181661393,106.56622714536448L30.454687111335492,94.92805243901857L30.528314041009594,147.33250821179143L30.82282175970599,1.592341663989771L31.04370254872829,125.43521191853527L31.11732947840239,149.24803405298059L31.632717986121087,87.75327940264108L32.148106493839784,117.14798932706653L32.22173342351388,105.44702778703491L32.29536035318799,119.21977447957974L32.81074886090668,102.68674084250198L33.694272016995875,138.2328006003991L33.91515280601818,77.37377630469659L34.13603359504047,122.80605698136839L34.35691438406277,134.50960366871314L34.72504903243327,96.78654927462856L35.240437540151966,133.74191329440998L36.12396069624116,92.06979770254482L36.19758762591526,99.33998071068861L36.63934920395986,99.86546519000433L36.93385692265626,116.83894671645041L37.22836464135265,115.71278986862902L37.74375314907135,27.1618205865623L37.96463393809365,72.322256353703L38.111887797441845,114.91722034750913L38.33276858646414,97.56244872137214L38.62727630516054,64.3077859327674L38.848157094182845,133.15923311396955L39.14266481287925,-18.58202772833377L39.21629174255334,116.29251871809886L39.608968700815204,82.63301530174334L39.82984948983751,135.2027784014363L40.19798413820801,38.29103826702786L40.4924918569044,68.0753020178619L40.5661187865785,84.9975451594017L40.7869995756008,116.99344342733372L40.860626505274894,102.65815665550892L41.0815072942972,1.1437284256028022L41.228761153645394,96.71863040431063L41.67052273168999,108.41659142452214L41.74414966136409,117.39215184517889L41.817776591038196,115.77386602343731L41.89140352071229,111.0166047010682L42.18591123940869,111.89890509472973L42.40679202843099,126.79427796878669L42.55404588777919,100.81299546354387L43.511195973542485,131.4830902743487L43.805703692238886,69.09793819917556L44.54197298897988,123.79536498442513L44.61559991865397,118.68218407785685L44.762853778002174,118.78178603268694L44.83648070767627,131.04824991382455L44.98373456702447,103.59031268086272L45.057361496698576,94.86610728120226L45.49912307474317,118.7637446557722L45.57275000441727,100.51475253810908L45.94088465278777,139.3394158113957L46.23539237148417,113.47418893114408L46.382646230832364,117.12052008732903L46.45627316050646,139.39801612744532L46.60352701985466,128.75661246571235L47.33979631659565,116.20392960013129L47.41342324626976,149.3552985374788L47.48705017594386,128.38993145432593L48.296946402358955,106.04526257477596L48.51782719138125,60.408236044732504L48.665081050729455,132.8266946295708L48.73870798040355,122.04556457537686L49.03321569909995,161.34310212071435L49.25409648812225,144.52665599632905L49.32772341779634,140.8707794706253L49.40135034747045,138.38945615523312L49.474977277144546,120.06130824785289L49.69585806616684,90.02439416965214L49.76948499584095,75.38121252703313L49.916738855189145,139.47149880318557L49.99036578486324,117.62142107274516L50.13761964421144,144.3512321626931L50.57938122225604,108.65333735721394L50.65300815193014,117.43556373758537L50.80026201127834,87.90569925098951L50.87388894095244,119.56624980467299L51.02114280030064,119.42205542504819L51.16839665964884,97.89573050394127L51.31565051899703,140.67327530898706L51.38927744867114,102.88856815746938L51.46290437834523,121.35514988365401L51.536531308019335,124.2907458878407L51.68378516736754,136.60387359088017L51.97829288606393,137.31134588252758L52.272800604760334,102.4790873815815L52.346427534434426,134.45811387413158L52.49368139378263,132.20655987294234L52.56730832345672,125.36548945706866L52.64093525313083,88.14855006644828L52.714562182804926,98.41614306632972L53.59808533889412,134.43619204353325L53.966219987264616,118.69342099725603L54.11347384661282,106.45863473520286L54.18710077628691,132.10441102879315L54.48160849498331,136.0717267551697L54.62886235433152,134.2059171772659L54.92337007302792,126.1317752164469L55.144250862050214,143.38040277076897L55.586012440094805,99.18664813591037L55.73326629944301,107.72602370082302L55.954147088465305,126.87000693532124L56.10140094781351,97.58493349102596L56.24865480716171,114.18584227499986L56.322281736835805,142.17378116329073L56.616789455532206,100.43378769181557L56.764043314880404,126.63666596410108L56.9849241039027,132.94625632644653L57.0585510335768,151.88079890515877L57.205804892924995,120.18490343038845L57.4266856819473,132.95346522561363L57.6475664709696,103.4496981563967L57.942074189665995,122.62276293181081L58.67834348640699,118.54334035197317L58.75197041608109,124.00187617095142L59.12010506445159,138.12143157968063L59.193731994125685,118.25917090292597L59.488239712822086,92.99764150542491L59.78274743151849,144.29767097100438L59.930001290866684,109.36036148378804L60.15088207988899,131.45896041095017L60.22450900956308,109.3876558298384L60.44538979858538,122.14960992294604L60.66627058760768,109.69640330735744L61.108032165652276,148.5176834808833L61.181659095326374,131.92613424188562L61.40253988434868,122.41003208853535L61.62342067337097,134.9552655761295L61.844301462393275,101.49815787922462L62.06518225141557,128.58188274139727L62.21243611076377,141.23475509528868L62.433316899786064,139.4055802794144L62.50694382946017,143.4351718219845L62.654197688808374,150.9480334846138L62.87507847783067,130.7613532163434L62.94870540750477,125.98094580756596L63.02233233717887,128.33436991609048L63.39046698554937,90.49612616730884L63.464093915223465,131.13775722364966L63.68497470424576,123.43127458577956L63.83222856359396,130.26426709947813L64.05310935261626,124.99111858887548L64.20036321196446,114.55469852662017L64.34761707131265,123.39993582321395L64.71575171968315,137.550627773683L64.78937864935725,120.64487929301225L64.93663250870546,94.70951731150092L65.01025943837956,156.499536229166L65.52564794609825,123.23937795298545L65.74652873512055,103.31445614738273L65.82015566479465,138.01033036492063L66.04103645381694,117.35733160515352L66.40917110218744,107.56182039030307L66.55642496153564,99.67870059384244L66.77730575055794,124.24377053655861L66.85093268023205,129.0442797885025L66.99818653958025,141.73644856772472L67.51357504729894,148.55445214589204L67.88170969566944,151.50603999159722L67.95533662534353,55.349490798288656L68.32347127371403,111.66603415029377L68.69160592208453,130.6744693118255L69.05974057045503,118.07808488616863L69.57512907817373,111.00736812821576L69.64875600784782,120.71361797748867L70.16414451556652,153.12090172287014L70.53227916393702,102.72588970128425L70.75315995295932,145.34079704085283L71.26854846067802,129.48944980742377L71.71031003872261,92.88708683343725L71.78393696839672,127.11702787213292L72.1520716167672,146.96817186889834L72.5202062651377,113.04957438589028L72.59383319481181,135.12295036410922L72.74108705416,134.46509322533427L72.8883409135082,155.92263847125687L73.1092217025305,149.05852854481546L73.18284863220461,120.80524040784269L73.2564755618787,146.52482457012277L73.40372942122691,138.80667597677723L73.6246102102492,142.0779394227343L74.36087950699019,134.63288732186845L74.5817602960125,137.84637299864823L74.72901415536069,110.45079083058198L75.09714880373119,121.69995278786391L75.1707757334053,126.68090313609378L75.53891038177579,113.40273392908918L75.68616424112399,106.44758364034628L76.20155274884269,137.49573301762982L76.42243353786499,112.23789824926973L76.93782204558367,136.33526967998904L77.15870283460598,119.75829400401562L77.45321055330238,96.60694438878424L77.60046441265057,144.75247107357418L77.67409134232469,117.2400927150602L77.74771827199878,132.94272019470952L78.04222599069519,147.9446388495191L78.41036063906569,105.16256867031836L78.63124142808798,150.74147584195185L78.85212221711028,133.07274272024773L78.99937607645846,126.62589360605838L79.14662993580667,133.40717770806646L79.22025686548078,146.85500745517277L79.66201844352537,125.44031116260115L79.88289923254767,86.474806549598L80.03015309189587,129.34827780932997L80.17740695124405,138.48782292339774L80.32466081059226,116.12906963660473L80.61916852928867,122.29280412929748L80.91367624798507,146.17779996954334L81.06093010733326,150.5793685229638L81.42906475570376,131.9959168230572L81.57631861505195,147.29999164955146L82.16533405244475,156.07779649889468L82.45984177114116,126.65863151812118L82.75434948983755,122.48288077465972L83.12248413820805,110.35114515233009L83.19611106788214,111.83781254363826L83.93238036462314,121.09967393015432L84.00600729429723,157.21556191520045L84.30051501299364,116.71338944536218L84.59502273169004,107.78635109203321L84.66864966136414,142.67904082731624L84.81590352071233,130.3503202589821L85.18403816908283,113.61298346817824L85.33129202843104,120.53100710639652L85.40491895810513,43.86177385173852L85.55217281745333,125.54159646917003L85.69942667680154,129.77019243328846L85.84668053614972,148.10519945246145L85.92030746582383,63.43069409172621L86.43569597354252,143.37974145401444L86.87745755158713,147.47017140528686L87.17196527028352,136.45478218801526L87.31921912963172,145.65572318441312L87.39284605930582,97.67977505830902L87.54009991865402,128.5431601859774L87.68735377800222,118.42623809757295L88.0554884263727,131.60573993788813L88.12911535604682,151.1798168089328L88.20274228572092,121.07104601973947L88.34999614506911,140.78345559917568L88.49725000441732,126.81869203442683L88.71813079343961,122.65062568234438L88.86538465278781,129.85234874282565L88.93901158246192,99.40362561652687L89.4544000901806,149.0750150075429L89.60165394952881,102.49431952864643L89.74890780887701,115.68441336788945L89.89616166822519,142.57623066641253L90.5588040352921,132.82433903022206L90.6324309649662,139.16901470583747L90.7796848243144,96.86040906488172L90.9269386836626,132.9017950719172L91.66320798040358,126.55646627768883L91.88408876942589,100.61813110349601L92.25222341779639,104.88449317318268L92.62035806616689,108.04085419939814L92.76761192551508,130.6418898971667L92.84123885518919,89.12609646904441L92.9148657848633,132.36797581532338L92.98849271453739,136.52121446199243L93.13574657388558,148.96133684361135L93.28300043323378,155.49872896617936L93.57750815193019,97.45860559462872L93.72476201127839,118.41078186797135L93.94564280030069,146.33645860363796L94.38740437834528,128.87253965315207L95.12367367508627,124.42028745573924L95.27092753443446,110.53910121173566L95.41818139378267,111.52127683161345L95.78631604215317,147.3774613548159L96.08082376084957,128.98141097340095L96.22807762019777,143.5152840615532L96.37533147954596,116.13659553057977L96.44895840922007,118.8348006816033L96.66983919824236,133.61977738107657L96.81709305759057,131.90043580073046L97.25885463563516,123.94760447365869L97.62698928400566,76.29623443647428L98.21600472139846,139.84965448007716L98.28963165107255,127.61719649023415L98.36325858074666,123.46059114008753L98.43688551042075,124.05933421260687L98.58413936976896,123.9248682943296L98.73139322911715,152.6605022895978L98.80502015879125,120.66221016432294L99.61491638520634,137.4782436489151L99.83579717422865,67.70799248228728L99.90942410390274,125.25756365581591L100.3021010621646,89.11065117029825L100.37572799183872,143.03793087148304L100.6702357105351,136.01237767552198L100.8911164995574,110.9777291136721L100.9647434292315,121.01558832463078L101.11199728857972,135.40817464070705L101.2592511479279,150.3370833792744L101.332878077602,129.71122593358137L101.7746396556466,115.76929146043288L101.8482665853207,137.7293199330975L101.9218935149948,135.8670246252198L101.9955204446689,132.61000681662364L102.14277430401711,140.98609179744614L102.2164012336912,137.86093836353092L102.3636550930394,85.02571397388778L102.51090895238761,139.33060280919182L102.5845358820617,106.40638524616776L102.65816281173579,133.04003213532357L103.09992438978038,89.86649796272494L103.17355131945449,134.3593153371768L103.2471782491286,82.51391270079638L103.3208051788027,124.83403126525133L104.27795526456597,120.74796819072984L104.42520912391419,137.75837961230252L104.57246298326238,130.15498587215L105.01422456130699,135.62414648262242L105.52961306902569,130.318358437656L105.89774771739617,138.46429425704878L105.97137464707028,142.1668400700821L106.63401701413717,127.42035911077815L106.70764394381126,123.4662259960703L107.44391324055226,92.05942432072592L107.59116709990047,147.76480168299653L107.73842095924866,88.48778916523584L107.95930174827097,137.91480561917214L108.18018253729326,137.0543778672594L108.32743639664146,121.24025566205401L108.47469025598966,129.02499775949457L108.69557104501196,140.49556146113503L108.84282490436016,98.59421216698378L109.06370569338246,103.49742227127687L109.28458648240475,142.6270646096673L109.35821341207887,152.47431976148843L109.57909420110116,146.95625177103372L109.72634806044935,143.35876787512612L110.31536349784214,125.53420174546035L110.38899042751625,143.62765052283115L110.53624428686445,96.58935664237053L110.68349814621264,127.3968577715678L110.83075200556085,140.23993520837297L111.27251358360544,151.60618302377193L111.41976744295364,145.34175075799055L112.22966366936875,142.73225223163064L112.37691752871693,113.82718451151129L112.67142524741334,148.0868246844556L112.74505217708743,145.57552349800088L112.81867910676154,146.72956495806673L112.96593296610973,128.96554483672008L113.03955989578384,159.211560714188L113.33406761448023,121.76202911594558L113.55494840350252,137.78354244154076L114.21759077056943,142.3487540991395L114.43847155959173,126.50267553803573L115.10111392665863,125.27497650854247L115.395621645355,133.09002440270893L115.54287550470322,136.76331104842535L115.69012936405142,103.44485578743382L115.7637562937255,131.67468630861802L115.83738322339963,144.99820763487088L116.131890942096,133.33722023320774L116.20551787177013,143.8855312645291L116.27914480144422,122.00331135364775L116.35277173111831,112.8693409758578L116.64727944981472,148.26512060036015L116.868160238837,153.9541854279949L116.94178716851111,137.06383852264852L117.1626679575334,127.6605591937911L117.2362948872075,142.66005666411922L117.60442953557799,136.65047182764934L117.7516833949262,149.96689629600343L118.04619111362261,144.46799009514675L118.1934449729708,144.02347592755228L118.2670719026449,135.6822166521829L118.5615796213413,132.41768934589484L118.8560873400377,120.02265127756573L119.07696812906,134.5445386827207L119.73961049612689,130.42374828044512L120.32862593351969,153.12150565263357L120.54950672254199,107.94076035607294L120.69676058189019,152.33351667976595L120.77038751156428,131.35384930497497L120.91764137091249,117.97214303517947L120.99126830058658,154.08669199043337L121.06489523026069,132.21154980845375L121.21214908960889,153.04784261777843L121.28577601928299,132.25964557241912L121.58028373797939,133.26748684088568L121.72753759732758,135.29942355986805L121.87479145667578,122.05834821082176L122.02204531602398,138.31975009004967L122.09567224569808,115.51523651814126L122.53743382374267,149.76014189794344L122.61106075341677,140.61600582458806L122.75831461276498,136.26336104743308L123.56821083918007,131.50185308772294L123.64183776885416,141.9197918061318L123.78909162820237,128.06923655180367L123.93634548755057,147.20954428615795L124.08359934689878,83.68278186627565L124.37810706559516,151.31732150502427L124.81986864363977,137.75784946581334L125.04074943266205,142.39607377236817L125.18800329201026,158.4244052190482L125.55613794038076,124.26250602279421L126.07152644809945,126.7154774318716L126.21878030744764,123.03892246037663L126.66054188549225,130.43342208751542L126.95504960418864,162.71552840903547L127.47043811190734,141.0782689687141L127.61769197125554,121.78324044093985L127.76494583060375,112.8541197596483L128.03491123940876,151.46523784092867L128.25579202843107,138.37567234651485L128.32941895810518,147.7347472959459L128.69755360647568,136.8101333677312L128.77118053614979,141.6179908872491L128.99206132517207,134.85968071067606L129.06568825484615,98.06608788607768L129.72833062191307,148.77736781372994L129.87558448126128,154.14910170960616L129.94921141093536,129.0000699436484L130.46459991865405,153.9021354270717L130.53822684832815,146.3742547690587L130.61185377800226,149.506696350843L130.75910763735047,155.72877974991007L131.64263079343965,151.7770514234005L131.78988465278786,142.6239055924432L131.93713851213604,121.74411344386847L132.15801930115836,150.79135060264116L132.30527316050654,127.32202513517987L132.52615394952886,148.3154927149723L132.59978087920294,139.18216452493982L132.74703473855115,144.5790093284909L133.11516938692165,114.46329471337506L133.18879631659576,71.60573877917345L133.92506561333676,153.5110294191897L133.99869254301083,129.01616562829363L134.14594640235904,112.82968929772497L134.58770798040365,166.49032990928515L134.73496183975183,85.93401340722922L135.02946955844823,127.92592210604231L135.47123113649283,148.4050355500776L135.76573885518923,122.1156204279346L136.06024657388562,149.57263127089732L136.20750043323383,136.3324331230006L136.35475429258204,102.51668952431805L136.79651587062662,122.41894620115212L136.94376972997483,154.43300061998104L137.0173966596489,142.40560821103153L137.09102358932302,146.69405334143434L137.60641209704173,139.53386206622272L137.82729288606401,141.7599826995014L137.90091981573812,153.45808308811985L137.97454674541223,133.74520348189944L138.12180060476044,142.38289389341332L138.19542753443451,147.6901056823017L138.34268139378273,107.16066892626556L138.8580699015014,138.8924066760455L139.1525776201978,149.68058166657482L139.2262045498719,128.19192993876487L139.29983147954601,141.57749206781918L139.8888469169388,109.61413222383804L140.1833546356352,135.39883969015557L140.2569815653093,147.1435082556907L140.40423542465751,131.8829956208653L140.77237007302801,147.89868553322128L141.2877585807467,151.8947822019889L141.50863936976899,112.27268023130105L141.7295201587913,152.26223930411206L141.87677401813949,155.66240213021015L142.1712817368359,161.88221191134434L142.3185355961841,150.4844012508431L142.3921625258582,116.90168982671432L142.61304331488049,151.83105804744866L142.98117796325099,163.93553621536506L143.12843182259917,154.9673090323561L143.2020587522733,148.13871345526096L143.27568568194738,122.36698091435862L143.34931261162149,154.1159620886057L143.49656647096967,152.87418138458324L143.5701934006438,141.93518518331456L143.64382033031788,143.44532658669448L143.71744725999199,145.24933310790277L143.7910741896661,136.7680932976833L143.93832804901427,155.94471606654528L144.15920883803656,147.98618976378577L144.38008962705888,140.9612924191515L144.45371655673299,148.8313307143563L144.82185120510348,143.6560133600014L144.89547813477756,128.56378124477754L145.18998585347398,129.4662053433164L145.26361278314806,143.49029066057437L145.41086664249627,157.44746821164324L145.63174743151856,156.24172107260074L145.99988207988906,134.84262311075153L146.22076286891138,111.65008603219707L146.29438979858546,148.31075692185001L146.66252444695596,153.03673413593074L146.73615137663006,132.95458563829692L147.17791295467467,143.21078595408903L147.32516681402285,136.92440999599845L147.54604760304514,134.2202092707624L147.61967453271924,156.24654157985273L147.69330146239338,145.65836845143122L148.65045154815667,121.23743003592105L149.31309391522356,160.49247388070955L149.75485549326814,161.66628379285072L149.97573628229046,141.9368876640504L150.78563250870553,137.58393409022904L150.85925943837964,139.0247957317879L150.93288636805374,160.67314179224607L151.00651329772782,160.03735405061795L151.81640952414293,148.76732235757444L152.18454417251343,144.58229131783878L152.25817110218753,141.50671751151583L152.33179803186164,143.66302550377046L152.40542496153572,132.49924992381023L152.47905189120982,155.23104871257348L152.55267882088393,146.02414493452943L152.626305750558,163.37324891211733L152.69993268023214,131.01502557869438L152.92081346925443,160.22259105973117L153.50982890664724,109.0459026342981L153.65708276599543,154.3891241662181L153.87796355501771,152.0311500891139L153.95159048469182,147.63340733509978L154.0252174143659,136.20527448158944L154.09884434404,160.73947842123806L154.24609820338824,136.33420392158297L154.39335206273643,127.20988002372471L154.46697899241053,144.18494925692443L154.7614867111069,132.30070733090454L154.835113640781,145.9454263790302L154.90874057045514,151.21365327196798L154.98236750012921,141.7770430321398L155.2768752188256,163.79467438029457L155.4977560078479,129.3241916693532L155.71863679687021,155.73084841430338L155.9395175858925,134.37993639597696L156.0131445155666,152.9774670376989L156.2340253045889,157.56047959339253L156.3812791639371,129.4757807726877L156.4549060936112,150.05845040851094L156.7494138123076,131.55502076861558L156.8966676716558,152.12280257932042L157.4856831090486,145.49306112451114L157.6329369683968,148.04848744169024L157.7065638980709,152.04122560512187L157.8538177574191,155.8897693889287L158.0010716167673,145.77953698405761L158.0746985464414,151.50275800224938L158.29557933546369,134.1927564273081L158.4428331948119,132.4871330705476L158.516460124486,124.74909851843067L158.8109678431824,153.7230934802829L159.252729421227,109.6248717893144L160.06262564764208,136.89101076718114L160.13625257731618,144.3254462746944L160.2098795069903,137.0416270243809L160.28350643666437,153.8921063671994L160.50438722568666,138.39098100956792L161.2161142125363,147.12502417913038L161.2897411422104,159.05346775186274L161.51062193123272,160.2954260822862L161.58424886090683,138.08621236343146L161.8051296499291,149.66177786249267L162.0260104389514,143.79479969889397L162.467772016996,129.47395531982812L162.76227973569243,157.12614751764664L162.8359066653665,142.59202301981912L162.98316052471472,148.72359073764616L163.1304143840629,145.52794694966923L163.27766824341109,146.1948630348956L163.3512951730852,148.91096199628535L163.7930567511298,158.52768813945L164.16119139950027,170.8964047078635L164.5293260478708,154.3568726772227L164.67657990721898,152.5870141484298L164.8238337665672,147.26675365085197L164.89746069624127,149.03511465244867L165.11834148526358,141.90763942758895L165.33922227428587,143.14208826032055L165.56010306330816,151.33410583356263L165.63372999298227,157.39226465892366L166.3699992897233,153.32350512857425L166.59088007874558,150.7796901125934L166.81176086776787,166.6844127131686L166.88538779744198,153.87126942400417L167.03264165679016,151.23483453710978L167.1062685864643,158.5698921723296L167.17989551613837,146.5880459053125L167.91616481287937,136.93381053168258L168.65243410962037,157.9403842071556L168.94694182831677,140.31848160289888L169.31507647668727,153.83464559283007L169.75683805473184,149.80585746813532L169.97771884375416,156.78689475528978L170.12497270310237,136.70333891001718L170.41948042179874,150.14527692603772L170.86124199984337,165.5654961907237L170.93486892951745,103.3135379555252L171.00849585919156,148.8414991426356L171.08212278886566,109.00802175474765L171.67113822625845,110.6772836208648L171.96564594495484,151.7161829548457L172.18652673397716,150.43191128298815L172.26015366365127,132.4492904489912L172.62828831202174,145.6725485036594L172.70191524169584,156.51167767685342L172.77554217136992,155.28474653995528L173.95357304615553,156.8672256119674L174.17445383517781,151.44237595676194L174.39533462420013,136.49739612797413L174.46896155387424,152.82379014097407L175.05797699126705,150.9110981240595L175.20523085061524,155.38458624089134L175.42611163963753,152.76894184105652L175.49973856931163,168.24007839677003L175.64699242865981,151.20044060044683L176.01512707703031,159.5776596575219L176.3832617254008,146.62604702427285L176.82502330344542,159.49643247069767L176.89865023311953,157.94029402759816L177.26678488149003,160.3820886369813L177.4140387408382,144.15707284282155L177.4876656705123,158.17515712043928L177.92942724855692,155.7589571090845L178.07668110790513,157.39623802487853L178.3711888266015,170.43308127075917L178.5920696156238,159.12041104333207L179.1810850530166,160.79497437434085L179.40196584203892,157.53868346763187L179.6228466310612,143.05573996771955L179.6964735607353,135.429549928533L180.5063697871504,150.65141652392668L180.65362364649857,130.27900189262027L180.8745044355209,164.97152990203458L181.09538522454318,155.73742878928226L181.38989294323957,134.1364789180409L181.6107737322619,128.90447414733953L181.83165452128418,157.79735942906356L182.05253531030647,154.85757963995465L182.1997891696547,124.44771843748268L182.27341609932878,165.8282671238771L182.49429688835107,135.8913293823055L182.9360584663957,161.89864371979456L183.0833123257439,157.37661713935177L183.156939255418,160.73681949065067L183.23056618509207,149.90554140438127L183.30419311476618,139.12960077381064L183.67232776313668,156.99752687431948L183.74595469281078,161.0833959261568L183.8195816224849,163.21753887627943L183.96683548183307,166.19675172641223L184.11408934118126,140.59809015251096L184.18771627085536,161.5880844529852L184.26134320052947,152.41448425877334L184.33497013020354,143.52442772213433L184.48222398955178,109.48110917847973L184.85035863792226,137.5888475097523L184.92398556759636,151.82005614144157L184.99761249727047,146.83991740922863L185.43937407531507,151.34926693006716L185.51300100498915,161.94928364036514L185.73388179401144,154.44526503979222L185.80750872368557,159.80570462927815L185.88113565335968,163.8766858559971L186.02838951270786,160.47973670140033L186.24927030173015,131.61103047192432L186.61740495010068,145.42628452858742L186.98553959847115,144.7486917303035L187.13279345781933,161.42018378061044L187.28004731716757,156.7905374628674L187.50092810618986,150.84944809934024L187.72180889521215,143.71336209310238L187.86906275456033,135.37785244769796L187.94268968423447,148.53092621225693L188.38445126227904,124.15749875994572L189.26797441836823,157.0849381926127L189.56248213706465,153.28944185028857L189.70973599641283,142.68920105745391L189.93061678543512,128.711025333072L190.37237836347975,151.29785638418758L190.88776687119844,135.62100932710922L190.96139380087254,146.0981003697678L191.18227458989483,124.74099875454468L191.25590151956894,152.561526126242L191.47678230859123,151.8303420764169L191.77129002728765,126.25806485485006L191.84491695696173,140.7177939505075L191.99217081630994,163.43836811708397L192.065797745984,137.43047034518543L192.21305160533223,157.59891248114306L192.58118625370273,137.82733144846014L192.65481318337683,148.35754371587564L192.87569397239912,162.1704162124083L192.9493209020732,165.05221327880034L193.3910824801178,142.52114188767516L193.538336339466,155.7819255690918L193.6119632691401,164.85655916444642L193.75921712848833,134.40921469229087L194.05372484718472,116.82276905038933L194.1518940867502,160.55279307377816L194.37277487577248,149.75001172765823L194.5936556647948,115.75125008351813L194.96179031316527,126.18172376041048L195.10904417251345,158.92331678877306L195.2562980318617,145.49209920923184L195.9925673286027,166.8207314114441L196.13982118795087,165.73013400274766L196.21344811762498,152.14672475646546L196.72883662534366,141.38452694390514L197.02334434404005,152.14306838531854L197.61235978143287,158.60084015681298L197.83324057045516,167.07619370137445L197.98049442980334,153.69494926022156L198.34862907817384,159.0879327390861L198.56950986719613,152.05543571720256L200.11567539035224,155.88958629709998L200.26292924970045,106.32016265840439L200.55743696839684,155.63815749282944L200.77831775741913,161.8675290397656L201.22007933546374,147.1681901272893L201.88272170253063,164.78291525858833L202.10360249155292,139.4804375102271L202.17722942122703,131.69768482847783L202.25085635090113,151.80525849588065L202.7662448586198,110.52415873234006L203.42888722568674,158.83168069484972L203.57614108503492,152.30486417492637L203.79702187405724,162.47416418991745L203.94427573340542,160.56257072397523L204.01790266307952,156.87964306375483L204.2387834521018,162.7085996130392L204.31241038177592,160.63317858473303L204.4596642411241,156.1965383816119L204.60691810047234,174.96378421771277L204.82779888949463,143.85169480149392L204.9750527488428,151.8195287276663L205.7113220455838,157.5825681195364L205.7849489752579,161.75091594114662L206.00582976428024,167.33666778852714L206.0794566939543,161.4189595248004L206.3739644126507,147.91445875763083L206.66847213134713,161.39004741214396L206.7420990610212,145.04681168361452L206.88935292036942,152.38634550413974L207.5519952874363,158.4233094007897L207.8465030061327,159.86734372314197L208.5091453731996,141.49565002037605L208.65639923254778,151.12813572438094L208.7300261622219,154.21165352989976L209.0981608105924,151.31399032682688L209.1717877402665,161.74508159705195L209.8344301073334,149.23281010405725L210.05531089635568,149.97810315555014L210.20256475570386,156.92084145793334L210.49707247440028,151.02683402152888L210.64432633374847,130.92420656621567L210.71795326342257,163.33671389414374L210.93883405244486,124.79530324440375L211.012460982119,148.28603679225736L211.0860879117931,149.70966047477685L211.23334177114128,147.52991672844453L211.3069687008154,153.18990274787728L211.52784948983768,150.06190455883208L211.67510334918586,151.8590656318169L211.74873027886,157.6486642697086L211.96961106788228,164.44277163151256L212.04323799755636,155.84154518741184L212.11686492723047,140.11254701899742L212.26411878657865,149.63898976160021L212.484999575601,141.4530852692667L213.22126887234197,154.95507193968356L213.44214966136425,152.3258295556731L213.73665738006065,125.11604187034781L213.95753816908297,156.0858662029282L214.10479202843118,147.88416935718809L214.17841895810525,157.6973284381572L214.32567281745347,164.2151953201836L214.62018053614986,149.36750010487117L214.76743439549807,165.26579672880064L214.91468825484625,142.22198896852444L215.13556904386854,162.45236259872905L215.35644983289086,146.0333022586799L215.50370369223907,129.89860812307597L215.87183834060954,139.83500440106474L216.01909219995775,149.86529672734045L216.09271912963186,166.38358737313453L216.53448070767644,166.20968156204873L216.60810763735054,150.8306934841076L216.90261535604697,142.86074170469246L216.97624228572104,147.83129407667866L217.49163079343975,163.00924186124453L218.15427316050662,158.19422326505213L218.8169155275735,121.48011142312039L219.33230403529222,150.46245482582003L219.40593096496633,155.22494109709265L219.62681175398865,164.15283752257417L220.2158271913814,138.39661040012294L220.36308105072965,157.52307147334017L220.51033491007783,159.00929616500275L221.6147388551893,150.67960720012366L221.6883657848634,164.91322198636814L222.0565004332339,157.10768803551107L222.2773812222562,152.86078015580563L222.64551587062672,166.43102182034536L222.866396659649,151.6641684792027L223.30815823769362,155.44695770207005L223.6762928860641,122.53258337437575L223.7499198157382,161.7602208318456L224.04442753443462,157.56612811294463L224.2653083234569,146.02912120647153L224.4861891124792,136.23012031601974L224.55981604215327,152.0742613829956L224.78069683117562,145.05878370304248L225.0015776201979,145.83099945150056L225.1488314795461,121.89544020667225L225.5905930575907,133.67378673783858L225.73784691693888,159.88438219406947L225.81147384661298,158.08159992867118L225.95872770596117,129.52567466237406L226.1796084949835,144.45709203226642L226.4004892840058,156.60244203505488L226.54774314335398,162.80932881233724L226.69499700270217,141.83712447910244L226.8422508620504,157.3656835511912L226.91587779172448,136.5352387495305L227.21038551042088,164.7736445268126L227.28401244009498,140.27743624069663L227.35763936976906,156.95998485128789L227.43126629944317,146.93448570512555L227.50489322911727,133.8243046173393L227.5785201587914,59.85837029234298L227.65214708846548,160.71688707574367L227.7257740181396,149.234217451696L227.7994009478137,147.23451582542586L227.87302787748777,157.62369546315452L227.94665480716188,138.65727304453208L228.02028173683598,130.94427015138805L228.09390866651006,135.7856881298411L228.16753559618417,150.2608078699675L228.2411625258583,158.1619936377676L228.31478945553238,163.7729233443126L228.38841638520648,141.31617903751095L228.4620433148806,151.84890540167922L228.53567024455467,156.72843107493324L228.60929717422877,159.23069790936128L228.68292410390288,166.0916269568677L228.75655103357695,169.54508316869607L228.83017796325106,154.78204469610426L228.90380489292517,145.91786422702143L228.9774318225993,141.77659213435263L229.05105875227338,164.19616470085091L229.12468568194748,156.2354358307189L229.34556647096977,162.12232728022758L229.56644725999206,163.18607304251927L229.64007418966617,141.97274360262935L229.71370111934027,158.40418313647186L230.00820883803667,164.1443879713139L230.30271655673306,133.02937455126306L230.37634348640714,142.6063041824602L230.44997041608127,149.38181132736472L230.67085120510356,142.51092700326024L230.81810506445177,144.4676020497784L231.18623971282227,153.5246875230703L231.48074743151867,153.22158583238948L231.55437436119274,154.13641918457415L232.21701672825967,163.36836965151733L232.29064365793374,151.39777260111177L232.43789751728195,146.4018032574982L232.65877830630427,111.36688942928463L232.73240523597835,155.3882453447521L232.80603216565245,154.69263849669207L232.95328602500064,159.74695128125228L233.32142067337116,144.4668532861803L233.46867453271935,125.89957651962091L233.76318225141574,144.62026237694664L233.83680918108985,163.57717358497356L233.91043611076392,146.48563745334644L233.98406304043803,147.9004863916561L234.20494382946035,163.0602575299711L234.57307847783082,157.94811505467024L234.86758619652724,153.94504996555537L235.30934777457182,149.61392804277486L235.60385549326824,125.956903391011L235.9719901416387,125.6948415971047L236.8555132977279,132.2656848700534L236.92914022740203,146.7833994211416L237.66540952414303,145.99880174617633L237.95991724283942,157.65983013854736L238.32805189120992,155.55897437597372L238.40167882088403,149.84199214352816L238.47530575055814,153.74581872875655L238.9170673286027,145.1259046209128L239.2115750472991,158.74352607838617L239.35882890664732,163.59366961219953L239.65333662534368,163.93480111533628L240.38960592208468,139.93277270489367L240.610486711107,140.62756247150907L240.7577405704552,163.55608386574613L240.8313675001293,136.48254109542208L240.9049944298034,163.68269596438498L241.4940098671962,121.82306701275981L241.6412637265444,132.07016465867872L242.0093983749149,149.6539185774265L242.45115995295947,166.8536264545539L242.67204074198182,167.00282579961637L242.8929215310041,159.08236893366376L243.0401753903523,143.14846914718754L243.18742924970047,143.24270405199331L243.33468310904868,161.4876216932887L243.62919082774508,153.2078320835237L244.0709524057897,131.39371413478898L244.5127139838343,165.09522756133993L244.65996784318247,113.20477067152217L245.02810249155297,139.33904142959665L245.10172942122708,140.585940506682L245.17535635090118,141.26511554629184L245.32261021024937,165.88415522141904L245.39623713992347,128.68890128164793L245.6907448586199,147.47206790870686L245.83799871796808,164.16023497899772L246.13250643666447,126.73400523185371L246.3533872256868,149.99328064833784L247.01602959275368,139.59069431640384L247.38416424112415,162.14494185378982L247.45779117079826,168.2263793021815L247.75229888949468,171.04429781570008L247.82592581916876,162.73139181300246L247.97317967851697,150.31629289221482L248.12043353786515,159.27718957028986L248.26768739721334,151.80841751310473L248.34131432688744,154.01983068037993L248.41494125656158,154.86172516688282L248.78307590493205,165.18200489001723L249.00395669395434,151.11989932480185L249.07758362362844,148.11053644263328L249.22483748297665,124.13593218214945L249.37209134232486,163.00937029879603L249.66659906102123,156.08590446092225L249.74022599069534,148.66418427100734L250.10836063906584,156.88546374428017L250.18198756873994,157.73008274650314L250.47649528743634,141.99254211455712L250.55012221711047,150.1139244999028L250.62374914678455,164.82602655247L251.80178002157012,171.61196993161224L252.16991466994065,164.01091949359613L252.24354159961473,144.23627782138814L252.31716852928884,162.44995507781692L252.6853031776593,150.29306755710448L252.75893010733344,151.97963023467986L252.97981089635573,145.1661492979536L253.05343782602984,134.13669753514984L253.3479455447262,162.1029099818835L253.49519940407444,148.3389393999054L254.01058791179312,159.69260580068527L254.0842148414672,156.77162161751693L254.37872256016362,144.2160612042395L254.5259764195118,163.11672359649475L255.11499185690462,157.53951694535968L255.85126115364562,165.1315630912016L255.9248880833197,119.74607330762623L256.66115738006073,149.25736627081818L257.0292920284312,150.74213989142024L257.5446805361499,160.855025761451L257.6919343954981,162.88397152511178L258.1336959735427,165.38563716249024L258.354576762565,160.7093119929191L258.5018306219132,146.80867155893432L259.2380999186542,162.3234017325261L259.3117268483283,152.99709885408112L259.6798614966988,152.69246957635158L259.9743692153952,157.4555187866797L260.26887693409157,156.8850429063455" style="fill: none;" fill="none"></path></g></g></g></g></g></g><g transform="translate(37, 177)" clip-path="url(#clip_1)"><clipPath id="clip_1"><rect width="293" height="23"></rect></clipPath><g><g><line x1="1.9006912451262026" y1="0" x2="1.9006912451262026" y2="5" style="visibility: inherit;" fill="rgb(0, 0, 0)" stroke="rgb(204, 204, 204)" stroke-width="1px"></line><line x1="26.44300113649272" y1="0" x2="26.44300113649272" y2="5" style="visibility: inherit;" fill="rgb(0, 0, 0)" stroke="rgb(204, 204, 204)" stroke-width="1px"></line><line x1="50.98531102785924" y1="0" x2="50.98531102785924" y2="5" style="visibility: inherit;" fill="rgb(0, 0, 0)" stroke="rgb(204, 204, 204)" stroke-width="1px"></line><line x1="75.52762091922577" y1="0" x2="75.52762091922577" y2="5" style="visibility: inherit;" fill="rgb(0, 0, 0)" stroke="rgb(204, 204, 204)" stroke-width="1px"></line><line x1="100.06993081059228" y1="0" x2="100.06993081059228" y2="5" style="visibility: inherit;" fill="rgb(0, 0, 0)" stroke="rgb(204, 204, 204)" stroke-width="1px"></line><line x1="124.6122407019588" y1="0" x2="124.6122407019588" y2="5" style="visibility: inherit;" fill="rgb(0, 0, 0)" stroke="rgb(204, 204, 204)" stroke-width="1px"></line><line x1="149.15455059332533" y1="0" x2="149.15455059332533" y2="5" style="visibility: inherit;" fill="rgb(0, 0, 0)" stroke="rgb(204, 204, 204)" stroke-width="1px"></line><line x1="173.69686048469183" y1="0" x2="173.69686048469183" y2="5" style="visibility: inherit;" fill="rgb(0, 0, 0)" stroke="rgb(204, 204, 204)" stroke-width="1px"></line><line x1="198.23917037605835" y1="0" x2="198.23917037605835" y2="5" style="visibility: inherit;" fill="rgb(0, 0, 0)" stroke="rgb(204, 204, 204)" stroke-width="1px"></line><line x1="222.78148026742488" y1="0" x2="222.78148026742488" y2="5" style="visibility: inherit;" fill="rgb(0, 0, 0)" stroke="rgb(204, 204, 204)" stroke-width="1px"></line><line x1="247.3237901587914" y1="0" x2="247.3237901587914" y2="5" style="visibility: inherit;" fill="rgb(0, 0, 0)" stroke="rgb(204, 204, 204)" stroke-width="1px"></line><line x1="271.8661000501579" y1="0" x2="271.8661000501579" y2="5" style="visibility: inherit;" fill="rgb(0, 0, 0)" stroke="rgb(204, 204, 204)" stroke-width="1px"></line></g><g transform="translate(0, 8)"><text x="1.9006912451262026" y="0" dx="0em" dy="0.95em" style="text-anchor: middle; visibility: hidden; font-family: &quot;Helvetica Neue&quot;, sans-serif; font-size: 12px; font-weight: 200;" fill="rgb(50, 49, 63)" stroke="none" stroke-width="1px">-100k</text><text x="26.44300113649272" y="0" dx="0em" dy="0.95em" style="text-anchor: middle; visibility: inherit; font-family: &quot;Helvetica Neue&quot;, sans-serif; font-size: 12px; font-weight: 200;" fill="rgb(50, 49, 63)" stroke="none" stroke-width="1px">0</text><text x="50.98531102785924" y="0" dx="0em" dy="0.95em" style="text-anchor: middle; visibility: hidden; font-family: &quot;Helvetica Neue&quot;, sans-serif; font-size: 12px; font-weight: 200;" fill="rgb(50, 49, 63)" stroke="none" stroke-width="1px">100k</text><text x="75.52762091922577" y="0" dx="0em" dy="0.95em" style="text-anchor: middle; visibility: inherit; font-family: &quot;Helvetica Neue&quot;, sans-serif; font-size: 12px; font-weight: 200;" fill="rgb(50, 49, 63)" stroke="none" stroke-width="1px">200k</text><text x="100.06993081059228" y="0" dx="0em" dy="0.95em" style="text-anchor: middle; visibility: hidden; font-family: &quot;Helvetica Neue&quot;, sans-serif; font-size: 12px; font-weight: 200;" fill="rgb(50, 49, 63)" stroke="none" stroke-width="1px">300k</text><text x="124.6122407019588" y="0" dx="0em" dy="0.95em" style="text-anchor: middle; visibility: inherit; font-family: &quot;Helvetica Neue&quot;, sans-serif; font-size: 12px; font-weight: 200;" fill="rgb(50, 49, 63)" stroke="none" stroke-width="1px">400k</text><text x="149.15455059332533" y="0" dx="0em" dy="0.95em" style="text-anchor: middle; visibility: hidden; font-family: &quot;Helvetica Neue&quot;, sans-serif; font-size: 12px; font-weight: 200;" fill="rgb(50, 49, 63)" stroke="none" stroke-width="1px">500k</text><text x="173.69686048469183" y="0" dx="0em" dy="0.95em" style="text-anchor: middle; visibility: inherit; font-family: &quot;Helvetica Neue&quot;, sans-serif; font-size: 12px; font-weight: 200;" fill="rgb(50, 49, 63)" stroke="none" stroke-width="1px">600k</text><text x="198.23917037605835" y="0" dx="0em" dy="0.95em" style="text-anchor: middle; visibility: hidden; font-family: &quot;Helvetica Neue&quot;, sans-serif; font-size: 12px; font-weight: 200;" fill="rgb(50, 49, 63)" stroke="none" stroke-width="1px">700k</text><text x="222.78148026742488" y="0" dx="0em" dy="0.95em" style="text-anchor: middle; visibility: inherit; font-family: &quot;Helvetica Neue&quot;, sans-serif; font-size: 12px; font-weight: 200;" fill="rgb(50, 49, 63)" stroke="none" stroke-width="1px">800k</text><text x="247.3237901587914" y="0" dx="0em" dy="0.95em" style="text-anchor: middle; visibility: hidden; font-family: &quot;Helvetica Neue&quot;, sans-serif; font-size: 12px; font-weight: 200;" fill="rgb(50, 49, 63)" stroke="none" stroke-width="1px">900k</text><text x="271.8661000501579" y="0" dx="0em" dy="0.95em" style="text-anchor: middle; visibility: inherit; font-family: &quot;Helvetica Neue&quot;, sans-serif; font-size: 12px; font-weight: 200;" fill="rgb(50, 49, 63)" stroke="none" stroke-width="1px">1M</text></g><line x1="0" y1="0" x2="293" y2="0" fill="rgb(0, 0, 0)" stroke="rgb(204, 204, 204)" stroke-width="1px"></line></g></g></g></g></svg>