<svg viewBox="0 0 330 200" xmlns="http://www.w3.org/2000/svg"><g><g><g><g><g><line x1="37" y1="169.99293175072143" x2="32" y2="169.99293175072143" style="visibility: inherit;" fill="rgb(0, 0, 0)" stroke="rgb(204, 204, 204)" stroke-width="1px"></line><line x1="37" y1="154.93244393859428" x2="32" y2="154.93244393859428" style="visibility: inherit;" fill="rgb(0, 0, 0)" stroke="rgb(204, 204, 204)" stroke-width="1px"></line><line x1="37" y1="139.87195612646713" x2="32" y2="139.87195612646713" style="visibility: inherit;" fill="rgb(0, 0, 0)" stroke="rgb(204, 204, 204)" stroke-width="1px"></line><line x1="37" y1="124.81146831433998" x2="32" y2="124.81146831433998" style="visibility: inherit;" fill="rgb(0, 0, 0)" stroke="rgb(204, 204, 204)" stroke-width="1px"></line><line x1="37" y1="109.75098050221284" x2="32" y2="109.75098050221284" style="visibility: inherit;" fill="rgb(0, 0, 0)" stroke="rgb(204, 204, 204)" stroke-width="1px"></line><line x1="37" y1="94.69049269008568" x2="32" y2="94.69049269008568" style="visibility: inherit;" fill="rgb(0, 0, 0)" stroke="rgb(204, 204, 204)" stroke-width="1px"></line><line x1="37" y1="79.63000487795854" x2="32" y2="79.63000487795854" style="visibility: inherit;" fill="rgb(0, 0, 0)" stroke="rgb(204, 204, 204)" stroke-width="1px"></line><line x1="37" y1="64.56951706583138" x2="32" y2="64.56951706583138" style="visibility: inherit;" fill="rgb(0, 0, 0)" stroke="rgb(204, 204, 204)" stroke-width="1px"></line><line x1="37" y1="49.50902925370424" x2="32" y2="49.50902925370424" style="visibility: inherit;" fill="rgb(0, 0, 0)" stroke="rgb(204, 204, 204)" stroke-width="1px"></line><line x1="37" y1="34.44854144157708" x2="32" y2="34.44854144157708" style="visibility: inherit;" fill="rgb(0, 0, 0)" stroke="rgb(204, 204, 204)" stroke-width="1px"></line><line x1="37" y1="19.388053629449956" x2="32" y2="19.388053629449956" style="visibility: inherit;" fill="rgb(0, 0, 0)" stroke="rgb(204, 204, 204)" stroke-width="1px"></line><line x1="37" y1="4.327565817322778" x2="32" y2="4.327565817322778" style="visibility: inherit;" fill="rgb(0, 0, 0)" stroke="rgb(204, 204, 204)" stroke-width="1px"></line></g><g transform="translate(27, 0)"><text x="0" y="169.99293175072143" dx="0em" dy="0.3em" style="text-anchor: end; visibility: inherit; font-family: &quot;Helvetica Neue&quot;, sans-serif; font-size: 12px; font-weight: 200;" fill="rgb(50, 49, 63)" stroke="none" stroke-width="1px">20</text><text x="0" y="154.93244393859428" dx="0em" dy="0.3em" style="text-anchor: end; visibility: hidden; font-family: &quot;Helvetica Neue&quot;, sans-serif; font-size: 12px; font-weight: 200;" fill="rgb(50, 49, 63)" stroke="none" stroke-width="1px">40</text><text x="0" y="139.87195612646713" dx="0em" dy="0.3em" style="text-anchor: end; visibility: inherit; font-family: &quot;Helvetica Neue&quot;, sans-serif; font-size: 12px; font-weight: 200;" fill="rgb(50, 49, 63)" stroke="none" stroke-width="1px">60</text><text x="0" y="124.81146831433998" dx="0em" dy="0.3em" style="text-anchor: end; visibility: hidden; font-family: &quot;Helvetica Neue&quot;, sans-serif; font-size: 12px; font-weight: 200;" fill="rgb(50, 49, 63)" stroke="none" stroke-width="1px">80</text><text x="0" y="109.75098050221284" dx="0em" dy="0.3em" style="text-anchor: end; visibility: inherit; font-family: &quot;Helvetica Neue&quot;, sans-serif; font-size: 12px; font-weight: 200;" fill="rgb(50, 49, 63)" stroke="none" stroke-width="1px">100</text><text x="0" y="94.69049269008568" dx="0em" dy="0.3em" style="text-anchor: end; visibility: hidden; font-family: &quot;Helvetica Neue&quot;, sans-serif; font-size: 12px; font-weight: 200;" fill="rgb(50, 49, 63)" stroke="none" stroke-width="1px">120</text><text x="0" y="79.63000487795854" dx="0em" dy="0.3em" style="text-anchor: end; visibility: inherit; font-family: &quot;Helvetica Neue&quot;, sans-serif; font-size: 12px; font-weight: 200;" fill="rgb(50, 49, 63)" stroke="none" stroke-width="1px">140</text><text x="0" y="64.56951706583138" dx="0em" dy="0.3em" style="text-anchor: end; visibility: hidden; font-family: &quot;Helvetica Neue&quot;, sans-serif; font-size: 12px; font-weight: 200;" fill="rgb(50, 49, 63)" stroke="none" stroke-width="1px">160</text><text x="0" y="49.50902925370424" dx="0em" dy="0.3em" style="text-anchor: end; visibility: inherit; font-family: &quot;Helvetica Neue&quot;, sans-serif; font-size: 12px; font-weight: 200;" fill="rgb(50, 49, 63)" stroke="none" stroke-width="1px">180</text><text x="0" y="34.44854144157708" dx="0em" dy="0.3em" style="text-anchor: end; visibility: hidden; font-family: &quot;Helvetica Neue&quot;, sans-serif; font-size: 12px; font-weight: 200;" fill="rgb(50, 49, 63)" stroke="none" stroke-width="1px">200</text><text x="0" y="19.388053629449956" dx="0em" dy="0.3em" style="text-anchor: end; visibility: inherit; font-family: &quot;Helvetica Neue&quot;, sans-serif; font-size: 12px; font-weight: 200;" fill="rgb(50, 49, 63)" stroke="none" stroke-width="1px">220</text><text x="0" y="4.327565817322778" dx="0em" dy="0.3em" style="text-anchor: end; visibility: hidden; font-family: &quot;Helvetica Neue&quot;, sans-serif; font-size: 12px; font-weight: 200;" fill="rgb(50, 49, 63)" stroke="none" stroke-width="1px">240</text></g><line x1="37" y1="0" x2="37" y2="177" fill="rgb(0, 0, 0)" stroke="rgb(204, 204, 204)" stroke-width="1px"></line></g></g><g transform="translate(37, 0)" clip-path="url(#clip_0)"><clipPath id="clip_0"><rect width="293" height="177"></rect></clipPath><g><g><g><line x1="4.326516495755237" y1="0" x2="4.326516495755237" y2="177" fill="rgb(0, 0, 0)" stroke="rgb(60, 60, 60)" stroke-width="1px" opacity="0.25"></line><line x1="29.786736844891802" y1="0" x2="29.786736844891802" y2="177" fill="rgb(0, 0, 0)" stroke="rgb(60, 60, 60)" stroke-width="1px" opacity="0.25"></line><line x1="55.24695719402837" y1="0" x2="55.24695719402837" y2="177" fill="rgb(0, 0, 0)" stroke="rgb(60, 60, 60)" stroke-width="1px" opacity="0.25"></line><line x1="80.70717754316493" y1="0" x2="80.70717754316493" y2="177" fill="rgb(0, 0, 0)" stroke="rgb(60, 60, 60)" stroke-width="1px" opacity="0.25"></line><line x1="106.1673978923015" y1="0" x2="106.1673978923015" y2="177" fill="rgb(0, 0, 0)" stroke="rgb(60, 60, 60)" stroke-width="1px" opacity="0.25"></line><line x1="131.62761824143806" y1="0" x2="131.62761824143806" y2="177" fill="rgb(0, 0, 0)" stroke="rgb(60, 60, 60)" stroke-width="1px" opacity="0.25"></line><line x1="157.08783859057462" y1="0" x2="157.08783859057462" y2="177" fill="rgb(0, 0, 0)" stroke="rgb(60, 60, 60)" stroke-width="1px" opacity="0.25"></line><line x1="182.5480589397112" y1="0" x2="182.5480589397112" y2="177" fill="rgb(0, 0, 0)" stroke="rgb(60, 60, 60)" stroke-width="1px" opacity="0.25"></line><line x1="208.00827928884775" y1="0" x2="208.00827928884775" y2="177" fill="rgb(0, 0, 0)" stroke="rgb(60, 60, 60)" stroke-width="1px" opacity="0.25"></line><line x1="233.4684996379843" y1="0" x2="233.4684996379843" y2="177" fill="rgb(0, 0, 0)" stroke="rgb(60, 60, 60)" stroke-width="1px" opacity="0.25"></line><line x1="258.92871998712087" y1="0" x2="258.92871998712087" y2="177" fill="rgb(0, 0, 0)" stroke="rgb(60, 60, 60)" stroke-width="1px" opacity="0.25"></line><line x1="284.3889403362574" y1="0" x2="284.3889403362574" y2="177" fill="rgb(0, 0, 0)" stroke="rgb(60, 60, 60)" stroke-width="1px" opacity="0.25"></line></g><g><line x1="0" y1="169.99293175072143" x2="293" y2="169.99293175072143" fill="rgb(0, 0, 0)" stroke="rgb(60, 60, 60)" stroke-width="1px" opacity="0.25"></line><line x1="0" y1="154.93244393859428" x2="293" y2="154.93244393859428" fill="rgb(0, 0, 0)" stroke="rgb(60, 60, 60)" stroke-width="1px" opacity="0.25"></line><line x1="0" y1="139.87195612646713" x2="293" y2="139.87195612646713" fill="rgb(0, 0, 0)" stroke="rgb(60, 60, 60)" stroke-width="1px" opacity="0.25"></line><line x1="0" y1="124.81146831433998" x2="293" y2="124.81146831433998" fill="rgb(0, 0, 0)" stroke="rgb(60, 60, 60)" stroke-width="1px" opacity="0.25"></line><line x1="0" y1="109.75098050221284" x2="293" y2="109.75098050221284" fill="rgb(0, 0, 0)" stroke="rgb(60, 60, 60)" stroke-width="1px" opacity="0.25"></line><line x1="0" y1="94.69049269008568" x2="293" y2="94.69049269008568" fill="rgb(0, 0, 0)" stroke="rgb(60, 60, 60)" stroke-width="1px" opacity="0.25"></line><line x1="0" y1="79.63000487795854" x2="293" y2="79.63000487795854" fill="rgb(0, 0, 0)" stroke="rgb(60, 60, 60)" stroke-width="1px" opacity="0.25"></line><line x1="0" y1="64.56951706583138" x2="293" y2="64.56951706583138" fill="rgb(0, 0, 0)" stroke="rgb(60, 60, 60)" stroke-width="1px" opacity="0.25"></line><line x1="0" y1="49.50902925370424" x2="293" y2="49.50902925370424" fill="rgb(0, 0, 0)" stroke="rgb(60, 60, 60)" stroke-width="1px" opacity="0.25"></line><line x1="0" y1="34.44854144157708" x2="293" y2="34.44854144157708" fill="rgb(0, 0, 0)" stroke="rgb(60, 60, 60)" stroke-width="1px" opacity="0.25"></line><line x1="0" y1="19.388053629449956" x2="293" y2="19.388053629449956" fill="rgb(0, 0, 0)" stroke="rgb(60, 60, 60)" stroke-width="1px" opacity="0.25"></line><line x1="0" y1="4.327565817322778" x2="293" y2="4.327565817322778" fill="rgb(0, 0, 0)" stroke="rgb(60, 60, 60)" stroke-width="1px" opacity="0.25"></line></g></g></g><g><g><line x1="0" y1="185.05341956284857" x2="293" y2="185.05341956284857" fill="rgb(0, 0, 0)" stroke="rgb(153, 153, 153)" stroke-width="1.5px"></line></g></g><g><g><line x1="29.786736844891802" y1="0" x2="29.786736844891802" y2="177" fill="rgb(0, 0, 0)" stroke="rgb(153, 153, 153)" stroke-width="1.5px"></line></g></g><g><g><g><g><g><path stroke="rgb(255, 112, 67)" stroke-width="2px" d="M29.863372108142702,152.83598352055876L29.914292548840972,148.92138948807494L29.99067320988839,148.83281184739073L30.219815193030616,144.79621635639083L30.320128461206213,68.87636428184763L30.396509122253622,99.45273179979733L30.47288978330103,162.9300537790364L30.523810223999305,91.53670462058686L30.752952207141536,21.215927480419566L30.816857360217867,90.08477624218939L30.893238021265276,130.40729579138957L31.198760665454916,119.33140990576261L31.580663970691962,118.35520789777252L31.73342529278678,122.18313202391309L31.809805953834196,100.43413540062069L31.962567275929015,120.6058174826797L32.03894793697642,68.41779916046309L32.19170925907124,94.41734647734401L33.031896530592746,106.02887053610299L33.872083802114254,103.11744048278304L33.94846446316166,92.03965241669907L34.02484512420908,138.92155813941233L34.330367768398716,10.53311804759943L34.55950975154094,108.6510787361964L34.63589041258835,142.74524707090382L35.17055503992022,90.34676014327114L35.70521966725209,110.91685406672269L35.7816003282995,102.69295902589332L35.857980989346906,114.35554292778235L36.39264561667878,100.57760371228923L37.309213549247694,131.60098790529L37.53835553238992,79.407122798033L37.76749751553215,114.77045277020125L37.99663949867438,129.93247285313868L38.37854280391143,97.07607452670045L38.9132074312433,127.03145826179282L39.82977536381221,92.37302628851326L39.90615602485962,94.7699772991642L40.36443999114408,95.55108066071278L40.66996263533372,111.27761436067377L40.975485279523355,112.1907064655177L41.51014990685522,30.76361445917607L41.73929188999745,62.251701573812L41.89205321209227,105.37890965920907L42.121195195234506,94.7459035331557L42.42671783942414,62.805547284088576L42.65585982256637,122.24536397756393L42.96138246675601,-10.111877824083251L43.037763127803416,97.67224066910877L43.4451266533896,80.04281881413976L43.674268636531835,126.26454175545118L44.05617194176888,42.756878299579085L44.361694585958524,59.82814685964604L44.438075247005926,77.52747924484694L44.66721723014816,109.18495286294856L44.74359789119556,99.91012939110443L44.9727398743378,5.282604727459045L45.125501196432616,81.55694920222557L45.58378516271707,101.78679163826251L45.66016582376449,112.56024994067104L45.736546484811896,112.40599398229395L45.812927145859305,108.0062412549173L46.11844979004894,108.27311985471935L46.34759177319117,122.02230662147556L46.50035309528599,99.8028830107355L47.493301688902314,125.28959239011795L47.79882433309195,71.00387663154545L48.562630943566056,114.63943391155237L48.63901160461346,115.34187689091023L48.79177292670828,115.52069620561292L48.86815358775569,126.8381875386049L49.02091490985051,102.9574869487664L49.09729557089792,91.962777270307L49.555579537182375,112.6050748265524L49.63196019822979,98.36051548308053L50.01386350346684,132.34507252962788L50.31938614765648,112.74170223825996L50.4721474697513,113.66853240931034L50.5485281307987,134.29722750879108L50.70128945289352,127.05627081400183L51.465096063367625,114.59951565638161L51.54147672441503,143.58162551509315L51.61785738546244,127.86988559590782L52.458044656983944,105.34600697776663L52.68718664012618,60.529140829703834L52.839947962221,121.65687844108649L52.9163286232684,119.30913887996448L53.22185126745805,155.20433800233275L53.45099325060027,144.17026858910606L53.527373911647686,139.43560624000747L53.60375457269509,136.5636332230496L53.680135233742504,119.33041536846136L53.90927721688473,89.53462973498856L53.98565787793214,72.35608353804352L54.13841920002696,129.24214883996626L54.21479986107437,116.17583202589967L54.367561183169194,139.16919846513957L54.82584514945365,109.14871310724621L54.90222581050106,113.51310313961929L55.054987132595876,86.86232693803261L55.131367793643285,112.7115891344517L55.284129115738104,115.78411925609345L55.43689043783293,96.34304510993937L55.58965175992775,133.32316293562414L55.66603242097515,103.11543707191431L55.742413082022566,116.37424616358278L55.81879374306997,120.72152091898329L55.971555065164786,132.59887013494983L56.27707770935444,134.72312255989175L56.58260035354407,102.91197022288365L56.658981014591475,128.4146077125327L56.8117423366863,129.5036381621588L56.88812299773371,123.33922075417308L56.96450365878112,88.30438963674267L57.04088431982853,93.41476970432015L57.957452252397445,127.21676858718567L58.3393555576345,116.91181367383732L58.492116879729316,104.3678512022597L58.56849754077672,126.4277787196483L58.874020184966355,132.81642977390416L59.02678150706119,131.89053062214762L59.332304151250824,124.34081369796989L59.561446134393044,139.28768817060777L60.019730100677506,100.4462022651836L60.172491422772325,103.49316411515747L60.40163340591455,121.49932555106679L60.55439472800938,96.76553973549372L60.707156050104196,108.98515132877851L60.783536711151605,136.2724936651362L61.08905935534124,101.22072062696243L61.24182067743606,121.00267538598946L61.47096266057829,129.2656926240026L61.5473433216257,147.72578586307944L61.70010464372052,120.82833234500868L61.92924662686274,129.25071225154792L62.15838861000498,103.12715805750688L62.46391125419461,117.54295463510303L63.22771786466871,115.5740621079525L63.30409852571612,120.35629843483323L63.686001830953174,133.9509942081237L63.76238249200058,117.34698749748459L64.06790513619022,92.02653755138411L64.37342778037986,136.12536524268492L64.52618910247467,109.42232622635203L64.7553310856169,126.46018386680143L64.83171174666431,108.24897716572491L65.06085372980655,117.74236711272388L65.28999571294878,107.4522715712666L65.74827967923324,141.92406687232358L65.82466034028064,130.9205869972582L66.05380232342287,120.79345105807218L66.2829443065651,131.08970312454082L66.51208628970734,101.55815771473856L66.74122827284955,122.83572993275945L66.89398959494437,137.1252828184889L67.12313157808661,137.2128298512985L67.19951223913402,140.93425111351922L67.35227356122884,148.31376950903166L67.58141554437107,130.6403457807982L67.65779620541848,124.04690265845446L67.73417686646589,125.39641727662224L68.11608017170293,90.72119855482931L68.19246083275034,123.84547077160225L68.42160281589257,120.85652652582041L68.57436413798739,126.7779162551385L68.80350612112962,122.6564996223767L68.95626744322443,112.53528395028366L69.10902876531925,119.42520571329703L69.49093207055631,133.30992591651295L69.56731273160372,119.46432490281433L69.72007405369854,93.8654325649896L69.79645471474595,147.5892216660498L70.33111934207781,123.624047619889L70.56026132522004,102.30491685645399L70.63664198626745,131.61031765318097L70.86578396940968,116.2263036738461L71.24768727464674,105.29869349191563L71.40044859674155,96.68466318079656L71.62959057988378,118.23675635544959L71.70597124093119,125.32966485268071L71.85873256302601,137.8965047317006L72.39339719035787,145.73300944344984L72.77530049559493,149.42264420987107L72.85168115664233,61.33640366677918L73.23358446187939,102.27162563562203L73.61548776711642,124.85111470692897L73.99739107235348,116.05185315307128L74.53205569968536,108.44982248639278L74.60843636073275,116.44496866316007L75.14310098806463,147.27793893861124L75.52500429330166,104.69603022871816L75.7541462764439,138.65692324637223L76.28881090377577,128.27169108558724L76.74709487006024,93.27939882961184L76.82347553110763,120.46028273954309L77.20537883634468,142.11022476770898L77.58728214158174,113.56158365707839L77.66366280262915,130.34736061072854L77.81642412472397,131.8230229107912L77.96918544681878,151.76473858611647L78.19832742996101,147.9168386927552L78.27470809100842,121.42324727912181L78.35108875205584,141.8213852460611L78.50385007415065,137.2436580012179L78.73299205729289,139.68829462223994L79.49679866776698,133.1358084266349L79.72594065090921,135.2823714826044L79.87870197300403,110.32189414898413L80.26060527824107,117.58535141277187L80.3369859392885,123.07262448173938L80.71888924452553,111.52612083018353L80.87165056662036,103.68984911915716L81.40631519395222,131.30819300625978L81.63545717709444,111.47471665655964L82.17012180442632,131.20492809044669L82.39926378756854,118.38691157777617L82.70478643175818,95.47903951083762L82.85754775385301,136.9722686860094L82.93392841490041,116.78322861221852L83.01030907594782,128.73922505080742L83.31583172013745,144.035972892287L83.69773502537451,106.53779150830167L83.92687700851674,143.85840421561355L84.15601899165897,132.21627535972578L84.30878031375379,124.83620467135125L84.46154163584862,130.16548010803854L84.53792229689601,143.2094641483905L84.99620626318048,125.10764118536844L85.2253482463227,86.98244191905282L85.37810956841753,121.73406010735795L85.53087089051233,134.4592204919531L85.68363221260717,115.44854817846809L85.9891548567968,118.76697132029443L86.29467750098644,141.17245665271312L86.44743882308127,148.00382954574437L86.8293421283183,131.738735404969L86.98210345041313,143.81430223098292L87.59314873879241,153.39453125941967L87.89867138298204,127.49245442726146L88.20419402717168,120.4354438144739L88.58609733240873,108.3891184710715L88.66247799345615,108.26434082649008L89.42628460393024,116.77746051927845L89.50266526497765,151.08965046958625L89.80818790916729,118.04878021941968L90.11371055335692,105.73143500297779L90.19009121440433,136.33429067711498L90.34285253649915,128.77639926922495L90.7247558417362,112.42699281212062L90.87751716383103,116.76998436693572L90.95389782487842,46.709249000652875L91.10665914697326,113.23488097169346L91.25942046906808,125.37787384230722L91.4121817911629,143.76701422895866L91.4885624522103,68.07651325955067L92.02322707954217,132.3103059564865L92.48151104582664,144.04188346236637L92.78703369001627,135.35330737777605L92.93979501211108,142.74841879181682L93.01617567315849,99.48776017890164L93.16893699525332,122.54334377980032L93.32169831734814,116.08627919032831L93.70360162258518,127.4216729040999L93.77998228363259,146.85164265690375L93.85636294468001,121.5359245313022L94.00912426677482,136.54853720888934L94.16188558886965,125.55093955715948L94.39102757201186,120.34916037447013L94.54378889410668,126.33569641446223L94.62016955515409,99.03995448051386L95.15483418248596,141.3941466794278L95.30759550458079,103.75320341902473L95.46035682667559,111.23154959916795L95.61311814877043,136.92163429204862L96.30054409819711,131.12737852582725L96.37692475924453,136.2512532385599L96.52968608133934,97.92761554374835L96.68244740343417,126.36344398351923L97.44625401390824,124.04652287163735L97.67539599705049,99.87444903909277L98.05729930228753,100.80570252165562L98.43920260752458,103.82764725322926L98.59196392961941,125.01406131219682L98.66834459066682,89.41222310715906L98.74472525171421,124.8159789791224L98.82110591276162,133.03046799747185L98.97386723485646,145.5042921863436L99.12662855695127,153.07086773914074L99.43215120114091,100.56408455499786L99.58491252323573,113.34661849939829L99.81405450637796,140.64643040105483L100.27233847266243,127.95032110827682L101.0361450831365,122.27623986639927L101.18890640523134,108.79045260343581L101.34166772732615,108.02263094235076L101.7235710325632,140.94484164191266L102.02909367675284,128.08757598945803L102.18185499884767,139.87648932161187L102.33461632094247,116.12721957603819L102.41099698198988,115.66689613365685L102.64013896513211,129.22425382951803L102.79290028722694,129.32214630574578L103.25118425351138,122.01108591346019L103.63308755874844,77.22574296834316L104.24413284712772,130.19420338689656L104.32051350817513,125.49828835743841L104.39689416922255,121.08847144479526L104.47327483026994,121.0929942333317L104.62603615236476,120.96973491937091L104.7787974744596,147.41506072699332L104.85517813550699,121.22932039113495L105.6953654070285,133.46698272313125L105.92450739017073,70.73797047388535L106.00088805121814,115.9528967349835L106.40825157680432,88.27441621798059L106.48463223785173,134.50009676878295L106.79015488204138,133.76274684832458L107.01929686518359,110.61868083548228L107.09567752623101,116.99197020216363L107.24843884832583,131.03537137581807L107.40120017042065,146.52372774396912L107.47758083146806,129.4513927691658L107.93586479775253,114.49628330197898L108.01224545879992,132.86328449010782L108.08862611984733,133.42593679729808L108.16500678089476,130.496548682415L108.31776810298958,137.84624792561954L108.39414876403697,135.87987819331454L108.5469100861318,86.98383259624698L108.6996714082266,130.92624858216777L108.77605206927403,106.05752827734199L108.85243273032144,127.49884588265824L109.3107166966059,90.40211968579086L109.3870973576533,126.7724096712851L109.46347801870071,83.54156662139532L109.53985867974812,117.15054167817394L110.53280727336445,117.55548852124284L110.68556859545927,133.26938493754017L110.83832991755409,128.2164813564819L111.29661388383855,132.62608393059674L111.83127851117042,128.28715025529635L112.21318181640746,135.25013778802384L112.28956247745487,139.52296042499378L112.97698842688156,126.47380062967835L113.05336908792897,121.21462370630309L113.81717569840306,91.64218669107613L113.96993702049788,139.2703408271386L114.1226983425927,90.59222978310122L114.35184032573494,130.06998248387194L114.58098230887717,134.17291684728852L114.73374363097199,120.11957570517032L114.8865049530668,125.54537899730477L115.11564693620903,136.7806082428819L115.26840825830385,99.5897920333993L115.49755024144608,99.49314970748622L115.72669222458832,135.51288208318667L115.80307288563571,149.04696867273L116.03221486877796,145.64399744961725L116.18497619087276,141.9093609128434L116.79602147925205,125.0328855715191L116.87240214029946,139.6011780249104L117.02516346239429,98.09341324037368L117.1779247844891,121.31489606013817L117.33068610658393,136.0206402488567L117.78897007286837,148.31052505480525L117.9417313949632,144.06599881536607L118.7819186664847,141.13677520304878L118.9346799885795,114.15692199657154L119.24020263276917,142.3586961777404L119.31658329381656,143.54323679244726L119.39296395486397,144.7527948669334L119.5457252769588,128.54515218791104L119.6221059380062,154.38681815119898L119.92762858219584,123.10656368262693L120.15677056533808,133.9808889246802L120.84419651476476,139.5330853100823L121.07333849790699,125.63002631405524L121.76076444733368,122.77554592186462L122.06628709152332,129.61791440859457L122.21904841361813,133.84883758914498L122.37180973571296,103.69286660478251L122.44819039676037,125.94837757273302L122.52457105780776,140.97674799913068L122.8300937019974,132.10248859726804L122.90647436304482,140.7152729090924L122.98285502409223,121.63347179495952L123.05923568513964,110.8565021073339L123.36475832932928,142.11362419149143L123.5939003124715,151.22816416556572L123.67028097351893,136.8052430232554L123.89942295666114,126.35798691461376L123.97580361770856,138.87450194294357L124.35770692294561,134.8927487975457L124.51046824504043,146.66116348012923L124.81599088923006,143.05689367533887L124.96875221132488,142.2006426081448L125.04513287237228,134.4135926317628L125.35065551656194,130.44192646920018L125.65617816075158,118.53572726517189L125.88532014389381,130.4315360704205L126.57274609332049,128.11207236195438L127.18379138169976,148.72521591340373L127.41293336484199,109.6774975832697L127.56569468693682,145.7137254100541L127.64207534798422,130.86352799324922L127.79483667007904,116.69983805400315L127.87121733112646,148.1988705922483L127.94759799217385,131.96148163741213L128.1003593142687,149.13471159241445L128.17673997531608,132.12181390378066L128.48226261950572,130.94026422776543L128.63502394160054,132.66481866763374L128.78778526369535,120.6858950124554L128.9405465857902,134.17448165278026L129.0169272468376,114.84800512224484L129.47521121312204,143.98522978391117L129.55159187416947,139.17805842348838L129.70435319626426,134.57392690321046L130.5445404677858,129.6184791786258L130.6209211288332,138.59714550991814L130.77368245092802,126.95650485478558L130.92644377302284,143.13801907231976L131.07920509511766,86.64723100903495L131.3847277393073,141.92223019690334L131.84301170559175,136.2903727309712L132.07215368873398,139.8630346374224L132.2249150108288,155.0653998347489L132.60681831606587,125.49321988275429L133.14148294339773,124.08503719205504L133.29424426549252,120.52494348050288L133.752528231777,126.89256280452688L134.05805087596664,157.4084527270895L134.5927155032985,141.26820345514653L134.74547682539333,121.4993874670769L134.89823814748814,110.82585951080839L135.17830057132866,145.05658580774417L135.4074425544709,137.24794215632608L135.4838232155183,144.8977795485874L135.86572652075532,135.78665622386484L135.94210718180275,139.08409237429458L136.17124916494495,133.26972531556117L136.2476298259924,98.6681303078798L136.93505577541907,141.0739582639908L137.0878170975139,151.27873018810848L137.1641977585613,129.3861598932472L137.69886238589316,149.60202943350498L137.77524304694057,145.17690516846667L137.85162370798798,147.51263333720757L138.0043850300828,153.53173951377838L138.9209529626517,150.63924197003442L139.07371428474653,141.85208860853842L139.22647560684135,121.53575994591242L139.45561758998358,145.76407843629954L139.60837891207842,127.15715047007984L139.83752089522065,144.18128870089345L139.91390155626806,137.88204683726005L140.06666287836285,142.0705129599678L140.44856618359992,114.85845430678285L140.52494684464733,72.01967143243661L141.28875345512142,142.12844304427162L141.36513411616883,128.26634566332217L141.51789543826365,111.64246604520017L141.9761794045481,158.99338805623458L142.12894072664292,90.68629643134003L142.43446337083256,120.88359144709563L142.89274733711704,143.48582103645217L143.19826998130668,122.08043723425979L143.50379262549632,144.70938611098472L143.6565539475911,135.32341511838194L143.80931526968595,103.02103164997209L144.2675992359704,117.34211456991888L144.42036055806523,148.59740396766531L144.4967412191126,141.39788610000042L144.57312188016004,144.4540712486489L145.1077865074919,138.23972522773823L145.33692849063414,139.5190231332066L145.41330915168155,150.44960812914488L145.48968981272895,133.65280612910655L145.64245113482377,139.52383996181027L145.71883179587118,145.13888357648815L145.871593117966,108.51446143070999L146.40625774529786,133.19254277664953L146.7117803894875,146.1866910713484L146.7881610505349,128.01058815391752L146.86454171158232,138.08256743939407L147.47558699996162,109.89869879833243L147.78110964415123,130.1472098269873L147.85749030519867,143.47285858583655L148.01025162729348,131.0729138692029L148.3921549325305,144.2830351517247L148.9268195598624,149.6008125641121L149.15596154300462,113.7750297453313L149.38510352614685,146.1561851115827L149.53786484824167,153.3024174854355L149.8433874924313,159.9159325697292L149.99614881452615,150.2405719252183L150.07252947557353,118.11688696353542L150.30167145871576,146.29753112852828L150.6835747639528,160.93808757331723L150.83633608604765,154.49531139125784L150.91271674709503,147.40843715636458L150.98909740814244,122.79830170087473L151.06547806918988,148.9820328446268L151.2182393912847,151.08534761311884L151.29462005233208,141.27321186650926L151.3710007133795,141.44708928695107L151.44738137442693,143.12983191225305L151.5237620354743,135.52871899420708L151.67652335756915,152.2445745941753L151.90566534071138,146.98889752950552L152.13480732385358,139.8684631917606L152.21118798490102,146.2324901545138L152.59309129013803,142.25604632097387L152.66947195118547,127.86559973384895L152.9749945953751,126.91216278947459L153.05137525642252,139.70772343216882L153.2041365785173,154.14654915294327L153.43327856165956,154.82667640667015L153.81518186689664,135.20609860001804L154.04432385003884,111.4167823150151L154.12070451108625,142.22512219322175L154.5026078163233,150.39717400723003L154.5789884773707,132.91828032634308L155.03727244365518,140.19510592023326L155.19003376574997,135.30875394655263L155.41917574889223,132.21273939612874L155.49555640993964,152.11132286051048L155.57193707098702,144.82884855070503L156.56488566460334,121.43830931743102L157.25231161403005,154.685071841503L157.7105955803145,159.88854880004047L157.93973756345673,142.36637650760815L158.77992483497823,136.18530052278345L158.85630549602567,136.74563452820453L158.93268615707305,156.74954445042118L159.00906681812046,158.64457738321346L159.849254089642,148.50178755229174L160.23115739487903,143.39038296015445L160.30753805592644,139.9244907195249L160.38391871697382,141.48031137755254L160.46029937802126,131.3933029528347L160.53668003906867,151.07461728879312L160.61306070011605,145.0371147146559L160.6894413611635,160.2640253880038L160.7658220222109,132.35576642032441L160.9949640053531,155.79032054858678L161.6060092937324,111.57121780333274L161.75877061582722,147.8414100501667L161.98791259896944,150.16762257965104L162.06429326001685,146.40650312918254L162.14067392106426,135.41676624258088L162.2170545821117,156.64584948592974L162.3698159042065,136.80516717986157L162.5225772263013,125.94297898453186L162.59895788734872,140.22720653812996L162.90448053153835,131.05509414197894L162.98086119258576,142.48220750243308L163.0572418536332,148.7503065492239L163.13362251468058,140.83804486899115L163.43914515887025,160.13140159065185L163.66828714201247,130.7823518863854L163.8974291251547,151.45908950038992L164.12657110829693,134.36246240072705L164.2029517693443,149.36762932016742L164.43209375248654,155.4484416597595L164.58485507458136,130.34125252295496L164.6612357356288,146.1810836393869L164.96675837981843,131.1067249653072L165.11951970191325,148.17691791549024L165.73056499029252,144.18876252910263L165.88332631238734,146.04734235239025L165.95970697343475,149.95443601415613L166.11246829552957,153.98276700117913L166.2652296176244,145.1724831433131L166.3416102786718,149.3501167971314L166.57075226181402,133.9285890105853L166.72351358390884,130.44573182741425L166.79989424495625,122.88844961307404L167.1054168891459,148.6314463117481L167.56370085543034,111.2166490836536L168.40388812695184,131.68467031471127L168.48026878799928,141.06855001514342L168.5566494490467,135.5249978731187L168.63303011009407,150.35401029214444L168.86217209323632,137.91891945586403L169.60051848336127,144.41952990296494L169.67689914440868,156.20966437679795L169.90604112755094,158.8152725084576L169.98242178859834,138.6874761116338L170.21156377174054,146.850747713606L170.44070575488277,142.460508767364L170.89898972116723,128.72906791405882L171.2045123653569,152.489314401174L171.28089302640427,142.0521391871558L171.43365434849912,146.40405586475822L171.58641567059394,144.0010515201899L171.73917699268875,144.31719476578314L171.81555765373616,146.85745967683002L172.27384162002062,156.02781446536494L172.65574492525766,168.55441345412885L173.0376482304947,154.87762819906595L173.19040955258953,151.551969469738L173.34317087468438,146.2405367363042L173.41955153573176,147.21027746833548L173.64869351887398,140.76733823321138L173.8778355020162,141.1051302604438L174.10697748515844,148.6904652033724L174.18335814620588,155.2095760910151L174.94716475667997,152.27131338530586L175.1763067398222,149.5645497434276L175.40544872296442,163.87444354176444L175.4818293840118,153.8501542899768L175.63459070610665,150.17943627765084L175.71097136715403,156.47860226837702L175.78735202820147,146.22646531425258L176.55115863867556,136.06529879886992L177.31496524914968,154.14877992477716L177.6204878933393,140.16436965924385L178.00239119857636,150.87638083653138L178.4606751648608,148.4948446029769L178.68981714800302,154.62787687147588L178.84257847009786,136.89484884018955L179.1481011142875,147.07368197267516L179.60638508057195,162.5352449670371L179.68276574161936,107.12905982965553L179.75914640266677,142.1821675229717L179.83552706371418,109.84892500933222L180.44657235209345,107.3767079540802L180.7520949962831,144.8599685953354L180.98123697942532,148.32529809893103L181.05761764047273,132.19607716462173L181.43952094570977,142.37241549011958L181.51590160675718,153.61526774794612L181.59228226780462,153.87958744913334L182.81437284456317,155.36955598037082L183.0435148277054,150.55895228017886L183.27265681084762,136.2006640700901L183.34903747189503,149.45405615811632L183.9600827602743,149.3362141772086L184.11284408236912,153.44092011517333L184.34198606551135,151.54134199329155L184.41836672655876,165.55206811887888L184.57112804865358,151.59880265233065L184.95303135389065,157.58258539442159L185.3349346591277,146.39835176066222L185.79321862541215,156.86293312093937L185.86959928645953,156.72760354074686L186.25150259169658,158.95929837298044L186.40426391379143,144.29556072707422L186.4806445748388,155.38551815043553L186.9389285411233,154.53576542317933L187.09168986321808,155.9380521095401L187.39721250740774,168.11664118660073L187.62635449054997,159.2097495113993L188.23739977892924,159.6472817036224L188.46654176207147,156.7030480469439L188.6956837452137,143.0016462508563L188.7720644062611,134.28025419437444L189.6122516777826,147.21554034174008L189.76501299987746,130.06000219563185L189.99415498301968,159.87860719086277L190.2232969661619,155.07308455936635L190.52881961035152,134.58641504103014L190.75796159349377,127.22828541736773L190.987103576636,152.92128887796375L191.21624555977823,153.40018632785228L191.36900688187305,125.45728240174073L191.44538754292046,160.09677856016282L191.67452952606268,136.8252705912464L192.13281349234717,157.8878972433644L192.28557481444196,156.33564897153522L192.36195547548937,159.2373425234778L192.43833613653678,149.6233957282996L192.51471679758419,138.50846587340487L192.89662010282123,153.5835221080665L192.97300076386867,159.21521648338918L193.04938142491605,161.87872766447535L193.20214274701087,164.95234914295543L193.35490406910571,141.76148395058527L193.4312847301531,158.21401566844918L193.5076653912005,151.8068109610815L193.58404605224794,142.82609420746456L193.73680737434273,110.3644046173043L194.11871067957978,132.22158042840064L194.19509134062722,148.03638224220947L194.2714720016746,145.41156065856603L194.72975596795905,149.2384233526297L194.8061366290065,159.47375890173555L195.03527861214872,153.8330213003093L195.1116592731961,158.06961896852852L195.18803993424353,162.34363533798557L195.34080125633832,159.74560350181747L195.56994323948058,132.84030079678286L195.9518465447176,142.22553216907303L196.33374984995467,142.7653536461086L196.4865111720495,158.18388767413506L196.6392724941443,155.8326725236898L196.86841447728654,150.07039346553012L197.09755646042876,142.78475471776449L197.25031778252358,134.20575509597234L197.326698443571,145.25369312270857L197.78498240985547,124.1798744999101L198.70155034242435,151.88726766930785L199.00707298661402,151.82798068078878L199.15983430870884,142.05961817743452L199.38897629185107,127.97682929546318L199.84726025813552,147.0291763333827L200.38192488546738,134.95596932342931L200.4583055465148,143.10650268889862L200.68744752965702,124.45092670105271L200.76382819070446,147.7555883697026L200.9929701738467,149.97207081588306L201.2984928180363,126.69921586473325L201.37487347908373,137.12832217287936L201.52763480117852,159.34329877619624L201.60401546222596,138.14912499132166L201.75677678432078,154.09273724705884L202.1386800895578,137.86349664150742L202.21506075060523,145.5475974143533L202.44420273374746,159.21972180786568L202.52058339479484,163.56870802953102L202.97886736107932,143.36071458308683L203.1316286831741,153.06583980876187L203.20800934422155,162.62546264617828L203.36077066631634,135.77405298005908L203.666293310506,116.25036606148296L203.76813419190256,154.09731055017258L203.9972761750448,148.84281550069218L204.22641815818702,116.8842066945825L204.60832146342406,122.5260236071652L204.76108278551888,153.37502279297763L204.9138441076137,144.8324417742641L205.6776507180878,163.41318838719292L205.8304120401826,164.71294706201203L205.90679270123005,152.36611769397445L206.44145732856188,140.92496518772856L206.74697997275155,149.4130410483598L207.35802526113082,156.41206706676823L207.58716724427305,165.08429905152198L207.73992856636787,153.83781562335423L208.1218318716049,157.4092681716587L208.35097385474714,151.37639990143913L209.95496773674273,154.15892192690578L210.10772905883758,108.85898349828031L210.41325170302719,148.65523931610244L210.6423936861694,159.3261620603026L211.10067765245387,147.11377645007258L211.78810360188058,161.8195933330932L212.0172455850228,140.34385507672627L212.0936262460702,130.5142778511768L212.17000690711762,147.81105061897384L212.70467153444946,111.94300966587559L213.39209748387617,151.97834787607178L213.544858805971,150.93264678415034L213.77400078911322,160.16716792732998L213.92676211120806,159.55199752703993L214.00314277225544,156.08436918183745L214.23228475539767,161.02185648041902L214.3086654164451,159.7229966853449L214.4614267385399,155.47655036090725L214.61418806063472,172.23141839782312L214.84333004377694,145.66010260223442L214.99609136587176,149.70227333377662L215.75989797634588,155.51027727661287L215.8362786373933,160.06880602475064L216.0654206205355,165.77758681944L216.14180128158293,161.0362772571684L216.44732392577257,148.01301665695243L216.7528465699622,158.80684744035852L216.8292272310096,145.09595428851398L216.98198855310443,150.1542603639334L217.6694145025311,156.34050276342023L217.97493714672075,158.43730574551336L218.66236309614743,141.78011787624413L218.81512441824225,148.5845003833267L218.89150507928966,152.26763695158476L219.2734083845267,150.0560930877294L219.34978904557414,159.38711475110676L220.03721499500082,149.022496880522L220.26635697814305,148.42357184557787L220.41911830023787,154.74238108039734L220.72464094442748,150.0985394578214L220.87740226652232,131.01161736922325L220.95378292756973,158.49122120694287L221.18292491071196,126.4086369555412L221.25930557175937,144.0613491522652L221.33568623280678,147.56119967670682L221.4884475549016,145.9880095199278L221.564828215949,151.00481416134392L221.79397019909123,148.74654596491575L221.94673152118608,150.1213990453292L222.02311218223346,155.62311212785954L222.2522541653757,162.5615367837963L222.32863482642313,155.5016412452228L222.4050154874705,140.14249389128838L222.55777680956535,147.0101859702832L222.78691879270758,140.32396015973768L223.55072540318167,151.9278913201016L223.7798673863239,150.94569570533352L224.0853900305135,125.76833727562433L224.31453201365574,151.16426242381164L224.46729333575058,146.76099545418754L224.543673996798,155.25123346833365L224.6964353188928,162.3058649244491L225.00195796308245,149.50844838349167L225.15471928517726,162.56118399561026L225.30748060727208,142.96031286903923L225.53662259041434,159.15852298076692L225.76576457355654,146.0479513516452L225.91852589565136,129.56494348229018L226.3004292008884,136.6707740305483L226.45319052298322,146.7880827626742L226.52957118403066,163.25315288837797L226.9878551503151,165.13468404051932L227.0642358113625,151.2065730968639L227.36975845555216,142.14052326861454L227.44613911659954,145.59336269834938L227.98080374393143,159.9978118279431L228.66822969335811,157.35015394903652L229.3556556427848,123.21441928684624L229.89032027011666,145.66937536983195L229.9667009311641,152.83922619801513L230.1958429143063,161.94935514399796L230.8068882026856,139.3619259245187L230.95964952478042,154.1732879506104L231.1124108468752,157.37845588909963L232.25812076258637,150.10567614881222L232.33450142363375,162.31057913154817L232.7164047288708,156.63642376255405L232.94554671201303,152.0221518445876L233.3274500172501,163.94585647712586L233.55659200039236,151.82664656582884L234.01487596667678,153.80716719210704L234.39677927191386,123.74423580089112L234.47315993296124,156.13838509652788L234.7786825771509,156.29321669759148L235.00782456029313,145.68880333770232L235.23696654343536,135.35065023750025L235.31334720448274,148.658466499785L235.54248918762497,143.8485792365798L235.77163117076722,143.96323200161504L235.924392492862,121.93688782384132L236.3826764591465,130.0514661901875L236.53543778124128,155.19315473145176L236.61181844228872,156.6506696158611L236.76457976438354,130.53627253847228L236.99372174752577,141.04737194439141L237.222863730668,153.53454081678174L237.3756250527628,160.7984321480007L237.52838637485763,142.3873371920975L237.68114769695245,154.40351155828188L237.7575283579999,136.71223601032224L238.0630510021895,160.52126555833033L238.1394316632369,140.91676211105073L238.21581232428431,153.84758105167685L238.29219298533172,146.2192305562316L238.36857364637916,133.20107794285184L238.44495430742654,63.4768372057313L238.52133496847395,147.70449551547006L238.5977156295214,147.57514802205924L238.67409629056877,145.71772534680576L238.7504769516162,155.05406458386122L238.82685761266362,138.74693566121164L238.903238273711,129.6224936328981L238.97961893475843,132.9491817135834L239.05599959580582,146.69080351202845L239.13238025685322,155.67040693696472L239.20876091790066,161.95058549869998L239.28514157894804,142.05050244969044L239.36152223999548,149.28173381317026L239.4379029010429,154.6716160713608L239.51428356209027,157.6441217602685L239.5906642231377,164.33045605668934L239.66704488418512,168.33960472195986L239.7434255452325,155.24250271295787L239.81980620627994,145.45606613171395L239.89618686732732,140.4291438573854L239.97256752837475,160.45040186331252L240.04894818942216,155.6025665086991L240.2780901725644,160.42225628412322L240.50723215570662,161.99942594222404L240.58361281675403,142.6611424673518L240.65999347780144,155.39374412217293L240.96551612199104,162.25833477333106L241.2710387661807,134.45793207389062L241.34741942722815,139.82939828969484L241.42380008827553,146.73454471189328L241.65294207141775,141.26387216817608L241.80570339351257,142.38727222916276L242.18760669874965,150.86660232350744L242.49312934293926,151.63893437735948L242.5695100039867,152.57710878718456L243.25693595341338,161.1944916875154L243.33331661446076,151.24017223696237L243.48607793655557,145.40540232780273L243.7152199196978,112.42072028483543L243.79160058074524,148.8667682820852L243.86798124179265,152.74554315813631L244.02074256388747,157.88066988228087L244.4026458691245,144.4470656623502L244.5554071912193,125.68400870999466L244.86092983540897,140.59594324250077L244.93731049645638,159.90109991243042L245.01369115750379,146.55655433242836L245.0900718185512,146.20466485214007L245.31921380169342,160.12059001083486L245.70111710693047,157.1387548249507L246.0066397511201,153.0828681638312L246.46492371740456,148.59171481836756L246.77044636159422,126.25073346066435L247.15234966683124,123.23913762849094L248.06891759940018,128.91632389367396L248.14529826044756,142.98863001136357L248.90910487092168,144.01111554519244L249.21462751511132,154.87571883156266L249.59653082034836,154.28840037376392L249.67291148139577,148.95120888869525L249.74929214244318,151.88415453358454L250.20757610872766,144.31037145177262L250.51309875291727,155.910725395332L250.6658600750121,161.81532292241803L250.97138271920176,162.86161685421118L251.73518932967582,140.88958943460182L251.96433131281805,138.80484071775066L252.1170926349129,159.65958317073813L252.1934732959603,137.31546335324424L252.2698539570077,159.5914884910702L252.88089924538698,123.80814828055068L253.0336605674818,128.80684050083457L253.41556387271885,145.61831183893324L253.8738478390033,163.5409269904115L254.10298982214553,165.9007183780721L254.33213180528776,158.89994479892212L254.48489312738258,143.35944918134092L254.63765444947742,141.51920197381116L254.79041577157224,158.09146366383735L255.09593841576185,152.52215233042645L255.5542223820463,131.7444816294715L256.01250634833076,160.20138705344124L256.1652676704256,115.94779704718547L256.54717097566265,134.52555070189612L256.62355163671003,137.9773731956258L256.69993229775747,139.03080337194143L256.8526936198523,161.8313585508648L256.9290742808997,130.4081526298885L257.2345969250893,143.8077628055358L257.3873582471842,160.83626547697915L257.6928808913738,128.4846357843934L257.922022874516,145.89085294772386L258.6094488239427,138.47021895211043L258.99135212917975,158.31866934607896L259.0677327902272,166.37984218474324L259.3732554344168,169.97424917887028L259.4496360954642,162.76518932259498L259.602397417559,150.43908068245452L259.75515873965384,157.16209824952622L259.9079200617487,151.1182892635734L259.9843007227961,152.4051906976835L260.0606813838435,153.34000747561242L260.44258468908055,162.95913935378647L260.67172667222275,151.20311472956487L260.7481073332702,146.97425855520163L260.900868655365,124.3733654796364L261.0536299774598,157.36665044186648L261.35915262164946,155.08248848550255L261.43553328269684,147.96511597046563L261.8174365879339,154.65295572123136L261.8938172489813,156.25999766397106L262.199339893171,141.96768440812744L262.27572055421837,147.67384335460642L262.3521012152658,161.92873976616L263.57419179202435,169.9450415215283L263.95609509726137,163.939793983473L264.0324757583088,144.9860764373419L264.10885641935624,159.40750074775642L264.49075972459326,150.00134073315323L264.5671403856407,150.3880129996138L264.7962823687829,144.16190837406242L264.8726630298303,133.23363050306313L265.17818567401997,157.63062820473272L265.3309469961148,147.981590331385L265.8656116234466,157.2398968280732L265.94199228449406,155.69819939662972L266.2475149286837,143.9455026578114L266.4002762507785,159.89244949983214L267.01132153915773,156.73421634427712L267.7751281496318,163.3335729738322L267.85150881067926,122.35961036961939L268.61531542115335,144.45369837184134L268.99721872639043,148.56058814281238L269.53188335372226,158.3820827627867L269.6846446758171,161.46826053645543L270.14292864210154,164.15455326950308L270.3720706252438,160.18155695015795L270.52483194733855,146.88879023200133L271.2886385578127,159.5269032465599L271.3650192188601,152.50609753420906L271.74692252409716,151.35500610131882L272.0524451682868,155.59822540823586L272.35796781247643,155.59907377166934" style="fill: none;" fill="none"></path></g></g></g></g><g opacity="0.2"><g><g><g><path stroke="rgb(255, 112, 67)" stroke-width="2px" d="M29.863372108142702,152.83598352055876L29.914292548840972,148.43597982804692L29.99067320988839,148.82046625014272L30.219815193030616,144.2259155533958L30.320128461206213,58.13225929117114L30.396509122253622,103.78076652645665L30.47288978330103,171.91539545936132L30.523810223999305,81.43080130424929L30.752952207141536,11.261845427921571L30.816857360217867,99.83333467514672L30.893238021265276,136.115049695275L31.198760665454916,117.76359044266744L31.580663970691962,118.21702405189447L31.73342529278678,122.72498429747549L31.809805953834196,97.35551030782649L31.962567275929015,123.46116974087063L32.03894793697642,61.03045410115392L32.19170925907124,98.09764769571527L33.031896530592746,107.67251092798212L33.872083802114254,102.70532024692497L33.94846446316166,90.47156369501596L34.02484512420908,145.55780963440827L34.330367768398716,-7.640588084118377L34.55950975154094,122.53992248663707L34.63589041258835,147.5713622233053L35.17055503992022,82.92962272429116L35.70521966725209,113.8286025216405L35.7816003282995,101.52884602924622L35.857980989346906,116.00641096868901L36.39264561667878,98.62730181420572L37.309213549247694,135.99242585041796L37.53835553238992,72.01895011161763L37.76749751553215,119.77622093977756L37.99663949867438,132.07869487401112L38.37854280391143,92.42516882752427L38.9132074312433,131.27171805991094L39.82977536381221,87.46703820097142L39.90615602485962,95.10927173446181L40.36443999114408,95.66164780321509L40.66996263533372,113.50374470176413L40.975485279523355,112.31995694611204L41.51014990685522,19.237405088415386L41.73929188999745,66.70891938455956L41.89205321209227,111.48367427403697L42.121195195234506,93.24077481211619L42.42671783942414,58.284309641526576L42.65585982256637,130.6592193086038L42.96138246675601,-28.847377805138308L43.037763127803416,112.92935333252865L43.4451266533896,77.54732987576514L43.674268636531835,132.80734271974637L44.05617194176888,30.936158814957935L44.361694585958524,62.24462779737239L44.438075247005926,80.03286419435028L44.66721723014816,113.66614775866157L44.74359789119556,98.59725483572923L44.9727398743378,-8.112159037714491L45.125501196432616,92.35377421920163L45.58378516271707,104.6503766406239L45.66016582376449,114.08526002000742L45.736546484811896,112.38415866398486L45.812927145859305,107.38344520674983L46.11844979004894,108.31089719076438L46.34759177319117,123.968538538231L46.50035309528599,96.65766779642983L47.493301688902314,128.89730011048715L47.79882433309195,63.319597231930175L48.562630943566056,120.81615663155335L48.63901160461346,115.44130945876454L48.79177292670828,115.54600852869868L48.86815358775569,128.44020685971336L49.02091490985051,99.57711380591255L49.09729557089792,90.40644850303649L49.555579537182375,115.52704388702548L49.63196019822979,96.34416233400462L50.01386350346684,137.1556719289108L50.31938614765648,109.96679594130835L50.4721474697513,113.7997275476782L50.5485281307987,137.21727110734773L50.70128945289352,126.03129520880336L51.465096063367625,112.83623067973218L51.54147672441503,147.68411595171443L51.61785738546244,125.64584935163958L52.458044656983944,102.15769539255028L52.68718664012618,54.1852008726721L52.839947962221,130.30966321712697L52.9163286232684,118.97681044893808L53.22185126745805,160.28539358586434L53.45099325060027,142.6083683525306L53.527373911647686,138.76540289378804L53.60375457269509,136.15709822978158L53.680135233742504,116.89101010137352L53.90927721688473,85.31696144897185L53.98565787793214,69.92441718139835L54.13841920002696,137.29451424800098L54.21479986107437,114.32626206591766L54.367561183169194,142.42396723051144L54.82584514945365,104.8992380109234L54.90222581050106,114.1308935094986L55.054987132595876,83.08984263552493L55.131367793643285,116.37061711659322L55.284129115738104,116.2190436112117L55.43689043783293,93.59111223993582L55.58965175992775,138.55779148629185L55.66603242097515,98.8394576117545L55.742413082022566,118.25106388888744L55.81879374306997,121.33688857842355L55.971555065164786,134.2801387454291L56.27707770935444,135.02381582552277L56.58260035354407,98.40902171855832L56.658981014591475,132.02457009691224L56.8117423366863,129.65779315731137L56.88812299773371,122.46663198865912L56.96450365878112,83.3451213050516L57.04088431982853,94.13815683717358L57.957452252397445,132.00152641992005L58.3393555576345,115.4531214258291L58.492116879729316,102.59222181130579L58.56849754077672,129.55041686137912L58.874020184966355,133.72075937519153L59.02678150706119,131.75946727189898L59.332304151250824,123.27213230687624L59.561446134393044,141.40345579002226L60.019730100677506,94.94809238816008L60.172491422772325,103.92446921720857L60.40163340591455,124.04814292327313L60.55439472800938,93.26441023648566L60.707156050104196,110.71486803833024L60.783536711151605,140.13508550270285L61.08905935534124,96.25905412384193L61.24182067743606,123.80286076283804L61.47096266057829,130.43534346591318L61.5473433216257,150.3388584220355L61.70010464372052,117.0209302488434L61.92924662686274,130.4429212794142L62.15838861000498,99.42930335424079L62.46391125419461,119.58354684471709L63.22771786466871,115.29536042602707L63.30409852571612,121.03323599708574L63.686001830953174,135.87535753676298L63.76238249200058,114.9966486480334L64.06790513619022,88.44236427134248L64.37342778037986,142.36766505286909L64.52618910247467,105.64244399116335L64.7553310856169,128.87193540494724L64.83171174666431,105.6711351212803L65.06085372980655,119.08618030156849L65.28999571294878,105.99568270466762L65.74827967923324,146.8036360701901L65.82466034028064,129.3630167866325L66.05380232342287,119.359929532434L66.2829443065651,132.54716346271675L66.51208628970734,97.37789329599943L66.74122827284955,125.84762371704551L66.89398959494437,139.14800491646886L67.12313157808661,137.22522235365966L67.19951223913402,141.4610276392217L67.35227356122884,149.3583588709535L67.58141554437107,128.13862826675603L67.65779620541848,123.11358422561126L67.73417686646589,125.58744446001586L68.11608017170293,85.81283426087688L68.19246083275034,128.53429469269798L68.42160281589257,120.43343396134902L68.57436413798739,127.61610384239357L68.80350612112962,122.07310274741954L68.95626744322443,111.10260045332072L69.10902876531925,120.40049144230807L69.49093207055631,135.27534293158004L69.56731273160372,117.50444530726796L69.72007405369854,90.24184506511487L69.79645471474595,155.1939589360629L70.33111934207781,120.23171704714477L70.56026132522004,99.28714035569378L70.63664198626745,135.7585707339962L70.86578396940968,114.0486578594197L71.24768727464674,103.7518628268935L71.40044859674155,95.46532555684821L71.62959057988378,121.28750927058312L71.70597124093119,126.3336838637043L71.85873256302601,139.6753724771326L72.39339719035787,146.84228636611755L72.77530049559493,149.94492127726403L72.85168115664233,48.86757509675246L73.23358446187939,108.0661091106637L73.61548776711642,128.04729809145186L73.99739107235348,114.80629558152064L74.53205569968536,107.37373595366661L74.60843636073275,117.57670168361574L75.14310098806463,151.6424233155016L75.52500429330166,98.66845410996618L75.7541462764439,143.46417294293514L76.28881090377577,126.80163539159483L76.74709487006024,88.32615198059248L76.82347553110763,124.3078051194877L77.20537883634468,145.1748284337964L77.58728214158174,109.52045181036812L77.66366280262915,132.72342949457857L77.81642412472397,132.03190661536627L77.96918544681878,154.5875385218931L78.19832742996101,147.37215879917437L78.27470809100842,117.6730128781052L78.35108875205584,144.70879290348174L78.50385007415065,136.59566921313507L78.73299205729289,140.03433907544397L79.49679866776698,132.20828754963145L79.72594065090921,135.58622287408866L79.87870197300403,106.78867589627991L80.26060527824107,118.61351203002036L80.3369859392885,123.84936176547453L80.71888924452553,109.89168424023728L80.87165056662036,102.58060517832692L81.40631519395222,135.21763894461677L81.63545717709444,108.66723826915916L82.17012180442632,133.9977890696727L82.39926378756854,116.57248914904199L82.70478643175818,92.23637268857692L82.85754775385301,142.8457394824949L82.93392841490041,113.92541928670474L83.01030907594782,130.43162637316473L83.31583172013745,146.20126596573843L83.69773502537451,101.22982975988367L83.92687700851674,149.1412306718997L84.15601899165897,130.5683027819517L84.30878031375379,123.79153713098773L84.46154163584862,130.9198524301267L84.53792229689601,145.05587284816636L84.99620626318048,122.54528268375343L85.2253482463227,81.58572421468851L85.37810956841753,126.65323893766598L85.53087089051233,136.26049890255786L85.68363221260717,112.7575397687967L85.9891548567968,119.23670244995935L86.29467750098644,144.3440093710007L86.44743882308127,148.9708275351689L86.8293421283183,129.43637048093228L86.98210345041313,145.5236290419712L87.59314873879241,154.7506367383308L87.89867138298204,123.82595040079158L88.20419402717168,119.43650623914779L88.58609733240873,106.68393086538441L88.66247799345615,108.24667823753106L89.42628460393024,117.9825139917736L89.50266526497765,155.94662712921885L89.80818790916729,113.3717620561541L90.11371055335692,103.98788385361844L90.19009121440433,140.66620175427596L90.34285253649915,127.70656075943228L90.7247558417362,110.1126932679643L90.87751716383103,117.3847457285762L90.95389782487842,36.79197595793704L91.10665914697326,122.6517512506992L91.25942046906808,127.09674497924343L91.4121817911629,146.37004323346181L91.4885624522103,57.36233275703174L92.02322707954217,141.402760630482L92.48151104582664,145.70251772118954L92.78703369001627,134.1234176123774L92.93979501211108,143.7952153846719L93.01617567315849,93.36410530675384L93.16893699525332,125.80691954065813L93.32169831734814,115.17226548131629L93.70360162258518,129.02622635216804L93.77998228363259,149.60200367214082L93.85636294468001,117.95242105233578L94.00912426677482,138.67361023631037L94.16188558886965,123.99420199001963L94.39102757201186,119.61283546733146L94.54378889410668,127.18310562560265L94.62016955515409,95.1761736588134L95.15483418248596,147.3894889541599L95.30759550458079,98.42503336846539L95.46035682667559,112.2901282822019L95.61311814877043,140.5581302988034L96.30054409819711,130.30718707033475L96.37692475924453,136.9765505723257L96.52968608133934,92.50280838146908L96.68244740343417,130.38860691334983L97.44625401390824,123.71855686949883L97.67539599705049,96.45283128197458L98.05729930228753,100.93752379087685L98.43920260752458,104.25541111934244L98.59196392961941,128.01305143013286L98.66834459066682,84.37269349822677L98.74472525171421,129.82746953634097L98.82110591276162,134.19324954801448L98.97386723485646,147.26999332723412L99.12662855695127,154.14193551145448L99.43215120114091,93.13161752893197L99.58491252323573,115.15601828148235L99.81405450637796,144.51078733690576L100.27233847266243,126.15315495267811L101.0361450831365,121.47305941663578L101.18890640523134,106.88150554794782L101.34166772732615,107.91394385790493L101.7235710325632,145.6050632477867L102.02909367675284,126.2675977464165L102.18185499884767,141.54523961063822L102.33461632094247,112.76545079926748L102.41099698198988,115.6017361943243L102.64013896513211,131.1433318595258L102.79290028722694,129.33600323160448L103.25118425351138,120.97618695382158L103.63308755874844,70.88626519985627L104.24413284712772,137.6920219849566L104.32051350817513,124.8335697916247L104.39689416922255,120.46425078592799L104.47327483026994,121.09363444540763L104.62603615236476,120.95228725392441L104.7787974744596,151.15846301026406L104.85517813550699,117.52266308331937L105.6953654070285,135.19925456008048L105.92450739017073,61.85852125138935L106.00088805121814,122.35318310070971L106.40825157680432,84.35645778863315L106.48463223785173,141.04345794264083L106.79015488204138,133.65837311529165L107.01929686518359,107.34258016699776L107.09567752623101,117.89412531799525L107.24843884832583,133.0232500807646L107.40120017042065,148.71614348557955L107.47758083146806,127.0347608777553L107.93586479775253,112.37934999840459L108.01224545879992,135.4631796354594L108.08862611984733,133.5055816444346L108.16500678089476,130.0818864378425L108.31776810298958,138.88661631164393L108.39414876403697,135.6015336193353L108.5469100861318,80.06247454369404L108.6996714082266,137.14640792264058L108.77605206927403,102.53729846250364L108.85243273032144,130.53391823774868L109.3107166966059,85.15098492733017L109.3870973576533,131.92071555964273L109.46347801870071,77.42213221707303L109.53985867974812,121.90797650356268L110.53280727336445,117.61280976386902L110.68556859545927,135.49372643939046L110.83832991755409,127.5012301646426L111.29661388383855,133.25027424930707L111.83127851117042,127.6729632966922L112.21318181640746,136.23576616023638L112.28956247745487,140.12778920009L112.97698842688156,124.62665928878894L113.05336908792897,120.47017400482076L113.81717569840306,87.45613396289333L113.96993702049788,146.01222565918397L114.1226983425927,83.70172091385392L114.35184032573494,135.65815752370708L114.58098230887717,134.75369751060322L114.73374363097199,118.13028997272437L114.8865049530668,126.31341507975304L115.11564693620903,138.37098315892248L115.26840825830385,94.32533859735382L115.49755024144608,99.47946974354419L115.72669222458832,140.61156566148216L115.80307288563571,150.96275261919502L116.03221486877796,145.16229832671087L116.18497619087276,141.38071373183885L116.79602147925205,122.64397810311246L116.87240214029946,141.66335640872379L117.02516346239429,92.21788489187763L117.1779247844891,124.6019552720683L117.33068610658393,138.10227527100403L117.78897007286837,150.0501891140948L117.9417313949632,143.46517546640436L118.7819186664847,140.7221362442276L118.9346799885795,110.33785601757249L119.24020263276917,146.35072813945837L119.31658329381656,143.7109114913327L119.39296395486397,144.92401085007984L119.5457252769588,126.25091966257L119.6221059380062,158.04477086746348L119.92762858219584,118.67876510488384L120.15677056533808,135.52017697264205L120.84419651476476,140.31901265230815L121.07333849790699,123.66201339680941L121.76076444733368,122.37148705356367L122.06628709152332,130.5864688519216L122.21904841361813,134.44773539095803L122.37180973571296,99.4242131777723L122.44819039676037,129.09870104308217L122.52457105780776,143.10405157547007L122.8300937019974,130.84631489198154L122.90647436304482,141.93443415871135L122.98285502409223,118.93239492492245L123.05923568513964,109.3309949826015L123.36475832932928,146.53814832212558L123.5939003124715,152.51835018929313L123.67028097351893,134.7636423136133L123.89942295666114,124.87915157503436L123.97580361770856,140.64624607937384L124.35770692294561,134.32912163997796L124.51046824504043,148.32701213382825L124.81599088923006,142.5467002326517L124.96875221132488,142.07943811918125L125.04513287237228,133.31131615108774L125.35065551656194,129.87972714938536L125.65617816075158,116.85037486642815L125.88532014389381,132.11541768212237L126.57274609332049,127.78374644888385L127.18379138169976,151.64305815128012L127.41293336484199,104.15019498859319L127.56569468693682,150.81474396087748L127.64207534798422,128.76144525388415L127.79483667007904,114.69493217219207L127.87121733112646,152.65763775519628L127.94759799217385,129.66303845202438L128.1003593142687,151.56562542166134L128.17673997531608,129.71359550949916L128.48226261950572,130.77301290376326L128.63502394160054,132.90893367966987L128.78778526369535,118.99024828501007L128.9405465857902,136.08382496716416L129.0169272468376,112.11229383253433L129.47521121312204,148.10967711044842L129.55159187416947,138.49759124461573L129.70435319626426,133.92220052362774L130.5445404677858,128.91702310802248L130.6209211288332,139.8680982782746L130.77368245092802,125.3087429355659L130.92644377302284,145.42855304831775L131.07920509511766,78.65081808683483L131.3847277393073,149.74654515043724L131.84301170559175,135.4931691627342L132.07215368873398,140.36875390271913L132.2249150108288,157.2173328078864L132.60681831606587,121.30720354251761L133.14148294339773,123.8857053956547L133.29424426549252,120.02100327475807L133.752528231777,127.79391531158048L134.05805087596664,161.72805358370795L134.5927155032985,138.9835106358304L134.74547682539333,118.70106191625426L134.89823814748814,109.31499482293476L135.17830057132866,149.90203108265288L135.4074425544709,136.1426090367189L135.4838232155183,145.9806332433824L135.86572652075532,134.49695383543377L135.94210718180275,139.55085274262026L136.17124916494495,132.44668705610576L136.2476298259924,93.77018763555961L136.93505577541907,147.07660970983295L137.0878170975139,152.72324128238998L137.1641977585613,126.28721158666866L137.69886238589316,152.46363653737708L137.77524304694057,144.55051771542472L137.85162370798798,147.84326152547683L138.0043850300828,154.3837591095487L138.9209529626517,150.22980167845424L139.07371428474653,140.6082449820253L139.22647560684135,118.65993260097449L139.45561758998358,149.19365776598903L139.60837891207842,124.52329308673366L139.83752089522065,146.59109822215018L139.91390155626806,136.99037333144892L140.06666287836285,142.66340085861594L140.44856618359992,111.00651906363795L140.52494684464733,65.95573413058851L141.28875345512142,152.05251573818433L141.36513411616883,126.30413096556221L141.51789543826365,109.28931413578563L141.9761794045481,165.69602998473718L142.12894072664292,81.01725606434583L142.43446337083256,125.15809439453136L142.89274733711704,146.6852233984159L143.19826998130668,119.05045139924624L143.50379262549632,147.91257065517865L143.6565539475911,133.99480735230574L143.80931526968595,98.44854814531134L144.2675992359704,119.36929982342733L144.42036055806523,153.02166867693535L144.4967412191126,140.3787762648515L144.57312188016004,144.88668193179092L145.1077865074919,137.36006894167326L145.33692849063414,139.70011096457426L145.41330915168155,151.9968598865608L145.48968981272895,131.27517662225182L145.64245113482377,140.354899545435L145.71883179587118,145.9337071018535L145.871593117966,103.33018249683273L146.40625774529786,136.6857871680839L146.7117803894875,148.0260453961688L146.7881610505349,125.43771513820812L146.86454171158232,139.50828140217843L147.47558699996162,105.90920141078489L147.78110964415123,133.01343741551835L147.85749030519867,145.35913763389286L148.01025162729348,129.3176705531497L148.3921549325305,146.15296099536934L148.9268195598624,150.35355731198428L149.15596154300462,108.7038002139057L149.38510352614685,150.73981897621186L149.53786484824167,154.3139846251133L149.8433874924313,160.85209223919543L149.99614881452615,148.87100032713684L150.07252947557353,113.56969868128806L150.30167145871576,150.28657208339027L150.6835747639528,163.01049510659786L150.83633608604765,153.5833202421992L150.91271674709503,146.40527231032948L150.98909740814244,119.31467522087388L151.06547806918988,152.68840574625378L151.2182393912847,151.38307710089626L151.29462005233208,139.88427940922662L151.3710007133795,141.47170207249306L151.44738137442693,143.3680283569305L151.5237620354743,134.45276237110465L151.67652335756915,154.61074593481007L151.90566534071138,146.24494324181254L152.13480732385358,138.8605478288835L152.21118798490102,147.13333415380765L152.59309129013803,141.6931707098335L152.66947195118547,125.82859587905045L152.9749945953751,126.77720139552207L153.05137525642252,141.51896717611183L153.2041365785173,156.19040119560995L153.43327856165956,154.92295012751734L153.81518186689664,132.4287565360627L154.04432385003884,108.04934485001468L154.12070451108625,146.58612007552497L154.5026078163233,151.55394846492072L154.5789884773707,130.44409902904857L155.03727244365518,141.2251588581812L155.19003376574997,134.6170785530179L155.41917574889223,131.77449076113723L155.49555640993964,154.92801732350514L155.57193707098702,143.79799602283302L156.56488566460334,118.12731974559773L157.25231161403005,159.39123457322097L157.7105955803145,160.62511403161426L157.93973756345673,139.8860690141588L158.77992483497823,135.31035369388132L158.85630549602567,136.82495121390343L158.93268615707305,159.5811481380409L159.00906681812046,158.91282405406534L159.849254089642,147.06605017896493L160.23115739487903,142.66685080327656L160.30753805592644,139.43388496856824L160.38391871697382,141.7005416990085L160.46029937802126,129.96546157764632L160.53668003906867,153.86055676100642L160.61306070011605,144.18249106260907L160.6894413611635,162.41943283491608L160.7658220222109,128.40528227421458L160.9949640053531,159.10754053934537L161.6060092937324,105.3118927572009L161.75877061582722,152.97554685222994L161.98791259896944,150.49690380528583L162.06429326001685,145.87410722523495L162.14067392106426,133.8611413864866L162.2170545821117,159.65087953407505L162.3698159042065,133.99666877124002L162.5225772263013,124.40540896601489L162.59895788734872,142.2491748219726L162.90448053153835,129.75675859731828L162.98086119258576,144.09974409683528L163.0572418536332,149.6375717110984L163.13362251468058,139.7180443571774L163.43914515887025,162.86242468823852L163.66828714201247,126.62792019308742L163.8974291251547,154.3859336375321L164.12657110829693,131.94239189803505L164.2029517693443,151.49164838182338L164.43209375248654,156.3091959178753L164.58485507458136,126.78726684605569L164.6612357356288,148.42325151431564L164.96675837981843,128.9729116370128L165.11951970191325,150.59324659793623L165.73056499029252,143.6242291182441L165.88332631238734,146.3104289940428L165.95970697343475,150.50749493431476L166.11246829552957,154.5529873692052L166.2652296176244,143.92536533694852L166.3416102786718,149.94147133260338L166.57075226181402,131.7456330225354L166.72351358390884,129.95272464623477L166.79989424495625,121.81869733615832L167.1054168891459,152.275432145807L167.56370085543034,105.9204905719142L168.40388812695184,134.58197012367378L168.48026878799928,142.39686175356076L168.5566494490467,134.74029414525222L168.63303011009407,152.45309424186956L168.86217209323632,136.15870111830833L169.60051848336127,145.33970763748607L169.67689914440868,157.87858752149577L169.90604112755094,159.18410288325876L169.98242178859834,135.838335982403L170.21156377174054,148.0062793102322L170.44070575488277,141.8390594188092L170.89898972116723,126.78534797591972L171.2045123653569,155.8526369632771L171.28089302640427,140.57473082352766L171.43365434849912,147.02008059994395L171.58641567059394,143.66090022027382L171.73917699268875,144.3619456361639L171.81555765373616,147.21704055464943L172.27384162002062,157.32590121625344L172.65574492525766,170.32758500048354L173.0376482304947,152.94164489812098L173.19040955258953,151.08121412449066L173.34317087468438,145.488690093672L173.41955153573176,147.3475467043764L173.64869351887398,139.85532400358196L173.8778355020162,141.15294557023466L174.10697748515844,149.7641884144719L174.18335814620588,156.13237260935722L174.94716475667997,151.85539492011415L175.1763067398222,149.18140055211148L175.40544872296442,165.90004494700847L175.4818293840118,152.43119097123062L175.63459070610665,149.65983692430788L175.71097136715403,157.37026503418758L175.78735202820147,144.77524958102035L176.55115863867556,134.62696015970616L177.31496524914968,156.70854209328456L177.6204878933393,138.18484126549257L178.00239119857636,152.3926929209876L178.4606751648608,148.1577321680902L178.68981714800302,155.49602299167435L178.84257847009786,134.38469418735906L179.1481011142875,148.51452136585806L179.60638508057195,164.7238680392984L179.68276574161936,99.28617517550562L179.75914640266677,147.14402294987946L179.83552706371418,105.27207332931933L180.44657235209345,107.026759421145L180.7520949962831,150.16581827514779L180.98123697942532,148.81582419304732L181.05761764047273,129.91294543419437L181.43952094570977,143.81290173710784L181.51590160675718,155.2067217205152L181.59228226780462,153.917002566653L182.81437284456317,155.58046476789758L183.0435148277054,149.87799924499186L183.27265681084762,134.1682123143241L183.34903747189503,151.33010709295107L183.9600827602743,149.31953334886094L184.11284408236912,154.02195154931445L184.34198606551135,151.2724519395092L184.41836672655876,167.53532158871087L184.57112804865358,149.62368288309324L184.95303135389065,158.4296048693294L185.3349346591277,144.8151954015456L185.79321862541215,158.3442208933987L185.86959928645953,156.7084472988018L186.25150259169658,159.27520038119616L186.40426391379143,142.21987183655781L186.4806445748388,156.95532947520357L186.9389285411233,154.41548079055403L187.09168986321808,156.13654931171905L187.39721250740774,169.84055105595635L187.62635449054997,157.9489566258685L188.23739977892924,159.70921548425673L188.46654176207147,156.28628437864694L188.6956837452137,141.06217841670693L188.7720644062611,133.04571924574003L189.6122516777826,149.04656258177815L189.76501299987746,127.6315926863654L189.99415498301968,164.0995056148452L190.2232969661619,154.3928507622139L190.52881961035152,131.68647552016975L190.75796159349377,126.18672368981734L190.987103576636,156.5581980436189L191.21624555977823,153.4679754645945L191.36900688187305,121.50189417475691L191.44538754292046,165.0000862355559L191.67452952606268,133.53113019381988L192.13281349234717,160.86936494297927L192.28557481444196,156.1159243303174L192.36195547548937,159.6480845331135L192.43833613653678,148.2625174148269L192.51471679758419,136.93511963823713L192.89662010282123,155.71743417781312L192.97300076386867,160.0123969657408L193.04938142491605,162.25575436134142L193.20214274701087,165.387427982375L193.35490406910571,138.47875874070638L193.4312847301531,160.5429128522564L193.5076653912005,150.89985504360027L193.58404605224794,141.5548511966786L193.73680737434273,105.76937093102592L194.11871067957978,135.315518556912L194.19509134062722,150.2750071564929L194.2714720016746,145.04001057138365L194.72975596795905,149.7801253778168L194.8061366290065,160.9225963538921L195.03527861214872,153.03456072659142L195.1116592731961,158.6693200083221L195.18803993424353,162.94863308891328L195.34080125633832,159.3778455706704L195.56994323948058,129.03178762849026L195.9518465447176,143.55403524003648L196.33374984995467,142.841766731899L196.4865111720495,160.36641988814796L196.6392724941443,155.49985211426605L196.86841447728654,149.25472839337053L197.09755646042876,141.75345425575202L197.25031778252358,132.9913761540748L197.326698443571,146.81755649635616L197.78498240985547,121.19682254873771L198.70155034242435,155.80931875721345L199.00707298661402,151.81958845866964L199.15983430870884,140.6768819326675L199.38897629185107,125.9833751614855L199.84726025813552,149.72608390496038L200.38192488546738,133.24697655033088L200.4583055465148,144.2602311561568L200.68744752965702,121.81018306806996L200.76382819070446,151.0544217565891L200.9929701738467,150.2858194726483L201.2984928180363,123.40488479858874L201.37487347908373,138.60458836261694L201.52763480117852,162.48788450543287L201.60401546222596,135.14903646469557L201.75677678432078,156.3495956028938L202.1386800895578,135.56620687542477L202.21506075060523,146.63530117671962L202.44420273374746,161.15504535215283L202.52058339479484,164.18431795131926L202.97886736107932,140.5002223600742L203.1316286831741,154.43962465805834L203.20800934422155,163.97865126699978L203.36077066631634,131.97316850677282L203.666293310506,113.48673914606806L203.76813419190256,159.45464059195058L203.9972761750448,148.09902853021777L204.22641815818702,112.36038535673137L204.60832146342406,123.32463696008786L204.76108278551888,157.74177610238488L204.9138441076137,143.6232179770946L205.6776507180878,166.04333973422848L205.8304120401826,164.89693116666677L205.90679270123005,150.61839298890976L206.44145732856188,139.30544131698142L206.74697997275155,150.61454950351765L207.35802526113082,157.40279677713656L207.58716724427305,166.3118752685419L207.73992856636787,152.245847649504L208.1218318716049,157.9148162492726L208.35097385474714,150.52243224675053L209.95496773674273,154.55279490767958L210.10772905883758,102.44666344673973L210.41325170302719,154.28849927204988L210.6423936861694,160.8366579738652L211.10067765245387,145.38508259656967L211.78810360188058,163.9012386453016L212.0172455850228,137.30391039203505L212.0936262460702,129.1228765087474L212.17000690711762,150.25945224363917L212.70467153444946,106.86579838940963L213.39209748387617,157.64545054509497L213.544858805971,150.78462516839892L213.77400078911322,161.47433758686685L213.92676211120806,159.4649186119304L214.00314277225544,155.59351768091835L214.23228475539767,161.7207702076155L214.3086654164451,159.5391398193755L214.4614267385399,154.87545521909186L214.61418806063472,174.6031120468843L214.84333004377694,141.8988661197538L214.99609136587176,150.27445275239674L215.75989797634588,156.33241482103261L215.8362786373933,160.7140772174094L216.0654206205355,166.585679078049L216.14180128158293,160.3651329812304L216.44732392577257,146.169541412173L216.7528465699622,160.33474129554386L216.8292272310096,143.15514292912047L216.98198855310443,150.87027629241743L217.6694145025311,157.2161809112928L217.97493714672075,158.7341134735722L218.66236309614743,139.42225110022883L218.81512441824225,149.5476778158361L218.89150507928966,152.78899418270805L219.2734083845267,149.7430434996951L219.34978904557414,160.7079443016305L220.03721499500082,147.55535919107848L220.26635697814305,148.3387925027319L220.41911830023787,155.63682439674164L220.72464094442748,149.44119201352981L220.87740226652232,128.30981561238974L220.95378292756973,162.38102814287578L221.18292491071196,121.86726658205512L221.25930557175937,146.56013489700695L221.33568623280678,148.05661230802048L221.4884475549016,145.76532050230153L221.564828215949,151.7149554576174L221.79397019909123,148.42688243026154L221.94673152118608,150.3160129516891L222.02311218223346,156.40189343177937L222.2522541653757,163.54368821911154L222.32863482642313,154.5022953014065L222.4050154874705,137.96836801013785L222.55777680956535,147.98232503169345L222.78691879270758,139.37750810436367L223.55072540318167,153.57045691814398L223.7798673863239,150.8066634493618L224.0853900305135,122.20441895909015L224.31453201365574,154.75911940825824L224.46729333575058,146.13770195620424L224.543673996798,156.45304798175158L224.6964353188928,163.3044657241732L225.00195796308245,147.69694193248858L225.15471928517726,164.4088315023485L225.30748060727208,140.18576033514105L225.53662259041434,161.45142030251833L225.76576457355654,144.19211701144985L225.91852589565136,127.23173232270112L226.3004292008884,137.6766221903474L226.45319052298322,148.22021322247284L226.52957118403066,165.58382491530406L226.9878551503151,165.40101950041148L227.0642358113625,149.23501401351544L227.36975845555216,140.85720114680757L227.44613911659954,146.08212079114287L227.98080374393143,162.03679777779428L228.66822969335811,156.9753713269082L229.3556556427848,118.38242031639922L229.89032027011666,148.84793079710388L229.9667009311641,153.85413658921914L230.1958429143063,163.2389167756211L230.8068882026856,136.16461859208096L230.95964952478042,156.26987344288824L231.1124108468752,157.83215546030132L232.25812076258637,149.07619591160258L232.33450142363375,164.03821380033727L232.7164047288708,155.83323281991105L232.94554671201303,151.36899006624532L233.3274500172501,165.63368681323857L233.55659200039236,150.11114196651283L234.01487596667678,154.08751486066697L234.39677927191386,119.48875236195187L234.47315993296124,160.72385828449472L234.7786825771509,156.3151334995685L235.00782456029313,144.18772199452167L235.23696654343536,133.88725870276846L235.31334720448274,150.54222131316777L235.54248918762497,143.16772761484756L235.77163117076722,143.9794613884465L235.924392492862,118.81900348817473L236.3826764591465,131.20010513702192L236.53543778124128,158.75202388569465L236.61181844228872,156.85698450817475L236.76457976438354,126.83971404806562L236.99372174752577,142.5352444630375L237.222863730668,155.30213093113835L237.3756250527628,161.82665420858422L237.52838637485763,139.78120046317972L237.68114769695245,156.10443121742213L237.7575283579999,134.20799152636448L238.0630510021895,163.89149348521732L238.1394316632369,138.14169541303397L238.21581232428431,155.67797094738194L238.29219298533172,145.13941838564344L238.36857364637916,131.35832574643734L238.44495430742654,53.607195822851224L238.52133496847395,159.6271320798623L238.5977156295214,147.55683855952165L238.67409629056877,145.45480250236346L238.7504769516162,156.37564685029372L238.82685761266362,136.43862060823383L238.903238273711,128.33090594852496L238.97961893475843,133.42008276610053L239.05599959580582,148.63596458852066L239.13238025685322,156.94149235327993L239.20876091790066,162.83956054625156L239.28514157894804,139.23359571672563L239.36152223999548,150.30533277329755L239.4379029010429,155.43456744124165L239.51428356209027,158.0648874057303L239.5906642231377,165.27692346851148L239.66704488418512,168.9071097841671L239.7434255452325,153.3885750313183L239.81980620627994,144.0707714558301L239.89618686732732,139.71757038476358L239.97256752837475,163.28446121574967L240.04894818942216,154.91634323932462L240.2780901725644,161.10449547607823L240.50723215570662,162.22267826825657L240.58361281675403,139.92375987501828L240.65999347780144,157.19607586326634L240.96551612199104,163.23003481984202L241.2710387661807,130.5227152534219L241.34741942722815,140.58974282252558L241.42380008827553,147.71198552964742L241.65294207141775,140.48948473048097L241.80570339351257,142.54629232911978L242.18760669874965,152.06687279348316L242.49312934293926,151.74825991922893L242.5695100039867,152.70990973104108L243.25693595341338,162.41430387888644L243.33331661446076,149.83111331930417L243.48607793655557,144.57947599362944L243.7152199196978,107.75165570341085L243.79160058074524,154.02579790726665L243.86798124179265,153.29459348305681L244.02074256388747,158.6075599665205L244.4026458691245,142.54550524765682L244.5554071912193,123.0280508765562L244.86092983540897,142.7067650256409L244.93731049645638,162.63379332232915L245.01369115750379,144.66760039188011L245.0900718185512,146.15485401246457L245.31921380169342,162.09042416571862L245.70111710693047,156.7166685657616L246.0066397511201,152.508747220933L246.46492371740456,147.95598078316496L246.77044636159422,123.08831144199404L247.15234966683124,122.81283867507827L248.06891759940018,129.71994386728437L248.14529826044756,144.9806002837306L248.90910487092168,144.15585094039196L249.21462751511132,156.41363071228176L249.59653082034836,154.2052639710618L249.67291148139577,148.19571603007824L249.74929214244318,152.29932035546383L250.20757610872766,143.23828343562573L250.51309875291727,157.55278462935183L250.6658600750121,162.65113353127498L250.97138271920176,163.0097223879353L251.73518932967582,137.7793937724653L251.96433131281805,138.50973930121012L252.1170926349129,162.61162433988247L252.1934732959603,134.1525970777086L252.2698539570077,162.74471579368483L252.88089924538698,118.74292660691549L253.0336605674818,129.514417938409L253.41556387271885,147.99801782743123L253.8738478390033,166.07791817623718L254.10298982214553,166.23475277541218L254.33213180528776,157.908967716942L254.48489312738258,141.15965299803034L254.63765444947742,141.25871035995993L254.79041577157224,160.43730892589585L255.09593841576185,151.7338023243272L255.5542223820463,128.80335016038654L256.01250634833076,164.22953348331822L256.1652676704256,109.683590242647L256.54717097566265,137.15527838817934L256.62355163671003,138.46598733857383L256.69993229775747,139.17991905899981L256.8526936198523,165.05883439810964L256.9290742808997,125.96011891504709L257.2345969250893,145.7045112778877L257.3873582471842,163.24669279576793L257.6928808913738,123.90518135302281L257.922022874516,148.3547467014373L258.6094488239427,137.41980957373593L258.99135212917975,161.1282673470517L259.0677327902272,167.5209214450108L259.3732554344168,170.4830465159385L259.4496360954642,161.7447287949944L259.602397417559,148.69428904846202L259.75515873965384,158.1137582704359L259.9079200617487,150.26277292309604L259.9843007227961,152.58735482762606L260.0606813838435,153.47233313824162L260.44258468908055,164.32075162877913L260.67172667222275,149.53901991974354L260.7481073332702,146.37565334330546L260.900868655365,121.1741523045564L261.0536299774598,162.0369327881182L261.35915262164946,154.75915962409942L261.43553328269684,146.95763401628233L261.8174365879339,155.59963623389683L261.8938172489813,156.48747848691596L262.199339893171,139.9445715728254L262.27572055421837,148.48156448401667L262.3521012152658,163.94655615318354L263.57419179202435,171.0797691672654L263.95609509726137,163.08973611278938L264.0324757583088,142.30313011802653L264.10885641935624,161.44888957708451L264.49075972459326,148.66987516030986L264.5671403856407,150.44274743002603L264.7962823687829,143.2805876279798L264.8726630298303,131.68670532497646L265.17818567401997,161.08408450040284L265.3309469961148,146.61574478766914L265.8656116234466,158.55043336413408L265.94199228449406,155.47996825336602L266.2475149286837,142.28187891852662L266.4002762507785,162.14977987473006L267.01132153915773,156.2871605094725L267.7751281496318,164.2677284784724L267.85150881067926,116.55964306034727L268.61531542115335,147.58117201599146L268.99721872639043,149.14192870400007L269.53188335372226,159.77233999209813L269.6846446758171,161.90511675099305L270.14292864210154,164.53480475226326L270.3720706252438,159.61916934331L270.52483194733855,145.00716571938554L271.2886385578127,161.31585988332392L271.3650192188601,151.51228485346536L271.74692252409716,151.1920662181243L272.0524451682868,156.1988637576168L272.35796781247643,155.59919385964395" style="fill: none;" fill="none"></path></g></g></g></g></g></g><g transform="translate(37, 177)" clip-path="url(#clip_1)"><clipPath id="clip_1"><rect width="293" height="23"></rect></clipPath><g><g><line x1="4.326516495755237" y1="0" x2="4.326516495755237" y2="5" style="visibility: inherit;" fill="rgb(0, 0, 0)" stroke="rgb(204, 204, 204)" stroke-width="1px"></line><line x1="29.786736844891802" y1="0" x2="29.786736844891802" y2="5" style="visibility: inherit;" fill="rgb(0, 0, 0)" stroke="rgb(204, 204, 204)" stroke-width="1px"></line><line x1="55.24695719402837" y1="0" x2="55.24695719402837" y2="5" style="visibility: inherit;" fill="rgb(0, 0, 0)" stroke="rgb(204, 204, 204)" stroke-width="1px"></line><line x1="80.70717754316493" y1="0" x2="80.70717754316493" y2="5" style="visibility: inherit;" fill="rgb(0, 0, 0)" stroke="rgb(204, 204, 204)" stroke-width="1px"></line><line x1="106.1673978923015" y1="0" x2="106.1673978923015" y2="5" style="visibility: inherit;" fill="rgb(0, 0, 0)" stroke="rgb(204, 204, 204)" stroke-width="1px"></line><line x1="131.62761824143806" y1="0" x2="131.62761824143806" y2="5" style="visibility: inherit;" fill="rgb(0, 0, 0)" stroke="rgb(204, 204, 204)" stroke-width="1px"></line><line x1="157.08783859057462" y1="0" x2="157.08783859057462" y2="5" style="visibility: inherit;" fill="rgb(0, 0, 0)" stroke="rgb(204, 204, 204)" stroke-width="1px"></line><line x1="182.5480589397112" y1="0" x2="182.5480589397112" y2="5" style="visibility: inherit;" fill="rgb(0, 0, 0)" stroke="rgb(204, 204, 204)" stroke-width="1px"></line><line x1="208.00827928884775" y1="0" x2="208.00827928884775" y2="5" style="visibility: inherit;" fill="rgb(0, 0, 0)" stroke="rgb(204, 204, 204)" stroke-width="1px"></line><line x1="233.4684996379843" y1="0" x2="233.4684996379843" y2="5" style="visibility: inherit;" fill="rgb(0, 0, 0)" stroke="rgb(204, 204, 204)" stroke-width="1px"></line><line x1="258.92871998712087" y1="0" x2="258.92871998712087" y2="5" style="visibility: inherit;" fill="rgb(0, 0, 0)" stroke="rgb(204, 204, 204)" stroke-width="1px"></line><line x1="284.3889403362574" y1="0" x2="284.3889403362574" y2="5" style="visibility: inherit;" fill="rgb(0, 0, 0)" stroke="rgb(204, 204, 204)" stroke-width="1px"></line></g><g transform="translate(0, 8)"><text x="4.326516495755237" y="0" dx="0em" dy="0.95em" style="text-anchor: middle; visibility: hidden; font-family: &quot;Helvetica Neue&quot;, sans-serif; font-size: 12px; font-weight: 200;" fill="rgb(50, 49, 63)" stroke="none" stroke-width="1px">-100k</text><text x="29.786736844891802" y="0" dx="0em" dy="0.95em" style="text-anchor: middle; visibility: inherit; font-family: &quot;Helvetica Neue&quot;, sans-serif; font-size: 12px; font-weight: 200;" fill="rgb(50, 49, 63)" stroke="none" stroke-width="1px">0</text><text x="55.24695719402837" y="0" dx="0em" dy="0.95em" style="text-anchor: middle; visibility: hidden; font-family: &quot;Helvetica Neue&quot;, sans-serif; font-size: 12px; font-weight: 200;" fill="rgb(50, 49, 63)" stroke="none" stroke-width="1px">100k</text><text x="80.70717754316493" y="0" dx="0em" dy="0.95em" style="text-anchor: middle; visibility: inherit; font-family: &quot;Helvetica Neue&quot;, sans-serif; font-size: 12px; font-weight: 200;" fill="rgb(50, 49, 63)" stroke="none" stroke-width="1px">200k</text><text x="106.1673978923015" y="0" dx="0em" dy="0.95em" style="text-anchor: middle; visibility: hidden; font-family: &quot;Helvetica Neue&quot;, sans-serif; font-size: 12px; font-weight: 200;" fill="rgb(50, 49, 63)" stroke="none" stroke-width="1px">300k</text><text x="131.62761824143806" y="0" dx="0em" dy="0.95em" style="text-anchor: middle; visibility: inherit; font-family: &quot;Helvetica Neue&quot;, sans-serif; font-size: 12px; font-weight: 200;" fill="rgb(50, 49, 63)" stroke="none" stroke-width="1px">400k</text><text x="157.08783859057462" y="0" dx="0em" dy="0.95em" style="text-anchor: middle; visibility: hidden; font-family: &quot;Helvetica Neue&quot;, sans-serif; font-size: 12px; font-weight: 200;" fill="rgb(50, 49, 63)" stroke="none" stroke-width="1px">500k</text><text x="182.5480589397112" y="0" dx="0em" dy="0.95em" style="text-anchor: middle; visibility: inherit; font-family: &quot;Helvetica Neue&quot;, sans-serif; font-size: 12px; font-weight: 200;" fill="rgb(50, 49, 63)" stroke="none" stroke-width="1px">600k</text><text x="208.00827928884775" y="0" dx="0em" dy="0.95em" style="text-anchor: middle; visibility: hidden; font-family: &quot;Helvetica Neue&quot;, sans-serif; font-size: 12px; font-weight: 200;" fill="rgb(50, 49, 63)" stroke="none" stroke-width="1px">700k</text><text x="233.4684996379843" y="0" dx="0em" dy="0.95em" style="text-anchor: middle; visibility: inherit; font-family: &quot;Helvetica Neue&quot;, sans-serif; font-size: 12px; font-weight: 200;" fill="rgb(50, 49, 63)" stroke="none" stroke-width="1px">800k</text><text x="258.92871998712087" y="0" dx="0em" dy="0.95em" style="text-anchor: middle; visibility: hidden; font-family: &quot;Helvetica Neue&quot;, sans-serif; font-size: 12px; font-weight: 200;" fill="rgb(50, 49, 63)" stroke="none" stroke-width="1px">900k</text><text x="284.3889403362574" y="0" dx="0em" dy="0.95em" style="text-anchor: middle; visibility: inherit; font-family: &quot;Helvetica Neue&quot;, sans-serif; font-size: 12px; font-weight: 200;" fill="rgb(50, 49, 63)" stroke="none" stroke-width="1px">1M</text></g><line x1="0" y1="0" x2="293" y2="0" fill="rgb(0, 0, 0)" stroke="rgb(204, 204, 204)" stroke-width="1px"></line></g></g></g></g></svg>