<svg viewBox="0 0 330 200" xmlns="http://www.w3.org/2000/svg"><g><g><g><g><g><line x1="37" y1="170.57804354297912" x2="32" y2="170.57804354297912" style="visibility: inherit;" fill="rgb(0, 0, 0)" stroke="rgb(204, 204, 204)" stroke-width="1px"></line><line x1="37" y1="156.25075269191356" x2="32" y2="156.25075269191356" style="visibility: inherit;" fill="rgb(0, 0, 0)" stroke="rgb(204, 204, 204)" stroke-width="1px"></line><line x1="37" y1="141.923461840848" x2="32" y2="141.923461840848" style="visibility: inherit;" fill="rgb(0, 0, 0)" stroke="rgb(204, 204, 204)" stroke-width="1px"></line><line x1="37" y1="127.59617098978246" x2="32" y2="127.59617098978246" style="visibility: inherit;" fill="rgb(0, 0, 0)" stroke="rgb(204, 204, 204)" stroke-width="1px"></line><line x1="37" y1="113.26888013871692" x2="32" y2="113.26888013871692" style="visibility: inherit;" fill="rgb(0, 0, 0)" stroke="rgb(204, 204, 204)" stroke-width="1px"></line><line x1="37" y1="98.94158928765138" x2="32" y2="98.94158928765138" style="visibility: inherit;" fill="rgb(0, 0, 0)" stroke="rgb(204, 204, 204)" stroke-width="1px"></line><line x1="37" y1="84.61429843658583" x2="32" y2="84.61429843658583" style="visibility: inherit;" fill="rgb(0, 0, 0)" stroke="rgb(204, 204, 204)" stroke-width="1px"></line><line x1="37" y1="70.28700758552027" x2="32" y2="70.28700758552027" style="visibility: inherit;" fill="rgb(0, 0, 0)" stroke="rgb(204, 204, 204)" stroke-width="1px"></line><line x1="37" y1="55.95971673445473" x2="32" y2="55.95971673445473" style="visibility: inherit;" fill="rgb(0, 0, 0)" stroke="rgb(204, 204, 204)" stroke-width="1px"></line><line x1="37" y1="41.632425883389175" x2="32" y2="41.632425883389175" style="visibility: inherit;" fill="rgb(0, 0, 0)" stroke="rgb(204, 204, 204)" stroke-width="1px"></line><line x1="37" y1="27.305135032323648" x2="32" y2="27.305135032323648" style="visibility: inherit;" fill="rgb(0, 0, 0)" stroke="rgb(204, 204, 204)" stroke-width="1px"></line><line x1="37" y1="12.977844181258092" x2="32" y2="12.977844181258092" style="visibility: inherit;" fill="rgb(0, 0, 0)" stroke="rgb(204, 204, 204)" stroke-width="1px"></line></g><g transform="translate(27, 0)"><text x="0" y="170.57804354297912" dx="0em" dy="0.3em" style="text-anchor: end; visibility: inherit; font-family: &quot;Helvetica Neue&quot;, sans-serif; font-size: 12px; font-weight: 200;" fill="rgb(50, 49, 63)" stroke="none" stroke-width="1px">20</text><text x="0" y="156.25075269191356" dx="0em" dy="0.3em" style="text-anchor: end; visibility: hidden; font-family: &quot;Helvetica Neue&quot;, sans-serif; font-size: 12px; font-weight: 200;" fill="rgb(50, 49, 63)" stroke="none" stroke-width="1px">40</text><text x="0" y="141.923461840848" dx="0em" dy="0.3em" style="text-anchor: end; visibility: inherit; font-family: &quot;Helvetica Neue&quot;, sans-serif; font-size: 12px; font-weight: 200;" fill="rgb(50, 49, 63)" stroke="none" stroke-width="1px">60</text><text x="0" y="127.59617098978246" dx="0em" dy="0.3em" style="text-anchor: end; visibility: hidden; font-family: &quot;Helvetica Neue&quot;, sans-serif; font-size: 12px; font-weight: 200;" fill="rgb(50, 49, 63)" stroke="none" stroke-width="1px">80</text><text x="0" y="113.26888013871692" dx="0em" dy="0.3em" style="text-anchor: end; visibility: inherit; font-family: &quot;Helvetica Neue&quot;, sans-serif; font-size: 12px; font-weight: 200;" fill="rgb(50, 49, 63)" stroke="none" stroke-width="1px">100</text><text x="0" y="98.94158928765138" dx="0em" dy="0.3em" style="text-anchor: end; visibility: hidden; font-family: &quot;Helvetica Neue&quot;, sans-serif; font-size: 12px; font-weight: 200;" fill="rgb(50, 49, 63)" stroke="none" stroke-width="1px">120</text><text x="0" y="84.61429843658583" dx="0em" dy="0.3em" style="text-anchor: end; visibility: inherit; font-family: &quot;Helvetica Neue&quot;, sans-serif; font-size: 12px; font-weight: 200;" fill="rgb(50, 49, 63)" stroke="none" stroke-width="1px">140</text><text x="0" y="70.28700758552027" dx="0em" dy="0.3em" style="text-anchor: end; visibility: hidden; font-family: &quot;Helvetica Neue&quot;, sans-serif; font-size: 12px; font-weight: 200;" fill="rgb(50, 49, 63)" stroke="none" stroke-width="1px">160</text><text x="0" y="55.95971673445473" dx="0em" dy="0.3em" style="text-anchor: end; visibility: inherit; font-family: &quot;Helvetica Neue&quot;, sans-serif; font-size: 12px; font-weight: 200;" fill="rgb(50, 49, 63)" stroke="none" stroke-width="1px">180</text><text x="0" y="41.632425883389175" dx="0em" dy="0.3em" style="text-anchor: end; visibility: hidden; font-family: &quot;Helvetica Neue&quot;, sans-serif; font-size: 12px; font-weight: 200;" fill="rgb(50, 49, 63)" stroke="none" stroke-width="1px">200</text><text x="0" y="27.305135032323648" dx="0em" dy="0.3em" style="text-anchor: end; visibility: inherit; font-family: &quot;Helvetica Neue&quot;, sans-serif; font-size: 12px; font-weight: 200;" fill="rgb(50, 49, 63)" stroke="none" stroke-width="1px">220</text><text x="0" y="12.977844181258092" dx="0em" dy="0.3em" style="text-anchor: end; visibility: hidden; font-family: &quot;Helvetica Neue&quot;, sans-serif; font-size: 12px; font-weight: 200;" fill="rgb(50, 49, 63)" stroke="none" stroke-width="1px">240</text></g><line x1="37" y1="0" x2="37" y2="177" fill="rgb(0, 0, 0)" stroke="rgb(204, 204, 204)" stroke-width="1px"></line></g></g><g transform="translate(37, 0)" clip-path="url(#clip_0)"><clipPath id="clip_0"><rect width="293" height="177"></rect></clipPath><g><g><g><line x1="1.9006912451262026" y1="0" x2="1.9006912451262026" y2="177" fill="rgb(0, 0, 0)" stroke="rgb(60, 60, 60)" stroke-width="1px" opacity="0.25"></line><line x1="26.44300113649272" y1="0" x2="26.44300113649272" y2="177" fill="rgb(0, 0, 0)" stroke="rgb(60, 60, 60)" stroke-width="1px" opacity="0.25"></line><line x1="50.98531102785924" y1="0" x2="50.98531102785924" y2="177" fill="rgb(0, 0, 0)" stroke="rgb(60, 60, 60)" stroke-width="1px" opacity="0.25"></line><line x1="75.52762091922577" y1="0" x2="75.52762091922577" y2="177" fill="rgb(0, 0, 0)" stroke="rgb(60, 60, 60)" stroke-width="1px" opacity="0.25"></line><line x1="100.06993081059228" y1="0" x2="100.06993081059228" y2="177" fill="rgb(0, 0, 0)" stroke="rgb(60, 60, 60)" stroke-width="1px" opacity="0.25"></line><line x1="124.6122407019588" y1="0" x2="124.6122407019588" y2="177" fill="rgb(0, 0, 0)" stroke="rgb(60, 60, 60)" stroke-width="1px" opacity="0.25"></line><line x1="149.15455059332533" y1="0" x2="149.15455059332533" y2="177" fill="rgb(0, 0, 0)" stroke="rgb(60, 60, 60)" stroke-width="1px" opacity="0.25"></line><line x1="173.69686048469183" y1="0" x2="173.69686048469183" y2="177" fill="rgb(0, 0, 0)" stroke="rgb(60, 60, 60)" stroke-width="1px" opacity="0.25"></line><line x1="198.23917037605835" y1="0" x2="198.23917037605835" y2="177" fill="rgb(0, 0, 0)" stroke="rgb(60, 60, 60)" stroke-width="1px" opacity="0.25"></line><line x1="222.78148026742488" y1="0" x2="222.78148026742488" y2="177" fill="rgb(0, 0, 0)" stroke="rgb(60, 60, 60)" stroke-width="1px" opacity="0.25"></line><line x1="247.3237901587914" y1="0" x2="247.3237901587914" y2="177" fill="rgb(0, 0, 0)" stroke="rgb(60, 60, 60)" stroke-width="1px" opacity="0.25"></line><line x1="271.8661000501579" y1="0" x2="271.8661000501579" y2="177" fill="rgb(0, 0, 0)" stroke="rgb(60, 60, 60)" stroke-width="1px" opacity="0.25"></line></g><g><line x1="0" y1="170.57804354297912" x2="293" y2="170.57804354297912" fill="rgb(0, 0, 0)" stroke="rgb(60, 60, 60)" stroke-width="1px" opacity="0.25"></line><line x1="0" y1="156.25075269191356" x2="293" y2="156.25075269191356" fill="rgb(0, 0, 0)" stroke="rgb(60, 60, 60)" stroke-width="1px" opacity="0.25"></line><line x1="0" y1="141.923461840848" x2="293" y2="141.923461840848" fill="rgb(0, 0, 0)" stroke="rgb(60, 60, 60)" stroke-width="1px" opacity="0.25"></line><line x1="0" y1="127.59617098978246" x2="293" y2="127.59617098978246" fill="rgb(0, 0, 0)" stroke="rgb(60, 60, 60)" stroke-width="1px" opacity="0.25"></line><line x1="0" y1="113.26888013871692" x2="293" y2="113.26888013871692" fill="rgb(0, 0, 0)" stroke="rgb(60, 60, 60)" stroke-width="1px" opacity="0.25"></line><line x1="0" y1="98.94158928765138" x2="293" y2="98.94158928765138" fill="rgb(0, 0, 0)" stroke="rgb(60, 60, 60)" stroke-width="1px" opacity="0.25"></line><line x1="0" y1="84.61429843658583" x2="293" y2="84.61429843658583" fill="rgb(0, 0, 0)" stroke="rgb(60, 60, 60)" stroke-width="1px" opacity="0.25"></line><line x1="0" y1="70.28700758552027" x2="293" y2="70.28700758552027" fill="rgb(0, 0, 0)" stroke="rgb(60, 60, 60)" stroke-width="1px" opacity="0.25"></line><line x1="0" y1="55.95971673445473" x2="293" y2="55.95971673445473" fill="rgb(0, 0, 0)" stroke="rgb(60, 60, 60)" stroke-width="1px" opacity="0.25"></line><line x1="0" y1="41.632425883389175" x2="293" y2="41.632425883389175" fill="rgb(0, 0, 0)" stroke="rgb(60, 60, 60)" stroke-width="1px" opacity="0.25"></line><line x1="0" y1="27.305135032323648" x2="293" y2="27.305135032323648" fill="rgb(0, 0, 0)" stroke="rgb(60, 60, 60)" stroke-width="1px" opacity="0.25"></line><line x1="0" y1="12.977844181258092" x2="293" y2="12.977844181258092" fill="rgb(0, 0, 0)" stroke="rgb(60, 60, 60)" stroke-width="1px" opacity="0.25"></line></g></g></g><g><g><line x1="0" y1="184.90533439404464" x2="293" y2="184.90533439404464" fill="rgb(0, 0, 0)" stroke="rgb(153, 153, 153)" stroke-width="1.5px"></line></g></g><g><g><line x1="26.44300113649272" y1="0" x2="26.44300113649272" y2="177" fill="rgb(0, 0, 0)" stroke="rgb(153, 153, 153)" stroke-width="1.5px"></line></g></g><g><g><g><g><g><path stroke="rgb(255, 112, 67)" stroke-width="2px" d="M26.516873489265734,154.25635526324893L26.56595810904847,152.1218339987834L26.63958503872257,151.53750590750073L26.860465827744864,150.08681271212276L26.95716252871685,131.5083823102721L27.030789458390952,127.11516492984985L27.10441638806505,134.38253451973208L27.153501007847783,127.50686241179757L27.374381796870082,113.5197839964315L27.435982994697408,112.36886278361753L27.50960992437151,115.2278257938382L27.80411764306791,115.80972012127802L28.172252291438408,116.34220565572423L28.319506150786605,117.18872301887524L28.393133080460707,115.82515440926532L28.540386939808904,116.69372590487248L28.614013869483006,112.7441904377725L28.761267728831204,111.93865151389006L29.5711639552463,111.89107244846475L30.381060181661393,111.51259619816142L30.454687111335492,110.37044686538205L30.528314041009594,112.84213603658165L30.82282175970599,105.60447425301453L31.04370254872829,106.8618530432903L31.11732947840239,109.48534433782577L31.632717986121087,108.17034573593408L32.148106493839784,108.70214067973183L32.22173342351388,108.5131469132103L32.29536035318799,109.12315292561907L32.81074886090668,108.76291593012276L33.694272016995875,110.38478339301852L33.91515280601818,108.59670258802178L34.13603359504047,109.3548707865169L34.35691438406277,110.67805437888934L34.72504903243327,109.95714224127751L35.240437540151966,111.17575914371504L36.12396069624116,110.2086940796923L36.19758762591526,109.66488144365688L36.63934920395986,109.17992212333249L36.93385692265626,109.55502220045278L37.22836464135265,109.8536198613027L37.74375314907135,105.88149402551883L37.96463393809365,104.28390053865022L38.111887797441845,104.78578283557654L38.33276858646414,104.44762112425319L38.62727630516054,102.58303942601468L38.848157094182845,103.99286318200667L39.14266481287925,98.38100562879818L39.21629174255334,99.19552512612282L39.608968700815204,98.44719621379247L39.82984948983751,100.09768697171825L40.19798413820801,97.33858190453194L40.4924918569044,96.03957005842662L40.5661187865785,95.5520370195376L40.7869995756008,96.4938759549571L40.860626505274894,96.76332188043796L41.0815072942972,92.6033057357678L41.228761153645394,92.78154350427205L41.67052273168999,93.4558024872516L41.74414966136409,94.48381340598027L41.817776591038196,95.39457658096649L41.89140352071229,96.06035255439456L42.18591123940869,96.73292311099624L42.40679202843099,98.0050459608346L42.55404588777919,98.12347859478L43.511195973542485,99.52605085573668L43.805703692238886,98.25061306659981L44.54197298897988,99.31824414857523L44.61559991865397,100.12529571896782L44.762853778002174,100.90078534488447L44.83648070767627,102.15070915946211L44.98373456702447,102.21024910791529L45.057361496698576,101.90722059144093L45.49912307474317,102.60117274367832L45.57275000441727,102.5154644834431L45.94088465278777,104.02502067592512L46.23539237148417,104.41160782649618L46.382646230832364,104.93056618149005L46.45627316050646,106.33544033990582L46.60352701985466,107.24770980156644L47.33979631659565,107.61150516374018L47.41342324626976,109.3043675033038L47.48705017594386,110.07715576994242L48.296946402358955,109.9141445074149L48.51782719138125,107.91545729855446L48.665081050729455,108.91981254033031L48.73870798040355,109.44831194508534L49.03321569909995,111.53518162576289L49.25409648812225,112.86027538571749L49.32772341779634,113.98400096369593L49.40135034747045,114.9620057521669L49.474977277144546,115.16613207292605L49.69585806616684,114.1607379825351L49.76948499584095,112.61151404324768L49.916738855189145,113.68353997170502L49.99036578486324,113.84056409909431L50.13761964421144,115.0561216959897L50.57938122225604,114.80124632811786L50.65300815193014,114.90602593809372L50.80026201127834,113.83292319097015L50.87388894095244,114.0606194774163L51.02114280030064,114.27339427557557L51.16839665964884,113.62387338558244L51.31565051899703,114.69591774734424L51.38927744867114,114.22825501355015L51.46290437834523,114.51036393827252L51.536531308019335,114.89728187339361L51.68378516736754,115.75552686814696L51.97829288606393,116.60735187858046L52.272800604760334,116.0493314111635L52.346427534434426,116.77605740947703L52.49368139378263,117.384918935511L52.56730832345672,117.69967449377067L52.64093525313083,116.53468413733393L52.714562182804926,115.82070104068887L53.59808533889412,116.55396918904032L53.966219987264616,116.63820977888437L54.11347384661282,116.23754074839786L54.18710077628691,116.86183744845516L54.48160849498331,117.61740695597385L54.62886235433152,118.26965478846193L54.92337007302792,118.57868883164448L55.144250862050214,119.55326356237919L55.586012440094805,118.75320022718392L55.73326629944301,118.32014138475466L55.954147088465305,118.6558200766791L56.10140094781351,117.82876612830968L56.24865480716171,117.68581350907694L56.322281736835805,118.64651847904278L56.616789455532206,117.9321673398527L56.764043314880404,118.27350464843914L56.9849241039027,118.84875737029697L57.0585510335768,120.14352933636465L57.205804892924995,120.14515077539744L57.4266856819473,120.64700978182542L57.6475664709696,119.97330264993172L57.942074189665995,120.07707745839889L58.67834348640699,120.0170137179914L58.75197041608109,120.17304244603032L59.12010506445159,120.87570893564182L59.193731994125685,120.77328864796888L59.488239712822086,119.6862103216457L59.78274743151849,120.64931654410898L59.930001290866684,120.20761081253843L60.15088207988899,120.64778913460256L60.22450900956308,120.20732102947468L60.44538979858538,120.28328956253901L60.66627058760768,119.86925257921266L61.108032165652276,120.98952751900538L61.181659095326374,121.41715057243024L61.40253988434868,121.4559685088831L61.62342067337097,121.98368951044125L61.844301462393275,121.18293332741558L62.06518225141557,121.47212416417301L62.21243611076377,122.24448838355268L62.433316899786064,122.9151240838515L62.50694382946017,123.71696068552615L62.654197688808374,124.78095512244018L62.87507847783067,125.01460904814635L62.94870540750477,125.0523611473156L63.02233233717887,125.1805715150245L63.39046698554937,123.82572497354259L63.464093915223465,124.11133042428656L63.68497470424576,124.08476926292235L63.83222856359396,124.32611007869717L64.05310935261626,124.35208061226072L64.20036321196446,123.9694843471458L64.34761707131265,123.94724411476257L64.71575171968315,124.47841505681268L64.78937864935725,124.32873412366632L64.93663250870546,123.17229991327127L65.01025943837956,124.47345128393906L65.52564794609825,124.42527299325293L65.74652873512055,123.60113855366578L65.82015566479465,124.16363001167989L66.04103645381694,123.89794244508687L66.40917110218744,123.26027568598246L66.55642496153564,122.33982021313815L66.77730575055794,122.4141343319344L66.85093268023205,122.67291097641801L66.99818653958025,123.41694423972534L67.51357504729894,124.39801069529582L67.88170969566944,125.45595302992581L67.95533662534353,122.71998877107599L68.32347127371403,122.28860995034672L68.69160592208453,122.615858648832L69.05974057045503,122.43878137554202L69.57512907817373,121.99270425524688L69.64875600784782,121.94279279345503L70.16414451556652,123.15937376534636L70.53227916393702,122.36206813371473L70.75315995295932,123.25867056765733L71.26854846067802,123.50178352781779L71.71031003872261,122.30727883005576L71.78393696839672,122.49493929054077L72.1520716167672,123.44978775155259L72.5202062651377,123.04401918481794L72.59383319481181,123.51527635072009L72.74108705416,123.94247501477761L72.8883409135082,125.19013868513557L73.1092217025305,126.12131953219856L73.18284863220461,125.91392531568354L73.2564755618787,126.71800050426727L73.40372942122691,127.18959982339322L73.6246102102492,127.770411919271L74.36087950699019,128.0381223665648L74.5817602960125,128.42074565210805L74.72901415536069,127.71973868838478L75.09714880373119,127.48490950220747L75.1707757334053,127.45354586914542L75.53891038177579,126.90544018137577L75.68616424112399,126.10741024515596L76.20155274884269,126.55164766506964L76.42243353786499,125.99329931085374L76.93782204558367,126.39671400909504L77.15870283460598,126.137767604533L77.45321055330238,124.98586019734813L77.60046441265057,125.75689008104342L77.67409134232469,125.42468030303925L77.74771827199878,125.71793024441894L78.04222599069519,126.58490366759058L78.41036063906569,125.74931053888673L78.63124142808798,126.72414183574159L78.85212221711028,126.9717706774363L78.99937607645846,126.95827972259173L79.14662993580667,127.20981808336478L79.22025686548078,127.97607221374366L79.66201844352537,127.87716615240755L79.88289923254767,126.26229556406453L80.03015309189587,126.38266166200688L80.17740695124405,126.85481116619205L80.32466081059226,126.43646619206388L80.61916852928867,126.27484812971197L80.91367624798507,127.05113360633712L81.06093010733326,127.96881469404966L81.42906475570376,128.12588482367013L81.57631861505195,128.8737351429168L82.16533405244475,129.93477555172524L82.45984177114116,129.80699644259437L82.75434948983755,129.52133553935602L83.12248413820805,128.7736468213618L83.19611106788214,128.11310573738928L83.93238036462314,127.83956456661413L84.00600729429723,128.9852982206051L84.30051501299364,128.50666577359385L84.59502273169004,127.69852806096927L84.66864966136414,128.28279963008723L84.81590352071233,128.36343712194378L85.18403816908283,127.7881407206372L85.33129202843104,127.50509893600605L85.40491895810513,124.24285891367961L85.55217281745333,124.29351192170353L85.69942667680154,124.50711155277926L85.84668053614972,125.4274746252039L85.92030746582383,123.00950514259435L86.43569597354252,123.80397436862413L86.87745755158713,124.72698955881441L87.17196527028352,125.18438942757467L87.31921912963172,125.98279821004441L87.39284605930582,124.87894474463202L87.54009991865402,125.02185357133466L87.68735377800222,124.76461691435198L88.0554884263727,125.031428341055L88.12911535604682,126.05124351308834L88.20274228572092,125.85701068199329L88.34999614506911,126.43915680623385L88.49725000441732,126.45395904110397L88.71813079343961,126.30562556389378L88.86538465278781,126.44395088312255L88.93901158246192,125.38935537326128L89.4544000901806,126.31311531208672L89.60165394952881,125.38416370898545L89.74890780887701,125.0058661792988L89.89616166822519,125.69112304345418L90.5588040352921,125.96932340196241L90.6324309649662,126.48412013869567L90.7796848243144,125.32877647947754L90.9269386836626,125.62412885446798L91.66320798040358,125.66049056410881L91.88408876942589,124.68382434493665L92.25222341779639,123.9116396399417L92.62035806616689,123.29267069655192L92.76761192551508,123.57929394391422L92.84123885518919,122.23560257983823L92.9148657848633,122.63076984521467L92.98849271453739,123.17250338930918L93.13574657388558,124.17827896315332L93.28300043323378,125.39978943238864L93.57750815193019,124.31007218697329L93.72476201127839,124.07999761728401L93.94564280030069,124.94800774336875L94.38740437834528,125.10106586850664L95.12367367508627,125.07451528025035L95.27092753443446,124.5076294090822L95.41818139378267,124.00115760389909L95.78631604215317,124.91284046419742L96.08082376084957,125.07151588721246L96.22807762019777,125.79082795678806L96.37533147954596,125.41431032130708L96.44895840922007,125.15770776160988L96.66983919824236,125.48773055782442L96.81709305759057,125.73782757785236L97.25885463563516,125.668008470195L97.62698928400566,123.74249850692857L98.21600472139846,124.37068096834342L98.28963165107255,124.49729572809363L98.36325858074666,124.45686404834382L98.43688551042075,124.44136031074868L98.58413936976896,124.42121702971151L98.73139322911715,125.52255400963654L98.80502015879125,125.33299979668509L99.61491638520634,125.80666623519969L99.83579717422865,123.54080909436428L99.90942410390274,123.60776277398116L100.3021010621646,122.26237056054492L100.37572799183872,123.0726202259282L100.6702357105351,123.57727245032278L100.8911164995574,123.08588868454946L100.9647434292315,123.00514672170715L101.11199728857972,123.48886624299219L101.2592511479279,124.5359496911183L101.332878077602,124.73778601656304L101.7746396556466,124.38801380961152L101.8482665853207,124.90832606256757L101.9218935149948,125.33571634386176L101.9955204446689,125.61941433402919L102.14277430401711,126.21871609846526L102.2164012336912,126.67276374487878L102.3636550930394,125.04852544144953L102.51090895238761,125.60552756688082L102.5845358820617,124.85675958488216L102.65816281173579,125.17590780069963L103.09992438978038,123.79883838568851L103.17355131945449,124.21069768560855L103.2471782491286,122.58452041963298L103.3208051788027,122.67225148008328L104.27795526456597,122.59720431878874L104.42520912391419,123.18849101089953L104.57246298326238,123.46018468832833L105.01422456130699,123.93457983230985L105.52961306902569,124.18354751767394L105.89774771739617,124.74049732791767L105.97137464707028,125.4201255009703L106.63401701413717,125.49813470067112L106.70764394381126,125.41889017438803L107.44391324055226,124.11786963655025L107.59116709990047,125.04010091930522L107.73842095924866,123.61455937503835L107.95930174827097,124.17226949959928L108.18018253729326,124.67467217700147L108.32743639664146,124.54072981735331L108.47469025598966,124.71561641210383L108.69557104501196,125.33103475938876L108.84282490436016,124.28829787982349L109.06370569338246,123.47745313441176L109.28458648240475,124.22428851008897L109.35821341207887,125.32604047763732L109.57909420110116,126.16961926901234L109.72634806044935,126.83999648539236L110.31536349784214,126.78907045981937L110.38899042751625,127.44577546291582L110.53624428686445,126.242374458603L110.68349814621264,126.28739933191002L110.83075200556085,126.83154851101025L111.27251358360544,127.79775973465665L111.41976744295364,128.48197570961887L112.22966366936875,129.03773674770704L112.37691752871693,128.44452495023L112.67142524741334,129.2105749628534L112.74505217708743,129.8488082143267L112.81867910676154,130.5071579836827L112.96593296610973,130.44703504845336L113.03955989578384,131.568851952826L113.33406761448023,131.18638573001547L113.55494840350252,131.443674927211L114.21759077056943,131.8689731506498L114.43847155959173,131.65968747956944L115.10111392665863,131.41068367830775L115.395621645355,131.4761779851104L115.54287550470322,131.68237623070675L115.69012936405142,130.58111264534648L115.7637562937255,130.62376202893535L115.83738322339963,131.18436554299635L116.131890942096,131.26832689540677L116.20551787177013,131.7603979755848L116.27914480144422,131.37987151574384L116.35277173111831,130.65796067594596L116.64727944981472,131.34464004896353L116.868160238837,132.22641248653122L116.94178716851111,132.41507213643828L117.1626679575334,132.22964609909025L117.2362948872075,132.63643217982278L117.60442953557799,132.79297975149407L117.7516833949262,133.46276260118964L118.04619111362261,133.89196653778225L118.1934449729708,134.28709546089482L118.2670719026449,134.3415051948862L118.5615796213413,134.26647636679542L118.8560873400377,133.71096711730488L119.07696812906,133.74347641234968L119.73961049612689,133.61400699992112L120.32862593351969,134.37479953368828L120.54950672254199,133.34387189336462L120.69676058189019,134.0844681176286L120.77038751156428,133.97797397321258L120.91764137091249,133.3537465062291L120.99126830058658,134.16233145530038L121.06489523026069,134.0862509642748L121.21214908960889,134.82575310226602L121.28577601928299,134.72567490034297L121.58028373797939,134.66880556151398L121.72753759732758,134.6933996653242L121.87479145667578,134.20063262250744L122.02204531602398,134.3612782150487L122.09567224569808,133.62628253915395L122.53743382374267,134.25550309504757L122.61106075341677,134.50356271699528L122.75831461276498,134.5721948560024L123.56821083918007,134.45245152013152L123.64183776885416,134.7436778074311L123.78909162820237,134.48337458459326L123.93634548755057,134.97969522836587L124.08359934689878,132.97911550880949L124.37810706559516,133.69430557647908L124.81986864363977,133.8527837953644L125.04074943266205,134.1859721190172L125.18800329201026,135.13127104958784L125.55613794038076,134.70738919644845L126.07152644809945,134.39570462555045L126.21878030744764,133.95279010461277L126.66054188549225,133.81553474703338L126.95504960418864,134.9426345386188L127.47043811190734,135.18192428930203L127.61769197125554,134.6593756026171L127.76494583060375,133.80897059878163L128.03491123940876,134.4975650414258L128.25579202843107,134.64881123058814L128.32941895810518,135.15916275096365L128.69755360647568,135.22355060669395L128.77118053614979,135.47293378387522L128.99206132517207,135.44901691344538L129.06568825484615,133.99108264769006L129.72833062191307,134.56774778197075L129.87558448126128,135.3314206014449L129.94921141093536,135.08449792072713L130.46459991865405,135.81838579793765L130.53822684832815,136.23006469560812L130.61185377800226,136.74785333958616L130.75910763735047,137.4881094825362L131.64263079343965,138.04537822759667L131.78988465278786,138.22394079770996L131.93713851213604,137.58122752093342L132.15801930115836,138.0964223288054L132.30527316050654,137.67622083223014L132.52615394952886,138.09115244137342L132.59978087920294,138.13370191319584L132.74703473855115,138.38506890559046L133.11516938692165,137.45211970068712L133.18879631659576,134.88411081457417L133.92506561333676,135.61056064835702L133.99869254301083,135.3533792397838L134.14594640235904,134.4749553228832L134.58770798040365,135.7235549442656L134.73496183975183,133.78176280562062L135.02946955844823,133.55338501622344L135.47123113649283,134.1325993921953L135.76573885518923,133.66393720858338L136.06024657388562,134.2843762821098L136.20750043323383,134.36425049953505L136.35475429258204,133.1221956120798L136.79651587062662,132.70476888201065L136.94376972997483,133.55216992572795L137.0173966596489,133.89745402117936L137.09102358932302,134.39652139789814L137.60641209704173,134.59687768520848L137.82729288606401,134.87623878243508L137.90091981573812,135.60093071451792L137.97454674541223,135.52855735204642L138.12180060476044,135.79587647857727L138.19542753443451,136.2597514198864L138.34268139378273,135.1248871970775L138.8580699015014,135.27182045744877L139.1525776201978,135.8337621471462L139.2262045498719,135.53573068972398L139.29983147954601,135.77135938445386L139.8888469169388,134.75122752109513L140.1833546356352,134.77648439578593L140.2569815653093,135.25879832811012L140.40423542465751,135.12714202205856L140.77237007302801,135.62523222069908L141.2877585807467,136.25974467205685L141.50863936976899,135.3242491559097L141.7295201587913,135.98483077369667L141.87677401813949,136.75225605884143L142.1712817368359,137.73232433983904L142.3185355961841,138.22965534070926L142.3921625258582,137.397864683508L142.61304331488049,137.96075922610345L142.98117796325099,138.97377553110897L143.12843182259917,139.5975233390921L143.2020587522733,139.9306297543589L143.27568568194738,139.24564744814404L143.34931261162149,139.82558972030577L143.49656647096967,140.33448479621077L143.5701934006438,140.3969121114255L143.64382033031788,140.51580027617638L143.71744725999199,140.70040805693506L143.7910741896661,140.54704778106768L143.93832804901427,141.14755684516675L144.15920883803656,141.41426352940493L144.38008962705888,141.39659765607882L144.45371655673299,141.68655224576537L144.82185120510348,141.7633612293259L144.89547813477756,141.2485776092502L145.18998585347398,140.78906509029687L145.26361278314806,140.8944128876659L145.41086664249627,141.539982046056L145.63174743151856,142.1133498687356L145.99988207988906,141.829791524868L146.22076286891138,140.6527830094322L146.29438979858546,140.95144399231438L146.66252444695596,141.4227703083672L146.73615137663006,141.09251110593024L147.17791295467467,141.17512382508158L147.32516681402285,141.0093459856063L147.54604760304514,140.74456965351092L147.61967453271924,141.34914655911325L147.69330146239338,141.51720621304054L148.65045154815667,140.726294941559L149.31309391522356,141.4971759207234L149.75485549326814,142.28377112826342L149.97573628229046,142.2702426731504L150.78563250870553,142.08747663830337L150.85925943837964,141.96803208287824L150.93288636805374,142.6975313619605L151.00651329772782,143.37378444718954L151.81640952414293,143.58413242580556L152.18454417251343,143.62306062261462L152.25817110218753,143.54052324124154L152.33179803186164,143.5453008294824L152.40542496153572,143.11450484396727L152.47905189120982,143.5870500550473L152.55267882088393,143.68209675538662L152.626305750558,144.45005168980595L152.69993268023214,143.92608567127144L152.92081346925443,144.56164938165585L153.50982890664724,143.1765352580178L153.65708276599543,143.6138262255866L153.87796355501771,143.94210185637166L153.95159048469182,144.08606277008735L154.0252174143659,143.778712026743L154.09884434404,144.44018191632054L154.24609820338824,144.12404877443748L154.39335206273643,143.46439619298263L154.46697899241053,143.4924977624836L154.7614867111069,143.05601793554385L154.835113640781,143.16870486486664L154.90874057045514,143.48245785281543L154.98236750012921,143.41594667479444L155.2768752188256,144.21071705547698L155.4977560078479,143.6301425653002L155.71863679687021,144.10207009350344L155.9395175858925,143.7229068792288L156.0131445155666,144.0838347254742L156.2340253045889,144.60942387541408L156.3812791639371,144.01921179430946L156.4549060936112,144.25474210030103L156.7494138123076,143.75945296828914L156.8966676716558,144.08562360316756L157.4856831090486,144.14051366650773L157.6329369683968,144.29292464376067L157.7065638980709,144.59510838129336L157.8538177574191,145.03560016064668L158.0010716167673,145.06461369676322L158.0746985464414,145.3157013247064L158.29557933546369,144.88190647365934L158.4428331948119,144.39851031088602L158.516460124486,143.6321832509011L158.8109678431824,144.02572874988607L159.252729421227,142.68409532829577L160.06262564764208,142.45816503039157L160.13625257731618,142.5309889989258L160.2098795069903,142.31690388190043L160.28350643666437,142.76833677886384L160.50438722568666,142.59761990384794L161.2161142125363,142.7741886705972L161.2897411422104,143.40908055481242L161.51062193123272,144.0676480304296L161.58424886090683,143.83437203940113L161.8051296499291,144.06164086651626L162.0260104389514,144.05123406097835L162.467772016996,143.48272019003986L162.76227973569243,144.01481385584677L162.8359066653665,143.95932501323867L162.98316052471472,144.14513137650033L163.1304143840629,144.19906118385663L163.27766824341109,144.2768974560509L163.3512951730852,144.4576259731285L163.7930567511298,145.00635839763962L164.16119139950027,146.01607020378182L164.5293260478708,146.34136150025947L164.67657990721898,146.5849419535478L164.8238337665672,146.61153260974368L164.89746069624127,146.70605230941266L165.11834148526358,146.51891420701492L165.33922227428587,146.38721799508937L165.56010306330816,146.5801466207961L165.63372999298227,147.0018192242963L166.3699992897233,147.24836497457056L166.59088007874558,147.38608665495744L166.81176086776787,148.13872137124858L166.88538779744198,148.36229074531204L167.03264165679016,148.47431995319502L167.1062685864643,148.86804726975097L167.17989551613837,148.77912721653578L167.91616481287937,148.31715986581597L168.65243410962037,148.69246561513643L168.94694182831677,148.3658802386523L169.31507647668727,148.57916208746954L169.75683805473184,148.62700320731642L169.97771884375416,148.94523897769335L170.12497270310237,148.4678048750454L170.41948042179874,148.53322628503523L170.86124199984337,149.1974848113681L170.93486892951745,147.4080108839617L171.00849585919156,147.46391692605084L171.08212278886566,145.96413701434795L171.67113822625845,144.5879497319827L171.96564594495484,144.86595082767812L172.18652673397716,145.08302328543803L172.26015366365127,144.5903077048104L172.62828831202174,144.63251509596603L172.70191524169584,145.09580243662603L172.77554217136992,145.49317125666028L173.95357304615553,145.936759376522L174.17445383517781,146.15147842315358L174.39533462420013,145.77496921363786L174.46896155387424,146.04987322980656L175.05797699126705,146.23946100068417L175.20523085061524,146.59612088505537L175.42611163963753,146.83686090234144L175.49973856931163,147.67158638463093L175.64699242865981,147.8092116990488L176.01512707703031,148.2681811694327L176.3832617254008,148.204137937771L176.82502330344542,148.6445374245582L176.89865023311953,149.00707193207916L177.26678488149003,149.45069758357317L177.4140387408382,149.24424621868258L177.4876656705123,149.59255174385316L177.92942724855692,149.83304155309852L178.07668110790513,150.12800621549957L178.3711888266015,150.91990414265882L178.5920696156238,151.23972391178668L179.1810850530166,151.61237867982808L179.40196584203892,151.84350456655352L179.6228466310612,151.50078174719746L179.6964735607353,150.87400370626685L180.5063697871504,150.86532280615555L180.65362364649857,150.0624562905245L180.8745044355209,150.6439101613756L181.09538522454318,150.8425573878647L181.38989294323957,150.1910203275393L181.6107737322619,149.36084502650868L181.83165452128418,149.6898690882094L182.05253531030647,149.89140979972808L182.1997891696547,148.89910583659756L182.27341609932878,149.55934312680336L182.49429688835107,149.02629059076645L182.9360584663957,149.5283123627999L183.0833123257439,149.83439624908618L183.156939255418,150.25959075550824L183.23056618509207,150.24578283081428L183.30419311476618,149.81225173059013L183.67232776313668,150.0924774611962L183.74595469281078,150.52112328133057L183.8195816224849,151.01628348953457L183.96683548183307,151.60832175077394L184.11408934118126,151.1789227184409L184.18771627085536,151.58488002608885L184.26134320052947,151.6172345911636L184.33497013020354,151.30161512327095L184.48222398955178,149.6706153914215L184.85035863792226,149.19942644403568L184.92398556759636,149.30163100223464L184.99761249727047,149.2056241721073L185.43937407531507,149.28922623966784L185.51300100498915,149.7829684782957L185.73388179401144,149.96479804419425L185.80750872368557,150.348593401013L185.88113565335968,150.87618900675798L186.02838951270786,151.25072736684945L186.24927030173015,150.48477918794657L186.61740495010068,150.28749789623134L186.98553959847115,150.07148445575996L187.13279345781933,150.51408372942956L187.28004731716757,150.75886542503383L187.50092810618986,150.7623981493318L187.72180889521215,150.48748574313862L187.86906275456033,149.89821004461595L187.94268968423447,149.84488597515391L188.38445126227904,148.84307787376005L189.26797441836823,149.16451042619553L189.56248213706465,149.32538275173528L189.70973599641283,149.06657166565813L189.93061678543512,148.27270535868678L190.37237836347975,148.3906862486814L190.88776687119844,147.89266884873976L190.96139380087254,147.8226806780598L191.18227458989483,146.92249508304224L191.25590151956894,147.14241729372714L191.47678230859123,147.32524636025215L191.77129002728765,146.50362628154105L191.84491695696173,146.27797882063064L191.99217081630994,146.94723400319262L192.065797745984,146.57608022053017L192.21305160533223,147.00597067869427L192.58118625370273,146.64800374871498L192.65481318337683,146.71467580743428L192.87569397239912,147.3174496832285L192.9493209020732,148.00910546345602L193.3910824801178,147.7950748840005L193.538336339466,148.10656206071917L193.6119632691401,148.75981194776472L193.75921712848833,148.2001386548011L194.05372484718472,146.9764212402287L194.1518940867502,147.50589974173727L194.37277487577248,147.5934201091882L194.5936556647948,146.35157547818676L194.96179031316527,145.56495126119327L195.10904417251345,146.08592751676903L195.2562980318617,146.06276821277507L195.9925673286027,146.87232877752334L196.13982118795087,147.60778318130724L196.21344811762498,147.78480190273845L196.72883662534366,147.53519117934388L197.02334434404005,147.71489839037693L197.61235978143287,148.13945011926802L197.83324057045516,148.8779831189703L197.98049442980334,149.06584479847913L198.34862907817384,149.45670622816286L198.56950986719613,149.55805667823543L200.11567539035224,149.80498633337118L200.26292924970045,148.10907821004724L200.55743696839684,148.40271230207577L200.77831775741913,148.92784015484574L201.22007933546374,148.85921380377104L201.88272170253063,149.48023816050897L202.10360249155292,149.09024593514795L202.17722942122703,148.41193605198774L202.25085635090113,148.54427562729958L202.7662448586198,147.061491068396L203.42888722568674,147.52052846382776L203.57614108503492,147.7071175565606L203.79702187405724,148.28303237526157L203.94427573340542,148.76193437086147L204.01790266307952,149.07852500988432L204.2387834521018,149.6100979194074L204.31241038177592,150.03999806535512L204.4596642411241,150.28010313768917L204.60691810047234,151.24276669981015L204.82779888949463,150.9545148957758L204.9750527488428,150.98825043521953L205.7113220455838,151.2454288249079L205.7849489752579,151.65514282244123L206.00582976428024,152.26672229611862L206.0794566939543,152.62365954803724L206.3739644126507,152.44000071721138L206.66847213134713,152.78905253831377L206.7420990610212,152.4871051449805L206.88935292036942,152.4831755189877L207.5519952874363,152.71484074037798L207.8465030061327,152.99378835670578L208.5091453731996,152.54536096158893L208.65639923254778,152.4900891773378L208.7300261622219,152.55723018708773L209.0981608105924,152.50874383253753L209.1717877402665,152.8689610053536L209.8344301073334,152.72715112020305L210.05531089635568,152.6199382495816L210.20256475570386,152.7876734747073L210.49707247440028,152.71900073603334L210.64432633374847,151.86900376341043L210.71795326342257,152.31624445850903L210.93883405244486,151.2429277511589L211.012460982119,151.12760900376173L211.0860879117931,151.07230901113132L211.23334177114128,150.93415571210653L211.3069687008154,151.0221298465016L211.52784948983768,150.9846810602825L211.67510334918586,151.01878205857233L211.74873027886,151.27734746480664L211.96961106788228,151.79079900730818L212.04323799755636,151.94877810833225L212.11686492723047,151.48716509584818L212.26411878657865,151.4150862578125L212.484999575601,151.02656821925922L213.22126887234197,151.17977986435577L213.44214966136425,151.22447580231713L213.73665738006065,150.20624687897032L213.95753816908297,150.43555203260468L214.10479202843118,150.3360481082634L214.17841895810525,150.6231380411293L214.32567281745347,151.1532282750124L214.62018053614986,151.0835848763769L214.76743439549807,151.63669113862142L214.91468825484625,151.26951775398763L215.13556904386854,151.70564870293256L215.35644983289086,151.4844271916067L215.50370369223907,150.642580247934L215.87183834060954,150.2210847899061L216.01909219995775,150.20720905546602L216.09271912963186,150.8380878098551L216.53448070767644,151.43757996619067L216.60810763735054,151.4139113933894L216.90261535604697,151.08033777553024L216.97624228572104,150.95362507127504L217.49163079343975,151.42379412608383L218.15427316050662,151.6878408625036L218.8169155275735,150.50973941436766L219.33230403529222,150.50789531541432L219.40593096496633,150.69186010089976L219.62681175398865,151.21683822034507L220.2158271913814,150.7168493353564L220.36308105072965,150.98229199873776L220.51033491007783,151.2953451612221L221.6147388551893,151.27133138073924L221.6883657848634,151.80336511435877L222.0565004332339,152.01023370828372L222.2773812222562,152.04340501973707L222.64551587062672,152.6045220749608L222.866396659649,152.56784828472624L223.30815823769362,152.68013355200264L223.6762928860641,151.5043790950752L223.7499198157382,151.90435692280923L224.04442753443462,152.12516599922452L224.2653083234569,151.88742025230715L224.4861891124792,151.27678555479193L224.55981604215327,151.3078871120919L224.78069683117562,151.06417207913896L225.0015776201979,150.86007834666106L225.1488314795461,149.7304574592015L225.5905930575907,149.10424730106834L225.73784691693888,149.5246725618954L225.81147384661298,149.85839272919964L225.95872770596117,149.06541672459343L226.1796084949835,148.8856920615927L226.4004892840058,149.1866453105577L226.54774314335398,149.7179299671271L226.69499700270217,149.41057855309415L226.8422508620504,149.72082764801993L226.91587779172448,149.20658968097885L227.21038551042088,149.81370481996635L227.28401244009498,149.44179034537484L227.35763936976906,149.73499993110545L227.43126629944317,149.62577987629223L227.50489322911727,149.00952234119308L227.5785201587914,145.5326274112879L227.65214708846548,146.1248135382017L227.7257740181396,146.24608029082796L227.7994009478137,146.28462927667726L227.87302787748777,146.7268528579499L227.94665480716188,146.4121392452266L228.02028173683598,145.8088923505669L228.09390866651006,145.41798738595858L228.16753559618417,145.60685738483494L228.2411625258583,146.0965076986993L228.31478945553238,146.78588790887824L228.38841638520648,146.5725692628949L228.4620433148806,146.77834637230748L228.53567024455467,147.1663996757099L228.60929717422877,147.6369073068223L228.68292410390288,148.35664137317409L228.75655103357695,149.18299060319944L228.83017796325106,149.40135371282273L228.90380489292517,149.26549762287647L228.9774318225993,148.97343030882405L229.05105875227338,149.5671169501131L229.12468568194748,149.82718138645672L229.34556647096977,150.3066920763138L229.56644725999206,150.8089879339958L229.64007418966617,150.4643744050725L229.71370111934027,150.7740269455971L230.00820883803667,151.29547102560005L230.30271655673306,150.5830932631009L230.37634348640714,150.27199848895592L230.44997041608127,150.23728118965386L230.67085120510356,149.9359533763845L230.81810506445177,149.72268767464686L231.18623971282227,149.87096566873538L231.48074743151867,150.0016398551179L231.55437436119274,150.1628962489667L232.21701672825967,150.67790971166616L232.29064365793374,150.70598436435455L232.43789751728195,150.53812130118715L232.65877830630427,149.01044325818296L232.73240523597835,149.25917753955915L232.80603216565245,149.47108251688732L232.95328602500064,149.87184139869757L233.32142067337116,149.66104686230938L233.46867453271935,148.73434951894455L233.76318225141574,148.57390012040662L233.83680918108985,149.15902778552473L233.91043611076392,149.0547655625698L233.98406304043803,149.00974867490416L234.20494382946035,149.55771852025177L234.57307847783082,149.88494398509408L234.86758619652724,150.04328811833207L235.30934777457182,150.02654307538535L235.60385549326824,149.08782712769474L235.9719901416387,148.17550069200172L236.8555132977279,147.55501787494575L236.92914022740203,147.52492475524738L237.66540952414303,147.4654059578936L237.95991724283942,147.8629885009391L238.32805189120992,148.16313195006546L238.40167882088403,148.2286074976105L238.47530575055814,148.44377873562522L238.9170673286027,148.31438164515143L239.2115750472991,148.72111827804758L239.35882890664732,149.3011477800795L239.65333662534368,149.8718602601545L240.38960592208468,149.48423584549934L240.610486711107,149.13882558391373L240.7577405704552,149.70109865690517L240.8313675001293,149.18557491200735L240.9049944298034,149.75096263305008L241.4940098671962,148.66177470385875L241.6412637265444,148.01470191209674L242.0093983749149,148.0786313620446L242.45115995295947,148.81085617065247L242.67204074198182,149.52034298618204L242.8929215310041,149.89326199813382L243.0401753903523,149.63021507694694L243.18742924970047,149.38110214697375L243.33468310904868,149.85325640928002L243.62919082774508,149.98408486057554L244.0709524057897,149.25906040226985L244.5127139838343,149.8766709214736L244.65996784318247,148.4464668117255L245.02810249155297,148.09127722182245L245.10172942122708,147.798569089932L245.17535635090118,147.54376440173002L245.32261021024937,148.2590396436979L245.39623713992347,147.49580424757792L245.6907448586199,147.49487853036197L245.83799871796808,148.14482743185877L246.13250643666447,147.30980536605855L246.3533872256868,147.41446090206745L247.01602959275368,147.10933400522657L247.38416424112415,147.69572271132054L247.45779117079826,148.4964183183641L247.75229888949468,149.37578561876023L247.82592581916876,149.89665426033568L247.97317967851697,149.91302016697895L248.12043353786515,150.27822277370808L248.26768739721334,150.33790036854455L248.34131432688744,150.48149565070614L248.41494125656158,150.65232460183702L248.78307590493205,151.21898213307605L249.00395669395434,151.21511790355336L249.07758362362844,151.09403922657748L249.22483748297665,150.0426730518448L249.37209134232486,150.5483742444759L249.66659906102123,150.7643379229173L249.74022599069534,150.6824319304928L250.10836063906584,150.92435017123051L250.18198756873994,151.18977374166616L250.47649528743634,150.8310817082089L250.55012221711047,150.80311257708496L250.62374914678455,151.350006222125L251.80178002157012,152.14022280679498L252.16991466994065,152.60317997758023L252.24354159961473,152.27687079348874L252.31716852928884,152.67362108057753L252.6853031776593,152.58077949316208L252.75893010733344,152.55733467208128L252.97981089635573,152.2690784424903L253.05343782602984,151.561915587104L253.3479455447262,151.97301436850043L253.49519940407444,151.8312854447252L254.01058791179312,152.13787693860766L254.0842148414672,152.31859298108512L254.37872256016362,152.00259424178813L254.5259764195118,152.4360452866217L255.11499185690462,152.63508068131247L255.85126115364562,153.12244349529814L255.9248880833197,151.82076505797895L256.66115738006073,151.7207925052797L257.0292920284312,151.68262505333917L257.5446805361499,152.04034868095553L257.6919343954981,152.46324997187762L258.1336959735427,152.9672230723115L258.354576762565,153.2691645402152L258.5018306219132,153.01720531394525L259.2380999186542,153.3801469742699L259.3117268483283,153.36520809758255L259.6798614966988,153.33897129525454L259.9743692153952,153.49951664742014L260.26887693409157,153.63155217151822" style="fill: none;" fill="none"></path></g></g></g></g><g opacity="0.2"><g><g><g><path stroke="rgb(255, 112, 67)" stroke-width="2px" d="M26.516873489265734,154.25635526324893L26.56595810904847,150.07055906363198L26.63958503872257,150.4363273485886L26.860465827744864,146.0654553699763L26.95716252871685,64.16313792264155L27.030789458390952,107.58931695717918L27.10441638806505,172.40691502761473L27.153501007847783,86.32742582561048L27.374381796870082,19.574538927338182L27.435982994697408,103.83405982646813L27.50960992437151,138.349454689726L27.80411764306791,120.89140834132883L28.172252291438408,121.32276722439323L28.319506150786605,125.6112642763594L28.393133080460707,101.47686457281449L28.540386939808904,126.31160965025558L28.614013869483006,66.92023852281177L28.761267728831204,102.18287212983206L29.5711639552463,111.29159769696793L30.381060181661393,106.56622714536448L30.454687111335492,94.92805243901857L30.528314041009594,147.33250821179143L30.82282175970599,1.592341663989771L31.04370254872829,125.43521191853527L31.11732947840239,149.24803405298059L31.632717986121087,87.75327940264108L32.148106493839784,117.14798932706653L32.22173342351388,105.44702778703491L32.29536035318799,119.21977447957974L32.81074886090668,102.68674084250198L33.694272016995875,138.2328006003991L33.91515280601818,77.37377630469659L34.13603359504047,122.80605698136839L34.35691438406277,134.50960366871314L34.72504903243327,96.78654927462856L35.240437540151966,133.74191329440998L36.12396069624116,92.06979770254482L36.19758762591526,99.33998071068861L36.63934920395986,99.86546519000433L36.93385692265626,116.83894671645041L37.22836464135265,115.71278986862902L37.74375314907135,27.1618205865623L37.96463393809365,72.322256353703L38.111887797441845,114.91722034750913L38.33276858646414,97.56244872137214L38.62727630516054,64.3077859327674L38.848157094182845,133.15923311396955L39.14266481287925,-18.58202772833377L39.21629174255334,116.29251871809886L39.608968700815204,82.63301530174334L39.82984948983751,135.2027784014363L40.19798413820801,38.29103826702786L40.4924918569044,68.0753020178619L40.5661187865785,84.9975451594017L40.7869995756008,116.99344342733372L40.860626505274894,102.65815665550892L41.0815072942972,1.1437284256028022L41.228761153645394,96.71863040431063L41.67052273168999,108.41659142452214L41.74414966136409,117.39215184517889L41.817776591038196,115.77386602343731L41.89140352071229,111.0166047010682L42.18591123940869,111.89890509472973L42.40679202843099,126.79427796878669L42.55404588777919,100.81299546354387L43.511195973542485,131.4830902743487L43.805703692238886,69.09793819917556L44.54197298897988,123.79536498442513L44.61559991865397,118.68218407785685L44.762853778002174,118.78178603268694L44.83648070767627,131.04824991382455L44.98373456702447,103.59031268086272L45.057361496698576,94.86610728120226L45.49912307474317,118.7637446557722L45.57275000441727,100.51475253810908L45.94088465278777,139.3394158113957L46.23539237148417,113.47418893114408L46.382646230832364,117.12052008732903L46.45627316050646,139.39801612744532L46.60352701985466,128.75661246571235L47.33979631659565,116.20392960013129L47.41342324626976,149.3552985374788L47.48705017594386,128.38993145432593L48.296946402358955,106.04526257477596L48.51782719138125,60.408236044732504L48.665081050729455,132.8266946295708L48.73870798040355,122.04556457537686L49.03321569909995,161.34310212071435L49.25409648812225,144.52665599632905L49.32772341779634,140.8707794706253L49.40135034747045,138.38945615523312L49.474977277144546,120.06130824785289L49.69585806616684,90.02439416965214L49.76948499584095,75.38121252703313L49.916738855189145,139.47149880318557L49.99036578486324,117.62142107274516L50.13761964421144,144.3512321626931L50.57938122225604,108.65333735721394L50.65300815193014,117.43556373758537L50.80026201127834,87.90569925098951L50.87388894095244,119.56624980467299L51.02114280030064,119.42205542504819L51.16839665964884,97.89573050394127L51.31565051899703,140.67327530898706L51.38927744867114,102.88856815746938L51.46290437834523,121.35514988365401L51.536531308019335,124.2907458878407L51.68378516736754,136.60387359088017L51.97829288606393,137.31134588252758L52.272800604760334,102.4790873815815L52.346427534434426,134.45811387413158L52.49368139378263,132.20655987294234L52.56730832345672,125.36548945706866L52.64093525313083,88.14855006644828L52.714562182804926,98.41614306632972L53.59808533889412,134.43619204353325L53.966219987264616,118.69342099725603L54.11347384661282,106.45863473520286L54.18710077628691,132.10441102879315L54.48160849498331,136.0717267551697L54.62886235433152,134.2059171772659L54.92337007302792,126.1317752164469L55.144250862050214,143.38040277076897L55.586012440094805,99.18664813591037L55.73326629944301,107.72602370082302L55.954147088465305,126.87000693532124L56.10140094781351,97.58493349102596L56.24865480716171,114.18584227499986L56.322281736835805,142.17378116329073L56.616789455532206,100.43378769181557L56.764043314880404,126.63666596410108L56.9849241039027,132.94625632644653L57.0585510335768,151.88079890515877L57.205804892924995,120.18490343038845L57.4266856819473,132.95346522561363L57.6475664709696,103.4496981563967L57.942074189665995,122.62276293181081L58.67834348640699,118.54334035197317L58.75197041608109,124.00187617095142L59.12010506445159,138.12143157968063L59.193731994125685,118.25917090292597L59.488239712822086,92.99764150542491L59.78274743151849,144.29767097100438L59.930001290866684,109.36036148378804L60.15088207988899,131.45896041095017L60.22450900956308,109.3876558298384L60.44538979858538,122.14960992294604L60.66627058760768,109.69640330735744L61.108032165652276,148.5176834808833L61.181659095326374,131.92613424188562L61.40253988434868,122.41003208853535L61.62342067337097,134.9552655761295L61.844301462393275,101.49815787922462L62.06518225141557,128.58188274139727L62.21243611076377,141.23475509528868L62.433316899786064,139.4055802794144L62.50694382946017,143.4351718219845L62.654197688808374,150.9480334846138L62.87507847783067,130.7613532163434L62.94870540750477,125.98094580756596L63.02233233717887,128.33436991609048L63.39046698554937,90.49612616730884L63.464093915223465,131.13775722364966L63.68497470424576,123.43127458577956L63.83222856359396,130.26426709947813L64.05310935261626,124.99111858887548L64.20036321196446,114.55469852662017L64.34761707131265,123.39993582321395L64.71575171968315,137.550627773683L64.78937864935725,120.64487929301225L64.93663250870546,94.70951731150092L65.01025943837956,156.499536229166L65.52564794609825,123.23937795298545L65.74652873512055,103.31445614738273L65.82015566479465,138.01033036492063L66.04103645381694,117.35733160515352L66.40917110218744,107.56182039030307L66.55642496153564,99.67870059384244L66.77730575055794,124.24377053655861L66.85093268023205,129.0442797885025L66.99818653958025,141.73644856772472L67.51357504729894,148.55445214589204L67.88170969566944,151.50603999159722L67.95533662534353,55.349490798288656L68.32347127371403,111.66603415029377L68.69160592208453,130.6744693118255L69.05974057045503,118.07808488616863L69.57512907817373,111.00736812821576L69.64875600784782,120.71361797748867L70.16414451556652,153.12090172287014L70.53227916393702,102.72588970128425L70.75315995295932,145.34079704085283L71.26854846067802,129.48944980742377L71.71031003872261,92.88708683343725L71.78393696839672,127.11702787213292L72.1520716167672,146.96817186889834L72.5202062651377,113.04957438589028L72.59383319481181,135.12295036410922L72.74108705416,134.46509322533427L72.8883409135082,155.92263847125687L73.1092217025305,149.05852854481546L73.18284863220461,120.80524040784269L73.2564755618787,146.52482457012277L73.40372942122691,138.80667597677723L73.6246102102492,142.0779394227343L74.36087950699019,134.63288732186845L74.5817602960125,137.84637299864823L74.72901415536069,110.45079083058198L75.09714880373119,121.69995278786391L75.1707757334053,126.68090313609378L75.53891038177579,113.40273392908918L75.68616424112399,106.44758364034628L76.20155274884269,137.49573301762982L76.42243353786499,112.23789824926973L76.93782204558367,136.33526967998904L77.15870283460598,119.75829400401562L77.45321055330238,96.60694438878424L77.60046441265057,144.75247107357418L77.67409134232469,117.2400927150602L77.74771827199878,132.94272019470952L78.04222599069519,147.9446388495191L78.41036063906569,105.16256867031836L78.63124142808798,150.74147584195185L78.85212221711028,133.07274272024773L78.99937607645846,126.62589360605838L79.14662993580667,133.40717770806646L79.22025686548078,146.85500745517277L79.66201844352537,125.44031116260115L79.88289923254767,86.474806549598L80.03015309189587,129.34827780932997L80.17740695124405,138.48782292339774L80.32466081059226,116.12906963660473L80.61916852928867,122.29280412929748L80.91367624798507,146.17779996954334L81.06093010733326,150.5793685229638L81.42906475570376,131.9959168230572L81.57631861505195,147.29999164955146L82.16533405244475,156.07779649889468L82.45984177114116,126.65863151812118L82.75434948983755,122.48288077465972L83.12248413820805,110.35114515233009L83.19611106788214,111.83781254363826L83.93238036462314,121.09967393015432L84.00600729429723,157.21556191520045L84.30051501299364,116.71338944536218L84.59502273169004,107.78635109203321L84.66864966136414,142.67904082731624L84.81590352071233,130.3503202589821L85.18403816908283,113.61298346817824L85.33129202843104,120.53100710639652L85.40491895810513,43.86177385173852L85.55217281745333,125.54159646917003L85.69942667680154,129.77019243328846L85.84668053614972,148.10519945246145L85.92030746582383,63.43069409172621L86.43569597354252,143.37974145401444L86.87745755158713,147.47017140528686L87.17196527028352,136.45478218801526L87.31921912963172,145.65572318441312L87.39284605930582,97.67977505830902L87.54009991865402,128.5431601859774L87.68735377800222,118.42623809757295L88.0554884263727,131.60573993788813L88.12911535604682,151.1798168089328L88.20274228572092,121.07104601973947L88.34999614506911,140.78345559917568L88.49725000441732,126.81869203442683L88.71813079343961,122.65062568234438L88.86538465278781,129.85234874282565L88.93901158246192,99.40362561652687L89.4544000901806,149.0750150075429L89.60165394952881,102.49431952864643L89.74890780887701,115.68441336788945L89.89616166822519,142.57623066641253L90.5588040352921,132.82433903022206L90.6324309649662,139.16901470583747L90.7796848243144,96.86040906488172L90.9269386836626,132.9017950719172L91.66320798040358,126.55646627768883L91.88408876942589,100.61813110349601L92.25222341779639,104.88449317318268L92.62035806616689,108.04085419939814L92.76761192551508,130.6418898971667L92.84123885518919,89.12609646904441L92.9148657848633,132.36797581532338L92.98849271453739,136.52121446199243L93.13574657388558,148.96133684361135L93.28300043323378,155.49872896617936L93.57750815193019,97.45860559462872L93.72476201127839,118.41078186797135L93.94564280030069,146.33645860363796L94.38740437834528,128.87253965315207L95.12367367508627,124.42028745573924L95.27092753443446,110.53910121173566L95.41818139378267,111.52127683161345L95.78631604215317,147.3774613548159L96.08082376084957,128.98141097340095L96.22807762019777,143.5152840615532L96.37533147954596,116.13659553057977L96.44895840922007,118.8348006816033L96.66983919824236,133.61977738107657L96.81709305759057,131.90043580073046L97.25885463563516,123.94760447365869L97.62698928400566,76.29623443647428L98.21600472139846,139.84965448007716L98.28963165107255,127.61719649023415L98.36325858074666,123.46059114008753L98.43688551042075,124.05933421260687L98.58413936976896,123.9248682943296L98.73139322911715,152.6605022895978L98.80502015879125,120.66221016432294L99.61491638520634,137.4782436489151L99.83579717422865,67.70799248228728L99.90942410390274,125.25756365581591L100.3021010621646,89.11065117029825L100.37572799183872,143.03793087148304L100.6702357105351,136.01237767552198L100.8911164995574,110.9777291136721L100.9647434292315,121.01558832463078L101.11199728857972,135.40817464070705L101.2592511479279,150.3370833792744L101.332878077602,129.71122593358137L101.7746396556466,115.76929146043288L101.8482665853207,137.7293199330975L101.9218935149948,135.8670246252198L101.9955204446689,132.61000681662364L102.14277430401711,140.98609179744614L102.2164012336912,137.86093836353092L102.3636550930394,85.02571397388778L102.51090895238761,139.33060280919182L102.5845358820617,106.40638524616776L102.65816281173579,133.04003213532357L103.09992438978038,89.86649796272494L103.17355131945449,134.3593153371768L103.2471782491286,82.51391270079638L103.3208051788027,124.83403126525133L104.27795526456597,120.74796819072984L104.42520912391419,137.75837961230252L104.57246298326238,130.15498587215L105.01422456130699,135.62414648262242L105.52961306902569,130.318358437656L105.89774771739617,138.46429425704878L105.97137464707028,142.1668400700821L106.63401701413717,127.42035911077815L106.70764394381126,123.4662259960703L107.44391324055226,92.05942432072592L107.59116709990047,147.76480168299653L107.73842095924866,88.48778916523584L107.95930174827097,137.91480561917214L108.18018253729326,137.0543778672594L108.32743639664146,121.24025566205401L108.47469025598966,129.02499775949457L108.69557104501196,140.49556146113503L108.84282490436016,98.59421216698378L109.06370569338246,103.49742227127687L109.28458648240475,142.6270646096673L109.35821341207887,152.47431976148843L109.57909420110116,146.95625177103372L109.72634806044935,143.35876787512612L110.31536349784214,125.53420174546035L110.38899042751625,143.62765052283115L110.53624428686445,96.58935664237053L110.68349814621264,127.3968577715678L110.83075200556085,140.23993520837297L111.27251358360544,151.60618302377193L111.41976744295364,145.34175075799055L112.22966366936875,142.73225223163064L112.37691752871693,113.82718451151129L112.67142524741334,148.0868246844556L112.74505217708743,145.57552349800088L112.81867910676154,146.72956495806673L112.96593296610973,128.96554483672008L113.03955989578384,159.211560714188L113.33406761448023,121.76202911594558L113.55494840350252,137.78354244154076L114.21759077056943,142.3487540991395L114.43847155959173,126.50267553803573L115.10111392665863,125.27497650854247L115.395621645355,133.09002440270893L115.54287550470322,136.76331104842535L115.69012936405142,103.44485578743382L115.7637562937255,131.67468630861802L115.83738322339963,144.99820763487088L116.131890942096,133.33722023320774L116.20551787177013,143.8855312645291L116.27914480144422,122.00331135364775L116.35277173111831,112.8693409758578L116.64727944981472,148.26512060036015L116.868160238837,153.9541854279949L116.94178716851111,137.06383852264852L117.1626679575334,127.6605591937911L117.2362948872075,142.66005666411922L117.60442953557799,136.65047182764934L117.7516833949262,149.96689629600343L118.04619111362261,144.46799009514675L118.1934449729708,144.02347592755228L118.2670719026449,135.6822166521829L118.5615796213413,132.41768934589484L118.8560873400377,120.02265127756573L119.07696812906,134.5445386827207L119.73961049612689,130.42374828044512L120.32862593351969,153.12150565263357L120.54950672254199,107.94076035607294L120.69676058189019,152.33351667976595L120.77038751156428,131.35384930497497L120.91764137091249,117.97214303517947L120.99126830058658,154.08669199043337L121.06489523026069,132.21154980845375L121.21214908960889,153.04784261777843L121.28577601928299,132.25964557241912L121.58028373797939,133.26748684088568L121.72753759732758,135.29942355986805L121.87479145667578,122.05834821082176L122.02204531602398,138.31975009004967L122.09567224569808,115.51523651814126L122.53743382374267,149.76014189794344L122.61106075341677,140.61600582458806L122.75831461276498,136.26336104743308L123.56821083918007,131.50185308772294L123.64183776885416,141.9197918061318L123.78909162820237,128.06923655180367L123.93634548755057,147.20954428615795L124.08359934689878,83.68278186627565L124.37810706559516,151.31732150502427L124.81986864363977,137.75784946581334L125.04074943266205,142.39607377236817L125.18800329201026,158.4244052190482L125.55613794038076,124.26250602279421L126.07152644809945,126.7154774318716L126.21878030744764,123.03892246037663L126.66054188549225,130.43342208751542L126.95504960418864,162.71552840903547L127.47043811190734,141.0782689687141L127.61769197125554,121.78324044093985L127.76494583060375,112.8541197596483L128.03491123940876,151.46523784092867L128.25579202843107,138.37567234651485L128.32941895810518,147.7347472959459L128.69755360647568,136.8101333677312L128.77118053614979,141.6179908872491L128.99206132517207,134.85968071067606L129.06568825484615,98.06608788607768L129.72833062191307,148.77736781372994L129.87558448126128,154.14910170960616L129.94921141093536,129.0000699436484L130.46459991865405,153.9021354270717L130.53822684832815,146.3742547690587L130.61185377800226,149.506696350843L130.75910763735047,155.72877974991007L131.64263079343965,151.7770514234005L131.78988465278786,142.6239055924432L131.93713851213604,121.74411344386847L132.15801930115836,150.79135060264116L132.30527316050654,127.32202513517987L132.52615394952886,148.3154927149723L132.59978087920294,139.18216452493982L132.74703473855115,144.5790093284909L133.11516938692165,114.46329471337506L133.18879631659576,71.60573877917345L133.92506561333676,153.5110294191897L133.99869254301083,129.01616562829363L134.14594640235904,112.82968929772497L134.58770798040365,166.49032990928515L134.73496183975183,85.93401340722922L135.02946955844823,127.92592210604231L135.47123113649283,148.4050355500776L135.76573885518923,122.1156204279346L136.06024657388562,149.57263127089732L136.20750043323383,136.3324331230006L136.35475429258204,102.51668952431805L136.79651587062662,122.41894620115212L136.94376972997483,154.43300061998104L137.0173966596489,142.40560821103153L137.09102358932302,146.69405334143434L137.60641209704173,139.53386206622272L137.82729288606401,141.7599826995014L137.90091981573812,153.45808308811985L137.97454674541223,133.74520348189944L138.12180060476044,142.38289389341332L138.19542753443451,147.6901056823017L138.34268139378273,107.16066892626556L138.8580699015014,138.8924066760455L139.1525776201978,149.68058166657482L139.2262045498719,128.19192993876487L139.29983147954601,141.57749206781918L139.8888469169388,109.61413222383804L140.1833546356352,135.39883969015557L140.2569815653093,147.1435082556907L140.40423542465751,131.8829956208653L140.77237007302801,147.89868553322128L141.2877585807467,151.8947822019889L141.50863936976899,112.27268023130105L141.7295201587913,152.26223930411206L141.87677401813949,155.66240213021015L142.1712817368359,161.88221191134434L142.3185355961841,150.4844012508431L142.3921625258582,116.90168982671432L142.61304331488049,151.83105804744866L142.98117796325099,163.93553621536506L143.12843182259917,154.9673090323561L143.2020587522733,148.13871345526096L143.27568568194738,122.36698091435862L143.34931261162149,154.1159620886057L143.49656647096967,152.87418138458324L143.5701934006438,141.93518518331456L143.64382033031788,143.44532658669448L143.71744725999199,145.24933310790277L143.7910741896661,136.7680932976833L143.93832804901427,155.94471606654528L144.15920883803656,147.98618976378577L144.38008962705888,140.9612924191515L144.45371655673299,148.8313307143563L144.82185120510348,143.6560133600014L144.89547813477756,128.56378124477754L145.18998585347398,129.4662053433164L145.26361278314806,143.49029066057437L145.41086664249627,157.44746821164324L145.63174743151856,156.24172107260074L145.99988207988906,134.84262311075153L146.22076286891138,111.65008603219707L146.29438979858546,148.31075692185001L146.66252444695596,153.03673413593074L146.73615137663006,132.95458563829692L147.17791295467467,143.21078595408903L147.32516681402285,136.92440999599845L147.54604760304514,134.2202092707624L147.61967453271924,156.24654157985273L147.69330146239338,145.65836845143122L148.65045154815667,121.23743003592105L149.31309391522356,160.49247388070955L149.75485549326814,161.66628379285072L149.97573628229046,141.9368876640504L150.78563250870553,137.58393409022904L150.85925943837964,139.0247957317879L150.93288636805374,160.67314179224607L151.00651329772782,160.03735405061795L151.81640952414293,148.76732235757444L152.18454417251343,144.58229131783878L152.25817110218753,141.50671751151583L152.33179803186164,143.66302550377046L152.40542496153572,132.49924992381023L152.47905189120982,155.23104871257348L152.55267882088393,146.02414493452943L152.626305750558,163.37324891211733L152.69993268023214,131.01502557869438L152.92081346925443,160.22259105973117L153.50982890664724,109.0459026342981L153.65708276599543,154.3891241662181L153.87796355501771,152.0311500891139L153.95159048469182,147.63340733509978L154.0252174143659,136.20527448158944L154.09884434404,160.73947842123806L154.24609820338824,136.33420392158297L154.39335206273643,127.20988002372471L154.46697899241053,144.18494925692443L154.7614867111069,132.30070733090454L154.835113640781,145.9454263790302L154.90874057045514,151.21365327196798L154.98236750012921,141.7770430321398L155.2768752188256,163.79467438029457L155.4977560078479,129.3241916693532L155.71863679687021,155.73084841430338L155.9395175858925,134.37993639597696L156.0131445155666,152.9774670376989L156.2340253045889,157.56047959339253L156.3812791639371,129.4757807726877L156.4549060936112,150.05845040851094L156.7494138123076,131.55502076861558L156.8966676716558,152.12280257932042L157.4856831090486,145.49306112451114L157.6329369683968,148.04848744169024L157.7065638980709,152.04122560512187L157.8538177574191,155.8897693889287L158.0010716167673,145.77953698405761L158.0746985464414,151.50275800224938L158.29557933546369,134.1927564273081L158.4428331948119,132.4871330705476L158.516460124486,124.74909851843067L158.8109678431824,153.7230934802829L159.252729421227,109.6248717893144L160.06262564764208,136.89101076718114L160.13625257731618,144.3254462746944L160.2098795069903,137.0416270243809L160.28350643666437,153.8921063671994L160.50438722568666,138.39098100956792L161.2161142125363,147.12502417913038L161.2897411422104,159.05346775186274L161.51062193123272,160.2954260822862L161.58424886090683,138.08621236343146L161.8051296499291,149.66177786249267L162.0260104389514,143.79479969889397L162.467772016996,129.47395531982812L162.76227973569243,157.12614751764664L162.8359066653665,142.59202301981912L162.98316052471472,148.72359073764616L163.1304143840629,145.52794694966923L163.27766824341109,146.1948630348956L163.3512951730852,148.91096199628535L163.7930567511298,158.52768813945L164.16119139950027,170.8964047078635L164.5293260478708,154.3568726772227L164.67657990721898,152.5870141484298L164.8238337665672,147.26675365085197L164.89746069624127,149.03511465244867L165.11834148526358,141.90763942758895L165.33922227428587,143.14208826032055L165.56010306330816,151.33410583356263L165.63372999298227,157.39226465892366L166.3699992897233,153.32350512857425L166.59088007874558,150.7796901125934L166.81176086776787,166.6844127131686L166.88538779744198,153.87126942400417L167.03264165679016,151.23483453710978L167.1062685864643,158.5698921723296L167.17989551613837,146.5880459053125L167.91616481287937,136.93381053168258L168.65243410962037,157.9403842071556L168.94694182831677,140.31848160289888L169.31507647668727,153.83464559283007L169.75683805473184,149.80585746813532L169.97771884375416,156.78689475528978L170.12497270310237,136.70333891001718L170.41948042179874,150.14527692603772L170.86124199984337,165.5654961907237L170.93486892951745,103.3135379555252L171.00849585919156,148.8414991426356L171.08212278886566,109.00802175474765L171.67113822625845,110.6772836208648L171.96564594495484,151.7161829548457L172.18652673397716,150.43191128298815L172.26015366365127,132.4492904489912L172.62828831202174,145.6725485036594L172.70191524169584,156.51167767685342L172.77554217136992,155.28474653995528L173.95357304615553,156.8672256119674L174.17445383517781,151.44237595676194L174.39533462420013,136.49739612797413L174.46896155387424,152.82379014097407L175.05797699126705,150.9110981240595L175.20523085061524,155.38458624089134L175.42611163963753,152.76894184105652L175.49973856931163,168.24007839677003L175.64699242865981,151.20044060044683L176.01512707703031,159.5776596575219L176.3832617254008,146.62604702427285L176.82502330344542,159.49643247069767L176.89865023311953,157.94029402759816L177.26678488149003,160.3820886369813L177.4140387408382,144.15707284282155L177.4876656705123,158.17515712043928L177.92942724855692,155.7589571090845L178.07668110790513,157.39623802487853L178.3711888266015,170.43308127075917L178.5920696156238,159.12041104333207L179.1810850530166,160.79497437434085L179.40196584203892,157.53868346763187L179.6228466310612,143.05573996771955L179.6964735607353,135.429549928533L180.5063697871504,150.65141652392668L180.65362364649857,130.27900189262027L180.8745044355209,164.97152990203458L181.09538522454318,155.73742878928226L181.38989294323957,134.1364789180409L181.6107737322619,128.90447414733953L181.83165452128418,157.79735942906356L182.05253531030647,154.85757963995465L182.1997891696547,124.44771843748268L182.27341609932878,165.8282671238771L182.49429688835107,135.8913293823055L182.9360584663957,161.89864371979456L183.0833123257439,157.37661713935177L183.156939255418,160.73681949065067L183.23056618509207,149.90554140438127L183.30419311476618,139.12960077381064L183.67232776313668,156.99752687431948L183.74595469281078,161.0833959261568L183.8195816224849,163.21753887627943L183.96683548183307,166.19675172641223L184.11408934118126,140.59809015251096L184.18771627085536,161.5880844529852L184.26134320052947,152.41448425877334L184.33497013020354,143.52442772213433L184.48222398955178,109.48110917847973L184.85035863792226,137.5888475097523L184.92398556759636,151.82005614144157L184.99761249727047,146.83991740922863L185.43937407531507,151.34926693006716L185.51300100498915,161.94928364036514L185.73388179401144,154.44526503979222L185.80750872368557,159.80570462927815L185.88113565335968,163.8766858559971L186.02838951270786,160.47973670140033L186.24927030173015,131.61103047192432L186.61740495010068,145.42628452858742L186.98553959847115,144.7486917303035L187.13279345781933,161.42018378061044L187.28004731716757,156.7905374628674L187.50092810618986,150.84944809934024L187.72180889521215,143.71336209310238L187.86906275456033,135.37785244769796L187.94268968423447,148.53092621225693L188.38445126227904,124.15749875994572L189.26797441836823,157.0849381926127L189.56248213706465,153.28944185028857L189.70973599641283,142.68920105745391L189.93061678543512,128.711025333072L190.37237836347975,151.29785638418758L190.88776687119844,135.62100932710922L190.96139380087254,146.0981003697678L191.18227458989483,124.74099875454468L191.25590151956894,152.561526126242L191.47678230859123,151.8303420764169L191.77129002728765,126.25806485485006L191.84491695696173,140.7177939505075L191.99217081630994,163.43836811708397L192.065797745984,137.43047034518543L192.21305160533223,157.59891248114306L192.58118625370273,137.82733144846014L192.65481318337683,148.35754371587564L192.87569397239912,162.1704162124083L192.9493209020732,165.05221327880034L193.3910824801178,142.52114188767516L193.538336339466,155.7819255690918L193.6119632691401,164.85655916444642L193.75921712848833,134.40921469229087L194.05372484718472,116.82276905038933L194.1518940867502,160.55279307377816L194.37277487577248,149.75001172765823L194.5936556647948,115.75125008351813L194.96179031316527,126.18172376041048L195.10904417251345,158.92331678877306L195.2562980318617,145.49209920923184L195.9925673286027,166.8207314114441L196.13982118795087,165.73013400274766L196.21344811762498,152.14672475646546L196.72883662534366,141.38452694390514L197.02334434404005,152.14306838531854L197.61235978143287,158.60084015681298L197.83324057045516,167.07619370137445L197.98049442980334,153.69494926022156L198.34862907817384,159.0879327390861L198.56950986719613,152.05543571720256L200.11567539035224,155.88958629709998L200.26292924970045,106.32016265840439L200.55743696839684,155.63815749282944L200.77831775741913,161.8675290397656L201.22007933546374,147.1681901272893L201.88272170253063,164.78291525858833L202.10360249155292,139.4804375102271L202.17722942122703,131.69768482847783L202.25085635090113,151.80525849588065L202.7662448586198,110.52415873234006L203.42888722568674,158.83168069484972L203.57614108503492,152.30486417492637L203.79702187405724,162.47416418991745L203.94427573340542,160.56257072397523L204.01790266307952,156.87964306375483L204.2387834521018,162.7085996130392L204.31241038177592,160.63317858473303L204.4596642411241,156.1965383816119L204.60691810047234,174.96378421771277L204.82779888949463,143.85169480149392L204.9750527488428,151.8195287276663L205.7113220455838,157.5825681195364L205.7849489752579,161.75091594114662L206.00582976428024,167.33666778852714L206.0794566939543,161.4189595248004L206.3739644126507,147.91445875763083L206.66847213134713,161.39004741214396L206.7420990610212,145.04681168361452L206.88935292036942,152.38634550413974L207.5519952874363,158.4233094007897L207.8465030061327,159.86734372314197L208.5091453731996,141.49565002037605L208.65639923254778,151.12813572438094L208.7300261622219,154.21165352989976L209.0981608105924,151.31399032682688L209.1717877402665,161.74508159705195L209.8344301073334,149.23281010405725L210.05531089635568,149.97810315555014L210.20256475570386,156.92084145793334L210.49707247440028,151.02683402152888L210.64432633374847,130.92420656621567L210.71795326342257,163.33671389414374L210.93883405244486,124.79530324440375L211.012460982119,148.28603679225736L211.0860879117931,149.70966047477685L211.23334177114128,147.52991672844453L211.3069687008154,153.18990274787728L211.52784948983768,150.06190455883208L211.67510334918586,151.8590656318169L211.74873027886,157.6486642697086L211.96961106788228,164.44277163151256L212.04323799755636,155.84154518741184L212.11686492723047,140.11254701899742L212.26411878657865,149.63898976160021L212.484999575601,141.4530852692667L213.22126887234197,154.95507193968356L213.44214966136425,152.3258295556731L213.73665738006065,125.11604187034781L213.95753816908297,156.0858662029282L214.10479202843118,147.88416935718809L214.17841895810525,157.6973284381572L214.32567281745347,164.2151953201836L214.62018053614986,149.36750010487117L214.76743439549807,165.26579672880064L214.91468825484625,142.22198896852444L215.13556904386854,162.45236259872905L215.35644983289086,146.0333022586799L215.50370369223907,129.89860812307597L215.87183834060954,139.83500440106474L216.01909219995775,149.86529672734045L216.09271912963186,166.38358737313453L216.53448070767644,166.20968156204873L216.60810763735054,150.8306934841076L216.90261535604697,142.86074170469246L216.97624228572104,147.83129407667866L217.49163079343975,163.00924186124453L218.15427316050662,158.19422326505213L218.8169155275735,121.48011142312039L219.33230403529222,150.46245482582003L219.40593096496633,155.22494109709265L219.62681175398865,164.15283752257417L220.2158271913814,138.39661040012294L220.36308105072965,157.52307147334017L220.51033491007783,159.00929616500275L221.6147388551893,150.67960720012366L221.6883657848634,164.91322198636814L222.0565004332339,157.10768803551107L222.2773812222562,152.86078015580563L222.64551587062672,166.43102182034536L222.866396659649,151.6641684792027L223.30815823769362,155.44695770207005L223.6762928860641,122.53258337437575L223.7499198157382,161.7602208318456L224.04442753443462,157.56612811294463L224.2653083234569,146.02912120647153L224.4861891124792,136.23012031601974L224.55981604215327,152.0742613829956L224.78069683117562,145.05878370304248L225.0015776201979,145.83099945150056L225.1488314795461,121.89544020667225L225.5905930575907,133.67378673783858L225.73784691693888,159.88438219406947L225.81147384661298,158.08159992867118L225.95872770596117,129.52567466237406L226.1796084949835,144.45709203226642L226.4004892840058,156.60244203505488L226.54774314335398,162.80932881233724L226.69499700270217,141.83712447910244L226.8422508620504,157.3656835511912L226.91587779172448,136.5352387495305L227.21038551042088,164.7736445268126L227.28401244009498,140.27743624069663L227.35763936976906,156.95998485128789L227.43126629944317,146.93448570512555L227.50489322911727,133.8243046173393L227.5785201587914,59.85837029234298L227.65214708846548,160.71688707574367L227.7257740181396,149.234217451696L227.7994009478137,147.23451582542586L227.87302787748777,157.62369546315452L227.94665480716188,138.65727304453208L228.02028173683598,130.94427015138805L228.09390866651006,135.7856881298411L228.16753559618417,150.2608078699675L228.2411625258583,158.1619936377676L228.31478945553238,163.7729233443126L228.38841638520648,141.31617903751095L228.4620433148806,151.84890540167922L228.53567024455467,156.72843107493324L228.60929717422877,159.23069790936128L228.68292410390288,166.0916269568677L228.75655103357695,169.54508316869607L228.83017796325106,154.78204469610426L228.90380489292517,145.91786422702143L228.9774318225993,141.77659213435263L229.05105875227338,164.19616470085091L229.12468568194748,156.2354358307189L229.34556647096977,162.12232728022758L229.56644725999206,163.18607304251927L229.64007418966617,141.97274360262935L229.71370111934027,158.40418313647186L230.00820883803667,164.1443879713139L230.30271655673306,133.02937455126306L230.37634348640714,142.6063041824602L230.44997041608127,149.38181132736472L230.67085120510356,142.51092700326024L230.81810506445177,144.4676020497784L231.18623971282227,153.5246875230703L231.48074743151867,153.22158583238948L231.55437436119274,154.13641918457415L232.21701672825967,163.36836965151733L232.29064365793374,151.39777260111177L232.43789751728195,146.4018032574982L232.65877830630427,111.36688942928463L232.73240523597835,155.3882453447521L232.80603216565245,154.69263849669207L232.95328602500064,159.74695128125228L233.32142067337116,144.4668532861803L233.46867453271935,125.89957651962091L233.76318225141574,144.62026237694664L233.83680918108985,163.57717358497356L233.91043611076392,146.48563745334644L233.98406304043803,147.9004863916561L234.20494382946035,163.0602575299711L234.57307847783082,157.94811505467024L234.86758619652724,153.94504996555537L235.30934777457182,149.61392804277486L235.60385549326824,125.956903391011L235.9719901416387,125.6948415971047L236.8555132977279,132.2656848700534L236.92914022740203,146.7833994211416L237.66540952414303,145.99880174617633L237.95991724283942,157.65983013854736L238.32805189120992,155.55897437597372L238.40167882088403,149.84199214352816L238.47530575055814,153.74581872875655L238.9170673286027,145.1259046209128L239.2115750472991,158.74352607838617L239.35882890664732,163.59366961219953L239.65333662534368,163.93480111533628L240.38960592208468,139.93277270489367L240.610486711107,140.62756247150907L240.7577405704552,163.55608386574613L240.8313675001293,136.48254109542208L240.9049944298034,163.68269596438498L241.4940098671962,121.82306701275981L241.6412637265444,132.07016465867872L242.0093983749149,149.6539185774265L242.45115995295947,166.8536264545539L242.67204074198182,167.00282579961637L242.8929215310041,159.08236893366376L243.0401753903523,143.14846914718754L243.18742924970047,143.24270405199331L243.33468310904868,161.4876216932887L243.62919082774508,153.2078320835237L244.0709524057897,131.39371413478898L244.5127139838343,165.09522756133993L244.65996784318247,113.20477067152217L245.02810249155297,139.33904142959665L245.10172942122708,140.585940506682L245.17535635090118,141.26511554629184L245.32261021024937,165.88415522141904L245.39623713992347,128.68890128164793L245.6907448586199,147.47206790870686L245.83799871796808,164.16023497899772L246.13250643666447,126.73400523185371L246.3533872256868,149.99328064833784L247.01602959275368,139.59069431640384L247.38416424112415,162.14494185378982L247.45779117079826,168.2263793021815L247.75229888949468,171.04429781570008L247.82592581916876,162.73139181300246L247.97317967851697,150.31629289221482L248.12043353786515,159.27718957028986L248.26768739721334,151.80841751310473L248.34131432688744,154.01983068037993L248.41494125656158,154.86172516688282L248.78307590493205,165.18200489001723L249.00395669395434,151.11989932480185L249.07758362362844,148.11053644263328L249.22483748297665,124.13593218214945L249.37209134232486,163.00937029879603L249.66659906102123,156.08590446092225L249.74022599069534,148.66418427100734L250.10836063906584,156.88546374428017L250.18198756873994,157.73008274650314L250.47649528743634,141.99254211455712L250.55012221711047,150.1139244999028L250.62374914678455,164.82602655247L251.80178002157012,171.61196993161224L252.16991466994065,164.01091949359613L252.24354159961473,144.23627782138814L252.31716852928884,162.44995507781692L252.6853031776593,150.29306755710448L252.75893010733344,151.97963023467986L252.97981089635573,145.1661492979536L253.05343782602984,134.13669753514984L253.3479455447262,162.1029099818835L253.49519940407444,148.3389393999054L254.01058791179312,159.69260580068527L254.0842148414672,156.77162161751693L254.37872256016362,144.2160612042395L254.5259764195118,163.11672359649475L255.11499185690462,157.53951694535968L255.85126115364562,165.1315630912016L255.9248880833197,119.74607330762623L256.66115738006073,149.25736627081818L257.0292920284312,150.74213989142024L257.5446805361499,160.855025761451L257.6919343954981,162.88397152511178L258.1336959735427,165.38563716249024L258.354576762565,160.7093119929191L258.5018306219132,146.80867155893432L259.2380999186542,162.3234017325261L259.3117268483283,152.99709885408112L259.6798614966988,152.69246957635158L259.9743692153952,157.4555187866797L260.26887693409157,156.8850429063455" style="fill: none;" fill="none"></path></g></g></g></g></g></g><g transform="translate(37, 177)" clip-path="url(#clip_1)"><clipPath id="clip_1"><rect width="293" height="23"></rect></clipPath><g><g><line x1="1.9006912451262026" y1="0" x2="1.9006912451262026" y2="5" style="visibility: inherit;" fill="rgb(0, 0, 0)" stroke="rgb(204, 204, 204)" stroke-width="1px"></line><line x1="26.44300113649272" y1="0" x2="26.44300113649272" y2="5" style="visibility: inherit;" fill="rgb(0, 0, 0)" stroke="rgb(204, 204, 204)" stroke-width="1px"></line><line x1="50.98531102785924" y1="0" x2="50.98531102785924" y2="5" style="visibility: inherit;" fill="rgb(0, 0, 0)" stroke="rgb(204, 204, 204)" stroke-width="1px"></line><line x1="75.52762091922577" y1="0" x2="75.52762091922577" y2="5" style="visibility: inherit;" fill="rgb(0, 0, 0)" stroke="rgb(204, 204, 204)" stroke-width="1px"></line><line x1="100.06993081059228" y1="0" x2="100.06993081059228" y2="5" style="visibility: inherit;" fill="rgb(0, 0, 0)" stroke="rgb(204, 204, 204)" stroke-width="1px"></line><line x1="124.6122407019588" y1="0" x2="124.6122407019588" y2="5" style="visibility: inherit;" fill="rgb(0, 0, 0)" stroke="rgb(204, 204, 204)" stroke-width="1px"></line><line x1="149.15455059332533" y1="0" x2="149.15455059332533" y2="5" style="visibility: inherit;" fill="rgb(0, 0, 0)" stroke="rgb(204, 204, 204)" stroke-width="1px"></line><line x1="173.69686048469183" y1="0" x2="173.69686048469183" y2="5" style="visibility: inherit;" fill="rgb(0, 0, 0)" stroke="rgb(204, 204, 204)" stroke-width="1px"></line><line x1="198.23917037605835" y1="0" x2="198.23917037605835" y2="5" style="visibility: inherit;" fill="rgb(0, 0, 0)" stroke="rgb(204, 204, 204)" stroke-width="1px"></line><line x1="222.78148026742488" y1="0" x2="222.78148026742488" y2="5" style="visibility: inherit;" fill="rgb(0, 0, 0)" stroke="rgb(204, 204, 204)" stroke-width="1px"></line><line x1="247.3237901587914" y1="0" x2="247.3237901587914" y2="5" style="visibility: inherit;" fill="rgb(0, 0, 0)" stroke="rgb(204, 204, 204)" stroke-width="1px"></line><line x1="271.8661000501579" y1="0" x2="271.8661000501579" y2="5" style="visibility: inherit;" fill="rgb(0, 0, 0)" stroke="rgb(204, 204, 204)" stroke-width="1px"></line></g><g transform="translate(0, 8)"><text x="1.9006912451262026" y="0" dx="0em" dy="0.95em" style="text-anchor: middle; visibility: hidden; font-family: &quot;Helvetica Neue&quot;, sans-serif; font-size: 12px; font-weight: 200;" fill="rgb(50, 49, 63)" stroke="none" stroke-width="1px">-100k</text><text x="26.44300113649272" y="0" dx="0em" dy="0.95em" style="text-anchor: middle; visibility: inherit; font-family: &quot;Helvetica Neue&quot;, sans-serif; font-size: 12px; font-weight: 200;" fill="rgb(50, 49, 63)" stroke="none" stroke-width="1px">0</text><text x="50.98531102785924" y="0" dx="0em" dy="0.95em" style="text-anchor: middle; visibility: hidden; font-family: &quot;Helvetica Neue&quot;, sans-serif; font-size: 12px; font-weight: 200;" fill="rgb(50, 49, 63)" stroke="none" stroke-width="1px">100k</text><text x="75.52762091922577" y="0" dx="0em" dy="0.95em" style="text-anchor: middle; visibility: inherit; font-family: &quot;Helvetica Neue&quot;, sans-serif; font-size: 12px; font-weight: 200;" fill="rgb(50, 49, 63)" stroke="none" stroke-width="1px">200k</text><text x="100.06993081059228" y="0" dx="0em" dy="0.95em" style="text-anchor: middle; visibility: hidden; font-family: &quot;Helvetica Neue&quot;, sans-serif; font-size: 12px; font-weight: 200;" fill="rgb(50, 49, 63)" stroke="none" stroke-width="1px">300k</text><text x="124.6122407019588" y="0" dx="0em" dy="0.95em" style="text-anchor: middle; visibility: inherit; font-family: &quot;Helvetica Neue&quot;, sans-serif; font-size: 12px; font-weight: 200;" fill="rgb(50, 49, 63)" stroke="none" stroke-width="1px">400k</text><text x="149.15455059332533" y="0" dx="0em" dy="0.95em" style="text-anchor: middle; visibility: hidden; font-family: &quot;Helvetica Neue&quot;, sans-serif; font-size: 12px; font-weight: 200;" fill="rgb(50, 49, 63)" stroke="none" stroke-width="1px">500k</text><text x="173.69686048469183" y="0" dx="0em" dy="0.95em" style="text-anchor: middle; visibility: inherit; font-family: &quot;Helvetica Neue&quot;, sans-serif; font-size: 12px; font-weight: 200;" fill="rgb(50, 49, 63)" stroke="none" stroke-width="1px">600k</text><text x="198.23917037605835" y="0" dx="0em" dy="0.95em" style="text-anchor: middle; visibility: hidden; font-family: &quot;Helvetica Neue&quot;, sans-serif; font-size: 12px; font-weight: 200;" fill="rgb(50, 49, 63)" stroke="none" stroke-width="1px">700k</text><text x="222.78148026742488" y="0" dx="0em" dy="0.95em" style="text-anchor: middle; visibility: inherit; font-family: &quot;Helvetica Neue&quot;, sans-serif; font-size: 12px; font-weight: 200;" fill="rgb(50, 49, 63)" stroke="none" stroke-width="1px">800k</text><text x="247.3237901587914" y="0" dx="0em" dy="0.95em" style="text-anchor: middle; visibility: hidden; font-family: &quot;Helvetica Neue&quot;, sans-serif; font-size: 12px; font-weight: 200;" fill="rgb(50, 49, 63)" stroke="none" stroke-width="1px">900k</text><text x="271.8661000501579" y="0" dx="0em" dy="0.95em" style="text-anchor: middle; visibility: inherit; font-family: &quot;Helvetica Neue&quot;, sans-serif; font-size: 12px; font-weight: 200;" fill="rgb(50, 49, 63)" stroke="none" stroke-width="1px">1M</text></g><line x1="0" y1="0" x2="293" y2="0" fill="rgb(0, 0, 0)" stroke="rgb(204, 204, 204)" stroke-width="1px"></line></g></g></g></g></svg>