<svg viewBox="0 0 330 200" xmlns="http://www.w3.org/2000/svg"><g><g><g><g><g><line x1="37" y1="169.99293175072143" x2="32" y2="169.99293175072143" style="visibility: inherit;" fill="rgb(0, 0, 0)" stroke="rgb(204, 204, 204)" stroke-width="1px"></line><line x1="37" y1="154.93244393859428" x2="32" y2="154.93244393859428" style="visibility: inherit;" fill="rgb(0, 0, 0)" stroke="rgb(204, 204, 204)" stroke-width="1px"></line><line x1="37" y1="139.87195612646713" x2="32" y2="139.87195612646713" style="visibility: inherit;" fill="rgb(0, 0, 0)" stroke="rgb(204, 204, 204)" stroke-width="1px"></line><line x1="37" y1="124.81146831433998" x2="32" y2="124.81146831433998" style="visibility: inherit;" fill="rgb(0, 0, 0)" stroke="rgb(204, 204, 204)" stroke-width="1px"></line><line x1="37" y1="109.75098050221284" x2="32" y2="109.75098050221284" style="visibility: inherit;" fill="rgb(0, 0, 0)" stroke="rgb(204, 204, 204)" stroke-width="1px"></line><line x1="37" y1="94.69049269008568" x2="32" y2="94.69049269008568" style="visibility: inherit;" fill="rgb(0, 0, 0)" stroke="rgb(204, 204, 204)" stroke-width="1px"></line><line x1="37" y1="79.63000487795854" x2="32" y2="79.63000487795854" style="visibility: inherit;" fill="rgb(0, 0, 0)" stroke="rgb(204, 204, 204)" stroke-width="1px"></line><line x1="37" y1="64.56951706583138" x2="32" y2="64.56951706583138" style="visibility: inherit;" fill="rgb(0, 0, 0)" stroke="rgb(204, 204, 204)" stroke-width="1px"></line><line x1="37" y1="49.50902925370424" x2="32" y2="49.50902925370424" style="visibility: inherit;" fill="rgb(0, 0, 0)" stroke="rgb(204, 204, 204)" stroke-width="1px"></line><line x1="37" y1="34.44854144157708" x2="32" y2="34.44854144157708" style="visibility: inherit;" fill="rgb(0, 0, 0)" stroke="rgb(204, 204, 204)" stroke-width="1px"></line><line x1="37" y1="19.388053629449956" x2="32" y2="19.388053629449956" style="visibility: inherit;" fill="rgb(0, 0, 0)" stroke="rgb(204, 204, 204)" stroke-width="1px"></line><line x1="37" y1="4.327565817322778" x2="32" y2="4.327565817322778" style="visibility: inherit;" fill="rgb(0, 0, 0)" stroke="rgb(204, 204, 204)" stroke-width="1px"></line></g><g transform="translate(27, 0)"><text x="0" y="169.99293175072143" dx="0em" dy="0.3em" style="text-anchor: end; visibility: inherit; font-family: &quot;Helvetica Neue&quot;, sans-serif; font-size: 12px; font-weight: 200;" fill="rgb(50, 49, 63)" stroke="none" stroke-width="1px">20</text><text x="0" y="154.93244393859428" dx="0em" dy="0.3em" style="text-anchor: end; visibility: hidden; font-family: &quot;Helvetica Neue&quot;, sans-serif; font-size: 12px; font-weight: 200;" fill="rgb(50, 49, 63)" stroke="none" stroke-width="1px">40</text><text x="0" y="139.87195612646713" dx="0em" dy="0.3em" style="text-anchor: end; visibility: inherit; font-family: &quot;Helvetica Neue&quot;, sans-serif; font-size: 12px; font-weight: 200;" fill="rgb(50, 49, 63)" stroke="none" stroke-width="1px">60</text><text x="0" y="124.81146831433998" dx="0em" dy="0.3em" style="text-anchor: end; visibility: hidden; font-family: &quot;Helvetica Neue&quot;, sans-serif; font-size: 12px; font-weight: 200;" fill="rgb(50, 49, 63)" stroke="none" stroke-width="1px">80</text><text x="0" y="109.75098050221284" dx="0em" dy="0.3em" style="text-anchor: end; visibility: inherit; font-family: &quot;Helvetica Neue&quot;, sans-serif; font-size: 12px; font-weight: 200;" fill="rgb(50, 49, 63)" stroke="none" stroke-width="1px">100</text><text x="0" y="94.69049269008568" dx="0em" dy="0.3em" style="text-anchor: end; visibility: hidden; font-family: &quot;Helvetica Neue&quot;, sans-serif; font-size: 12px; font-weight: 200;" fill="rgb(50, 49, 63)" stroke="none" stroke-width="1px">120</text><text x="0" y="79.63000487795854" dx="0em" dy="0.3em" style="text-anchor: end; visibility: inherit; font-family: &quot;Helvetica Neue&quot;, sans-serif; font-size: 12px; font-weight: 200;" fill="rgb(50, 49, 63)" stroke="none" stroke-width="1px">140</text><text x="0" y="64.56951706583138" dx="0em" dy="0.3em" style="text-anchor: end; visibility: hidden; font-family: &quot;Helvetica Neue&quot;, sans-serif; font-size: 12px; font-weight: 200;" fill="rgb(50, 49, 63)" stroke="none" stroke-width="1px">160</text><text x="0" y="49.50902925370424" dx="0em" dy="0.3em" style="text-anchor: end; visibility: inherit; font-family: &quot;Helvetica Neue&quot;, sans-serif; font-size: 12px; font-weight: 200;" fill="rgb(50, 49, 63)" stroke="none" stroke-width="1px">180</text><text x="0" y="34.44854144157708" dx="0em" dy="0.3em" style="text-anchor: end; visibility: hidden; font-family: &quot;Helvetica Neue&quot;, sans-serif; font-size: 12px; font-weight: 200;" fill="rgb(50, 49, 63)" stroke="none" stroke-width="1px">200</text><text x="0" y="19.388053629449956" dx="0em" dy="0.3em" style="text-anchor: end; visibility: inherit; font-family: &quot;Helvetica Neue&quot;, sans-serif; font-size: 12px; font-weight: 200;" fill="rgb(50, 49, 63)" stroke="none" stroke-width="1px">220</text><text x="0" y="4.327565817322778" dx="0em" dy="0.3em" style="text-anchor: end; visibility: hidden; font-family: &quot;Helvetica Neue&quot;, sans-serif; font-size: 12px; font-weight: 200;" fill="rgb(50, 49, 63)" stroke="none" stroke-width="1px">240</text></g><line x1="37" y1="0" x2="37" y2="177" fill="rgb(0, 0, 0)" stroke="rgb(204, 204, 204)" stroke-width="1px"></line></g></g><g transform="translate(37, 0)" clip-path="url(#clip_0)"><clipPath id="clip_0"><rect width="293" height="177"></rect></clipPath><g><g><g><line x1="4.326516495755237" y1="0" x2="4.326516495755237" y2="177" fill="rgb(0, 0, 0)" stroke="rgb(60, 60, 60)" stroke-width="1px" opacity="0.25"></line><line x1="29.786736844891802" y1="0" x2="29.786736844891802" y2="177" fill="rgb(0, 0, 0)" stroke="rgb(60, 60, 60)" stroke-width="1px" opacity="0.25"></line><line x1="55.24695719402837" y1="0" x2="55.24695719402837" y2="177" fill="rgb(0, 0, 0)" stroke="rgb(60, 60, 60)" stroke-width="1px" opacity="0.25"></line><line x1="80.70717754316493" y1="0" x2="80.70717754316493" y2="177" fill="rgb(0, 0, 0)" stroke="rgb(60, 60, 60)" stroke-width="1px" opacity="0.25"></line><line x1="106.1673978923015" y1="0" x2="106.1673978923015" y2="177" fill="rgb(0, 0, 0)" stroke="rgb(60, 60, 60)" stroke-width="1px" opacity="0.25"></line><line x1="131.62761824143806" y1="0" x2="131.62761824143806" y2="177" fill="rgb(0, 0, 0)" stroke="rgb(60, 60, 60)" stroke-width="1px" opacity="0.25"></line><line x1="157.08783859057462" y1="0" x2="157.08783859057462" y2="177" fill="rgb(0, 0, 0)" stroke="rgb(60, 60, 60)" stroke-width="1px" opacity="0.25"></line><line x1="182.5480589397112" y1="0" x2="182.5480589397112" y2="177" fill="rgb(0, 0, 0)" stroke="rgb(60, 60, 60)" stroke-width="1px" opacity="0.25"></line><line x1="208.00827928884775" y1="0" x2="208.00827928884775" y2="177" fill="rgb(0, 0, 0)" stroke="rgb(60, 60, 60)" stroke-width="1px" opacity="0.25"></line><line x1="233.4684996379843" y1="0" x2="233.4684996379843" y2="177" fill="rgb(0, 0, 0)" stroke="rgb(60, 60, 60)" stroke-width="1px" opacity="0.25"></line><line x1="258.92871998712087" y1="0" x2="258.92871998712087" y2="177" fill="rgb(0, 0, 0)" stroke="rgb(60, 60, 60)" stroke-width="1px" opacity="0.25"></line><line x1="284.3889403362574" y1="0" x2="284.3889403362574" y2="177" fill="rgb(0, 0, 0)" stroke="rgb(60, 60, 60)" stroke-width="1px" opacity="0.25"></line></g><g><line x1="0" y1="169.99293175072143" x2="293" y2="169.99293175072143" fill="rgb(0, 0, 0)" stroke="rgb(60, 60, 60)" stroke-width="1px" opacity="0.25"></line><line x1="0" y1="154.93244393859428" x2="293" y2="154.93244393859428" fill="rgb(0, 0, 0)" stroke="rgb(60, 60, 60)" stroke-width="1px" opacity="0.25"></line><line x1="0" y1="139.87195612646713" x2="293" y2="139.87195612646713" fill="rgb(0, 0, 0)" stroke="rgb(60, 60, 60)" stroke-width="1px" opacity="0.25"></line><line x1="0" y1="124.81146831433998" x2="293" y2="124.81146831433998" fill="rgb(0, 0, 0)" stroke="rgb(60, 60, 60)" stroke-width="1px" opacity="0.25"></line><line x1="0" y1="109.75098050221284" x2="293" y2="109.75098050221284" fill="rgb(0, 0, 0)" stroke="rgb(60, 60, 60)" stroke-width="1px" opacity="0.25"></line><line x1="0" y1="94.69049269008568" x2="293" y2="94.69049269008568" fill="rgb(0, 0, 0)" stroke="rgb(60, 60, 60)" stroke-width="1px" opacity="0.25"></line><line x1="0" y1="79.63000487795854" x2="293" y2="79.63000487795854" fill="rgb(0, 0, 0)" stroke="rgb(60, 60, 60)" stroke-width="1px" opacity="0.25"></line><line x1="0" y1="64.56951706583138" x2="293" y2="64.56951706583138" fill="rgb(0, 0, 0)" stroke="rgb(60, 60, 60)" stroke-width="1px" opacity="0.25"></line><line x1="0" y1="49.50902925370424" x2="293" y2="49.50902925370424" fill="rgb(0, 0, 0)" stroke="rgb(60, 60, 60)" stroke-width="1px" opacity="0.25"></line><line x1="0" y1="34.44854144157708" x2="293" y2="34.44854144157708" fill="rgb(0, 0, 0)" stroke="rgb(60, 60, 60)" stroke-width="1px" opacity="0.25"></line><line x1="0" y1="19.388053629449956" x2="293" y2="19.388053629449956" fill="rgb(0, 0, 0)" stroke="rgb(60, 60, 60)" stroke-width="1px" opacity="0.25"></line><line x1="0" y1="4.327565817322778" x2="293" y2="4.327565817322778" fill="rgb(0, 0, 0)" stroke="rgb(60, 60, 60)" stroke-width="1px" opacity="0.25"></line></g></g></g><g><g><line x1="0" y1="185.05341956284857" x2="293" y2="185.05341956284857" fill="rgb(0, 0, 0)" stroke="rgb(153, 153, 153)" stroke-width="1.5px"></line></g></g><g><g><line x1="29.786736844891802" y1="0" x2="29.786736844891802" y2="177" fill="rgb(0, 0, 0)" stroke="rgb(153, 153, 153)" stroke-width="1.5px"></line></g></g><g><g><g><g><g><path stroke="rgb(255, 112, 67)" stroke-width="2px" d="M29.863372108142702,152.83598352055876L29.914292548840972,150.59222845043544L29.99067320988839,149.97799745669587L30.219815193030616,148.45306525456215L30.320128461206213,128.92388646255662L30.396509122253622,124.30584684141263L30.47288978330103,131.94512298038376L30.523810223999305,124.7175893832677L30.752952207141536,110.01472432722528L30.816857360217867,108.8049048939153L30.893238021265276,111.81017490750956L31.198760665454916,112.42184758990659L31.580663970691962,112.9815829917369L31.73342529278678,113.8714207540199L31.809805953834196,112.43807172526742L31.962567275929015,113.3510922369282L32.03894793697642,109.19943988449484L32.19170925907124,108.35267762696566L33.031896530592746,108.30266371000124L33.872083802114254,107.90481899433755L33.94846446316166,106.70422034070769L34.02484512420908,109.30239783463702L34.330367768398716,101.69434979451475L34.55950975154094,103.01607475585082L34.63589041258835,105.77382282401646L35.17055503992022,104.39152936584455L35.70521966725209,104.95053883615354L35.7816003282995,104.7518733419681L35.857980989346906,105.39309632059727L36.39264561667878,105.01442425087056L37.309213549247694,106.71929053799633L37.53835553238992,104.83970496590968L37.76749751553215,105.63667230828264L37.99663949867438,107.02756962259589L38.37854280391143,106.26976491443571L38.9132074312433,107.55074435413542L39.82977536381221,106.53418988046354L39.90615602485962,105.96254771431859L40.36443999114408,105.45277067349166L40.66996263533372,105.8470664408159L40.975485279523355,106.1609447921879L41.51014990685522,101.98554601234046L41.73929188999745,100.30619591832537L41.89205321209227,100.8337619665444L42.121195195234506,100.47829488034822L42.42671783942414,98.51829349327873L42.65585982256637,100.00026476859388L42.96138246675601,94.10122124654488L43.037763127803416,94.95742365701562L43.4451266533896,94.1707991248016L43.674268636531835,95.90575349978877L44.05617194176888,93.00545164449088L44.361694585958524,91.63996306193566L44.438075247005926,91.12748059288246L44.66721723014816,92.11751799460222L44.74359789119556,92.4007527749187L44.9727398743378,88.02784842780012L45.125501196432616,88.21520748738249L45.58378516271707,88.92397157271726L45.66016582376449,90.00459079607137L45.736546484811896,90.96196213997717L45.812927145859305,91.66180909901863L46.11844979004894,92.36879835300883L46.34759177319117,93.70602189894485L46.50035309528599,93.83051530517456L47.493301688902314,95.30486399128328L47.79882433309195,93.96415586452716L48.562630943566056,95.08642280704149L48.63901160461346,95.93477512053916L48.79177292670828,96.74995031178479L48.86815358775569,98.06383879015917L49.02091490985051,98.126425686547L49.09729557089792,97.80788973117832L49.555579537182375,98.5373547807549L49.63196019822979,98.44726041315327L50.01386350346684,100.0340679174419L50.31938614765648,100.44043860747836L50.4721474697513,100.98595457847614L50.5485281307987,102.46272296130124L50.70128945289352,103.4216776758762L51.465096063367625,103.8040902111615L51.54147672441503,105.58358452712359L51.61785738546244,106.39592011743517L52.458044656983944,106.22456677798979L52.68718664012618,104.12359705090014L52.839947962221,105.17935002158032L52.9163286232684,105.73489530413019L53.22185126745805,107.92856022781005L53.45099325060027,109.32146546224507L53.527373911647686,110.50269752818454L53.60375457269509,111.53075156506294L53.680135233742504,111.74532401968014L53.90927721688473,110.68847903746276L53.98565787793214,109.05997379537378L54.13841920002696,110.18686048997978L54.21479986107437,110.35192030354392L54.367561183169194,111.62968387819909L54.82584514945365,111.36176530159254L54.90222581050106,111.47190699239822L55.054987132595876,110.34388837309221L55.131367793643285,110.58323698285632L55.284129115738104,110.80690049940783L55.43689043783293,110.12414047525883L55.58965175992775,111.25104654649087L55.66603242097515,110.75945124241647L55.742413082022566,111.05599704906194L55.81879374306997,111.46271545149817L55.971555065164786,112.36488100517231L56.27707770935444,113.26029803279164L56.58260035354407,112.6737209516245L56.658981014591475,113.43763704393604L56.8117423366863,114.07765696727179L56.88812299773371,114.40852009403076L56.96450365878112,113.18391153078267L57.04088431982853,112.4333904562218L57.957452252397445,113.20418349211849L58.3393555576345,113.29273508151678L58.492116879729316,112.87156187347162L58.56849754077672,113.52780686354697L58.874020184966355,114.32204252732245L59.02678150706119,115.0076690448397L59.332304151250824,115.33251785884539L59.561446134393044,116.35696630529719L60.019730100677506,115.51595984888523L60.172491422772325,115.06073928512774L60.40163340591455,115.41359628377955L60.55439472800938,114.54421797361124L60.707156050104196,114.39394977552365L60.783536711151605,115.4038186782789L61.08905935534124,114.65291072665093L61.24182067743606,115.011715920824L61.47096266057829,115.61640711446918L61.5473433216257,116.9774388417616L61.70010464372052,116.97914325769375L61.92924662686274,117.50668482352668L62.15838861000498,116.79850083017433L62.46391125419461,116.90758629890476L63.22771786466871,116.84444880558792L63.30409852571612,117.00846228038918L63.686001830953174,117.74708762224839L63.76238249200058,117.63942599171074L64.06790513619022,116.49671659503505L64.37342778037986,117.50910963402423L64.52618910247467,117.04479967787015L64.7553310856169,117.50750405956535L64.83171174666431,117.04449506520157L65.06085372980655,117.1243512765547L65.28999571294878,116.68912601268755L65.74827967923324,117.86673085454953L65.82466034028064,118.3162374536154L66.05380232342287,118.35704189214583L66.2829443065651,118.91176893683195L66.51208628970734,118.07003417620578L66.74122827284955,118.37402431067284L66.89398959494437,119.18591415317054L67.12313157808661,119.89086953487669L67.19951223913402,120.7337400044142L67.35227356122884,121.85218419710142L67.58141554437107,122.09779532742141L67.65779620541848,122.13747938460506L67.73417686646589,122.27225089865756L68.11608017170293,120.84807028856173L68.19246083275034,121.14829155542368L68.42160281589257,121.12037113060924L68.57436413798739,121.37406252644458L68.80350612112962,121.40136209816919L68.95626744322443,120.99918652655373L69.10902876531925,120.97580815361299L69.49093207055631,121.53416168897846L69.56731273160372,121.37682085652158L69.72007405369854,120.16120629880594L69.79645471474595,121.5289438957723L70.33111934207781,121.47830008828419L70.56026132522004,120.61199069232234L70.63664198626745,121.20326756636003L70.86578396940968,120.92398347838396L71.24768727464674,120.25368421849448L71.40044859674155,119.28612457484095L71.62959057988378,119.36424170752389L71.70597124093119,119.63626120798784L71.85873256302601,120.41837026198418L72.39339719035787,121.44964264631685L72.77530049559493,122.56172502129309L72.85168115664233,119.68574820172859L73.23358446187939,119.23229363452967L73.61548776711642,119.57628923609208L73.99739107235348,119.39015005989256L74.53205569968536,118.92124500985133L74.60843636073275,118.86877933648603L75.14310098806463,120.1476186571991L75.52500429330166,119.30951102941717L75.7541462764439,120.25199695847974L76.28881090377577,120.50755118792392L76.74709487006024,119.2519178913586L76.82347553110763,119.449181847771L77.20537883634468,120.45289453560463L77.58728214158174,120.02636082330847L77.66366280262915,120.52173450401511L77.81642412472397,120.97079499565137L77.96918544681878,122.28230766726455L78.19832742996101,123.26114155455424L78.27470809100842,123.04313397010586L78.35108875205584,123.88835758590189L78.50385007415065,124.38409092947225L78.73299205729289,124.99462599726931L79.49679866776698,125.27603648656273L79.72594065090921,125.67824046137292L79.87870197300403,124.94135957139045L80.26060527824107,124.69451303682095L80.3369859392885,124.66154437453963L80.71888924452553,124.0853894603816L80.87165056662036,123.2465204618328L81.40631519395222,123.71349166510136L81.63545717709444,123.12656991757751L82.17012180442632,123.5506293025131L82.39926378756854,123.27843135452414L82.70478643175818,122.06757525849422L82.85754775385301,122.87806248087898L82.93392841490041,122.52885191729716L83.01030907594782,122.8371088804569L83.31583172013745,123.7484495385649L83.69773502537451,122.8700950567889L83.92687700851674,123.89481319909356L84.15601899165897,124.15511440963243L84.30878031375379,124.1409330571965L84.46154163584862,124.40534385586633L84.53792229689601,125.2108109264748L84.99620626318048,125.10684336227985L85.2253482463227,123.40933201371293L85.37810956841753,123.53585782866972L85.53087089051233,124.0321695129372L85.68363221260717,123.59241579748492L85.9891548567968,123.42252695502523L86.29467750098644,124.23853872452L86.44743882308127,125.20318200429864L86.8293421283183,125.36829017425129L86.98210345041313,126.1544116214523L87.59314873879241,127.26975061408857L87.89867138298204,127.13543242820717L88.20419402717168,126.83515287107772L88.58609733240873,126.04920129504902L88.66247799345615,125.35485712014608L89.42628460393024,125.06731752097143L89.50266526497765,126.2716839229135L89.80818790916729,125.76855753219284L90.11371055335692,124.9190634932973L90.19009121440433,125.53323507235888L90.34285253649915,125.61799917577036L90.7247558417362,125.01326206738716L90.87751716383103,124.71573566186694L90.95389782487842,121.28655099553997L91.10665914697326,121.33979616365457L91.25942046906808,121.56432672382337L91.4121817911629,122.5317892384796L91.4885624522103,119.99008053014914L92.02322707954217,120.82520659969785L92.48151104582664,121.79545695384874L92.78703369001627,122.27626419231002L92.93979501211108,123.11553142450882L93.01617567315849,121.95518842351632L93.16893699525332,122.10541058799765L93.32169831734814,121.83500988366407L93.70360162258518,122.11547534512277L93.77998228363259,123.18747940567327L93.85636294468001,122.98330673857032L94.00912426677482,123.59524410343161L94.16188558886965,123.61080384045174L94.39102757201186,123.45487941978652L94.54378889410668,123.60028351648626L94.62016955515409,122.49171923953443L95.15483418248596,123.46275245472022L95.30759550458079,122.48626189261773L95.46035682667559,122.0886050435715L95.61311814877043,122.80892982500225L96.30054409819711,123.10136704514365L96.37692475924453,123.64250842769033L96.52968608133934,122.42804022994456L96.68244740343417,122.73850721843985L97.44625401390824,122.77672973311945L97.67539599705049,121.75008276662301L98.05729930228753,120.93838162513171L98.43920260752458,120.2877370388725L98.59196392961941,120.58902818794213L98.66834459066682,119.17657361978335L98.74472525171421,119.59196351071384L98.82110591276162,120.16142018769958L98.97386723485646,121.21866617572866L99.12662855695127,122.50268726007317L99.43215120114091,121.35720389801645L99.58491252323573,121.11535529672082L99.81405450637796,122.02778571085807L100.27233847266243,122.18867656260025L101.0361450831365,122.16076725197098L101.18890640523134,121.56487108134495L101.34166772732615,121.03248065747226L101.7235710325632,121.99081875144813L102.02909367675284,122.15761436544409L102.18185499884767,122.9137371223262L102.33461632094247,122.51795125330472L102.41099698198988,122.24821709609014L102.64013896513211,122.59512875941716L102.79290028722694,122.85802445694536L103.25118425351138,122.78463236692235L103.63308755874844,120.76058471999775L104.24413284712772,121.42091432468548L104.32051350817513,121.55400857578124L104.39689416922255,121.51150781088256L104.47327483026994,121.49521067184062L104.62603615236476,121.47403656141668L104.7787974744596,122.63173429615432L104.85517813550699,122.43247967477694L105.6953654070285,122.93038592226074L105.92450739017073,120.5485738819869L106.00088805121814,120.61895390611909L106.40825157680432,119.2047114478891L106.48463223785173,120.0564255184091L106.79015488204138,120.58690324471925L107.01929686518359,120.07037298841084L107.09567752623101,119.98549906772655L107.24843884832583,120.49397286298418L107.40120017042065,121.5946406495679L107.47758083146806,121.80680591870382L107.93586479775253,121.4391341715066L108.01224545879992,121.98607332599175L108.08862611984733,122.43533524084806L108.16500678089476,122.73355143312449L108.31776810298958,123.36352237549595L108.39414876403697,123.84080584213453L108.5469100861318,122.13344738706643L108.6996714082266,122.71895401274949L108.77605206927403,121.93186794154269L108.85243273032144,122.26734851945139L109.3107166966059,120.8198077836056L109.3870973576533,121.25274392144465L109.46347801870071,119.54334727771266L109.53985867974812,119.63556796202707L110.53280727336445,119.55668027350589L110.68556859545927,120.1782259734276L110.83832991755409,120.46382353406091L111.29661388383855,120.96249577840463L111.83127851117042,121.2242043477369L112.21318181640746,121.80965598101048L112.28956247745487,122.52406402391526L112.97698842688156,122.60606533271404L113.05336908792897,122.52276547968037L113.81717569840306,121.15516541089448L113.96993702049788,122.12459174126457L114.1226983425927,120.62609832221631L114.35184032573494,121.21234917877828L114.58098230887717,121.74046223786601L114.73374363097199,121.59966539804626L114.8865049530668,121.78350178806053L115.11564693620903,122.43041407699161L115.26840825830385,121.33431529396313L115.49755024144608,120.48197569028343L115.72669222458832,121.26703025433002L115.80307288563571,122.42516421362039L116.03221486877796,123.31191302315739L116.18497619087276,124.01659669306892L116.79602147925205,123.9630645357731L116.87240214029946,124.65337631893632L117.02516346239429,123.38839144866638L117.1779247844891,123.43572046311385L117.33068610658393,124.0077163948645L117.78897007286837,125.02337333300676L117.9417313949632,125.74260395789597L118.7819186664847,126.3268059837772L118.9346799885795,125.70323666151077L119.24020263276917,126.5084891686682L119.31658329381656,127.17938391108865L119.39296395486397,127.8714246311781L119.5457252769588,127.80822491375326L119.6221059380062,128.98745063000135L119.92762858219584,128.58541175558568L120.15677056533808,128.8558676888696L120.84419651476476,129.30293048512345L121.07333849790699,129.08293465120596L121.76076444733368,128.82118811775047L122.06628709152332,128.89003408588349L122.21904841361813,129.10678449578074L122.37180973571296,127.94916391156374L122.44819039676037,127.9939958709629L122.52457105780776,128.58328818579878L122.8300937019974,128.67154624782958L122.90647436304482,129.1887989917543L122.98285502409223,128.78879914738732L123.05923568513964,128.0299446286065L123.36475832932928,128.75176471557717L123.5939003124715,129.67866172542392L123.67028097351893,129.87697600462727L123.89942295666114,129.68206081762082L123.97580361770856,130.10966411504114L124.35770692294561,130.2742229852199L124.51046824504043,130.97828187182103L124.81599088923006,131.4294502555137L124.96875221132488,131.84479984202068L125.04513287237228,131.90199398599088L125.35065551656194,131.8231255688724L125.65617816075158,131.23918821683253L125.88532014389381,131.2733611701768L126.57274609332049,131.13726617997992L127.18379138169976,131.93699215758897L127.41293336484199,130.85330694984958L127.56569468693682,131.6318030748449L127.64207534798422,131.51985910855618L127.79483667007904,130.8636868945468L127.87121733112646,131.71365105714713L127.94759799217385,131.63367715840087L128.1003593142687,132.41102320742246L128.17673997531608,132.30582351852178L128.48226261950572,132.24604389980524L128.63502394160054,132.2718966031903L128.78778526369535,131.75391228084317L128.9405465857902,131.9227788874954L129.0169272468376,131.1501699180924L129.47521121312204,131.81159074158822L129.55159187416947,132.0723447774949L129.70435319626426,132.14448915592493L130.5445404677858,132.01861797279525L130.6209211288332,132.32474772168078L130.77368245092802,132.0511235204442L130.92644377302284,132.5728432987433L131.07920509511766,130.46988421200663L131.3847277393073,131.22167402415323L131.84301170559175,131.3882623421277L132.07215368873398,131.73850152828498L132.2249150108288,132.73217598988893L132.60681831606587,132.2866020464722L133.14148294339773,131.95896706439268L133.29424426549252,131.49338645925684L133.752528231777,131.34910707933346L134.05805087596664,132.53388603375532L134.5927155032985,132.78542140155054L134.74547682539333,132.23613136417572L134.89823814748814,131.34220701177918L135.17830057132866,132.06604017177744L135.4074425544709,132.22502636199224L135.4838232155183,132.76149504490056L135.86572652075532,132.82917793949352L135.94210718180275,133.09132326337436L136.17124916494495,133.06618245068643L136.2476298259924,131.53363861748448L136.93505577541907,132.13981450354655L137.0878170975139,132.94256816505177L137.1641977585613,132.683009253172L137.69886238589316,133.4544537324592L137.77524304694057,133.8872002359906L137.85162370798798,134.43148663618672L138.0043850300828,135.20962527625784L138.9209529626517,135.79541216578957L139.07371428474653,135.98311264865467L139.22647560684135,135.30750861630784L139.45561758998358,135.8490684412241L139.60837891207842,135.40736319606683L139.83752089522065,135.84352886809296L139.91390155626806,135.888255802756L140.06666287836285,136.1524864632963L140.44856618359992,135.17179372271895L140.52494684464733,132.4723673669078L141.28875345512142,133.2359931620102L141.36513411616883,132.96565053341516L141.51789543826365,132.04227340427855L141.9761794045481,133.35476992406947L142.12894072664292,131.31360686388268L142.43446337083256,131.07354187535617L142.89274733711704,131.6823974601707L143.19826998130668,131.18975155958393L143.50379262549632,131.84194150966908L143.6565539475911,131.92590327819465L143.80931526968595,130.62028641810826L144.2675992359704,130.18149793771704L144.42036055806523,131.07226460278682L144.4967412191126,131.43521856005086L144.57312188016004,131.95982563494277L145.1077865074919,132.1704351252147L145.33692849063414,132.4640924847043L145.41330915168155,133.2258704177508L145.48968981272895,133.14979335930653L145.64245113482377,133.43079250205562L145.71883179587118,133.9184061739326L145.871593117966,132.7254654446836L146.40625774529786,132.87991799262312L146.7117803894875,133.47061696403296L146.7881610505349,133.15733379146417L146.86454171158232,133.40502074931655L147.47558699996162,132.33268379080957L147.78110964415123,132.3592331822756L147.85749030519867,132.8662294577681L148.01025162729348,132.72783565999498L148.3921549325305,133.251415549867L148.9268195598624,133.9183990807839L149.15596154300462,132.9350297218666L149.38510352614685,133.62941650489586L149.53786484824167,134.43611466393972L149.8433874924313,135.46633779226542L149.99614881452615,135.9891196325351L150.07252947557353,135.1147622131707L150.30167145871576,135.70646279958277L150.6835747639528,136.77132006210473L150.83633608604765,137.42698807063636L150.91271674709503,137.77714115675826L150.98909740814244,137.05710498372946L151.06547806918988,137.6667257147122L151.2182393912847,138.20166341982267L151.29462005233208,138.2672854435331L151.3710007133795,138.39225769228892L151.44738137442693,138.58631274854778L151.5237620354743,138.4251042835578L151.67652335756915,139.0563443089715L151.90566534071138,139.33669966778544L152.13480732385358,139.31812974604068L152.21118798490102,139.6229227183785L152.59309129013803,139.70366239015596L152.66947195118547,139.16253479550977L152.9749945953751,138.67950679229858L153.05137525642252,138.79024574740208L153.2041365785173,139.4688518106758L153.43327856165956,140.07156164570998L153.81518186689664,139.7734922461118L154.04432385003884,138.53625049637986L154.12070451108625,138.85019541027967L154.5026078163233,139.34564177988557L154.5789884773707,138.99848161228314L155.03727244365518,139.08532202495005L155.19003376574997,138.91106052939645L155.41917574889223,138.63273430820678L155.49555640993964,139.26825034630272L155.57193707098702,139.4449104278208L156.56488566460334,138.61352439061085L157.25231161403005,139.42385508829767L157.7105955803145,140.25070418764105L157.93973756345673,140.2364834158661L158.77992483497823,140.0443643565898L158.85630549602567,139.91880724395037L158.93268615707305,140.68563853925815L159.00906681812046,141.39649877472604L159.849254089642,141.61761127960804L160.23115739487903,141.65853162105188L160.30753805592644,141.57177040156273L160.38391871697382,141.57679248216547L160.46029937802126,141.1239505766854L160.53668003906867,141.62067821808878L160.61306070011605,141.72058891906659L160.6894413611635,142.52784383210724L160.7658220222109,141.97706393113796L160.9949640053531,142.64515251910456L161.6060092937324,141.18915538787405L161.75877061582722,141.64882465514057L161.98791259896944,141.99389974210922L162.06429326001685,142.14522783399875L162.14067392106426,141.82214846244807L162.2170545821117,142.5174689744436L162.3698159042065,142.18515776642585L162.5225772263013,141.49174756302372L162.59895788734872,141.52128722613034L162.90448053153835,141.06247060949295L162.98086119258576,141.1809242755275L163.0572418536332,141.5107335255903L163.13362251468058,141.4408186480068L163.43914515887025,142.27626128375243L163.66828714201247,141.66597598109252L163.8974291251547,142.16205432979052L164.12657110829693,141.76348749487727L164.2029517693443,142.14288576953658L164.43209375248654,142.6953718654175L164.58485507458136,142.0749557695591L164.6612357356288,142.32253930364422L164.96675837981843,141.80190382456556L165.11951970191325,142.14476619277767L165.73056499029252,142.20246524687906L165.88332631238734,142.3626758330403L165.95970697343475,142.68032377803166L166.11246829552957,143.1433576581458L166.2652296176244,143.17385595762278L166.3416102786718,143.43779295727776L166.57075226181402,142.9817987197718L166.72351358390884,142.47366483084923L166.79989424495625,141.66812109847308L167.1054168891459,142.08180622936015L167.56370085543034,140.67151491858522L168.40388812695184,140.4340226715619L168.48026878799928,140.5105733957666L168.5566494490467,140.28553250497748L168.63303011009407,140.7600674127549L168.86217209323632,140.58061412725743L169.60051848336127,140.7662187741703L169.67689914440868,141.43360115536422L169.90604112755094,142.12587072280013L169.98242178859834,141.8806568679083L170.21156377174054,142.11955614317424L170.44070575488277,142.10861677092333L170.89898972116723,141.5110092878828L171.2045123653569,142.07033276725502L171.28089302640427,142.01200429144646L171.43365434849912,142.20731926748812L171.58641567059394,142.26400892464963L171.73917699268875,142.34582845640264L171.81555765373616,142.53580572824313L172.27384162002062,143.11261945230137L172.65574492525766,144.1740031087262L173.0376482304947,144.51594113852673L173.19040955258953,144.7719867849895L173.34317087468438,144.7999382140292L173.41955153573176,144.89929494515638L173.64869351887398,144.702580078428L173.8778355020162,144.5641443326038L174.10697748515844,144.76694605180325L174.18335814620588,145.21019768756173L174.94716475667997,145.46936037963908L175.1763067398222,145.6141299463697L175.40544872296442,146.40528063141662L175.4818293840118,146.64029113467564L175.63459070610665,146.7580534204743L175.71097136715403,147.17192967341936L175.78735202820147,147.07845914981357L176.55115863867556,146.5928506891883L177.31496524914968,146.9873626539567L177.6204878933393,146.64406431979938L178.00239119857636,146.86826083525025L178.4606751648608,146.91855021723197L178.68981714800302,147.2530716554415L178.84257847009786,146.75120493417725L179.1481011142875,146.81997427501398L179.60638508057195,147.51822613183265L179.68276574161936,145.63717614450596L179.75914640266677,145.6959431699164L179.83552706371418,144.11941224610993L180.44657235209345,142.67279878591586L180.7520949962831,142.96502654599988L180.98123697942532,143.1932076542377L181.05761764047273,142.67527742764952L181.43952094570977,142.71964477571893L181.51590160675718,143.20664077657162L181.59228226780462,143.62434488638945L182.81437284456317,144.09063356177325L183.0435148277054,144.31634082342111L183.27265681084762,143.9205638115624L183.34903747189503,144.2095359995393L183.9600827602743,144.40882589616467L184.11284408236912,144.7837377966408L184.34198606551135,145.0367976482148L184.41836672655876,145.91424008190126L184.57112804865358,146.05890835114886L184.95303135389065,146.54136551536152L185.3349346591277,146.4740448809222L185.79321862541215,146.936981745412L185.86959928645953,147.31806890199672L186.25150259169658,147.78439702968848L186.40426391379143,147.56738054715504L186.4806445748388,147.9335105553511L186.9389285411233,148.18630739452544L187.09168986321808,148.49636682929767L187.39721250740774,149.32879001414173L187.62635449054997,149.66497651200075L188.23739977892924,150.05670183192063L188.46654176207147,150.2996555512441L188.6956837452137,149.93939394299554L188.7720644062611,149.28054062979973L189.6122516777826,149.27141548592687L189.76501299987746,148.42746239674062L189.99415498301968,149.03867208224904L190.2232969661619,149.24748505076843L190.52881961035152,148.56260567907268L190.75796159349377,147.68994628148877L190.987103576636,148.03580810021296L191.21624555977823,148.24766262742452L191.36900688187305,147.20457765776735L191.44538754292046,147.8986024923031L191.67452952606268,147.3382710726607L192.13281349234717,147.86598373360454L192.28557481444196,148.18773141687714L192.36195547548937,148.63468518841145L192.43833613653678,148.62017064524164L192.51471679758419,148.16445365596743L192.89662010282123,148.45901989632006L192.97300076386867,148.9096016020284L193.04938142491605,149.43010155964265L193.20214274701087,150.05243729013043L193.35490406910571,149.60106382670205L193.4312847301531,150.02779593869943L193.5076653912005,150.0618062437906L193.58404605224794,149.73003499695272L193.73680737434273,148.01556909837885L194.11871067957978,147.5202671272609L194.19509134062722,147.6277019884011L194.2714720016746,147.52678202313726L194.72975596795905,147.61466241396988L194.8061366290065,148.13367183762753L195.03527861214872,148.32480650429736L195.1116592731961,148.72824253095482L195.18803993424353,149.28283776271584L195.34080125633832,149.6765430672265L195.56994323948058,148.87139760511494L195.9518465447176,148.66402047287664L196.33374984995467,148.4369525769783L196.4865111720495,148.90220180211438L196.6392724941443,149.15951016428852L196.86841447728654,149.16322367522272L197.09755646042876,148.87424266786311L197.25031778252358,148.25481087382488L197.326698443571,148.19875795310355L197.78498240985547,147.1456824723325L198.70155034242435,147.4835642874431L199.00707298661402,147.65266923012103L199.15983430870884,147.38061352552018L199.38897629185107,146.5461212293223L199.84726025813552,146.67013977367225L200.38192488546738,146.14663640796164L200.4583055465148,146.07306660314123L200.68744752965702,145.12681414527293L200.76382819070446,145.35799084211436L200.9929701738467,145.55017615870528L201.2984928180363,144.68650979566033L201.37487347908373,144.44931485977153L201.52763480117852,145.15281907595264L201.60401546222596,144.76267155411344L201.75677678432078,145.21456159201605L202.1386800895578,144.83827575806885L202.21506075060523,144.90835974939625L202.44420273374746,145.541980487904L202.52058339479484,146.26903164897743L202.97886736107932,146.04404808671015L203.1316286831741,146.37147557299284L203.20800934422155,147.0581554250593L203.36077066631634,146.46984093524597L203.666293310506,145.18349996546766L203.76813419190256,145.74007444990065L203.9972761750448,145.83207365903303L204.22641815818702,144.52667781524292L204.60832146342406,143.69979822189168L204.76108278551888,144.24743535923105L204.9138441076137,144.22309088132772L205.6776507180878,145.07408058659104L205.8304120401826,145.84717175921418L205.90679270123005,146.03324938717233L206.44145732856188,145.77086487243483L206.74697997275155,145.95976857304709L207.35802526113082,146.40604667300667L207.58716724427305,147.18237398823265L207.73992856636787,147.37984946102227L208.1218318716049,147.79071316576412L208.35097385474714,147.8972502099226L209.95496773674273,148.15681645313515L210.10772905883758,146.37412048588547L210.41325170302719,146.68278125854593L210.6423936861694,147.23478245044345L211.10067765245387,147.16264415614236L211.78810360188058,147.81544934121965L212.0172455850228,147.40549932220142L212.0936262460702,146.69247703247663L212.17000690711762,146.83158906571197L212.70467153444946,145.27292322933604L213.39209748387617,145.75545179465067L213.544858805971,145.95158955622688L213.77400078911322,146.55697672942188L213.92676211120806,147.06038646283977L214.00314277225544,147.39317858034485L214.23228475539767,147.95195465380846L214.3086654164451,148.4038548752656L214.4614267385399,148.65624728867485L214.61418806063472,149.6681750142451L214.84333004377694,149.3651719673599L214.99609136587176,149.40063391797634L215.75989797634588,149.67097337319555L215.8362786373933,150.10165442311992L216.0654206205355,150.7445313846622L216.14180128158293,151.11973484692837L216.44732392577257,150.9266773029729L216.7528465699622,151.2935917986832L216.8292272310096,150.97619229277024L216.98198855310443,150.97206156875646L217.6694145025311,151.2155822231154L217.97493714672075,151.50880494188323L218.66236309614743,151.0374293420587L218.81512441824225,150.97932903253601L218.89150507928966,151.04990597339273L219.2734083845267,150.9989383369185L219.34978904557414,151.3775895695423L220.03721499500082,151.22852258478218L220.26635697814305,151.11582311158224L220.41911830023787,151.29214216170345L220.72464094442748,151.21995510592467L220.87740226652232,150.3264596656768L220.95378292756973,150.79658783628756L221.18292491071196,149.66834430737248L221.25930557175937,149.5471241403682L221.33568623280678,149.48899417890664L221.4884475549016,149.34377090551905L221.564828215949,149.43624710305087L221.79397019909123,149.3968818808121L221.94673152118608,149.4327279925763L222.02311218223346,149.7045254447052L222.2522541653757,150.24425279290708L222.32863482642313,150.41031645073855L222.4050154874705,149.92508046155513L222.55777680956535,149.84931299979053L222.78691879270758,149.44091260886887L223.55072540318167,149.6019648369306L223.7798673863239,149.64894808281542L224.0853900305135,148.5786114469901L224.31453201365574,148.81965125747956L224.46729333575058,148.71505523472982L224.543673996798,149.01683695186367L224.6964353188928,149.57405447398375L225.00195796308245,149.50084708486543L225.15471928517726,150.0822584771473L225.30748060727208,149.69629504960903L225.53662259041434,150.15474493447252L225.76576457355654,149.92220244547462L225.91852589565136,149.03727411068644L226.3004292008884,148.5942086857932L226.45319052298322,148.5796228627237L226.52957118403066,149.24278674277437L226.9878551503151,149.8729578203222L227.0642358113625,149.84807801185676L227.36975845555216,149.49743381411983L227.44613911659954,149.36423660622373L227.98080374393143,149.85846649191498L228.66822969335811,150.1360257804797L229.3556556427848,148.89763516738057L229.89032027011666,148.89569669693978L229.9667009311641,149.0890758527387L230.1958429143063,149.64091964873109L230.8068882026856,149.11534390752175L230.95964952478042,149.39437055940104L231.1124108468752,149.72344417053614L232.25812076258637,149.69820148843772L232.33450142363375,150.2574619686018L232.7164047288708,150.47491703180287L232.94554671201303,150.50978588014613L233.3274500172501,151.09961801653674L233.55659200039236,151.0610674505858L234.01487596667678,151.17909889957897L234.39677927191386,149.94317538461152L234.47315993296124,150.36362201770694L234.7786825771509,150.59573096549954L235.00782456029313,150.34581861563143L235.23696654343536,149.70393477902977L235.31334720448274,149.73662795386113L235.54248918762497,149.4804408406396L235.77163117076722,149.26590264200408L235.924392492862,148.07847357500472L236.3826764591465,147.4202172059234L236.53543778124128,147.86215766643448L236.61181844228872,148.21295591326236L236.76457976438354,147.37939948051968L236.99372174752577,147.19047743483787L237.222863730668,147.5068319211936L237.3756250527628,148.0653049904018L237.52838637485763,147.74222491384015L237.68114769695245,148.06835095967986L237.7575283579999,147.52779694178057L238.0630510021895,148.16598110697458L238.1394316632369,147.7750339649109L238.21581232428431,148.08324850722727L238.29219298533172,147.9684391324855L238.36857364637916,147.32064471042963L238.44495430742654,143.66582020381406L238.52133496847395,144.28831136697994L238.5977156295214,144.41578392748906L238.67409629056877,144.45630565190916L238.7504769516162,144.92115995864617L238.82685761266362,144.59034092398008L238.903238273711,143.95622295993735L238.97961893475843,143.54531349237772L239.05599959580582,143.74384888512728L239.13238025685322,144.2585569803852L239.20876091790066,144.98321611945403L239.28514157894804,144.7589809237476L239.36152223999548,144.97528864588006L239.4379029010429,145.38320051889914L239.51428356209027,145.87778630748556L239.5906642231377,146.6343526567656L239.66704488418512,147.50299018473424L239.7434255452325,147.73252799375103L239.81980620627994,147.58971948877212L239.89618686732732,147.28270567371578L239.97256752837475,147.9067741398551L240.04894818942216,148.18014733473441L240.2780901725644,148.68419691224682L240.50723215570662,149.2121976851312L240.58361281675403,148.8499486105368L240.65999347780144,149.17544757339326L240.96551612199104,149.72357647600475L241.2710387661807,148.97474288832402L241.34741942722815,148.6477278857579L241.42380008827553,148.61123393386958L241.65294207141775,148.29448571493742L241.80570339351257,148.07030617289053L242.18760669874965,148.22617227109365L242.49312934293926,148.3635336893709L242.5695100039867,148.53304235499607L243.25693595341338,149.0744115544278L243.33331661446076,149.10392292325798L243.48607793655557,148.92746949300246L243.7152199196978,147.32161275520838L243.79160058074524,147.58307597613864L243.86798124179265,147.80582515890848L244.02074256388747,148.22709281640533L244.4026458691245,148.00551090122414L244.5554071912193,147.0313899602621L244.86092983540897,146.86272958781186L244.93731049645638,147.47780107345804L245.01369115750379,147.3682032468765L245.0900718185512,147.32088262673443L245.31921380169342,147.8968947467548L245.70111710693047,148.24086592569608L246.0066397511201,148.40731329621033L246.46492371740456,148.38971132820157L246.77044636159422,147.40295673263947L247.15234966683124,146.44394212839458L248.06891759940018,145.79170619621127L248.14529826044756,145.76007306562454L248.90910487092168,145.69750840274048L249.21462751511132,146.11543717281256L249.59653082034836,146.4309404179443L249.67291148139577,146.49976666681752L249.74929214244318,146.72594926067472L250.20757610872766,146.58993029349782L250.51309875291727,147.01748161259613L250.6658600750121,147.6271940374246L250.97138271920176,148.22711264309453L251.73518932967582,147.81965160713997L251.96433131281805,147.4565650272087L252.1170926349129,148.047612340403L252.1934732959603,147.5057067451579L252.2698539570077,148.10002809805047L252.88089924538698,146.9551011398962L253.0336605674818,146.2749144950382L253.41556387271885,146.34211552500153L253.8738478390033,147.1118118283997L254.10298982214553,147.8576065253332L254.33213180528776,148.24960961180594L254.48489312738258,147.9731013038687L254.63765444947742,147.71124005705624L254.79041577157224,148.207556742941L255.09593841576185,148.34508032061507L255.5542223820463,147.58295284436613L256.01250634833076,148.23216948928527L256.1652676704256,146.7287748986664L256.54717097566265,146.3554085347574L256.62355163671003,146.04772110810623L256.69993229775747,145.77987682819108L256.8526936198523,146.5317561734179L256.9290742808997,145.72946232034144L257.2345969250893,145.72848922968575L257.3873582471842,146.41169916876296L257.6928808913738,145.53394497394908L257.922022874516,145.64395624132112L258.6094488239427,145.3232145212853L258.99135212917975,145.9396115814902L259.0677327902272,146.7812826661675L259.3732554344168,147.70565145630857L259.4496360954642,148.2531754725173L259.602397417559,148.27037890197917L259.75515873965384,148.65427069734898L259.9079200617487,148.7170022841531L259.9843007227961,148.86794603334855L260.0606813838435,149.0475171304394L260.44258468908055,149.64317327587463L260.67172667222275,149.63911129498553L260.7481073332702,149.51183643487L260.900868655365,148.40666675378776L261.0536299774598,148.93824712912667L261.35915262164946,149.16526271643062L261.43553328269684,149.07916519712484L261.8174365879339,149.33346356755894L261.8938172489813,149.61247014941387L262.199339893171,149.2354221049269L262.27572055421837,149.2060216577114L262.3521012152658,149.78090250303484L263.57419179202435,150.6115583029398L263.95609509726137,151.09820723752395L264.0324757583088,150.75519922986354L264.10885641935624,151.17225315340517L264.49075972459326,151.07466041167444L264.5671403856407,151.05001580539016L264.7962823687829,150.74700810647116L264.8726630298303,150.00365629799285L265.17818567401997,150.43579299788684L265.3309469961148,150.28681111768836L265.8656116234466,150.60909238529973L265.94199228449406,150.79905654415433L266.2475149286837,150.46688661675483L266.4002762507785,150.92251945381588L267.01132153915773,151.13174045498647L267.7751281496318,151.64404398790242L267.85150881067926,150.2757523517278L268.61531542115335,150.17066371863407L268.99721872639043,150.13054305306335L269.53188335372226,150.5065731336857L269.6846446758171,150.95111633476068L270.14292864210154,151.4808801830433L270.3720706252438,151.7982734602937L270.52483194733855,151.53342025839828L271.2886385578127,151.9149354037704L271.3650192188601,151.89923203230848L271.74692252409716,151.8716525655553L272.0524451682868,152.0404138020457L272.35796781247643,152.17920622429202" style="fill: none;" fill="none"></path></g></g></g></g><g opacity="0.2"><g><g><g><path stroke="rgb(255, 112, 67)" stroke-width="2px" d="M29.863372108142702,152.83598352055876L29.914292548840972,148.43597982804692L29.99067320988839,148.82046625014272L30.219815193030616,144.2259155533958L30.320128461206213,58.13225929117114L30.396509122253622,103.78076652645665L30.47288978330103,171.91539545936132L30.523810223999305,81.43080130424929L30.752952207141536,11.261845427921571L30.816857360217867,99.83333467514672L30.893238021265276,136.115049695275L31.198760665454916,117.76359044266744L31.580663970691962,118.21702405189447L31.73342529278678,122.72498429747549L31.809805953834196,97.35551030782649L31.962567275929015,123.46116974087063L32.03894793697642,61.03045410115392L32.19170925907124,98.09764769571527L33.031896530592746,107.67251092798212L33.872083802114254,102.70532024692497L33.94846446316166,90.47156369501596L34.02484512420908,145.55780963440827L34.330367768398716,-7.640588084118377L34.55950975154094,122.53992248663707L34.63589041258835,147.5713622233053L35.17055503992022,82.92962272429116L35.70521966725209,113.8286025216405L35.7816003282995,101.52884602924622L35.857980989346906,116.00641096868901L36.39264561667878,98.62730181420572L37.309213549247694,135.99242585041796L37.53835553238992,72.01895011161763L37.76749751553215,119.77622093977756L37.99663949867438,132.07869487401112L38.37854280391143,92.42516882752427L38.9132074312433,131.27171805991094L39.82977536381221,87.46703820097142L39.90615602485962,95.10927173446181L40.36443999114408,95.66164780321509L40.66996263533372,113.50374470176413L40.975485279523355,112.31995694611204L41.51014990685522,19.237405088415386L41.73929188999745,66.70891938455956L41.89205321209227,111.48367427403697L42.121195195234506,93.24077481211619L42.42671783942414,58.284309641526576L42.65585982256637,130.6592193086038L42.96138246675601,-28.847377805138308L43.037763127803416,112.92935333252865L43.4451266533896,77.54732987576514L43.674268636531835,132.80734271974637L44.05617194176888,30.936158814957935L44.361694585958524,62.24462779737239L44.438075247005926,80.03286419435028L44.66721723014816,113.66614775866157L44.74359789119556,98.59725483572923L44.9727398743378,-8.112159037714491L45.125501196432616,92.35377421920163L45.58378516271707,104.6503766406239L45.66016582376449,114.08526002000742L45.736546484811896,112.38415866398486L45.812927145859305,107.38344520674983L46.11844979004894,108.31089719076438L46.34759177319117,123.968538538231L46.50035309528599,96.65766779642983L47.493301688902314,128.89730011048715L47.79882433309195,63.319597231930175L48.562630943566056,120.81615663155335L48.63901160461346,115.44130945876454L48.79177292670828,115.54600852869868L48.86815358775569,128.44020685971336L49.02091490985051,99.57711380591255L49.09729557089792,90.40644850303649L49.555579537182375,115.52704388702548L49.63196019822979,96.34416233400462L50.01386350346684,137.1556719289108L50.31938614765648,109.96679594130835L50.4721474697513,113.7997275476782L50.5485281307987,137.21727110734773L50.70128945289352,126.03129520880336L51.465096063367625,112.83623067973218L51.54147672441503,147.68411595171443L51.61785738546244,125.64584935163958L52.458044656983944,102.15769539255028L52.68718664012618,54.1852008726721L52.839947962221,130.30966321712697L52.9163286232684,118.97681044893808L53.22185126745805,160.28539358586434L53.45099325060027,142.6083683525306L53.527373911647686,138.76540289378804L53.60375457269509,136.15709822978158L53.680135233742504,116.89101010137352L53.90927721688473,85.31696144897185L53.98565787793214,69.92441718139835L54.13841920002696,137.29451424800098L54.21479986107437,114.32626206591766L54.367561183169194,142.42396723051144L54.82584514945365,104.8992380109234L54.90222581050106,114.1308935094986L55.054987132595876,83.08984263552493L55.131367793643285,116.37061711659322L55.284129115738104,116.2190436112117L55.43689043783293,93.59111223993582L55.58965175992775,138.55779148629185L55.66603242097515,98.8394576117545L55.742413082022566,118.25106388888744L55.81879374306997,121.33688857842355L55.971555065164786,134.2801387454291L56.27707770935444,135.02381582552277L56.58260035354407,98.40902171855832L56.658981014591475,132.02457009691224L56.8117423366863,129.65779315731137L56.88812299773371,122.46663198865912L56.96450365878112,83.3451213050516L57.04088431982853,94.13815683717358L57.957452252397445,132.00152641992005L58.3393555576345,115.4531214258291L58.492116879729316,102.59222181130579L58.56849754077672,129.55041686137912L58.874020184966355,133.72075937519153L59.02678150706119,131.75946727189898L59.332304151250824,123.27213230687624L59.561446134393044,141.40345579002226L60.019730100677506,94.94809238816008L60.172491422772325,103.92446921720857L60.40163340591455,124.04814292327313L60.55439472800938,93.26441023648566L60.707156050104196,110.71486803833024L60.783536711151605,140.13508550270285L61.08905935534124,96.25905412384193L61.24182067743606,123.80286076283804L61.47096266057829,130.43534346591318L61.5473433216257,150.3388584220355L61.70010464372052,117.0209302488434L61.92924662686274,130.4429212794142L62.15838861000498,99.42930335424079L62.46391125419461,119.58354684471709L63.22771786466871,115.29536042602707L63.30409852571612,121.03323599708574L63.686001830953174,135.87535753676298L63.76238249200058,114.9966486480334L64.06790513619022,88.44236427134248L64.37342778037986,142.36766505286909L64.52618910247467,105.64244399116335L64.7553310856169,128.87193540494724L64.83171174666431,105.6711351212803L65.06085372980655,119.08618030156849L65.28999571294878,105.99568270466762L65.74827967923324,146.8036360701901L65.82466034028064,129.3630167866325L66.05380232342287,119.359929532434L66.2829443065651,132.54716346271675L66.51208628970734,97.37789329599943L66.74122827284955,125.84762371704551L66.89398959494437,139.14800491646886L67.12313157808661,137.22522235365966L67.19951223913402,141.4610276392217L67.35227356122884,149.3583588709535L67.58141554437107,128.13862826675603L67.65779620541848,123.11358422561126L67.73417686646589,125.58744446001586L68.11608017170293,85.81283426087688L68.19246083275034,128.53429469269798L68.42160281589257,120.43343396134902L68.57436413798739,127.61610384239357L68.80350612112962,122.07310274741954L68.95626744322443,111.10260045332072L69.10902876531925,120.40049144230807L69.49093207055631,135.27534293158004L69.56731273160372,117.50444530726796L69.72007405369854,90.24184506511487L69.79645471474595,155.1939589360629L70.33111934207781,120.23171704714477L70.56026132522004,99.28714035569378L70.63664198626745,135.7585707339962L70.86578396940968,114.0486578594197L71.24768727464674,103.7518628268935L71.40044859674155,95.46532555684821L71.62959057988378,121.28750927058312L71.70597124093119,126.3336838637043L71.85873256302601,139.6753724771326L72.39339719035787,146.84228636611755L72.77530049559493,149.94492127726403L72.85168115664233,48.86757509675246L73.23358446187939,108.0661091106637L73.61548776711642,128.04729809145186L73.99739107235348,114.80629558152064L74.53205569968536,107.37373595366661L74.60843636073275,117.57670168361574L75.14310098806463,151.6424233155016L75.52500429330166,98.66845410996618L75.7541462764439,143.46417294293514L76.28881090377577,126.80163539159483L76.74709487006024,88.32615198059248L76.82347553110763,124.3078051194877L77.20537883634468,145.1748284337964L77.58728214158174,109.52045181036812L77.66366280262915,132.72342949457857L77.81642412472397,132.03190661536627L77.96918544681878,154.5875385218931L78.19832742996101,147.37215879917437L78.27470809100842,117.6730128781052L78.35108875205584,144.70879290348174L78.50385007415065,136.59566921313507L78.73299205729289,140.03433907544397L79.49679866776698,132.20828754963145L79.72594065090921,135.58622287408866L79.87870197300403,106.78867589627991L80.26060527824107,118.61351203002036L80.3369859392885,123.84936176547453L80.71888924452553,109.89168424023728L80.87165056662036,102.58060517832692L81.40631519395222,135.21763894461677L81.63545717709444,108.66723826915916L82.17012180442632,133.9977890696727L82.39926378756854,116.57248914904199L82.70478643175818,92.23637268857692L82.85754775385301,142.8457394824949L82.93392841490041,113.92541928670474L83.01030907594782,130.43162637316473L83.31583172013745,146.20126596573843L83.69773502537451,101.22982975988367L83.92687700851674,149.1412306718997L84.15601899165897,130.5683027819517L84.30878031375379,123.79153713098773L84.46154163584862,130.9198524301267L84.53792229689601,145.05587284816636L84.99620626318048,122.54528268375343L85.2253482463227,81.58572421468851L85.37810956841753,126.65323893766598L85.53087089051233,136.26049890255786L85.68363221260717,112.7575397687967L85.9891548567968,119.23670244995935L86.29467750098644,144.3440093710007L86.44743882308127,148.9708275351689L86.8293421283183,129.43637048093228L86.98210345041313,145.5236290419712L87.59314873879241,154.7506367383308L87.89867138298204,123.82595040079158L88.20419402717168,119.43650623914779L88.58609733240873,106.68393086538441L88.66247799345615,108.24667823753106L89.42628460393024,117.9825139917736L89.50266526497765,155.94662712921885L89.80818790916729,113.3717620561541L90.11371055335692,103.98788385361844L90.19009121440433,140.66620175427596L90.34285253649915,127.70656075943228L90.7247558417362,110.1126932679643L90.87751716383103,117.3847457285762L90.95389782487842,36.79197595793704L91.10665914697326,122.6517512506992L91.25942046906808,127.09674497924343L91.4121817911629,146.37004323346181L91.4885624522103,57.36233275703174L92.02322707954217,141.402760630482L92.48151104582664,145.70251772118954L92.78703369001627,134.1234176123774L92.93979501211108,143.7952153846719L93.01617567315849,93.36410530675384L93.16893699525332,125.80691954065813L93.32169831734814,115.17226548131629L93.70360162258518,129.02622635216804L93.77998228363259,149.60200367214082L93.85636294468001,117.95242105233578L94.00912426677482,138.67361023631037L94.16188558886965,123.99420199001963L94.39102757201186,119.61283546733146L94.54378889410668,127.18310562560265L94.62016955515409,95.1761736588134L95.15483418248596,147.3894889541599L95.30759550458079,98.42503336846539L95.46035682667559,112.2901282822019L95.61311814877043,140.5581302988034L96.30054409819711,130.30718707033475L96.37692475924453,136.9765505723257L96.52968608133934,92.50280838146908L96.68244740343417,130.38860691334983L97.44625401390824,123.71855686949883L97.67539599705049,96.45283128197458L98.05729930228753,100.93752379087685L98.43920260752458,104.25541111934244L98.59196392961941,128.01305143013286L98.66834459066682,84.37269349822677L98.74472525171421,129.82746953634097L98.82110591276162,134.19324954801448L98.97386723485646,147.26999332723412L99.12662855695127,154.14193551145448L99.43215120114091,93.13161752893197L99.58491252323573,115.15601828148235L99.81405450637796,144.51078733690576L100.27233847266243,126.15315495267811L101.0361450831365,121.47305941663578L101.18890640523134,106.88150554794782L101.34166772732615,107.91394385790493L101.7235710325632,145.6050632477867L102.02909367675284,126.2675977464165L102.18185499884767,141.54523961063822L102.33461632094247,112.76545079926748L102.41099698198988,115.6017361943243L102.64013896513211,131.1433318595258L102.79290028722694,129.33600323160448L103.25118425351138,120.97618695382158L103.63308755874844,70.88626519985627L104.24413284712772,137.6920219849566L104.32051350817513,124.8335697916247L104.39689416922255,120.46425078592799L104.47327483026994,121.09363444540763L104.62603615236476,120.95228725392441L104.7787974744596,151.15846301026406L104.85517813550699,117.52266308331937L105.6953654070285,135.19925456008048L105.92450739017073,61.85852125138935L106.00088805121814,122.35318310070971L106.40825157680432,84.35645778863315L106.48463223785173,141.04345794264083L106.79015488204138,133.65837311529165L107.01929686518359,107.34258016699776L107.09567752623101,117.89412531799525L107.24843884832583,133.0232500807646L107.40120017042065,148.71614348557955L107.47758083146806,127.0347608777553L107.93586479775253,112.37934999840459L108.01224545879992,135.4631796354594L108.08862611984733,133.5055816444346L108.16500678089476,130.0818864378425L108.31776810298958,138.88661631164393L108.39414876403697,135.6015336193353L108.5469100861318,80.06247454369404L108.6996714082266,137.14640792264058L108.77605206927403,102.53729846250364L108.85243273032144,130.53391823774868L109.3107166966059,85.15098492733017L109.3870973576533,131.92071555964273L109.46347801870071,77.42213221707303L109.53985867974812,121.90797650356268L110.53280727336445,117.61280976386902L110.68556859545927,135.49372643939046L110.83832991755409,127.5012301646426L111.29661388383855,133.25027424930707L111.83127851117042,127.6729632966922L112.21318181640746,136.23576616023638L112.28956247745487,140.12778920009L112.97698842688156,124.62665928878894L113.05336908792897,120.47017400482076L113.81717569840306,87.45613396289333L113.96993702049788,146.01222565918397L114.1226983425927,83.70172091385392L114.35184032573494,135.65815752370708L114.58098230887717,134.75369751060322L114.73374363097199,118.13028997272437L114.8865049530668,126.31341507975304L115.11564693620903,138.37098315892248L115.26840825830385,94.32533859735382L115.49755024144608,99.47946974354419L115.72669222458832,140.61156566148216L115.80307288563571,150.96275261919502L116.03221486877796,145.16229832671087L116.18497619087276,141.38071373183885L116.79602147925205,122.64397810311246L116.87240214029946,141.66335640872379L117.02516346239429,92.21788489187763L117.1779247844891,124.6019552720683L117.33068610658393,138.10227527100403L117.78897007286837,150.0501891140948L117.9417313949632,143.46517546640436L118.7819186664847,140.7221362442276L118.9346799885795,110.33785601757249L119.24020263276917,146.35072813945837L119.31658329381656,143.7109114913327L119.39296395486397,144.92401085007984L119.5457252769588,126.25091966257L119.6221059380062,158.04477086746348L119.92762858219584,118.67876510488384L120.15677056533808,135.52017697264205L120.84419651476476,140.31901265230815L121.07333849790699,123.66201339680941L121.76076444733368,122.37148705356367L122.06628709152332,130.5864688519216L122.21904841361813,134.44773539095803L122.37180973571296,99.4242131777723L122.44819039676037,129.09870104308217L122.52457105780776,143.10405157547007L122.8300937019974,130.84631489198154L122.90647436304482,141.93443415871135L122.98285502409223,118.93239492492245L123.05923568513964,109.3309949826015L123.36475832932928,146.53814832212558L123.5939003124715,152.51835018929313L123.67028097351893,134.7636423136133L123.89942295666114,124.87915157503436L123.97580361770856,140.64624607937384L124.35770692294561,134.32912163997796L124.51046824504043,148.32701213382825L124.81599088923006,142.5467002326517L124.96875221132488,142.07943811918125L125.04513287237228,133.31131615108774L125.35065551656194,129.87972714938536L125.65617816075158,116.85037486642815L125.88532014389381,132.11541768212237L126.57274609332049,127.78374644888385L127.18379138169976,151.64305815128012L127.41293336484199,104.15019498859319L127.56569468693682,150.81474396087748L127.64207534798422,128.76144525388415L127.79483667007904,114.69493217219207L127.87121733112646,152.65763775519628L127.94759799217385,129.66303845202438L128.1003593142687,151.56562542166134L128.17673997531608,129.71359550949916L128.48226261950572,130.77301290376326L128.63502394160054,132.90893367966987L128.78778526369535,118.99024828501007L128.9405465857902,136.08382496716416L129.0169272468376,112.11229383253433L129.47521121312204,148.10967711044842L129.55159187416947,138.49759124461573L129.70435319626426,133.92220052362774L130.5445404677858,128.91702310802248L130.6209211288332,139.8680982782746L130.77368245092802,125.3087429355659L130.92644377302284,145.42855304831775L131.07920509511766,78.65081808683483L131.3847277393073,149.74654515043724L131.84301170559175,135.4931691627342L132.07215368873398,140.36875390271913L132.2249150108288,157.2173328078864L132.60681831606587,121.30720354251761L133.14148294339773,123.8857053956547L133.29424426549252,120.02100327475807L133.752528231777,127.79391531158048L134.05805087596664,161.72805358370795L134.5927155032985,138.9835106358304L134.74547682539333,118.70106191625426L134.89823814748814,109.31499482293476L135.17830057132866,149.90203108265288L135.4074425544709,136.1426090367189L135.4838232155183,145.9806332433824L135.86572652075532,134.49695383543377L135.94210718180275,139.55085274262026L136.17124916494495,132.44668705610576L136.2476298259924,93.77018763555961L136.93505577541907,147.07660970983295L137.0878170975139,152.72324128238998L137.1641977585613,126.28721158666866L137.69886238589316,152.46363653737708L137.77524304694057,144.55051771542472L137.85162370798798,147.84326152547683L138.0043850300828,154.3837591095487L138.9209529626517,150.22980167845424L139.07371428474653,140.6082449820253L139.22647560684135,118.65993260097449L139.45561758998358,149.19365776598903L139.60837891207842,124.52329308673366L139.83752089522065,146.59109822215018L139.91390155626806,136.99037333144892L140.06666287836285,142.66340085861594L140.44856618359992,111.00651906363795L140.52494684464733,65.95573413058851L141.28875345512142,152.05251573818433L141.36513411616883,126.30413096556221L141.51789543826365,109.28931413578563L141.9761794045481,165.69602998473718L142.12894072664292,81.01725606434583L142.43446337083256,125.15809439453136L142.89274733711704,146.6852233984159L143.19826998130668,119.05045139924624L143.50379262549632,147.91257065517865L143.6565539475911,133.99480735230574L143.80931526968595,98.44854814531134L144.2675992359704,119.36929982342733L144.42036055806523,153.02166867693535L144.4967412191126,140.3787762648515L144.57312188016004,144.88668193179092L145.1077865074919,137.36006894167326L145.33692849063414,139.70011096457426L145.41330915168155,151.9968598865608L145.48968981272895,131.27517662225182L145.64245113482377,140.354899545435L145.71883179587118,145.9337071018535L145.871593117966,103.33018249683273L146.40625774529786,136.6857871680839L146.7117803894875,148.0260453961688L146.7881610505349,125.43771513820812L146.86454171158232,139.50828140217843L147.47558699996162,105.90920141078489L147.78110964415123,133.01343741551835L147.85749030519867,145.35913763389286L148.01025162729348,129.3176705531497L148.3921549325305,146.15296099536934L148.9268195598624,150.35355731198428L149.15596154300462,108.7038002139057L149.38510352614685,150.73981897621186L149.53786484824167,154.3139846251133L149.8433874924313,160.85209223919543L149.99614881452615,148.87100032713684L150.07252947557353,113.56969868128806L150.30167145871576,150.28657208339027L150.6835747639528,163.01049510659786L150.83633608604765,153.5833202421992L150.91271674709503,146.40527231032948L150.98909740814244,119.31467522087388L151.06547806918988,152.68840574625378L151.2182393912847,151.38307710089626L151.29462005233208,139.88427940922662L151.3710007133795,141.47170207249306L151.44738137442693,143.3680283569305L151.5237620354743,134.45276237110465L151.67652335756915,154.61074593481007L151.90566534071138,146.24494324181254L152.13480732385358,138.8605478288835L152.21118798490102,147.13333415380765L152.59309129013803,141.6931707098335L152.66947195118547,125.82859587905045L152.9749945953751,126.77720139552207L153.05137525642252,141.51896717611183L153.2041365785173,156.19040119560995L153.43327856165956,154.92295012751734L153.81518186689664,132.4287565360627L154.04432385003884,108.04934485001468L154.12070451108625,146.58612007552497L154.5026078163233,151.55394846492072L154.5789884773707,130.44409902904857L155.03727244365518,141.2251588581812L155.19003376574997,134.6170785530179L155.41917574889223,131.77449076113723L155.49555640993964,154.92801732350514L155.57193707098702,143.79799602283302L156.56488566460334,118.12731974559773L157.25231161403005,159.39123457322097L157.7105955803145,160.62511403161426L157.93973756345673,139.8860690141588L158.77992483497823,135.31035369388132L158.85630549602567,136.82495121390343L158.93268615707305,159.5811481380409L159.00906681812046,158.91282405406534L159.849254089642,147.06605017896493L160.23115739487903,142.66685080327656L160.30753805592644,139.43388496856824L160.38391871697382,141.7005416990085L160.46029937802126,129.96546157764632L160.53668003906867,153.86055676100642L160.61306070011605,144.18249106260907L160.6894413611635,162.41943283491608L160.7658220222109,128.40528227421458L160.9949640053531,159.10754053934537L161.6060092937324,105.3118927572009L161.75877061582722,152.97554685222994L161.98791259896944,150.49690380528583L162.06429326001685,145.87410722523495L162.14067392106426,133.8611413864866L162.2170545821117,159.65087953407505L162.3698159042065,133.99666877124002L162.5225772263013,124.40540896601489L162.59895788734872,142.2491748219726L162.90448053153835,129.75675859731828L162.98086119258576,144.09974409683528L163.0572418536332,149.6375717110984L163.13362251468058,139.7180443571774L163.43914515887025,162.86242468823852L163.66828714201247,126.62792019308742L163.8974291251547,154.3859336375321L164.12657110829693,131.94239189803505L164.2029517693443,151.49164838182338L164.43209375248654,156.3091959178753L164.58485507458136,126.78726684605569L164.6612357356288,148.42325151431564L164.96675837981843,128.9729116370128L165.11951970191325,150.59324659793623L165.73056499029252,143.6242291182441L165.88332631238734,146.3104289940428L165.95970697343475,150.50749493431476L166.11246829552957,154.5529873692052L166.2652296176244,143.92536533694852L166.3416102786718,149.94147133260338L166.57075226181402,131.7456330225354L166.72351358390884,129.95272464623477L166.79989424495625,121.81869733615832L167.1054168891459,152.275432145807L167.56370085543034,105.9204905719142L168.40388812695184,134.58197012367378L168.48026878799928,142.39686175356076L168.5566494490467,134.74029414525222L168.63303011009407,152.45309424186956L168.86217209323632,136.15870111830833L169.60051848336127,145.33970763748607L169.67689914440868,157.87858752149577L169.90604112755094,159.18410288325876L169.98242178859834,135.838335982403L170.21156377174054,148.0062793102322L170.44070575488277,141.8390594188092L170.89898972116723,126.78534797591972L171.2045123653569,155.8526369632771L171.28089302640427,140.57473082352766L171.43365434849912,147.02008059994395L171.58641567059394,143.66090022027382L171.73917699268875,144.3619456361639L171.81555765373616,147.21704055464943L172.27384162002062,157.32590121625344L172.65574492525766,170.32758500048354L173.0376482304947,152.94164489812098L173.19040955258953,151.08121412449066L173.34317087468438,145.488690093672L173.41955153573176,147.3475467043764L173.64869351887398,139.85532400358196L173.8778355020162,141.15294557023466L174.10697748515844,149.7641884144719L174.18335814620588,156.13237260935722L174.94716475667997,151.85539492011415L175.1763067398222,149.18140055211148L175.40544872296442,165.90004494700847L175.4818293840118,152.43119097123062L175.63459070610665,149.65983692430788L175.71097136715403,157.37026503418758L175.78735202820147,144.77524958102035L176.55115863867556,134.62696015970616L177.31496524914968,156.70854209328456L177.6204878933393,138.18484126549257L178.00239119857636,152.3926929209876L178.4606751648608,148.1577321680902L178.68981714800302,155.49602299167435L178.84257847009786,134.38469418735906L179.1481011142875,148.51452136585806L179.60638508057195,164.7238680392984L179.68276574161936,99.28617517550562L179.75914640266677,147.14402294987946L179.83552706371418,105.27207332931933L180.44657235209345,107.026759421145L180.7520949962831,150.16581827514779L180.98123697942532,148.81582419304732L181.05761764047273,129.91294543419437L181.43952094570977,143.81290173710784L181.51590160675718,155.2067217205152L181.59228226780462,153.917002566653L182.81437284456317,155.58046476789758L183.0435148277054,149.87799924499186L183.27265681084762,134.1682123143241L183.34903747189503,151.33010709295107L183.9600827602743,149.31953334886094L184.11284408236912,154.02195154931445L184.34198606551135,151.2724519395092L184.41836672655876,167.53532158871087L184.57112804865358,149.62368288309324L184.95303135389065,158.4296048693294L185.3349346591277,144.8151954015456L185.79321862541215,158.3442208933987L185.86959928645953,156.7084472988018L186.25150259169658,159.27520038119616L186.40426391379143,142.21987183655781L186.4806445748388,156.95532947520357L186.9389285411233,154.41548079055403L187.09168986321808,156.13654931171905L187.39721250740774,169.84055105595635L187.62635449054997,157.9489566258685L188.23739977892924,159.70921548425673L188.46654176207147,156.28628437864694L188.6956837452137,141.06217841670693L188.7720644062611,133.04571924574003L189.6122516777826,149.04656258177815L189.76501299987746,127.6315926863654L189.99415498301968,164.0995056148452L190.2232969661619,154.3928507622139L190.52881961035152,131.68647552016975L190.75796159349377,126.18672368981734L190.987103576636,156.5581980436189L191.21624555977823,153.4679754645945L191.36900688187305,121.50189417475691L191.44538754292046,165.0000862355559L191.67452952606268,133.53113019381988L192.13281349234717,160.86936494297927L192.28557481444196,156.1159243303174L192.36195547548937,159.6480845331135L192.43833613653678,148.2625174148269L192.51471679758419,136.93511963823713L192.89662010282123,155.71743417781312L192.97300076386867,160.0123969657408L193.04938142491605,162.25575436134142L193.20214274701087,165.387427982375L193.35490406910571,138.47875874070638L193.4312847301531,160.5429128522564L193.5076653912005,150.89985504360027L193.58404605224794,141.5548511966786L193.73680737434273,105.76937093102592L194.11871067957978,135.315518556912L194.19509134062722,150.2750071564929L194.2714720016746,145.04001057138365L194.72975596795905,149.7801253778168L194.8061366290065,160.9225963538921L195.03527861214872,153.03456072659142L195.1116592731961,158.6693200083221L195.18803993424353,162.94863308891328L195.34080125633832,159.3778455706704L195.56994323948058,129.03178762849026L195.9518465447176,143.55403524003648L196.33374984995467,142.841766731899L196.4865111720495,160.36641988814796L196.6392724941443,155.49985211426605L196.86841447728654,149.25472839337053L197.09755646042876,141.75345425575202L197.25031778252358,132.9913761540748L197.326698443571,146.81755649635616L197.78498240985547,121.19682254873771L198.70155034242435,155.80931875721345L199.00707298661402,151.81958845866964L199.15983430870884,140.6768819326675L199.38897629185107,125.9833751614855L199.84726025813552,149.72608390496038L200.38192488546738,133.24697655033088L200.4583055465148,144.2602311561568L200.68744752965702,121.81018306806996L200.76382819070446,151.0544217565891L200.9929701738467,150.2858194726483L201.2984928180363,123.40488479858874L201.37487347908373,138.60458836261694L201.52763480117852,162.48788450543287L201.60401546222596,135.14903646469557L201.75677678432078,156.3495956028938L202.1386800895578,135.56620687542477L202.21506075060523,146.63530117671962L202.44420273374746,161.15504535215283L202.52058339479484,164.18431795131926L202.97886736107932,140.5002223600742L203.1316286831741,154.43962465805834L203.20800934422155,163.97865126699978L203.36077066631634,131.97316850677282L203.666293310506,113.48673914606806L203.76813419190256,159.45464059195058L203.9972761750448,148.09902853021777L204.22641815818702,112.36038535673137L204.60832146342406,123.32463696008786L204.76108278551888,157.74177610238488L204.9138441076137,143.6232179770946L205.6776507180878,166.04333973422848L205.8304120401826,164.89693116666677L205.90679270123005,150.61839298890976L206.44145732856188,139.30544131698142L206.74697997275155,150.61454950351765L207.35802526113082,157.40279677713656L207.58716724427305,166.3118752685419L207.73992856636787,152.245847649504L208.1218318716049,157.9148162492726L208.35097385474714,150.52243224675053L209.95496773674273,154.55279490767958L210.10772905883758,102.44666344673973L210.41325170302719,154.28849927204988L210.6423936861694,160.8366579738652L211.10067765245387,145.38508259656967L211.78810360188058,163.9012386453016L212.0172455850228,137.30391039203505L212.0936262460702,129.1228765087474L212.17000690711762,150.25945224363917L212.70467153444946,106.86579838940963L213.39209748387617,157.64545054509497L213.544858805971,150.78462516839892L213.77400078911322,161.47433758686685L213.92676211120806,159.4649186119304L214.00314277225544,155.59351768091835L214.23228475539767,161.7207702076155L214.3086654164451,159.5391398193755L214.4614267385399,154.87545521909186L214.61418806063472,174.6031120468843L214.84333004377694,141.8988661197538L214.99609136587176,150.27445275239674L215.75989797634588,156.33241482103261L215.8362786373933,160.7140772174094L216.0654206205355,166.585679078049L216.14180128158293,160.3651329812304L216.44732392577257,146.169541412173L216.7528465699622,160.33474129554386L216.8292272310096,143.15514292912047L216.98198855310443,150.87027629241743L217.6694145025311,157.2161809112928L217.97493714672075,158.7341134735722L218.66236309614743,139.42225110022883L218.81512441824225,149.5476778158361L218.89150507928966,152.78899418270805L219.2734083845267,149.7430434996951L219.34978904557414,160.7079443016305L220.03721499500082,147.55535919107848L220.26635697814305,148.3387925027319L220.41911830023787,155.63682439674164L220.72464094442748,149.44119201352981L220.87740226652232,128.30981561238974L220.95378292756973,162.38102814287578L221.18292491071196,121.86726658205512L221.25930557175937,146.56013489700695L221.33568623280678,148.05661230802048L221.4884475549016,145.76532050230153L221.564828215949,151.7149554576174L221.79397019909123,148.42688243026154L221.94673152118608,150.3160129516891L222.02311218223346,156.40189343177937L222.2522541653757,163.54368821911154L222.32863482642313,154.5022953014065L222.4050154874705,137.96836801013785L222.55777680956535,147.98232503169345L222.78691879270758,139.37750810436367L223.55072540318167,153.57045691814398L223.7798673863239,150.8066634493618L224.0853900305135,122.20441895909015L224.31453201365574,154.75911940825824L224.46729333575058,146.13770195620424L224.543673996798,156.45304798175158L224.6964353188928,163.3044657241732L225.00195796308245,147.69694193248858L225.15471928517726,164.4088315023485L225.30748060727208,140.18576033514105L225.53662259041434,161.45142030251833L225.76576457355654,144.19211701144985L225.91852589565136,127.23173232270112L226.3004292008884,137.6766221903474L226.45319052298322,148.22021322247284L226.52957118403066,165.58382491530406L226.9878551503151,165.40101950041148L227.0642358113625,149.23501401351544L227.36975845555216,140.85720114680757L227.44613911659954,146.08212079114287L227.98080374393143,162.03679777779428L228.66822969335811,156.9753713269082L229.3556556427848,118.38242031639922L229.89032027011666,148.84793079710388L229.9667009311641,153.85413658921914L230.1958429143063,163.2389167756211L230.8068882026856,136.16461859208096L230.95964952478042,156.26987344288824L231.1124108468752,157.83215546030132L232.25812076258637,149.07619591160258L232.33450142363375,164.03821380033727L232.7164047288708,155.83323281991105L232.94554671201303,151.36899006624532L233.3274500172501,165.63368681323857L233.55659200039236,150.11114196651283L234.01487596667678,154.08751486066697L234.39677927191386,119.48875236195187L234.47315993296124,160.72385828449472L234.7786825771509,156.3151334995685L235.00782456029313,144.18772199452167L235.23696654343536,133.88725870276846L235.31334720448274,150.54222131316777L235.54248918762497,143.16772761484756L235.77163117076722,143.9794613884465L235.924392492862,118.81900348817473L236.3826764591465,131.20010513702192L236.53543778124128,158.75202388569465L236.61181844228872,156.85698450817475L236.76457976438354,126.83971404806562L236.99372174752577,142.5352444630375L237.222863730668,155.30213093113835L237.3756250527628,161.82665420858422L237.52838637485763,139.78120046317972L237.68114769695245,156.10443121742213L237.7575283579999,134.20799152636448L238.0630510021895,163.89149348521732L238.1394316632369,138.14169541303397L238.21581232428431,155.67797094738194L238.29219298533172,145.13941838564344L238.36857364637916,131.35832574643734L238.44495430742654,53.607195822851224L238.52133496847395,159.6271320798623L238.5977156295214,147.55683855952165L238.67409629056877,145.45480250236346L238.7504769516162,156.37564685029372L238.82685761266362,136.43862060823383L238.903238273711,128.33090594852496L238.97961893475843,133.42008276610053L239.05599959580582,148.63596458852066L239.13238025685322,156.94149235327993L239.20876091790066,162.83956054625156L239.28514157894804,139.23359571672563L239.36152223999548,150.30533277329755L239.4379029010429,155.43456744124165L239.51428356209027,158.0648874057303L239.5906642231377,165.27692346851148L239.66704488418512,168.9071097841671L239.7434255452325,153.3885750313183L239.81980620627994,144.0707714558301L239.89618686732732,139.71757038476358L239.97256752837475,163.28446121574967L240.04894818942216,154.91634323932462L240.2780901725644,161.10449547607823L240.50723215570662,162.22267826825657L240.58361281675403,139.92375987501828L240.65999347780144,157.19607586326634L240.96551612199104,163.23003481984202L241.2710387661807,130.5227152534219L241.34741942722815,140.58974282252558L241.42380008827553,147.71198552964742L241.65294207141775,140.48948473048097L241.80570339351257,142.54629232911978L242.18760669874965,152.06687279348316L242.49312934293926,151.74825991922893L242.5695100039867,152.70990973104108L243.25693595341338,162.41430387888644L243.33331661446076,149.83111331930417L243.48607793655557,144.57947599362944L243.7152199196978,107.75165570341085L243.79160058074524,154.02579790726665L243.86798124179265,153.29459348305681L244.02074256388747,158.6075599665205L244.4026458691245,142.54550524765682L244.5554071912193,123.0280508765562L244.86092983540897,142.7067650256409L244.93731049645638,162.63379332232915L245.01369115750379,144.66760039188011L245.0900718185512,146.15485401246457L245.31921380169342,162.09042416571862L245.70111710693047,156.7166685657616L246.0066397511201,152.508747220933L246.46492371740456,147.95598078316496L246.77044636159422,123.08831144199404L247.15234966683124,122.81283867507827L248.06891759940018,129.71994386728437L248.14529826044756,144.9806002837306L248.90910487092168,144.15585094039196L249.21462751511132,156.41363071228176L249.59653082034836,154.2052639710618L249.67291148139577,148.19571603007824L249.74929214244318,152.29932035546383L250.20757610872766,143.23828343562573L250.51309875291727,157.55278462935183L250.6658600750121,162.65113353127498L250.97138271920176,163.0097223879353L251.73518932967582,137.7793937724653L251.96433131281805,138.50973930121012L252.1170926349129,162.61162433988247L252.1934732959603,134.1525970777086L252.2698539570077,162.74471579368483L252.88089924538698,118.74292660691549L253.0336605674818,129.514417938409L253.41556387271885,147.99801782743123L253.8738478390033,166.07791817623718L254.10298982214553,166.23475277541218L254.33213180528776,157.908967716942L254.48489312738258,141.15965299803034L254.63765444947742,141.25871035995993L254.79041577157224,160.43730892589585L255.09593841576185,151.7338023243272L255.5542223820463,128.80335016038654L256.01250634833076,164.22953348331822L256.1652676704256,109.683590242647L256.54717097566265,137.15527838817934L256.62355163671003,138.46598733857383L256.69993229775747,139.17991905899981L256.8526936198523,165.05883439810964L256.9290742808997,125.96011891504709L257.2345969250893,145.7045112778877L257.3873582471842,163.24669279576793L257.6928808913738,123.90518135302281L257.922022874516,148.3547467014373L258.6094488239427,137.41980957373593L258.99135212917975,161.1282673470517L259.0677327902272,167.5209214450108L259.3732554344168,170.4830465159385L259.4496360954642,161.7447287949944L259.602397417559,148.69428904846202L259.75515873965384,158.1137582704359L259.9079200617487,150.26277292309604L259.9843007227961,152.58735482762606L260.0606813838435,153.47233313824162L260.44258468908055,164.32075162877913L260.67172667222275,149.53901991974354L260.7481073332702,146.37565334330546L260.900868655365,121.1741523045564L261.0536299774598,162.0369327881182L261.35915262164946,154.75915962409942L261.43553328269684,146.95763401628233L261.8174365879339,155.59963623389683L261.8938172489813,156.48747848691596L262.199339893171,139.9445715728254L262.27572055421837,148.48156448401667L262.3521012152658,163.94655615318354L263.57419179202435,171.0797691672654L263.95609509726137,163.08973611278938L264.0324757583088,142.30313011802653L264.10885641935624,161.44888957708451L264.49075972459326,148.66987516030986L264.5671403856407,150.44274743002603L264.7962823687829,143.2805876279798L264.8726630298303,131.68670532497646L265.17818567401997,161.08408450040284L265.3309469961148,146.61574478766914L265.8656116234466,158.55043336413408L265.94199228449406,155.47996825336602L266.2475149286837,142.28187891852662L266.4002762507785,162.14977987473006L267.01132153915773,156.2871605094725L267.7751281496318,164.2677284784724L267.85150881067926,116.55964306034727L268.61531542115335,147.58117201599146L268.99721872639043,149.14192870400007L269.53188335372226,159.77233999209813L269.6846446758171,161.90511675099305L270.14292864210154,164.53480475226326L270.3720706252438,159.61916934331L270.52483194733855,145.00716571938554L271.2886385578127,161.31585988332392L271.3650192188601,151.51228485346536L271.74692252409716,151.1920662181243L272.0524451682868,156.1988637576168L272.35796781247643,155.59919385964395" style="fill: none;" fill="none"></path></g></g></g></g></g></g><g transform="translate(37, 177)" clip-path="url(#clip_1)"><clipPath id="clip_1"><rect width="293" height="23"></rect></clipPath><g><g><line x1="4.326516495755237" y1="0" x2="4.326516495755237" y2="5" style="visibility: inherit;" fill="rgb(0, 0, 0)" stroke="rgb(204, 204, 204)" stroke-width="1px"></line><line x1="29.786736844891802" y1="0" x2="29.786736844891802" y2="5" style="visibility: inherit;" fill="rgb(0, 0, 0)" stroke="rgb(204, 204, 204)" stroke-width="1px"></line><line x1="55.24695719402837" y1="0" x2="55.24695719402837" y2="5" style="visibility: inherit;" fill="rgb(0, 0, 0)" stroke="rgb(204, 204, 204)" stroke-width="1px"></line><line x1="80.70717754316493" y1="0" x2="80.70717754316493" y2="5" style="visibility: inherit;" fill="rgb(0, 0, 0)" stroke="rgb(204, 204, 204)" stroke-width="1px"></line><line x1="106.1673978923015" y1="0" x2="106.1673978923015" y2="5" style="visibility: inherit;" fill="rgb(0, 0, 0)" stroke="rgb(204, 204, 204)" stroke-width="1px"></line><line x1="131.62761824143806" y1="0" x2="131.62761824143806" y2="5" style="visibility: inherit;" fill="rgb(0, 0, 0)" stroke="rgb(204, 204, 204)" stroke-width="1px"></line><line x1="157.08783859057462" y1="0" x2="157.08783859057462" y2="5" style="visibility: inherit;" fill="rgb(0, 0, 0)" stroke="rgb(204, 204, 204)" stroke-width="1px"></line><line x1="182.5480589397112" y1="0" x2="182.5480589397112" y2="5" style="visibility: inherit;" fill="rgb(0, 0, 0)" stroke="rgb(204, 204, 204)" stroke-width="1px"></line><line x1="208.00827928884775" y1="0" x2="208.00827928884775" y2="5" style="visibility: inherit;" fill="rgb(0, 0, 0)" stroke="rgb(204, 204, 204)" stroke-width="1px"></line><line x1="233.4684996379843" y1="0" x2="233.4684996379843" y2="5" style="visibility: inherit;" fill="rgb(0, 0, 0)" stroke="rgb(204, 204, 204)" stroke-width="1px"></line><line x1="258.92871998712087" y1="0" x2="258.92871998712087" y2="5" style="visibility: inherit;" fill="rgb(0, 0, 0)" stroke="rgb(204, 204, 204)" stroke-width="1px"></line><line x1="284.3889403362574" y1="0" x2="284.3889403362574" y2="5" style="visibility: inherit;" fill="rgb(0, 0, 0)" stroke="rgb(204, 204, 204)" stroke-width="1px"></line></g><g transform="translate(0, 8)"><text x="4.326516495755237" y="0" dx="0em" dy="0.95em" style="text-anchor: middle; visibility: hidden; font-family: &quot;Helvetica Neue&quot;, sans-serif; font-size: 12px; font-weight: 200;" fill="rgb(50, 49, 63)" stroke="none" stroke-width="1px">-100k</text><text x="29.786736844891802" y="0" dx="0em" dy="0.95em" style="text-anchor: middle; visibility: inherit; font-family: &quot;Helvetica Neue&quot;, sans-serif; font-size: 12px; font-weight: 200;" fill="rgb(50, 49, 63)" stroke="none" stroke-width="1px">0</text><text x="55.24695719402837" y="0" dx="0em" dy="0.95em" style="text-anchor: middle; visibility: hidden; font-family: &quot;Helvetica Neue&quot;, sans-serif; font-size: 12px; font-weight: 200;" fill="rgb(50, 49, 63)" stroke="none" stroke-width="1px">100k</text><text x="80.70717754316493" y="0" dx="0em" dy="0.95em" style="text-anchor: middle; visibility: inherit; font-family: &quot;Helvetica Neue&quot;, sans-serif; font-size: 12px; font-weight: 200;" fill="rgb(50, 49, 63)" stroke="none" stroke-width="1px">200k</text><text x="106.1673978923015" y="0" dx="0em" dy="0.95em" style="text-anchor: middle; visibility: hidden; font-family: &quot;Helvetica Neue&quot;, sans-serif; font-size: 12px; font-weight: 200;" fill="rgb(50, 49, 63)" stroke="none" stroke-width="1px">300k</text><text x="131.62761824143806" y="0" dx="0em" dy="0.95em" style="text-anchor: middle; visibility: inherit; font-family: &quot;Helvetica Neue&quot;, sans-serif; font-size: 12px; font-weight: 200;" fill="rgb(50, 49, 63)" stroke="none" stroke-width="1px">400k</text><text x="157.08783859057462" y="0" dx="0em" dy="0.95em" style="text-anchor: middle; visibility: hidden; font-family: &quot;Helvetica Neue&quot;, sans-serif; font-size: 12px; font-weight: 200;" fill="rgb(50, 49, 63)" stroke="none" stroke-width="1px">500k</text><text x="182.5480589397112" y="0" dx="0em" dy="0.95em" style="text-anchor: middle; visibility: inherit; font-family: &quot;Helvetica Neue&quot;, sans-serif; font-size: 12px; font-weight: 200;" fill="rgb(50, 49, 63)" stroke="none" stroke-width="1px">600k</text><text x="208.00827928884775" y="0" dx="0em" dy="0.95em" style="text-anchor: middle; visibility: hidden; font-family: &quot;Helvetica Neue&quot;, sans-serif; font-size: 12px; font-weight: 200;" fill="rgb(50, 49, 63)" stroke="none" stroke-width="1px">700k</text><text x="233.4684996379843" y="0" dx="0em" dy="0.95em" style="text-anchor: middle; visibility: inherit; font-family: &quot;Helvetica Neue&quot;, sans-serif; font-size: 12px; font-weight: 200;" fill="rgb(50, 49, 63)" stroke="none" stroke-width="1px">800k</text><text x="258.92871998712087" y="0" dx="0em" dy="0.95em" style="text-anchor: middle; visibility: hidden; font-family: &quot;Helvetica Neue&quot;, sans-serif; font-size: 12px; font-weight: 200;" fill="rgb(50, 49, 63)" stroke="none" stroke-width="1px">900k</text><text x="284.3889403362574" y="0" dx="0em" dy="0.95em" style="text-anchor: middle; visibility: inherit; font-family: &quot;Helvetica Neue&quot;, sans-serif; font-size: 12px; font-weight: 200;" fill="rgb(50, 49, 63)" stroke="none" stroke-width="1px">1M</text></g><line x1="0" y1="0" x2="293" y2="0" fill="rgb(0, 0, 0)" stroke="rgb(204, 204, 204)" stroke-width="1px"></line></g></g></g></g></svg>